<?xml version="1.0" encoding="utf-8"?>
<!-- Generator: Adobe Illustrator 19.0.0, SVG Export Plug-In . SVG Version: 6.00 Build 0)  -->
<svg version="1.1" id="Layer_1" xmlns="http://www.w3.org/2000/svg" xmlns:xlink="http://www.w3.org/1999/xlink" x="0px" y="0px"
	 viewBox="0 0 54.7 59.3" style="enable-background:new 0 0 54.7 59.3;" xml:space="preserve">
<style type="text/css">
	.st0{display:none;fill:#3C2FEA;}
	.st1{display:none;fill:none;stroke:#3E3EDD;stroke-width:8;stroke-miterlimit:10;}
	.st2{display:none;fill:#3E3EDD;}
	.st3{display:none;opacity:0.44;fill:none;stroke:#121293;stroke-width:4;stroke-miterlimit:10;}
	.st4{opacity:0.44;fill:none;stroke:#121293;stroke-width:4;stroke-miterlimit:10;}
	.st5{display:none;fill:#6060C6;}
	.st6{display:none;fill:#A1A1E5;}
</style>
<path id="XMLID_46_" class="st0" d="M-37-613.3c55,4.7,82.7,31,83.5,42.5c2.3,33.8-18.3,62.8-44.9,81.5C-25.1-470.7-37-492-37-492
	V-613.3z"/>
<circle id="XMLID_47_" class="st1" cx="12.4" cy="24" r="43.4"/>
<circle id="XMLID_54_" class="st2" cx="96.5" cy="-418.8" r="16.5"/>
<path id="XMLID_56_" class="st2" d="M438.6-249.3c-46.3,0-64.6,26.6-64.6,53s18.6,53,64.6,53"/>
<ellipse id="XMLID_57_" class="st3" cx="-0.8" cy="-192.3" rx="13.2" ry="13"/>
<ellipse id="XMLID_60_" class="st4" cx="28.2" cy="29.7" rx="20.8" ry="20.6"/>
<path id="XMLID_61_" class="st5" d="M439-45.3l-115.3,111c-8.8,8.5-8.2,22.9,1.3,30.6l114,92.4V-45.3z"/>
<path id="XMLID_59_" class="st6" d="M-37-286.3c35-33,139.2-73,238.2-72s168.8,42,237.8,41c0,60,0,60,0,60s97,3,0,0
	c-97-3-181-49.3-283-34.3s-193,66.8-193,66.8V-286.3z"/>
<path id="XMLID_53_" class="st6" d="M438.6-73.3c-129-22.4-239.6-48.5-314.6-32S-37-37.3-37-37.3v-96
	c52.6-37.5,179.5-90.3,295.6-46.1s131.3,26.5,180.4,28C438.6-109.4,438.6-73.3,438.6-73.3"/>
</svg>
