<?xml version="1.0" encoding="utf-8"?>
<!-- Generator: Adobe Illustrator 19.0.0, SVG Export Plug-In . SVG Version: 6.00 Build 0)  -->
<svg version="1.1" id="Layer_1" xmlns="http://www.w3.org/2000/svg" xmlns:xlink="http://www.w3.org/1999/xlink" x="0px" y="0px"
	 viewBox="0 0 480.4 422" style="enable-background:new 0 0 480.4 422;" xml:space="preserve">
<style type="text/css">
	.st0{fill:#8FD8D3;}
	.st1{fill:#FFFFFF;}
	.st2{fill:#EBF5F7;}
	.st3{fill:#023D5F;}
	.st4{clip-path:url(#XMLID_709_);}
	.st5{fill:none;stroke:#17A59E;stroke-miterlimit:10;}
	.st6{fill:#DAE4E5;}
	.st7{clip-path:url(#XMLID_721_);}
	.st8{fill:none;stroke:#023D5F;stroke-width:2;stroke-miterlimit:10;}
	.st9{fill:#2DC1BD;}
	.st10{fill:#17A59E;}
	.st11{clip-path:url(#XMLID_722_);}
	.st12{fill:none;stroke:#2DC1BD;stroke-miterlimit:10;}
	.st13{fill:none;stroke:#63BACE;stroke-linecap:round;stroke-linejoin:round;}
	.st14{fill:none;stroke:#63BACE;stroke-linecap:round;stroke-linejoin:round;stroke-dasharray:2.9912,2.4926;}
	.st15{fill:none;stroke:#63BACE;stroke-linecap:round;stroke-linejoin:round;stroke-dasharray:2.9899,2.4916;}
	.st16{fill:none;}
	.st17{fill:none;stroke:#63BACE;stroke-linecap:round;stroke-linejoin:round;stroke-dasharray:2.9062,2.4219;}
	.st18{fill:none;stroke:#63BACE;stroke-linecap:round;stroke-linejoin:round;stroke-dasharray:2.9853,2.4877;}
	.st19{fill:#FDD247;}
	.st20{fill:#FCDED6;}
	.st21{opacity:0.2;fill:#71606E;}
	.st22{fill:#167F7F;}
	.st23{fill:#FC9549;}
	.st24{fill:#FC5E49;}
	.st25{fill:#2085B7;}
	.st26{fill:none;stroke:#63BACE;stroke-linecap:round;stroke-linejoin:round;stroke-miterlimit:10;stroke-dasharray:3,2.5;}
	.st27{fill:none;stroke:#17A59E;stroke-linecap:round;stroke-linejoin:round;stroke-miterlimit:10;}
	.st28{opacity:0.2;}
	.st29{fill:#FFB839;}
	.st30{fill:#B3E5E1;}
	.st31{fill:none;stroke:#FFFFFF;stroke-miterlimit:10;}
	.st32{fill:none;stroke:#17A59E;stroke-width:0.5;stroke-linecap:round;stroke-linejoin:round;stroke-miterlimit:10;}
	.st33{opacity:0.55;}
	.st34{fill:none;stroke:#FFE1B0;stroke-width:16;stroke-linecap:round;stroke-linejoin:round;stroke-miterlimit:10;}
	.st35{fill:#0C877E;}
	.st36{fill:#C5E6EF;}
	.st37{opacity:0.55;fill:#71C9C4;}
	.st38{fill:none;stroke:#95C6C6;stroke-width:0.5;stroke-linecap:round;stroke-linejoin:round;}
	.st39{fill:none;stroke:#95C6C6;stroke-width:0.5;stroke-linecap:round;stroke-linejoin:round;stroke-dasharray:1.8131,2.2664;}
	.st40{fill:none;stroke:#95C6C6;stroke-width:0.5;stroke-linecap:round;stroke-linejoin:round;stroke-dasharray:2.0939,2.6173;}
	.st41{fill:none;stroke:#95C6C6;stroke-width:0.5;stroke-linecap:round;stroke-linejoin:round;stroke-dasharray:1.7917,2.2397;}
	.st42{fill:none;stroke:#C5E6EF;stroke-width:0.5;stroke-miterlimit:10;}
	.st43{fill:none;stroke:#C5E6EF;stroke-width:0.25;stroke-miterlimit:10;}
	.st44{fill:#F39F86;}
	.st45{fill:none;stroke:#FFFFFF;stroke-width:0.25;stroke-miterlimit:10;}
	.st46{fill:#95C6C6;}
	.st47{fill:#062F44;}
	.st48{fill:#16405A;}
	.st49{fill:#103649;}
	.st50{opacity:0.5;}
	.st51{fill:#3A3A3A;}
	.st52{fill:#FFE7C5;}
	.st53{fill:#FFC25B;}
	.st54{fill:#FFA92C;}
	.st55{fill:#0B0B3A;}
	.st56{fill:#AFD4DD;}
	.st57{fill:#FFB27E;}
	.st58{fill:#DB856E;}
	.st59{fill:#ED9C80;}
	.st60{opacity:0.75;fill:#C5E6EF;}
	.st61{fill:#94DEE0;}
	.st62{fill:none;stroke:#94DEE0;stroke-miterlimit:10;}
	.st63{fill:#86D5DB;}
	.st64{fill:none;stroke:#FFC840;stroke-width:2.986;stroke-linecap:round;stroke-linejoin:round;stroke-miterlimit:10;}
	.st65{fill:none;stroke:#94DEE0;stroke-width:0.5;stroke-miterlimit:10;}
</style>
<g id="XMLID_2_">
	<g id="XMLID_901_">
		<path id="XMLID_907_" class="st0" d="M386.4,270.1c-1.9,2.3-5.2,2.7-7.5,0.8l-11.4-9.2c-2.3-1.9-2.7-5.2-0.8-7.5l9.2-11.4
			c1.9-2.3,5.2-2.7,7.5-0.8l11.4,9.2c2.3,1.9,2.7,5.2,0.8,7.5L386.4,270.1z"/>
		<g id="XMLID_902_">
			<path id="XMLID_904_" class="st1" d="M378.7,246c1.8,1.1,3.6,2.3,4.9,4c1.2,1.4,1.3,3.2,0.4,4.7c-1,1.6-2.8,2.4-4.6,2
				c-1.2-0.3-2.2-0.9-3.1-1.6c-0.2-0.2-0.4-0.4-0.7-0.6c-1,1.2-2,2.4-3,3.7c-0.8-0.6-1.5-1.2-2.3-1.9
				C373.2,252.8,375.9,249.4,378.7,246z M377.2,252.6c0.6,0.6,1.2,1.1,2,1.3c0.9,0.2,1.7-0.1,2.3-1c0.4-0.7,0.4-1.6-0.3-2.2
				c-0.4-0.5-1-0.8-1.5-1.2C378.9,250.5,378.1,251.5,377.2,252.6z"/>
			<path id="XMLID_903_" class="st1" d="M389.2,259.4c-0.6,0.4-1.1,0.8-1.6,1.2c-0.4-0.5-0.8-1-1.2-1.5c-0.2-0.2-0.4-0.4-0.7-0.5
				c-0.2-0.1-0.6,0-0.8,0.1c-0.2,0.1-0.2,0.5-0.2,0.8c0.1,0.4,0.4,0.8,0.6,1.1c0.2,0.5,0.5,0.9,0.7,1.4c0.6,2-1,3.9-3.1,3.6
				c-1.3-0.1-2.3-0.8-3.2-1.7c-0.6-0.6-1.1-1.3-1.6-2c0.7-0.5,1.3-1,1.7-1.3c0.6,0.7,1.2,1.5,1.8,2.1c0.1,0.2,0.4,0.3,0.6,0.3
				c0.2,0,0.6,0,0.7-0.2c0.2-0.2,0.2-0.5,0.2-0.8c-0.1-0.3-0.3-0.6-0.4-0.9c-0.3-0.5-0.6-1-0.8-1.6c-0.6-1.9,0.8-3.7,2.8-3.6
				C386.4,256.2,388.5,257.7,389.2,259.4z"/>
		</g>
	</g>
	<path id="XMLID_900_" class="st2" d="M401.2,179.8c0,0-86.5,0-101.9,0c-15.4,0-15.6-19.1-1.9-22.9c14-3.9,24,5.1,24,5.1
		s3.7-46.8,38.8-41.3c27.7,4.3,26,34.4,26,34.4s5.7-12.4,20.6-7.7C422.4,152.2,420.7,179.8,401.2,179.8z"/>
	<g id="XMLID_890_">
		<path id="XMLID_899_" class="st3" d="M286.4,248.7c-17.4,1-30.4,20.7-30.4,20.7s15.1,18.2,32.5,17.2c17.4-1,30.4-20.7,30.4-20.7
			S303.8,247.8,286.4,248.7z"/>
		<g id="XMLID_891_">
			<defs>
				<path id="XMLID_892_" d="M286.4,248.7c-17.4,1-30.4,20.7-30.4,20.7s15.1,18.2,32.5,17.2c17.4-1,30.4-20.7,30.4-20.7
					S303.8,247.8,286.4,248.7z"/>
			</defs>
			<clipPath id="XMLID_709_">
				<use xlink:href="#XMLID_892_"  style="overflow:visible;"/>
			</clipPath>
			<g id="XMLID_893_" class="st4">
				<line id="XMLID_898_" class="st5" x1="254.4" y1="269.5" x2="320.5" y2="265.8"/>
				<line id="XMLID_897_" class="st5" x1="285" y1="287.6" x2="268.9" y2="268.7"/>
				<line id="XMLID_896_" class="st5" x1="308.1" y1="286.3" x2="292" y2="267.4"/>
				<line id="XMLID_895_" class="st5" x1="281.1" y1="268" x2="298.5" y2="249.7"/>
				<line id="XMLID_894_" class="st5" x1="296.5" y1="267.2" x2="308.4" y2="255"/>
			</g>
		</g>
	</g>
	<ellipse id="XMLID_889_" class="st6" cx="219.6" cy="324.7" rx="131.6" ry="16.9"/>
	<ellipse id="XMLID_888_" class="st6" cx="351.2" cy="334.3" rx="96.6" ry="21.1"/>
	<g id="XMLID_878_">
		<path id="XMLID_887_" class="st3" d="M143.3,268c19.7,17,54.2,9.3,54.2,9.3s2.6-35.3-17.1-52.2s-54.2-9.3-54.2-9.3
			S123.7,251.1,143.3,268z"/>
		<g id="XMLID_879_">
			<defs>
				<path id="XMLID_880_" d="M143.3,268c19.7,17,54.2,9.3,54.2,9.3s2.6-35.3-17.1-52.2s-54.2-9.3-54.2-9.3S123.7,251.1,143.3,268z"
					/>
			</defs>
			<clipPath id="XMLID_721_">
				<use xlink:href="#XMLID_880_"  style="overflow:visible;"/>
			</clipPath>
			<g id="XMLID_881_" class="st7">
				<line id="XMLID_886_" class="st5" x1="199.3" y1="279" x2="124.3" y2="214.3"/>
				<line id="XMLID_885_" class="st5" x1="185.1" y1="227.7" x2="182.8" y2="264.7"/>
				<line id="XMLID_884_" class="st5" x1="159" y1="205.2" x2="156.7" y2="242.2"/>
				<line id="XMLID_883_" class="st5" x1="169" y1="252.9" x2="131.3" y2="254.4"/>
				<line id="XMLID_882_" class="st5" x1="151.6" y1="237.7" x2="126.2" y2="238.4"/>
			</g>
		</g>
	</g>
	<path id="XMLID_877_" class="st2" d="M99.7,253.5c0,0-75.8,0-89.3,0c-13.5,0-13.6-15.3-1.7-18.4c12.3-3.2,21,4.1,21,4.1
		s3.2-37.6,34-33.2c24.2,3.5,22.8,27.7,22.8,27.7s5-10,18.1-6.2C118.2,231.4,116.7,253.5,99.7,253.5z"/>
	<path id="XMLID_876_" class="st2" d="M119.8,96.3c0,0,61,0,71.9,0c10.8,0,11-12.3,1.4-14.8c-9.9-2.5-16.9,3.3-16.9,3.3
		s-2.6-30.3-27.3-26.7c-19.5,2.8-18.4,22.3-18.4,22.3s-4-8-14.5-5C104.9,78.6,106.1,96.3,119.8,96.3z"/>
	<g id="XMLID_861_">
		<g id="XMLID_874_">
			<ellipse id="XMLID_875_" class="st6" cx="89.7" cy="318.7" rx="43" ry="6"/>
		</g>
		<g id="XMLID_863_">
			<line id="XMLID_873_" class="st8" x1="63" y1="319.1" x2="76.5" y2="177.5"/>
			<line id="XMLID_872_" class="st8" x1="116.9" y1="319.1" x2="103.4" y2="177.5"/>
			<line id="XMLID_871_" class="st8" x1="75.4" y1="188.8" x2="104.5" y2="188.8"/>
			<line id="XMLID_870_" class="st8" x1="73.8" y1="205.8" x2="106.1" y2="205.8"/>
			<line id="XMLID_869_" class="st8" x1="72.2" y1="222.8" x2="107.7" y2="222.8"/>
			<line id="XMLID_868_" class="st8" x1="70.5" y1="239.8" x2="109.3" y2="239.8"/>
			<line id="XMLID_867_" class="st8" x1="68.9" y1="256.8" x2="110.9" y2="256.8"/>
			<line id="XMLID_866_" class="st8" x1="67.3" y1="273.8" x2="112.5" y2="273.8"/>
			<line id="XMLID_865_" class="st8" x1="65.7" y1="290.8" x2="114.2" y2="290.8"/>
			<line id="XMLID_864_" class="st8" x1="64" y1="307.8" x2="115.3" y2="307.8"/>
		</g>
		<path id="XMLID_862_" class="st9" d="M105.1,178.4H74.7c-1,0-1.8-0.8-1.8-1.8l0,0c0-1,0.8-1.8,1.8-1.8h30.4c1,0,1.8,0.8,1.8,1.8
			l0,0C106.9,177.6,106.1,178.4,105.1,178.4z"/>
	</g>
	<g id="XMLID_851_">
		<path id="XMLID_860_" class="st10" d="M315.3,250.6c-17.8,16.1-49.2,10.5-49.2,10.5s-2.5-31.8,15.3-48
			c17.8-16.1,49.2-10.5,49.2-10.5S333.1,234.5,315.3,250.6z"/>
		<g id="XMLID_852_">
			<defs>
				<path id="XMLID_853_" d="M315.3,250.6c-17.8,16.1-49.2,10.5-49.2,10.5s-2.5-31.8,15.3-48c17.8-16.1,49.2-10.5,49.2-10.5
					S333.1,234.5,315.3,250.6z"/>
			</defs>
			<clipPath id="XMLID_722_">
				<use xlink:href="#XMLID_853_"  style="overflow:visible;"/>
			</clipPath>
			<g id="XMLID_854_" class="st11">
				<line id="XMLID_859_" class="st12" x1="264.4" y1="262.8" x2="332.4" y2="201.2"/>
				<line id="XMLID_858_" class="st12" x1="277.2" y1="215.8" x2="279.4" y2="249.2"/>
				<line id="XMLID_857_" class="st12" x1="300.8" y1="194.4" x2="303" y2="227.8"/>
				<line id="XMLID_856_" class="st12" x1="291.8" y1="237.9" x2="326.1" y2="237.8"/>
				<line id="XMLID_855_" class="st12" x1="307.6" y1="223.5" x2="330.8" y2="223.1"/>
			</g>
		</g>
	</g>
	<g id="XMLID_770_">
		<g id="XMLID_823_">
			<g id="XMLID_845_">
				<g id="XMLID_101_">
					<line id="XMLID_104_" class="st13" x1="208.2" y1="317.4" x2="208.2" y2="318.9"/>
					<path id="XMLID_103_" class="st14" d="M208.2,321.4v4.7c0,8.6-7,15.6-15.6,15.6H166c-5.1,0-9.3-4.2-9.3-9.3v-10.6"/>
					<line id="XMLID_102_" class="st13" x1="156.7" y1="320.5" x2="156.7" y2="319"/>
				</g>
			</g>
			<g id="XMLID_839_">
				<g id="XMLID_96_">
					<line id="XMLID_99_" class="st13" x1="115.2" y1="320.7" x2="115.2" y2="322.2"/>
					<path id="XMLID_98_" class="st15" d="M115.2,324.7v13.4c0,10,8.1,18.2,18.2,18.2h22.4h35.2c14.9,0,27-12.1,27-27v-21.4"/>
					<line id="XMLID_97_" class="st13" x1="217.9" y1="306.6" x2="217.9" y2="305.1"/>
				</g>
			</g>
			<g id="XMLID_836_">
				<path id="XMLID_72_" class="st16" d="M155.7,356.2"/>
			</g>
			<g id="XMLID_830_">
				<g id="XMLID_88_">
					<line id="XMLID_91_" class="st13" x1="129.3" y1="320.7" x2="129.3" y2="322.2"/>
					<path id="XMLID_90_" class="st17" d="M129.3,324.6v13.5c0,10,8.1,18.2,18.2,18.2h20.7"/>
					<line id="XMLID_89_" class="st13" x1="169.4" y1="356.2" x2="170.9" y2="356.2"/>
				</g>
			</g>
			<g id="XMLID_824_">
				<g id="XMLID_83_">
					<line id="XMLID_86_" class="st13" x1="142.9" y1="320.7" x2="142.9" y2="322.2"/>
					<path id="XMLID_85_" class="st18" d="M142.9,324.7v13.4c0,10,8.1,18.2,18.2,18.2h22.5"/>
					<line id="XMLID_84_" class="st13" x1="184.8" y1="356.2" x2="186.3" y2="356.2"/>
				</g>
			</g>
		</g>
		<g id="XMLID_810_">
			<g id="XMLID_813_">
				<polygon id="XMLID_822_" class="st19" points="120.1,265.8 120.1,327.5 110.2,327.5 110,265.9 				"/>
				<g id="XMLID_819_">
					<polygon id="XMLID_821_" class="st20" points="115,252.4 116,253.9 120.1,265.8 110,265.9 114,253.8 					"/>
					<polygon id="XMLID_820_" class="st19" points="115,252.4 116,253.9 115.4,254.2 115,253.8 114.5,254.4 114,253.8 					"/>
				</g>
				<g id="XMLID_814_">
					<polygon id="XMLID_818_" class="st20" points="110,265.9 111.5,266.9 112.5,265.9 					"/>
					<polygon id="XMLID_817_" class="st20" points="112.5,265.9 114,266.9 115,265.9 					"/>
					<polygon id="XMLID_816_" class="st20" points="115,265.9 116.4,266.9 117.5,265.8 					"/>
					<polygon id="XMLID_815_" class="st20" points="117.5,265.8 118.9,266.9 120.1,265.8 					"/>
				</g>
			</g>
			<polygon id="XMLID_812_" class="st21" points="115,252.4 116,253.9 120.1,265.8 120.2,327.5 116.9,327.5 116.7,265.8 
				113.5,255.3 114,253.8 			"/>
			<rect id="XMLID_811_" x="110.2" y="326.8" class="st22" width="9.9" height="1.8"/>
		</g>
		<g id="XMLID_797_">
			<g id="XMLID_800_">
				<polygon id="XMLID_809_" class="st23" points="134.1,265.8 134.1,327.5 124.1,327.5 123.9,265.9 				"/>
				<g id="XMLID_806_">
					<polygon id="XMLID_808_" class="st20" points="128.9,252.4 129.9,253.9 134.1,265.8 123.9,265.9 127.9,253.8 					"/>
					<polygon id="XMLID_807_" class="st23" points="128.9,252.4 129.9,253.9 129.3,254.2 128.9,253.8 128.4,254.4 127.9,253.8 					
						"/>
				</g>
				<g id="XMLID_801_">
					<polygon id="XMLID_805_" class="st20" points="123.9,265.9 125.4,266.9 126.4,265.9 					"/>
					<polygon id="XMLID_804_" class="st20" points="126.4,265.9 127.9,266.9 128.9,265.9 					"/>
					<polygon id="XMLID_803_" class="st20" points="128.9,265.9 130.3,266.9 131.4,265.8 					"/>
					<polygon id="XMLID_802_" class="st20" points="131.4,265.8 132.8,266.9 134.1,265.8 					"/>
				</g>
			</g>
			<polygon id="XMLID_799_" class="st21" points="128.9,252.4 129.9,253.9 134.1,265.8 134.1,327.5 130.8,327.5 130.6,265.8 
				127.4,255.3 127.9,253.8 			"/>
			<rect id="XMLID_798_" x="124.1" y="326.8" class="st22" width="9.9" height="1.8"/>
		</g>
		<g id="XMLID_784_">
			<g id="XMLID_787_">
				<polygon id="XMLID_796_" class="st24" points="148,265.8 148,327.5 138,327.5 137.8,265.9 				"/>
				<g id="XMLID_793_">
					<polygon id="XMLID_795_" class="st20" points="142.8,252.4 143.8,253.9 148,265.8 137.8,265.9 141.8,253.8 					"/>
					<polygon id="XMLID_794_" class="st24" points="142.8,252.4 143.8,253.9 143.3,254.2 142.8,253.8 142.3,254.4 141.8,253.8 					
						"/>
				</g>
				<g id="XMLID_788_">
					<polygon id="XMLID_792_" class="st20" points="137.8,265.9 139.3,266.9 140.3,265.9 					"/>
					<polygon id="XMLID_791_" class="st20" points="140.3,265.9 141.8,266.9 142.8,265.9 					"/>
					<polygon id="XMLID_790_" class="st20" points="142.8,265.9 144.2,266.9 145.3,265.8 					"/>
					<polygon id="XMLID_789_" class="st20" points="145.3,265.8 146.7,266.9 148,265.8 					"/>
				</g>
			</g>
			<polygon id="XMLID_786_" class="st21" points="142.8,252.4 143.8,253.9 148,265.8 148,327.5 144.7,327.5 144.5,265.8 
				141.3,255.3 141.8,253.8 			"/>
			<rect id="XMLID_785_" x="138" y="326.8" class="st22" width="9.9" height="1.8"/>
		</g>
		<g id="XMLID_771_">
			<g id="XMLID_774_">
				<polygon id="XMLID_783_" class="st25" points="161.9,265.8 161.9,327.5 151.9,327.5 151.7,265.9 				"/>
				<g id="XMLID_780_">
					<polygon id="XMLID_782_" class="st20" points="156.7,252.4 157.7,253.9 161.9,265.8 151.7,265.9 155.7,253.8 					"/>
					<polygon id="XMLID_781_" class="st25" points="156.7,252.4 157.7,253.9 157.2,254.2 156.7,253.8 156.2,254.4 155.7,253.8 					
						"/>
				</g>
				<g id="XMLID_775_">
					<polygon id="XMLID_779_" class="st20" points="151.7,265.9 153.2,266.9 154.2,265.9 					"/>
					<polygon id="XMLID_778_" class="st20" points="154.2,265.9 155.7,266.9 156.7,265.9 					"/>
					<polygon id="XMLID_777_" class="st20" points="156.7,265.9 158.2,266.9 159.2,265.8 					"/>
					<polygon id="XMLID_776_" class="st20" points="159.2,265.8 160.6,266.9 161.9,265.8 					"/>
				</g>
			</g>
			<polygon id="XMLID_773_" class="st21" points="156.7,252.4 157.7,253.9 161.9,265.8 161.9,327.5 158.7,327.5 158.4,265.8 
				155.2,255.3 155.7,253.8 			"/>
			<rect id="XMLID_772_" x="151.9" y="326.8" class="st22" width="9.9" height="1.8"/>
		</g>
	</g>
	<path id="XMLID_769_" class="st26" d="M390.1,348.3h62.7c3.2,0,5.7,2.6,5.7,5.7l0,0c0,3.2-2.6,5.7-5.7,5.7H255.3
		c-10.4,0-18.8-8.4-18.8-18.8v-22.3"/>
	<path id="XMLID_768_" class="st26" d="M224.5,321.5v37.9c0,10.5-8.5,19-19,19h-6.7"/>
	<path id="XMLID_767_" class="st26" d="M249.2,310.4v15.7c0,6.3,5.1,11.4,11.4,11.4h68.7"/>
	<g id="XMLID_744_">
		<g id="XMLID_764_">
			<path id="XMLID_81_" class="st19" d="M300.5,110.3c-16.3-20.2-40.5-34.5-67-34.9c-15.3-0.3-31.4,1.8-45.1,9
				c-11.9,6.4-22.4,15.4-30.9,25.9c-14.6,18.1-23,41.6-20.5,64.7c2.1,19.3,11.6,37,24.2,51.4c12.3,14.1,30.2,25.8,33.2,45.7
				c0.9,5.7-1.2,13.6,3.1,18.1c5.2,5.4,13.6,3.5,20.2,3.5c7.9-0.1,15.7-0.1,23.6-0.1c5.6,0,14.7,1.5,18.9-3.3
				c4.3-4.6,2.2-12.4,3.1-18.1c2.3-15,14-27.2,24.8-37c12.4-11.2,22.2-24.1,27.7-40.1C326.2,165.6,320,134.5,300.5,110.3z"/>
		</g>
		<g id="XMLID_757_">
			<g id="XMLID_76_">
				<path id="XMLID_80_" class="st1" d="M224.1,311c-0.1-9.7-0.6-19.5-1-29.2c-0.6-16.1-1.3-32.2-2.8-48.2
					c-0.8-9.4-2.1-18.6-5.2-27.5c-2.2-6.2-5.9-14.3-12.9-16.3c-5-1.4-10.6,1.7-11.6,6.9c-1.5,7.4,5.6,14.2,11.9,16.6
					c7.3,2.7,17.7,1.4,24.1-3c7-4.8,11-13.1,12.3-21.3c0.9-6.3,1-13.5-5.8-16.4c-5.9-2.5-10.8,2.2-11.4,8
					c-0.6,6.1,1.1,12.7,3.4,18.2c2.3,5.5,6.2,11.5,12.4,13c8.8,2,18.6-3,24.6-9.2c4.3-4.5,11.5-14.1,5.7-20.1c-2.7-2.7-7-3-10.3-1.5
					c-4.4,1.9-7.4,6.2-9.9,10.1c-5.6,8.9-8.2,19.3-9.1,29.7c-1,12.1-1.2,24.3-1.6,36.3c-0.4,11.8-0.7,23.5-1,35.3
					c-0.2,6-0.2,12.1-0.3,18.1c0,1,1.5,1,1.5,0c1-20.3,1.5-40.7,2.2-61.1c0.4-10.1,0.5-20.3,1.5-30.4c1-9.6,3.6-19.1,8.9-27.2
					c2.4-3.7,5.8-8.6,10.5-9.4c5-0.9,8.1,3.1,6.9,7.8c-1.9,7.5-9.2,14.2-16,17.2c-4,1.8-9.2,3.1-13.5,1.9c-2.6-0.7-4.7-2.5-6.4-4.5
					c-3.8-4.6-5.9-10.7-6.9-16.5c-0.8-4.3-1.7-11.7,3.3-14c2.6-1.2,5.8,0.4,7.6,2.4c2.1,2.4,1.9,5.9,1.7,8.9
					c-0.5,7.7-3.5,15.8-9.4,21c-5.8,5.2-15.4,6.9-22.9,5c-6-1.5-14.4-8.6-11.7-15.6c2-5.2,8-5.4,11.9-2.5c6.6,5.1,9,14.9,10.8,22.5
					c1.6,6.9,2.2,14.1,2.8,21.1c2,24,2.7,48.1,4.4,72.2c0,0.5,0.1,1.1,0.1,1.6C223.1,311.7,224.1,311.7,224.1,311L224.1,311z"/>
			</g>
		</g>
		<rect id="XMLID_756_" x="201.8" y="293.5" class="st10" width="53.3" height="5.3"/>
		<path id="XMLID_755_" class="st9" d="M258.3,317c-0.9-1.1-0.9-2.9,0.1-4l0.3-0.4c1-1,1-2.8,0.1-3.9l-0.5-0.7c-0.9-1.2-0.8-3,0.2-4
			c1-1,1.2-2.8,0.3-4l-1.4-1.9c-0.5-0.7-1.3-1.1-2.2-1.1h-53c-0.9,0-1.7,0.4-2.2,1.1l-1.4,1.9c-0.9,1.2-0.7,3,0.3,4
			c1.1,1,1.2,2.9,0.2,4l-0.5,0.7c-0.9,1.1-0.8,2.9,0.1,3.9l0.3,0.4c1,1,1,2.8,0.1,4l-0.4,0.5c-0.9,1.1-0.9,3,0.2,4l0.2,0.2
			c1.1,1.1,2.6,1.8,4,1.8h51.2c1.5,0,2.9-0.6,4-1.8l0.2-0.2c1-1,1.1-2.9,0.2-4L258.3,317z"/>
		<line id="XMLID_754_" class="st27" x1="230.9" y1="304.2" x2="255.6" y2="304.2"/>
		<line id="XMLID_753_" class="st27" x1="206.2" y1="304.2" x2="219.9" y2="304.2"/>
		<line id="XMLID_752_" class="st27" x1="202.6" y1="310.3" x2="238.4" y2="310.3"/>
		<line id="XMLID_751_" class="st27" x1="245.1" y1="310.3" x2="255.7" y2="310.3"/>
		<line id="XMLID_750_" class="st27" x1="206.2" y1="316.3" x2="225.3" y2="316.3"/>
		<line id="XMLID_749_" class="st27" x1="237.9" y1="316.3" x2="245.6" y2="316.3"/>
		<line id="XMLID_748_" class="st27" x1="223.3" y1="304.2" x2="226.1" y2="304.2"/>
		<g id="XMLID_745_" class="st28">
			<path id="XMLID_73_" class="st29" d="M300.5,110.3c-16.3-20.2-40.5-34.5-67-34.9c-3-0.1-6.1,0-9.1,0.1
				c42.3,2.6,79,39.4,77.6,83.6c-1.2,37.2-19.3,63.7-56.9,80c-7.9,3.4-13.5,8.6-14.8,17.6c-1.2,8.3,1.5,16.8-0.3,25.1
				c-0.3,1.3-0.7,2.5-1.5,3.5c-0.8,0.9-2,1.3-3.1,1.7c-9.3,3.3-19.2,3.6-28.9,1.8c0.3,0.5,0.7,1,1.1,1.5c5.2,5.4,13.6,3.5,20.2,3.5
				c7.9-0.1,15.7-0.1,23.6-0.1c5.6,0,14.7,1.5,18.9-3.3c4.3-4.6,2.2-12.4,3.1-18.1c2.3-15,14-27.2,24.8-37
				c12.4-11.2,22.2-24.1,27.7-40.1C326.2,165.6,320,134.5,300.5,110.3z"/>
		</g>
	</g>
	<g id="XMLID_725_">
		<path id="XMLID_741_" class="st9" d="M447.8,328.6c0,0-8.2-5.8-14.9-6.8c-13.1-1.9-20.5,3.3-27.6-0.7c-2.9-1.6,4.3-2.8,5.1-4.6
			c0.1-0.3,0-2.8,0-2.8s-1.5,0.8-3.4,0.1c-13.2-4.8-24.4-4.3-43.6-4.3c-42.9,0-78.3,7.7-83.6,17.7h-0.7v2.7h0
			c0.3,11.1,37.9,20.1,84.2,20.1c44.8,0,83.9-8.6,84.4-19L447.8,328.6z M392.3,329.8c-6.1,0-11-1.8-11-4s4.9-4,11-4s11,1.8,11,4
			S398.4,329.8,392.3,329.8z"/>
		<path id="XMLID_738_" class="st0" d="M447.6,327.5c-1.1-4.4-8.1-7.1-14.7-8c-13.1-1.9-20.5,3.3-27.6-0.7
			c-4.1-2.3,11.9-3.6,1.7-7.3c-13.2-4.8-24.4-4.3-43.6-4.3c-46.5,0-84.2,9.1-84.2,20.3c0,11.2,37.7,20.3,84.2,20.3
			C409.9,347.8,450.4,338.5,447.6,327.5z M392.3,327.5c-6.1,0-11-1.8-11-4c0-2.2,4.9-4,11-4s11,1.8,11,4
			C403.3,325.7,398.4,327.5,392.3,327.5z"/>
		<g id="XMLID_735_">
			<path id="XMLID_69_" class="st23" d="M325.7,329.7c-0.3-0.6-0.9-1.1-1.4-1.5c-1.3-1-2.7-1.8-4.2-2.3c0.4-0.1,0.5-0.7,0.3-1
				c-0.2-0.4-0.5-0.6-0.9-0.7c-1.6-0.7-3.4-0.6-5.2-0.5c-3.5,0.2-7,0.4-10.5,1.1c-1.6,0.3-3.4,0.9-4.1,2.5c-0.3,0.6-0.3,1.4-0.2,2
				c-0.4,0.3-0.9,0.2-1.3,0.4c-0.4,0.1-0.9,0.6-0.7,1c0,0.2,0.2,0.3,0.3,0.4c3.2,3.3,8,4.1,12.3,4.1c4.6,0,9.5-0.6,13.9-2
				c0.7-0.2,1.6-0.6,1.9-1.3C326.1,331.1,326,330.3,325.7,329.7z"/>
		</g>
		<g id="XMLID_732_">
			<path id="XMLID_66_" class="st24" d="M358,318.6c-0.3-0.6-0.9-1.1-1.4-1.5c-1.3-1-2.7-1.8-4.2-2.3c0.4-0.1,0.5-0.7,0.3-1
				c-0.2-0.4-0.5-0.6-0.9-0.7c-1.6-0.7-3.4-0.6-5.2-0.5c-3.5,0.2-7,0.4-10.5,1.1c-1.6,0.3-3.4,0.9-4.1,2.5c-0.3,0.6-0.3,1.4-0.2,2
				c-0.4,0.3-0.9,0.2-1.3,0.4c-0.4,0.1-0.9,0.6-0.7,1c0,0.2,0.2,0.3,0.3,0.4c3.2,3.3,8,4.1,12.3,4.1c4.6,0,9.5-0.6,13.9-2
				c0.7-0.2,1.6-0.6,1.9-1.3C358.5,320,358.4,319.2,358,318.6z"/>
		</g>
		<g id="XMLID_729_">
			<path id="XMLID_67_" class="st25" d="M416.6,335c-0.3-0.5-0.7-0.9-1.2-1.3c-1.1-0.9-2.3-1.5-3.6-2c0.3-0.1,0.4-0.6,0.2-0.9
				c-0.2-0.3-0.5-0.5-0.8-0.6c-1.4-0.6-3-0.5-4.5-0.4c-3,0.2-6,0.3-9,0.9c-1.4,0.3-2.9,0.8-3.5,2.1c-0.2,0.5-0.3,1.2-0.2,1.7
				c-0.3,0.2-0.7,0.2-1.1,0.3c-0.4,0.1-0.7,0.5-0.6,0.9c0,0.2,0.1,0.3,0.3,0.4c2.8,2.8,6.8,3.5,10.5,3.5c4,0,8.1-0.5,11.9-1.7
				c0.6-0.2,1.3-0.5,1.7-1.1C417,336.3,416.9,335.6,416.6,335z"/>
		</g>
		<g id="XMLID_726_">
			<path id="XMLID_62_" class="st19" d="M371.6,335.1c-0.3-0.6-0.9-1.1-1.4-1.5c-1.3-1-2.7-1.8-4.2-2.3c0.4-0.1,0.5-0.7,0.3-1
				c-0.2-0.4-0.5-0.6-0.9-0.7c-1.6-0.7-3.4-0.6-5.2-0.5c-3.5,0.2-7,0.4-10.5,1.1c-1.6,0.3-3.4,0.9-4.1,2.5c-0.3,0.6-0.3,1.4-0.2,2
				c-0.4,0.3-0.9,0.2-1.3,0.4c-0.4,0.1-0.9,0.6-0.7,1c0,0.2,0.2,0.3,0.3,0.4c3.2,3.3,8,4.1,12.3,4.1c4.6,0,9.5-0.6,13.9-2
				c0.7-0.2,1.6-0.6,1.9-1.3C372,336.5,371.9,335.7,371.6,335.1z"/>
		</g>
	</g>
	<g id="XMLID_705_">
		<g id="XMLID_723_">
			<ellipse id="XMLID_724_" class="st6" cx="80.8" cy="384.3" rx="34.3" ry="4"/>
		</g>
		<g id="XMLID_706_">
			<g id="XMLID_720_">
				<path id="XMLID_63_" class="st30" d="M43.9,369.9c-3.4-6.7-4.3-14.7-1.3-21.7c1.7-4.1,4.2-8.1,7.7-10.8
					c3.1-2.4,6.7-4.1,10.5-5.1c6.5-1.7,13.7-1.1,19.5,2.2c4.8,2.8,8.4,7.4,10.7,12.4c2.3,4.9,3.2,11,8.1,14.1c1.4,0.9,3.7,1.3,4.4,3
					c0.8,2-0.7,4-1.5,5.7c-0.9,2.1-1.9,4.1-2.8,6.2c-0.7,1.5-1.3,4-3.1,4.6c-1.7,0.6-3.5-0.9-5.1-1.3c-4.2-1.2-8.8,0.5-12.7,2.2
					c-4.4,1.9-9,3-13.8,2.6C55.4,383.2,48,377.9,43.9,369.9z"/>
			</g>
			<path id="XMLID_719_" class="st31" d="M102.3,371.8c0,0-13.6-6.7-20.1-10.4c-1.7-1-3.5-1.9-5.9-4.1c-1.5-1.4-4.6-4.6-2.6-6.7
				c2.3-2.5,5.1,1.6,5.1,3.9c0,1.9-1.6,4.6-3.2,5.7c-2.7,1.9-6.9,1.4-9.5-0.2c-2-1.2-0.9-4.2,1.3-4c2.1,0.1,8.1,4.6,6.7,8.2
				c-0.7,1.9-2.3,3.4-4.1,4.3c-3.3,1.6-7.5-2.5-2.9-4c3.3-1,7.4,0.1,10.5,1.3c8.4,3.2,14.8,6,23.1,9.4"/>
			
				<rect id="XMLID_718_" x="93.6" y="372.1" transform="matrix(-0.4087 0.9127 -0.9127 -0.4087 483.0501 432.8146)" class="st10" width="15.4" height="1.5"/>
			<path id="XMLID_717_" class="st9" d="M103.3,383.2c-0.2-0.4-0.7-0.6-1.1-0.4l-0.1,0c-0.4,0.1-0.9-0.1-1-0.4l-0.1-0.2
				c-0.2-0.4-0.7-0.6-1.1-0.4c-0.4,0.2-0.9,0-1.1-0.4l-0.3-0.6c-0.1-0.2-0.1-0.5,0-0.7l6.2-14c0.1-0.2,0.3-0.4,0.6-0.5l0.7-0.2
				c0.4-0.1,0.9,0.2,1,0.5c0.1,0.4,0.6,0.6,1,0.5l0.2-0.1c0.4-0.1,0.9,0.1,1,0.5l0.1,0.1c0.2,0.4,0.6,0.6,1,0.5l0.2-0.1
				c0.4-0.1,0.9,0.1,1,0.5l0,0.1c0.2,0.4,0.2,0.9,0,1.3l-6,13.5c-0.2,0.4-0.5,0.7-0.9,0.9l-0.1,0c-0.4,0.1-0.9-0.1-1.1-0.4
				L103.3,383.2z"/>
			<line id="XMLID_716_" class="st32" x1="103.2" y1="374.5" x2="100.3" y2="381"/>
			<line id="XMLID_715_" class="st32" x1="106.1" y1="368" x2="104.5" y2="371.6"/>
			<line id="XMLID_714_" class="st32" x1="108.1" y1="367.7" x2="103.9" y2="377.2"/>
			<line id="XMLID_713_" class="st32" x1="103.1" y1="378.9" x2="101.8" y2="381.7"/>
			<line id="XMLID_712_" class="st32" x1="109.3" y1="369.4" x2="107" y2="374.4"/>
			<line id="XMLID_711_" class="st32" x1="105.5" y1="377.7" x2="104.6" y2="379.8"/>
			<line id="XMLID_710_" class="st32" x1="104.1" y1="372.5" x2="103.7" y2="373.2"/>
			<g id="XMLID_707_" class="st33">
				<path id="XMLID_61_" class="st30" d="M43.9,369.9c-3.4-6.7-4.3-14.7-1.3-21.7c0.3-0.8,0.7-1.6,1.1-2.4
					c-4.3,11.4,1.1,25.4,12.9,30.3c9.9,4.1,19.1,2.4,27.8-5.5c1.8-1.7,3.9-2.5,6.4-1.8c2.3,0.7,4.2,2.4,6.6,2.9
					c0.4,0.1,0.7,0.1,1.1,0c0.3-0.1,0.6-0.4,0.8-0.6c2-2,3.2-4.6,3.9-7.4c0.1,0.1,0.2,0.3,0.3,0.5c0.8,2-0.7,4-1.5,5.7
					c-0.9,2.1-1.9,4.1-2.8,6.2c-0.7,1.5-1.3,4-3.1,4.6c-1.7,0.6-3.5-0.9-5.1-1.3c-4.2-1.2-8.8,0.5-12.7,2.2c-4.4,1.9-9,3-13.8,2.6
					C55.4,383.2,48,377.9,43.9,369.9z"/>
			</g>
		</g>
	</g>
	<g id="XMLID_686_">
		<g id="XMLID_703_">
			<ellipse id="XMLID_704_" class="st6" cx="341.6" cy="376.2" rx="26.9" ry="3.2"/>
		</g>
		<g id="XMLID_700_">
			<path id="XMLID_59_" class="st30" d="M369.1,366.9c2.6-4.9,3.4-10.9,1.3-16.1c-1.2-3-3-6-5.5-8.1c-2.2-1.8-4.9-3.1-7.7-3.9
				c-4.8-1.4-10.1-1.1-14.5,1.4c-3.6,2-6.3,5.4-8.1,9.1c-1.8,3.6-2.6,8.1-6.2,10.4c-1,0.6-2.8,0.9-3.3,2.1c-0.6,1.5,0.4,3,1,4.3
				c0.7,1.5,1.3,3.1,2,4.6c0.5,1.1,0.9,3,2.2,3.4c1.3,0.5,2.6-0.6,3.8-0.9c3.2-0.8,6.5,0.5,9.4,1.8c3.2,1.5,6.6,2.4,10.2,2.1
				C360.4,376.6,366,372.7,369.1,366.9z"/>
		</g>
		<path id="XMLID_699_" class="st31" d="M325.8,367.4c0,0,10.2-4.8,15.1-7.4c1.3-0.7,2.7-1.4,4.5-2.9c3-2.5,2.7-4.5,1.5-5.2
			c-1.6-0.9-3.3,0.8-3.3,3.1c0,1.4,1.1,3.5,2.3,4.3c2,1.5,5.1,1.2,7.1,0c1-0.6,1.3-3.1-0.9-3c-1.6,0.1-6,3.3-5.1,6
			c0.5,1.4,1.6,2.5,3,3.2c1,0.5,2.9,0.9,4,0.5c2.3-0.7-0.2-3-1.4-3.3c-2.7-0.8-5.6-0.3-8.2,0.7c-6.2,2.3-11.1,4.2-17.3,6.6"/>
		
			<rect id="XMLID_698_" x="320.8" y="367.6" transform="matrix(0.3899 0.9209 -0.9209 0.3899 538.2753 -76.0263)" class="st10" width="11.4" height="1.1"/>
		<path id="XMLID_697_" class="st9" d="M324.9,375.8c0.1-0.3,0.5-0.4,0.8-0.3l0.1,0c0.3,0.1,0.6,0,0.8-0.3l0.1-0.2
			c0.2-0.3,0.5-0.4,0.8-0.3c0.3,0.1,0.6,0,0.8-0.3l0.3-0.4c0.1-0.2,0.1-0.4,0-0.5l-4.4-10.4c-0.1-0.2-0.2-0.3-0.4-0.3l-0.5-0.1
			c-0.3-0.1-0.7,0.1-0.8,0.4c-0.1,0.3-0.5,0.5-0.8,0.4l-0.2,0c-0.3-0.1-0.6,0.1-0.8,0.4l0,0.1c-0.1,0.3-0.5,0.4-0.8,0.3l-0.1,0
			c-0.3-0.1-0.7,0.1-0.8,0.4l0,0.1c-0.1,0.3-0.1,0.7,0,0.9l4.3,10.1c0.1,0.3,0.4,0.5,0.7,0.6l0.1,0c0.3,0.1,0.7,0,0.8-0.3
			L324.9,375.8z"/>
		<line id="XMLID_696_" class="st32" x1="325.1" y1="369.3" x2="327.2" y2="374.2"/>
		<line id="XMLID_695_" class="st32" x1="323.1" y1="364.5" x2="324.2" y2="367.2"/>
		<line id="XMLID_694_" class="st32" x1="321.6" y1="364.3" x2="324.6" y2="371.3"/>
		<line id="XMLID_693_" class="st32" x1="325.1" y1="372.7" x2="326" y2="374.7"/>
		<line id="XMLID_692_" class="st32" x1="320.7" y1="365.5" x2="322.3" y2="369.3"/>
		<line id="XMLID_691_" class="st32" x1="323.3" y1="371.7" x2="324" y2="373.3"/>
		<line id="XMLID_690_" class="st32" x1="324.5" y1="367.9" x2="324.7" y2="368.4"/>
		<g id="XMLID_687_" class="st33">
			<path id="XMLID_49_" class="st30" d="M369.1,366.9c2.6-4.9,3.4-10.9,1.3-16.1c-0.2-0.6-0.5-1.2-0.8-1.8c3,8.6-1.2,18.8-10,22.3
				c-7.4,2.9-14.2,1.5-20.5-4.5c-1.3-1.3-2.8-1.9-4.7-1.4c-1.7,0.5-3.2,1.7-5,2c-0.3,0.1-0.6,0.1-0.8,0c-0.2-0.1-0.4-0.3-0.6-0.5
				c-1.4-1.5-2.3-3.5-2.8-5.5c-0.1,0.1-0.1,0.2-0.2,0.3c-0.6,1.5,0.4,3,1,4.3c0.7,1.5,1.3,3.1,2,4.6c0.5,1.1,0.9,3,2.2,3.4
				c1.3,0.5,2.6-0.6,3.8-0.9c3.2-0.8,6.5,0.5,9.4,1.8c3.2,1.5,6.6,2.4,10.2,2.1C360.4,376.6,366,372.7,369.1,366.9z"/>
		</g>
	</g>
	<path id="XMLID_685_" class="st34" d="M167.8,127.1c-7.7,10.4-15.1,23.3-14.9,47"/>
	<path id="XMLID_684_" class="st34" d="M189,105.3c0,0-1.9,1.1-3.9,3.6"/>
	<g id="XMLID_619_">
		<g id="XMLID_682_">
			<ellipse id="XMLID_683_" class="st6" cx="171.1" cy="403" rx="35.7" ry="6.5"/>
		</g>
		<g id="XMLID_645_">
			<path id="XMLID_681_" class="st35" d="M194.7,388h-31.2L179,383h31.6l-0.1,0.3l-15,4.6C195.2,388,194.9,388,194.7,388z"/>
			<path id="XMLID_680_" class="st36" d="M194.2,387.5h-30.5L179,383h30.9l-14.9,4.4C194.8,387.5,194.5,387.5,194.2,387.5z"/>
			<path id="XMLID_679_" class="st37" d="M191.8,386.7h-20.2l10.1-3h20.5l-9.9,2.9C192.1,386.7,191.9,386.7,191.8,386.7z"/>
			<path id="XMLID_678_" class="st35" d="M210.6,383H179l4-17.5c0.2-0.6,0.8-1,1.4-1H213c1,0,1.7,0.9,1.4,1.7L210.6,383z"/>
			<path id="XMLID_677_" class="st10" d="M209.9,383H179l4-17.5c0.2-0.6,0.8-1,1.4-1h27.8c1,0,1.7,0.9,1.4,1.7L209.9,383z"/>
			<path id="XMLID_676_" class="st36" d="M208.6,381.9h-27.9l3.6-16.3c0,0,0,0,0,0h27.9L208.6,381.9z"/>
			<g id="XMLID_667_">
				<g id="XMLID_52_">
					<polyline id="XMLID_58_" class="st38" points="205.6,378.8 205.4,379.7 204.4,379.7 					"/>
					<line id="XMLID_57_" class="st39" x1="202.1" y1="379.7" x2="186.9" y2="379.7"/>
					<polyline id="XMLID_56_" class="st38" points="185.8,379.7 184.8,379.7 185,378.8 					"/>
					<polyline id="XMLID_55_" class="st40" points="185.6,376.2 187.5,367.7 187.5,367.7 205.7,367.7 					"/>
					<polyline id="XMLID_54_" class="st38" points="207,367.7 208,367.7 207.8,368.7 					"/>
					<line id="XMLID_53_" class="st41" x1="207.3" y1="370.9" x2="205.9" y2="377.7"/>
				</g>
			</g>
			<line id="XMLID_666_" class="st42" x1="171.5" y1="385.9" x2="196.9" y2="385.9"/>
			<line id="XMLID_665_" class="st43" x1="176.2" y1="384.6" x2="201.6" y2="384.6"/>
			<g id="XMLID_662_">
				<path id="XMLID_45_" class="st44" d="M168.9,384.3c1.1-0.9,2.9-1.1,4.3-1.3c1.4-0.2,2.7-0.1,4.1-0.1c0.8,0,0.6,1-0.1,1.1
					c-0.8,0.1-1.6,0.1-2.4,0c-0.5,0.7-1.3,1.1-2.1,1.4c-0.8,0.2-1.7,0.3-2.5,0.2c-0.2,0-0.5-0.1-0.6-0.3"/>
			</g>
			<g id="XMLID_650_">
				<line id="XMLID_661_" class="st45" x1="202.2" y1="373.8" x2="196.4" y2="368"/>
				<circle id="XMLID_660_" class="st1" cx="202.4" cy="374" r="0.3"/>
				<circle id="XMLID_659_" class="st1" cx="200.2" cy="375.9" r="0.3"/>
				<circle id="XMLID_658_" class="st1" cx="194.2" cy="369.9" r="0.3"/>
				<circle id="XMLID_657_" class="st1" cx="196.4" cy="368" r="0.3"/>
				<path id="XMLID_656_" class="st45" d="M194.2,369.9c0,0,2.8-1.3,5.1,0.9c2.3,2.3,0.9,5.1,0.9,5.1"/>
				<g id="XMLID_653_">
					<g id="XMLID_654_">
						<path id="XMLID_655_" class="st1" d="M195.5,371.4l3.7-0.6l-2.9,3.1c-0.3-0.3-0.9-0.3-1.2,0c-0.3,0.3-0.3,0.9,0,1.2
							c0.3,0.3,0.9,0.3,1.2,0c0.3-0.3,0.3-0.9,0-1.2l0,0l3-3c0,0-0.4,2.6-0.6,3.9c-0.9,0.4-3.8,2.2-4.5,2.8
							c-0.1,0.1-1.7-1.5-1.6-1.6C193.6,374.8,195.5,371.4,195.5,371.4z"/>
					</g>
				</g>
				<g id="XMLID_651_">
					<path id="XMLID_652_" class="st1" d="M191.4,375.9l0.6-0.6c0.1-0.1,0.3-0.1,0.4,0l2.5,2.5c0.1,0.1,0.1,0.3,0,0.4c0,0,0,0,0,0
						l-0.6,0.6c-0.1,0.1-0.3,0.1-0.4,0l-2.5-2.5C191.3,376.2,191.3,376,191.4,375.9z"/>
				</g>
			</g>
			<circle id="XMLID_649_" class="st46" cx="187.6" cy="367.7" r="0.9"/>
			<circle id="XMLID_648_" class="st46" cx="184.8" cy="379.7" r="0.9"/>
			<circle id="XMLID_647_" class="st46" cx="205.3" cy="379.7" r="0.9"/>
			<circle id="XMLID_646_" class="st46" cx="207.8" cy="367.7" r="0.9"/>
		</g>
		<g id="XMLID_642_">
			<path id="XMLID_43_" class="st3" d="M145.7,386.5c-0.6,2.2-0.5,4-0.9,6.2c-0.6,3.3-0.9,7.2,1.4,9.7c1.6,1.8,3.1,2.5,5.5,2.6
				c2.1,0,4.1-0.3,6.2-0.4c1.4,0,5.6,0.3,7,0.4c6.2,0.2,9.7-1.1,15.8-1.9c4.2-0.5,12-2.1,16.1-3.2c15.9-4.3,10.1-10.7,6.6-11.8
				c-0.8-0.2-4.2-1.4-4.2-1.4l-4.6,1.3h-16.2c0,0-6.8-0.3-9.7-1"/>
		</g>
		<g id="XMLID_639_">
			<path id="XMLID_33_" class="st44" d="M192,377.7c0.4,0.2,0.6,0.4,1,0.7c0.7,0.5,1.4,0.8,2.2,1.1c0.7,0.3,1.5,0.6,2.2,0.9
				c0.2,0.1,0.3,0.1,0.4,0.2c0.2,0.2,0.2,0.4,0.3,0.7c0.5,2.3,0.9,4.7,0.3,7.2c-0.6-0.8-1-1.7-1.3-2.6c-0.1-0.5-0.3-0.9-0.6-1.3
				c-0.2-0.2-0.5-0.3-0.7-0.4c-0.8-0.5-1.4-1.2-2-1.9c-0.1-0.2-0.3-0.4-0.3-0.6c0-0.1,0-0.2,0-0.2c0-0.1-0.1-0.1-0.2-0.2
				c-0.9-0.6-1.8-1.2-2.7-1.8"/>
		</g>
		<path id="XMLID_638_" class="st9" d="M148.4,386.5c-1.3-0.9-2.7-2-4-3.1c-3-2.5-5.7-5.3-6-7.3c-0.7-4.5-0.2-17.8,0.2-24.1
			c0-0.4,0-0.7,0.1-1.1c0.4-5.9,3.6-8.6,5.1-9.5c0.8,7.7,2.7,25.2,2.8,26.1C146.8,368.6,148.4,386.5,148.4,386.5z"/>
		<path id="XMLID_637_" class="st10" d="M148.4,386.5c-1.3-0.9-2.7-2-4-3.1c-0.1-4.9-1.9-3.8-4-12.4c-2.4-10.8-0.6-20.7-0.6-20.7
			l4.9,0.7c0.8,7.6,1.7,15.9,1.8,16.5C146.8,368.6,148.4,386.5,148.4,386.5z"/>
		<path id="XMLID_636_" class="st44" d="M151.5,338c0,0,1.1-3.6,0.6-6.2c-0.5-2.6-2-7.4-1.4-10.9c0.6-3.5,5.1-6.5,9.8-6
			c4.7,0.5,6.1,5,6.9,7.6c0.8,2.6,0.7,6.6,0.5,8.8c-0.2,2.2-1.4,3.9-2.2,4.3s-3.8-0.1-4.3,0.4c-0.5,0.6-0.9,3.9-0.9,3.9"/>
		<path id="XMLID_635_" class="st9" d="M149.3,340.8c0,0,0.3-2.1,1.1-2.8c0.8-0.7,6-0.7,7.6-0.5c1.6,0.2,5.5,2,6,2.4
			c0.5,0.4-0.5,2.4-0.5,2.4L149.3,340.8z"/>
		<path id="XMLID_634_" class="st3" d="M151.7,333.5c0,0,6.6,0.6,7.8,0c1.2-0.6,3.1-1.8,3.2-4c0.2-2.2-0.3-2.9,0.6-4.2
			c0.9-1.2,1.6-0.8,1.7,0.4c0.1,1.2,0.2,3.3,0.5,3.5c0.4,0.2,0.9-1.3,0.8-3.6c-0.1-2-0.4-3.5-1-4.8c-0.6-1.3-0.9-1.2-1.4-1.5
			c0.6-0.3,1.2-0.3,2.3-2.1c1.3-2.1,0.6-5.3-2.9-5.2c-6.1,0-12.5,1.2-12.7,5.7c0,0-2.1-0.3-2.2,3.8c-0.1,4.1,2.6,9.1,2.8,10.3
			C151.4,333.1,151,333.2,151.7,333.5z"/>
		<path id="XMLID_633_" class="st9" d="M169.9,381.8c0.2,2.1,2,5.2,0.8,5.7c-0.5,0.2-2.5,0.1-5-0.1h-0.1c0,0-0.1,0-0.1,0
			c-2.2-0.2-4.7-0.4-6.8-0.6c-8.4-0.4-12.6,1.3-13.5,0.8c-0.4-0.2-0.4-1-0.3-1.7c0.3-1.8,0.4-3.7,0.1-5.5c-0.2-1.6-0.5-3.4-0.9-5.5
			c-1.4-7.3-4.1-18.5-4.5-25.2c-0.6-10.5,10.6-9.5,10.6-9.5c14.4-0.9,21.1,3.2,21.9,9.4c0.1,0.4,0.1,0.9,0.1,1.4
			c0.4,6.4-1.6,16.6-2.5,24.3C169.8,377.3,169.8,379.7,169.9,381.8z"/>
		<path id="XMLID_632_" class="st10" d="M169.9,381.8c0.2,2.1,2,5.2,0.8,5.7c-0.5,0.2-2.5,0.1-5-0.1c2.2,0.2,2.6-1.5,2.1-2.7
			c-0.5-1.1-1.5-3.7-1.4-6.8c0.1-3.1,1.3-10,1.9-16.5c0.6-6.1,0.1-10.8,0-11.4c0.3,0.7,1.3,1.7,4.1,2.3c0.1,6.4-1.7,15.8-2.5,22.9
			C169.8,377.3,169.8,379.7,169.9,381.8z"/>
		<path id="XMLID_631_" class="st9" d="M162.9,341.4c0,0,6.6-0.5,9.5,1.9c2.3,1.9,6.8,26.5,6.8,26.5l-6.1,2.5c0,0-6.7-16.8-8.4-16.5
			"/>
		<path id="XMLID_630_" class="st9" d="M172.7,371.8c2.1,6.6,19.1,9.1,19.1,9.1l1-3c0,0-10.4-7.8-14.2-8.8"/>
		<g id="XMLID_623_">
			<g id="XMLID_35_">
				<path id="XMLID_42_" class="st47" d="M194.7,388.2c1.5,0.1,3,0.3,4.6,0.3c0.1,0,0.2-0.2,0-0.2c-1.5-0.2-3.1-0.3-4.6-0.3
					C194.6,388,194.6,388.2,194.7,388.2L194.7,388.2z"/>
			</g>
		</g>
		<g id="XMLID_620_">
			<path id="XMLID_30_" class="st47" d="M190.8,401c-5.7-0.3-11.2,1.1-16.8,1.9c-5.6,0.8-11.5,1.1-16.7-1.2
				c-0.4-0.2-0.9-0.4-1.4-0.4c-0.5,0-1,0.4-1.4,0.7c-0.9,0.7-1.9,1.2-3.1,1.5c-1.6,0.3-2-0.1-3.6-0.3c-0.2,0-0.3,0-0.5,0
				c0,0,0,0.1-0.1,0.1c1.6,1.2,2.5,1.7,4.5,1.7c2.1,0,4.1-0.3,6.2-0.4c1.4,0,5.6,0.3,7,0.4c6.2,0.2,9.7-1.1,15.8-1.9
				c2.5-0.3,6.3-1,9.9-1.8C190.7,401.3,190.7,401.2,190.8,401z"/>
		</g>
	</g>
	<g id="XMLID_552_">
		<g id="XMLID_553_">
			<g id="XMLID_557_">
				<path id="XMLID_618_" class="st9" d="M350.3,175.8c-0.8-0.6-1.8-1-2.7-1.3c-1.4-0.4-0.7-1.5-2.2-1.2c-2.8,0.5-9.3,1.8-13.2,2.8
					c0,0-0.1,0-0.1,0c-2,0.5-2.6,0-2.6,0l-0.8,0.9l0.1,0.3c-0.6,0.5-1.1,1.2-1.2,2.3c0,0.2-0.2,1-0.3,1.8c-0.1,0.7-0.1,1.4,0.2,1.7
					c0,0,0,0,0,0c0,0,0.1,0,0.1,0c1.3,0.5,3.2,0.5,3.6,0.5c2.1,0.1,6.9-0.5,11.4-1.1c2.8-0.4,5.4-0.7,7.1-0.9
					c0.7-0.1,1.3-0.4,1.7-0.8c0.4-0.4,0.7-0.9,0.8-1.5C352.6,178,351.6,176.7,350.3,175.8z"/>
				<g id="XMLID_615_">
					<path id="XMLID_617_" class="st9" d="M331.7,181.5c-0.1,0.3-0.3,0.6-0.4,0.8c-0.1,0.1-0.2,0.2-0.3,0.3c-2.9,2.9-6.6,0-8.7-1.7
						c-3-2.4-6.6-6.7-9.4-9.4c-0.1-0.1-1.1-1-1-1.1c0,0,2.6-3.4,2.6-3.4s7,6.3,11.1,7.7c1.8,0.6,3.5,1.2,4.8,1.9
						c0.2,0.1,0.3,0.2,0.4,0.3C330.8,177,332.6,179.1,331.7,181.5z"/>
					<path id="XMLID_616_" class="st10" d="M342.6,182.7c-4.5,0.6-9.4,1.2-11.4,1.1c-0.5,0-2.4,0-3.6-0.5c0,0-0.1,0-0.1,0
						c0,0,0,0,0,0c-2.7-1.1-4.3-3.7-0.2-1.7c1,0.5,1.9,0.8,2.3,0.9c0.4,0.1,0.9,0.1,1.5,0.1c0.1,0,0.2,0,0.2,0
						C335.1,182.6,346.2,174.3,342.6,182.7z"/>
				</g>
				<g id="XMLID_605_">
					<path id="XMLID_614_" class="st9" d="M360.8,198.8c-0.8,2.2-1,4.5-0.5,6.8c1,4.5-0.1,4.8-0.1,4.8s-6.1,3.9-11.1,5.4
						c-3.6,1.1-6.7,0.9-6.6-3.1l0-0.1c0-0.2,0-0.5,0-0.7c0.2-9-1.7-9.5-2.2-19.5c-0.5-10.3-0.4-16.4,2.9-18.1
						c3.6-1.8,8.6-3.1,15.6-1.4c5.3,1.2,7,2.6,7,6.6c0,1.3-0.2,2.9-0.6,4.8C364.3,189.2,362.2,195.1,360.8,198.8z"/>
					<path id="XMLID_613_" class="st10" d="M360.8,198.8c-0.8,2.2-1,4.5-0.5,6.8c1,4.5-0.1,4.8-0.1,4.8s-6.1,3.9-11.1,5.4l-4.7-0.4
						l-1.9-1.5l0-1.2c0-0.2,0-0.5,0-0.7c1.1,0.1,3.5,0.2,7.1-0.2c2.8-0.3,5.3-1.1,7-1.8c1.2-0.5,2-1.7,1.7-3
						c-0.3-1.8-0.7-4.3-0.7-6.3c0-2,0.9-5.3,1.7-7.7c0.6-1.9,0.8-3.8,0.6-5.7c-0.2-3.3,0-6.5,0-6.5l3.7-2l2.1,0.8
						c0,1.3-0.2,2.9-0.6,4.8C364.3,189.2,362.2,195.1,360.8,198.8z"/>
					<g id="XMLID_610_">
						<path id="XMLID_612_" class="st3" d="M344.8,157.7c0,0-2.4-2.6-2-6.3c0.2-2.2,0.9-4.3,4.1-5.1c1.8-0.4,4.3,0.9,6.1,2.9
							c5.7,0.5,7.5,4.4,7.7,8.8l-6.6-1.5L344.8,157.7z"/>
						<path id="XMLID_611_" class="st44" d="M359.5,160.5c-0.1,5.1-4.5,8-4.5,8l0.3,4.6l-2.9,1.9l-2,1.3l-1.2-2.4l-0.2-3
							c0-0.7-0.5-1.3-1.2-1.4c-0.8-0.2-1.8-0.6-2.9-1.7c-0.1-0.1-0.1-0.1-0.2-0.2c0,0,0,0,0,0c-1.9-2.6-2.6-12.6,3.9-15.4
							C355.4,149.2,359.6,155.5,359.5,160.5z"/>
					</g>
					<path id="XMLID_609_" class="st48" d="M348,176.7c0,0-2.9,18-1.8,26.6l2,3.7l2.2-4c0,0-2.1-15-0.9-25.9L348,176.7z"/>
					<path id="XMLID_608_" class="st49" d="M347.6,175.1l0,0.2c0.1,0.4,0.2,0.9,0.4,1.3l0,0l1.5,0.3l1.3-1l-1.5-1.7l-0.2,0.1
						C348.5,174.5,348,174.7,347.6,175.1L347.6,175.1z"/>
					<path id="XMLID_607_" class="st10" d="M355.3,171c0,0,0.7,0.4,1.4,1.5c0,0-1,0.4-1.8,1c-0.8,0.5-4.5,3.1-4.5,3.1l-1.1-2.2
						C349.3,174.3,353.2,171.6,355.3,171z"/>
					<path id="XMLID_606_" class="st10" d="M349.3,174.3c0,0-1.3,0.4-1.7,1.4c0,0-0.7-1.3,0.2-3.5c0,0,0.7-0.7,1.3-0.9L349.3,174.3z
						"/>
				</g>
				<g id="XMLID_600_" class="st50">
					<g id="XMLID_39_">
						<ellipse id="XMLID_40_" class="st6" cx="357.2" cy="298.5" rx="29" ry="3.8"/>
					</g>
				</g>
				<g id="XMLID_597_">
					<path id="XMLID_599_" class="st44" d="M343.5,293.4c0,0-0.5,1.3-0.5,2.2c0.1,0.9,2.8,0.9,3.2,0.5c0.3-0.5,0.5-4.4,0.5-4.4"/>
					<path id="XMLID_598_" class="st51" d="M346.9,296.9c0,0.9-0.3,2.4-0.3,2.4h-3.2l-0.2-0.5c0,0-1,0.5-1.8,0.5h-2.7
						c-2,0-3.1-0.3-3.1-0.6c-0.2-1.4,2.1-1.4,2.8-1.4c1.8,0,3.7-0.8,4.1-1.7c0.3-0.6,0.2-0.8,0.5-0.7c0,0,0.3,0.1,0.5,0.5
						c0.3,0.6,1,1,1.7,0.9c0.4-0.1,0.8-0.2,1.1-0.5C346.3,295.7,346.9,296,346.9,296.9z"/>
				</g>
				<g id="XMLID_594_">
					<path id="XMLID_596_" class="st44" d="M374.5,290.4c0,0,0.6,2.3,1,3.1c0.4,0.8,3-0.2,3.1-0.7c0.1-0.5-1.2-4.3-1.2-4.3"/>
					<path id="XMLID_595_" class="st51" d="M379.6,293.3c0.3,0.8,0.8,2.5,0.8,2.5l-2.4,1.4l-0.5-0.4c0,0-0.5,0.9-1.3,1.3
						c-0.5,0.3-1.8,0.8-2.4,1c-2.2,0.5-3.9,0.3-4.1,0c-0.7-1.3,2.2-2,2.8-2.2c1.6-0.7,2.4-2.2,2.4-3.2c0-0.7-0.1-0.8,0.2-0.8
						c0,0,0.3-0.1,0.7,0.2c0.5,0.4,1.3,0.6,1.9,0.2c0.3-0.2,0.7-0.5,0.8-0.9C378.6,292.4,379.2,292.4,379.6,293.3z"/>
				</g>
				<g id="XMLID_584_">
					<path id="XMLID_593_" class="st3" d="M363.3,228.2c0,0,4.3-10.4-3.2-17.9c0,0-6.4,2.9-11.6,3.2c-4.1,0.3-6.1-0.1-6.1-0.1
						s-0.9,7.6-0.4,19.4L363.3,228.2z"/>
					<path id="XMLID_592_" class="st3" d="M347.1,294.4c-0.1,0-0.3,0-0.4,0c-2.7,0-4.2-0.3-4.2-0.3v-0.8c0.1-11.9-1.3-31.3-1.6-37.4
						c0-0.4,0-0.8,0-1.2c0.5-4.5,5.1-3.9,7.1,0.2c0.5,1,0.8,2,1.1,3.2c0.3,1.4,0.6,2.9,0.7,4.5C350.7,272.9,347.9,286.8,347.1,294.4
						z"/>
					<path id="XMLID_591_" class="st3" d="M355.1,233c0,0.1,0,0.3-0.1,0.4c-1,5.4-4.4,20-5.9,24.8v0c-0.2,0.7-1,1.2-2,1.5
						c-2.3,0.6-5.8-0.2-6.1-4.9c0-0.5,0-1.1,0-1.7c0.3-3.8,1.1-24.7,1.3-26.7c0.2-2,0.5-5,1.6-5.3
						C349.2,219.2,356.5,225.5,355.1,233z"/>
					<path id="XMLID_590_" class="st47" d="M350.2,254.5c1.7-6.3,4.1-16.7,4.9-21.1l-1.1-5l-5.4-6.5l-3-0.4c0,0,0.5,9.9,4,17.7
						c0,0,0,11.1-1.5,15.9l-1.3,3.7c0,0,0.1,0.4,0.4,1c0.7,2.2,2.2,7.8,1.4,14.2c-1.1,8.4-1.7,20.5-1.7,20.5c0.1,0,0.3,0,0.4,0
						c0.8-7.4,3.4-20.6,2.8-30.7c0-0.2,0-0.5-0.1-1.1C349.2,258.7,350.2,254.5,350.2,254.5L350.2,254.5z"/>
					<path id="XMLID_589_" class="st3" d="M365.7,254.7c-3.6-3.4-8.6-1.8-6.3,3.5c2.5,5.6,10.2,21.2,14.4,32.3l0.3,0.7
						c0,0,1.7-0.3,4.4-1.4c-2-7.2-3.4-19.6-7.6-28.3C369.6,258.7,367.6,256.5,365.7,254.7z"/>
					<g id="XMLID_586_">
						<g id="XMLID_587_">
							<path id="XMLID_588_" class="st3" d="M345.4,221.5c-0.7-8.4,9.7-2.8,14.7,0c2.1,1.2,2.9,3.5,3.2,5.7c0.3,2.2,3,24.7,3.5,28.8
								c1.2,9.3-6.9,4.2-7.6,1.6C357.3,251,345.8,226,345.4,221.5z"/>
						</g>
					</g>
					<path id="XMLID_585_" class="st3" d="M366.1,250.2c0,0,0.3,4.4,4.1,9.9c0,0-6.1-2.8-6.4-3.2c-0.3-0.4-1.4-4.7-1.2-5.2
						C362.6,251.2,366.1,250.2,366.1,250.2z"/>
				</g>
				<g id="XMLID_563_">
					<g id="XMLID_575_">
						<path id="XMLID_583_" class="st1" d="M294.9,147.4c4.7-2.8,6-5.6,6-5.6s0.1-0.7,0.1-1.8c0-2.2-0.7-5.9-4.5-7.3
							c-5.7-2.1-9.3,1.8-13.2-5c0,0,0,0,0,0.1C284.3,134.2,283.3,147.4,294.9,147.4z"/>
						<path id="XMLID_582_" class="st52" d="M294.9,147.4c4.7-2.8,6-5.6,6-5.6s0.1-0.7,0.1-1.8c-13,12.3-17.4-10.5-17.7-12.2
							C284.3,134.2,283.3,147.4,294.9,147.4z"/>
						<g id="XMLID_579_">
							<path id="XMLID_27_" class="st52" d="M283.3,127.8c0,0,0,0.1,0.1,0.3c0.1,0.2,0.2,0.4,0.3,0.7c0.3,0.6,0.8,1.5,1.6,2.3
								c0.8,0.9,1.8,1.8,3,2.5c0.6,0.4,1.3,0.6,2,0.8c0.7,0.2,1.5,0.3,2.3,0.4c0.8,0.1,1.6,0.2,2.3,0.4c0.8,0.2,1.5,0.5,2.1,1
								c1.3,0.9,2,2.2,2.3,3.4c0.2,0.6,0.2,1.1,0.2,1.6c0,0.5-0.1,0.9-0.2,1.2c-0.1,0.3-0.2,0.6-0.2,0.8c-0.1,0.2-0.1,0.3-0.1,0.3
								s0-0.1,0.1-0.3c0-0.2,0.1-0.4,0.1-0.8c0.1-0.3,0.1-0.7,0.1-1.2c0-0.5-0.1-1-0.3-1.5c-0.3-1.1-1.1-2.2-2.2-3
								c-0.6-0.4-1.2-0.7-2-0.9c-0.7-0.2-1.5-0.3-2.3-0.4c-0.8-0.1-1.6-0.2-2.3-0.5c-0.8-0.2-1.5-0.5-2.1-0.9
								c-1.3-0.8-2.3-1.8-3-2.7c-0.7-0.9-1.2-1.8-1.4-2.5c-0.1-0.3-0.2-0.6-0.3-0.7C283.3,127.9,283.3,127.8,283.3,127.8z"/>
						</g>
						<g id="XMLID_576_">
							<path id="XMLID_25_" class="st52" d="M283.3,127.8c0,0,0.3,1.4,1.2,3.4c0.5,1,1.1,2.1,1.9,3.2c0.8,1.1,1.9,2.1,3.1,2.9
								c0.6,0.4,1.2,0.7,1.9,1c0.7,0.3,1.3,0.6,1.9,1c1.2,0.7,2.2,1.6,2.9,2.5c0.7,0.9,0.8,1.9,0.9,2.5c0,0.3,0,0.6,0,0.7
								c0,0.2,0,0.3,0,0.3s0-0.1,0-0.3c0-0.2-0.1-0.4-0.1-0.7c-0.1-0.6-0.4-1.5-1.1-2.3c-0.6-0.9-1.7-1.6-2.8-2.3
								c-0.6-0.3-1.2-0.6-1.9-0.9c-0.7-0.3-1.3-0.6-2-1c-1.3-0.8-2.3-1.9-3.1-3c-0.8-1.1-1.4-2.3-1.8-3.3
								C283.4,129.3,283.3,127.8,283.3,127.8z"/>
						</g>
					</g>
					<g id="XMLID_571_">
						<path id="XMLID_572_" class="st10" d="M370.3,230.9c-0.3,0-0.6-0.1-0.9-0.2c-3.4-1.3-4.2-8.9-4.3-9.7l-0.1-1l0.9,0.3
							c0.8,0.3,8.1,2.7,8.8,6.1c0.2,1.1-0.2,2.2-1.4,3.1C372.3,230.5,371.3,230.9,370.3,230.9z M366.5,221.8
							c0.4,2.5,1.4,6.9,3.4,7.6c0.7,0.3,1.6,0,2.6-0.9c0.8-0.7,1.1-1.3,0.9-1.9C373.1,224.7,368.9,222.7,366.5,221.8z"/>
					</g>
					<g id="XMLID_568_">
						<polygon id="XMLID_570_" class="st53" points="369.1,219 363,224.4 296.6,149.3 302.8,143.9 						"/>
						
							<rect id="XMLID_569_" x="294.6" y="144.1" transform="matrix(0.7486 -0.663 0.663 0.7486 -21.3948 234.666)" class="st54" width="8.2" height="2.9"/>
					</g>
					<polygon id="XMLID_567_" class="st23" points="369.1,219 363,224.4 296.6,149.3 302.8,143.9 					"/>
					
						<rect id="XMLID_566_" x="294.6" y="144.1" transform="matrix(0.7486 -0.663 0.663 0.7486 -21.3948 234.666)" class="st55" width="8.2" height="2.9"/>
					<polygon id="XMLID_565_" class="st21" points="365.3,222.3 363,224.4 296.6,149.3 294.7,147.2 297,145.1 298.9,147.2 					"/>
					
						<rect id="XMLID_564_" x="361.4" y="220.3" transform="matrix(0.7486 -0.663 0.663 0.7486 -54.6843 297.9346)" class="st10" width="8.2" height="1.6"/>
				</g>
				<g id="XMLID_559_">
					<path id="XMLID_562_" class="st44" d="M357.2,213.2l-2.2-1.8c0,0-0.8,1.1-1.2,1.2c-0.1,0-0.3-0.1-0.5-0.1c-0.6,0-1,0.2-1.7,0.5
						c-0.5,0.2-1.2,0.4-1.2,0.6c0,0.2,0.3,0.5,0.7,0.5c0,0,0.1,0,0.2,0c0,0.1,0,0.1,0,0.2c0.1,0.5,2.3,3.4,4.4,0.2
						C356.2,213.9,357.2,213.2,357.2,213.2z"/>
					<path id="XMLID_561_" class="st9" d="M359.1,184.7c1,3,2,7.6,3.9,11.6c0,0.1,0.1,0.2,0.1,0.2c0,0,0,0,0,0.1c0,0,0,0.2,0.1,0.4
						c0.4,0.8,1.3,2.5,3.4,2.4c0.1,0,0.4,0,0.7,0c0.4,0,0.9,0,1.4,0c0.6,0,1.1-0.2,1.3-0.5c0,0,0,0,0,0c0-0.1,0.1-0.2,0.1-0.3
						c0-0.1,0-0.1,0-0.2c0-0.1,0-0.1,0-0.2c0-0.2,0-0.3,0-0.5c0-0.1,0-0.2,0-0.2c0-1.1-0.2-2.1-0.2-2.4c-0.3-3.3-3.6-13.7-4.7-18.1
						c-0.2-0.6-0.5-1.2-1-1.6c-0.4-0.4-1-0.6-1.6-0.6c0,0,0,0,0,0c-0.1,0-0.2,0-0.2,0c-1.5,0-2.5,1.2-3.1,2.6
						c-0.4,0.9-0.7,1.9-0.9,2.9C358.5,181.8,358.7,183.3,359.1,184.7z"/>
					<path id="XMLID_560_" class="st9" d="M354.1,212l1.8,1.6l0,0l0.5,0.4c0,0,3.7-3.2,6.6-5.9c2.7-2.5,5.4-5.3,7-8.7
						c0.1-0.2,0.2-0.3,0.2-0.5c0,0,0,0,0,0c0-0.1,0.1-0.2,0.1-0.3c0-0.1,0-0.1,0-0.2c0-0.1,0-0.1,0-0.2c0-0.2,0-0.3,0-0.5
						c0-0.1,0-0.2,0-0.2c0-0.6-0.2-1.3-0.7-1.9c0-0.1-0.1-0.1-0.1-0.2c-0.2-0.2-0.4-0.4-0.7-0.5c-0.2-0.1-0.4-0.2-0.5-0.2
						c-2.1-0.7-4.1,0.6-4.1,0.6c-0.1,0.1-0.2,0.2-0.4,0.4c-0.2,0.3-0.5,0.6-0.8,0.9c-0.7,0.9-1.4,2-2,3.3
						C359.4,203.9,354.1,212,354.1,212z"/>
				</g>
				<path id="XMLID_558_" class="st3" d="M343.9,154.4c0,0,4.4-0.9,7.7,0.9c1.7,0.9,3.8,1,5.5,0.2l1.3-0.6c0,0-1.2-1.4-1.4-1.6
					c-0.2-0.1-1.3-1.3-1.9-1.6c-0.6-0.3-3.4-1.2-3.7-1.2c-0.3-0.1-1.3-0.1-2.2,0c-0.9,0.2-1.3,0.4-1.7,0.6c-0.4,0.2-1.7,1-1.7,1
					L343.9,154.4z"/>
			</g>
			<path id="XMLID_556_" class="st44" d="M312.5,169.6c0,0-3.1-2.7-3.3-4.6c-0.2-2.1,1.3-3.1,2.3-2c1.5,1.8,1.3,4.8,1.3,4.8l0.6,0.7
				L312.5,169.6z"/>
			<path id="XMLID_555_" class="st10" d="M356,213.6L356,213.6l0.5,0.4c0,0,3.7-3.2,6.6-5.9c2.7-2.5,5.4-5.3,7-8.7
				c0.1-0.2,0.2-0.3,0.2-0.5c0,0,0,0,0,0c0-0.1,0.1-0.2,0.1-0.3c0-0.1,0-0.1,0-0.2c0-0.1,0-0.1,0-0.2c0-0.2,0-0.3,0-0.5
				c0-0.1,0-0.2,0-0.2c0-1.1-0.2-2.1-0.2-2.4c-0.3-3.3-3.6-13.7-4.7-18.1c-0.2-0.6-0.5-1.2-1-1.6c-0.4-0.4-1-0.6-1.6-0.6
				c0,0,0,0,0,0c-0.1,0-0.2,0-0.2,0c0.7,1.1,1.7,3.4,2.8,7.9c1.5,6,2.5,9.7,2.9,12c0.2,1.1,0.3,1.9,0.2,2.5
				c-0.1,0.4-0.4,1.2-1.1,2.2C365,203.6,358.6,211.8,356,213.6z"/>
			<path id="XMLID_554_" class="st3" d="M355,168.5c0,0-0.4-1.6-0.5-3.8c0,0,2.1-1.5,2.1-3.1c0-2.2-2.4,0-2.4,0s-0.5-1.6-0.6-3
				c-0.2-2.4,3.9-4.2,3.9-4.2l2.1,1.5l1,2C360.7,158.1,360.8,166.5,355,168.5z"/>
		</g>
	</g>
	<g id="XMLID_447_">
		<g id="XMLID_471_">
			<path id="XMLID_551_" class="st0" d="M279.6,227.4l-26.2,15.1c-0.4,0.2-0.8,0.1-1-0.3l-2.1-3.6c-0.2-0.4-0.1-0.8,0.3-1l26.2-15.1
				c0.3-0.2,0.8-0.1,1,0.3l2.1,3.6C280.1,226.7,279.9,227.2,279.6,227.4z"/>
			<g id="XMLID_472_" class="st33">
				<g id="XMLID_548_">
					<path id="XMLID_550_" class="st56" d="M276.2,224.3c-0.1,0-0.1,0-0.2,0l-0.6-1l0.2-0.1l0.6,1
						C276.3,224.2,276.3,224.3,276.2,224.3z"/>
					<path id="XMLID_549_" class="st56" d="M275.4,224C275.4,224,275.3,224,275.4,224l-0.3-0.5l0.1-0.1L275.4,224
						C275.4,223.9,275.4,223.9,275.4,224z"/>
				</g>
				<g id="XMLID_545_">
					<path id="XMLID_547_" class="st56" d="M275.3,224.9c-0.1,0-0.1,0-0.2,0l-0.6-1l0.2-0.1l0.6,1
						C275.4,224.7,275.3,224.8,275.3,224.9z"/>
					<path id="XMLID_546_" class="st56" d="M274.5,224.5C274.5,224.5,274.4,224.5,274.5,224.5l-0.3-0.5l0.1-0.1L274.5,224.5
						C274.5,224.4,274.5,224.5,274.5,224.5z"/>
				</g>
				<g id="XMLID_542_">
					<path id="XMLID_544_" class="st56" d="M274.4,225.4c-0.1,0-0.1,0-0.2,0l-0.6-1l0.2-0.1l0.6,1
						C274.4,225.3,274.4,225.4,274.4,225.4z"/>
					<path id="XMLID_543_" class="st56" d="M273.6,225C273.5,225,273.5,225,273.6,225l-0.3-0.5l0.1-0.1L273.6,225
						C273.6,225,273.6,225,273.6,225z"/>
				</g>
				<g id="XMLID_539_">
					<path id="XMLID_541_" class="st56" d="M273.4,225.9c-0.1,0-0.1,0-0.2,0l-0.6-1l0.2-0.1l0.6,1
						C273.5,225.8,273.5,225.9,273.4,225.9z"/>
					<path id="XMLID_540_" class="st56" d="M272.6,225.5C272.6,225.6,272.6,225.5,272.6,225.5l-0.3-0.5l0.1-0.1L272.6,225.5
						C272.7,225.5,272.7,225.5,272.6,225.5z"/>
				</g>
				<g id="XMLID_536_">
					<path id="XMLID_538_" class="st56" d="M272.5,226.5c-0.1,0-0.1,0-0.2,0l-0.6-1l0.2-0.1l0.6,1
						C272.6,226.3,272.6,226.4,272.5,226.5z"/>
					<path id="XMLID_537_" class="st56" d="M271.7,226.1C271.7,226.1,271.7,226.1,271.7,226.1l-0.3-0.5l0.1-0.1L271.7,226.1
						C271.8,226,271.8,226.1,271.7,226.1z"/>
				</g>
				<g id="XMLID_533_">
					<path id="XMLID_535_" class="st56" d="M271.6,227c-0.1,0-0.1,0-0.2,0l-0.6-1l0.2-0.1l0.6,1C271.7,226.9,271.7,226.9,271.6,227z
						"/>
					<path id="XMLID_534_" class="st56" d="M270.8,226.6C270.8,226.6,270.7,226.6,270.8,226.6l-0.3-0.5l0.1-0.1L270.8,226.6
						C270.8,226.5,270.8,226.6,270.8,226.6z"/>
				</g>
				<g id="XMLID_530_">
					<path id="XMLID_532_" class="st56" d="M270.7,227.5c-0.1,0-0.1,0-0.2,0l-0.6-1l0.2-0.1l0.6,1
						C270.8,227.4,270.7,227.5,270.7,227.5z"/>
					<path id="XMLID_531_" class="st56" d="M269.9,227.1C269.9,227.2,269.8,227.1,269.9,227.1l-0.3-0.5l0.1-0.1L269.9,227.1
						C269.9,227.1,269.9,227.1,269.9,227.1z"/>
				</g>
				<g id="XMLID_527_">
					<path id="XMLID_529_" class="st56" d="M269.8,228c-0.1,0-0.1,0-0.2,0l-0.6-1l0.2-0.1l0.6,1C269.8,227.9,269.8,228,269.8,228z"
						/>
					<path id="XMLID_528_" class="st56" d="M269,227.7C268.9,227.7,268.9,227.7,269,227.7l-0.3-0.5l0.1-0.1L269,227.7
						C269,227.6,269,227.6,269,227.7z"/>
				</g>
				<g id="XMLID_524_">
					<path id="XMLID_526_" class="st56" d="M268.8,228.6c-0.1,0-0.1,0-0.2,0l-0.6-1l0.2-0.1l0.6,1
						C268.9,228.5,268.9,228.5,268.8,228.6z"/>
					<path id="XMLID_525_" class="st56" d="M268,228.2C268,228.2,268,228.2,268,228.2l-0.3-0.5l0.1-0.1L268,228.2
						C268.1,228.1,268.1,228.2,268,228.2z"/>
				</g>
				<g id="XMLID_521_">
					<path id="XMLID_523_" class="st56" d="M267.9,229.1c-0.1,0-0.1,0-0.2,0l-0.6-1l0.2-0.1l0.6,1C268,229,268,229.1,267.9,229.1z"
						/>
					<path id="XMLID_522_" class="st56" d="M267.1,228.7C267.1,228.7,267.1,228.7,267.1,228.7l-0.3-0.5l0.1-0.1L267.1,228.7
						C267.2,228.7,267.1,228.7,267.1,228.7z"/>
				</g>
				<g id="XMLID_518_">
					<path id="XMLID_520_" class="st56" d="M267,229.6c-0.1,0-0.1,0-0.2,0l-0.6-1l0.2-0.1l0.6,1C267.1,229.5,267.1,229.6,267,229.6z
						"/>
					<path id="XMLID_519_" class="st56" d="M266.2,229.3C266.2,229.3,266.1,229.3,266.2,229.3l-0.3-0.5l0.1-0.1L266.2,229.3
						C266.2,229.2,266.2,229.2,266.2,229.3z"/>
				</g>
				<g id="XMLID_515_">
					<path id="XMLID_517_" class="st56" d="M266.1,230.2c-0.1,0-0.1,0-0.2,0l-0.6-1l0.2-0.1l0.6,1
						C266.2,230.1,266.1,230.1,266.1,230.2z"/>
					<path id="XMLID_516_" class="st56" d="M265.3,229.8C265.2,229.8,265.2,229.8,265.3,229.8l-0.3-0.5l0.1-0.1L265.3,229.8
						C265.3,229.7,265.3,229.8,265.3,229.8z"/>
				</g>
				<g id="XMLID_512_">
					<path id="XMLID_514_" class="st56" d="M265.2,230.7c-0.1,0-0.1,0-0.2,0l-0.6-1l0.2-0.1l0.6,1
						C265.2,230.6,265.2,230.7,265.2,230.7z"/>
					<path id="XMLID_513_" class="st56" d="M264.4,230.3C264.3,230.3,264.3,230.3,264.4,230.3l-0.3-0.5l0.1-0.1L264.4,230.3
						C264.4,230.3,264.4,230.3,264.4,230.3z"/>
				</g>
				<g id="XMLID_509_">
					<path id="XMLID_511_" class="st56" d="M264.2,231.2c-0.1,0-0.1,0-0.2,0l-0.6-1l0.2-0.1l0.6,1
						C264.3,231.1,264.3,231.2,264.2,231.2z"/>
					<path id="XMLID_510_" class="st56" d="M263.4,230.8C263.4,230.9,263.4,230.9,263.4,230.8l-0.3-0.5l0.1-0.1L263.4,230.8
						C263.5,230.8,263.5,230.8,263.4,230.8z"/>
				</g>
				<g id="XMLID_506_">
					<path id="XMLID_508_" class="st56" d="M263.3,231.8c-0.1,0-0.1,0-0.2,0l-0.6-1l0.2-0.1l0.6,1
						C263.4,231.6,263.4,231.7,263.3,231.8z"/>
					<path id="XMLID_507_" class="st56" d="M262.5,231.4C262.5,231.4,262.4,231.4,262.5,231.4l-0.3-0.5l0.1-0.1L262.5,231.4
						C262.6,231.3,262.5,231.4,262.5,231.4z"/>
				</g>
				<g id="XMLID_503_">
					<path id="XMLID_505_" class="st56" d="M262.4,232.3c-0.1,0-0.1,0-0.2,0l-0.6-1l0.2-0.1l0.6,1
						C262.5,232.2,262.5,232.2,262.4,232.3z"/>
					<path id="XMLID_504_" class="st56" d="M261.6,231.9C261.6,231.9,261.5,231.9,261.6,231.9l-0.3-0.5l0.1-0.1L261.6,231.9
						C261.6,231.9,261.6,231.9,261.6,231.9z"/>
				</g>
				<g id="XMLID_500_">
					<path id="XMLID_502_" class="st56" d="M261.5,232.8c-0.1,0-0.1,0-0.2,0l-0.6-1l0.2-0.1l0.6,1
						C261.6,232.7,261.5,232.8,261.5,232.8z"/>
					<path id="XMLID_501_" class="st56" d="M260.7,232.4C260.6,232.5,260.6,232.4,260.7,232.4l-0.3-0.5l0.1-0.1L260.7,232.4
						C260.7,232.4,260.7,232.4,260.7,232.4z"/>
				</g>
				<g id="XMLID_497_">
					<path id="XMLID_499_" class="st56" d="M260.6,233.3c-0.1,0-0.1,0-0.2,0l-0.6-1l0.2-0.1l0.6,1
						C260.6,233.2,260.6,233.3,260.6,233.3z"/>
					<path id="XMLID_498_" class="st56" d="M259.8,233C259.7,233,259.7,233,259.8,233l-0.3-0.5l0.1-0.1L259.8,233
						C259.8,232.9,259.8,232.9,259.8,233z"/>
				</g>
				<g id="XMLID_494_">
					<path id="XMLID_496_" class="st56" d="M259.6,233.9c-0.1,0-0.1,0-0.2,0l-0.6-1l0.2-0.1l0.6,1
						C259.7,233.8,259.7,233.8,259.6,233.9z"/>
					<path id="XMLID_495_" class="st56" d="M258.8,233.5C258.8,233.5,258.8,233.5,258.8,233.5l-0.3-0.5l0.1-0.1L258.8,233.5
						C258.9,233.4,258.9,233.5,258.8,233.5z"/>
				</g>
				<g id="XMLID_491_">
					<path id="XMLID_493_" class="st56" d="M258.7,234.4c-0.1,0-0.1,0-0.2,0l-0.6-1l0.2-0.1l0.6,1
						C258.8,234.3,258.8,234.4,258.7,234.4z"/>
					<path id="XMLID_492_" class="st56" d="M257.9,234C257.9,234,257.8,234,257.9,234l-0.3-0.5l0.1-0.1L257.9,234
						C258,234,257.9,234,257.9,234z"/>
				</g>
				<g id="XMLID_488_">
					<path id="XMLID_490_" class="st56" d="M257.8,234.9c-0.1,0-0.1,0-0.2,0l-0.6-1l0.2-0.1l0.6,1
						C257.9,234.8,257.9,234.9,257.8,234.9z"/>
					<path id="XMLID_489_" class="st56" d="M257,234.6C257,234.6,256.9,234.6,257,234.6l-0.3-0.5l0.1-0.1L257,234.6
						C257,234.5,257,234.5,257,234.6z"/>
				</g>
				<g id="XMLID_485_">
					<path id="XMLID_487_" class="st56" d="M256.9,235.5c-0.1,0-0.1,0-0.2,0l-0.6-1l0.2-0.1l0.6,1
						C257,235.4,256.9,235.4,256.9,235.5z"/>
					<path id="XMLID_486_" class="st56" d="M256.1,235.1C256,235.1,256,235.1,256.1,235.1l-0.3-0.5l0.1-0.1L256.1,235.1
						C256.1,235,256.1,235.1,256.1,235.1z"/>
				</g>
				<g id="XMLID_482_">
					<path id="XMLID_484_" class="st56" d="M256,236c-0.1,0-0.1,0-0.2,0l-0.6-1l0.2-0.1l0.6,1C256,235.9,256,236,256,236z"/>
					<path id="XMLID_483_" class="st56" d="M255.2,235.6C255.1,235.6,255.1,235.6,255.2,235.6l-0.3-0.5l0.1-0.1L255.2,235.6
						C255.2,235.6,255.2,235.6,255.2,235.6z"/>
				</g>
				<g id="XMLID_479_">
					<path id="XMLID_481_" class="st56" d="M255,236.5c-0.1,0-0.1,0-0.2,0l-0.6-1l0.2-0.1l0.6,1C255.1,236.4,255.1,236.5,255,236.5z
						"/>
					<path id="XMLID_480_" class="st56" d="M254.2,236.1C254.2,236.2,254.2,236.2,254.2,236.1l-0.3-0.5l0.1-0.1L254.2,236.1
						C254.3,236.1,254.3,236.1,254.2,236.1z"/>
				</g>
				<g id="XMLID_476_">
					<path id="XMLID_478_" class="st56" d="M254.1,237.1c-0.1,0-0.1,0-0.2,0l-0.6-1l0.2-0.1l0.6,1
						C254.2,236.9,254.2,237,254.1,237.1z"/>
					<path id="XMLID_477_" class="st56" d="M253.3,236.7C253.3,236.7,253.2,236.7,253.3,236.7l-0.3-0.5l0.1-0.1L253.3,236.7
						C253.4,236.6,253.3,236.7,253.3,236.7z"/>
				</g>
				<g id="XMLID_473_">
					<path id="XMLID_475_" class="st56" d="M253.2,237.6c-0.1,0-0.1,0-0.2,0l-0.6-1l0.2-0.1l0.6,1
						C253.3,237.5,253.3,237.6,253.2,237.6z"/>
					<path id="XMLID_474_" class="st56" d="M252.4,237.2C252.4,237.2,252.3,237.2,252.4,237.2l-0.3-0.5l0.1-0.1L252.4,237.2
						C252.4,237.2,252.4,237.2,252.4,237.2z"/>
				</g>
			</g>
		</g>
		<g id="XMLID_469_">
			<ellipse id="XMLID_470_" class="st6" cx="299.1" cy="384" rx="25.7" ry="3.9"/>
		</g>
		<g id="XMLID_466_">
			<path id="XMLID_468_" class="st44" d="M305.7,375.8c0,0,0.1,3.5,0.2,4.4c0.1,0.9,2.9,1,3.3,0.5s0.5-4.6,0.5-4.6"/>
			<path id="XMLID_467_" class="st51" d="M309.9,381.5c0,0.9-0.3,2.5-0.3,2.5h-3.3l-0.2-0.6c0,0-1.1,0.6-1.9,0.6h-2.8
				c-2,0-3.2-0.3-3.3-0.6c-0.2-1.5,2.2-1.4,2.9-1.4c1.8,0,3.8-0.9,4.2-1.8c0.3-0.7,0.2-0.8,0.6-0.7c0,0,0.3,0.1,0.6,0.5
				c0.3,0.6,1,1.1,1.7,0.9c0.4-0.1,0.8-0.2,1.1-0.5C309.2,380.3,309.9,380.6,309.9,381.5z"/>
		</g>
		<g id="XMLID_463_">
			<path id="XMLID_465_" class="st44" d="M294.1,374.9c0,0,0.6,2.4,1,3.2c0.4,0.8,3.1-0.2,3.2-0.7c0.1-0.6-1.2-4.5-1.2-4.5"/>
			<path id="XMLID_464_" class="st51" d="M299.3,377.8c0.3,0.9,0.9,2.6,0.9,2.6l-2.5,1.5l-0.5-0.4c0,0-0.6,0.9-1.3,1.4
				c-0.6,0.4-1.8,0.9-2.5,1c-2.3,0.5-4.1,0.3-4.2,0c-0.8-1.3,2.3-2,2.9-2.3c1.7-0.7,2.5-2.3,2.5-3.3c0-0.7-0.1-0.8,0.2-0.9
				c0,0,0.3-0.1,0.7,0.2c0.6,0.5,1.3,0.6,1.9,0.2c0.4-0.2,0.7-0.5,0.8-0.9C298.3,376.9,299,376.9,299.3,377.8z"/>
		</g>
		<path id="XMLID_462_" class="st36" d="M311.7,294.7c1.2-0.9,2.5-1.9,3.7-2.9c2.8-2.4,5.3-4.9,5.6-6.8c0.7-4.2,0.1-16.6-0.2-22.4
			c0-0.4,0-0.7-0.1-1c-0.3-5.5-3.3-8-4.8-8.9c-0.8,7.2-2.5,23.4-2.6,24.2C313.2,278,311.7,294.7,311.7,294.7z"/>
		<path id="XMLID_461_" class="st56" d="M311.7,294.7c1.2-0.9,2.5-1.9,3.7-2.9c0.1-4.6,1.5-10.9,3.4-18.9
			c2.3-10.1,0.8-11.9,0.8-11.9l-4.6,0.7c-0.8,7.1-1.6,14.8-1.7,15.4C313.2,278,311.7,294.7,311.7,294.7z"/>
		<path id="XMLID_460_" class="st3" d="M300.8,332.5c0.3,5.1,0.7,10.4,1.4,14c0.6,3.1,10.4,3.7,9.1,1.3c-1.8-3.5,1.4-14.4,2.9-33.1
			c0.2-2.8,1.5-3.1,2.3-8.9c0.8-5.8-2.4-10.8-2.4-10.8l-13.6-1.3l-0.2,16.9l-0.1,5.7C300.4,316.3,300.4,324.2,300.8,332.5z"/>
		<path id="XMLID_459_" class="st3" d="M310.1,345.6c0,0,2.7,3.3,2.3,9.2c-0.4,6-2.5,23.8-2.5,23.8s-3.1,0.5-4.7-0.1
			c0,0-3.4-33.1-3.4-36.8C301.8,338,310.1,345.6,310.1,345.6z"/>
		<path id="XMLID_458_" class="st47" d="M300.8,332.5c0.9-2.8,2.6-8,3.9-11c1.9-4.2,3.9-6,3.9-6c6.9-7.2,2.2-16.6,2.2-16.6
			s-5.6,4.7-6,5.1c-0.4,0.4-2.6,4.4-4.3,6.6l-0.1,5.7C300.4,316.3,300.4,324.2,300.8,332.5z"/>
		<path id="XMLID_457_" class="st3" d="M284.6,330.2c0,0-3.1,10.1-2.6,13.3c0.5,3.2,11.8,32.9,11.8,32.9s2.1,0,4.5-1.1
			c0,0-0.2-13.1-2.5-21.3c-2.2-8.2-4.8-13.2-7-13.9C286.7,339.4,285.3,332,284.6,330.2z"/>
		<path id="XMLID_456_" class="st48" d="M294.6,336.3c0,0-3.3,5.3-1.3,10.1c2.1,4.8-3.4,4-3.4,4s-2.8-8-2.1-9c0.6-1,2.9-4.5,3.6-4.7
			C292.1,336.4,294.6,336.3,294.6,336.3z"/>
		<path id="XMLID_455_" class="st3" d="M291.2,294c0,0-7.1,33.1-8.1,42c-0.4,3.8,3.6,10,7.2,6.6c4.4-4.1,11.5-22.8,13.7-26.1
			c2.2-3.3,10.4-6.3,4.8-23.1"/>
		<path id="XMLID_454_" class="st44" d="M308.9,249.5c0,0-1-3.3-0.6-5.8c0.4-2.4,1.9-6.8,1.3-10.1c-0.6-3.3-4.7-6.1-9.1-5.6
			c-4.4,0.4-5.7,4.6-6.4,7.1c-0.7,2.4-0.6,6.2-0.4,8.2c0.2,2,1.3,3.6,2,4c0.7,0.4,3.5-0.1,4,0.4s0.9,3.6,0.9,3.6"/>
		<path id="XMLID_453_" class="st36" d="M311,252.1c0,0-0.2-1.9-1-2.6c-0.7-0.7-5.6-0.7-7.1-0.5c-1.5,0.2-5.1,1.9-5.6,2.2
			c-0.5,0.4,0.5,2.2,0.5,2.2L311,252.1z"/>
		<path id="XMLID_452_" class="st44" d="M259.9,232.9c0-0.3,0.5-0.2,0.6,0.1c0,0,0,0.1,0.1,0.2c0-0.6-0.1-1-0.1-1.2
			c0-0.3,0.4-0.2,0.6,0c0-0.2,0-0.4,0-0.5c0-0.4,0.5-0.2,0.6,0.1c0,0.1,0.1,0.3,0.1,0.6c0-0.2,0-0.3,0-0.3c0-0.3,0.4-0.3,0.6,0
			c0,0.1,0.1,0.3,0.1,0.7c0.1,0.3,0.2,0.7,0.2,1.1c0.1,0.5,0.2,1,0.2,1c0.8,0.9,1.6,1.2,1.6,1.2l1-0.5c0,0,0.3,1.7,0.2,2.2
			c-0.1,0.5-0.4,1.2-0.4,1.5c0,0.3,0.4,1.1,0.4,1.1l-2.6,1.1c0,0-0.4-1.6-0.7-1.9c-0.4-0.4-1.6-1.9-1.8-2.2
			c-0.1-0.1-0.2-0.7-0.4-1.3l-0.2-1l-0.1-1C259.8,234.1,259.8,233,259.9,232.9z"/>
		<path id="XMLID_451_" class="st36" d="M262.6,240.9c0,0,0.9,5.1,1.8,9.3c0.7,3.2,1.6,6.5,3.1,9.5c0,0,0,0.1,0,0.1
			c0.9,1.9,2.5,4.2,3.6,4.4c1.1,0.2,5,0,5,0c2.4,0.1,8.4-0.7,13.5-1.3c0.1,0,0.2,0,0.2,0c2.4-0.3,4.6-0.6,6.1-0.8
			c0.7-0.1,1.4-0.4,1.8-0.8c0.4-0.4,0.8-0.9,0.9-1.6c0,0,0,0,0,0c0.3-1.7-0.7-3-2.2-4c-0.1-0.1-0.1-0.1-0.2-0.1
			c1.7-1.7,3.5-3.6,3.5-3.6s-4.9,0.2-7.7,0.4c-1.9,0.1-14.6,3.5-16.2,4c-0.1,0-0.2,0.1-0.3,0.1c0,0-0.2,0-0.5,0.1
			c-0.1,0-0.2,0.1-0.3,0.1c-0.4-1.1-1-2.3-1.9-3.5c-2.7-3.8-7.2-13.2-7.2-13.2l-2.5,0.7l0,0l0,0L262.6,240.9z"/>
		<path id="XMLID_450_" class="st3" d="M308.7,245.3c0,0-6.1,0.5-7.3,0c-1.2-0.5-2.8-1.7-3-3.7c-0.2-2.1,0.3-2.7-0.5-3.9
			c-0.8-1.2-1.5-0.8-1.6,0.3c-0.1,1.1-0.2,3.1-0.5,3.2c-0.4,0.2-0.9-1.2-0.7-3.3c0.1-1.8,0.3-3.3,0.9-4.5c0.6-1.2,0.8-1.2,1.3-1.4
			c-0.5-0.3-1.1-0.3-2.2-1.9c-1.2-1.9-0.6-4.9,2.7-4.9c5.7,0,11.7,1.1,11.8,5.3c0,0,2-0.3,2,3.5c0.1,3.8-2.4,8.4-2.6,9.6
			C309,244.9,309.3,245.1,308.7,245.3z"/>
		<path id="XMLID_449_" class="st36" d="M291.7,290.2c-0.2,1.9-1.9,4.9-0.8,5.3c0.5,0.2,2.3,0.1,4.6-0.1h0.1c0,0,0.1,0,0.1,0
			c2-0.2,4.4-0.4,6.3-0.5c7.8-0.3,11.7,1.2,12.5,0.8c0.4-0.2,0.4-0.9,0.3-1.6c-0.3-1.7-0.4-3.4-0.1-5.2c0.2-1.4,0.5-3.2,0.8-5.1
			c1.3-6.8,3.8-17.2,4.2-23.5c0.6-9.8-9.9-8.9-9.9-8.9c-13.4-0.8-19.6,3-20.4,8.8c-0.1,0.4-0.1,0.8-0.1,1.3
			c-0.3,5.9,1.5,15.5,2.3,22.6C291.9,286.1,291.8,288.3,291.7,290.2z"/>
		<path id="XMLID_448_" class="st56" d="M291.7,290.2c-0.2,1.9-1.9,4.9-0.8,5.3c0.5,0.2,2.3,0.1,4.6-0.1c-2.1,0.1-2.4-1.4-2-2.5
			c0.5-1.1,1.4-3.5,1.3-6.3c-0.1-2.8-1.2-9.3-1.8-15.3c-0.6-5.6-0.1-10,0-10.6c-0.3,0.6-1.2,1.5-3.8,2.1c-0.1,6,1.6,14.7,2.4,21.3
			C291.9,286.1,291.8,288.3,291.7,290.2z"/>
	</g>
	<g id="XMLID_165_">
		<g id="XMLID_196_">
			<path id="XMLID_443_" class="st0" d="M127.3,166.9l14.9-35.6l-11.1,2.2l-0.2,0l-22.1,4.5l-0.4,0.1l-22.3,4.5l-0.4,0.1l-10.9,2.2
				L127.3,166.9z M131.1,140.4l-7.1,16.9l-25.1-10.5L131.1,140.4z"/>
			<g id="XMLID_197_">
				<g id="XMLID_438_" class="st50">
					<g id="XMLID_441_">
						<path id="XMLID_442_" class="st57" d="M81,143.7l0.2,0l0.3,1.6c0,0.1,0,0.1-0.1,0.2c-0.1,0-0.1,0-0.1-0.1L81,143.7z"/>
					</g>
					<g id="XMLID_439_">
						<path id="XMLID_440_" class="st57" d="M81.6,143.5l0.2,0l0.2,0.8c0,0,0,0.1-0.1,0.1s-0.1,0-0.1-0.1L81.6,143.5z"/>
					</g>
				</g>
				<g id="XMLID_433_" class="st50">
					<g id="XMLID_436_">
						<path id="XMLID_437_" class="st57" d="M82.1,143.4l0.2,0l0.3,1.6c0,0.1,0,0.1-0.1,0.2c-0.1,0-0.1,0-0.1-0.1L82.1,143.4z"/>
					</g>
					<g id="XMLID_434_">
						<path id="XMLID_435_" class="st57" d="M82.7,143.3l0.2,0l0.2,0.8c0,0,0,0.1-0.1,0.1c0,0-0.1,0-0.1-0.1L82.7,143.3z"/>
					</g>
				</g>
				<g id="XMLID_428_" class="st50">
					<g id="XMLID_431_">
						<path id="XMLID_432_" class="st57" d="M83.2,143.2l0.2,0l0.3,1.6c0,0.1,0,0.1-0.1,0.2c-0.1,0-0.1,0-0.1-0.1L83.2,143.2z"/>
					</g>
					<g id="XMLID_429_">
						<path id="XMLID_430_" class="st57" d="M83.8,143.1l0.2,0l0.2,0.8c0,0,0,0.1-0.1,0.1c0,0-0.1,0-0.1-0.1L83.8,143.1z"/>
					</g>
				</g>
				<g id="XMLID_423_" class="st50">
					<g id="XMLID_426_">
						<path id="XMLID_427_" class="st57" d="M84.4,143l0.2,0l0.3,1.6c0,0.1,0,0.1-0.1,0.2c-0.1,0-0.1,0-0.1-0.1L84.4,143z"/>
					</g>
					<g id="XMLID_424_">
						<path id="XMLID_425_" class="st57" d="M85,142.9l0.2,0l0.2,0.8c0,0,0,0.1-0.1,0.1c0,0-0.1,0-0.1-0.1L85,142.9z"/>
					</g>
				</g>
				<g id="XMLID_418_" class="st50">
					<g id="XMLID_421_">
						<path id="XMLID_422_" class="st57" d="M85.5,142.7l0.2,0l0.3,1.6c0,0.1,0,0.1-0.1,0.2c-0.1,0-0.1,0-0.1-0.1L85.5,142.7z"/>
					</g>
					<g id="XMLID_419_">
						<path id="XMLID_420_" class="st57" d="M86.1,142.6l0.2,0l0.2,0.8c0,0,0,0.1-0.1,0.1c0,0-0.1,0-0.1-0.1L86.1,142.6z"/>
					</g>
				</g>
				<g id="XMLID_413_" class="st50">
					<g id="XMLID_416_">
						<path id="XMLID_417_" class="st57" d="M86.6,142.5l0.2,0l0.3,1.6c0,0.1,0,0.1-0.1,0.2c-0.1,0-0.1,0-0.1-0.1L86.6,142.5z"/>
					</g>
					<g id="XMLID_414_">
						<path id="XMLID_415_" class="st57" d="M87.2,142.4l0.2,0l0.2,0.8c0,0,0,0.1-0.1,0.1c0,0-0.1,0-0.1-0.1L87.2,142.4z"/>
					</g>
				</g>
				<g id="XMLID_408_" class="st50">
					<g id="XMLID_411_">
						<path id="XMLID_412_" class="st57" d="M87.8,142.3l0.2,0l0.3,1.6c0,0.1,0,0.1-0.1,0.2c-0.1,0-0.1,0-0.2-0.1L87.8,142.3z"/>
					</g>
					<g id="XMLID_409_">
						<path id="XMLID_410_" class="st57" d="M88.4,142.2l0.2,0l0.2,0.8c0,0,0,0.1-0.1,0.1c0,0-0.1,0-0.1-0.1L88.4,142.2z"/>
					</g>
				</g>
				<g id="XMLID_403_" class="st50">
					<g id="XMLID_406_">
						<path id="XMLID_407_" class="st57" d="M88.9,142.1l0.2,0l0.3,1.6c0,0.1,0,0.1-0.1,0.2c-0.1,0-0.1,0-0.2-0.1L88.9,142.1z"/>
					</g>
					<g id="XMLID_404_">
						<path id="XMLID_405_" class="st57" d="M89.5,141.9l0.2,0l0.2,0.8c0,0,0,0.1-0.1,0.1c0,0-0.1,0-0.1-0.1L89.5,141.9z"/>
					</g>
				</g>
				<g id="XMLID_398_" class="st50">
					<g id="XMLID_401_">
						<path id="XMLID_402_" class="st57" d="M90.1,141.8l0.2,0l0.3,1.6c0,0.1,0,0.1-0.1,0.2c-0.1,0-0.1,0-0.1-0.1L90.1,141.8z"/>
					</g>
					<g id="XMLID_399_">
						<path id="XMLID_400_" class="st57" d="M90.6,141.7l0.2,0l0.2,0.8c0,0,0,0.1-0.1,0.1c0,0-0.1,0-0.1-0.1L90.6,141.7z"/>
					</g>
				</g>
				<g id="XMLID_393_" class="st50">
					<g id="XMLID_396_">
						<path id="XMLID_397_" class="st57" d="M91.2,141.6l0.2,0l0.3,1.6c0,0.1,0,0.1-0.1,0.2c-0.1,0-0.1,0-0.1-0.1L91.2,141.6z"/>
					</g>
					<g id="XMLID_394_">
						<path id="XMLID_395_" class="st57" d="M91.8,141.5l0.2,0l0.2,0.8c0,0,0,0.1-0.1,0.1c0,0-0.1,0-0.1-0.1L91.8,141.5z"/>
					</g>
				</g>
				<g id="XMLID_388_" class="st50">
					<g id="XMLID_391_">
						<path id="XMLID_392_" class="st57" d="M92.3,141.4l0.2,0l0.3,1.6c0,0.1,0,0.1-0.1,0.2c-0.1,0-0.1,0-0.1-0.1L92.3,141.4z"/>
					</g>
					<g id="XMLID_389_">
						<path id="XMLID_390_" class="st57" d="M92.9,141.3l0.2,0l0.2,0.8c0,0,0,0.1-0.1,0.1c0,0-0.1,0-0.1-0.1L92.9,141.3z"/>
					</g>
				</g>
				<g id="XMLID_383_" class="st50">
					<g id="XMLID_386_">
						<path id="XMLID_387_" class="st57" d="M93.5,141.1l0.2,0l0.3,1.6c0,0.1,0,0.1-0.1,0.2c-0.1,0-0.1,0-0.1-0.1L93.5,141.1z"/>
					</g>
					<g id="XMLID_384_">
						<path id="XMLID_385_" class="st57" d="M94,141l0.2,0l0.2,0.8c0,0,0,0.1-0.1,0.1c0,0-0.1,0-0.1-0.1L94,141z"/>
					</g>
				</g>
				<g id="XMLID_378_" class="st50">
					<g id="XMLID_381_">
						<path id="XMLID_382_" class="st57" d="M94.6,140.9l0.2,0l0.3,1.6c0,0.1,0,0.1-0.1,0.2c-0.1,0-0.1,0-0.1-0.1L94.6,140.9z"/>
					</g>
					<g id="XMLID_379_">
						<path id="XMLID_380_" class="st57" d="M95.2,140.8l0.2,0l0.2,0.8c0,0,0,0.1-0.1,0.1c0,0-0.1,0-0.1-0.1L95.2,140.8z"/>
					</g>
				</g>
				<g id="XMLID_373_" class="st50">
					<g id="XMLID_376_">
						<path id="XMLID_377_" class="st57" d="M95.7,140.7l0.2-0.1l0.3,1.6c0,0.1,0,0.1-0.1,0.2c-0.1,0-0.1,0-0.1-0.1L95.7,140.7z"/>
					</g>
					<g id="XMLID_374_">
						<path id="XMLID_375_" class="st57" d="M96.3,140.6l0.2,0l0.2,0.8c0,0,0,0.1-0.1,0.1c0,0-0.1,0-0.1-0.1L96.3,140.6z"/>
					</g>
				</g>
				<g id="XMLID_368_" class="st50">
					<g id="XMLID_371_">
						<path id="XMLID_372_" class="st57" d="M96.9,140.5l0.2-0.1l0.3,1.6c0,0.1,0,0.1-0.1,0.2c-0.1,0-0.1,0-0.1-0.1L96.9,140.5z"/>
					</g>
					<g id="XMLID_369_">
						<path id="XMLID_370_" class="st57" d="M97.4,140.3l0.2,0l0.2,0.8c0,0,0,0.1-0.1,0.1c0,0-0.1,0-0.1-0.1L97.4,140.3z"/>
					</g>
				</g>
				<g id="XMLID_363_" class="st50">
					<g id="XMLID_366_">
						<path id="XMLID_367_" class="st57" d="M98,140.2l0.2-0.1l0.3,1.6c0,0.1,0,0.1-0.1,0.2c-0.1,0-0.1,0-0.2-0.1L98,140.2z"/>
					</g>
					<g id="XMLID_364_">
						<path id="XMLID_365_" class="st57" d="M98.6,140.1l0.2,0l0.2,0.8c0,0,0,0.1-0.1,0.1c0,0-0.1,0-0.1-0.1L98.6,140.1z"/>
					</g>
				</g>
				<g id="XMLID_358_" class="st50">
					<g id="XMLID_361_">
						<path id="XMLID_362_" class="st57" d="M99.1,140l0.2-0.1l0.3,1.6c0,0.1,0,0.1-0.1,0.2c-0.1,0-0.1,0-0.2-0.1L99.1,140z"/>
					</g>
					<g id="XMLID_359_">
						<path id="XMLID_360_" class="st57" d="M99.7,139.9l0.2,0l0.2,0.8c0,0,0,0.1-0.1,0.1c0,0-0.1,0-0.1-0.1L99.7,139.9z"/>
					</g>
				</g>
				<g id="XMLID_353_" class="st50">
					<g id="XMLID_356_">
						<path id="XMLID_357_" class="st57" d="M100.3,139.8l0.2,0l0.3,1.6c0,0.1,0,0.1-0.1,0.2c-0.1,0-0.1,0-0.1-0.1L100.3,139.8z"/>
					</g>
					<g id="XMLID_354_">
						<path id="XMLID_355_" class="st57" d="M100.8,139.6l0.2,0l0.2,0.8c0,0,0,0.1-0.1,0.1s-0.1,0-0.1-0.1L100.8,139.6z"/>
					</g>
				</g>
				<g id="XMLID_348_" class="st50">
					<g id="XMLID_351_">
						<path id="XMLID_352_" class="st57" d="M101.4,139.5l0.2,0l0.3,1.6c0,0.1,0,0.1-0.1,0.2c-0.1,0-0.1,0-0.1-0.1L101.4,139.5z"/>
					</g>
					<g id="XMLID_349_">
						<path id="XMLID_350_" class="st57" d="M102,139.4l0.2,0l0.2,0.8c0,0,0,0.1-0.1,0.1c0,0-0.1,0-0.1-0.1L102,139.4z"/>
					</g>
				</g>
				<g id="XMLID_343_" class="st50">
					<g id="XMLID_346_">
						<path id="XMLID_347_" class="st57" d="M102.5,139.3l0.2,0l0.3,1.6c0,0.1,0,0.1-0.1,0.2c-0.1,0-0.1,0-0.1-0.1L102.5,139.3z"/>
					</g>
					<g id="XMLID_344_">
						<path id="XMLID_345_" class="st57" d="M103.1,139.2l0.2,0l0.2,0.8c0,0,0,0.1-0.1,0.1c0,0-0.1,0-0.1-0.1L103.1,139.2z"/>
					</g>
				</g>
				<g id="XMLID_338_" class="st50">
					<g id="XMLID_341_">
						<path id="XMLID_342_" class="st57" d="M103.7,139.1l0.2,0l0.3,1.6c0,0.1,0,0.1-0.1,0.2c-0.1,0-0.1,0-0.1-0.1L103.7,139.1z"/>
					</g>
					<g id="XMLID_339_">
						<path id="XMLID_340_" class="st57" d="M104.3,139l0.2,0l0.2,0.8c0,0,0,0.1-0.1,0.1c0,0-0.1,0-0.1-0.1L104.3,139z"/>
					</g>
				</g>
				<g id="XMLID_333_" class="st50">
					<g id="XMLID_336_">
						<path id="XMLID_337_" class="st57" d="M104.8,138.8l0.2,0l0.3,1.6c0,0.1,0,0.1-0.1,0.2c-0.1,0-0.1,0-0.1-0.1L104.8,138.8z"/>
					</g>
					<g id="XMLID_334_">
						<path id="XMLID_335_" class="st57" d="M105.4,138.7l0.2,0l0.2,0.8c0,0,0,0.1-0.1,0.1c0,0-0.1,0-0.1-0.1L105.4,138.7z"/>
					</g>
				</g>
				<g id="XMLID_328_" class="st50">
					<g id="XMLID_331_">
						<path id="XMLID_332_" class="st57" d="M105.9,138.6l0.2,0l0.3,1.6c0,0.1,0,0.1-0.1,0.2c-0.1,0-0.1,0-0.1-0.1L105.9,138.6z"/>
					</g>
					<g id="XMLID_329_">
						<path id="XMLID_330_" class="st57" d="M106.5,138.5l0.2,0l0.2,0.8c0,0,0,0.1-0.1,0.1c0,0-0.1,0-0.1-0.1L106.5,138.5z"/>
					</g>
				</g>
				<g id="XMLID_323_" class="st50">
					<g id="XMLID_326_">
						<path id="XMLID_327_" class="st57" d="M107.1,138.4l0.2,0l0.3,1.6c0,0.1,0,0.1-0.1,0.2c-0.1,0-0.1,0-0.1-0.1L107.1,138.4z"/>
					</g>
					<g id="XMLID_324_">
						<path id="XMLID_325_" class="st57" d="M107.7,138.3l0.2,0l0.2,0.8c0,0,0,0.1-0.1,0.1c0,0-0.1,0-0.1-0.1L107.7,138.3z"/>
					</g>
				</g>
				<g id="XMLID_318_" class="st50">
					<g id="XMLID_321_">
						<path id="XMLID_322_" class="st57" d="M108.2,138.2l0.2,0l0.3,1.6c0,0.1,0,0.1-0.1,0.2c-0.1,0-0.1,0-0.2-0.1L108.2,138.2z"/>
					</g>
					<g id="XMLID_319_">
						<path id="XMLID_320_" class="st57" d="M108.8,138l0.2,0l0.2,0.8c0,0,0,0.1-0.1,0.1c0,0-0.1,0-0.1-0.1L108.8,138z"/>
					</g>
				</g>
				<g id="XMLID_313_" class="st50">
					<g id="XMLID_316_">
						<path id="XMLID_317_" class="st57" d="M109.3,137.9l0.2-0.1l0.3,1.6c0,0.1,0,0.1-0.1,0.2s-0.1,0-0.2-0.1L109.3,137.9z"/>
					</g>
					<g id="XMLID_314_">
						<path id="XMLID_315_" class="st57" d="M109.9,137.8l0.2,0l0.2,0.8c0,0,0,0.1-0.1,0.1c0,0-0.1,0-0.1-0.1L109.9,137.8z"/>
					</g>
				</g>
				<g id="XMLID_308_" class="st50">
					<g id="XMLID_311_">
						<path id="XMLID_312_" class="st57" d="M110.5,137.7l0.2,0l0.3,1.6c0,0.1,0,0.1-0.1,0.2c-0.1,0-0.1,0-0.1-0.1L110.5,137.7z"/>
					</g>
					<g id="XMLID_309_">
						<path id="XMLID_310_" class="st57" d="M111.1,137.6l0.2,0l0.2,0.8c0,0,0,0.1-0.1,0.1c0,0-0.1,0-0.1-0.1L111.1,137.6z"/>
					</g>
				</g>
				<g id="XMLID_303_" class="st50">
					<g id="XMLID_306_">
						<path id="XMLID_307_" class="st57" d="M111.6,137.5l0.2,0l0.3,1.6c0,0.1,0,0.1-0.1,0.2c-0.1,0-0.1,0-0.1-0.1L111.6,137.5z"/>
					</g>
					<g id="XMLID_304_">
						<path id="XMLID_305_" class="st57" d="M112.2,137.4l0.2,0l0.2,0.8c0,0,0,0.1-0.1,0.1c0,0-0.1,0-0.1-0.1L112.2,137.4z"/>
					</g>
				</g>
				<g id="XMLID_298_" class="st50">
					<g id="XMLID_301_">
						<path id="XMLID_302_" class="st57" d="M112.7,137.2l0.2,0l0.3,1.6c0,0.1,0,0.1-0.1,0.2s-0.1,0-0.1-0.1L112.7,137.2z"/>
					</g>
					<g id="XMLID_299_">
						<path id="XMLID_300_" class="st57" d="M113.3,137.1l0.2,0l0.2,0.8c0,0,0,0.1-0.1,0.1c0,0-0.1,0-0.1-0.1L113.3,137.1z"/>
					</g>
				</g>
				<g id="XMLID_293_" class="st50">
					<g id="XMLID_296_">
						<path id="XMLID_297_" class="st57" d="M113.9,137l0.2,0l0.3,1.6c0,0.1,0,0.1-0.1,0.2c-0.1,0-0.1,0-0.1-0.1L113.9,137z"/>
					</g>
					<g id="XMLID_294_">
						<path id="XMLID_295_" class="st57" d="M114.5,136.9l0.2,0l0.2,0.8c0,0,0,0.1-0.1,0.1c0,0-0.1,0-0.1-0.1L114.5,136.9z"/>
					</g>
				</g>
				<g id="XMLID_288_" class="st50">
					<g id="XMLID_291_">
						<path id="XMLID_292_" class="st57" d="M115,136.8l0.2,0l0.3,1.6c0,0.1,0,0.1-0.1,0.2c-0.1,0-0.1,0-0.1-0.1L115,136.8z"/>
					</g>
					<g id="XMLID_289_">
						<path id="XMLID_290_" class="st57" d="M115.6,136.7l0.2,0l0.2,0.8c0,0,0,0.1-0.1,0.1c0,0-0.1,0-0.1-0.1L115.6,136.7z"/>
					</g>
				</g>
				<g id="XMLID_283_" class="st50">
					<g id="XMLID_286_">
						<path id="XMLID_287_" class="st57" d="M116.1,136.6l0.2-0.1l0.3,1.6c0,0.1,0,0.1-0.1,0.2c-0.1,0-0.1,0-0.1-0.1L116.1,136.6z"
							/>
					</g>
					<g id="XMLID_284_">
						<path id="XMLID_285_" class="st57" d="M116.7,136.4l0.2,0l0.2,0.8c0,0,0,0.1-0.1,0.1c0,0-0.1,0-0.1-0.1L116.7,136.4z"/>
					</g>
				</g>
				<g id="XMLID_278_" class="st50">
					<g id="XMLID_281_">
						<path id="XMLID_282_" class="st57" d="M117.3,136.3l0.2-0.1l0.3,1.6c0,0.1,0,0.1-0.1,0.2c-0.1,0-0.1,0-0.1-0.1L117.3,136.3z"
							/>
					</g>
					<g id="XMLID_279_">
						<path id="XMLID_280_" class="st57" d="M117.9,136.2l0.2,0l0.2,0.8c0,0,0,0.1-0.1,0.1c0,0-0.1,0-0.1-0.1L117.9,136.2z"/>
					</g>
				</g>
				<g id="XMLID_273_" class="st50">
					<g id="XMLID_276_">
						<path id="XMLID_277_" class="st57" d="M118.4,136.1l0.2,0l0.3,1.6c0,0.1,0,0.1-0.1,0.2c-0.1,0-0.1,0-0.2-0.1L118.4,136.1z"/>
					</g>
					<g id="XMLID_274_">
						<path id="XMLID_275_" class="st57" d="M119,136l0.2,0l0.2,0.8c0,0,0,0.1-0.1,0.1c0,0-0.1,0-0.1-0.1L119,136z"/>
					</g>
				</g>
				<g id="XMLID_268_" class="st50">
					<g id="XMLID_271_">
						<path id="XMLID_272_" class="st57" d="M119.5,135.9l0.2,0l0.3,1.6c0,0.1,0,0.1-0.1,0.2c-0.1,0-0.1,0-0.2-0.1L119.5,135.9z"/>
					</g>
					<g id="XMLID_269_">
						<path id="XMLID_270_" class="st57" d="M120.1,135.7l0.2,0l0.2,0.8c0,0,0,0.1-0.1,0.1c0,0-0.1,0-0.1-0.1L120.1,135.7z"/>
					</g>
				</g>
				<g id="XMLID_263_" class="st50">
					<g id="XMLID_266_">
						<path id="XMLID_267_" class="st57" d="M120.7,135.6l0.2,0l0.3,1.6c0,0.1,0,0.1-0.1,0.2c-0.1,0-0.1,0-0.1-0.1L120.7,135.6z"/>
					</g>
					<g id="XMLID_264_">
						<path id="XMLID_265_" class="st57" d="M121.3,135.5l0.2,0l0.2,0.8c0,0,0,0.1-0.1,0.1s-0.1,0-0.1-0.1L121.3,135.5z"/>
					</g>
				</g>
				<g id="XMLID_258_" class="st50">
					<g id="XMLID_261_">
						<path id="XMLID_262_" class="st57" d="M121.8,135.4l0.2,0l0.3,1.6c0,0.1,0,0.1-0.1,0.2c-0.1,0-0.1,0-0.1-0.1L121.8,135.4z"/>
					</g>
					<g id="XMLID_259_">
						<path id="XMLID_260_" class="st57" d="M122.4,135.3l0.2,0l0.2,0.8c0,0,0,0.1-0.1,0.1c0,0-0.1,0-0.1-0.1L122.4,135.3z"/>
					</g>
				</g>
				<g id="XMLID_253_" class="st50">
					<g id="XMLID_256_">
						<path id="XMLID_257_" class="st57" d="M123,135.2l0.2,0l0.3,1.6c0,0.1,0,0.1-0.1,0.2c-0.1,0-0.1,0-0.1-0.1L123,135.2z"/>
					</g>
					<g id="XMLID_254_">
						<path id="XMLID_255_" class="st57" d="M123.5,135.1l0.2,0l0.2,0.8c0,0,0,0.1-0.1,0.1c0,0-0.1,0-0.1-0.1L123.5,135.1z"/>
					</g>
				</g>
				<g id="XMLID_248_" class="st50">
					<g id="XMLID_251_">
						<path id="XMLID_252_" class="st57" d="M124.1,135l0.2,0l0.3,1.6c0,0.1,0,0.1-0.1,0.2c-0.1,0-0.1,0-0.1-0.1L124.1,135z"/>
					</g>
					<g id="XMLID_249_">
						<path id="XMLID_250_" class="st57" d="M124.7,134.8l0.2,0l0.2,0.8c0,0,0,0.1-0.1,0.1c0,0-0.1,0-0.1-0.1L124.7,134.8z"/>
					</g>
				</g>
				<g id="XMLID_243_" class="st50">
					<g id="XMLID_246_">
						<path id="XMLID_247_" class="st57" d="M125.2,134.7l0.2,0l0.3,1.6c0,0.1,0,0.1-0.1,0.2c-0.1,0-0.1,0-0.1-0.1L125.2,134.7z"/>
					</g>
					<g id="XMLID_244_">
						<path id="XMLID_245_" class="st57" d="M125.8,134.6l0.2,0l0.2,0.8c0,0,0,0.1-0.1,0.1c0,0-0.1,0-0.1-0.1L125.8,134.6z"/>
					</g>
				</g>
				<g id="XMLID_238_" class="st50">
					<g id="XMLID_241_">
						<path id="XMLID_242_" class="st57" d="M126.4,134.5l0.2,0l0.3,1.6c0,0.1,0,0.1-0.1,0.2c-0.1,0-0.1,0-0.1-0.1L126.4,134.5z"/>
					</g>
					<g id="XMLID_239_">
						<path id="XMLID_240_" class="st57" d="M126.9,134.4l0.2,0l0.2,0.8c0,0,0,0.1-0.1,0.1c0,0-0.1,0-0.1-0.1L126.9,134.4z"/>
					</g>
				</g>
				<g id="XMLID_233_" class="st50">
					<g id="XMLID_236_">
						<path id="XMLID_237_" class="st57" d="M127.5,134.3l0.2,0l0.3,1.6c0,0.1,0,0.1-0.1,0.2c-0.1,0-0.1,0-0.1-0.1L127.5,134.3z"/>
					</g>
					<g id="XMLID_234_">
						<path id="XMLID_235_" class="st57" d="M128.1,134.1l0.2,0l0.2,0.8c0,0,0,0.1-0.1,0.1c0,0-0.1,0-0.1-0.1L128.1,134.1z"/>
					</g>
				</g>
				<g id="XMLID_228_" class="st50">
					<g id="XMLID_231_">
						<path id="XMLID_232_" class="st57" d="M128.6,134l0.2,0l0.3,1.6c0,0.1,0,0.1-0.1,0.2c-0.1,0-0.1,0-0.2-0.1L128.6,134z"/>
					</g>
					<g id="XMLID_229_">
						<path id="XMLID_230_" class="st57" d="M129.2,133.9l0.2,0l0.2,0.8c0,0,0,0.1-0.1,0.1c0,0-0.1,0-0.1-0.1L129.2,133.9z"/>
					</g>
				</g>
				<g id="XMLID_223_" class="st50">
					<g id="XMLID_226_">
						<path id="XMLID_227_" class="st57" d="M129.8,133.8l0.2,0l0.3,1.6c0,0.1,0,0.1-0.1,0.2c-0.1,0-0.1,0-0.2-0.1L129.8,133.8z"/>
					</g>
					<g id="XMLID_224_">
						<path id="XMLID_225_" class="st57" d="M130.3,133.7l0.2,0l0.2,0.8c0,0,0,0.1-0.1,0.1c0,0-0.1,0-0.1-0.1L130.3,133.7z"/>
					</g>
				</g>
				<g id="XMLID_218_" class="st50">
					<g id="XMLID_221_">
						<path id="XMLID_222_" class="st57" d="M130.9,133.6l0.2,0l0.3,1.6c0,0.1,0,0.1-0.1,0.2c-0.1,0-0.1,0-0.1-0.1L130.9,133.6z"/>
					</g>
					<g id="XMLID_219_">
						<path id="XMLID_220_" class="st57" d="M131.5,133.5l0.2,0l0.2,0.8c0,0,0,0.1-0.1,0.1c0,0-0.1,0-0.1-0.1L131.5,133.5z"/>
					</g>
				</g>
				<g id="XMLID_213_" class="st50">
					<g id="XMLID_216_">
						<path id="XMLID_217_" class="st57" d="M132,133.3l0.2,0l0.3,1.6c0,0.1,0,0.1-0.1,0.2c-0.1,0-0.1,0-0.1-0.1L132,133.3z"/>
					</g>
					<g id="XMLID_214_">
						<path id="XMLID_215_" class="st57" d="M132.6,133.2l0.2,0l0.2,0.8c0,0,0,0.1-0.1,0.1c0,0-0.1,0-0.1-0.1L132.6,133.2z"/>
					</g>
				</g>
				<g id="XMLID_208_" class="st50">
					<g id="XMLID_211_">
						<path id="XMLID_212_" class="st57" d="M133.2,133.1l0.2,0l0.3,1.6c0,0.1,0,0.1-0.1,0.2s-0.1,0-0.1-0.1L133.2,133.1z"/>
					</g>
					<g id="XMLID_209_">
						<path id="XMLID_210_" class="st57" d="M133.7,133l0.2,0l0.2,0.8c0,0,0,0.1-0.1,0.1c0,0-0.1,0-0.1-0.1L133.7,133z"/>
					</g>
				</g>
				<g id="XMLID_203_" class="st50">
					<g id="XMLID_206_">
						<path id="XMLID_207_" class="st57" d="M134.3,132.9l0.2,0l0.3,1.6c0,0.1,0,0.1-0.1,0.2c-0.1,0-0.1,0-0.1-0.1L134.3,132.9z"/>
					</g>
					<g id="XMLID_204_">
						<path id="XMLID_205_" class="st57" d="M134.9,132.8l0.2,0l0.2,0.8c0,0,0,0.1-0.1,0.1c0,0-0.1,0-0.1-0.1L134.9,132.8z"/>
					</g>
				</g>
				<g id="XMLID_198_" class="st50">
					<g id="XMLID_201_">
						<path id="XMLID_202_" class="st57" d="M135.4,132.7l0.2,0l0.3,1.6c0,0.1,0,0.1-0.1,0.2c-0.1,0-0.1,0-0.1-0.1L135.4,132.7z"/>
					</g>
					<g id="XMLID_199_">
						<path id="XMLID_200_" class="st57" d="M136,132.5l0.2,0l0.2,0.8c0,0,0,0.1-0.1,0.1c0,0-0.1,0-0.1-0.1L136,132.5z"/>
					</g>
				</g>
			</g>
		</g>
		<g id="XMLID_193_">
			<path id="XMLID_24_" class="st58" d="M79.9,141.9c-1.1,8.7,2.4,17.4,6,15c5.6-3.8,14-16.2,14.8-16.2c0.5,0,0.9,0.3,2.3,0.3
				c0.7,0,1.8-0.2,2.4-0.4c0.1,0,0.3-0.1,0.3-0.2c0-0.1-0.1-0.2-0.1-0.2c-0.3-0.2-0.6-0.2-1-0.3c-0.3,0-0.7,0-0.7-0.3
				c0-0.2,0-0.3,0.2-0.4c0.1-0.1,0.3-0.1,0.5-0.2c0.9-0.2,2-0.4,2.9-0.7c-0.5-0.2-1.3-0.3-1.9-0.5c-0.4-0.1-0.8-0.2-1.3-0.2
				c-0.6,0-2,0-2.6,0.1c-1.2,0.2-1.7,0.5-2.8,1.1c-0.7,0.3-1.3,0.8-1.9,1.3c-1.5,1.2-7.3,8-8.6,8.9"/>
		</g>
		<g id="XMLID_189_">
			<path id="XMLID_192_" class="st58" d="M113.9,171c0,0-1.9,4.4-2.7,9.3c-0.6,4.2,1.7,11,1.5,15.9c-0.1,1-0.2,3.3-0.6,3.9
				c-0.5,0.8-1.5,1.8-1.6,2.9c-0.1,0.7,0.3,1.3,1.1,1.7c0.8,0.4,1.3-0.1,1.6,0c1.6,0.1,1.9,1.3,4.8,1.7c0.9,0.1,2.2-0.2,2.9-0.8
				c0.3-0.2,0.3-0.6,0.1-0.8c-0.2-0.2-2.3-0.9-3.2-1.4c-0.9-0.5-1.9-1.9-2-2.5c-0.2-0.6,0.2-3.3,0.4-4.5c1.2-7.9,2.7-19.1,3.5-23.7"
				/>
			<path id="XMLID_191_" class="st3" d="M121.2,205.8c0.2-0.3,0.2-0.9,0.1-1c-0.3-0.2-1.2-0.7-1.8-1c-0.5-0.2-1.4-0.4-1.1-0.3
				c0.3,0.1-0.2,0.8-0.8,0.7c-1.8,0-3.1-1.1-4.1-1.3c-1.5-0.3-1.8-1.9-1.9-2.1c-0.3,0.2-1.2,1.5-1.3,1.9c-0.1,0.4-0.3,1.1-0.2,1.5
				c0.1,0.3,0.3,0.8,0.2,1.4c0,0,0.3,0.2,1,0.3c0.5,0.1,1.1,0,1.1,0l0.1-0.9c0,0,0.4,0,0.9,0.1c0.5,0.1,1.1,0.4,1.4,0.7
				c0.2,0.2,0.4,0.5,0.7,0.7c0.8,0.3,1.4,0.4,2.3,0.5C119.8,206.9,120.9,206.3,121.2,205.8z"/>
			<path id="XMLID_190_" class="st58" d="M89.9,160.5l-12.8,7.3c0,0,0.8,4.8,6.6,6c3.4,0.7,8.6-0.2,10-0.2
				c1.4,0.1,23.4,0.9,23.4,0.9s2.2,0.5,2.6-1.2c0.6-2.7,0-3.6-1.8-4.8C114.8,166.5,103.1,162.6,89.9,160.5z"/>
		</g>
		<g id="XMLID_185_">
			<path id="XMLID_188_" class="st59" d="M113.7,172.7c0,0-0.7,4.7,0,9.7c0.6,4.2,4.9,11.3,6,16.1c0.2,0.9,0.7,3.2,0.5,4
				c-0.2,0.9-0.9,2.1-0.7,3.2c0.1,0.6,0.7,1.2,1.5,1.3c0.9,0.1,1.2-0.4,1.5-0.5c1.6-0.3,2.2,0.7,5,0.3c0.9-0.1,2-0.8,2.6-1.6
				c0.2-0.3,0.1-0.6-0.1-0.8c-0.2-0.2-2.4-0.2-3.5-0.5c-1-0.3-2.4-1.3-2.7-1.9c-0.3-0.5-0.7-3.3-0.8-4.4c-1-7.9-3-21.3-3.5-26"/>
			<path id="XMLID_187_" class="st3" d="M130.5,205.3c0.1-0.4,0-0.9-0.2-0.9c-0.3-0.1-1.4-0.4-2-0.4c-0.6-0.1-1.5,0-1.1,0.1
				c0.3,0.1,0,0.8-0.5,0.9c-1.7,0.4-3.3-0.2-4.3-0.2c-1.5,0.1-2.3-1.3-2.4-1.5c-0.2,0.2-0.7,1.7-0.7,2.2c0,0.4,0,1.1,0.2,1.5
				c0.2,0.2,0.5,0.7,0.6,1.3c0,0,0.3,0.1,1.1,0c0.5-0.1,1.1-0.3,1.1-0.3l-0.1-0.9c0,0,0.4-0.1,0.9-0.2c0.5-0.1,1.2,0.1,1.5,0.3
				c0.3,0.1,0.6,0.4,0.9,0.4c0.8,0.1,1.4,0,2.3-0.2C129.5,206.8,130.4,206,130.5,205.3z"/>
			<path id="XMLID_186_" class="st59" d="M90.1,161.4l-12.8,7.3c0,0,0.5,4.6,6.3,5.9c3.4,0.7,8.9-0.1,10.3,0
				c1.4,0.1,23.4,0.9,23.4,0.9s2.2,0.5,2.3-1.3c0.1-2.4,0.3-3.5-1.5-4.7C115.1,167.4,103.4,163.6,90.1,161.4z"/>
		</g>
		<path id="XMLID_184_" class="st3" d="M79.8,157.3c0,0-4,7.8-3,11.1c1,3.3,3,6.5,8.5,6.5c5.5,0,19.2,0,19.2,0s0.5-3.6,1.7-5.8
			s3.2-4,3.2-4s-13.9-4.3-14.9-5.2c-1-0.9-1.9-3-1.9-3"/>
		<g id="XMLID_181_">
			<path id="XMLID_21_" class="st36" d="M82.2,132.1c-1.6,2.8-2.6,6.7-2.9,11c0.1,0.1,3.8,0.8,5.5,0.8"/>
		</g>
		<g id="XMLID_178_">
			<path id="XMLID_22_" class="st36" d="M92.8,129.2c0.7,0.2,0.5,2,1.2,2.2c0.5,0.2,1.6-0.1,2.1,0.2c2.6,1.5,1.9,4.4,2.2,8
				c1.1,2.8,1.4,5.3,0.5,6.8c-1.1,1.9-2.2,2.5-3.6,4c-1,1.2-1.3,3.6-1.5,6.2c0,0.5,0.3,1.2,0.2,1.7c-0.2,0.8-1.5,1.1-2.9,1.1
				c-3.3,0.1-8.3-1.1-9.7-1.1c-1.4,0.1-2.7-0.6-2.5-1.4c0.1-0.6,0.7-0.8,0.9-1.9c0.5-2.4,0.9-8.5,1.3-10.5c1-5.3,1.7-9.2,3.9-14"/>
		</g>
		<g id="XMLID_175_">
			<path id="XMLID_20_" class="st56" d="M100.3,141.8c-0.8-1.4-1.9-2.7-3-3.9l-2.8,1.3c1.3,2.5,1.6,5.5,2.2,8.3
				c0.6,0.1,1.6-0.2,1.6-0.2c0.3-0.4,0.2-0.2,0.5-0.9C99.4,145.4,100.1,143.7,100.3,141.8z"/>
		</g>
		<path id="XMLID_174_" class="st59" d="M102.2,122.1c0.3-1.2,0.5-2.5,0.5-3.6c-0.1-2.1-0.3-5.1-3.8-6.3c-3.5-1.2-7.3-0.5-8.4,2
			c-1.1,2.5-0.9,6.3-1,8.3c-0.2,2-1.6,4.4-1.6,4.4l7.5,3.2c0,0,1.2-2.7,1.7-3c0.5-0.3,0.7,0.9,2.3,0.8c0.7-0.1,1.5-1.3,2-2.9
			c0,0,0-0.1,0.1-0.2c0.4,0,0.8,0,0.9-0.1c0.5-0.2,0.5-0.4,0.4-0.7C102.3,123.4,102.2,122.7,102.2,122.1z"/>
		<g id="XMLID_171_">
			<path id="XMLID_18_" class="st59" d="M114.3,163.1c0.1,0.6,1.5,2,2.4,2.1c0.3,0,0.6,0,0.9-0.2c0.4,0.1,1.7,0,1.1-0.6
				c0.9,0.5,1.8,0.4,2.8,0.1c0.3-0.1,0.3-0.5-0.5-0.6c-1.1-0.1-1.9-0.7-2.7-1.6c0.1-0.1,0.3,0.1,0.7,0.1c0.5,0,0.7-0.3,0.7-0.5
				c0-0.2-0.6-0.2-0.7-0.3c-0.5-0.2-1-0.5-1.6-0.7c-0.6-0.3-0.9-0.4-1.6-0.3c-0.1,0-1.1,0.2-0.8,0.6"/>
		</g>
		<path id="XMLID_170_" class="st59" d="M96.9,143.3c0,0,3.9,10.6,4.6,11.4c2.7,3.4,13.2,8.7,13.2,8.7s1.6-0.6,1.3-2.3
			c-3.2-1.4-9.2-8-10.5-8.8c-0.8-0.5-4.6-13.4-4.6-13.4"/>
		<path id="XMLID_169_" class="st36" d="M98.5,131.5c-2.8-1.1-5.5-1.1-7.7-3.3c-2.2,1.7,2.7,11.5,3.9,11.8c1.2,0.3,2.8,5.7,3.1,6.4
			c3.9-0.1,5.4-2.2,5.4-2.2C101.5,139.3,101.2,132.6,98.5,131.5z"/>
		<g id="XMLID_166_">
			<path id="XMLID_16_" class="st3" d="M96.2,131.8c-0.2-0.7-0.8-1.3-0.9-2.1c-0.1-0.7,0-1.6,0.4-2.2c0.2-0.4,0.6-0.6,1-0.9
				c1.6-1.2,2.1-2.2,1.6-4.1c-0.2-0.6-0.3-1.2-0.3-1.8c0.1-0.6,0.2-1.2,0.8-1.2c0.4,0,0.7,0.1,0.8,0.4c0.1,0.2-0.1,2,0.5,1
				c0.6-1,1.1-1,1-3.3c0-0.3-0.1-1.3,0.1-1.5c1,0.8,1.3,2.1,1.5,3c0.8-0.3,1-1.5,1-1.9c0-0.9-0.1-1.6-0.4-2.2c-1.4-2.9-2.8-3.4-4-4
				c-1.2-0.5-2.4-1-3.7-1c-1.3,0-2.9,0.4-3.2,1.4c-1.8-0.5-2.8,1.1-3.2,1.6c-0.6,0.8-1.1,1.7-1.4,2.6c-0.5,1.4-0.6,2.9-0.9,4.3
				c-0.3,1.2-0.8,2.4-1.7,3.2c-0.9,0.8-2.1,0.9-3,1.6c-1.2,0.9-1.9,2.4-1.8,3.9c0.1,1.5,0.8,3.1-0.1,4.5c-0.3,0.4-0.7,0.8-1,1.3
				c-0.7,1-0.6,2.5,0.1,3.5c0.6,1.1,1.9,2.3,3,2.6c1.2,0.3,2.1,0.5,3.3,0.5c2.1-0.1,4,0,6.2-1.9c1.3-1.1,0.5-1.7,1.7-2.9
				c0.7-0.7,1.7-1,2.2-1.9C96.3,133.6,96.4,132.7,96.2,131.8C96.2,131.8,96.2,131.8,96.2,131.8z"/>
		</g>
	</g>
	<g id="XMLID_161_">
		<polygon id="XMLID_164_" class="st60" points="162.4,46.2 143.3,66.1 143.5,59.2 		"/>
		<polygon id="XMLID_163_" class="st36" points="133.5,55.9 153.6,64.2 162.4,46.2 		"/>
		<polygon id="XMLID_162_" class="st61" points="162.4,46.2 140.7,58.9 143.3,66.1 145,60.6 		"/>
	</g>
	<g id="XMLID_141_">
		<line id="XMLID_160_" class="st62" x1="269.7" y1="78.9" x2="308.4" y2="117.5"/>
		<g id="XMLID_156_">
			<g id="XMLID_157_">
				<g id="XMLID_158_">
					<path id="XMLID_159_" class="st36" d="M310.1,95.6l-20,3.1L305.5,82c1.8,1.7,4.6,1.7,6.3,0c1.8-1.8,1.8-4.6,0-6.4
						c-1.8-1.8-4.6-1.8-6.4,0c-1.8,1.8-1.8,4.6,0,6.4l0,0l-16.2,15.9c0,0,2.4-13.8,3.2-20.7c5-2.3,18.8-9.9,22.7-12.8
						c0.8-0.6,1.3-0.9,1.3-0.9s-3-2.6,8,8.4c-0.3,0.4-0.6,0.8-1,1.2C318.3,79.7,310.1,95.6,310.1,95.6z"/>
				</g>
			</g>
		</g>
		<g id="XMLID_151_">
			<g id="XMLID_154_">
				<path id="XMLID_155_" class="st61" d="M331.8,71.7l-3.4,3.4c-0.6,0.6-1.6,0.6-2.3,0l-13.5-13.5c-0.6-0.6-0.6-1.6-0.1-2.2
					c0,0,0-0.1,0.1-0.1L316,56c0.6-0.6,1.6-0.6,2.3,0l13.5,13.5C332.4,70.1,332.4,71.1,331.8,71.7z"/>
			</g>
			<g id="XMLID_152_">
				<path id="XMLID_153_" class="st63" d="M331.8,71.7l-3.4,3.4c-0.6,0.6-1.6,0.6-2.3,0l-13.5-13.5c-0.6-0.6-0.6-1.6-0.1-2.2
					c10.5,11.8,14.1,7.6,15,5.8l4.2,4.2C332.4,70.1,332.4,71.1,331.8,71.7z"/>
			</g>
		</g>
		<path id="XMLID_150_" class="st62" d="M321.6,96.4c-9.5,9.5-23.9,10.4-32.1,2.1c-8.3-8.3-7.3-22.7,2.1-32.1"/>
		<g id="XMLID_148_">
			<circle id="XMLID_149_" class="st61" cx="269.7" cy="78.9" r="1.8"/>
		</g>
		<g id="XMLID_146_">
			<circle id="XMLID_147_" class="st61" cx="291.5" cy="66.5" r="1.8"/>
		</g>
		<g id="XMLID_144_">
			<circle id="XMLID_145_" class="st61" cx="321.3" cy="96.4" r="1.8"/>
		</g>
		<g id="XMLID_142_">
			<circle id="XMLID_143_" class="st61" cx="308.4" cy="117.5" r="1.8"/>
		</g>
	</g>
	<g id="XMLID_127_">
		<g id="XMLID_137_">
			<line id="XMLID_138_" class="st64" x1="228.8" y1="17.8" x2="228.8" y2="58.5"/>
		</g>
		<g id="XMLID_128_">
			<g id="XMLID_133_">
				<line id="XMLID_134_" class="st64" x1="279.3" y1="29.5" x2="257.9" y2="64.1"/>
			</g>
			<g id="XMLID_129_">
				<line id="XMLID_130_" class="st64" x1="178.2" y1="29.5" x2="199.6" y2="64.1"/>
			</g>
		</g>
	</g>
	<g id="XMLID_124_">
		
			<rect id="XMLID_126_" x="41" y="190" transform="matrix(0.9356 -0.353 0.353 0.9356 -65.6377 28.4465)" class="st62" width="8.3" height="8.3"/>
		<circle id="XMLID_125_" class="st62" cx="48.1" cy="188.7" r="4.7"/>
	</g>
	<g id="XMLID_111_">
		<g id="XMLID_120_">
			<path id="XMLID_121_" class="st61" d="M343.1,116.6l0.2-1.7l-2.4-1l-1.1,1.4l-1.5-0.6l5-5.6l1.7,0.7l-0.4,7.5L343.1,116.6z
				 M343.4,113.6c0.1-1.6,0.2-2.5,0.3-2.7c0-0.2,0-0.4,0.1-0.5c-0.3,0.3-0.9,1.2-2,2.5L343.4,113.6z"/>
		</g>
		<g id="XMLID_116_">
			<line id="XMLID_119_" class="st65" x1="349.6" y1="112" x2="347.2" y2="118"/>
			<line id="XMLID_118_" class="st65" x1="345.7" y1="117.4" x2="348.6" y2="118.6"/>
			<line id="XMLID_117_" class="st65" x1="348.2" y1="111.4" x2="351.1" y2="112.6"/>
		</g>
		<g id="XMLID_112_">
			<line id="XMLID_115_" class="st65" x1="347.9" y1="108.5" x2="341.9" y2="106.1"/>
			<line id="XMLID_114_" class="st65" x1="342.5" y1="104.6" x2="341.3" y2="107.5"/>
			<line id="XMLID_113_" class="st65" x1="348.5" y1="107.1" x2="347.3" y2="110"/>
		</g>
	</g>
	<g id="XMLID_93_">
		<path id="XMLID_110_" class="st0" d="M93.6,275.2c2.2,2.6,1.9,6.4-0.6,8.7l-12.7,11c-2.6,2.2-6.4,1.9-8.7-0.6l-11-12.7
			c-2.2-2.6-1.9-6.4,0.6-8.7l12.7-11c2.6-2.2,6.4-1.9,8.7,0.6L93.6,275.2z"/>
		<g id="XMLID_94_">
			<path id="XMLID_107_" class="st1" d="M70.1,274.3c0.5-0.4,1-0.8,1.5-1.3c0.2-0.2,0.4-0.2,0.7-0.1c0.8,0.5,1.6,1,2.3,1.5
				c0.8,0.5,1.6,1,2.4,1.5c0.6,0.4,1.1,0.7,1.7,1.1c0.6,0.3,1.1,0.7,1.7,1c0.6,0.4,1.2,0.7,1.7,1.1c0.5,0.3,1.1,0.7,1.6,1
				c0.7,0.4,1.5,0.9,2.2,1.4c0.1,0,0,0.3,0,0.4c-0.4,0.4-0.8,0.7-1.3,1.1c-0.4,0.3-0.8,0.7-1.2,1c-0.2,0.2-0.3,0.2-0.6,0
				c-0.8-0.6-1.7-1.1-2.6-1.6c-0.1-0.1-0.2-0.1-0.2-0.2c-0.3-0.2-0.5-0.3-0.8,0c-0.9,0.8-1.9,1.7-2.9,2.5c-0.2,0.2-0.2,0.3-0.1,0.5
				c0.5,0.9,0.9,1.9,1.3,2.8c0.3,0.8,0.3,0.8-0.3,1.3c-0.6,0.5-1.2,1-1.8,1.6c-0.2,0.2-0.4,0.2-0.5-0.1c-0.3-0.6-0.5-1.2-0.8-1.8
				c-0.3-0.6-0.6-1.3-0.9-1.9c-0.3-0.6-0.5-1.2-0.8-1.8c-0.4-0.9-0.8-1.8-1.2-2.7c-0.4-0.9-0.8-1.7-1.1-2.6
				c-0.4-0.9-0.8-1.8-1.2-2.7c-0.1-0.3-0.3-0.7-0.4-1c-0.1-0.3-0.1-0.6,0.2-0.8C69.2,275.2,69.6,274.7,70.1,274.3
				C70.1,274.3,70.1,274.3,70.1,274.3z M71.9,276.6c0,0.1,0,0.1,0,0.2c0.3,0.6,0.6,1.2,0.9,1.8c0.4,0.8,0.8,1.5,1.1,2.3
				c0.2,0.4,0.4,0.8,0.7,1.3c0.1,0.2,0.3,0.2,0.5,0.1c0.7-0.6,1.4-1.2,2.1-1.8c0.2-0.2,0.2-0.3-0.1-0.4c-0.4-0.2-0.7-0.4-1-0.6
				c-1.1-0.7-2.2-1.5-3.3-2.2C72.4,276.9,72.2,276.8,71.9,276.6z"/>
			<path id="XMLID_106_" class="st1" d="M86.2,273.9c1.2,1.3,2.3,2.7,3.5,4c0.2,0.3,0.3,0.4,0,0.7c-0.7,0.6-1.4,1.2-2,1.8
				c-0.3,0.2-0.5,0.2-0.7-0.1c-2.3-2.7-4.6-5.3-6.9-8c-0.4-0.5-0.4-0.5,0.1-0.9c0.6-0.5,1.3-1.1,1.9-1.6c0.3-0.3,0.5-0.3,0.8,0
				C83.8,271.2,85,272.6,86.2,273.9C86.2,273.9,86.2,273.9,86.2,273.9z"/>
			<path id="XMLID_105_" class="st1" d="M77.6,266.9c0.8-0.8,2-0.7,2.7,0.1c0.7,0.9,0.6,1.8-0.3,2.6c-0.9,0.9-2,0.6-2.7-0.1
				C76.7,268.8,76.7,267.6,77.6,266.9z"/>
		</g>
	</g>
	<g id="XMLID_75_">
		<path id="XMLID_92_" class="st61" d="M120.1,110.9c0.4-0.1,0.8-0.1,1.2-0.2c-0.1-0.4-0.1-0.8-0.2-1.2c0.4-0.1,0.8-0.1,1.2-0.2
			c0.3,1.7,0.6,3.4,0.9,5.2c0.8-1.1,1.5-2.2,2.3-3.2c-0.7,0.1-1.5,0.3-2.3,0.4c-0.1-0.4-0.1-0.8-0.2-1.2c0,0,0.1,0,0.1,0
			c1.1-0.2,2.2-0.4,3.3-0.6c0.1,0,0.1,0,0.1-0.1c0.3-0.4,0.6-0.9,0.9-1.3c0,0,0-0.1,0-0.1c0.2,0.1,0.4,0.3,0.6,0.4
			c0,0-0.1,0-0.1,0.1c-0.3,0.4-0.6,0.9-0.9,1.3c0,0,0,0.1,0,0.2c0.2,1.1,0.4,2.2,0.6,3.3c0,0,0,0.1,0,0.1c-0.4,0.1-0.8,0.1-1.2,0.2
			c-0.1-0.8-0.3-1.5-0.4-2.3c-0.8,1.1-1.5,2.1-2.3,3.2c0,0,0,0,0,0c1.7-0.3,3.4-0.6,5.1-0.9c0.1,0.4,0.1,0.8,0.2,1.2
			c-0.4,0.1-0.8,0.1-1.2,0.2c0.1,0.4,0.1,0.8,0.2,1.2c-0.4,0.1-0.8,0.1-1.2,0.2c-0.1-0.4-0.1-0.8-0.2-1.2c-1.5,0.3-3,0.5-4.5,0.8
			c-0.3-1.5-0.5-3-0.8-4.5c-0.4,0.1-0.8,0.1-1.2,0.2C120.3,111.7,120.2,111.3,120.1,110.9z"/>
	</g>
	<g id="XMLID_3_">
		<path id="XMLID_4_" class="st61" d="M401.4,201.6c0.2-0.5,0.4-1,0.6-1.5c-0.5-0.2-1-0.4-1.5-0.6c0.2-0.5,0.4-1,0.6-1.5
			c2.1,0.9,4.2,1.8,6.3,2.7c-0.7-1.6-1.3-3.2-1.9-4.8c-0.4,0.9-0.8,1.8-1.2,2.7c-0.5-0.2-1-0.4-1.5-0.6c0,0,0-0.1,0.1-0.1
			c0.6-1.4,1.2-2.7,1.8-4.1c0-0.1,0-0.2,0-0.2c-0.3-0.7-0.5-1.3-0.8-2c0,0,0-0.1-0.1-0.1c0.3-0.1,0.6-0.2,0.9-0.4c0,0,0,0.1,0,0.1
			c0.3,0.7,0.5,1.3,0.8,2c0,0.1,0.1,0.1,0.1,0.1c1.4,0.6,2.7,1.2,4.1,1.8c0,0,0.1,0,0.1,0.1c-0.2,0.5-0.4,1-0.6,1.5
			c-0.9-0.4-1.9-0.8-2.8-1.2c0.6,1.6,1.2,3.2,1.9,4.8c0,0,0,0,0,0c0.9-2.1,1.8-4.2,2.7-6.3c0.5,0.2,1,0.4,1.5,0.6
			c-0.2,0.5-0.4,1-0.6,1.4c0.5,0.2,1,0.4,1.5,0.6c-0.2,0.5-0.4,1-0.6,1.5c-0.5-0.2-1-0.4-1.5-0.6c-0.8,1.8-1.6,3.6-2.4,5.4
			c-1.8-0.8-3.6-1.6-5.4-2.4c-0.2,0.5-0.4,1-0.6,1.5C402.4,202.1,401.9,201.9,401.4,201.6z"/>
	</g>
</g>
</svg>
