<?xml version="1.0" encoding="utf-8"?>
<!-- Generator: Adobe Illustrator 19.0.0, SVG Export Plug-In . SVG Version: 6.00 Build 0)  -->
<svg version="1.1" id="Layer_1" xmlns="http://www.w3.org/2000/svg" xmlns:xlink="http://www.w3.org/1999/xlink" x="0px" y="0px"
	 viewBox="0 0 386 377" style="enable-background:new 0 0 386 377;" xml:space="preserve">
<style type="text/css">
	.st0{fill:#FFFFFF;}
	.st1{opacity:0.17;fill:#6A64FF;}
	.st2{fill:#4D70FF;}
	.st3{opacity:0.34;fill:#6A64FF;}
	.st4{fill:#293ED6;}
	.st5{opacity:0.43;}
	.st6{fill:#6D26D7;}
	.st7{fill:#5202B5;}
	.st8{fill:#723E24;}
	.st9{opacity:0.37;}
	.st10{fill:#E8F6F7;}
	.st11{fill:#D0E0E2;}
	.st12{fill:#0A1828;}
	.st13{fill:#132333;}
	.st14{fill:#FFADAD;}
	.st15{fill:#221C7D;}
	.st16{fill:#2D24A3;}
	.st17{fill:#A67070;}
	.st18{opacity:0.38;fill:#916262;}
	.st19{fill:#5B2F2F;}
	.st20{fill:#F29E9E;}
	.st21{fill:#E5BB98;}
	.st22{fill:#E6E7E8;}
	.st23{opacity:0.2;}
	.st24{fill:#FFE7DB;}
	.st25{fill:url(#XMLID_346_);}
	.st26{fill:#9A9FB3;}
	.st27{fill:url(#XMLID_348_);}
	.st28{opacity:0.2;fill:#212226;}
	.st29{fill:#77AFFD;}
	.st30{fill:none;stroke:#77AFFD;stroke-width:0.5;stroke-linecap:round;stroke-linejoin:round;}
	.st31{fill:none;stroke:#77AFFD;stroke-width:0.5;stroke-linecap:round;stroke-linejoin:round;stroke-dasharray:1.593,0.997;}
	
		.st32{fill:none;stroke:#77AFFD;stroke-width:0.5;stroke-linecap:round;stroke-linejoin:round;stroke-miterlimit:10;stroke-dasharray:1.5978,1;}
	.st33{opacity:0.55;fill:#6D26D7;}
	.st34{opacity:0.31;fill:#6D26D7;}
	.st35{opacity:0.12;fill:#6D26D7;}
	.st36{opacity:0.55;}
	.st37{fill:#124AFC;}
	.st38{opacity:0.2;fill:none;stroke:#212226;stroke-width:0.5;stroke-miterlimit:10;}
</style>
<g id="XMLID_332_">
	<g id="XMLID_61_">
		<path id="XMLID_70_" class="st0" d="M212.2,355.9c-0.6,0-1.1,0-1.7,0c-1.3,0-2.6,1.1-2.5,2.5c0.1,1.4,1.1,2.5,2.5,2.5
			c0.6,0,1.1,0,1.7,0c1.3,0,2.6-1.1,2.5-2.5C214.6,357,213.6,355.9,212.2,355.9L212.2,355.9z"/>
	</g>
</g>
<g id="XMLID_22_">
	<path id="XMLID_331_" class="st1" d="M55.6,302.6c46.4,54.4,104.9,67.8,174.5,56c69.7-11.8,148.6-45.8,143.3-133.1
		c-5.3-87.2-91.6-96.1-142.8-162.4c-30.9-40-109.3-46.3-161.8,4.7C30.3,105.2-22.9,210.4,55.6,302.6z"/>
	<path id="XMLID_330_" class="st2" d="M209.7,20.5c58.2,19.6,53.9,84.4,88.1,136.3c34.3,51.9,34,100.8,9.4,135.5
		c-24.6,34.6-93.5,56.3-164.1,22.6c-35.8-17.1-85.6-45-90.8-124.8C46.6,101.2,141.7-2.4,209.7,20.5z"/>
	<path id="XMLID_329_" class="st3" d="M52.3,257.4c35.6,49.1,84.2,64.2,143.9,58.8c59.7-5.4,128.6-29,129.9-103.1
		c1.3-74.1-71.1-87.3-110-146.7c-23.5-35.9-89.4-46.3-137.1-6.7C43.9,88.8-8,174.3,52.3,257.4z"/>
	<ellipse id="XMLID_328_" class="st4" cx="182.3" cy="281.9" rx="97.6" ry="14.5"/>
	<g id="XMLID_188_" class="st5">
		<g id="XMLID_309_">
			<g id="XMLID_357_">
				<circle id="XMLID_366_" class="st6" cx="240" cy="70.4" r="1"/>
				<circle id="XMLID_365_" class="st6" cx="244.4" cy="70.4" r="1"/>
				<circle id="XMLID_364_" class="st6" cx="248.8" cy="70.4" r="1"/>
				<circle id="XMLID_363_" class="st6" cx="253.2" cy="70.4" r="1"/>
				<circle id="XMLID_362_" class="st6" cx="257.6" cy="70.4" r="1"/>
				<circle id="XMLID_361_" class="st6" cx="262" cy="70.4" r="1"/>
				<circle id="XMLID_360_" class="st6" cx="266.3" cy="70.4" r="1"/>
				<circle id="XMLID_359_" class="st6" cx="270.7" cy="70.4" r="1"/>
			</g>
		</g>
		<g id="XMLID_300_">
			<circle id="XMLID_308_" class="st7" cx="184.1" cy="92.3" r="1"/>
			<circle id="XMLID_307_" class="st7" cx="188.5" cy="92.3" r="1"/>
			<circle id="XMLID_306_" class="st7" cx="192.8" cy="92.3" r="1"/>
			<circle id="XMLID_305_" class="st7" cx="197.2" cy="92.3" r="1"/>
			<circle id="XMLID_304_" class="st7" cx="201.6" cy="92.3" r="1"/>
			<circle id="XMLID_303_" class="st7" cx="206" cy="92.3" r="1"/>
			<circle id="XMLID_302_" class="st7" cx="210.4" cy="92.3" r="1"/>
			<circle id="XMLID_301_" class="st7" cx="214.8" cy="92.3" r="1"/>
		</g>
		<g id="XMLID_291_">
			<circle id="XMLID_299_" class="st7" cx="194" cy="98.5" r="1"/>
			<circle id="XMLID_298_" class="st7" cx="198.4" cy="98.5" r="1"/>
			<circle id="XMLID_297_" class="st7" cx="202.8" cy="98.5" r="1"/>
			<circle id="XMLID_296_" class="st7" cx="207.2" cy="98.5" r="1"/>
			<circle id="XMLID_295_" class="st7" cx="211.5" cy="98.5" r="1"/>
			<circle id="XMLID_294_" class="st7" cx="215.9" cy="98.5" r="1"/>
			<circle id="XMLID_293_" class="st7" cx="220.3" cy="98.5" r="1"/>
			<circle id="XMLID_292_" class="st7" cx="224.7" cy="98.5" r="1"/>
		</g>
		<g id="XMLID_282_">
			<circle id="XMLID_290_" class="st7" cx="180.7" cy="222.5" r="1"/>
			<circle id="XMLID_289_" class="st7" cx="185.1" cy="222.5" r="1"/>
			<circle id="XMLID_288_" class="st7" cx="189.5" cy="222.5" r="1"/>
			<circle id="XMLID_287_" class="st7" cx="193.9" cy="222.5" r="1"/>
			<circle id="XMLID_286_" class="st7" cx="198.3" cy="222.5" r="1"/>
			<circle id="XMLID_285_" class="st7" cx="202.7" cy="222.5" r="1"/>
			<circle id="XMLID_284_" class="st7" cx="207.1" cy="222.5" r="1"/>
			<circle id="XMLID_283_" class="st7" cx="211.4" cy="222.5" r="1"/>
		</g>
		<g id="XMLID_273_">
			<circle id="XMLID_281_" class="st7" cx="196.2" cy="229.8" r="1"/>
			<circle id="XMLID_280_" class="st7" cx="200.6" cy="229.8" r="1"/>
			<circle id="XMLID_279_" class="st7" cx="205" cy="229.8" r="1"/>
			<circle id="XMLID_278_" class="st7" cx="209.4" cy="229.8" r="1"/>
			<circle id="XMLID_277_" class="st7" cx="213.8" cy="229.8" r="1"/>
			<circle id="XMLID_276_" class="st7" cx="218.1" cy="229.8" r="1"/>
			<circle id="XMLID_275_" class="st7" cx="222.5" cy="229.8" r="1"/>
			<circle id="XMLID_274_" class="st7" cx="226.9" cy="229.8" r="1"/>
		</g>
		<g id="XMLID_264_">
			<circle id="XMLID_272_" class="st7" cx="56.1" cy="133.5" r="1"/>
			<circle id="XMLID_271_" class="st7" cx="60.5" cy="133.5" r="1"/>
			<circle id="XMLID_270_" class="st7" cx="64.9" cy="133.5" r="1"/>
			<circle id="XMLID_269_" class="st7" cx="69.3" cy="133.5" r="1"/>
			<circle id="XMLID_268_" class="st7" cx="73.6" cy="133.5" r="1"/>
			<circle id="XMLID_267_" class="st7" cx="78" cy="133.5" r="1"/>
			<circle id="XMLID_266_" class="st7" cx="82.4" cy="133.5" r="1"/>
			<circle id="XMLID_265_" class="st7" cx="86.8" cy="133.5" r="1"/>
		</g>
		<g id="XMLID_255_">
			<circle id="XMLID_263_" class="st7" cx="83.5" cy="167.6" r="1"/>
			<circle id="XMLID_262_" class="st7" cx="87.9" cy="167.6" r="1"/>
			<circle id="XMLID_261_" class="st7" cx="92.3" cy="167.6" r="1"/>
			<circle id="XMLID_260_" class="st7" cx="96.7" cy="167.6" r="1"/>
			<circle id="XMLID_259_" class="st7" cx="101.1" cy="167.6" r="1"/>
			<circle id="XMLID_258_" class="st7" cx="105.4" cy="167.6" r="1"/>
			<circle id="XMLID_257_" class="st7" cx="109.8" cy="167.6" r="1"/>
			<circle id="XMLID_256_" class="st7" cx="114.2" cy="167.6" r="1"/>
		</g>
		<g id="XMLID_246_">
			<circle id="XMLID_254_" class="st7" cx="218.9" cy="171.3" r="1"/>
			<circle id="XMLID_253_" class="st7" cx="223.3" cy="171.3" r="1"/>
			<circle id="XMLID_252_" class="st7" cx="227.7" cy="171.3" r="1"/>
			<circle id="XMLID_251_" class="st7" cx="232.1" cy="171.3" r="1"/>
			<circle id="XMLID_250_" class="st7" cx="236.5" cy="171.3" r="1"/>
			<circle id="XMLID_249_" class="st7" cx="240.9" cy="171.3" r="1"/>
			<circle id="XMLID_248_" class="st7" cx="245.2" cy="171.3" r="1"/>
			<circle id="XMLID_247_" class="st7" cx="249.6" cy="171.3" r="1"/>
		</g>
		<g id="XMLID_237_">
			<circle id="XMLID_245_" class="st7" cx="240.7" cy="161.4" r="1"/>
			<circle id="XMLID_244_" class="st7" cx="245.1" cy="161.4" r="1"/>
			<circle id="XMLID_243_" class="st7" cx="249.5" cy="161.4" r="1"/>
			<circle id="XMLID_242_" class="st7" cx="253.9" cy="161.4" r="1"/>
			<circle id="XMLID_241_" class="st7" cx="258.3" cy="161.4" r="1"/>
			<circle id="XMLID_240_" class="st7" cx="262.7" cy="161.4" r="1"/>
			<circle id="XMLID_239_" class="st7" cx="267.1" cy="161.4" r="1"/>
			<circle id="XMLID_238_" class="st7" cx="271.4" cy="161.4" r="1"/>
		</g>
		<g id="XMLID_234_">
			<polygon id="XMLID_236_" class="st6" points="174.1,59.3 168.3,68.7 174.1,71.4 180,68.7 			"/>
			<polygon id="XMLID_235_" class="st6" points="174.1,79.8 180,70.4 174.1,74.2 168.3,70.4 			"/>
		</g>
		<g id="XMLID_231_">
			<polygon id="XMLID_233_" class="st6" points="235.2,239.7 229.4,249.1 235.2,251.8 241.1,249.1 			"/>
			<polygon id="XMLID_232_" class="st6" points="235.2,260.1 241.1,250.8 235.2,254.6 229.4,250.8 			"/>
		</g>
		<g id="XMLID_228_">
			<polygon id="XMLID_230_" class="st6" points="167.2,146.2 163.3,152.5 167.2,154.3 171,152.5 			"/>
			<polygon id="XMLID_229_" class="st6" points="167.2,159.8 171,153.6 167.2,156.1 163.3,153.6 			"/>
		</g>
		<path id="XMLID_225_" class="st6" d="M235.4,52.5c-0.7-0.7-1.8-0.9-2.7-0.5l-2.3-2.3H222c-0.3-0.6-0.9-1-1.6-1
			c-1,0-1.8,0.8-1.8,1.8c0,1,0.8,1.8,1.8,1.8c0.7,0,1.3-0.4,1.6-1h7.6l1.9,1.9c-0.4,0.9-0.3,2,0.5,2.7c0.9,0.9,2.5,0.9,3.4,0
			C236.4,54.9,236.4,53.4,235.4,52.5z M235,55.5c-0.7,0.7-1.9,0.7-2.6,0c-0.5-0.5-0.7-1.3-0.4-1.9c0.1-0.3,0.2-0.5,0.4-0.7
			c0.2-0.2,0.4-0.4,0.7-0.4c0.6-0.2,1.4-0.1,1.9,0.4C235.7,53.6,235.7,54.8,235,55.5z"/>
		<path id="XMLID_222_" class="st6" d="M229.8,57.7c-0.7-0.7-1.8-0.9-2.7-0.5l-2.3-2.3h-8.3c-0.3-0.6-0.9-1-1.6-1
			c-1,0-1.8,0.8-1.8,1.8c0,1,0.8,1.8,1.8,1.8c0.7,0,1.3-0.4,1.6-1h7.6l1.9,1.9c-0.4,0.9-0.3,2,0.5,2.7c0.9,0.9,2.5,0.9,3.4,0
			C230.7,60.2,230.7,58.7,229.8,57.7z M229.4,60.7c-0.7,0.7-1.9,0.7-2.6,0c-0.5-0.5-0.7-1.3-0.4-1.9c0.1-0.3,0.2-0.5,0.4-0.7
			c0.2-0.2,0.4-0.4,0.7-0.4c0.6-0.2,1.4-0.1,1.9,0.4C230.1,58.8,230.1,60,229.4,60.7z"/>
		<path id="XMLID_219_" class="st6" d="M63,196.3c-0.7-0.7-1.8-0.9-2.7-0.5l-2.3-2.3h-8.3c-0.3-0.6-0.9-1-1.6-1
			c-1,0-1.8,0.8-1.8,1.8c0,1,0.8,1.8,1.8,1.8c0.7,0,1.3-0.4,1.6-1h7.6l1.9,1.9c-0.4,0.9-0.3,2,0.5,2.7c0.9,0.9,2.5,0.9,3.4,0
			C63.9,198.8,63.9,197.3,63,196.3z M62.6,199.3c-0.7,0.7-1.9,0.7-2.6,0c-0.5-0.5-0.7-1.3-0.4-1.9c0.1-0.3,0.2-0.5,0.4-0.7
			c0.2-0.2,0.4-0.4,0.7-0.4c0.6-0.2,1.4-0.1,1.9,0.4C63.3,197.5,63.3,198.6,62.6,199.3z"/>
		<path id="XMLID_216_" class="st6" d="M57.3,201.6c-0.7-0.7-1.8-0.9-2.7-0.5l-2.3-2.3H44c-0.3-0.6-0.9-1-1.6-1
			c-1,0-1.8,0.8-1.8,1.8c0,1,0.8,1.8,1.8,1.8c0.7,0,1.3-0.4,1.6-1h7.6l1.9,1.9c-0.4,0.9-0.3,2,0.5,2.7c0.9,0.9,2.5,0.9,3.4,0
			C58.3,204.1,58.3,202.5,57.3,201.6z M56.9,204.6c-0.7,0.7-1.9,0.7-2.6,0c-0.5-0.5-0.7-1.3-0.4-1.9c0.1-0.3,0.2-0.5,0.4-0.7
			c0.2-0.2,0.4-0.4,0.7-0.4c0.6-0.2,1.4-0.1,1.9,0.4C57.7,202.7,57.7,203.9,56.9,204.6z"/>
		<g id="XMLID_213_">
			<polygon id="XMLID_215_" class="st6" points="189.7,42.2 187.1,37.7 184.5,42.2 185.9,42.2 185.9,46.4 188.4,46.4 188.4,42.2 			
				"/>
			<polygon id="XMLID_214_" class="st6" points="194.2,47.4 191.6,42.9 189,47.4 190.4,47.4 190.4,51.6 192.8,51.6 192.8,47.4 			
				"/>
		</g>
		<g id="XMLID_210_">
			<polygon id="XMLID_212_" class="st6" points="123.3,89.9 126.6,95.6 129.9,89.9 128.1,89.9 128.1,84.6 125.1,84.6 125.1,89.9 			
				"/>
			<polygon id="XMLID_211_" class="st6" points="117.7,83.4 121,89.1 124.2,83.4 122.5,83.4 122.5,78 119.4,78 119.4,83.4 			"/>
		</g>
		<g id="XMLID_207_">
			<polygon id="XMLID_209_" class="st6" points="261,181.3 264.3,187 267.6,181.3 265.8,181.3 265.8,176 262.8,176 262.8,181.3 			
				"/>
			<polygon id="XMLID_208_" class="st6" points="255.4,174.8 258.7,180.5 261.9,174.8 260.2,174.8 260.2,169.4 257.1,169.4 
				257.1,174.8 			"/>
		</g>
		<g id="XMLID_204_">
			<polygon id="XMLID_206_" class="st6" points="81.7,149 86.6,146.1 81.7,143.3 81.7,144.8 77.1,144.8 77.1,147.4 81.7,147.4 			
				"/>
			<polygon id="XMLID_205_" class="st6" points="76.1,153.8 80.9,151 76.1,148.2 76.1,149.7 71.5,149.7 71.5,152.3 76.1,152.3 			
				"/>
		</g>
		<path id="XMLID_203_" class="st6" d="M294,134.6c-0.2-1.5-1.6-2.5-3.1-2.3c-1.2,0.1-2.2,1.1-2.5,2.2l-1.1,0.1
			c-1.1,0.1-2.1-0.2-2.9-1l-0.8-0.8c0.5-1.1,0.3-2.4-0.6-3.3c-1.1-1-2.8-1.1-3.9-0.1c-1.2,1.1-1.2,3-0.1,4.1
			c0.9,0.9,2.2,1.1,3.2,0.5l0.5,0.5c0.8,0.8,1.2,2,0.9,3.2l-0.2,0.8c-1.2,0.1-2.2,1-2.4,2.3c-0.3,1.5,0.6,2.9,2.1,3.3
			c1.6,0.4,3.2-0.6,3.5-2.2c0.3-1.2-0.3-2.4-1.3-3c0.3-1.5,1.5-2.6,3-2.7l0.2,0c0.5,1.1,1.7,1.7,2.9,1.6
			C293.1,137.7,294.3,136.2,294,134.6z"/>
		<path id="XMLID_202_" class="st6" d="M198.5,253.1c-0.2-1.5-1.6-2.5-3.1-2.3c-1.2,0.1-2.2,1.1-2.5,2.2l-1.1,0.1
			c-1.1,0.1-2.1-0.2-2.9-1l-0.8-0.8c0.5-1.1,0.3-2.4-0.6-3.3c-1.1-1-2.8-1.1-3.9-0.1c-1.2,1.1-1.2,3-0.1,4.1
			c0.9,0.9,2.2,1.1,3.2,0.5l0.5,0.5c0.8,0.8,1.2,2,0.9,3.2l-0.2,0.8c-1.2,0.1-2.2,1-2.4,2.3c-0.3,1.5,0.6,2.9,2.1,3.3
			c1.6,0.4,3.2-0.6,3.5-2.2c0.3-1.2-0.3-2.4-1.3-3c0.3-1.5,1.5-2.6,3-2.7l0.2,0c0.5,1.1,1.7,1.7,2.9,1.6
			C197.6,256.2,198.8,254.7,198.5,253.1z"/>
		<path id="XMLID_201_" class="st6" d="M149.3,59.9c-0.2-1.5-1.6-2.5-3.1-2.3c-1.2,0.1-2.2,1.1-2.5,2.2l-1.1,0.1
			c-1.1,0.1-2.1-0.2-2.9-1l-0.8-0.8c0.5-1.1,0.3-2.4-0.6-3.3c-1.1-1-2.8-1.1-3.9-0.1c-1.2,1.1-1.2,3-0.1,4.1
			c0.9,0.9,2.2,1.1,3.2,0.5l0.5,0.5c0.8,0.8,1.2,2,0.9,3.2L139,64c-1.2,0.1-2.2,1-2.4,2.3c-0.3,1.5,0.6,2.9,2.1,3.3
			c1.6,0.4,3.2-0.6,3.5-2.2c0.3-1.2-0.3-2.4-1.3-3c0.3-1.5,1.5-2.6,3-2.7l0.2,0c0.5,1.1,1.7,1.7,2.9,1.6
			C148.5,63,149.6,61.5,149.3,59.9z"/>
		<g id="XMLID_198_">
			<polygon id="XMLID_200_" class="st6" points="237.9,215.1 235.3,210.6 232.7,215.1 234.1,215.1 234.1,219.3 236.5,219.3 
				236.5,215.1 			"/>
			<polygon id="XMLID_199_" class="st6" points="242.3,220.3 239.7,215.8 237.1,220.3 238.5,220.3 238.5,224.5 241,224.5 241,220.3 
							"/>
		</g>
		<g id="XMLID_189_">
			<circle id="XMLID_197_" class="st7" cx="251" cy="261" r="1"/>
			<circle id="XMLID_196_" class="st7" cx="255.4" cy="261" r="1"/>
			<circle id="XMLID_195_" class="st7" cx="259.8" cy="261" r="1"/>
			<circle id="XMLID_194_" class="st7" cx="264.2" cy="261" r="1"/>
			<circle id="XMLID_193_" class="st7" cx="268.5" cy="261" r="1"/>
			<circle id="XMLID_192_" class="st7" cx="272.9" cy="261" r="1"/>
			<circle id="XMLID_191_" class="st7" cx="277.3" cy="261" r="1"/>
			<circle id="XMLID_190_" class="st7" cx="281.7" cy="261" r="1"/>
		</g>
	</g>
	<g id="XMLID_150_">
		<g id="XMLID_160_">
			<g id="XMLID_179_">
				<g id="XMLID_184_">
					<g id="XMLID_185_">
						<g id="XMLID_186_">
							<path id="XMLID_187_" class="st8" d="M102.1,272.6l22.4-53.6l-3.6-1.4L100.5,272c-0.2,0.6,0,1.1,0.4,1.3
								C101.4,273.5,101.9,273.2,102.1,272.6z"/>
						</g>
					</g>
				</g>
				<g id="XMLID_180_">
					<g id="XMLID_181_">
						<g id="XMLID_182_">
							<path id="XMLID_183_" class="st9" d="M120.3,219.2l2.3,0.9l-21.1,53.1c0.2-0.1,0.5-0.3,0.6-0.6l22.4-53.6l-3.6-1.4
								L120.3,219.2z"/>
						</g>
					</g>
				</g>
			</g>
			<g id="XMLID_170_">
				<g id="XMLID_175_">
					<g id="XMLID_176_">
						<g id="XMLID_177_">
							<path id="XMLID_178_" class="st8" d="M137.6,272.3l1.1-58.1h-3.9l1.1,58.1c0,0.6,0.4,1.1,0.8,1.1
								C137.2,273.3,137.6,272.9,137.6,272.3z"/>
						</g>
					</g>
				</g>
				<g id="XMLID_171_">
					<g id="XMLID_172_">
						<g id="XMLID_173_">
							<path id="XMLID_174_" class="st9" d="M134.9,215.7h2.9l-1.1,57.6c0,0,0.1,0,0.1,0c0.5,0,0.8-0.5,0.8-1.1l1.1-58.1h-3.9
								L134.9,215.7z"/>
						</g>
					</g>
				</g>
			</g>
			<g id="XMLID_161_">
				<g id="XMLID_166_">
					<g id="XMLID_167_">
						<g id="XMLID_168_">
							<path id="XMLID_169_" class="st8" d="M171.5,272.6L149,219l3.6-1.4L173,272c0.2,0.6,0,1.1-0.4,1.3
								C172.2,273.5,171.7,273.2,171.5,272.6z"/>
						</g>
					</g>
				</g>
				<g id="XMLID_162_" class="st9">
					<g id="XMLID_163_">
						<g id="XMLID_164_">
							<path id="XMLID_165_" d="M173,272l-20.4-54.4L149,219l0.4,1l2.2-0.9l20.3,54.1c0.2,0.1,0.5,0.2,0.7,0.1
								C173.1,273.1,173.2,272.5,173,272z"/>
						</g>
					</g>
				</g>
			</g>
		</g>
		<g id="XMLID_155_">
			<g id="XMLID_156_">
				<g id="XMLID_157_">
					<g id="XMLID_158_">
						<path id="XMLID_159_" class="st10" d="M162.4,218.9c-3.9,3.2-9.7,6.1-24.5,6.4c-19.4,0.4-29.6-1.8-35.1-11.8
							c-9.2-16.7,2.3-70.7,20.5-58.8c15.2,10,18.2,41.9,20.2,46.3C145.6,205.5,171.9,211.2,162.4,218.9z"/>
					</g>
				</g>
			</g>
		</g>
		<g id="XMLID_151_">
			<g id="XMLID_152_">
				<g id="XMLID_153_">
					<path id="XMLID_154_" class="st11" d="M141.3,221.2c-19.4,0.4-29.6-1.8-35.1-11.8c-6.3-11.4-2.9-40.2,5.6-53.5
						c-11,10.2-16.1,44.8-9,57.6c5.5,10,15.7,12.2,35.1,11.8c14.8-0.3,20.6-3.2,24.5-6.4c1.3-1.1,2-2.1,2.1-3.1
						C160.5,218.6,154.5,220.9,141.3,221.2z"/>
				</g>
			</g>
		</g>
	</g>
	<g id="XMLID_129_">
		<path id="XMLID_149_" class="st12" d="M165.7,258.7c0.3,1.4-2.4,5.2,1.2,8.3c3.6,3.1,11.8,6.5,6.3,6.6c-5.4,0.1-10.6-1.1-13.4-2.5
			c-2.7-1.4-0.6-3.5-4-4.6c-4.5-1.4-4.4-1.7-2.3-6.6C156.7,253.2,164.9,254.1,165.7,258.7z"/>
		<path id="XMLID_148_" class="st13" d="M170.9,263.5c0.6,1.2,3.6,4,7.8,5.9c4.2,1.9,13,2.7,8.1,4.4c-4.9,1.6-10.6,0.6-13.5,0.2
			c-2.9-0.5-5.7-0.5-9.1-0.5c-4.5,0-4.5-0.3-3.9-5.4C161.1,261,168.9,259.6,170.9,263.5z"/>
		<path id="XMLID_147_" class="st14" d="M160.4,260.7l1.7,4.3c0,0,4.3,1,6.4,0c2.1-1.1,1.2-2,1.2-2l-1.8-6.3L160.4,260.7z"/>
		<path id="XMLID_146_" class="st15" d="M140.8,203.4c0,0,18.5,4,25.2,5.7c6.7,1.6,11.9,4.5,8.8,15.7c-3.1,11.2-8.4,31.6-8.4,31.6
			h-11.9l6.3-36.7l-34.9-4.1l-6.4-14.3L140.8,203.4z"/>
		<path id="XMLID_145_" class="st16" d="M113.5,203.4c0.8,5.8-0.9,12.4,8.1,15c8.9,2.6,22.9,2.8,22.9,2.8l14,42c0,0,3.9,0.6,8.7-0.9
			c2-0.6,2.7-3.1,2.7-3.1l-12.7-42.9c-1-3.4-3.7-5.9-7.1-6.8l-21.5-6.5L113.5,203.4z"/>
		<g id="XMLID_130_">
			<path id="XMLID_144_" class="st17" d="M116.8,184c0.9,2.2,1.1,4.7,0.5,7c-1,4.7,0.1,5,0.1,5s6.3,4,11.6,5.7c3.8,1.2,7,1,6.9-3.2
				l0-0.1c0-0.3,0-0.5,0-0.7c-0.2-9.4,1.8-9.8,2.3-20.3c0.5-10.8-2.4-16.8-5.2-19.4c-2.9-2.6-6.7-2.7-14.1-1
				c-5.5,1.3-7.3,2.8-7.3,6.8c0,1.4,0.2,3,0.6,5C113.1,174.1,115.3,180.2,116.8,184z"/>
			<path id="XMLID_143_" class="st18" d="M116.8,184c0.9,2.2,1.1,4.7,0.5,7c-1,4.7,0.1,5,0.1,5s6.3,4,11.6,5.7l4.9-0.5l2-1.5l0-1.2
				c0-0.3,0-0.5,0-0.7c-1.1,0.1-3.7,0.2-7.4-0.2c-2.9-0.3-5.5-1.2-7.3-1.8c-1.3-0.5-2-1.8-1.8-3.2c0.3-1.8,0.7-4.5,0.7-6.5
				c0-2.1-1-5.5-1.7-8.1c-0.6-1.9-0.8-3.9-0.7-6c0.2-3.5,0-6.8,0-6.8l-3.9-2.1l-2.2,0.8c0,1.4,0.2,3,0.6,5
				C113.1,174.1,115.3,180.2,116.8,184z"/>
			<g id="XMLID_137_">
				<path id="XMLID_142_" class="st19" d="M134.4,138.8c0,0,0.5,1.4-0.3,2.4l-3-4.1l2.1,0L134.4,138.8z"/>
				<path id="XMLID_141_" class="st14" d="M118.1,144.2c0.1,5.3,4.7,8.3,4.7,8.3l-0.3,4.8l3.1,2l2.1,1.4l1.2-2.5l0.2-3.1
					c0-0.7,0.6-1.3,1.3-1.5c0.8-0.2,1.9-0.6,3-1.8c0.1-0.1,0.1-0.1,0.2-0.2c0,0,0,0,0,0c2-2.7,2.7-13.1-4.1-16.1
					C122.3,132.4,117.9,139,118.1,144.2z"/>
				<path id="XMLID_140_" class="st20" d="M125.7,156.5l-0.2,2.9l2.1,1.4l1.2-2.5l0.2-3.1c0-0.7,0.6-1.3,1.3-1.5
					c0.8-0.2,1.9-0.6,3-1.8c0.1-0.1,0.1-0.1,0.2-0.2c-0.1,0.1-1.8,1-4.3,1.3C127.3,153.1,125.8,154.6,125.7,156.5z"/>
				<path id="XMLID_139_" class="st19" d="M125.4,145.9c-0.3,0.1-0.5-0.3-0.5-0.3s-1.5-3.3-2-3.8c-0.9-0.9-3.1-0.8-3.2,2
					c-0.1,2.2,2.5,6.9,3.3,8.3c0.1,0.2,0.1,0.5-0.1,0.7c-0.1,0.1-0.2,0.1-0.3,0.1h0c-0.1,0-0.2,0-0.3-0.1c-1.7-1.5-9.1-8.6-3.2-15.3
					c0,0,4.7,0.3,5.4,2.6c0.7,2.3,1.2,5.3,1.2,5.3S125.7,145.7,125.4,145.9z"/>
				<path id="XMLID_138_" class="st19" d="M134.4,138.8c0,0-4.1-3.2-10.3,0.7l-5.1-1.3c0,0-0.2-0.1-0.1-0.8c0.1-0.8,0.7-8.2,9.6-6.6
					C133.7,131.8,136.8,135.3,134.4,138.8z"/>
			</g>
			<path id="XMLID_136_" class="st19" d="M122.5,155.1c0,0-0.7,0.4-1.5,1.5c0,0,1,0.5,1.9,1c0.8,0.5,4.7,3.2,4.7,3.2l1.1-2.3
				C128.7,158.5,124.7,155.7,122.5,155.1z"/>
			<path id="XMLID_135_" class="st19" d="M128.7,158.5c0,0,1.4,0.5,1.8,1.5c0,0,0.7-1.3-0.2-3.7c0,0-0.7-0.7-1.3-1L128.7,158.5z"/>
			<path id="XMLID_134_" class="st21" d="M117.9,200.6c0,0,0.7,0.9,0.9,1c0.2,0.1,0.2-0.1,0.2-0.3C119,201.1,118,200.3,117.9,200.6z
				"/>
			<path id="XMLID_133_" class="st19" d="M122.5,152.8L122.5,152.8c-0.2,0-0.3,0-0.4-0.1c-1.7-1.5-9.1-8.6-3.2-15.3
				c0,0-0.3,1.2-0.2,2.1C118.8,139.5,115,145.6,122.5,152.8z"/>
			<path id="XMLID_132_" class="st14" d="M106,177.2c0,0-3.9,18.1-2.1,19.5c1.9,1.4,22.9,1.6,24.8,1.9c2,0.3,10,1.6,14.1-2
				c0.5-0.5-2.5-0.3-3.2-1.8c-0.7-1.6,0.4-1.4,0-2.1c-1.5-2.5-9.7,0.6-9.7,0.6s-13.6-2.3-17.5-1.2c2.4-2.9,2.9-13.5,2.9-13.5
				L106,177.2z"/>
			<path id="XMLID_131_" class="st19" d="M105,178.1c0,0,2.6-16.6,7.7-18.9c5-2.2,8.6,4.9,6.7,12.3c-1.8,7.4-2.3,10.1-2.3,10.1
				S109.5,182.4,105,178.1z"/>
		</g>
	</g>
	<g id="XMLID_119_">
		<g id="XMLID_122_">
			<g id="XMLID_126_">
				<polygon id="XMLID_128_" class="st22" points="102.4,281.4 98.9,281.4 101.7,199.3 108.9,199.3 				"/>
				<polygon id="XMLID_127_" class="st23" points="101.3,209.5 108.1,209.5 108.9,199.3 101.7,199.3 				"/>
			</g>
			<g id="XMLID_123_">
				<polygon id="XMLID_125_" class="st22" points="262.1,281.4 265.6,281.4 262.8,199.3 255.7,199.3 				"/>
				<polygon id="XMLID_124_" class="st23" points="263.2,209.5 256.4,209.5 255.7,199.3 262.8,199.3 				"/>
			</g>
		</g>
		<path id="XMLID_9_" class="st24" d="M269.8,202.9H94.7c-1.7,0-3.1-1.4-3.1-3.1v-0.6c0-1.7,1.4-3.1,3.1-3.1h175.1
			c1.7,0,3.1,1.4,3.1,3.1v0.6C272.9,201.6,271.5,202.9,269.8,202.9z"/>
		<linearGradient id="XMLID_346_" gradientUnits="userSpaceOnUse" x1="182.2519" y1="190.3115" x2="182.2519" y2="214.4882">
			<stop  offset="0" style="stop-color:#FFE7DB"/>
			<stop  offset="0.2392" style="stop-color:#FDE4D8"/>
			<stop  offset="0.409" style="stop-color:#F5DBD0"/>
			<stop  offset="0.5574" style="stop-color:#E8CBC2"/>
			<stop  offset="0.6934" style="stop-color:#D6B5AE"/>
			<stop  offset="0.821" style="stop-color:#BE9994"/>
			<stop  offset="0.9407" style="stop-color:#A27674"/>
			<stop  offset="1" style="stop-color:#916262"/>
		</linearGradient>
		<path id="XMLID_120_" class="st25" d="M91.8,200.7c0.4,1.3,1.5,2.2,2.9,2.2h175.1c1.4,0,2.6-1,2.9-2.2H91.8z"/>
	</g>
	<g id="XMLID_113_">
		<path id="XMLID_118_" class="st26" d="M117.3,196.2H169v-1.4h-50.6c-0.6,0-1.2,0.5-1.2,1.2V196.2z"/>
		<g id="XMLID_114_">
			
				<linearGradient id="XMLID_348_" gradientUnits="userSpaceOnUse" x1="1529.9717" y1="187.1187" x2="1529.9717" y2="206.2553" gradientTransform="matrix(-1 0 -0.1586 1.0086 1713.4796 -1.6776)">
				<stop  offset="0" style="stop-color:#FFFFFF"/>
				<stop  offset="1" style="stop-color:#FFADAD"/>
			</linearGradient>
			<path id="XMLID_117_" class="st27" d="M134.9,196.2h35l3.4-21.4c0.2-1.1-0.6-2-1.7-2h-31c-1.1,0-2.1,0.9-2.3,2L134.9,196.2z"/>
			<path id="XMLID_116_" class="st28" d="M140.6,172.8h1c-1.1,0-2.1,0.9-2.3,2l-3.4,21.4h-1l3.4-21.4
				C138.4,173.7,139.5,172.8,140.6,172.8z"/>
			<path id="XMLID_115_" class="st28" d="M150.4,184.5c-0.3,2.1,1.1,3.8,3.2,3.8c2.1,0,4.1-1.7,4.4-3.8c0.3-2.1-1.1-3.8-3.2-3.8
				C152.7,180.7,150.8,182.4,150.4,184.5z"/>
		</g>
	</g>
	<g id="XMLID_23_">
		<circle id="XMLID_112_" class="st29" cx="204.5" cy="114.2" r="3.5"/>
		<g id="XMLID_106_">
			<g id="XMLID_25_">
				<line id="XMLID_29_" class="st30" x1="115" y1="114.2" x2="115.8" y2="114.2"/>
				<line id="XMLID_28_" class="st31" x1="116.8" y1="114.2" x2="235.4" y2="114.2"/>
				<line id="XMLID_26_" class="st30" x1="235.9" y1="114.2" x2="236.7" y2="114.2"/>
			</g>
		</g>
		<line id="XMLID_105_" class="st32" x1="204.5" y1="115.3" x2="204.5" y2="162.8"/>
		<g id="XMLID_91_">
			<path id="XMLID_104_" class="st0" d="M267.9,127.7h-40.9c-0.7,0-1.3-0.6-1.3-1.3v-24c0-0.7,0.6-1.3,1.3-1.3h40.9
				c0.7,0,1.3,0.6,1.3,1.3v24C269.2,127.1,268.6,127.7,267.9,127.7z"/>
			<g id="XMLID_92_">
				<g id="XMLID_95_">
					<path id="XMLID_103_" class="st33" d="M231.8,115.6v8.5c0,0.5-0.4,0.8-0.8,0.8h-0.7c-0.5,0-0.8-0.4-0.8-0.8v-8.5
						c0-0.5,0.4-0.8,0.8-0.8h0.7C231.4,114.8,231.8,115.1,231.8,115.6z"/>
					<path id="XMLID_8_" class="st33" d="M236.6,115.6v8.5c0,0.5-0.4,0.8-0.8,0.8h-0.7c-0.5,0-0.8-0.4-0.8-0.8v-8.5
						c0-0.5,0.4-0.8,0.8-0.8h0.7C236.3,114.8,236.6,115.1,236.6,115.6z"/>
					<path id="XMLID_101_" class="st33" d="M241.5,111.6v12.5c0,0.5-0.4,0.8-0.8,0.8H240c-0.5,0-0.8-0.4-0.8-0.8v-12.5
						c0-0.5,0.4-0.8,0.8-0.8h0.7C241.1,110.8,241.5,111.1,241.5,111.6z"/>
					<path id="XMLID_100_" class="st33" d="M246.4,109.7v14.4c0,0.5-0.4,0.8-0.8,0.8h-0.7c-0.5,0-0.8-0.4-0.8-0.8v-14.4
						c0-0.5,0.4-0.8,0.8-0.8h0.7C246,108.9,246.4,109.3,246.4,109.7z"/>
					<path id="XMLID_6_" class="st33" d="M251.2,112.6v11.5c0,0.5-0.4,0.8-0.8,0.8h-0.7c-0.5,0-0.8-0.4-0.8-0.8v-11.5
						c0-0.5,0.4-0.8,0.8-0.8h0.7C250.8,111.8,251.2,112.2,251.2,112.6z"/>
					<path id="XMLID_98_" class="st33" d="M256.1,117.2v6.9c0,0.5-0.4,0.8-0.8,0.8h-0.7c-0.5,0-0.8-0.4-0.8-0.8v-6.9
						c0-0.5,0.4-0.8,0.8-0.8h0.7C255.7,116.3,256.1,116.7,256.1,117.2z"/>
					<path id="XMLID_5_" class="st33" d="M261.5,112.6v11.5c0,0.5-0.4,0.8-0.8,0.8H260c-0.5,0-0.8-0.4-0.8-0.8v-11.5
						c0-0.5,0.4-0.8,0.8-0.8h0.7C261.1,111.8,261.5,112.2,261.5,112.6z"/>
					<path id="XMLID_96_" class="st33" d="M266.3,117.2v6.9c0,0.5-0.4,0.8-0.8,0.8h-0.7c-0.5,0-0.8-0.4-0.8-0.8v-6.9
						c0-0.5,0.4-0.8,0.8-0.8h0.7C266,116.3,266.3,116.7,266.3,117.2z"/>
				</g>
				<path id="XMLID_4_" class="st34" d="M238.3,105.3h-8.5c-0.2,0-0.4-0.2-0.4-0.4v-0.4c0-0.2,0.2-0.4,0.4-0.4h8.5
					c0.2,0,0.4,0.2,0.4,0.4v0.4C238.7,105.1,238.5,105.3,238.3,105.3z"/>
				<path id="XMLID_93_" class="st34" d="M235.3,109.3h-5.5c-0.2,0-0.4-0.2-0.4-0.4v-0.4c0-0.2,0.2-0.4,0.4-0.4h5.5
					c0.2,0,0.4,0.2,0.4,0.4v0.4C235.6,109.1,235.5,109.3,235.3,109.3z"/>
			</g>
		</g>
		<g id="XMLID_43_">
			<path id="XMLID_3_" class="st0" d="M231.7,185.7h-54.1c-0.5,0-0.9-0.4-0.9-0.9v-40.5c0-2.4,2-2.9,4.4-2.9h47.2
				c2.4,0,4.4,0.5,4.4,2.9v40.5C232.7,185.3,232.2,185.7,231.7,185.7z"/>
			<path id="XMLID_89_" class="st35" d="M197.3,182.2h-14.5c-1.1,0-2.1-0.9-2.1-2.1V175c0-1.1,0.9-2.1,2.1-2.1h14.5
				c1.1,0,2.1,0.9,2.1,2.1v5.1C199.4,181.3,198.5,182.2,197.3,182.2z"/>
			<g id="XMLID_82_" class="st36">
				<path id="XMLID_88_" class="st34" d="M208.3,148.5h-26.7c-0.5,0-0.8-0.4-0.8-0.8v0c0-0.5,0.4-0.8,0.8-0.8h26.7
					c0.5,0,0.8,0.4,0.8,0.8l0,0C209.1,148.2,208.8,148.5,208.3,148.5z"/>
				<path id="XMLID_87_" class="st34" d="M208.3,152h-26.7c-0.5,0-0.8-0.4-0.8-0.8l0,0c0-0.5,0.4-0.8,0.8-0.8h26.7
					c0.5,0,0.8,0.4,0.8,0.8l0,0C209.1,151.6,208.8,152,208.3,152z"/>
				<path id="XMLID_86_" class="st34" d="M208.3,155.4h-26.7c-0.5,0-0.8-0.4-0.8-0.8l0,0c0-0.5,0.4-0.8,0.8-0.8h26.7
					c0.5,0,0.8,0.4,0.8,0.8v0C209.1,155,208.8,155.4,208.3,155.4z"/>
				<path id="XMLID_85_" class="st34" d="M208.3,158.8h-26.7c-0.5,0-0.8-0.4-0.8-0.8l0,0c0-0.5,0.4-0.8,0.8-0.8h26.7
					c0.5,0,0.8,0.4,0.8,0.8l0,0C209.1,158.4,208.8,158.8,208.3,158.8z"/>
				<path id="XMLID_84_" class="st34" d="M208.3,162.2h-26.7c-0.5,0-0.8-0.4-0.8-0.8l0,0c0-0.5,0.4-0.8,0.8-0.8h26.7
					c0.5,0,0.8,0.4,0.8,0.8l0,0C209.1,161.9,208.8,162.2,208.3,162.2z"/>
				<path id="XMLID_83_" class="st34" d="M204.1,165.1h-22.5c-0.5,0-0.8-0.4-0.8-0.8l0,0c0-0.5,0.4-0.8,0.8-0.8h22.5
					c0.5,0,0.8,0.4,0.8,0.8l0,0C205,164.8,204.6,165.1,204.1,165.1z"/>
			</g>
			<g id="XMLID_76_">
				<polygon id="XMLID_81_" class="st6" points="214.3,180.2 214.7,180.8 215.4,181 214.9,181.5 215,182.2 214.3,181.9 213.7,182.2 
					213.8,181.5 213.3,181 214,180.8 				"/>
				<polygon id="XMLID_80_" class="st6" points="217.6,180.2 218,180.8 218.7,181 218.2,181.5 218.3,182.2 217.6,181.9 217,182.2 
					217.1,181.5 216.5,181 217.3,180.8 				"/>
				<polygon id="XMLID_79_" class="st6" points="220.9,180.2 221.3,180.8 222,181 221.5,181.5 221.6,182.2 220.9,181.9 220.3,182.2 
					220.4,181.5 219.8,181 220.6,180.8 				"/>
				<polygon id="XMLID_78_" class="st6" points="224.2,180.2 224.5,180.8 225.3,181 224.7,181.5 224.9,182.2 224.2,181.9 
					223.5,182.2 223.7,181.5 223.1,181 223.9,180.8 				"/>
				<polygon id="XMLID_77_" class="st6" points="227.5,180.2 227.8,180.8 228.6,181 228,181.5 228.2,182.2 227.5,181.9 226.8,182.2 
					227,181.5 226.4,181 227.2,180.8 				"/>
			</g>
			<path id="XMLID_66_" class="st37" d="M229.4,139.9h-49.5c-1.8,0-3.2,1.4-3.2,3.2v1.5h55.9v-1.5
				C232.7,141.3,231.2,139.9,229.4,139.9z"/>
			<g id="XMLID_62_">
				<circle id="XMLID_65_" class="st0" cx="223.8" cy="142.2" r="0.5"/>
				<circle id="XMLID_64_" class="st0" cx="226.4" cy="142.2" r="0.5"/>
				<circle id="XMLID_63_" class="st0" cx="229" cy="142.2" r="0.5"/>
			</g>
			<path id="XMLID_2_" class="st34" d="M229.7,165.7h-16.9c-0.5,0-0.8-0.4-0.8-0.8v-17.1c0-0.5,0.4-0.8,0.8-0.8h16.9
				c0.5,0,0.8,0.4,0.8,0.8v17.1C230.5,165.3,230.1,165.7,229.7,165.7z"/>
			<g id="XMLID_44_">
				<g id="XMLID_56_">
					<path id="XMLID_58_" class="st0" d="M221,162.8c-3.6,0-6.5-2.9-6.5-6.5c0-3.6,2.9-6.5,6.5-6.5c3.6,0,6.5,2.9,6.5,6.5
						C227.5,159.9,224.6,162.8,221,162.8z M221,150.4c-3.2,0-5.9,2.6-5.9,5.9c0,3.2,2.6,5.9,5.9,5.9c3.2,0,5.9-2.6,5.9-5.9
						C226.8,153.1,224.2,150.4,221,150.4z"/>
				</g>
				<g id="XMLID_52_">
					<path id="XMLID_53_" class="st0" d="M221,162.8c-1.6,0-2.9-2.9-2.9-6.5c0-3.7,1.3-6.5,2.9-6.5c1.6,0,2.9,2.9,2.9,6.5
						C223.9,159.9,222.6,162.8,221,162.8z M221,150.4c-1.1,0-2.3,2.4-2.3,5.9c0,3.4,1.2,5.9,2.3,5.9c1.1,0,2.3-2.4,2.3-5.9
						C223.2,152.8,222.1,150.4,221,150.4z"/>
				</g>
				<g id="XMLID_50_">
					<rect id="XMLID_51_" x="214.8" y="155.9" class="st0" width="12.4" height="0.7"/>
				</g>
				<g id="XMLID_45_">
					<g id="XMLID_48_">
						<path id="XMLID_49_" class="st0" d="M221,153.9c-3.6,0-4.8-1.3-4.9-1.3l0.5-0.5l-0.2,0.2l0.2-0.2c0,0,1.2,1.1,4.4,1.1
							c3.3,0,4.4-1.1,4.4-1.1l0.5,0.5C225.8,152.6,224.6,153.9,221,153.9z"/>
					</g>
					<g id="XMLID_46_">
						<path id="XMLID_47_" class="st0" d="M216.6,160.5l-0.5-0.5c0.1-0.1,1.3-1.3,4.9-1.3c3.6,0,4.8,1.3,4.9,1.3l-0.5,0.5
							c0,0-1.2-1.1-4.4-1.1C217.7,159.4,216.6,160.5,216.6,160.5z"/>
					</g>
				</g>
			</g>
		</g>
		<g id="XMLID_36_">
			<circle id="XMLID_42_" class="st0" cx="159.2" cy="114.5" r="22.1"/>
			<circle id="XMLID_41_" class="st38" cx="159.2" cy="114.5" r="18.8"/>
			<path id="XMLID_37_" class="st6" d="M164.4,113.8c1.4-0.5,2.3-2,2.3-3.8c0-2.6-1.7-4.2-4.5-4.4v-2.3h-2.8v2.3h-1.3v-2.3h-2.8v2.3
				h-2.1v3.6h2v10.4h-2v3.6h2.1v2.6h2.8v-2.6h1.3v2.6h2.8v-2.6c3-0.1,5-2,5-4.9C167.2,115.9,166.1,114.2,164.4,113.8z M158.8,109.1
				h2.7c0.3,0,0.5,0,0.7,0.1c0.6,0.2,0.9,0.8,0.9,1.5c0,0.8-0.3,1.4-0.9,1.6c-0.2,0.1-0.4,0.1-0.7,0.1h-2.7V109.1z M162.2,119.4
				c-0.2,0.1-0.4,0.1-0.7,0.1l-2.7,0v-3.7h2.7c0.3,0,0.5,0,0.7,0.1c0.8,0.2,1.3,0.8,1.3,1.7C163.5,118.6,163,119.2,162.2,119.4z"/>
		</g>
		<g id="XMLID_24_">
			<g id="XMLID_33_">
				<circle id="XMLID_35_" class="st0" cx="100.7" cy="111.4" r="17.5"/>
				<polygon id="XMLID_34_" class="st0" points="103.9,125.8 111,133.5 110,122.3 				"/>
			</g>
			<path id="XMLID_27_" class="st34" d="M110.8,113.3c0.1-0.6,0.2-1.2,0.2-1.8c0-0.6-0.1-1.2-0.2-1.8h-2.5c-0.2-0.8-0.5-1.6-0.9-2.3
				l1.8-1.8c-0.7-1-1.6-1.9-2.6-2.6l-1.8,1.8c-0.7-0.4-1.4-0.7-2.3-0.9v-2.5c-0.6-0.1-1.2-0.2-1.8-0.2c-0.6,0-1.2,0.1-1.8,0.2v2.5
				c-0.8,0.2-1.6,0.5-2.3,0.9l-1.8-1.8c-1,0.7-1.9,1.6-2.6,2.6l1.8,1.8c-0.4,0.7-0.7,1.4-0.9,2.3h-2.5c-0.1,0.6-0.2,1.2-0.2,1.8
				c0,0.6,0.1,1.2,0.2,1.8H93c0.2,0.8,0.5,1.6,0.9,2.3l-1.8,1.8c0.7,1,1.6,1.9,2.6,2.6l1.8-1.8c0.7,0.4,1.4,0.7,2.3,0.9v2.5
				c0.6,0.1,1.2,0.2,1.8,0.2c0.6,0,1.2-0.1,1.8-0.2v-2.5c0.8-0.2,1.6-0.5,2.3-0.9l1.8,1.8c1-0.7,1.9-1.6,2.6-2.6l-1.8-1.8
				c0.4-0.7,0.7-1.4,0.9-2.3H110.8z M100.7,113.9c-1.3,0-2.4-1.1-2.4-2.4c0-1.3,1.1-2.4,2.4-2.4c1.3,0,2.4,1.1,2.4,2.4
				C103.1,112.8,102,113.9,100.7,113.9z"/>
		</g>
	</g>
</g>
</svg>
