<?xml version="1.0" encoding="utf-8"?>
<!-- Generator: Adobe Illustrator 19.0.0, SVG Export Plug-In . SVG Version: 6.00 Build 0)  -->
<svg version="1.1" id="Layer_1" xmlns="http://www.w3.org/2000/svg" xmlns:xlink="http://www.w3.org/1999/xlink" x="0px" y="0px"
	 viewBox="0 0 647 54" style="enable-background:new 0 0 647 54;" xml:space="preserve">
<style type="text/css">
	.st0{fill:#FFFFFF;}
	.st1{fill:#F24444;}
</style>
<g id="XMLID_2_">
	<line id="XMLID_75_" class="st0" x1="15" y1="30" x2="647" y2="30"/>
	<path id="XMLID_74_" class="st1" d="M15,29.5c0,0,2.5-0.7,7.1-1.7c4.6-1,11.4-2.4,20.1-3.8c2.2-0.4,4.4-0.7,6.8-1.1
		c2.4-0.4,4.9-0.7,7.5-1.1c5.2-0.8,10.8-1.5,16.9-2.2c12-1.5,25.6-2.8,40.4-3.9c14.8-1,30.9-1.9,47.8-2.3c17-0.2,34.9-1.2,53.4,1.4
		c9.3,1.2,18.7,3.2,28.2,5.4c9.5,2.1,19.2,4.4,28.9,6c9.7,1.6,19.5,2.6,29.4,2.8c9.8,0.2,19.7-0.4,29.6-2.1
		c19.8-3.2,39.5-11.1,58.9-15.3c9.7-2.1,19.4-3.3,28.9-3.5c9.5-0.3,18.9,0.6,28.2,2.6c9.3,2,18.4,5.2,27.3,8.4
		c4.5,1.6,8.9,3.1,13.2,4.5c4.4,1.4,8.7,2.5,12.9,3.4c8.5,1.8,16.7,2.6,24.7,2.5c8,0,15.7-0.5,23.1-1.3c3.7-0.4,7.3-0.9,10.9-1.4
		c3.5-0.6,7-1.1,10.4-1.7c6.8-1.1,13.2-2.2,19.2-3c12-1.6,22.5-2.2,31.2-2.1c8.6,0.3,15.4,2.2,20.1,4.1c4.6,1.9,7.1,3.8,7.1,3.8v3
		c0,0-2.5,1.9-7.1,3.8c-4.6,2-11.4,3.9-20.1,4.1c-8.6,0.1-19.1-0.5-31.2-2.1c-6-0.8-12.4-1.9-19.2-3c-3.4-0.5-6.8-1.1-10.4-1.7
		c-3.5-0.5-7.2-1-10.9-1.4c-7.4-0.8-15.1-1.3-23.1-1.3c-8-0.1-16.2,0.7-24.7,2.5c-4.2,0.9-8.5,2.1-12.9,3.4
		c-4.4,1.4-8.8,2.9-13.2,4.5c-8.9,3.2-18,6.4-27.3,8.4c-9.3,2.1-18.7,2.9-28.2,2.6c-9.5-0.2-19.2-1.4-28.9-3.5
		c-19.4-4.2-39.2-12.1-58.9-15.3c-9.9-1.7-19.8-2.3-29.6-2.1c-9.8,0.1-19.6,1.1-29.4,2.8c-9.7,1.6-19.4,3.9-28.9,6
		c-9.5,2.2-18.9,4.1-28.2,5.4c-18.5,2.7-36.4,1.7-53.4,1.4c-17-0.4-33-1.2-47.8-2.3c-14.8-1.1-28.4-2.4-40.4-3.9
		c-6-0.7-11.6-1.5-16.9-2.2c-2.6-0.4-5.1-0.8-7.5-1.1c-2.4-0.4-4.7-0.8-6.8-1.1c-8.6-1.5-15.4-2.8-20.1-3.8
		C17.5,30.2,15,29.5,15,29.5z"/>
</g>
</svg>
