<?xml version="1.0" encoding="utf-8"?>
<!-- Generator: Adobe Illustrator 19.0.0, SVG Export Plug-In . SVG Version: 6.00 Build 0)  -->
<svg version="1.1" id="Layer_1" xmlns="http://www.w3.org/2000/svg" xmlns:xlink="http://www.w3.org/1999/xlink" x="0px" y="0px"
	 viewBox="0 0 513 745" style="enable-background:new 0 0 513 745;" xml:space="preserve">
<style type="text/css">
	.st0{fill:#FFD200;}
	.st1{fill:#FEBC00;}
	.st2{fill:none;stroke:#FFFFFF;stroke-linecap:round;stroke-miterlimit:10;}
	.st3{fill:#FFFFFF;}
	.st4{fill:#F065A6;}
	.st5{fill:#D54990;}
	.st6{fill:#ED8383;}
	.st7{fill:#C1403A;}
	.st8{fill:#E14832;}
	.st9{fill:#333333;}
	.st10{fill:#FFAAA1;}
	.st11{fill:#EF3F3F;}
	.st12{fill:#181868;}
	.st13{fill:none;stroke:#000000;stroke-miterlimit:10;}
	.st14{fill:#B5BBC8;}
	.st15{fill:#424244;}
	.st16{fill:none;stroke:#FFFFFF;stroke-width:3;stroke-linecap:round;stroke-miterlimit:10;}
</style>
<g id="colourful">
	<g id="bulbs">
		<g id="XMLID_171_">
			<rect id="XMLID_176_" x="442.1" width="0.8" height="17.6"/>
			<g id="XMLID_172_">
				<path id="XMLID_175_" class="st0" d="M460,33.2c0,9.7-7.8,17.5-17.5,17.5c-6.5,0-12.1-3.5-15.1-8.7c-1.5-2.6-2.4-5.6-2.4-8.8
					c0-9.7,7.8-17.5,17.5-17.5c5.7,0,10.8,2.8,14,7C458.7,25.6,460,29.3,460,33.2z"/>
				<path id="XMLID_174_" class="st1" d="M460,33.2c0,9.7-7.8,17.5-17.5,17.5c-6.5,0-12.1-3.5-15.1-8.7c4.7-2,10.4-8.9,13.1-12.3
					c2.6-3.2,10.3-6.2,16-7C458.7,25.6,460,29.3,460,33.2z"/>
				<path id="XMLID_173_" class="st2" d="M436.2,18.5c-1.3,0.3-5,2.8-5.8,4.2"/>
			</g>
		</g>
		<g id="XMLID_163_">
			<rect id="XMLID_170_" x="388.6" width="0.8" height="17.6"/>
			<g id="XMLID_164_">
				<g id="XMLID_166_">
					<path id="XMLID_169_" class="st0" d="M407,33.2c0,9.7-7.8,17.5-17.5,17.5c-6.5,0-12.1-3.5-15.1-8.7c-1.5-2.6-2.4-5.6-2.4-8.8
						c0-9.7,7.8-17.5,17.5-17.5c5.7,0,10.8,2.8,14,7C405.7,25.6,407,29.3,407,33.2z"/>
					<path id="XMLID_168_" class="st1" d="M407,33.2c0,9.7-7.8,17.5-17.5,17.5c-6.5,0-12.1-3.5-15.1-8.7c8.8,1.7,11-8.5,13.1-12.3
						c3.2-5.7,10.3-6.2,16-7C405.7,25.6,407,29.3,407,33.2z"/>
					<path id="XMLID_167_" class="st2" d="M383.2,18.5c-1.3,0.3-5,2.8-5.8,4.2"/>
				</g>
				<ellipse id="XMLID_165_" class="st3" cx="385.1" cy="18" rx="0.5" ry="0.5"/>
			</g>
		</g>
		<g id="XMLID_155_">
			<rect id="XMLID_162_" x="495.1" width="0.8" height="17.3"/>
			<g id="XMLID_156_">
				<g id="XMLID_158_">
					<path id="XMLID_161_" class="st0" d="M513,33.2c0,9.7-7.8,17.5-17.5,17.5c-0.2,0-0.4,0-0.6,0c-5.4-0.2-10.2-2.8-13.3-6.8
						c-0.5-0.6-0.9-1.2-1.3-1.9c-1.5-2.6-2.4-5.6-2.4-8.8c0-9.7,7.8-17.5,17.5-17.5c5.7,0,10.8,2.8,14,7c0.9,1.2,1.7,2.6,2.2,4
						C512.6,28.7,513,30.9,513,33.2z"/>
					<path id="XMLID_160_" class="st1" d="M513,33.2c0,9.7-7.8,17.5-17.5,17.5c-0.2,0-0.4,0-0.6,0c-6.1-0.1-10.3-1.8-13.3-6.8
						c4.7-2,4.1-13.1,11.9-14.2c7.3-1,8-10,18.2-3c0,0,0,0,0,0C512.6,28.7,513,30.9,513,33.2z"/>
					<path id="XMLID_159_" class="st2" d="M489.2,18.5c-1.3,0.3-5,2.8-5.8,4.2"/>
				</g>
				
					<ellipse id="XMLID_157_" transform="matrix(0.9784 -0.2069 0.2069 0.9784 6.8929 102.0042)" class="st3" cx="491.2" cy="18" rx="1" ry="0.5"/>
			</g>
		</g>
	</g>
	<g id="saturn">
		<path id="XMLID_154_" class="st4" d="M341.4,98.1c0,2.5-0.2,4.9-0.7,7.3c-3.4,16.6-18.1,29.1-35.7,29.1
			c-13.7,0-25.6-7.5-31.8-18.7c-2.9-5.2-4.6-11.3-4.6-17.7c0-20.1,16.3-36.4,36.4-36.4C325.1,61.7,341.4,78,341.4,98.1z"/>
		<path id="XMLID_153_" class="st5" d="M340.7,105.3c-3.4,16.6-18.1,29.1-35.7,29.1c-13.7,0-25.6-7.5-31.8-18.7
			c3.8-12.2,9.6-19.7,23.9-22.3C313.8,90.5,329,111.7,340.7,105.3z"/>
		<circle id="XMLID_152_" class="st3" cx="282.8" cy="83.7" r="3.7"/>
		<circle id="XMLID_151_" class="st3" cx="288.4" cy="78" r="2"/>
		<circle id="XMLID_150_" class="st3" cx="280.9" cy="77.9" r="1.9"/>
		<g id="XMLID_149_">
			<path id="XMLID_204_" class="st1" d="M338.1,82.6c9.2-2.6,18.5-5.1,27.8-7.1c4.7-1,9.4-1.9,14.2-2.4c2.4-0.3,4.8-0.5,7.2-0.5
				c1.2,0,2.5,0.1,3.7,0.3c0.6,0.1,1.3,0.3,1.9,0.6c0.6,0.3,1.4,0.8,1.7,1.7v0c-0.1,0.1,0,0.1-0.1,0.1l0,0.1l0,0.2l0.1,0.3
				c0,0.2,0,0.4,0,0.6c0,0.2-0.1,0.4-0.1,0.6c-0.1,0.2-0.1,0.4-0.2,0.5c-0.2,0.3-0.3,0.6-0.5,0.9c-0.2,0.3-0.4,0.5-0.6,0.8
				c-0.8,1-1.7,1.8-2.7,2.6c-1.9,1.5-3.9,2.9-6,4.2c-4.1,2.6-8.3,4.9-12.6,7.1c-4.3,2.2-8.6,4.2-13,6.2c-4.4,2-8.8,3.9-13.2,5.7
				l-6.7,2.7c-2.3,0.9-4.5,1.7-6.8,2.5l-13.5,4.9l-3.4,1.2l-3.4,1.2c-2.3,0.8-4.6,1.5-6.8,2.2c-4.6,1.5-9.2,2.8-13.8,4.2
				c-4.6,1.3-9.3,2.5-13.9,3.7c-4.7,1.2-9.3,2.2-14,3.2c-4.7,1-9.4,1.9-14.2,2.6c-4.7,0.7-9.5,1.3-14.4,1.3c-1.2,0-2.4-0.1-3.7-0.3
				c-0.6-0.1-1.2-0.2-1.8-0.5c-0.6-0.3-1.2-0.6-1.7-1.2l-0.1-0.3l-0.1-0.1l0-0.1c0,0,0-0.1,0-0.1c0-0.2-0.1-0.3-0.1-0.5
				c0-0.2,0-0.4,0-0.6l0.1-0.5c0.3-0.6,0.6-1.2,1-1.6c0.8-1,1.7-1.8,2.7-2.5c3.8-3,8-5.3,12.3-7.5c4.2-2.2,8.5-4.3,12.9-6.3
				c4.3-2,8.7-3.9,13.1-5.8l0.3,0.6c-8.8,3.6-17.6,7.6-26,12.1c-4.2,2.3-8.3,4.7-12,7.6c-0.9,0.7-1.8,1.5-2.5,2.4
				c-0.4,0.4-0.7,0.9-0.9,1.4l-0.1,0.4c0,0.1,0,0.2,0,0.3c0,0.1,0.1,0.3,0.1,0.4c0,0,0-0.1,0,0l0,0l0,0.1l0.1,0.1
				c0.5,0.7,1.8,1,2.9,1.1c1.1,0.2,2.3,0.2,3.5,0.2c4.7-0.1,9.4-0.9,14.1-1.8c4.7-0.9,9.3-2,13.9-3.2c4.6-1.2,9.2-2.4,13.8-3.8
				c4.6-1.3,9.1-2.7,13.7-4.1c4.6-1.4,9.1-2.9,13.6-4.4l6.8-2.3l3.4-1.1l3.4-1.2l13.5-4.8c2.2-0.8,4.6-1.6,6.7-2.4l6.7-2.6
				c4.4-1.8,8.9-3.5,13.3-5.3c4.4-1.8,8.8-3.8,13-5.8c4.3-2,8.6-4.1,12.7-6.5c2-1.2,4.1-2.4,5.9-3.8c0.9-0.7,1.8-1.4,2.6-2.2
				c0.2-0.2,0.4-0.4,0.5-0.6c0.2-0.2,0.3-0.4,0.4-0.6c0.1-0.1,0.1-0.2,0.2-0.3c0-0.1,0.1-0.2,0.1-0.3c0-0.2,0.1-0.4-0.1-0.5l0,0
				c-0.1-0.3-0.4-0.5-0.8-0.7c-0.4-0.2-1-0.4-1.5-0.5c-1.1-0.2-2.3-0.3-3.4-0.3c-2.3,0-4.7,0.2-7.1,0.4c-4.7,0.5-9.4,1.3-14.1,2.3
				c-9.4,1.9-18.6,4.2-27.8,6.7L338.1,82.6z"/>
		</g>
	</g>
	<g id="XMLID_31_">
		<path id="XMLID_148_" class="st6" d="M468.4,725.4c-2,4-4.8,7.4-8.1,10.1c0.9-14-7.1-28.3-21.3-35.6c-14.2-7.3-30.6-5.4-41.3,3.6
			c0.3-4.3,1.4-8.5,3.5-12.5c8.7-17.1,30.9-23.2,49.5-13.7C469.2,686.8,477.1,708.3,468.4,725.4z"/>
		<polygon id="XMLID_147_" class="st7" points="440.7,709.6 427.9,703.1 428.2,697.6 445,706.1 		"/>
		<g id="XMLID_144_">
			<path id="XMLID_146_" class="st8" d="M488.8,634.7c-7.2-7.2-18.3-13.1-28.3-15.1c-12,6.8-22.8,17.9-30.2,32.4
				c-8.8,17.2-11,35.6-7.3,51c3.3-2.5,8.4-2.8,12.9-0.5c4.5,2.3,7.2,6.6,7.2,10.7c14.6-6,28.2-18.5,37.1-35.8
				C487.4,663.3,490.2,648.2,488.8,634.7z"/>
			<path id="XMLID_145_" class="st9" d="M488.8,634.7c-0.6-6.2-2.1-12.1-4.4-17.4c-1.3-3-4.5-4.6-7.7-3.9
				c-5.5,1.2-10.9,3.3-16.1,6.2C470.5,621.6,481.6,627.6,488.8,634.7z"/>
		</g>
		<circle id="XMLID_143_" class="st9" cx="455.2" cy="664.9" r="13.1"/>
		<g id="XMLID_142_">
			<circle id="XMLID_256_" class="st10" cx="455.2" cy="664.9" r="8.8"/>
			<g id="XMLID_241_">
				<g id="XMLID_245_">
					<g id="XMLID_251_">
						<path id="XMLID_255_" d="M459.7,671.9c0,0,0.2-0.1,0.5-0.3c0.3-0.2,0.6-0.5,1-0.8c0.3-0.3,0.6-0.7,0.8-1
							c0.2-0.3,0.3-0.5,0.3-0.5c0.2-0.3,0.5-0.4,0.8-0.3c0.3,0.1,0.4,0.5,0.2,0.8c0,0-0.1,0.2-0.4,0.5c-0.2,0.3-0.6,0.7-0.9,1.1
							c-0.4,0.4-0.8,0.7-1.1,1c-0.3,0.2-0.5,0.4-0.5,0.4c-0.3,0.2-0.7,0.1-0.9-0.1C459.3,672.4,459.4,672,459.7,671.9z"/>
						<path id="XMLID_254_" d="M452.9,672.9c0,0,0.9,0.2,1.8,0.3c0.9,0.1,1.8-0.1,1.8-0.1c0.3,0,0.6,0.1,0.7,0.4
							c0.1,0.3-0.2,0.6-0.5,0.7c0,0-1,0.2-2.1,0.1c-1.1,0-2.1-0.3-2.1-0.3c-0.4-0.1-0.6-0.5-0.5-0.7S452.6,672.8,452.9,672.9z"/>
						<path id="XMLID_253_" d="M447.7,668.5c0,0,0.4,0.9,1,1.6c0.6,0.7,1.3,1.3,1.3,1.3c0.3,0.2,0.3,0.6,0.2,0.8
							c-0.2,0.3-0.6,0.3-0.9,0.1c0,0-0.8-0.7-1.5-1.5c-0.7-0.8-1.1-1.8-1.1-1.8c-0.2-0.3,0-0.7,0.2-0.8
							C447.2,668.1,447.6,668.2,447.7,668.5z"/>
						<path id="XMLID_252_" d="M447.6,661.7c0,0-0.1,0.2-0.2,0.5c-0.1,0.3-0.2,0.8-0.3,1.2c-0.1,0.5-0.1,0.9-0.1,1.3
							c0,0.3,0,0.6,0,0.6c0,0.3-0.2,0.6-0.5,0.7c-0.3,0-0.6-0.2-0.6-0.6c0,0,0-0.3,0-0.7c0-0.4,0.1-0.9,0.1-1.4
							c0.1-0.5,0.2-1,0.4-1.4c0.1-0.4,0.2-0.6,0.2-0.6c0.2-0.3,0.5-0.5,0.8-0.4S447.7,661.4,447.6,661.7z"/>
					</g>
					<g id="XMLID_246_">
						<path id="XMLID_250_" d="M450.6,658c0,0-0.2,0.1-0.5,0.3c-0.3,0.2-0.6,0.5-1,0.8c-0.3,0.3-0.6,0.7-0.8,1
							c-0.2,0.3-0.3,0.5-0.3,0.5c-0.2,0.3-0.5,0.4-0.8,0.3s-0.4-0.5-0.2-0.8c0,0,0.1-0.2,0.4-0.5c0.2-0.3,0.6-0.7,0.9-1.1
							c0.4-0.4,0.8-0.7,1.1-1c0.3-0.2,0.5-0.4,0.5-0.4c0.3-0.2,0.7-0.1,0.9,0.1C451,657.5,450.9,657.8,450.6,658z"/>
						<path id="XMLID_249_" d="M457.4,657c0,0-0.9-0.2-1.8-0.3c-0.9-0.1-1.8,0.1-1.8,0.1c-0.3,0-0.6-0.1-0.7-0.4
							c-0.1-0.3,0.2-0.6,0.5-0.7c0,0,1-0.2,2.1-0.1c1.1,0,2.1,0.3,2.1,0.3c0.4,0.1,0.6,0.5,0.5,0.7S457.7,657.1,457.4,657z"/>
						<path id="XMLID_248_" d="M462.6,661.3c0,0-0.4-0.9-1-1.6c-0.6-0.7-1.3-1.3-1.3-1.3c-0.3-0.2-0.3-0.6-0.2-0.8
							c0.2-0.3,0.6-0.3,0.9-0.1c0,0,0.8,0.7,1.5,1.5c0.7,0.8,1.1,1.8,1.1,1.8c0.2,0.3,0,0.7-0.2,0.8
							C463.1,661.8,462.8,661.6,462.6,661.3z"/>
						<path id="XMLID_247_" d="M462.8,668.1c0,0,0.1-0.2,0.2-0.5c0.1-0.3,0.2-0.8,0.3-1.2c0.1-0.5,0.1-0.9,0.1-1.3
							c0-0.3,0-0.6,0-0.6c0-0.3,0.2-0.6,0.5-0.7c0.3,0,0.6,0.2,0.6,0.6c0,0,0,0.3,0,0.7c0,0.4-0.1,0.9-0.1,1.4
							c-0.1,0.5-0.2,1-0.4,1.4c-0.1,0.4-0.2,0.6-0.2,0.6c-0.2,0.3-0.5,0.5-0.8,0.4C462.8,668.8,462.6,668.4,462.8,668.1z"/>
					</g>
				</g>
			</g>
		</g>
		<path id="XMLID_34_" class="st11" d="M438.2,707.9c-4.1,8.1-9.5,14.4-14.2,17.3c0-5.5,2-12.9,5.8-20.4c4.1-8.1,9.5-14.4,14.2-17.3
			C444,693,442,700.4,438.2,707.9z"/>
		<path id="XMLID_32_" class="st6" d="M438.2,707.9c-4.1,8.1-9.5,14.4-14.2,17.3c0-5.5,2-12.9,5.8-20.4c4.1-8.1,9.5-14.4,14.2-17.3
			C444,693,442,700.4,438.2,707.9z"/>
	</g>
	<g id="message">
		<path id="XMLID_954_" class="st12" d="M208,344.8v26.3c0,2.3-1.3,3.9-3.6,3.9h-43.9l-13.9,5.3l2.9-5.3h-2c-2.3,0-4.4-1.6-4.4-3.9
			v-26.3c0-2.3,2.1-3.8,4.4-3.8h56.9C206.7,341,208,342.6,208,344.8z"/>
		<path id="XMLID_942_" class="st3" d="M201.6,348.4h-51.6c-0.7,0-1.3-0.6-1.3-1.3l0,0c0-0.7,0.6-1.3,1.3-1.3h51.6
			c0.7,0,1.3,0.6,1.3,1.3l0,0C202.9,347.8,202.3,348.4,201.6,348.4z"/>
		<path id="XMLID_944_" class="st3" d="M201.6,355.7h-51.6c-0.7,0-1.3-0.6-1.3-1.3l0,0c0-0.7,0.6-1.3,1.3-1.3h51.6
			c0.7,0,1.3,0.6,1.3,1.3l0,0C202.9,355.1,202.3,355.7,201.6,355.7z"/>
		<path id="XMLID_945_" class="st3" d="M201.6,362.9l-51.6-0.4c-0.7,0-1.3,0.4-1.3-0.4v-0.8c0-0.7,0.6-0.8,1.3-0.8l51.6-0.4
			c0.7,0,1.3,0,1.3,0.8v0.8C202.9,362.5,202.3,362.9,201.6,362.9z"/>
		<path id="XMLID_946_" class="st3" d="M201.6,370.2l-51.6-0.4c-0.7,0-1.3,0.4-1.3-0.4v-0.8c0-0.7,0.6-0.8,1.3-0.8l51.6-0.4
			c0.7,0,1.3,0,1.3,0.8v0.8C202.9,369.8,202.3,370.2,201.6,370.2z"/>
	</g>
	<g id="bulb">
		<path id="XMLID_880_" class="st13" d="M47.3,354.5"/>
		<path id="XMLID_964_" class="st14" d="M48.5,390.8c0.8,0.5,2.1,2.4,0.9,3.8c0,0,1.6,2.2,0.2,3c-0.2,0.1-0.7,0.2-0.7,0.4
			c0,0,0,0,0,0c0,0.4-0.1,0.9-0.2,1.4c-2.1,0.7-4.4,1.4-4.5,1.5c-0.2,0-1.5,0.7-2.9,1.5c-0.3-0.3-0.7-0.6-1.1-0.9
			c-0.1,0-0.2,0.1-0.3,0.1c0,0,0,0-0.1,0c-0.3,0.1-0.6,0.2-0.7,0.2c-1.3,0.2-2.7-1.1-2.6-2.4c-0.2,0-0.3,0-0.4,0
			c-1.6-0.2-1.8-2.1-1.6-3.3c-0.3,0-0.5,0.1-0.6,0c-1.1-0.4-1.2-1.8-0.8-3.2c0,0,0.1,0,0.1,0c0.7,0.1,14-5.2,14.2-5.5c0,0,0,0,0,0
			C48.5,387.8,49.4,389.1,48.5,390.8C48.6,390.8,48.5,390.8,48.5,390.8z"/>
		<path id="XMLID_958_" class="st1" d="M46.7,354.3c0.9,3.5,0.6,21.2,1.1,28.4c0,0.1,0,0.3,0,0.4c0,0-0.6,0.3-1.5,0.7
			c-0.1,0-0.1,0.1-0.2,0.1l-5.6,2.3l-0.3,0l-0.1-0.1l0-0.1l-8,3h0c-0.1,0-0.2,0.2-0.3,0.2c-0.6,0.2-1.2,0.3-1.5,0.3
			c-2.2-4-18.2-20.4-18.9-22.5c-3.7-7.9-2.3-21.1,10.4-25.6C36.6,336,45.1,348.4,46.7,354.3z"/>
		<path id="XMLID_870_" class="st15" d="M48.9,398c0,0.4-0.1,0.9-0.2,1.4c-0.1,0.6-0.2,1.1-0.4,1.3c0,0-3.7,2.8-6.2,2.4
			c0,0-0.3-0.3-0.8-0.8c-0.3-0.3-0.7-0.6-1.1-0.9c-0.1,0-0.2,0.1-0.3,0.1"/>
		<path id="XMLID_934_" class="st13" d="M47.8,383.2c0,0-0.6,0.3-1.5,0.7c-0.1,0-0.1,0.1-0.2,0.1c-1.2,0.5-3,1.3-4.9,2
			c-0.2,0.1-0.4,0.2-0.7,0.3c-0.1,0-0.2,0.1-0.2,0.1c0,0,0,0,0,0c-1.1,0.4-2.3,0.5-3.4,0.9c-1.8,0.7-3.4,2.2-4.8,1.2h0
			c-0.1,0-0.2,0.4-0.3,0.4c-0.6,0.2-1.1,0.4-1.5,0.4c-2.2-4-18.2-20.4-18.9-22.4c-3.7-7.9-2.3-21.1,10.4-25.6"/>
		<polygon id="XMLID_871_" class="st14" points="32.1,389.2 32,390.1 32.2,391.4 32.7,392.4 33.2,392.8 34.6,393.2 47.5,387.8 
			47.7,385.1 46.8,383.7 39.8,386.5 35.8,388.1 		"/>
		<g id="XMLID_914_">
			<path id="XMLID_207_" d="M21.7,341.4c0,0,0.9-0.3,2.4-0.9c0.8-0.2,1.8-0.4,3-0.6c0.6,0,1.2-0.1,1.9-0.1c0.7-0.1,1.4,0.1,2.1,0.1
				c1.4,0.1,3,0.5,4.5,1.2c0.8,0.3,1.5,0.8,2.2,1.2c0.7,0.5,1.5,1,2.1,1.6c1.4,1.2,2.6,2.6,3.7,4.1c1.1,1.5,2.1,3.2,2.8,4.9
				c0.8,1.8,0.9,3.8,1.1,5.6c0.1,1.9,0.2,3.7,0.3,5.5c0.1,3.6,0.1,6.9,0.1,9.7c0,2.8,0,5.2,0,6.9c0,1.7,0,2.6,0,2.6l-0.1,0
				c0,0-0.1-0.9-0.3-2.6c-0.2-1.7-0.3-4-0.4-6.9c-0.1-2.8-0.2-6.1-0.2-9.7c0-1.8,0-3.6-0.1-5.5c0-0.9-0.1-1.9-0.2-2.8
				c0-0.4-0.1-0.9-0.2-1.4c-0.1-0.4-0.2-0.9-0.4-1.3c-0.2-0.4-0.3-0.9-0.5-1.3l-0.6-1.3c-0.5-0.8-0.9-1.6-1.5-2.4
				c-1.1-1.5-2.4-2.8-3.8-3.9c-0.7-0.6-1.4-1-2.1-1.4c-0.4-0.2-0.7-0.4-1.1-0.5c-0.4-0.2-0.7-0.4-1.1-0.5c-1.5-0.6-2.9-1-4.3-1.2
				c-0.7-0.1-1.3-0.2-2-0.2c-0.6,0-1.2,0-1.8,0c-1.1,0.1-2.1,0.2-2.9,0.4C22.7,341.3,21.8,341.5,21.7,341.4L21.7,341.4z"/>
		</g>
		<path id="XMLID_960_" class="st13" d="M32.7,389.2c-0.4,0.2-0.7,0.3-0.7,0.3c-0.1,1.7,0.6,3.2,1.2,3.4c0,0,0.1,0,0.1,0
			c0.7,0.1,14-5.2,14.2-5.5c0,0,0,0.1,0,0c0.2-0.4,0.4-3.3-0.7-3.5l0,0"/>
		<path id="XMLID_959_" class="st13" d="M33.1,393.1c0,0,0.1-0.3,0.1-0.3c-0.5,1.4-0.3,2.8,0.8,3.2c0.1,0,0.3,0,0.6,0
			c2.7-0.5,12.8-4.7,13.9-5.2c0.1,0,0.1,0,0.1,0c0.8-1.7-0.1-2.9-1.1-3.5c0,0-0.1,0.2-0.1,0.2"/>
		<path id="XMLID_957_" class="st13" d="M34.6,396c-0.2,1.2,0,3.1,1.6,3.3c0.1,0,0.2,0,0.4,0c2.7-0.3,12.8-4.7,12.8-4.7
			c1.1-1.4-0.2-3.3-0.9-3.8"/>
		<path id="XMLID_926_" class="st13" d="M49.4,394.6c0,0,1.5,1.9,0.1,2.8c-0.2,0.1-0.4,0.1-0.8,0.1h0c-2,1-6.4,2.9-8.6,3.6
			c-0.1,0-0.2,0.2-0.3,0.2c0,0,0,0.1,0,0.1c-0.3,0.1-0.6,0.2-0.7,0.2c-1.3,0.2-2.7-1.1-2.6-2.4"/>
		<path id="XMLID_915_" class="st13" d="M40,401.4c0.4,0.4,0.9,0.7,1.2,0.9c0.5,0.5,0.8,0.8,0.8,0.8c2.5,0.4,6.2-2.4,6.2-2.4
			c0.2-0.2,0.1-0.7,0.2-1.3c0.1-0.5,0-1,0-1.4c0,0,0,0,0,0"/>
		<path id="XMLID_912_" class="st13" d="M36.9,387.6c0-0.1,0-0.1-0.1-0.2c-0.2-0.4-0.4-0.8-0.6-1.4c-1.4-3.4-4.1-9.8-6.3-14.8
			c-0.4,0.1-0.9,0.2-1.3,0.3c-3.7,0.6-5.1-5.9-2.7-6.8c0,0,0.6,0,0.7,0.2c0.7,0.8,1.9,3.3,3.2,6.3c1.6-0.4,3.5-1.1,5-1.9
			c-1.3-4.2-1.9-7.6-0.8-7.9c1.2-0.3,3.2,2,3.7,4.5c0.2,1.2-1.1,2.4-3,3.4c1.6,5.3,4.3,11.9,5.5,14.9c0.3,0.8,0.5,1.3,0.6,1.5
			c0,0.1,0,0.1,0.1,0.1"/>
		<path id="XMLID_885_" class="st16" d="M16.7,347.5c-4.7,7.5-4.4,13.5-3.4,17"/>
	</g>
</g>
</svg>
