<?xml version="1.0" encoding="utf-8"?>
<!-- Generator: Adobe Illustrator 19.0.0, SVG Export Plug-In . SVG Version: 6.00 Build 0)  -->
<svg version="1.1" id="Layer_1" xmlns="http://www.w3.org/2000/svg" xmlns:xlink="http://www.w3.org/1999/xlink" x="0px" y="0px"
	 viewBox="-275 114 409 317" style="enable-background:new -275 114 409 317;" xml:space="preserve">
<style type="text/css">
	.st0{fill:#0E0D16;}
	.st1{fill:#ECE2BA;}
	.st2{fill:#3220B7;}
	.st3{fill:#FFAAA1;}
	.st4{fill:#00A9A5;}
	.st5{fill:#170570;}
	.st6{fill:#333333;}
	.st7{fill:#4C4B4B;}
	.st8{fill:#FFFFFF;}
	.st9{fill:#FCFDFF;stroke:#231F20;stroke-width:0.2;stroke-miterlimit:10;}
	.st10{fill:#E14832;}
	.st11{fill:#282625;}
	.st12{fill:#C1403A;}
</style>
<g id="boy">
	<polygon id="XMLID_19_" class="st0" points="-119.1,374.7 -130.6,382 -106.6,382 -108.3,373 	"/>
	<polygon id="XMLID_25_" class="st0" points="-1.7,374.7 8.4,382 -12.6,382 -12.6,371 	"/>
	<path id="XMLID_731_" class="st0" d="M-36.7,377.5h-48.5c-1,0-1.8-0.8-1.8-1.8l0,0c0-1,0.8-1.8,1.8-1.8h48.5c1,0,1.8,0.8,1.8,1.8
		l0,0C-34.9,376.7-35.7,377.5-36.7,377.5z"/>
	<rect id="XMLID_31_" x="-62.4" y="320.1" class="st1" width="4.9" height="53.9"/>
	<path id="XMLID_22_" class="st0" d="M-95.7,317.2c2.8,5.5,61.8,4.6,69.5,1.6s-0.1-8.8-0.1-8.8h-69.3L-95.7,317.2z"/>
	<path id="XMLID_18_" class="st2" d="M-96.1,290c-12.3,4-19.5,2.1-26.4,12.3c-4,6-2.7,37.5,0,53.8s3.3,18.8,3.3,18.8h12.6
		c0,0,5.8-49.5,7.9-55.9c2.1-6.3,74.9-6.8,78.6,0.5s7.2,55.3,7.2,55.3H0.4c3.7-17.3,9.6-62.2,7.8-70.3
		c-2.4-10.9-31.4-14.7-31.4-14.7h-72.9V290z"/>
	<path id="XMLID_2_" class="st3" d="M-41.8,174.8l2.2,0.9c-14,15.7-36.9,5.9-41.1,0.4c1.2-0.1,1.3-0.1,2.3-0.1h0.1l0.8-1.5
		c0,0-0.1-0.1-0.2-0.3c-0.4-0.7-2-3.1-3-6.9c-10.6,0-7-11-0.6-7.4c-0.3-0.2-0.6-0.6-0.8-0.9c-0.4-0.4-0.1-1.5-0.5-2
		c-1.2-1.2-3.8-3.1-3.8-4.4l0.2-0.6c0-6,5.5-15.1,5.5-15.1h11.8l8.7,3.2l10.1,3.1c0,0,4.5,8.3,4.5,8.8c0,0.2,1.9,1.1,3.7,1.8
		c-0.6,1.9-1.4,3.4-2.2,4c0.4-0.1,0.8-0.2,1.2-0.2c6.9-0.9,4.5,11.5-2.9,6.2c0.3,2.8-0.5,5.3-1.3,7c-0.1,0.1-0.1,0.2-0.2,0.3
		l-0.1,0.1c-0.3,0.7-0.3,1.2,0.5,2.4"/>
	<path id="XMLID_1_" class="st4" d="M-79.7,176.1c-2.6-2.3-11.9,1.6-15.4,4.5c-3.6,2.9-38.7,37.8-36.9,61.8
		c1.1,14.9,12.5,24,28.1,26.9c12.3-3.9,3.9-14.3,3.9-14.3c-8.2-3.9-16.1-12.3,2.7-26.5s25.2-5.2,25.2-5.2s42.8-4.1,53.2,3.4
		c10.4,7.4,16.1,19.6-0.4,26.4c-7.4,9.4,1.9,15.2,1.9,15.2c10,2.3,32.5-7.6,34-19.7c-1.6-27-27.8-61.2-37.8-66.9
		c-6.7-6.2-18.5-6.2-18.5-6.2C-56.1,188.7-69.7,184.8-79.7,176.1z"/>
	<path id="XMLID_16_" class="st4" d="M-98,270.8c-0.3,9.8-2,13.9,1.8,19.2c2.5,3.5,69.2,5.1,72.7,2.3c5.4-4.3,3.4-21,1.3-24.2
		C-24.4,264.9-98,270.8-98,270.8z"/>
	<path id="XMLID_36_" class="st5" d="M-40.9,153.9c-0.6,1.9-1.4,3.4-2.2,4c0.4-0.1,0.8-0.2,1.2-0.3c-0.8,0.4-1.5,0.8-2.4,1.3
		c0,0-1.3-9.8-7.6-14.4c-7.4,0.1-20.1,0.1-23-5.2c-4.3,2.9-4.4,8.2-5.4,9.8c0,0,0.8,6.8,0.5,9.8l-1,0.4c-0.3,0.2-0.5,0.6-1.3-0.3
		c-1.2-1.2-3.7-3.2-4.4-4.8l-0.3-0.4c-5.4-9.6-0.2-19.7,5.3-25.5c0.5-0.6,1.4-1.1,2-1.6c1.1-0.9,2.9-1.6,5-2
		c0.6-0.2,1.4-0.3,2.2-0.4c1.5-0.3,3.1-0.4,4.7-0.6c10-0.8,22.1,0.9,22.8,3.2c0,0,2.1-0.5,1.7-4.2C-36.5,129.1-38,146-40.9,153.9z"
		/>
	<path id="XMLID_20_" class="st6" d="M-18.2,266.4h-81.9v-50.6c0-1.9,1.5-3.4,3.4-3.4h75.2c1.9,0,3.4,1.5,3.4,3.4L-18.2,266.4
		L-18.2,266.4z"/>
	<g id="XMLID_38_">
		<path id="XMLID_13_" class="st7" d="M-74.9,175.7c0,0,0.1,0.1,0.2,0.2c0.1,0.1,0.4,0.3,0.7,0.5c0.6,0.4,1.5,0.9,2.6,1.5
			s2.5,1.2,3.9,1.9c0.7,0.3,1.5,0.6,2.3,0.9c0.8,0.3,1.5,0.6,2.4,0.6c1.7,0.1,3.4-0.1,4.9-0.4c0.8-0.2,1.5-0.4,2.2-0.6
			c0.7-0.2,1.3-0.5,1.9-0.8c0.3-0.1,0.5-0.3,0.8-0.4c0.2-0.1,0.5-0.3,0.7-0.4c0.4-0.3,0.8-0.6,1.1-0.8c0.5-0.5,0.9-0.8,0.9-0.8
			s-0.3,0.3-0.8,0.8c-0.3,0.2-0.6,0.6-1,0.8c-0.2,0.1-0.4,0.3-0.7,0.5c-0.3,0.1-0.5,0.3-0.8,0.5c-1.1,0.6-2.5,1.2-4.1,1.5
			s-3.3,0.6-5,0.5c-0.4,0-0.9-0.1-1.3-0.2c-0.4-0.1-0.8-0.3-1.2-0.4c-0.8-0.3-1.5-0.6-2.3-1c-1.5-0.7-2.8-1.4-3.9-2s-2-1.3-2.6-1.7
			c-0.3-0.2-0.5-0.4-0.6-0.6C-74.9,175.8-74.9,175.7-74.9,175.7z"/>
	</g>
	<path class="st6" d="M-18.2,266.4h-81.5v-51c0-1.7,1.4-3,3-3h75.5c1.7,0,3,1.4,3,3C-18.2,215.4-18.2,266.4-18.2,266.4z"/>
	<circle id="XMLID_730_" class="st8" cx="-59.3" cy="239.4" r="9.7"/>
	<g id="XMLID_726_">
		<path id="XMLID_729_" class="st9" d="M-63.3,237.6l-2.5,1.9c-0.2,0.2-0.2,0.5,0,0.7l8.9,6.1c0.3,0.2,0.7,0,0.7-0.4l0.1-10.1
			c0-0.1-0.1-0.3-0.2-0.3l-0.9-0.7c-0.3-0.2-0.7,0-0.7,0.3v8.6l-4.9-3.5c-0.2-0.2-0.2-0.5,0-0.6l0.7-0.6c0.2-0.2,0.2-0.4,0-0.6
			l-0.7-0.7C-62.8,237.5-63.1,237.5-63.3,237.6z"/>
		<path id="XMLID_728_" class="st9" d="M-58.6,234.1l-3.7,2.8c-0.2,0.1-0.2,0.3,0,0.5l0.9,1c0.1,0.1,0.3,0.1,0.4,0l0.8-0.7
			c0.2-0.2,0.5,0,0.5,0.2l-0.1,2c0,0.3-0.3,0.4-0.5,0.2l-0.4-0.4c-0.1-0.1-0.3-0.1-0.4,0l-0.2,0.2c-0.1,0.1-0.1,0.3,0.1,0.4l2.5,1.9
			c0.2,0.2,0.5,0,0.5-0.3v-6.1c0-0.3-0.3-0.4-0.5-0.2l-2.1,1.7c-0.1,0.1-0.3,0.1-0.4-0.1l0,0c-0.1-0.1-0.1-0.3,0.1-0.4l2.9-2.2
			c0.1-0.1,0.2-0.3,0.1-0.4v-0.1C-58.2,234.1-58.5,234-58.6,234.1z"/>
		<path id="XMLID_727_" class="st9" d="M-57.4,233.3l0.9-0.7c0.2-0.1,0.4,0,0.4,0.2v1.5c0,0.2-0.3,0.3-0.4,0.2l-0.9-0.7
			C-57.6,233.6-57.6,233.4-57.4,233.3z"/>
	</g>
</g>
<g id="table">
	<path id="XMLID_3_" class="st10" d="M118.4,272.8h-377.8c-1.8,0-3.2-1.4-3.2-3.2l0,0c0-1.8,1.4-3.2,3.2-3.2h377.8
		c1.8,0,3.2,1.4,3.2,3.2l0,0C121.6,271.4,120.1,272.8,118.4,272.8z"/>
	<polygon id="XMLID_23_" class="st11" points="-221.8,277.4 -244.2,424.8 -244.3,426 -244.6,426 -244.6,425.6 -229,276.8 	"/>
	<polygon id="XMLID_10_" class="st11" points="77.1,278.3 108.4,424.1 108.6,425.3 111.9,425.1 111.9,424.7 85.8,277.2 	"/>
	<path id="XMLID_9_" class="st12" d="M108.4,278.2h-357.8c-1.8,0-3.2-1.4-3.2-3.2l0,0c0-1.8,1.4-3.2,3.2-3.2h357.8
		c1.8,0,3.2,1.4,3.2,3.2l0,0C111.6,276.8,110.1,278.2,108.4,278.2z"/>
	<polygon id="XMLID_21_" class="st11" points="-244.2,424.7 -244.3,425.7 -244.4,425.7 -244.3,424.7 	"/>
</g>
</svg>
