<?xml version="1.0" encoding="UTF-8"?>
<!DOCTYPE svg PUBLIC "-//W3C//DTD SVG 1.1//EN" "http://www.w3.org/Graphics/SVG/1.1/DTD/svg11.dtd">
<!-- Creator: CorelDRAW X6 -->
<svg xmlns="http://www.w3.org/2000/svg" xml:space="preserve" width="6.94444in" height="6.94444in" version="1.1" style="shape-rendering:geometricPrecision; text-rendering:geometricPrecision; image-rendering:optimizeQuality; fill-rule:evenodd; clip-rule:evenodd"
viewBox="0 0 6944 6944"
 xmlns:xlink="http://www.w3.org/1999/xlink">
 <defs>
  <style type="text/css">
   <![CDATA[
    .fil16 {fill:#354A7E;fill-rule:nonzero}
    .fil42 {fill:#404898;fill-rule:nonzero}
    .fil44 {fill:#463A44;fill-rule:nonzero}
    .fil41 {fill:#5E64AC;fill-rule:nonzero}
    .fil3 {fill:#66CBE8;fill-rule:nonzero}
    .fil31 {fill:#85D3EA;fill-rule:nonzero}
    .fil23 {fill:#88D4EA;fill-rule:nonzero}
    .fil21 {fill:#894646;fill-rule:nonzero}
    .fil4 {fill:#97D8EB;fill-rule:nonzero}
    .fil36 {fill:#A4DCED;fill-rule:nonzero}
    .fil34 {fill:#A7DDED;fill-rule:nonzero}
    .fil28 {fill:#B4E2F0;fill-rule:nonzero}
    .fil32 {fill:#B6E3F0;fill-rule:nonzero}
    .fil22 {fill:#D1DCE6;fill-rule:nonzero}
    .fil11 {fill:#D2E2F4;fill-rule:nonzero}
    .fil43 {fill:#EE4E9B;fill-rule:nonzero}
    .fil18 {fill:#F4804F;fill-rule:nonzero}
    .fil14 {fill:#F79E74;fill-rule:nonzero}
    .fil9 {fill:#F7FBFE;fill-rule:nonzero}
    .fil0 {fill:#FEFEFE;fill-rule:nonzero}
    .fil12 {fill:url(#id0)}
    .fil5 {fill:url(#id1)}
    .fil40 {fill:url(#id2)}
    .fil15 {fill:url(#id3)}
    .fil30 {fill:url(#id4)}
    .fil35 {fill:url(#id5)}
    .fil38 {fill:url(#id6)}
    .fil27 {fill:url(#id7)}
    .fil8 {fill:url(#id8)}
    .fil25 {fill:url(#id9)}
    .fil29 {fill:url(#id10)}
    .fil37 {fill:url(#id11)}
    .fil26 {fill:url(#id12)}
    .fil7 {fill:url(#id13)}
    .fil17 {fill:url(#id14)}
    .fil10 {fill:url(#id15)}
    .fil19 {fill:url(#id16)}
    .fil20 {fill:url(#id17)}
    .fil39 {fill:url(#id18)}
    .fil33 {fill:url(#id19)}
    .fil24 {fill:url(#id20)}
    .fil6 {fill:url(#id21)}
    .fil13 {fill:url(#id22)}
    .fil1 {fill:url(#id23)}
    .fil2 {fill:url(#id24)}
   ]]>
  </style>
  <linearGradient id="id0" gradientUnits="userSpaceOnUse" x1="4062.09" y1="3558.15" x2="4062.09" y2="3940.4">
   <stop offset="0" style="stop-color:#736AAE"/>
   <stop offset="0.941176" style="stop-color:#A594C6"/>
   <stop offset="1" style="stop-color:#A594C6"/>
  </linearGradient>
  <linearGradient id="id1" gradientUnits="userSpaceOnUse" x1="1235.85" y1="3383.96" x2="1444.15" y2="3383.96">
   <stop offset="0" style="stop-color:#A577B3"/>
   <stop offset="1" style="stop-color:#F69041"/>
  </linearGradient>
  <linearGradient id="id2" gradientUnits="userSpaceOnUse" x1="1520.11" y1="5046.8" x2="2634.22" y2="5046.8">
   <stop offset="0" style="stop-color:#DBDBEE"/>
   <stop offset="1" style="stop-color:#DCF1F6"/>
  </linearGradient>
  <linearGradient id="id3" gradientUnits="userSpaceOnUse" xlink:href="#id2" x1="2835.69" y1="5438.41" x2="3822.9" y2="5438.41">
  </linearGradient>
  <linearGradient id="id4" gradientUnits="userSpaceOnUse" x1="5126.23" y1="2925.15" x2="5677.37" y2="2925.15">
   <stop offset="0" style="stop-color:#5DB5E5"/>
   <stop offset="0.941176" style="stop-color:#60C7F2"/>
   <stop offset="1" style="stop-color:#60C7F2"/>
  </linearGradient>
  <linearGradient id="id5" gradientUnits="userSpaceOnUse" x1="2726.59" y1="2017.75" x2="2914.86" y2="2017.75">
   <stop offset="0" style="stop-color:#6B97CE"/>
   <stop offset="0.941176" style="stop-color:#80B6E2"/>
   <stop offset="1" style="stop-color:#80B6E2"/>
  </linearGradient>
  <linearGradient id="id6" gradientUnits="userSpaceOnUse" xlink:href="#id5" x1="5498.01" y1="4285.5" x2="5674.04" y2="4285.5">
  </linearGradient>
  <linearGradient id="id7" gradientUnits="userSpaceOnUse" x1="5500.85" y1="3282.32" x2="5676.87" y2="3282.32">
   <stop offset="0" style="stop-color:#6F8AC5"/>
   <stop offset="0.941176" style="stop-color:#8BADDB"/>
   <stop offset="1" style="stop-color:#8BADDB"/>
  </linearGradient>
  <linearGradient id="id8" gradientUnits="userSpaceOnUse" xlink:href="#id0" x1="2723.08" y1="3152.96" x2="5677.19" y2="3152.96">
  </linearGradient>
  <linearGradient id="id9" gradientUnits="userSpaceOnUse" x1="5749.65" y1="2863.83" x2="5564.48" y2="2863.83">
   <stop offset="0" style="stop-color:#47B5E7"/>
   <stop offset="1" style="stop-color:#6DCDE7"/>
  </linearGradient>
  <linearGradient id="id10" gradientUnits="userSpaceOnUse" xlink:href="#id9" x1="5772.56" y1="3099.66" x2="5655.94" y2="3099.66">
  </linearGradient>
  <linearGradient id="id11" gradientUnits="userSpaceOnUse" x1="5769.01" y1="4363.62" x2="5673.64" y2="4363.62">
   <stop offset="0" style="stop-color:#5496D0"/>
   <stop offset="1" style="stop-color:#74CEE6"/>
  </linearGradient>
  <linearGradient id="id12" gradientUnits="userSpaceOnUse" x1="5764.93" y1="3344.2" x2="5676.48" y2="3344.2">
   <stop offset="0" style="stop-color:#5788C6"/>
   <stop offset="1" style="stop-color:#74CEE6"/>
  </linearGradient>
  <linearGradient id="id13" gradientUnits="userSpaceOnUse" x1="5772.65" y1="3917.44" x2="5534.11" y2="3917.44">
   <stop offset="0" style="stop-color:#5E64AC"/>
   <stop offset="1" style="stop-color:#7ED1E4"/>
  </linearGradient>
  <linearGradient id="id14" gradientUnits="userSpaceOnUse" x1="3239.31" y1="4503.07" x2="3278.42" y2="3686.48">
   <stop offset="0" style="stop-color:#66CBE8"/>
   <stop offset="0.701961" style="stop-color:#EAEDEE"/>
   <stop offset="1" style="stop-color:#EAEDEE"/>
  </linearGradient>
  <linearGradient id="id15" gradientUnits="userSpaceOnUse" xlink:href="#id13" x1="4172.94" y1="2336.42" x2="4221.3" y2="2951.9">
  </linearGradient>
  <linearGradient id="id16" gradientUnits="userSpaceOnUse" xlink:href="#id14" x1="3518.94" y1="4162.92" x2="3537.35" y2="3778.6">
  </linearGradient>
  <linearGradient id="id17" gradientUnits="userSpaceOnUse" xlink:href="#id14" x1="3726.46" y1="4139.8" x2="3750.07" y2="3960.01">
  </linearGradient>
  <linearGradient id="id18" gradientUnits="userSpaceOnUse" x1="1122.05" y1="4408.05" x2="2035.05" y2="3587.01">
   <stop offset="0" style="stop-color:#A4DCED"/>
   <stop offset="1" style="stop-color:#FEFEFE"/>
  </linearGradient>
  <linearGradient id="id19" gradientUnits="userSpaceOnUse" xlink:href="#id1" x1="3143.57" y1="3146.44" x2="3368.31" y2="2718.03">
  </linearGradient>
  <linearGradient id="id20" gradientUnits="userSpaceOnUse" x1="5356.35" y1="2801.39" x2="5313.75" y2="2484.83">
   <stop offset="0" style="stop-color:#66CBE8"/>
   <stop offset="0.701961" style="stop-color:#80D1E7"/>
   <stop offset="1" style="stop-color:#80D1E7"/>
  </linearGradient>
  <linearGradient id="id21" gradientUnits="userSpaceOnUse" xlink:href="#id14" x1="4249.06" y1="2830.02" x2="4032.6" y2="1221.35">
  </linearGradient>
  <linearGradient id="id22" gradientUnits="userSpaceOnUse" xlink:href="#id14" x1="3197.42" y1="4066.02" x2="2936.55" y2="3838.64">
  </linearGradient>
  <linearGradient id="id23" gradientUnits="userSpaceOnUse" x1="5442.35" y1="-41.4213" x2="5797.43" y2="1326.02">
   <stop offset="0" style="stop-color:#C5E8F2"/>
   <stop offset="0.701961" style="stop-color:#F7FBFA"/>
   <stop offset="1" style="stop-color:#F7FBFA"/>
  </linearGradient>
  <linearGradient id="id24" gradientUnits="userSpaceOnUse" xlink:href="#id23" x1="1197.65" y1="5660.17" x2="1540.69" y2="6981.24">
  </linearGradient>
 </defs>
 <g id="Layer_x0020_1">
  <metadata id="CorelCorpID_0Corel-Layer"/>
  <polygon class="fil0" points="0,6944 6944,6944 6944,0 0,0 "/>
  <path class="fil1" d="M6944 1285c-672,-31 -1174,-434 -1861,-896 -274,-184 -543,-307 -788,-389l2649 0 0 1285z"/>
  <path class="fil2" d="M2554 6944l-2554 0 0 -1247c97,97 224,166 390,172 543,19 2348,206 2163,1075z"/>
  <path class="fil3" d="M5121 4973c20,12 37,41 37,64 0,24 -17,33 -37,21l-337 -195c-20,-12 -37,-41 -37,-64 0,-24 17,-33 37,-21l337 195z"/>
  <path class="fil4" d="M1011 3946c-32,0 -54,-25 -54,-69l-3 -959c0,-26 18,-58 41,-71l571 -330c15,-9 30,-13 43,-13 32,0 54,25 54,69l3 959c0,26 -18,58 -41,71l-571 330c-15,9 -30,13 -43,13z"/>
  <path class="fil0" d="M1082 3195c-7,4 -12,13 -12,21l0 51c0,8 5,11 12,7l466 -269c7,-4 12,-13 12,-21l0 -51c0,-8 -5,-11 -12,-7l-466 269z"/>
  <path class="fil0" d="M1083 3306c-7,4 -12,13 -12,21l0 51c0,8 5,11 12,7l466 -269c7,-4 12,-13 12,-21l0 -51c0,-8 -5,-11 -12,-7l-466 269z"/>
  <path class="fil5" d="M1265 3389c-16,9 -29,31 -29,50l0 12c0,18 13,26 29,16l151 -87c16,-9 29,-31 29,-50l0 -12c0,-18 -13,-26 -29,-16l-151 87z"/>
  <path class="fil6" d="M5481 2816l-2608 -1506c0,0 0,0 0,0 0,0 0,0 0,0 0,0 0,0 0,0 0,0 0,0 0,0 0,0 0,0 0,0 0,0 0,0 0,0 0,0 0,0 0,0 -23,-13 -44,-19 -64,-19 -13,0 -24,3 -35,8 0,0 0,0 0,0 0,0 0,0 0,0 -1,1 -2,1 -3,2l95 -55c4,-2 8,-4 12,-5 3,-1 6,-2 10,-3l0 0 0 0c3,-1 5,-1 8,-1 2,0 5,0 7,0 0,0 0,0 0,0 2,0 4,0 7,0l2 0 1 0c1,0 3,0 4,0 2,0 4,1 6,1 2,0 4,1 6,1 2,1 4,1 6,2 1,0 3,1 4,1l0 0 1 0c2,1 4,1 6,2 2,1 4,2 6,2 2,1 4,2 6,3 2,1 4,2 6,3 2,1 3,2 5,3l2130 1233 0 49c0,14 7,27 20,34l394 228 -30 18z"/>
  <path class="fil7" d="M5630 5006c0,0 0,0 0,0 25,-15 40,-45 42,-88 0,-1 0,-3 0,-4l0 0 1 -506 95 55 -1 396 0 0c0,2 0,5 0,7 0,2 0,5 0,7 0,2 0,5 -1,7 0,2 -1,5 -1,7l-1 3 0 1 -1 3c-1,3 -1,5 -2,7 -1,3 -2,5 -3,8 -1,3 -2,5 -3,7l0 0 0 0c-2,3 -3,7 -5,10 -2,2 -3,4 -5,6 -1,2 -3,3 -4,5 -5,5 -10,10 -16,13l-95 55zm139 -686l-95 -55 2 -861 30 17c6,4 13,5 20,5 20,0 39,-16 39,-39l0 -51c0,-14 -7,-27 -20,-34l-68 -40 0 -113 95 55 -3 1116zm4 -1257l-117 -67c-25,-61 -70,-119 -122,-148l0 0 30 -18 185 107c0,1 1,2 1,3 1,2 2,5 3,7 1,2 2,5 3,7 1,2 2,5 3,7 1,2 2,5 2,7l0 1 0 0c1,2 1,4 2,6 1,3 1,5 2,8 1,3 1,5 2,8 1,3 1,5 2,8 0,2 1,5 1,7l0 0 0 0c0,2 1,5 1,7 0,2 1,5 1,7 0,2 0,5 1,7 0,2 0,5 0,7 0,2 0,4 0,6l0 23z"/>
  <path class="fil8" d="M5593 5015c-19,0 -41,-6 -65,-20l-2661 -1537c-79,-46 -144,-157 -143,-248l3 -1145 188 108 -3 1076c0,84 59,186 132,228l2321 1339c21,12 41,18 59,18 43,0 73,-34 73,-94l1 -437 176 101 -1 506 0 0c0,1 0,3 0,4 -1,43 -17,73 -42,88 -11,7 -24,10 -38,10zm81 -750l-78 -45 0 -526c0,-11 -9,-19 -19,-19 -11,0 -19,9 -19,19l0 504 -58 -34 2 -861 176 101 -2 861zm3 -1003l-176 -101 0 -90c0,-8 0,-16 -1,-24l177 102 0 113zm-21 -267l-500 -289c-6,-4 -13,-5 -20,-5 -3,0 -7,0 -10,1l-2078 -1199c-21,-12 -41,-18 -59,-18 -43,0 -73,34 -73,94l-1 390 -188 -108 1 -469c0,-47 17,-80 45,-94 0,0 0,0 0,0 0,0 0,0 0,0 10,-5 22,-8 35,-8 19,0 41,6 64,19 0,0 0,0 0,0 0,0 0,0 0,0 0,0 0,0 0,0 0,0 0,0 0,0 0,0 0,0 0,0 0,0 0,0 0,0 0,0 0,0 0,0l0 0 2608 1506 53 31 0 0c52,30 97,87 122,148z"/>
  <path class="fil9" d="M5370 2843c73,42 132,144 132,228l-5 1672c0,84 -60,118 -133,76l-2321 -1339c-73,-42 -132,-144 -132,-228l5 -1672c0,-84 60,-118 133,-76l2321 1339z"/>
  <path class="fil9" d="M5576 4296c-11,0 -19,-9 -19,-19l0 -583c0,-11 9,-19 19,-19 11,0 19,9 19,19l0 583c0,11 -9,19 -19,19z"/>
  <path class="fil0" d="M2814 2431c23,13 41,45 41,71 0,26 -19,37 -41,24 -23,-13 -41,-45 -41,-71 0,-26 19,-37 41,-24z"/>
  <path class="fil10" d="M4202 2684c47,27 86,5 86,-49 0,-54 -38,-121 -85,-148 -47,-27 -86,-5 -86,49 0,54 38,121 85,148zm208 -7c7,24 12,48 15,72 2,14 3,28 3,42 0,4 0,8 0,12l0 2c0,4 0,8 -1,11l0 2c0,4 -1,7 -1,11 -1,5 -1,8 -2,12 -1,4 -2,8 -3,11l0 2c-1,3 -2,6 -3,9l-1 2c-1,3 -2,6 -3,9 -1,4 -3,6 -4,9 -2,4 -3,6 -5,9l-1 1c-1,3 -3,5 -4,7l-1 1c-2,2 -3,5 -5,7 -2,2 -4,5 -6,7l-1 1c-2,2 -4,4 -6,6l-1 1c-2,2 -4,4 -6,5l-1 1c-2,2 -4,3 -6,5 -3,2 -5,3 -7,5l-1 1c-2,1 -5,2 -7,4l-1 1c-2,1 -5,2 -7,3 -2,1 -3,1 -5,2 -1,-89 -63,-196 -140,-240 -78,-45 -141,-9 -141,80 0,0 2,4 6,10 -2,-3 -4,-5 -5,-8 -3,-5 -6,-9 -8,-12l-1 -2c-2,-4 -5,-8 -7,-11l-2 -2c-2,-4 -5,-8 -7,-12 -2,-4 -5,-8 -7,-12l-1 -2c-2,-4 -4,-8 -6,-12l-1 -2c-2,-4 -4,-8 -6,-12 -3,-5 -4,-9 -6,-14l-1 -3c-2,-4 -4,-8 -5,-13 -2,-5 -4,-9 -5,-13l-1 -2c-2,-4 -3,-8 -4,-13l-1 -3c-3,-9 -5,-17 -8,-26l-1 -3c-1,-4 -2,-8 -3,-13l-1 -2c-1,-4 -2,-8 -3,-12 -1,-6 -2,-10 -3,-14l0 -3c-1,-4 -1,-8 -2,-13 -1,-5 -1,-9 -1,-13l0 -2c0,-4 -1,-8 -1,-12l0 -3c0,-4 0,-8 0,-12 0,-14 1,-27 3,-39 3,-20 8,-38 16,-54 1,-3 3,-6 5,-9 38,-67 117,-83 208,-30 82,47 154,139 195,236 3,6 5,13 8,19 4,10 7,19 10,29z"/>
  <path class="fil11" d="M4772 3406c18,10 32,35 32,55l0 135c0,20 -15,29 -32,18l-1236 -713c-18,-10 -32,-35 -32,-56l0 -135c0,-20 15,-29 32,-18l1236 713z"/>
  <path class="fil11" d="M4771 3700c18,10 32,35 32,56l0 135c0,20 -15,29 -32,18l-1236 -713c-18,-10 -32,-35 -32,-55l0 -135c0,-20 15,-29 32,-18l1236 713z"/>
  <path class="fil12" d="M4220 3759c33,19 60,66 60,104l0 24c0,38 -27,54 -60,34l-314 -182c-33,-19 -60,-66 -60,-104l0 -24c0,-38 27,-53 60,-34l314 182z"/>
  <path class="fil13" d="M3079 3742c0,0 -107,61 -123,342 14,52 96,79 158,38 63,-41 -2,-333 -35,-381z"/>
  <path class="fil14" d="M3622 4045c0,0 244,-109 277,-127 33,-18 57,-86 70,-101 12,-14 68,-47 66,-33 -2,14 -31,41 -31,41 0,0 21,35 25,57 4,23 -27,68 -43,80 -16,12 -55,16 -55,16 0,0 -199,133 -232,135 -33,2 -80,-16 -76,-70z"/>
  <path class="fil15" d="M3329 5732c-273,0 -494,-131 -494,-293 0,-162 221,-293 494,-293 273,0 494,131 494,293 0,162 -221,293 -494,293z"/>
  <path class="fil16" d="M3125 5375c0,0 -6,47 2,66 8,17 42,30 66,13 23,-17 63,-59 63,-59 0,0 68,-36 74,-55 6,-19 -17,-36 -36,-32 -19,4 -74,38 -99,38 -25,0 -61,6 -70,30z"/>
  <path class="fil16" d="M3055 4385c0,0 59,977 67,1005 7,28 84,45 98,0 9,-29 31,-932 31,-932l-196 -72z"/>
  <path class="fil16" d="M3320 5433c-3,3 -5,7 -5,11 0,13 0,43 8,55 10,15 41,31 73,14 27,-15 112,-78 129,-92 10,-8 15,-19 17,-27 2,-7 -2,-15 -9,-18 -12,-5 -32,-12 -51,-6 -28,9 -63,40 -101,38 -29,-1 -52,16 -62,24z"/>
  <path class="fil16" d="M3451 4396c-4,-41 -53,-54 -98,-40 -85,-5 -217,-1 -222,65 -7,98 39,168 83,216 33,35 55,102 64,135 8,259 25,624 36,659 17,56 102,54 106,-1 17,-185 31,-1034 31,-1034z"/>
  <path class="fil17" d="M3451 4426c-10,50 -153,75 -236,62 -84,-13 -173,-54 -170,-151 0,0 -13,-387 -13,-463 0,-76 48,-132 48,-132 0,0 47,-53 194,-23 0,0 120,26 175,115 0,0 38,97 25,300 -13,203 -22,293 -22,293z"/>
  <path class="fil18" d="M3158 3611c0,0 13,74 0,108 -2,17 72,74 137,59 38,-8 36,-27 36,-27 0,0 -32,-53 -27,-104 4,-51 -101,-47 -146,-36z"/>
  <path class="fil14" d="M3406 3462c0,96 -78,174 -174,174 -96,0 -174,-78 -174,-174 0,-96 78,-174 174,-174 96,0 174,78 174,174z"/>
  <path class="fil14" d="M3406 3473c0,0 2,175 -36,210 -38,35 -96,-33 -190,-55 -93,-24 76,-206 76,-206l150 51z"/>
  <path class="fil19" d="M3392 3792c0,0 38,-11 82,52 44,63 106,145 136,158 30,14 71,-14 87,-14 16,0 60,76 44,115 -16,38 -123,57 -150,57 -27,0 -205,-106 -229,-166 -25,-60 -63,-199 30,-202z"/>
  <path class="fil20" d="M3673 3997c0,0 11,-30 49,-33 38,-3 82,71 79,112 -3,41 -63,63 -76,52 -14,-11 14,-38 -52,-131z"/>
  <path class="fil21" d="M3336 3315c0,0 63,14 82,109 -8,41 -66,8 -87,63 -22,55 -35,71 -35,71l-14 -5c0,0 0,-44 -19,-44 -19,0 -25,52 -14,74 11,22 35,33 35,33 0,0 -27,46 -41,52 -14,5 -63,-5 -82,-14 -19,-8 -55,-46 -82,-90 -27,-44 -52,-120 -35,-172 16,-52 55,-65 55,-65 0,0 22,-30 60,-44 38,-14 109,-19 177,33z"/>
  <path class="fil22" d="M3366 3755l-45 -25c0,0 -116,-11 -158,-38l-22 31c0,0 29,56 104,64 75,7 109,-22 109,-22l13 -9z"/>
  <path class="fil23" d="M5378 2462c-7,0 -13,-2 -20,-5l-241 -140c-12,-7 -20,-20 -20,-34l0 -51c0,-23 19,-39 39,-39 7,0 13,2 20,5l241 140c12,7 20,20 20,34l0 51c0,23 -19,39 -39,39z"/>
  <path class="fil23" d="M6141 3156c-7,0 -13,-2 -20,-5l-372 -215c0,-1 -1,-2 -1,-3l0 0 -1 -1c-1,-2 -2,-5 -3,-7 -1,-3 -2,-5 -4,-8 -1,-3 -3,-6 -4,-9 -2,-3 -3,-6 -5,-9l-1 -2 -1 -2c-3,-6 -7,-11 -11,-17 -3,-4 -6,-9 -9,-13 -2,-3 -4,-6 -6,-8 -2,-2 -4,-5 -6,-7 -2,-2 -4,-4 -6,-7 -2,-2 -4,-4 -6,-6l-1 -1 0 0c-1,-2 -3,-3 -4,-5 -2,-2 -4,-4 -6,-6 -2,-2 -4,-4 -6,-6 -2,-2 -4,-4 -6,-6l-3 -3 -1 -1 -2 -2c-2,-2 -4,-3 -6,-5 -2,-2 -4,-3 -6,-4 -2,-1 -4,-3 -6,-4 -2,-1 -4,-3 -6,-4l-1 -1 -65 38 -53 -31 61 -36 -475 -275 0 -2c0,-23 19,-39 39,-39 7,0 13,2 20,5l1005 580c12,7 20,20 20,34l0 51c0,23 -19,39 -39,39z"/>
  <path class="fil24" d="M5511 2799l-394 -228c-12,-7 -20,-20 -20,-34l0 -49 475 275 -61 36z"/>
  <path class="fil25" d="M5750 2936l-185 -107 65 -38 1 1c2,1 4,2 6,4 2,1 4,3 6,4 2,1 4,3 6,4 2,2 4,3 6,5l2 2 1 1 3 3c2,2 4,4 6,6 2,2 4,4 6,6 2,2 4,4 6,6 1,1 3,3 4,5l0 0 1 1c2,2 4,4 6,6 2,2 4,4 6,7 2,2 4,5 6,7 2,3 4,6 6,8 3,4 6,9 9,13 4,6 7,11 11,17l1 2 1 2c2,3 3,6 5,9 2,3 3,6 4,9 1,3 2,5 4,8 1,2 2,5 3,7l1 1 0 0c0,1 1,2 1,3z"/>
  <path class="fil26" d="M5726 3426c-7,0 -13,-2 -20,-5l-30 -17 0 -142 68 40c12,7 20,20 20,34l0 51c0,23 -19,39 -39,39z"/>
  <polygon class="fil27" points="5676,3404 5501,3302 5501,3161 5677,3262 "/>
  <path class="fil28" d="M5501 3302l-385 -222c-12,-7 -20,-20 -20,-34l0 -51c0,-23 19,-39 39,-39 7,0 13,2 20,5l346 200 0 142z"/>
  <path class="fil23" d="M5985 3321c-7,0 -13,-2 -20,-5l-193 -111 0 -142 232 134c12,7 20,20 20,34l0 51c0,23 -19,39 -39,39zm-307 -226c0,-8 -1,-17 -2,-26 1,9 2,17 2,26zm-3 -35c0,-2 -1,-3 -1,-5 0,2 1,3 1,5l0 0z"/>
  <path class="fil29" d="M5772 3204l-95 -55 0 -54 0 0c0,-8 -1,-17 -2,-26 0,-3 -1,-6 -1,-9l0 0c0,-2 -1,-3 -1,-5 -4,-20 -10,-40 -18,-60l117 67 0 142z"/>
  <path class="fil30" d="M5677 3149l-177 -102c-9,-79 -64,-166 -130,-204l-244 -141c3,-1 6,-1 10,-1 7,0 13,2 20,5l500 289c8,20 14,40 18,60 0,2 1,3 1,5 0,3 1,6 1,9 1,9 2,17 2,26l0 0 0 54z"/>
  <path class="fil31" d="M5500 3047l-384 -222c-12,-7 -20,-20 -20,-34l0 -51c0,-19 13,-34 29,-38l244 141c66,38 121,126 130,204z"/>
  <path class="fil23" d="M1408 2053c-11,0 -20,-8 -20,-20l0 -26c0,-7 4,-14 10,-17l124 -72c3,-2 7,-3 10,-3 11,0 20,8 20,20l0 26c0,7 -4,14 -10,17l-124 72c-3,2 -7,3 -10,3z"/>
  <path class="fil23" d="M1015 2411c-11,0 -20,-8 -20,-20l0 -26c0,-7 4,-14 10,-18l517 -298c3,-2 7,-3 10,-3 11,0 20,8 20,20l0 26c0,7 -4,14 -10,18l-517 298c-3,2 -7,3 -10,3z"/>
  <path class="fil32" d="M1229 2550c-11,0 -20,-8 -20,-20l0 -26c0,-7 4,-14 10,-18l304 -175c3,-2 7,-3 10,-3 11,0 20,8 20,20l0 26c0,7 -4,14 -10,18l-304 175c-3,2 -7,3 -10,3z"/>
  <path class="fil23" d="M1096 2495c-11,0 -20,-8 -20,-20l0 -26c0,-7 4,-14 10,-18l437 -252c3,-2 7,-3 10,-3 11,0 20,8 20,20l0 26c0,7 -4,14 -10,18l-437 252c-3,2 -7,3 -10,3z"/>
  <path class="fil33" d="M3464 2932c0,115 -93,208 -208,208 -115,0 -208,-93 -208,-208 0,-115 93,-208 208,-208 115,0 208,93 208,208z"/>
  <polygon class="fil0" points="3238,3028 3151,2964 3183,2921 3228,2954 3319,2838 3361,2871 "/>
  <path class="fil34" d="M2727 2066l-552 -319c-49,-28 -89,-97 -89,-154 0,-40 20,-63 49,-63 12,0 26,4 40,12l552 319 -1 205z"/>
  <polygon class="fil35" points="2914,2174 2727,2066 2727,1861 2915,1970 "/>
  <path class="fil36" d="M3024 2227c-12,0 -26,-4 -40,-12l-69 -40 1 -205 69 40c49,28 89,97 89,154 0,40 -20,63 -49,63z"/>
  <path class="fil34" d="M6079 4634c-8,0 -18,-3 -28,-8l-282 -163 0 -142 282 163c34,20 62,68 62,107 0,28 -14,44 -34,44z"/>
  <polygon class="fil37" points="5769,4462 5674,4407 5674,4265 5769,4320 "/>
  <path class="fil38" d="M5674 4407l-176 -101 0 -142 58 34 0 79c0,11 9,19 19,19 11,0 19,-9 19,-19l0 -57 78 45 0 142z"/>
  <path class="fil36" d="M5498 4306l-9 -5c-34,-20 -62,-68 -62,-107 0,-28 14,-44 34,-44 8,0 18,3 28,8l9 5 0 142z"/>
  <path class="fil36" d="M5576 4296c-11,0 -19,-9 -19,-19l0 -79 39 22 0 57c0,11 -9,19 -19,19z"/>
  <path class="fil39" d="M2174 3898c21,12 21,31 0,43l-691 402c-21,12 -54,12 -75,0l-426 -246c-21,-12 -21,-31 0,-43l691 -402c21,-12 54,-12 75,0l426 246z"/>
  <path class="fil40" d="M2076 5341c-130,0 -259,-29 -358,-86 -197,-115 -196,-301 2,-415 99,-57 229,-86 359,-86 130,0 259,29 358,86 197,115 196,301 -2,415 -99,57 -229,86 -359,86z"/>
  <path class="fil41" d="M1961 5101c0,0 -91,24 -127,24 -36,0 0,36 60,40 60,4 115,8 127,-8 12,-16 -3,-61 -3,-61l-57 5z"/>
  <path class="fil41" d="M2215 5017c0,0 -91,24 -127,24 -36,0 0,36 60,40 60,4 115,8 127,-8 12,-16 -3,-61 -3,-61l-57 5z"/>
  <path class="fil42" d="M2235 4031c0,0 33,908 38,1003 0,0 -26,21 -58,11 0,0 -107,-596 -123,-749 -16,-154 -42,-207 -42,-207l185 -58z"/>
  <path class="fil42" d="M1896 4084c0,0 -32,524 64,1032 0,0 32,16 58,-21 0,0 58,-890 74,-1017 16,-127 -154,-21 -196,5z"/>
  <path class="fil42" d="M2039 4487c0,0 53,-148 101,-228 48,-79 37,-196 37,-196l-180 16 42 408z"/>
  <path class="fil14" d="M1856 3566l-157 -76c0,0 -48,-48 -60,-57 -12,-10 -91,-29 -105,-26 -14,2 -41,24 -33,29 7,5 74,41 76,55 2,14 -24,33 -14,43 10,10 31,-10 45,-10 14,0 55,19 55,19l153 88 41 -64z"/>
  <path class="fil43" d="M2192 3413c0,0 -29,-32 -77,29 -48,61 -87,151 -154,143 -66,-8 -175,-61 -175,-61 0,0 -48,32 -40,79 0,0 154,114 257,109 103,-5 214,-111 238,-185 24,-74 -50,-114 -50,-114z"/>
  <path class="fil43" d="M1873 4083c10,47 145,71 224,59 79,-13 164,-51 161,-143 0,0 12,-367 12,-439 0,-72 -45,-125 -45,-125 0,0 -44,-51 -184,-22 0,0 -113,25 -166,109 0,0 -36,92 -24,284 12,192 21,278 21,278z"/>
  <path class="fil18" d="M2150 3310c0,0 -12,70 0,102 2,16 -68,70 -130,56 -36,-8 -34,-26 -34,-26 0,0 30,-50 26,-98 -4,-48 96,-44 138,-34z"/>
  <path class="fil14" d="M1916 3169c0,91 74,165 165,165 91,0 165,-74 165,-165 0,-91 -74,-165 -165,-165 -91,0 -165,74 -165,165z"/>
  <path class="fil14" d="M1916 3180c0,0 -2,166 34,199 36,33 91,-31 180,-52 88,-23 -72,-195 -72,-195l-142 48z"/>
  <path class="fil14" d="M1712 3722c0,0 -231,-103 -262,-121 -31,-18 -54,-82 -66,-95 -12,-14 -64,-45 -62,-31 2,14 29,39 29,39 0,0 -19,33 -23,54 -4,21 25,64 41,76 16,12 52,16 52,16 0,0 189,126 220,128 31,2 76,-16 72,-66z"/>
  <path class="fil43" d="M1918 3512c0,0 -29,-32 -77,29 -48,61 -87,151 -154,143 -66,-8 -175,-61 -175,-61 0,0 -48,32 -40,79 0,0 154,114 257,109 103,-5 214,-111 238,-185 24,-74 -50,-114 -50,-114z"/>
  <path class="fil21" d="M1982 3030c0,0 -59,13 -78,103 8,39 62,8 83,59 21,52 34,67 34,67l13 -5c0,0 0,-41 18,-41 18,0 23,49 13,70 -10,21 -34,31 -34,31 0,0 26,44 39,49 13,5 59,-5 78,-13 18,-8 52,-44 78,-85 26,-41 49,-114 34,-163 -16,-49 -52,-62 -52,-62 0,0 -21,-28 -57,-41 -36,-13 -103,-18 -168,31z"/>
  <path class="fil21" d="M1969 3139c0,0 40,48 20,115 -20,68 8,68 36,155 28,87 -52,191 24,318 75,127 278,111 369,-16 91,-127 -52,-218 -56,-334 -4,-115 87,-183 -16,-262 -103,-79 -147,-167 -274,-131 -127,36 -159,99 -103,155z"/>
  <path class="fil44" d="M3631 6457c-7,7 -13,15 -17,23l-7 -4c-1,-5 -5,-8 -10,-7 -5,1 -9,5 -8,11 1,5 5,9 11,8l3 -1 7 4c-4,9 -7,18 -8,27l12 2c4,-21 13,-39 28,-55l-9 -8z"/>
  <path class="fil44" d="M3717 6421c-3,0 -5,0 -8,0l-1 -10c3,-2 5,-6 4,-10 -1,-6 -6,-11 -13,-10 -6,1 -11,6 -10,13 0,4 3,7 6,9l1 10c-11,2 -22,5 -32,10l5 11c15,-7 31,-11 47,-11 8,0 16,1 23,2l3 -12c-8,-2 -17,-3 -26,-3z"/>
  <path class="fil44" d="M3821 6461c5,-1 9,-5 8,-11 -1,-5 -5,-9 -11,-8 -5,1 -8,5 -8,10l-7 6c-7,-7 -14,-13 -22,-18l-6 10c18,11 32,27 40,46l11 -5c-4,-9 -9,-17 -15,-24l6 -6 3 0z"/>
  <path class="fil44" d="M3709 6581c-6,0 -12,1 -18,1 -14,0 -27,-1 -39,-3 -6,-1 -13,-2 -20,-5 16,29 48,49 85,49 45,0 83,-30 94,-71 -11,7 -24,13 -39,18 -19,6 -40,10 -63,11z"/>
  <path class="fil44" d="M3758 6533c-12,0 -21,-10 -21,-21 0,-12 10,-21 21,-21 12,0 21,10 21,21 0,12 -10,21 -21,21zm-75 14c-16,0 -29,-13 -29,-29 0,-16 13,-29 29,-29 16,0 29,13 29,29 0,16 -13,29 -29,29zm34 -102c-53,0 -96,42 -96,93 0,7 1,13 2,20 11,8 43,14 84,11 45,-3 83,-15 105,-34 0,-3 0,-6 -1,-9 -6,-47 -47,-82 -95,-82z"/>
  <path class="fil44" d="M3969 6474c-5,-2 -13,-5 -22,-4 -9,1 -13,5 -13,16l0 14 35 0 0 27 -35 0 0 86 -30 0 0 -86 -21 0 0 -27 21 0 0 -14c0,-26 14,-44 40,-44 10,0 18,2 25,5l0 27z"/>
  <path class="fil44" d="M4043 6526c-3,0 -6,-1 -8,-1 -14,0 -24,9 -24,25l0 61 -30 0 0 -113 29 0 0 12c7,-11 18,-15 32,-15 7,0 13,2 17,5l-16 24z"/>
  <path class="fil44" d="M4083 6545l50 0c-3,-14 -12,-23 -25,-23 -14,0 -23,9 -25,23zm80 10c0,3 0,8 -1,10l-80 0c3,16 15,23 29,23 10,0 20,-4 29,-11l18 20c-13,12 -29,17 -48,17 -35,0 -59,-24 -59,-59 0,-36 23,-60 57,-60 32,0 55,24 55,59z"/>
  <path class="fil44" d="M4204 6545l50 0c-3,-14 -12,-23 -25,-23 -14,0 -23,9 -25,23zm80 10c0,3 0,8 -1,10l-80 0c3,16 15,23 29,23 10,0 20,-4 29,-11l18 20c-13,12 -29,17 -48,17 -35,0 -59,-24 -59,-59 0,-36 23,-60 57,-60 32,0 55,24 55,59z"/>
  <path class="fil44" d="M4326 6556c0,18 12,31 29,31 18,0 29,-14 29,-31 0,-17 -11,-31 -29,-31 -17,0 -29,13 -29,31zm89 0c0,34 -24,59 -55,59 -15,0 -26,-6 -33,-15l0 58 -30 0 0 -159 30 0 0 12c7,-9 18,-15 34,-15 31,0 55,25 55,59z"/>
  <path class="fil44" d="M4460 6612l-30 0 0 -113 30 0 0 113zm4 -150c0,11 -9,19 -19,19 -11,0 -19,-8 -19,-19 0,-11 8,-20 19,-20 11,0 19,9 19,20z"/>
  <polygon class="fil44" points="4511,6540 4553,6500 4591,6500 4536,6553 4591,6612 4553,6612 4511,6567 4511,6612 4480,6612 4480,6445 4511,6445 "/>
  <path class="fil44" d="M2441 6581l0 -50c-6,-10 -20,-18 -33,-18 -22,0 -36,18 -36,43 0,25 13,43 36,43 14,0 27,-8 33,-18zm0 30l0 -17c-8,11 -22,19 -38,19 -29,0 -50,-22 -50,-58 0,-35 20,-59 50,-59 15,0 29,7 38,20l0 -59 17 0 0 154 -17 0z"/>
  <path class="fil44" d="M2535 6512c-24,0 -35,20 -36,37l73 0c0,-17 -11,-37 -37,-37zm-55 44c0,-32 23,-58 55,-58 34,0 53,26 53,60l0 4 -90 0c1,21 16,38 40,38 13,0 26,-5 34,-14l8 11c-11,11 -26,17 -44,17 -33,0 -57,-24 -57,-59z"/>
  <path class="fil44" d="M2601 6597l9 -12c7,9 21,16 37,16 17,0 26,-8 26,-19 0,-27 -69,-10 -69,-52 0,-17 15,-32 41,-32 19,0 32,7 41,16l-8 12c-7,-8 -19,-14 -33,-14 -15,0 -25,8 -25,18 0,24 69,8 69,52 0,19 -15,34 -44,34 -18,0 -34,-6 -45,-17z"/>
  <path class="fil44" d="M2712 6611l0 -111 17 0 0 111 -17 0zm-3 -139c0,-6 5,-12 12,-12 6,0 12,5 12,12 0,6 -5,12 -12,12 -6,0 -12,-5 -12,-12z"/>
  <path class="fil44" d="M2839 6579l0 -49c-6,-10 -19,-18 -33,-18 -22,0 -36,18 -36,42 0,24 13,42 36,42 14,0 27,-9 33,-18zm-81 61l9 -13c9,11 20,15 36,15 18,0 36,-9 36,-33l0 -16c-8,11 -22,20 -37,20 -29,0 -50,-22 -50,-58 0,-36 20,-58 50,-58 15,0 28,7 37,20l0 -17 17 0 0 108c0,37 -26,48 -53,48 -19,0 -32,-4 -45,-17z"/>
  <path class="fil44" d="M2960 6611l0 -73c0,-20 -10,-26 -25,-26 -14,0 -27,8 -33,17l0 81 -17 0 0 -111 17 0 0 16c8,-9 23,-19 40,-19 23,0 35,12 35,36l0 78 -17 0z"/>
  <path class="fil44" d="M3054 6512c-24,0 -35,20 -36,37l73 0c0,-17 -11,-37 -37,-37zm-55 44c0,-32 23,-58 55,-58 34,0 53,26 53,60l0 4 -90 0c1,21 16,38 40,38 13,0 26,-5 34,-14l8 11c-11,11 -26,17 -44,17 -33,0 -57,-24 -57,-59z"/>
  <path class="fil44" d="M3210 6581l0 -50c-6,-10 -20,-18 -33,-18 -22,0 -36,18 -36,43 0,25 13,43 36,43 14,0 27,-8 33,-18zm0 30l0 -17c-8,11 -22,19 -38,19 -29,0 -50,-22 -50,-58 0,-35 20,-59 50,-59 15,0 29,7 38,20l0 -59 17 0 0 154 -17 0z"/>
  <path class="fil44" d="M3361 6599c23,0 36,-18 36,-43 0,-25 -13,-43 -36,-43 -14,0 -27,8 -33,18l0 50c6,10 20,18 33,18zm-50 13l0 -154 17 0 0 59c9,-12 22,-20 38,-20 29,0 50,23 50,59 0,36 -21,58 -50,58 -16,0 -29,-8 -38,-19l0 17 -17 0z"/>
  <path class="fil44" d="M3433 6639c3,1 7,2 9,2 8,0 13,-3 17,-12l7 -17 -47 -112 19 0 37 91 37 -91 19 0 -56 134c-7,16 -18,22 -33,23 -4,0 -9,-1 -13,-2l3 -16z"/>
 </g>
</svg>
