<?xml version="1.0" encoding="utf-8"?>
<!-- Generator: Adobe Illustrator 19.0.0, SVG Export Plug-In . SVG Version: 6.00 Build 0)  -->
<svg version="1.1" id="Layer_1" xmlns="http://www.w3.org/2000/svg" xmlns:xlink="http://www.w3.org/1999/xlink" x="0px" y="0px"
	 viewBox="-229 75 500 417" style="enable-background:new -229 75 500 417;" xml:space="preserve">
<style type="text/css">
	.st0{fill:#66CBE8;}
	.st1{fill:#97D8EB;}
	.st2{fill:#FEFEFE;}
	.st3{fill:url(#SVGID_1_);}
	.st4{fill:url(#SVGID_2_);}
	.st5{fill:url(#SVGID_3_);}
	.st6{fill:url(#SVGID_4_);}
	.st7{fill:#F7FBFE;}
	.st8{fill:url(#SVGID_5_);}
	.st9{fill:#D2E2F4;}
	.st10{fill:url(#SVGID_6_);}
	.st11{fill:url(#SVGID_7_);}
	.st12{fill:#F79E74;}
	.st13{fill:url(#SVGID_8_);}
	.st14{fill:#354A7E;}
	.st15{fill:url(#SVGID_9_);}
	.st16{fill:#F4804F;}
	.st17{fill:url(#SVGID_10_);}
	.st18{fill:url(#SVGID_11_);}
	.st19{fill:#894646;}
	.st20{fill:#D1DCE6;}
	.st21{fill:#88D4EA;}
	.st22{fill:url(#SVGID_12_);}
	.st23{fill:url(#SVGID_13_);}
	.st24{fill:url(#SVGID_14_);}
	.st25{fill:url(#SVGID_15_);}
	.st26{fill:#B4E2F0;}
	.st27{fill:url(#SVGID_16_);}
	.st28{fill:url(#SVGID_17_);}
	.st29{fill:#85D3EA;}
	.st30{fill:#B6E3F0;}
	.st31{fill:url(#SVGID_18_);}
	.st32{fill:#A7DDED;}
	.st33{fill:url(#SVGID_19_);}
	.st34{fill:#A4DCED;}
	.st35{fill:url(#SVGID_20_);}
	.st36{fill:url(#SVGID_21_);}
	.st37{fill:url(#SVGID_22_);}
	.st38{fill:url(#SVGID_23_);}
	.st39{fill:#5E64AC;}
	.st40{fill:#404898;}
	.st41{fill:#EE4E9B;}
</style>
<g id="Layer_x0020_1">
	<path class="st0" d="M167.6,415.7c1.8,1.1,3.3,3.7,3.3,5.8c0,2.2-1.5,3-3.3,1.9l-30.3-17.5c-1.8-1.1-3.3-3.7-3.3-5.8
		c0-2.2,1.5-3,3.3-1.9L167.6,415.7z"/>
	<path class="st1" d="M-202,323.4c-2.9,0-4.9-2.2-4.9-6.2l-0.3-86.2c0-2.3,1.6-5.2,3.7-6.4l51.3-29.7c1.3-0.8,2.7-1.2,3.9-1.2
		c2.9,0,4.9,2.2,4.9,6.2l0.3,86.2c0,2.3-1.6,5.2-3.7,6.4l-51.3,29.7C-199.5,323-200.9,323.4-202,323.4z"/>
	<path class="st2" d="M-195.6,255.9c-0.6,0.4-1.1,1.2-1.1,1.9v4.6c0,0.7,0.4,1,1.1,0.6l41.9-24.2c0.6-0.4,1.1-1.2,1.1-1.9v-4.6
		c0-0.7-0.4-1-1.1-0.6L-195.6,255.9z"/>
	<path class="st2" d="M-195.6,265.8c-0.6,0.4-1.1,1.2-1.1,1.9v4.6c0,0.7,0.4,1,1.1,0.6l41.9-24.2c0.6-0.4,1.1-1.2,1.1-1.9v-4.6
		c0-0.7-0.4-1-1.1-0.6L-195.6,265.8z"/>
	
		<linearGradient id="SVGID_1_" gradientUnits="userSpaceOnUse" x1="3377.9346" y1="-3200.3679" x2="3638.0681" y2="-3200.3679" gradientTransform="matrix(7.200456e-002 0 0 -7.200456e-002 -425.0219 42.4669)">
		<stop  offset="0" style="stop-color:#A577B3"/>
		<stop  offset="1" style="stop-color:#F69041"/>
	</linearGradient>
	<path class="st3" d="M-179.2,273.3c-1.4,0.8-2.6,2.8-2.6,4.5v1.1c0,1.6,1.2,2.3,2.6,1.4l13.6-7.8c1.4-0.8,2.6-2.8,2.6-4.5v-1.1
		c0-1.6-1.2-2.3-2.6-1.4L-179.2,273.3z"/>
	
		<linearGradient id="SVGID_2_" gradientUnits="userSpaceOnUse" x1="7138.187" y1="-2508.2581" x2="6867.8628" y2="-499.2862" gradientTransform="matrix(7.200456e-002 0 0 -7.200456e-002 -425.0219 42.4669)">
		<stop  offset="0" style="stop-color:#66CBE8"/>
		<stop  offset="0.702" style="stop-color:#EAEDEE"/>
		<stop  offset="1" style="stop-color:#EAEDEE"/>
	</linearGradient>
	<path class="st4" d="M199.9,221.8L-34.6,86.4l0,0l0,0l0,0l0,0l0,0l0,0l0,0c-2.1-1.2-4-1.7-5.8-1.7c-1.2,0-2.2,0.3-3.1,0.7l0,0l0,0
		c-0.1,0.1-0.2,0.1-0.3,0.2l8.5-4.9c0.4-0.2,0.7-0.4,1.1-0.4c0.3-0.1,0.5-0.2,0.9-0.3l0,0l0,0c0.3-0.1,0.4-0.1,0.7-0.1
		c0.2,0,0.4,0,0.6,0l0,0c0.2,0,0.4,0,0.6,0h0.2h0.1c0.1,0,0.3,0,0.4,0c0.2,0,0.4,0.1,0.5,0.1c0.2,0,0.4,0.1,0.5,0.1
		c0.2,0.1,0.4,0.1,0.5,0.2c0.1,0,0.3,0.1,0.4,0.1l0,0h0.1c0.2,0.1,0.4,0.1,0.5,0.2c0.2,0.1,0.4,0.2,0.5,0.2c0.2,0.1,0.4,0.2,0.5,0.3
		s0.4,0.2,0.5,0.3c0.2,0.1,0.3,0.2,0.4,0.3l191.5,110.9v4.4c0,1.3,0.6,2.4,1.8,3.1l35.4,20.5l-2.7,1.6L199.9,221.8z"/>
	
		<linearGradient id="SVGID_3_" gradientUnits="userSpaceOnUse" x1="9043.4854" y1="-3866.6243" x2="8745.5869" y2="-3866.6243" gradientTransform="matrix(7.200456e-002 0 0 -7.200456e-002 -425.0219 42.4669)">
		<stop  offset="0" style="stop-color:#5E64AC"/>
		<stop  offset="1" style="stop-color:#7ED1E4"/>
	</linearGradient>
	<path class="st5" d="M213.3,418.7L213.3,418.7c2.2-1.3,3.6-4,3.8-7.9c0-0.1,0-0.3,0-0.4l0,0l0.1-45.5l8.5,4.9l-0.1,35.6l0,0
		c0,0.2,0,0.4,0,0.6s0,0.4,0,0.6s0,0.4-0.1,0.6c0,0.2-0.1,0.4-0.1,0.6l-0.1,0.3v0.1l-0.1,0.3c-0.1,0.3-0.1,0.4-0.2,0.6
		c-0.1,0.3-0.2,0.4-0.3,0.7s-0.2,0.4-0.3,0.6l0,0l0,0c-0.2,0.3-0.3,0.6-0.4,0.9c-0.2,0.2-0.3,0.4-0.4,0.5c-0.1,0.2-0.3,0.3-0.4,0.4
		c-0.4,0.4-0.9,0.9-1.4,1.2L213.3,418.7L213.3,418.7z M225.8,357l-8.5-4.9l0.2-77.4l2.7,1.5c0.5,0.4,1.2,0.4,1.8,0.4
		c1.8,0,3.5-1.4,3.5-3.5v-4.6c0-1.3-0.6-2.4-1.8-3.1l-6.1-3.6v-10.2l8.5,4.9L225.8,357z M226.2,244l-10.5-6
		c-2.2-5.5-6.3-10.7-11-13.3l0,0l2.7-1.6l16.6,9.6c0,0.1,0.1,0.2,0.1,0.3c0.1,0.2,0.2,0.4,0.3,0.6c0.1,0.2,0.2,0.4,0.3,0.6
		c0.1,0.2,0.2,0.4,0.3,0.6c0.1,0.2,0.2,0.4,0.2,0.6v0.1l0,0c0.1,0.2,0.1,0.4,0.2,0.5c0.1,0.3,0.1,0.4,0.2,0.7
		c0.1,0.3,0.1,0.4,0.2,0.7c0.1,0.3,0.1,0.4,0.2,0.7c0,0.2,0.1,0.4,0.1,0.6l0,0l0,0c0,0.2,0.1,0.4,0.1,0.6c0,0.2,0.1,0.4,0.1,0.6
		c0,0.2,0,0.4,0.1,0.6c0,0.2,0,0.4,0,0.6c0,0.2,0,0.4,0,0.5V244z"/>
	
		<linearGradient id="SVGID_4_" gradientUnits="userSpaceOnUse" x1="5236.1943" y1="-2910.637" x2="8925.2822" y2="-2910.637" gradientTransform="matrix(7.200456e-002 0 0 -7.200456e-002 -425.0219 42.4669)">
		<stop  offset="0" style="stop-color:#736AAE"/>
		<stop  offset="0.9412" style="stop-color:#A594C6"/>
		<stop  offset="1" style="stop-color:#A594C6"/>
	</linearGradient>
	<path class="st6" d="M210,419.5c-1.7,0-3.7-0.5-5.8-1.8L-35.1,279.5c-7.1-4.1-12.9-14.1-12.9-22.3l0.3-103l16.9,9.7l-0.3,96.8
		c0,7.6,5.3,16.7,11.9,20.5l208.7,120.4c1.9,1.1,3.7,1.6,5.3,1.6c3.9,0,6.6-3.1,6.6-8.5l0.1-39.3l15.8,9.1l-0.1,45.5l0,0
		c0,0.1,0,0.3,0,0.4c-0.1,3.9-1.5,6.6-3.8,7.9c-1,0.6-2.2,0.9-3.4,0.9V419.5z M217.3,352.1l-7-4v-47.3c0-1-0.8-1.7-1.7-1.7
		c-1,0-1.7,0.8-1.7,1.7v45.3l-5.2-3.1l0.2-77.4l15.8,9.1l-0.2,77.4H217.3z M217.5,261.9l-15.8-9.1v-8.1c0-0.7,0-1.4-0.1-2.2
		l15.9,9.2V261.9z M215.7,237.9l-45-26c-0.5-0.4-1.2-0.4-1.8-0.4c-0.3,0-0.6,0-0.9,0.1L-18.9,103.7c-1.9-1.1-3.7-1.6-5.3-1.6
		c-3.9,0-6.6,3.1-6.6,8.5l-0.1,35.1l-16.9-9.7l0.1-42.2c0-4.2,1.5-7.2,4-8.5l0,0l0,0c0.9-0.4,2-0.7,3.1-0.7c1.7,0,3.7,0.5,5.8,1.7
		l0,0l0,0l0,0l0,0l0,0l0,0l0,0l0,0l234.5,135.4l4.8,2.8l0,0C209.3,227.2,213.3,232.3,215.7,237.9L215.7,237.9z"/>
	<path class="st7" d="M189.9,224.2c6.6,3.8,11.9,12.9,11.9,20.5l-0.4,150.3c0,7.6-5.4,10.6-12,6.8L-19.3,281.5
		c-6.6-3.8-11.9-12.9-11.9-20.5l0.4-150.3c0-7.6,5.4-10.6,12-6.8L189.9,224.2z"/>
	<path class="st7" d="M208.5,354.9c-1,0-1.7-0.8-1.7-1.7v-52.4c0-1,0.8-1.7,1.7-1.7c1,0,1.7,0.8,1.7,1.7v52.4
		C210.2,354.2,209.4,354.9,208.5,354.9z"/>
	<path class="st2" d="M-39.9,187.2c2.1,1.2,3.7,4,3.7,6.4s-1.7,3.3-3.7,2.2c-2.1-1.2-3.7-4-3.7-6.4C-43.6,187-41.9,186-39.9,187.2z"
		/>
	
		<linearGradient id="SVGID_5_" gradientUnits="userSpaceOnUse" x1="7044.416" y1="-1891.5846" x2="7104.8096" y2="-2660.2207" gradientTransform="matrix(7.200456e-002 0 0 -7.200456e-002 -425.0219 42.4669)">
		<stop  offset="0" style="stop-color:#5E64AC"/>
		<stop  offset="1" style="stop-color:#7ED1E4"/>
	</linearGradient>
	<path class="st8" d="M84.9,209.9c4.2,2.4,7.7,0.4,7.7-4.4c0-4.9-3.4-10.9-7.6-13.3s-7.7-0.4-7.7,4.4
		C77.3,201.5,80.7,207.5,84.9,209.9z M103.6,209.3c0.6,2.2,1.1,4.3,1.3,6.5c0.2,1.3,0.3,2.5,0.3,3.8c0,0.4,0,0.7,0,1.1v0.2
		c0,0.4,0,0.7-0.1,1v0.2c0,0.4-0.1,0.6-0.1,1c-0.1,0.4-0.1,0.7-0.2,1.1c-0.1,0.4-0.2,0.7-0.3,1v0.2c-0.1,0.3-0.2,0.5-0.3,0.8
		l-0.1,0.2c-0.1,0.3-0.2,0.5-0.3,0.8c-0.1,0.4-0.3,0.5-0.4,0.8c-0.2,0.4-0.3,0.5-0.4,0.8l-0.1,0.1c-0.1,0.3-0.3,0.4-0.4,0.6
		l-0.1,0.1c-0.2,0.2-0.3,0.4-0.4,0.6c-0.2,0.2-0.4,0.4-0.5,0.6l-0.1,0.1c-0.2,0.2-0.4,0.4-0.5,0.5l-0.1,0.1
		c-0.2,0.2-0.4,0.4-0.5,0.4l-0.1,0.1c-0.2,0.2-0.4,0.3-0.5,0.4c-0.3,0.2-0.4,0.3-0.6,0.4l-0.1,0.1c-0.2,0.1-0.4,0.2-0.6,0.4
		l-0.1,0.1c-0.2,0.1-0.4,0.2-0.6,0.3c-0.2,0.1-0.3,0.1-0.4,0.2c-0.1-8-5.7-17.6-12.6-21.6c-7-4-12.7-0.8-12.7,7.2
		c0,0,0.2,0.4,0.5,0.9c-0.2-0.3-0.4-0.4-0.4-0.7c-0.3-0.4-0.5-0.8-0.7-1.1l-0.1-0.2c-0.2-0.4-0.4-0.7-0.6-1l-0.2-0.2
		c-0.2-0.4-0.4-0.7-0.6-1.1c-0.2-0.4-0.4-0.7-0.6-1.1l-0.1-0.2c-0.2-0.4-0.4-0.7-0.5-1.1l-0.1-0.2c-0.2-0.4-0.4-0.7-0.5-1.1
		c-0.3-0.4-0.4-0.8-0.5-1.3l-0.1-0.3c-0.2-0.4-0.4-0.7-0.4-1.2c-0.2-0.4-0.4-0.8-0.4-1.2l-0.1-0.2c-0.2-0.4-0.3-0.7-0.4-1.2
		l-0.1-0.3c-0.3-0.8-0.4-1.5-0.7-2.3l-0.1-0.3c-0.1-0.4-0.2-0.7-0.3-1.2l-0.1-0.2c-0.1-0.4-0.2-0.7-0.3-1.1
		c-0.1-0.5-0.2-0.9-0.3-1.3v-0.3c-0.1-0.4-0.1-0.7-0.2-1.2c-0.1-0.4-0.1-0.8-0.1-1.2V198c0-0.4-0.1-0.7-0.1-1.1v-0.3
		c0-0.4,0-0.7,0-1.1c0-1.3,0.1-2.4,0.3-3.5c0.3-1.8,0.7-3.4,1.4-4.9c0.1-0.3,0.3-0.5,0.4-0.8c3.4-6,10.5-7.5,18.7-2.7
		c7.4,4.2,13.8,12.5,17.5,21.2c0.3,0.5,0.4,1.2,0.7,1.7c0.4,0.9,0.6,1.7,0.9,2.6L103.6,209.3z"/>
	<path class="st9" d="M136.2,274.8c1.6,0.9,2.9,3.1,2.9,4.9v12.1c0,1.8-1.3,2.6-2.9,1.6L25,229.4c-1.6-0.9-2.9-3.1-2.9-5v-12.1
		c0-1.8,1.3-2.6,2.9-1.6L136.2,274.8L136.2,274.8z"/>
	<path class="st9" d="M136.1,301.3c1.6,0.9,2.9,3.1,2.9,5v12.1c0,1.8-1.3,2.6-2.9,1.6L24.9,256c-1.6-0.9-2.9-3.1-2.9-4.9v-12.1
		c0-1.8,1.3-2.6,2.9-1.6L136.1,301.3L136.1,301.3z"/>
	
		<linearGradient id="SVGID_6_" gradientUnits="userSpaceOnUse" x1="6908.4058" y1="-3417.229" x2="6908.4058" y2="-3894.5981" gradientTransform="matrix(7.200456e-002 0 0 -7.200456e-002 -425.0219 42.4669)">
		<stop  offset="0" style="stop-color:#736AAE"/>
		<stop  offset="0.9412" style="stop-color:#A594C6"/>
		<stop  offset="1" style="stop-color:#A594C6"/>
	</linearGradient>
	<path class="st10" d="M86.5,306.6c3,1.7,5.4,5.9,5.4,9.4v2.2c0,3.4-2.4,4.9-5.4,3.1l-28.2-16.4c-3-1.7-5.4-5.9-5.4-9.4v-2.2
		c0-3.4,2.4-4.8,5.4-3.1L86.5,306.6z"/>
	
		<linearGradient id="SVGID_7_" gradientUnits="userSpaceOnUse" x1="5820.8843" y1="-4058.9927" x2="5495.0996" y2="-3775.0313" gradientTransform="matrix(7.200456e-002 0 0 -7.200456e-002 -425.0219 42.4669)">
		<stop  offset="0" style="stop-color:#66CBE8"/>
		<stop  offset="0.702" style="stop-color:#EAEDEE"/>
		<stop  offset="1" style="stop-color:#EAEDEE"/>
	</linearGradient>
	<path class="st11" d="M-16.1,305.1c0,0-9.6,5.5-11.1,30.8c1.3,4.7,8.6,7.1,14.2,3.4C-7.3,335.5-13.1,309.3-16.1,305.1L-16.1,305.1z
		"/>
	<path class="st12" d="M32.8,332.3c0,0,21.9-9.8,24.9-11.4c3-1.6,5.1-7.7,6.3-9.1c1.1-1.3,6.1-4.2,5.9-3c-0.2,1.3-2.8,3.7-2.8,3.7
		s1.9,3.1,2.2,5.1c0.4,2.1-2.4,6.1-3.9,7.2c-1.4,1.1-4.9,1.4-4.9,1.4s-17.9,12-20.9,12.1c-3,0.2-7.2-1.4-6.8-6.3L32.8,332.3z"/>
	
		<linearGradient id="SVGID_8_" gradientUnits="userSpaceOnUse" x1="5374.8301" y1="-5766.1099" x2="6608.6841" y2="-5766.1099" gradientTransform="matrix(7.200456e-002 0 0 -7.200456e-002 -425.0219 42.4669)">
		<stop  offset="0" style="stop-color:#DBDBEE"/>
		<stop  offset="1" style="stop-color:#DCF1F6"/>
	</linearGradient>
	<path class="st13" d="M6.4,484c-24.5,0-44.4-11.8-44.4-26.3s19.9-26.3,44.4-26.3s44.4,11.8,44.4,26.3S31,484,6.4,484z"/>
	<path class="st14" d="M-11.9,451.9c0,0-0.5,4.2,0.2,5.9c0.7,1.5,3.8,2.7,5.9,1.2c2.1-1.5,5.7-5.3,5.7-5.3s6.1-3.2,6.7-4.9
		c0.5-1.7-1.5-3.2-3.2-2.9c-1.7,0.4-6.7,3.4-8.9,3.4S-11.1,449.8-11.9,451.9L-11.9,451.9z"/>
	<path class="st14" d="M-18.2,362.9c0,0,5.3,87.9,6,90.4c0.6,2.5,7.6,4,8.8,0c0.8-2.6,2.8-83.8,2.8-83.8L-18.2,362.9L-18.2,362.9z"
		/>
	<path class="st14" d="M5.6,457.1c-0.3,0.3-0.4,0.6-0.4,1c0,1.2,0,3.9,0.7,4.9c0.9,1.3,3.7,2.8,6.6,1.3c2.4-1.3,10.1-7,11.6-8.3
		c0.9-0.7,1.3-1.7,1.5-2.4c0.2-0.6-0.2-1.3-0.8-1.6c-1.1-0.4-2.9-1.1-4.6-0.5c-2.5,0.8-5.7,3.6-9.1,3.4
		C8.5,454.8,6.4,456.3,5.6,457.1L5.6,457.1z"/>
	<path class="st14" d="M17.4,363.9c-0.4-3.7-4.8-4.9-8.8-3.6c-7.6-0.4-19.5-0.1-20,5.8c-0.6,8.8,3.5,15.1,7.5,19.4
		c3,3.1,4.9,9.2,5.8,12.1c0.7,23.3,2.2,56.1,3.2,59.3c1.5,5,9.2,4.9,9.5-0.1C16.1,440.2,17.4,363.9,17.4,363.9z"/>
	
		<linearGradient id="SVGID_9_" gradientUnits="userSpaceOnUse" x1="5867.0063" y1="-4596.6724" x2="5915.8481" y2="-3576.8823" gradientTransform="matrix(7.200456e-002 0 0 -7.200456e-002 -425.0219 42.4669)">
		<stop  offset="0" style="stop-color:#66CBE8"/>
		<stop  offset="0.702" style="stop-color:#EAEDEE"/>
		<stop  offset="1" style="stop-color:#EAEDEE"/>
	</linearGradient>
	<path class="st15" d="M17.4,366.6c-0.9,4.5-13.8,6.7-21.2,5.6c-7.6-1.2-15.6-4.9-15.3-13.6c0,0-1.2-34.8-1.2-41.6
		c0-6.8,4.3-11.9,4.3-11.9s4.2-4.8,17.4-2.1c0,0,10.8,2.3,15.7,10.3c0,0,3.4,8.7,2.2,27C18.3,358.6,17.5,366.7,17.4,366.6
		L17.4,366.6z"/>
	<path class="st16" d="M-9,293.3c0,0,1.2,6.7,0,9.7c-0.2,1.5,6.5,6.7,12.3,5.3c3.4-0.7,3.2-2.4,3.2-2.4s-2.9-4.8-2.4-9.4
		C4.5,291.9-4.9,292.3-9,293.3z"/>
	<path class="st12" d="M13.3,279.9c0,8.6-7,15.6-15.6,15.6s-15.6-7-15.6-15.6s7-15.6,15.6-15.6S13.3,271.2,13.3,279.9z"/>
	<path class="st12" d="M13.3,280.9c0,0,0.2,15.7-3.2,18.9s-8.6-3-17.1-4.9c-8.4-2.2,6.8-18.5,6.8-18.5L13.3,280.9z"/>
	
		<linearGradient id="SVGID_10_" gradientUnits="userSpaceOnUse" x1="6242.1631" y1="-4173.1226" x2="6265.1548" y2="-3693.1685" gradientTransform="matrix(7.200456e-002 0 0 -7.200456e-002 -425.0219 42.4669)">
		<stop  offset="0" style="stop-color:#66CBE8"/>
		<stop  offset="0.702" style="stop-color:#EAEDEE"/>
		<stop  offset="1" style="stop-color:#EAEDEE"/>
	</linearGradient>
	<path class="st17" d="M12.1,309.6c0,0,3.4-1,7.4,4.7s9.5,13,12.2,14.2c2.7,1.3,6.4-1.3,7.8-1.3s5.4,6.8,4,10.3
		c-1.4,3.4-11.1,5.1-13.5,5.1s-18.4-9.5-20.6-14.9C7.1,322.3,3.7,309.8,12.1,309.6z"/>
	
		<linearGradient id="SVGID_11_" gradientUnits="userSpaceOnUse" x1="6484.4512" y1="-4143.1348" x2="6513.9365" y2="-3918.606" gradientTransform="matrix(7.200456e-002 0 0 -7.200456e-002 -425.0219 42.4669)">
		<stop  offset="0" style="stop-color:#66CBE8"/>
		<stop  offset="0.702" style="stop-color:#EAEDEE"/>
		<stop  offset="1" style="stop-color:#EAEDEE"/>
	</linearGradient>
	<path class="st18" d="M37.3,328c0,0,1-2.7,4.4-3s7.4,6.4,7.1,10.1s-5.7,5.7-6.8,4.7C40.8,338.8,43.3,336.3,37.3,328z"/>
	<path class="st19" d="M7,266.7c0,0,5.7,1.3,7.4,9.8c-0.7,3.7-5.9,0.7-7.8,5.7c-2,4.9-3.1,6.4-3.1,6.4l-1.3-0.4c0,0,0-4-1.7-4
		s-2.2,4.7-1.3,6.7c1,2,3.1,3,3.1,3s-2.4,4.1-3.7,4.7c-1.3,0.4-5.7-0.4-7.4-1.3c-1.7-0.7-4.9-4.1-7.4-8.1s-4.7-10.8-3.1-15.5
		c1.4-4.7,4.9-5.8,4.9-5.8s2-2.7,5.4-4S0.9,262.1,7,266.7L7,266.7z"/>
	<path class="st20" d="M9.7,306.2l-4-2.2c0,0-10.4-1-14.2-3.4l-2,2.8c0,0,2.6,5,9.4,5.8c6.7,0.6,9.8-2,9.8-2L9.7,306.2L9.7,306.2z"
		/>
	<path class="st21" d="M190.7,190c-0.6,0-1.2-0.2-1.8-0.4l-21.7-12.6c-1.1-0.6-1.8-1.8-1.8-3.1v-4.6c0-2.1,1.7-3.5,3.5-3.5
		c0.6,0,1.2,0.2,1.8,0.4l21.7,12.6c1.1,0.6,1.8,1.8,1.8,3.1v4.6C194.2,188.5,192.5,190,190.7,190z"/>
	<path class="st21" d="M259.3,252.4c-0.6,0-1.2-0.2-1.8-0.4L224,232.6c0-0.1-0.1-0.2-0.1-0.3l0,0l-0.1-0.1c-0.1-0.2-0.2-0.4-0.3-0.6
		c-0.1-0.3-0.2-0.4-0.4-0.7c-0.1-0.3-0.3-0.5-0.4-0.8c-0.2-0.3-0.3-0.5-0.4-0.8l-0.1-0.2l-0.1-0.2c-0.3-0.5-0.6-1-1-1.5
		c-0.3-0.4-0.5-0.8-0.8-1.2c-0.2-0.3-0.4-0.5-0.5-0.7s-0.4-0.4-0.5-0.6s-0.4-0.4-0.5-0.6c-0.2-0.2-0.4-0.4-0.5-0.5l-0.1-0.1l0,0
		c-0.1-0.2-0.3-0.3-0.4-0.4c-0.2-0.2-0.4-0.4-0.5-0.5c-0.2-0.2-0.4-0.4-0.5-0.5c-0.2-0.2-0.4-0.4-0.5-0.5l-0.3-0.3l-0.1-0.1
		l-0.2-0.2c-0.2-0.2-0.4-0.3-0.5-0.4c-0.2-0.2-0.4-0.3-0.5-0.4c-0.2-0.1-0.4-0.3-0.5-0.4s-0.4-0.3-0.5-0.4l-0.1-0.1l-5.8,3.4
		l-4.8-2.8l5.5-3.2L165.6,192v-0.2c0-2.1,1.7-3.5,3.5-3.5c0.6,0,1.2,0.2,1.8,0.4l90.4,52.2c1.1,0.6,1.8,1.8,1.8,3.1v4.6
		c0,2.1-1.7,3.5-3.5,3.5L259.3,252.4z"/>
	
		<linearGradient id="SVGID_12_" gradientUnits="userSpaceOnUse" x1="8521.5771" y1="-2472.428" x2="8468.377" y2="-2077.0952" gradientTransform="matrix(7.200456e-002 0 0 -7.200456e-002 -425.0219 42.4669)">
		<stop  offset="0" style="stop-color:#66CBE8"/>
		<stop  offset="0.702" style="stop-color:#80D1E7"/>
		<stop  offset="1" style="stop-color:#80D1E7"/>
	</linearGradient>
	<path class="st22" d="M202.6,220.3l-35.4-20.5c-1.1-0.6-1.8-1.8-1.8-3.1v-4.4l42.7,24.7L202.6,220.3z"/>
	
		<linearGradient id="SVGID_13_" gradientUnits="userSpaceOnUse" x1="9014.7617" y1="-2550.9709" x2="8783.7266" y2="-2550.9709" gradientTransform="matrix(7.200456e-002 0 0 -7.200456e-002 -425.0219 42.4669)">
		<stop  offset="0" style="stop-color:#47B5E7"/>
		<stop  offset="1" style="stop-color:#6DCDE7"/>
	</linearGradient>
	<path class="st23" d="M224.1,232.6l-16.6-9.6l5.8-3.4l0.1,0.1c0.2,0.1,0.4,0.2,0.5,0.4c0.2,0.1,0.4,0.3,0.5,0.4
		c0.2,0.1,0.4,0.3,0.5,0.4c0.2,0.2,0.4,0.3,0.5,0.4l0.2,0.2l0.1,0.1l0.3,0.3c0.2,0.2,0.4,0.4,0.5,0.5s0.4,0.4,0.5,0.5
		c0.2,0.2,0.4,0.4,0.5,0.5c0.1,0.1,0.3,0.3,0.4,0.4l0,0l0.1,0.1c0.2,0.2,0.4,0.4,0.5,0.5c0.2,0.2,0.4,0.4,0.5,0.6
		c0.2,0.2,0.4,0.4,0.5,0.6c0.2,0.3,0.4,0.5,0.5,0.7c0.3,0.4,0.5,0.8,0.8,1.2c0.4,0.5,0.6,1,1,1.5l0.1,0.2l0.1,0.2
		c0.2,0.3,0.3,0.5,0.4,0.8c0.2,0.3,0.3,0.5,0.4,0.8c0.1,0.3,0.2,0.4,0.4,0.7c0.1,0.2,0.2,0.4,0.3,0.6l0.1,0.1l0,0
		c0,0.1,0.1,0.2,0.1,0.3L224.1,232.6z"/>
	
		<linearGradient id="SVGID_14_" gradientUnits="userSpaceOnUse" x1="9033.8447" y1="-3149.7898" x2="8923.3848" y2="-3149.7898" gradientTransform="matrix(7.200456e-002 0 0 -7.200456e-002 -425.0219 42.4669)">
		<stop  offset="0" style="stop-color:#5788C6"/>
		<stop  offset="1" style="stop-color:#74CEE6"/>
	</linearGradient>
	<path class="st24" d="M222,276.6c-0.6,0-1.2-0.2-1.8-0.4l-2.7-1.5v-12.8l6.1,3.6c1.1,0.6,1.8,1.8,1.8,3.1v4.6
		C225.4,275.2,223.7,276.6,222,276.6L222,276.6z"/>
	
		<linearGradient id="SVGID_15_" gradientUnits="userSpaceOnUse" x1="8704.2383" y1="-3072.9863" x2="8924.0342" y2="-3072.9863" gradientTransform="matrix(7.200456e-002 0 0 -7.200456e-002 -425.0219 42.4669)">
		<stop  offset="0" style="stop-color:#6F8AC5"/>
		<stop  offset="0.9412" style="stop-color:#8BADDB"/>
		<stop  offset="1" style="stop-color:#8BADDB"/>
	</linearGradient>
	<polygon class="st25" points="217.5,274.7 201.7,265.5 201.7,252.8 217.5,261.9 	"/>
	<path class="st26" d="M201.7,265.5l-34.6-20c-1.1-0.6-1.8-1.8-1.8-3.1v-4.6c0-2.1,1.7-3.5,3.5-3.5c0.6,0,1.2,0.2,1.8,0.4l31.1,18
		V265.5L201.7,265.5z"/>
	<path class="st21" d="M245.2,267.2c-0.6,0-1.2-0.2-1.8-0.4l-17.4-10V244l20.9,12c1.1,0.6,1.8,1.8,1.8,3.1v4.6
		C248.8,265.8,247,267.2,245.2,267.2z M217.6,246.9c0-0.7-0.1-1.5-0.2-2.3C217.5,245.3,217.6,246.1,217.6,246.9z M217.4,243.7
		c0-0.2-0.1-0.3-0.1-0.4C217.3,243.5,217.4,243.5,217.4,243.7L217.4,243.7z"/>
	
		<linearGradient id="SVGID_16_" gradientUnits="userSpaceOnUse" x1="9043.373" y1="-2844.4485" x2="8897.7334" y2="-2844.4485" gradientTransform="matrix(7.200456e-002 0 0 -7.200456e-002 -425.0219 42.4669)">
		<stop  offset="0" style="stop-color:#47B5E7"/>
		<stop  offset="1" style="stop-color:#6DCDE7"/>
	</linearGradient>
	<path class="st27" d="M226.1,256.7l-8.5-4.9v-4.9l0,0c0-0.7-0.1-1.5-0.2-2.3c0-0.3-0.1-0.5-0.1-0.8l0,0c0-0.2-0.1-0.3-0.1-0.4
		c-0.4-1.8-0.9-3.6-1.6-5.4l10.5,6V256.7z"/>
	
		<linearGradient id="SVGID_17_" gradientUnits="userSpaceOnUse" x1="8235.9229" y1="-2626.5259" x2="8924.209" y2="-2626.5259" gradientTransform="matrix(7.200456e-002 0 0 -7.200456e-002 -425.0219 42.4669)">
		<stop  offset="0" style="stop-color:#5DB5E5"/>
		<stop  offset="0.9412" style="stop-color:#60C7F2"/>
		<stop  offset="1" style="stop-color:#60C7F2"/>
	</linearGradient>
	<path class="st28" d="M217.5,251.7l-15.9-9.2c-0.8-7.1-5.8-14.9-11.7-18.3L168,211.5c0.3-0.1,0.5-0.1,0.9-0.1
		c0.6,0,1.2,0.2,1.8,0.4l45,26c0.7,1.8,1.3,3.6,1.6,5.4c0,0.2,0.1,0.3,0.1,0.4c0,0.3,0.1,0.5,0.1,0.8c0.1,0.8,0.2,1.5,0.2,2.3l0,0
		L217.5,251.7L217.5,251.7z"/>
	<path class="st29" d="M201.6,242.6l-34.5-20c-1.1-0.6-1.8-1.8-1.8-3.1V215c0-1.7,1.2-3.1,2.6-3.4l21.9,12.7
		C195.8,227.6,200.7,235.5,201.6,242.6L201.6,242.6z"/>
	<path class="st21" d="M-166.3,153.2c-1,0-1.8-0.7-1.8-1.8V149c0-0.6,0.4-1.3,0.9-1.5l11.2-6.5c0.3-0.2,0.6-0.3,0.9-0.3
		c1,0,1.8,0.7,1.8,1.8v2.3c0,0.6-0.4,1.3-0.9,1.5l-11.2,6.5C-165.7,153.1-166.1,153.2-166.3,153.2z"/>
	<path class="st21" d="M-201.7,185.4c-1,0-1.8-0.7-1.8-1.8v-2.3c0-0.6,0.4-1.3,0.9-1.6l46.5-26.8c0.3-0.2,0.6-0.3,0.9-0.3
		c1,0,1.8,0.7,1.8,1.8v2.3c0,0.6-0.4,1.3-0.9,1.6l-46.5,26.8C-201,185.3-201.4,185.4-201.7,185.4z"/>
	<path class="st30" d="M-182.4,197.9c-1,0-1.8-0.7-1.8-1.8v-2.3c0-0.6,0.4-1.3,0.9-1.6l27.3-15.7c0.3-0.2,0.6-0.3,0.9-0.3
		c1,0,1.8,0.7,1.8,1.8v2.3c0,0.6-0.4,1.3-0.9,1.6l-27.3,15.7C-181.8,197.8-182.2,197.9-182.4,197.9z"/>
	<path class="st21" d="M-194.4,192.9c-1,0-1.8-0.7-1.8-1.8v-2.3c0-0.6,0.4-1.3,0.9-1.6l39.3-22.7c0.3-0.2,0.6-0.3,0.9-0.3
		c1,0,1.8,0.7,1.8,1.8v2.3c0,0.6-0.4,1.3-0.9,1.6l-39.3,22.7C-193.8,192.8-194.1,192.9-194.4,192.9z"/>
	
		<linearGradient id="SVGID_18_" gradientUnits="userSpaceOnUse" x1="5760.1226" y1="-2903.0364" x2="6040.7871" y2="-2368.021" gradientTransform="matrix(7.200456e-002 0 0 -7.200456e-002 -425.0219 42.4669)">
		<stop  offset="0" style="stop-color:#A577B3"/>
		<stop  offset="1" style="stop-color:#F69041"/>
	</linearGradient>
	<path class="st31" d="M18.6,232.2c0,10.3-8.4,18.7-18.7,18.7s-18.7-8.4-18.7-18.7c0-10.3,8.4-18.7,18.7-18.7S18.6,221.9,18.6,232.2
		z"/>
	<polygon class="st2" points="-1.8,240.9 -9.6,235.1 -6.7,231.2 -2.7,234.2 5.5,223.8 9.3,226.7 	"/>
	<path class="st32" d="M-47.7,154.3l-49.6-28.7c-4.4-2.5-8-8.7-8-13.8c0-3.6,1.8-5.7,4.4-5.7c1.1,0,2.3,0.4,3.6,1.1l49.6,28.7V154.3
		L-47.7,154.3z"/>
	
		<linearGradient id="SVGID_19_" gradientUnits="userSpaceOnUse" x1="5239.4434" y1="-1493.2034" x2="5474.5625" y2="-1493.2034" gradientTransform="matrix(7.200456e-002 0 0 -7.200456e-002 -425.0219 42.4669)">
		<stop  offset="0" style="stop-color:#6B97CE"/>
		<stop  offset="0.9412" style="stop-color:#80B6E2"/>
		<stop  offset="1" style="stop-color:#80B6E2"/>
	</linearGradient>
	<polygon class="st33" points="-30.9,164.1 -47.7,154.3 -47.7,135.9 -30.8,145.7 	"/>
	<path class="st34" d="M-21,168.8c-1.1,0-2.3-0.4-3.6-1.1l-6.2-3.6l0.1-18.4l6.2,3.6c4.4,2.5,8,8.7,8,13.8
		C-16.5,166.8-18.3,168.8-21,168.8L-21,168.8z"/>
	<path class="st32" d="M253.7,385.3c-0.7,0-1.6-0.3-2.5-0.7l-25.4-14.7v-12.8l25.4,14.7c3.1,1.8,5.6,6.1,5.6,9.6
		C256.8,383.9,255.5,385.4,253.7,385.3L253.7,385.3z"/>
	
		<linearGradient id="SVGID_20_" gradientUnits="userSpaceOnUse" x1="9038.9268" y1="-4422.9824" x2="8919.8252" y2="-4422.9824" gradientTransform="matrix(7.200456e-002 0 0 -7.200456e-002 -425.0219 42.4669)">
		<stop  offset="0" style="stop-color:#5496D0"/>
		<stop  offset="1" style="stop-color:#74CEE6"/>
	</linearGradient>
	<polygon class="st35" points="225.8,369.8 217.3,364.9 217.3,352.1 225.8,357 	"/>
	
		<linearGradient id="SVGID_21_" gradientUnits="userSpaceOnUse" x1="8700.4912" y1="-4325.5728" x2="8920.2871" y2="-4325.5728" gradientTransform="matrix(7.200456e-002 0 0 -7.200456e-002 -425.0219 42.4669)">
		<stop  offset="0" style="stop-color:#6B97CE"/>
		<stop  offset="0.9412" style="stop-color:#80B6E2"/>
		<stop  offset="1" style="stop-color:#80B6E2"/>
	</linearGradient>
	<path class="st36" d="M217.3,364.9l-15.8-9.1V343l5.2,3.1v7.1c0,1,0.8,1.7,1.7,1.7c1,0,1.7-0.8,1.7-1.7V348l7,4v12.8H217.3z"/>
	<path class="st34" d="M201.5,355.8l-0.8-0.4c-3.1-1.8-5.6-6.1-5.6-9.6c0-2.5,1.3-4,3.1-4c0.7,0,1.6,0.3,2.5,0.7l0.8,0.4V355.8
		L201.5,355.8z"/>
	<path class="st34" d="M208.5,354.9c-1,0-1.7-0.8-1.7-1.7v-7.1l3.5,2v5.1C210.3,354.2,209.5,354.9,208.5,354.9L208.5,354.9z"/>
	
		<linearGradient id="SVGID_22_" gradientUnits="userSpaceOnUse" x1="3235.3035" y1="-4478.2559" x2="4375.4946" y2="-3452.9084" gradientTransform="matrix(7.200456e-002 0 0 -7.200456e-002 -425.0219 42.4669)">
		<stop  offset="0" style="stop-color:#A4DCED"/>
		<stop  offset="1" style="stop-color:#FEFEFE"/>
	</linearGradient>
	<path class="st37" d="M-97.4,319.1c1.9,1.1,1.9,2.8,0,3.9l-62.1,36.1c-1.9,1.1-4.9,1.1-6.7,0l-38.3-22.1c-1.9-1.1-1.9-2.8,0-3.9
		l62.1-36.1c1.9-1.1,4.9-1.1,6.7,0L-97.4,319.1z"/>
	
		<linearGradient id="SVGID_23_" gradientUnits="userSpaceOnUse" x1="3732.7424" y1="-5277.189" x2="5124.0879" y2="-5277.189" gradientTransform="matrix(7.200456e-002 0 0 -7.200456e-002 -425.0219 42.4669)">
		<stop  offset="0" style="stop-color:#DBDBEE"/>
		<stop  offset="1" style="stop-color:#DCF1F6"/>
	</linearGradient>
	<path class="st38" d="M-106.3,448.8c-11.7,0-23.3-2.6-32.2-7.7c-17.7-10.3-17.6-27.1,0.2-37.3c8.9-5.1,20.6-7.7,32.3-7.7
		s23.3,2.6,32.2,7.7c17.7,10.3,17.6,27.1-0.2,37.3C-82.9,446.2-94.6,448.8-106.3,448.8z"/>
	<path class="st39" d="M-116.6,427.3c0,0-8.2,2.2-11.4,2.2c-3.2,0,0,3.2,5.4,3.6c5.4,0.4,10.3,0.7,11.4-0.7c1.1-1.4-0.3-5.5-0.3-5.5
		L-116.6,427.3z"/>
	<path class="st39" d="M-93.8,419.7c0,0-8.2,2.2-11.4,2.2s0,3.2,5.4,3.6s10.3,0.7,11.4-0.7c1.1-1.4-0.3-5.5-0.3-5.5L-93.8,419.7z"/>
	<path class="st40" d="M-92,331c0,0,3,81.6,3.4,90.2c0,0-2.3,1.9-5.2,1c0,0-9.6-53.6-11.1-67.4c-1.4-13.8-3.8-18.6-3.8-18.6L-92,331
		z"/>
	<path class="st40" d="M-122.4,335.8c0,0-2.9,47.1,5.8,92.8c0,0,2.9,1.4,5.2-1.9c0,0,5.2-80,6.7-91.5
		C-103.4,323.8-118.7,333.4-122.4,335.8L-122.4,335.8z"/>
	<path class="st40" d="M-109.6,372c0,0,4.8-13.3,9.1-20.5c4.3-7.1,3.3-17.6,3.3-17.6l-16.2,1.4L-109.6,372z"/>
	<path class="st12" d="M-126,289.2l-14.1-6.8c0,0-4.3-4.3-5.4-5.1c-1.1-0.9-8.2-2.6-9.4-2.3c-1.3,0.2-3.7,2.2-3,2.6
		c0.6,0.4,6.7,3.7,6.8,4.9c0.2,1.3-2.2,3-1.3,3.9c0.9,0.9,2.8-0.9,4-0.9s4.9,1.7,4.9,1.7l13.8,7.9L-126,289.2L-126,289.2z"/>
	<path class="st41" d="M-95.8,275.5c0,0-2.6-2.9-6.9,2.6c-4.3,5.5-7.8,13.6-13.8,12.9c-5.9-0.7-15.7-5.5-15.7-5.5s-4.3,2.9-3.6,7.1
		c0,0,13.8,10.3,23.1,9.8c9.3-0.4,19.2-10,21.4-16.6S-95.9,275.5-95.8,275.5L-95.8,275.5z"/>
	<path class="st41" d="M-124.5,335.7c0.9,4.2,13,6.4,20.1,5.3c7.1-1.2,14.7-4.6,14.5-12.9c0,0,1.1-33,1.1-39.5s-4-11.2-4-11.2
		s-4-4.6-16.5-2c0,0-10.2,2.2-14.9,9.8c0,0-3.2,8.3-2.2,25.5C-125.4,328.1-124.6,335.8-124.5,335.7L-124.5,335.7z"/>
	<path class="st16" d="M-99.6,266.2c0,0-1.1,6.3,0,9.2c0.2,1.4-6.1,6.3-11.7,5c-3.2-0.7-3.1-2.3-3.1-2.3s2.7-4.5,2.3-8.8
		C-112.4,264.9-103.4,265.3-99.6,266.2z"/>
	<path class="st12" d="M-120.6,253.5c0,8.2,6.7,14.8,14.8,14.8s14.8-6.7,14.8-14.8s-6.7-14.8-14.8-14.8S-120.6,245.3-120.6,253.5z"
		/>
	<path class="st12" d="M-120.6,254.5c0,0-0.2,14.9,3.1,17.9c3.2,3,8.2-2.8,16.2-4.7c7.9-2.1-6.5-17.5-6.5-17.5L-120.6,254.5z"/>
	<path class="st12" d="M-139,303.3c0,0-20.8-9.3-23.6-10.9c-2.8-1.6-4.9-7.4-5.9-8.5c-1.1-1.3-5.8-4-5.6-2.8
		c0.2,1.3,2.6,3.5,2.6,3.5s-1.7,3-2.1,4.9c-0.4,1.9,2.2,5.8,3.7,6.8c1.4,1.1,4.7,1.4,4.7,1.4s17,11.3,19.8,11.5
		C-142.6,309.4-138.5,307.8-139,303.3L-139,303.3z"/>
	<path class="st41" d="M-120.5,284.4c0,0-2.6-2.9-6.9,2.6s-7.8,13.6-13.8,12.9c-5.9-0.7-15.7-5.5-15.7-5.5s-4.3,2.9-3.6,7.1
		c0,0,13.8,10.3,23.1,9.8c9.3-0.4,19.2-10,21.4-16.6C-113.9,288-120.6,284.4-120.5,284.4L-120.5,284.4z"/>
	<path class="st19" d="M-114.7,241c0,0-5.3,1.2-7,9.3c0.7,3.5,5.6,0.7,7.5,5.3c1.9,4.7,3.1,6,3.1,6l1.2-0.4c0,0,0-3.7,1.6-3.7
		s2.1,4.4,1.2,6.3s-3.1,2.8-3.1,2.8s2.3,4,3.5,4.4c1.2,0.4,5.3-0.4,7-1.2c1.6-0.7,4.7-4,7-7.6c2.3-3.7,4.4-10.3,3.1-14.7
		c-1.4-4.4-4.7-5.6-4.7-5.6s-1.9-2.5-5.1-3.7S-108.8,236.6-114.7,241L-114.7,241z"/>
	<path class="st19" d="M-115.9,250.8c0,0,3.6,4.3,1.8,10.3c-1.8,6.1,0.7,6.1,3.2,13.9c2.5,7.8-4.7,17.2,2.2,28.6
		c6.7,11.4,25,10,33.2-1.4c8.2-11.4-4.7-19.6-5-30c-0.4-10.3,7.8-16.5-1.4-23.6s-13.2-15-24.6-11.8S-120.9,245.8-115.9,250.8z"/>
</g>
</svg>
