<?xml version="1.0" encoding="utf-8"?>
<!-- Generator: Adobe Illustrator 19.0.0, SVG Export Plug-In . SVG Version: 6.00 Build 0)  -->
<svg version="1.1" id="Layer_1" xmlns="http://www.w3.org/2000/svg" xmlns:xlink="http://www.w3.org/1999/xlink" x="0px" y="0px"
	 viewBox="0 0 244 226" style="enable-background:new 0 0 244 226;" xml:space="preserve">
<style type="text/css">
	.st0{fill:none;stroke:#F71E90;stroke-width:8;stroke-miterlimit:10;}
	.st1{fill:#3030E5;}
</style>
<path id="XMLID_3_" class="st0" d="M229,101.3c9.2,5.3,9.2,18.5,0,23.8l-75.1,43.3l-75.2,43.3c-9.1,5.3-20.6-1.3-20.6-11.9v-86.6
	V26.5c0-10.6,11.4-17.2,20.6-11.9L153.9,58L229,101.3z"/>
<path id="XMLID_1_" class="st1" d="M185,101.3c9.2,5.3,9.2,18.5,0,23.8l-75.1,43.3l-75.2,43.3c-9.1,5.3-20.6-1.3-20.6-11.9v-86.6
	V26.5c0-10.6,11.4-17.2,20.6-11.9L109.9,58L185,101.3z"/>
</svg>
