<?xml version="1.0" encoding="utf-8"?>
<!-- Generator: Adobe Illustrator 19.0.0, SVG Export Plug-In . SVG Version: 6.00 Build 0)  -->
<svg version="1.1" id="Layer_1" xmlns="http://www.w3.org/2000/svg" xmlns:xlink="http://www.w3.org/1999/xlink" x="0px" y="0px"
	 viewBox="0 0 90 131.7" style="enable-background:new 0 0 90 131.7;" xml:space="preserve">
<style type="text/css">
	.st0{fill:#3C2FEA;}
	.st1{display:none;fill:none;stroke:#3E3EDD;stroke-width:8;stroke-miterlimit:10;}
	.st2{display:none;fill:#3E3EDD;}
	.st3{display:none;opacity:0.44;fill:none;stroke:#121293;stroke-width:4;stroke-miterlimit:10;}
	.st4{display:none;fill:#6060C6;}
	.st5{display:none;fill:#A1A1E5;}
</style>
<path id="XMLID_46_" class="st0" d="M0,0c55,4.7,82.7,31,83.5,42.5c2.3,33.8-18.3,62.8-44.9,81.5S0,121.3,0,121.3V0z"/>
<circle id="XMLID_47_" class="st1" cx="49.4" cy="637.4" r="43.4"/>
<circle id="XMLID_54_" class="st2" cx="133.5" cy="194.5" r="16.5"/>
<path id="XMLID_56_" class="st2" d="M475.6,364c-46.3,0-64.6,26.6-64.6,53s18.6,53,64.6,53"/>
<ellipse id="XMLID_57_" class="st3" cx="36.2" cy="421" rx="13.2" ry="13"/>
<ellipse id="XMLID_60_" class="st3" cx="65.2" cy="643" rx="20.8" ry="20.6"/>
<path id="XMLID_61_" class="st4" d="M476,568L360.7,679c-8.8,8.5-8.2,22.9,1.3,30.6L476,802V568z"/>
<path id="XMLID_59_" class="st5" d="M0,327c35-33,139.2-73,238.2-72S407,297,476,296c0,60,0,60,0,60s97,3,0,0s-181-49.3-283-34.3
	S0,388.5,0,388.5V327z"/>
<path id="XMLID_53_" class="st5" d="M475.6,540c-129-22.4-239.6-48.5-314.6-32C86,524.5,0,576.1,0,576.1v-96
	c52.6-37.5,179.5-90.3,295.6-46.1s131.3,26.5,180.4,28C475.6,503.9,475.6,540,475.6,540"/>
</svg>
