<?xml version="1.0" encoding="utf-8"?>
<!-- Generator: Adobe Illustrator 19.0.0, SVG Export Plug-In . SVG Version: 6.00 Build 0)  -->
<svg version="1.1" id="Layer_1" xmlns="http://www.w3.org/2000/svg" xmlns:xlink="http://www.w3.org/1999/xlink" x="0px" y="0px"
	 viewBox="-434 215.3 90 131.7" style="enable-background:new -434 215.3 90 131.7;" xml:space="preserve">
<style type="text/css">
	.st0{fill:#3C2FEA;}
	.st1{display:none;fill:none;stroke:#3E3EDD;stroke-width:8;stroke-miterlimit:10;}
	.st2{display:none;fill:#3E3EDD;}
	.st3{display:none;opacity:0.44;fill:none;stroke:#121293;stroke-width:4;stroke-miterlimit:10;enable-background:new    ;}
	.st4{display:none;fill:#6060C6;}
	.st5{display:none;fill:#A1A1E5;}
</style>
<path id="XMLID_46_" class="st0" d="M-434,215.3c21.8,1.9,38.8,6.5,51.7,12.3c26.5,12,38.7,43.1,26.4,69.6
	c-8.1,17.5-23.3,30.7-39.6,42.1c-26.6,18.7-38.6-2.7-38.6-2.7V215.3z"/>
<circle id="XMLID_47_" class="st1" cx="-384.6" cy="852.7" r="43.4"/>
<circle id="XMLID_54_" class="st2" cx="-300.5" cy="409.8" r="16.5"/>
<path id="XMLID_56_" class="st2" d="M41.6,579.3c-46.3,0-64.6,26.6-64.6,53c0,26.4,18.6,53,64.6,53"/>
<ellipse id="XMLID_57_" class="st3" cx="-397.8" cy="636.3" rx="13.2" ry="13"/>
<ellipse id="XMLID_60_" class="st3" cx="-368.8" cy="858.3" rx="20.8" ry="20.6"/>
<path id="XMLID_61_" class="st4" d="M42,783.3l-115.3,111c-8.8,8.5-8.2,22.9,1.3,30.6l114,92.4V783.3z"/>
<path id="XMLID_59_" class="st5" d="M-434,542.3c35-33,139.2-73,238.2-72s168.8,42,237.8,41c0,60,0,60,0,60s97,3,0,0
	S-139,522-241,537s-193,66.8-193,66.8V542.3z"/>
<path id="XMLID_53_" class="st5" d="M41.6,755.3c-129-22.4-239.6-48.5-314.6-32s-161,68.1-161,68.1v-96
	c52.6-37.5,179.5-90.3,295.6-46.1c116.1,44.2,131.3,26.5,180.4,28C41.6,719.2,41.6,755.3,41.6,755.3"/>
</svg>
