<?xml version="1.0" encoding="utf-8"?>
<!-- Generator: Adobe Illustrator 19.0.0, SVG Export Plug-In . SVG Version: 6.00 Build 0)  -->
<svg version="1.1" id="Layer_1" xmlns="http://www.w3.org/2000/svg" xmlns:xlink="http://www.w3.org/1999/xlink" x="0px" y="0px"
	 viewBox="0 0 72.6 114" style="enable-background:new 0 0 72.6 114;" xml:space="preserve">
<style type="text/css">
	.st0{display:none;fill:#3C2FEA;}
	.st1{display:none;fill:none;stroke:#3E3EDD;stroke-width:8;stroke-miterlimit:10;}
	.st2{display:none;fill:#3E3EDD;}
	.st3{fill:#3E3EDD;}
	.st4{display:none;opacity:0.44;fill:none;stroke:#121293;stroke-width:4;stroke-miterlimit:10;}
	.st5{display:none;fill:#6060C6;}
	.st6{display:none;fill:#A1A1E5;}
</style>
<path id="XMLID_46_" class="st0" d="M-403-360c55,4.7,82.7,31,83.5,42.5c2.3,33.8-18.3,62.8-44.9,81.5c-26.7,18.7-38.6-2.7-38.6-2.7
	V-360z"/>
<circle id="XMLID_47_" class="st1" cx="-353.6" cy="277.4" r="43.4"/>
<circle id="XMLID_54_" class="st2" cx="-269.5" cy="-165.5" r="16.5"/>
<path id="XMLID_56_" class="st3" d="M72.6,4C26.3,4,8,30.6,8,57s18.6,53,64.6,53"/>
<ellipse id="XMLID_57_" class="st4" cx="-366.8" cy="61" rx="13.2" ry="13"/>
<ellipse id="XMLID_60_" class="st4" cx="-337.8" cy="283" rx="20.8" ry="20.6"/>
<path id="XMLID_61_" class="st5" d="M73,208L-42.3,319c-8.8,8.5-8.2,22.9,1.3,30.6L73,442V208z"/>
<path id="XMLID_59_" class="st6" d="M-403-33c35-33,139.2-73,238.2-72S4-63,73-64c0,60,0,60,0,60s97,3,0,0s-181-49.3-283-34.3
	s-193,66.8-193,66.8V-33z"/>
<path id="XMLID_53_" class="st6" d="M72.6,180c-129-22.4-239.6-48.5-314.6-32s-161,68.1-161,68.1v-96
	c52.6-37.5,179.5-90.3,295.6-46.1S23.9,100.5,73,102C72.6,143.9,72.6,180,72.6,180"/>
</svg>
