<?xml version="1.0" encoding="utf-8"?>
<!-- Generator: Adobe Illustrator 19.0.0, SVG Export Plug-In . SVG Version: 6.00 Build 0)  -->
<svg version="1.1" id="Layer_1" xmlns="http://www.w3.org/2000/svg" xmlns:xlink="http://www.w3.org/1999/xlink" x="0px" y="0px"
	 viewBox="0 0 476 189" style="enable-background:new 0 0 476 189;" xml:space="preserve">
<style type="text/css">
	.st0{display:none;fill:#3C2FEA;}
	.st1{display:none;fill:none;stroke:#3E3EDD;stroke-width:8;stroke-miterlimit:10;}
	.st2{display:none;fill:#3E3EDD;}
	.st3{display:none;opacity:0.44;fill:none;stroke:#121293;stroke-width:4;stroke-miterlimit:10;}
	.st4{display:none;fill:#6060C6;}
	.st5{display:none;fill:#A1A1E5;}
	.st6{fill:#A1A1E5;}
</style>
<path id="XMLID_46_" class="st0" d="M0-403.6c55,4.7,82.7,31,83.5,42.5c2.3,33.8-18.3,62.8-44.9,81.5C11.9-260.9,0-282.2,0-282.2
	V-403.6z"/>
<circle id="XMLID_47_" class="st1" cx="49.4" cy="233.8" r="43.4"/>
<circle id="XMLID_54_" class="st2" cx="133.5" cy="-209.1" r="16.5"/>
<path id="XMLID_56_" class="st2" d="M475.6-39.6c-46.3,0-64.6,26.6-64.6,53s18.6,53,64.6,53"/>
<ellipse id="XMLID_57_" class="st3" cx="36.2" cy="17.4" rx="13.2" ry="13"/>
<ellipse id="XMLID_60_" class="st3" cx="65.2" cy="239.4" rx="20.8" ry="20.6"/>
<path id="XMLID_61_" class="st4" d="M476,164.4l-115.3,111c-8.8,8.5-8.2,22.9,1.3,30.6l114,92.4V164.4z"/>
<path id="XMLID_59_" class="st5" d="M0-76.6c35-33,139.2-73,238.2-72s168.8,42,237.8,41c0,60,0,60,0,60s97,3,0,0S295-96.8,193-81.8
	S0-15.1,0-15.1V-76.6z"/>
<path id="XMLID_53_" class="st6" d="M475.6,136.4C346.6,114,236,87.9,161,104.4S0,172.5,0,172.5v-96C52.6,39,179.5-13.8,295.6,30.4
	s131.3,26.5,180.4,28C475.6,100.3,475.6,136.4,475.6,136.4"/>
</svg>
