<?xml version="1.0" encoding="utf-8"?>
<!-- Generator: Adobe Illustrator 19.0.0, SVG Export Plug-In . SVG Version: 6.00 Build 0)  -->
<svg version="1.1" xmlns="http://www.w3.org/2000/svg" xmlns:xlink="http://www.w3.org/1999/xlink" x="0px" y="0px"
	 viewBox="0 0 450 450" style="enable-background:new 0 0 450 450;" xml:space="preserve">
<style type="text/css">
	.st0{fill:#FFFFFF;}
	.st1{fill:#414042;}
	.st2{fill:#7BA565;}
	.st3{fill:#3B4350;}
	.st4{fill:#E46A5D;}
	.st5{fill:#F1B14F;}
	.st6{fill:#77A8D8;}
	.st7{fill:#BF5151;}
	.st8{fill:#D1D3D4;}
	.st9{fill:#FFCD52;}
	.st10{fill:#DBAD49;}
	.st11{opacity:0.5;fill:#939598;}
	.st12{fill:#464646;}
	.st13{opacity:0.5;}
	.st14{fill:#939598;}
</style>
<g id="Layer_4">
	<g>
		<rect class="st0" width="450" height="450"/>
	</g>
</g>
<g id="Layer_5">
	<g>
		<rect x="169" y="137.8" class="st1" width="1" height="16"/>
	</g>
	<g>
		<g>
			<path class="st2" d="M68,81.7c2.7,1.4,5.9,0.2,7.1-2.6l7.7-17.9c0.8-1.9,0.3-4.6-1.2-6L56.8,30.3c-1.5-1.5-4.2-2-6-1.1l-17.9,7.8
				c-2.8,1.2-4,4.4-2.6,7.1l2.5,4.9c0.9,1.8,3.4,3.1,5.4,2.8l5.6-1.7c2-0.3,4.9,0.6,6.3,2.1l9.8,9.8c1.5,1.5,2.4,4.3,2.1,6.3
				l-1.7,5.5c-0.3,2,0.9,4.4,2.8,5.4C63.1,79.2,65.3,80.3,68,81.7z"/>
		</g>
		<g>
			<g>
				<path class="st3" d="M57.6,42.7L55.9,41c-0.3-0.3-0.3-0.9,0-1.2l1.7-1.7c0.3-0.3,0.3-0.9,0-1.2l-2.3-2.3c-0.3-0.3-0.8-0.3-1.2,0
					l-1.7,1.7c-0.3,0.3-0.8,0.3-1.2,0l-1.7-1.7c-0.3-0.3-0.9-0.3-1.2,0L46.2,37c-0.3,0.3-0.3,0.8,0,1.2l1.7,1.7
					c0.3,0.3,0.3,0.8,0,1.2l-1.7,1.7c-0.3,0.3-0.3,0.9,0,1.2l2.3,2.3c0.3,0.3,0.8,0.3,1.2,0l1.7-1.7c0.3-0.3,0.9-0.3,1.2,0l1.7,1.7
					c0.3,0.3,0.9,0.3,1.2,0l2.3-2.3C57.9,43.6,57.9,43,57.6,42.7z"/>
				<path class="st3" d="M54.7,46.5L54.7,46.5c-0.2,0-0.5-0.1-0.7-0.3l-1.7-1.7c-0.3-0.3-0.8-0.3-1,0l-1.7,1.7
					c-0.2,0.2-0.4,0.3-0.7,0.3c-0.2,0-0.5-0.1-0.7-0.3L46.1,44c-0.2-0.2-0.3-0.4-0.3-0.7c0-0.2,0.1-0.5,0.3-0.7l1.7-1.7
					c0.3-0.3,0.3-0.7,0-1l-1.7-1.7c-0.2-0.2-0.3-0.4-0.3-0.7c0-0.2,0.1-0.5,0.3-0.7l2.3-2.3c0.2-0.2,0.4-0.3,0.7-0.3
					c0.2,0,0.5,0.1,0.7,0.3l1.7,1.7c0.3,0.3,0.8,0.3,1,0l1.7-1.7c0.2-0.2,0.4-0.3,0.7-0.3c0.2,0,0.5,0.1,0.7,0.3l2.3,2.3
					c0.2,0.2,0.3,0.4,0.3,0.7c0,0.2-0.1,0.5-0.3,0.7L56,39.9c-0.3,0.3-0.3,0.7,0,1l1.7,1.7c0.2,0.2,0.3,0.4,0.3,0.7
					c0,0.2-0.1,0.5-0.3,0.7l-2.3,2.3C55.2,46.4,55,46.5,54.7,46.5z M51.9,44.2c0.2,0,0.5,0.1,0.7,0.3l1.7,1.7
					c0.1,0.1,0.3,0.2,0.5,0.2l0,0c0.2,0,0.4-0.1,0.5-0.2l2.3-2.3c0.1-0.1,0.2-0.3,0.2-0.5c0-0.2-0.1-0.4-0.2-0.5l-1.7-1.7
					c-0.4-0.4-0.4-1,0-1.3l1.7-1.7c0.1-0.1,0.2-0.3,0.2-0.5c0-0.2-0.1-0.4-0.2-0.5l-2.3-2.3c-0.3-0.3-0.8-0.3-1,0l-1.7,1.7
					c-0.2,0.2-0.4,0.3-0.7,0.3c-0.2,0-0.5-0.1-0.7-0.3l-1.7-1.7c-0.3-0.3-0.8-0.3-1,0l-2.3,2.3c-0.1,0.1-0.2,0.3-0.2,0.5
					c0,0.2,0.1,0.4,0.2,0.5l1.7,1.7c0.4,0.4,0.4,1,0,1.3l-1.7,1.7c-0.1,0.1-0.2,0.3-0.2,0.5c0,0.2,0.1,0.4,0.2,0.5l2.3,2.3
					c0.3,0.3,0.8,0.3,1,0l1.7-1.7C51.4,44.3,51.6,44.2,51.9,44.2z"/>
			</g>
		</g>
		<g>
			<g>
				<circle class="st4" cx="70.1" cy="53.3" r="2.6"/>
				<path class="st4" d="M70.1,56c-0.7,0-1.4-0.3-1.9-0.8c-0.5-0.5-0.8-1.2-0.8-1.9s0.3-1.4,0.8-1.9c0.5-0.5,1.2-0.8,1.9-0.8
					s1.4,0.3,1.9,0.8c0.5,0.5,0.8,1.2,0.8,1.9c0,0.7-0.3,1.4-0.8,1.9C71.5,55.8,70.8,56,70.1,56z M70.1,50.8c-0.7,0-1.3,0.3-1.8,0.7
					c-0.5,0.5-0.7,1.1-0.7,1.8c0,0.7,0.3,1.3,0.7,1.8c0.5,0.5,1.1,0.7,1.8,0.7c0.7,0,1.3-0.3,1.8-0.7c0.5-0.5,0.7-1.1,0.7-1.8
					c0-0.7-0.3-1.3-0.7-1.8C71.4,51,70.8,50.8,70.1,50.8z"/>
			</g>
		</g>
		<g>
			<g>
				<circle class="st5" cx="76.3" cy="59.5" r="2.6"/>
				<path class="st5" d="M76.3,62.2c-0.7,0-1.4-0.3-1.9-0.8c-1.1-1.1-1.1-2.8,0-3.9c0.5-0.5,1.2-0.8,1.9-0.8c0.7,0,1.4,0.3,1.9,0.8
					c0.5,0.5,0.8,1.2,0.8,1.9s-0.3,1.4-0.8,1.9C77.7,62,77,62.2,76.3,62.2z M76.3,57c-0.7,0-1.3,0.3-1.8,0.7c-1,1-1,2.6,0,3.6
					c0.5,0.5,1.1,0.7,1.8,0.7s1.3-0.3,1.8-0.7c0.5-0.5,0.7-1.1,0.7-1.8c0-0.7-0.3-1.3-0.7-1.8C77.6,57.2,77,57,76.3,57z"/>
			</g>
		</g>
		<g>
			<g>
				<circle class="st5" cx="66.6" cy="60.5" r="2.6"/>
				<path class="st5" d="M66.6,63.3c-0.7,0-1.4-0.3-1.9-0.8c-1.1-1.1-1.1-2.8,0-3.9c0.5-0.5,1.2-0.8,1.9-0.8c0.7,0,1.4,0.3,1.9,0.8
					c1.1,1.1,1.1,2.8,0,3.9C68,63,67.3,63.3,66.6,63.3z M66.6,58c-0.7,0-1.3,0.3-1.8,0.7c-1,1-1,2.6,0,3.6c0.5,0.5,1.1,0.7,1.8,0.7
					c0.7,0,1.3-0.3,1.8-0.7c1-1,1-2.6,0-3.6C67.9,58.3,67.3,58,66.6,58z"/>
			</g>
		</g>
		<g>
			<g>
				<circle class="st5" cx="72.8" cy="66.7" r="2.6"/>
				<path class="st5" d="M72.8,69.5c-0.7,0-1.4-0.3-1.9-0.8c-1.1-1.1-1.1-2.8,0-3.9c0.5-0.5,1.2-0.8,1.9-0.8c0.7,0,1.4,0.3,1.9,0.8
					c0.5,0.5,0.8,1.2,0.8,1.9c0,0.7-0.3,1.4-0.8,1.9C74.2,69.2,73.5,69.5,72.8,69.5z M72.8,64.2c-0.7,0-1.3,0.3-1.8,0.7
					c-1,1-1,2.6,0,3.6c0.5,0.5,1.1,0.7,1.8,0.7c0.7,0,1.3-0.3,1.8-0.7c0.5-0.5,0.7-1.1,0.7-1.8c0-0.7-0.3-1.3-0.7-1.8
					C74.1,64.5,73.5,64.2,72.8,64.2z"/>
			</g>
		</g>
		<path class="st3" d="M75.1,38.9l10.3-10.3l-2.1-2.1L73,36.8l-0.2-0.2c-0.2-0.2-0.4-0.2-0.6-0.2c-0.2,0-0.4,0.1-0.5,0.2l-5.5,4.5
			c-0.2,0.1-0.3,0.3-0.3,0.5c0,0.2,0.1,0.4,0.2,0.5l3.8,3.8c0.1,0.1,0.3,0.2,0.5,0.2c0.2,0,0.4-0.1,0.5-0.3l4.5-5.5
			c0.3-0.3,0.2-0.8-0.1-1.1L75.1,38.9z"/>
	</g>
	<g>
		<g>
			<path class="st6" d="M179.8,57.7c0,5.6-4.6,10.1-10.3,10.1l0,0c-5.7,0-10.3-4.5-10.3-10.1V34.6c0-5.6,4.6-10.1,10.3-10.1l0,0
				c5.7,0,10.3,4.5,10.3,10.1V57.7z"/>
		</g>
		<path class="st1" d="M180.7,41.6h-22.4c-0.5,0-0.8,0.4-0.8,0.8v10c0,0.5,0.4,0.8,0.8,0.8h22.4c0.5,0,0.8-0.4,0.8-0.8v-10
			C181.6,42,181.2,41.6,180.7,41.6z"/>
		<g>
			<circle class="st1" cx="163.7" cy="38" r="1.4"/>
			<circle class="st1" cx="167.7" cy="38" r="1.4"/>
			<circle class="st1" cx="175.6" cy="38" r="1.4"/>
			<circle class="st1" cx="163.7" cy="34.7" r="1.4"/>
			<circle class="st1" cx="167.7" cy="34.7" r="1.4"/>
			<circle class="st1" cx="167.7" cy="31.4" r="1.4"/>
			<circle class="st1" cx="171.6" cy="38" r="1.4"/>
			<circle class="st1" cx="171.6" cy="34.7" r="1.4"/>
			<circle class="st1" cx="171.6" cy="31.4" r="1.4"/>
			<circle class="st1" cx="175.6" cy="34.7" r="1.4"/>
			<circle class="st1" cx="163.7" cy="31.4" r="1.4"/>
			<circle class="st1" cx="167.7" cy="28.2" r="1.4"/>
			<circle class="st1" cx="171.6" cy="28.2" r="1.4"/>
			<circle class="st1" cx="175.6" cy="31.4" r="1.4"/>
		</g>
		<path class="st1" d="M190.4,47.8c0-2.4-1.9-4.3-4.2-4.5c-0.1,0-0.2,0-0.3,0c-0.9,0-1.6,0.7-1.6,1.6v5.8v7.1
			c0,7.9-6.6,14.4-14.7,14.4c-8.1,0-14.7-6.5-14.7-14.4v-7.1v-5.8c0-0.9-0.7-1.6-1.6-1.6c-0.1,0-0.2,0-0.3,0
			c-2.3,0.2-4.2,2.1-4.2,4.5c0,1.9,1.2,3.5,2.9,4.2v5.7c0,9.2,7.2,16.8,16.4,17.6v6.4h-11.3c-1.3,0-2.3,1-2.3,2.3s1,2.3,2.3,2.3
			h25.9c1.3,0,2.3-1,2.3-2.3s-1-2.3-2.3-2.3h-11.3v-6.4c9.2-0.8,16.4-8.4,16.4-17.6V52C189.2,51.3,190.4,49.7,190.4,47.8z"/>
	</g>
	<g>
		<g>
			<path class="st7" d="M314.2,51.4c-0.2-0.2-0.5-0.4-0.8-0.4c-6.4,0-11.3-2.1-15.7-4c-3.4-1.5-6.2-2.7-9.2-2.7
				c-2.3,0-4.5,0.9-6.5,2.6c-2-1.7-4.1-2.6-6.5-2.6c-2.9,0-5.8,1.3-9.2,2.7c-4.4,1.9-9.3,4-15.7,4c-0.3,0-0.6,0.1-0.8,0.4
				c-0.2,0.2-0.3,0.5-0.2,0.8l8,32c0.1,0.4,0.5,0.7,0.9,0.7c3.9,0,7.2-0.9,10.2-1.8c2.4-0.7,4.7-1.3,6.8-1.3c2.2,0,4,0.7,5.7,2.1
				c0,0,0,0,0,0c0,0,0,0,0,0c0,0,0.1,0,0.1,0.1c0,0,0.1,0.1,0.1,0.1c0,0,0,0,0,0c0.1,0,0.2,0.1,0.3,0.1c0,0,0.1,0,0.1,0
				c0,0,0.1,0,0.1,0c0.1,0,0.2,0,0.3-0.1c0,0,0,0,0,0c0.1,0,0.1-0.1,0.1-0.1c0,0,0.1,0,0.1-0.1c0,0,0,0,0,0c0,0,0,0,0,0
				c1.8-1.5,3.6-2.1,5.7-2.1c2.1,0,4.4,0.6,6.8,1.3c3,0.8,6.3,1.8,10.2,1.8c0.5,0,0.8-0.3,0.9-0.7l8-32
				C314.5,51.9,314.4,51.6,314.2,51.4z"/>
			<path class="st8" d="M282.1,44.9c-8.2-8.4-15.1,3.8-29.9,3.8l7.6,32c9.4,0,15.7-6.4,22.3-0.7c6.6-5.7,12.8,0.7,22.3,0.7l7.6-32
				C297.2,48.7,290.3,36.5,282.1,44.9z"/>
			<g>
				<g>
					<path class="st1" d="M260.2,54.9c-1,0-1.7-0.4-2.3-0.8c-0.7-0.4-1.1-0.7-1.9-0.5c-0.5,0.1-1-0.2-1.1-0.7
						c-0.1-0.5,0.2-1,0.7-1.1c1.5-0.4,2.5,0.2,3.2,0.7c0.7,0.4,1.1,0.7,1.9,0.5c0.8-0.2,1-0.6,1.4-1.3c0.5-0.8,1.1-1.7,2.6-2.1
						c1.5-0.4,2.5,0.2,3.2,0.7c0.7,0.4,1.1,0.7,1.9,0.5c0.8-0.2,1-0.6,1.4-1.3c0.5-0.8,1.1-1.7,2.6-2.1c1.5-0.4,2.5,0.2,3.2,0.7
						c0.7,0.4,1.1,0.7,1.9,0.5c0.5-0.1,1,0.2,1.1,0.7c0.1,0.5-0.2,1-0.7,1.1c-1.5,0.4-2.5-0.2-3.3-0.7c-0.7-0.4-1.1-0.7-1.9-0.5
						c-0.8,0.2-1,0.6-1.4,1.3c-0.5,0.8-1.1,1.7-2.6,2.1c-1.5,0.4-2.5-0.2-3.3-0.7c-0.7-0.4-1.1-0.7-1.9-0.5c-0.8,0.2-1,0.6-1.4,1.3
						c-0.5,0.8-1.1,1.7-2.6,2.1C260.8,54.8,260.5,54.9,260.2,54.9z"/>
				</g>
				<g>
					<path class="st1" d="M262,62.1c-1,0-1.7-0.5-2.3-0.9c-0.7-0.4-1-0.6-1.6-0.5c-0.5,0.1-1-0.2-1.1-0.7c-0.1-0.5,0.2-1,0.7-1.1
						c1.4-0.3,2.4,0.3,3.1,0.8c0.7,0.4,1,0.6,1.6,0.5c0.6-0.1,0.8-0.5,1.2-1.2c0.4-0.7,1-1.7,2.4-2.1c1.4-0.3,2.4,0.3,3.1,0.8
						c0.7,0.4,1,0.6,1.6,0.5c0.6-0.1,0.8-0.5,1.2-1.2c0.4-0.7,1-1.7,2.4-2.1c1.4-0.3,2.4,0.3,3.1,0.8c0.7,0.4,1,0.6,1.6,0.5
						c0.5-0.1,1,0.2,1.1,0.7c0.1,0.5-0.2,1-0.7,1.1c-1.4,0.3-2.4-0.3-3.1-0.8c-0.7-0.4-1-0.6-1.6-0.5c-0.6,0.1-0.8,0.5-1.2,1.2
						c-0.4,0.7-1,1.7-2.4,2.1c-1.4,0.3-2.4-0.3-3.1-0.8c-0.7-0.4-1-0.6-1.6-0.5c-0.6,0.1-0.8,0.5-1.2,1.2c-0.4,0.7-1,1.7-2.4,2.1
						C262.5,62,262.3,62.1,262,62.1z"/>
				</g>
				<g>
					<path class="st1" d="M263.2,69.3c-1,0-1.7-0.5-2.2-0.9c-0.6-0.4-0.9-0.6-1.4-0.5c-0.5,0.1-1-0.2-1.1-0.7
						c-0.1-0.5,0.2-1,0.7-1.1c1.4-0.3,2.3,0.3,3,0.8c0.6,0.4,0.9,0.6,1.4,0.5c0.5-0.1,0.7-0.4,1-1.1c0.4-0.7,0.9-1.7,2.3-2.1
						c1.4-0.3,2.3,0.3,3,0.8c0.6,0.4,0.9,0.6,1.4,0.5c0.5-0.1,0.7-0.4,1-1.1c0.4-0.7,0.9-1.7,2.3-2.1c1.4-0.3,2.3,0.3,3,0.8
						c0.6,0.4,0.9,0.6,1.4,0.5c0.5-0.1,1,0.2,1.1,0.7c0.1,0.5-0.2,1-0.7,1.1c-1.4,0.3-2.3-0.3-3-0.8c-0.6-0.4-0.9-0.6-1.4-0.5
						c-0.5,0.1-0.7,0.4-1,1.1c-0.4,0.7-0.9,1.7-2.3,2.1c-1.4,0.3-2.3-0.3-3-0.8c-0.6-0.4-0.9-0.6-1.4-0.5c-0.5,0.1-0.7,0.4-1,1.1
						c-0.4,0.7-0.9,1.7-2.3,2.1C263.7,69.3,263.5,69.3,263.2,69.3z"/>
				</g>
				<g>
					<path class="st1" d="M264.8,76.6c-1,0-1.7-0.5-2.2-0.9c-0.6-0.5-0.9-0.6-1.3-0.5c-0.5,0.1-1-0.2-1.1-0.7
						c-0.1-0.5,0.2-1,0.7-1.1c1.3-0.3,2.2,0.4,2.9,0.9c0.6,0.5,0.9,0.6,1.3,0.5c0.4-0.1,0.6-0.4,0.9-1.1c0.3-0.7,0.8-1.7,2.2-2.1
						c1.3-0.3,2.2,0.4,2.9,0.9c0.6,0.5,0.9,0.6,1.3,0.5c0.4-0.1,0.6-0.4,0.9-1.1c0.3-0.7,0.8-1.7,2.2-2.1c1.3-0.3,2.2,0.4,2.9,0.9
						c0.6,0.5,0.9,0.6,1.3,0.5c0.5-0.1,1,0.2,1.1,0.7c0.1,0.5-0.2,1-0.7,1.1c-1.3,0.3-2.2-0.4-2.9-0.9c-0.6-0.5-0.9-0.6-1.3-0.5
						c-0.4,0.1-0.6,0.4-0.9,1.1c-0.3,0.7-0.8,1.7-2.2,2.1c-1.3,0.3-2.2-0.4-2.9-0.9c-0.6-0.5-0.9-0.6-1.3-0.5
						c-0.4,0.1-0.6,0.4-0.9,1.1c-0.3,0.7-0.8,1.7-2.2,2.1C265.2,76.5,265,76.6,264.8,76.6z"/>
				</g>
				<g>
					<path class="st1" d="M307.8,55.9c-0.1,0-0.1,0-0.2,0c-1.5-0.4-2.1-1.3-2.6-2.1c-0.4-0.6-0.7-1.1-1.4-1.3
						c-0.8-0.2-1.2,0.1-1.9,0.5c-0.8,0.5-1.7,1-3.2,0.7c-1.5-0.4-2.1-1.3-2.6-2.1c-0.4-0.6-0.7-1.1-1.4-1.3
						c-0.8-0.2-1.2,0.1-1.9,0.5c-0.8,0.5-1.7,1-3.2,0.7c-1.5-0.4-2.1-1.3-2.6-2.1c-0.4-0.6-0.7-1.1-1.4-1.3
						c-0.5-0.1-0.8-0.6-0.7-1.1c0.1-0.5,0.6-0.8,1.1-0.7c1.5,0.4,2.1,1.3,2.6,2.1c0.4,0.6,0.7,1.1,1.4,1.3c0.8,0.2,1.2-0.1,1.9-0.5
						c0.8-0.5,1.7-1,3.2-0.7c1.5,0.4,2.1,1.3,2.6,2.1c0.4,0.6,0.7,1.1,1.4,1.3c0.8,0.2,1.2-0.1,1.9-0.5c0.8-0.5,1.7-1,3.2-0.7
						c1.5,0.4,2.1,1.3,2.6,2.1c0.4,0.6,0.7,1.1,1.4,1.3c0.5,0.1,0.8,0.6,0.7,1.1C308.6,55.6,308.2,55.9,307.8,55.9z"/>
				</g>
				<g>
					<path class="st1" d="M305.7,63c-0.1,0-0.1,0-0.2,0c-1.4-0.3-2-1.3-2.4-2.1c-0.4-0.7-0.6-1-1.2-1.2c-0.6-0.1-1,0.1-1.6,0.5
						c-0.7,0.5-1.6,1.1-3.1,0.8c-1.4-0.3-2-1.3-2.4-2.1c-0.4-0.7-0.6-1-1.2-1.2c-0.6-0.1-1,0.1-1.6,0.5c-0.7,0.5-1.6,1.1-3.1,0.8
						c-1.4-0.3-2-1.3-2.4-2.1c-0.4-0.7-0.6-1-1.2-1.2c-0.5-0.1-0.8-0.6-0.7-1.1c0.1-0.5,0.6-0.8,1.1-0.7c1.4,0.3,2,1.3,2.4,2.1
						c0.4,0.7,0.6,1,1.2,1.2c0.6,0.1,1-0.1,1.6-0.5c0.7-0.5,1.6-1.1,3.1-0.8c1.4,0.3,2,1.3,2.4,2.1c0.4,0.7,0.6,1,1.2,1.2
						c0.6,0.1,1-0.1,1.6-0.5c0.7-0.5,1.6-1.1,3.1-0.8c1.4,0.3,2,1.3,2.4,2.1c0.4,0.7,0.6,1,1.2,1.2c0.5,0.1,0.8,0.6,0.7,1.1
						C306.5,62.7,306.2,63,305.7,63z"/>
				</g>
				<g>
					<path class="st1" d="M304.3,70.1c-0.1,0-0.1,0-0.2,0c-1.4-0.3-1.9-1.3-2.3-2.1c-0.3-0.7-0.5-1-1-1.1c-0.5-0.1-0.8,0.1-1.4,0.5
						c-0.7,0.5-1.6,1.1-3,0.8c-1.4-0.3-1.9-1.3-2.3-2.1c-0.3-0.7-0.5-1-1-1.1c-0.5-0.1-0.8,0.1-1.4,0.5c-0.7,0.5-1.6,1.1-3,0.8
						c-1.4-0.3-1.9-1.3-2.3-2.1c-0.3-0.7-0.5-1-1-1.1c-0.5-0.1-0.8-0.6-0.7-1.1c0.1-0.5,0.6-0.8,1.1-0.7c1.4,0.3,1.9,1.3,2.3,2.1
						c0.3,0.7,0.5,1,1,1.1c0.5,0.1,0.8-0.1,1.4-0.5c0.7-0.5,1.6-1.1,3-0.8c1.4,0.3,1.9,1.3,2.3,2.1c0.3,0.7,0.5,1,1,1.1
						c0.5,0.1,0.8-0.1,1.4-0.5c0.7-0.5,1.6-1.1,3-0.8c1.4,0.3,1.9,1.3,2.3,2.1c0.3,0.7,0.5,1,1,1.1c0.5,0.1,0.8,0.6,0.7,1.1
						C305.1,69.9,304.7,70.1,304.3,70.1z"/>
				</g>
				<g>
					<path class="st1" d="M302.6,77.4c-0.1,0-0.1,0-0.2,0c-1.3-0.3-1.8-1.3-2.2-2.1c-0.3-0.7-0.5-1-0.9-1.1
						c-0.4-0.1-0.7,0.1-1.3,0.5c-0.6,0.5-1.5,1.2-2.9,0.9c-1.3-0.3-1.8-1.3-2.2-2.1c-0.3-0.7-0.5-0.9-0.9-1.1
						c-0.4-0.1-0.7,0.1-1.3,0.5c-0.6,0.5-1.5,1.2-2.9,0.9c-1.3-0.3-1.8-1.3-2.2-2.1c-0.3-0.7-0.5-1-0.9-1.1
						c-0.5-0.1-0.8-0.6-0.7-1.1c0.1-0.5,0.6-0.8,1.1-0.7c1.3,0.3,1.8,1.3,2.2,2.1c0.3,0.7,0.5,0.9,0.9,1.1c0.4,0.1,0.7-0.1,1.3-0.5
						c0.6-0.5,1.5-1.2,2.9-0.9c1.3,0.3,1.8,1.3,2.2,2.1c0.3,0.7,0.5,0.9,0.9,1.1c0.4,0.1,0.7-0.1,1.3-0.5c0.6-0.5,1.5-1.2,2.9-0.9
						c1.3,0.3,1.8,1.3,2.2,2.1c0.3,0.7,0.5,0.9,0.9,1.1c0.5,0.1,0.8,0.6,0.7,1.1C303.4,77.1,303,77.4,302.6,77.4z"/>
				</g>
			</g>
		</g>
		<path class="st7" d="M296,25.1h-5.4c-2,0-3.9,0.9-5.1,2.4c-2.1-1-4.6-1-6.7,0c-1.2-1.5-3.1-2.4-5.1-2.4h-5.4c-3.7,0-6.7,3-6.7,6.7
			s3,6.7,6.7,6.7h5.4c3.7,0,6.7-3,6.7-6.7c0-1-0.2-1.9-0.6-2.7c1.5-0.7,3.2-0.7,4.7,0c-0.4,0.8-0.6,1.7-0.6,2.7c0,3.7,3,6.7,6.7,6.7
			h5.4c3.7,0,6.7-3,6.7-6.7S299.7,25.1,296,25.1z M273.7,36.6h-5.4c-2.7,0-4.8-2.2-4.8-4.8s2.2-4.8,4.8-4.8h5.4
			c2.6,0,4.8,2.2,4.8,4.8S276.3,36.6,273.7,36.6z M296,36.6h-5.4c-2.7,0-4.8-2.2-4.8-4.8c0-0.9,0.3-1.8,0.7-2.5c0,0,0,0,0.1,0
			c0-0.1,0-0.1,0.1-0.2c0.9-1.3,2.3-2.1,4-2.1h5.4c2.7,0,4.8,2.2,4.8,4.8S298.6,36.6,296,36.6z"/>
		<path class="st6" d="M300.8,31.8c0,2.6-2.2,4.8-4.8,4.8h-5.4c-2.7,0-4.8-2.2-4.8-4.8c0-0.9,0.3-1.8,0.7-2.5c0,0,0,0,0.1,0
			c0-0.1,0-0.1,0.1-0.2c0.9-1.3,2.3-2.1,4-2.1h5.4C298.6,27,300.8,29.1,300.8,31.8z"/>
		<path class="st6" d="M278.5,31.8c0,2.6-2.2,4.8-4.8,4.8h-5.4c-2.7,0-4.8-2.2-4.8-4.8s2.2-4.8,4.8-4.8h5.4
			C276.3,27,278.5,29.1,278.5,31.8z"/>
	</g>
	<g>
		<g>
			<path class="st7" d="M421.7,78.3c0,2.2-1.8,4-4,4h-45.9c-2.2,0-4-1.8-4-4V45.6c0-2.2,1.8-4,4-4h45.9c2.2,0,4,1.8,4,4V78.3z"/>
		</g>
		<g>
			<path class="st6" d="M410.1,76.9c0,1.3-1.2,2.4-2.7,2.4h-33.9c-1.5,0-2.7-1.1-2.7-2.4V47c0-1.3,1.2-2.4,2.7-2.4h33.9
				c1.5,0,2.7,1.1,2.7,2.4V76.9z"/>
		</g>
		<g>
			<circle class="st9" cx="415.8" cy="57.9" r="1.5"/>
		</g>
		<g>
			<circle class="st9" cx="415.8" cy="63.3" r="1.5"/>
		</g>
		<g>
			<circle class="st9" cx="415.8" cy="68.8" r="1.5"/>
		</g>
		<g>
			<g>
				<circle class="st3" cx="415.8" cy="75.9" r="2.2"/>
			</g>
		</g>
		<g>
			<path class="st1" d="M398.5,37.4l7.3-7.3l-1.3-1.3l-7.4,7.4l0.7,0.7c-0.9-0.6-2.1-1-3.3-1c-0.9,0-1.7,0.2-2.4,0.6l0.2-0.2
				l-7.4-7.4l-1.3,1.3l7.1,7.1c-1.2,1.1-2,2.6-2,4.3h11.5C400.3,40,399.6,38.5,398.5,37.4z"/>
			<g>
				<circle class="st4" cx="384.2" cy="29.5" r="1.9"/>
			</g>
			<g>
				<circle class="st4" cx="405.1" cy="29.5" r="1.9"/>
			</g>
		</g>
		<g>
			<g>
				<path class="st9" d="M382.7,56.6h-4.6V55h11.3v1.7h-4.7v13.6h-2V56.6z"/>
			</g>
			<g>
				<path class="st9" d="M395.3,70.2l-5-15.2h2.1l2.4,7.5c0.6,2.1,1.2,3.9,1.6,5.7h0.1c0.4-1.8,1-3.7,1.7-5.7l2.6-7.5h2.1l-5.4,15.2
					H395.3z"/>
			</g>
		</g>
	</g>
	<g>
		<g>
			<path class="st9" d="M67.3,147.5c-10.8,0-19.6-2.9-19.6-6.4c0,26.1,8.8,47.3,19.6,47.3c10.8,0,19.6-21.2,19.6-47.3
				C86.9,144.6,78.1,147.5,67.3,147.5z"/>
		</g>
		<g>
			<g>
				<path class="st1" d="M62.8,161.2c-0.3,0-0.5-0.1-0.8-0.3l-5.7-3.9c-0.7-0.5-1-1.6-0.5-2.4c0.4-0.8,1.4-1.1,2.1-0.6l5.7,3.9
					c0.7,0.5,1,1.6,0.5,2.4C63.8,160.9,63.3,161.2,62.8,161.2z"/>
			</g>
			<g>
				<path class="st1" d="M71.7,161.2c-0.5,0-1-0.3-1.3-0.8c-0.4-0.8-0.2-1.9,0.5-2.4l5.7-3.9c0.7-0.5,1.7-0.2,2.1,0.6
					c0.4,0.8,0.2,1.9-0.5,2.4l-5.7,3.9C72.3,161.1,72,161.2,71.7,161.2z"/>
			</g>
		</g>
		<g>
			<path class="st1" d="M73.9,176.8c-0.3,0-0.6-0.1-0.8-0.3c-3.5-2.6-8.1-2.6-11.6,0c-0.7,0.5-1.7,0.3-2.1-0.5
				c-0.5-0.8-0.3-1.9,0.4-2.4c4.5-3.3,10.4-3.3,15,0c0.7,0.5,0.9,1.6,0.4,2.4C74.9,176.5,74.4,176.8,73.9,176.8z"/>
		</g>
		<g>
			<path class="st6" d="M46.7,154.8c-10.8,0-19.6-2.9-19.6-6.4c0,26.1,8.8,47.3,19.6,47.3c10.8,0,19.6-21.2,19.6-47.3
				C66.3,151.9,57.5,154.8,46.7,154.8z"/>
		</g>
		<g>
			<g>
				<path class="st1" d="M36.5,169.6c-0.5,0-1-0.3-1.3-0.8c-0.4-0.8-0.2-1.9,0.5-2.4l5.7-3.9c0.7-0.5,1.7-0.2,2.1,0.6
					c0.4,0.8,0.2,1.9-0.5,2.4l-5.7,3.9C37,169.5,36.8,169.6,36.5,169.6z"/>
			</g>
			<g>
				<path class="st1" d="M56.8,169.6c-0.3,0-0.5-0.1-0.8-0.3l-5.7-3.9c-0.7-0.5-1-1.6-0.5-2.4c0.4-0.8,1.4-1.1,2.1-0.6l5.7,3.9
					c0.7,0.5,1,1.6,0.5,2.4C57.9,169.3,57.4,169.6,56.8,169.6z"/>
			</g>
		</g>
		<g>
			<path class="st1" d="M46.7,185.2c-2.6,0-5.2-0.8-7.5-2.5c-0.7-0.5-0.9-1.6-0.4-2.4c0.5-0.8,1.4-1,2.1-0.5c3.5,2.6,8.1,2.6,11.6,0
				c0.7-0.5,1.7-0.3,2.1,0.5c0.5,0.8,0.3,1.9-0.4,2.4C51.9,184.4,49.3,185.2,46.7,185.2z"/>
		</g>
	</g>
	<g>
		<g>
			<path class="st9" d="M187.7,167.6h-18.1h-18.1c0.6,19.2-11.3,31.2-11.3,31.2h29.4H199C199,198.8,187,186.8,187.7,167.6z"/>
		</g>
		<g>
			<path class="st6" d="M169.5,149.9c0,0-5.4,12.4-18.1,17.7h18.1h18.1C175,162.4,169.5,149.9,169.5,149.9z"/>
		</g>
		<g>
			<path class="st9" d="M169.5,149.9c0,0-3.3,12.4-10.9,17.7h10.9h10.9C172.8,162.4,169.5,149.9,169.5,149.9z"/>
		</g>
		<g>
			<path class="st2" d="M169.5,149.9c0,0-1.4,12.4-4.8,17.7h4.8h4.8C171,162.4,169.5,149.9,169.5,149.9z"/>
		</g>
		<g>
			<path class="st10" d="M169.5,167.6c0,0-5.4,21.9-18.1,31.2h18.1h18.1C175,189.5,169.5,167.6,169.5,167.6z"/>
		</g>
		<g>
			<path class="st1" d="M169.5,168.5c0,0-2.3,21.3-7.7,30.3h7.7h7.7C171.8,189.8,169.5,168.5,169.5,168.5z"/>
		</g>
		<g>
			<polygon class="st7" points="181.3,144.6 170,144.6 170,137.8 181.3,137.8 178.9,141.2 			"/>
		</g>
		<g>
			<path class="st7" d="M155.9,172.2c2.5,0,4.5-2,4.5-4.5h-9.1C151.4,170.1,153.4,172.2,155.9,172.2z"/>
		</g>
		<g>
			<path class="st7" d="M165,172.2c2.5,0,4.5-2,4.5-4.5h-9.1C160.5,170.1,162.5,172.2,165,172.2z"/>
		</g>
		<g>
			<path class="st7" d="M174.1,172.2c2.5,0,4.5-2,4.5-4.5h-9.1C169.5,170.1,171.6,172.2,174.1,172.2z"/>
		</g>
		<g>
			<path class="st7" d="M183.1,172.2c2.5,0,4.5-2,4.5-4.5h-9.1C178.6,170.1,180.6,172.2,183.1,172.2z"/>
		</g>
	</g>
	<g>
		<g>
			<g>
				<path class="st7" d="M272.8,147.2c-4-4-11.4-3.2-16.4,1.9c-5,5-5.9,12.4-1.9,16.4L272.8,147.2z"/>
			</g>
			<g>
				<path class="st7" d="M303.3,177.8c4,4,3.2,11.4-1.9,16.4c-5,5-12.4,5.9-16.4,1.9L303.3,177.8z"/>
			</g>
		</g>
		<g>
			<path class="st1" d="M283.6,197.9c-0.7-0.7-0.6-1.8,0.1-2.5l21.7-21.7c5.9-5.9,6.3-15.2,0.9-20.6l-8.8-8.8
				c-5.4-5.4-14.7-5-20.6,0.9l-21.7,21.7c-0.7,0.7-1.8,0.8-2.5,0.1c-0.7-0.7-0.6-1.8,0.1-2.5l21.7-21.7c7.4-7.4,18.8-7.9,25.6-1.1
				l8.8,8.8c6.7,6.7,6.2,18.2-1.1,25.6l-21.7,21.7C285.4,198.5,284.3,198.5,283.6,197.9z"/>
		</g>
		<g>
			<g>
				<path class="st7" d="M255.8,170c-0.7-0.7-0.6-1.8,0.1-2.5l18.3-18.3c0.7-0.7,1.8-0.8,2.5-0.1c0.7,0.7,0.6,1.8-0.1,2.5
					l-18.3,18.3C257.6,170.7,256.4,170.7,255.8,170z"/>
			</g>
			<g>
				<path class="st7" d="M280.5,194.8c-0.7-0.7-0.6-1.8,0.1-2.5l18.3-18.3c0.7-0.7,1.8-0.8,2.5-0.1c0.7,0.7,0.6,1.8-0.1,2.5
					L283,194.7C282.3,195.4,281.2,195.4,280.5,194.8z"/>
			</g>
		</g>
		<g>
			<path class="st6" d="M294.9,165.8c-0.2-1.5-0.8-3-2.1-4.5c-0.8-1-1.9-2-3.2-3.1c-0.5-0.4-1.1-0.8-1.6-1.2l-0.6-0.6
				c-0.2-0.2-0.4-0.3-0.6-0.2l-0.3,0c-0.4,0-0.7,0.4-0.6,0.8l1.7,13.4c-0.4-0.1-0.8-0.1-1.2,0c-0.6,0.1-1.3,0.3-1.9,0.6
				c-0.9,0.5-1.6,1.1-2,1.9c-0.5,0.8-0.7,1.7-0.6,2.5c0.1,0.5,0.2,1,0.5,1.4c0.7,1,1.7,1.4,3.1,1.2c0.2,0,0.4-0.1,0.6-0.1
				c0.4-0.1,0.8-0.2,1.3-0.4c0.9-0.4,1.6-1,2.3-1.8c0.7-1,1-2,0.8-3L289,162c0,0,0,0,0.1,0c0.8,0.4,1.6,1,2.2,1.6
				c0.8,0.8,1.2,1.6,1.2,2.4c0.1,0.5,0.3,1.1,0.7,1.4c0.3,0.2,0.5,0.3,0.8,0.2C294.4,167.6,294.9,167.2,294.9,165.8
				C294.9,165.9,294.9,165.9,294.9,165.8z"/>
			<path class="st6" d="M276,167.7l-6.7,0.9c-0.4,0.1-0.6,0.4-0.6,0.9l1.3,8.5c-0.2,0-0.4,0-0.6,0c-0.5,0.1-0.9,0.2-1.4,0.5
				c-0.6,0.3-1.1,0.8-1.4,1.4c-0.3,0.6-0.5,1.3-0.4,1.9c0.1,0.4,0.2,0.7,0.4,1c0.4,0.5,1.1,1,2.3,0.9c0.4-0.1,0.9-0.2,1.3-0.4
				c0.6-0.3,1.2-0.7,1.6-1.3c0.5-0.7,0.7-1.5,0.5-2.2l-1.3-8.3l3.9-0.6l1.7,11c0.1,0.4,0.4,0.7,0.8,0.7l0.7-0.1c0,0,0,0,0.1,0
				c0.2,0,0.3-0.1,0.4-0.3c0.1-0.2,0.2-0.4,0.1-0.6l-2.1-13.3C276.7,167.9,276.4,167.6,276,167.7z"/>
		</g>
	</g>
	<g>
		<g>
			<path class="st9" d="M398.8,175.9c0.6-0.2,1.2-0.5,1.8-0.7c0.9-0.4,1.8-1,2.6-1.8c3.8-3.8,3.5-10.4-0.8-14.7
				c-4.3-4.3-10.8-4.6-14.7-0.8c-0.8,0.8-1.4,1.6-1.8,2.6c-0.3,0.6-0.5,1.2-0.7,1.8c-0.4,1-1.6,1.9-2.8,1.9c-0.7,0-1.4,0-2.1,0
				c-3.7-0.1-7.4,1.2-10.1,3.9c-5.6,5.6-5.1,15.3,1.2,21.6c6.3,6.3,16,6.8,21.6,1.2c2.7-2.7,4-6.3,3.9-10.1c0-0.7,0-1.5,0-2.1
				C396.9,177.5,397.8,176.2,398.8,175.9z"/>
		</g>
		<g>
			<circle class="st1" cx="382.3" cy="178.7" r="6.4"/>
		</g>
		<path class="st6" d="M418,146.4l-3.3-3.3c-0.2-0.2-0.6-0.2-0.9,0l-26.9,26.9c-0.2,0.2-0.2,0.6,0,0.9l3.3,3.3
			c0.2,0.2,0.6,0.2,0.9,0l26.9-26.9C418.2,147,418.2,146.6,418,146.4z"/>
		<path class="st9" d="M422.6,138.6l-0.2-0.2c-2-2-5.3-2-7.3,0l-4.4,4.4c-2,2-2,5.3,0,7.3l0.2,0.2c2,2,5.3,2,7.3,0l4.4-4.4
			C424.6,143.9,424.6,140.7,422.6,138.6z"/>
		<g>
			<path class="st7" d="M379.3,158.9c-0.2-0.2-0.3-0.5-0.3-0.9c1-6.2,9.2-10.5,13.9-9.9c0.6,0.1,1,0.6,0.9,1.1
				c-0.1,0.6-0.6,1-1.1,0.9c-3.8-0.5-10.8,3.4-11.6,8.2c-0.1,0.6-0.6,0.9-1.2,0.8C379.6,159.1,379.4,159,379.3,158.9z"/>
		</g>
		<g>
			<path class="st7" d="M390.2,199.4c-0.1-0.1-0.2-0.3-0.3-0.5c-0.1-0.5,0.2-1.1,0.7-1.2c5.1-1.4,11.3-8.8,10.8-14.7
				c0-0.6,0.4-1,0.9-1.1c0.6,0,1,0.4,1.1,0.9c0.3,3.2-1.1,7-3.7,10.5c-2.4,3.2-5.7,5.6-8.6,6.4C390.8,199.8,390.4,199.7,390.2,199.4
				z"/>
		</g>
	</g>
	<g>
		<g>
			<path class="st8" d="M70.9,302.8l-26.3-8.9c-1.5-0.5-2.3-2.1-1.8-3.7l12.5-37.1c0.5-1.5,2.1-2.3,3.7-1.8l26.3,8.8
				c1.5,0.5,2.3,2.1,1.8,3.7L74.5,301C74,302.5,72.4,303.3,70.9,302.8z"/>
		</g>
		<g>
			<path class="st7" d="M68.2,270.5c-0.3-0.7-1.2-1-1.9-0.6l-8.1,4.4c-1.6,0.8-2.3,2.9-1.5,4.5l3.8,8.3c0.3,0.7,1.2,1,1.9,0.6
				l8.1-4.3c1.6-0.9,2.3-2.9,1.5-4.5L68.2,270.5z"/>
		</g>
		<path class="st11" d="M72.1,296.5L62,258.7c-0.4-1.5-2-2.5-3.5-2l-4.8,1.3l-10.9,32.3c-0.5,1.5,0.3,3.2,1.8,3.7l21.4,7.2l4.1-1.1
			C71.6,299.6,72.6,298.1,72.1,296.5z"/>
		<g>
			<path class="st8" d="M67.3,304.8L40.6,312c-1.5,0.4-3.1-0.5-3.5-2l-10.2-37.8c-0.4-1.5,0.5-3.1,2-3.5l26.8-7.2
				c1.5-0.4,3.1,0.5,3.5,2l10.2,37.8C69.8,302.8,68.9,304.4,67.3,304.8z"/>
		</g>
		<g>
			<path class="st1" d="M49.8,289.2c0.8,1.7,2.4,3.6,3.2,4.4c1.1,1.1,0.8,2.3-0.7,2.8l-3,0.8c-1.5,0.4-2.4-0.5-2-2
				c0.3-1.2,0.8-3.4,0.6-5.5c-1.4,4.3-6.7,4.3-7.8,0.3c-1.2-4.6,5.3-13.3,5.3-13.3s10,4.3,11.2,8.8
				C57.7,289.4,53.2,292.2,49.8,289.2z"/>
		</g>
	</g>
	<g>
		<path class="st8" d="M184.9,265.8c-13.7-1.6-6.7,17.3-21.1,22.3c-13.3,4.6-12.7,25,7.8,25c14.1,0,25.5-11.4,25.5-25.5
			C197.1,278.3,193.4,266.8,184.9,265.8z M193,281.9c0,1.6-1.3,2.9-2.9,2.9c-1.6,0-2.9-1.3-2.9-2.9c0-1.6,1.3-2.9,2.9-2.9
			C191.7,279,193,280.3,193,281.9z M185.3,270.7c1.6,0,2.9,1.3,2.9,2.9c0,1.6-1.3,2.9-2.9,2.9c-1.6,0-2.9-1.3-2.9-2.9
			C182.3,272,183.6,270.7,185.3,270.7z M174.7,293.8c-4.8,0-4.9-4.7-1.8-5.8c3.4-1.2,1.7-5.6,4.9-5.2c2,0.2,2.8,2.9,2.8,5.1
			C180.6,291.1,178,293.8,174.7,293.8z M183.5,304.7c-1.6,0-2.9-1.3-2.9-2.9c0-1.6,1.3-2.9,2.9-2.9c1.6,0,2.9,1.3,2.9,2.9
			C186.4,303.4,185.1,304.7,183.5,304.7z M190.1,295.2c-1.6,0-2.9-1.3-2.9-2.9c0-1.6,1.3-2.9,2.9-2.9c1.6,0,2.9,1.3,2.9,2.9
			C193,293.9,191.7,295.2,190.1,295.2z"/>
		<path class="st2" d="M186.4,301.8c0,1.6-1.3,2.9-2.9,2.9c-1.6,0-2.9-1.3-2.9-2.9c0-1.6,1.3-2.9,2.9-2.9
			C185.1,298.9,186.4,300.2,186.4,301.8z"/>
		<path class="st6" d="M193,292.3c0,1.6-1.3,2.9-2.9,2.9c-1.6,0-2.9-1.3-2.9-2.9c0-1.6,1.3-2.9,2.9-2.9
			C191.7,289.4,193,290.7,193,292.3z"/>
		<path class="st9" d="M193,281.9c0,1.6-1.3,2.9-2.9,2.9c-1.6,0-2.9-1.3-2.9-2.9c0-1.6,1.3-2.9,2.9-2.9
			C191.7,279,193,280.3,193,281.9z"/>
		<path class="st7" d="M188.2,273.6c0,1.6-1.3,2.9-2.9,2.9c-1.6,0-2.9-1.3-2.9-2.9c0-1.6,1.3-2.9,2.9-2.9
			C186.9,270.7,188.2,272,188.2,273.6z"/>
		<g>
			<path class="st6" d="M142.4,306.9c-0.4-1.1-0.5-2.3-0.4-3.4c0.1-1.5,0.6-2.8,1.2-4.2c1.1-2.7,2.3-5.4,3.7-8.1
				c1.4-2.7,2.9-5.4,4.4-8.1c1.5-2.7,2.8-5.4,4.3-8.1c1.4-2.5,2.8-5.1,4.2-7.6c0.6-1,1.1-1.9,1.7-2.9c0.3-0.5,1-0.6,1.4-0.2
				c0.4,0.4,0.2,0.9,0,1.4c-1.7,5.4-3.8,10.7-5.9,16c-2.2,5.7-4.2,11.5-6.8,17c-0.5,1-1,2.1-1.5,3.1c-0.6,1-1.1,2.1-1.8,3
				c-0.7,0.8-1.5,1.5-2.5,2.1C143.8,307.2,142.8,307.8,142.4,306.9z"/>
			<path class="st7" d="M170.5,250.3c-0.4,0.1-0.8,0.2-1.1,0.3c-2.7,0.7-5.4,2-7.3,4.1c-1.7,1.8-2.7,4.2-2.3,6.8
				c0.1,1.2,0.5,2.3,1,3.3c0.1,0.2,0.2,0.5,0.4,0.7c0.1,0.3,0.3,0.6,0.5,0.8c0.5,0.5,1.1,0,1.6-0.3c1.9-1,3.8-2.3,4.6-4.4
				c0.3-1,0.5-2,0.6-3c0.2-1.1,0.4-2.2,0.9-3.3c0.6-1.3,1.3-2.4,2.1-3.5C172,251.1,171.4,250.1,170.5,250.3z"/>
		</g>
	</g>
	<g>
		<path class="st1" d="M272.4,268.5v-10.8c0-1.5,0.5-2.6,1.2-3.3c0.4,0.3,0.8,0.5,1.4,0.5h6.8c0.4,0,0.9-0.1,1.2-0.4
			c0.6,0.7,1.1,1.8,1.1,3.1v10.8h3.2v-10.8c0-2.9-1.4-5.4-3.4-6.4c-0.3-0.8-1.1-1.4-2-1.4H275c-0.9,0-1.6,0.5-2,1.2
			c-2.2,1-3.8,3.5-3.8,6.6v10.8H272.4z"/>
		<g>
			<path class="st12" d="M269.7,303.4L269.7,303.4c0.8,0,1.4,0.6,1.4,1.4v5.5c0,0.8-0.6,1.4-1.4,1.4l0,0c-0.8,0-1.4-0.6-1.4-1.4
				v-5.5C268.3,304,268.9,303.4,269.7,303.4z"/>
		</g>
		<g>
			<path class="st12" d="M273,303.4L273,303.4c0.8,0,1.4,0.6,1.4,1.4v5.5c0,0.8-0.6,1.4-1.4,1.4l0,0c-0.8,0-1.4-0.6-1.4-1.4v-5.5
				C271.6,304,272.2,303.4,273,303.4z"/>
		</g>
		<g>
			<path class="st12" d="M283.5,303.4L283.5,303.4c0.8,0,1.4,0.6,1.4,1.4v5.5c0,0.8-0.6,1.4-1.4,1.4l0,0c-0.8,0-1.4-0.6-1.4-1.4
				v-5.5C282.1,304,282.7,303.4,283.5,303.4z"/>
		</g>
		<g>
			<path class="st12" d="M286.8,303.4L286.8,303.4c0.8,0,1.4,0.6,1.4,1.4v5.5c0,0.8-0.6,1.4-1.4,1.4l0,0c-0.8,0-1.4-0.6-1.4-1.4
				v-5.5C285.4,304,286,303.4,286.8,303.4z"/>
		</g>
		<path class="st9" d="M287.6,266.7h-18.7c-3.8,0-7,3.1-7,7v28.5c0,3.8,3.1,7,7,7h18.7c3.8,0,7-3.1,7-7v-28.5
			C294.6,269.8,291.4,266.7,287.6,266.7z"/>
		<path class="st7" d="M283.3,271.6h-10.1c-3.7,0-6.7,2.9-6.7,6.4v19.8c0,3.6,3,6.5,6.7,6.5h10.1c3.7,0,6.7-2.9,6.7-6.5v-19.8
			C290,274.5,287,271.6,283.3,271.6z M269.5,279c0-2.4,1.9-4.3,4.3-4.3h8.8c2.4,0,4.3,2,4.3,4.3v17.9c0,2.4-1.9,4.3-4.3,4.3h-8.8
			c-2.4,0-4.3-2-4.3-4.3V279z"/>
		<g>
			<g>
				<path class="st6" d="M280.2,283.3h20.3c1,0,1.7,0.8,1.7,1.7v26.7c0,1-0.8,1.7-1.7,1.7h-20.3c-1,0-1.7-0.8-1.7-1.7v-26.7
					C278.4,284.1,279.2,283.3,280.2,283.3z"/>
			</g>
			<g>
				<g>
					<path class="st0" d="M290.3,301.8c-2.8-0.1-5.1-1.4-6.5-3.9c-0.1-0.2-0.2-0.5-0.3-0.7l-0.1,0l0-0.1c-0.4-0.8-0.5-1.8-0.6-2.7
						c0-4.1,3.3-7.4,7.4-7.4c0.2,0,0.1,0,0.2,0c3.1,0.1,5.9,2.2,6.9,5.2c0.5,1.5,0.4,2.9,0,4.4c0,0.2-0.1,0.3-0.2,0.5l0,0l-0.1,0
						c-0.1,0.2-0.2,0.5-0.3,0.7c-1,1.7-2.4,3-4.3,3.5c-0.5,0.1-1,0.2-1.4,0.3L290.3,301.8z M288.4,300.7l0.1,0c-0.5-0.5-0.8-1.3-1-2
						c-1-0.2-1.9-0.6-2.8-1c0.5,0.8,0.6,1,1.4,1.7c0.3,0.3,0.7,0.5,1.1,0.7L288.4,300.7z M287,297.7l0.1,0c-0.3-1.4-0.2-0.7-0.3-2.1
						c-0.3-0.1-0.6-0.2-0.9-0.2c-0.6-0.2-1.2-0.4-1.9-0.6l-0.3-0.1c0,0.6,0.1,1.3,0.4,1.9l0.1,0c0.9,0.5,1.8,0.9,2.7,1.2L287,297.7z
						 M286.8,294.8L286.8,294.8c0-1,0-2,0.2-3l-0.5-0.1c-0.5-0.2-1-0.4-1.5-0.6l-0.2-0.1c-0.7,0.9-0.8,1.7-1,2.8l0,0.1
						c0.7,0.4,1.5,0.6,2.3,0.9L286.8,294.8z M288.4,291.3l1.6,0.1v-3.7c-0.2,0-0.3,0.1-0.4,0.2c-0.9,0.7-1.4,2.1-1.7,3.2l0,0
						L288.4,291.3z M286.7,290.9l0.5,0.1c0.2-0.9,0.1-0.7,0.6-1.8c0.1-0.2,0.3-0.7,0.5-0.9c0.1-0.1,0.2-0.2,0.3-0.4
						c-1.2,0.3-2.7,1.3-3.4,2.3c0.4,0.2,0.8,0.4,1.2,0.5L286.7,290.9z M288.1,295.1l1.8,0.2v-3l-0.2,0c-0.7-0.1-1.3-0.1-2-0.3l0,0
						l0,0c-0.1,1-0.2,2-0.2,3L288.1,295.1z M289.6,298.2l0.4,0V296h-0.2c-1.4-0.1-0.7-0.1-2.2-0.2c0.1,0.8,0,0.5,0.2,1.6
						c0.1,0.5,0.1,0.4,0.1,0.6l0.3,0.1L289.6,298.2z M289.5,300.7l0.4,0.2v-1.8l-0.2,0c-0.5-0.1-1-0.1-1.5-0.2
						c0.2,0.3,0.3,0.6,0.4,0.9c0.1,0.2,0.2,0.3,0.3,0.4C289.2,300.4,289.4,300.5,289.5,300.7z M290.7,299.1v1.8
						c0.7-0.3,1.1-0.8,1.4-1.4c0.1-0.2,0.1-0.3,0.2-0.5l-0.7,0.1L290.7,299.1z M292.3,300.6l-0.1,0.1c0.8-0.2,1.7-0.7,2.4-1.2
						c0.3-0.3,0.6-0.6,0.9-0.9c0.2-0.2,0.3-0.4,0.4-0.6l0,0c-0.8,0.4-1.7,0.7-2.7,0.9c-0.2,0.5-0.1,0.2-0.4,0.9L292.3,300.6z
						 M290.7,298.2c0.6,0,1.3,0,1.9-0.1c0.2-0.5,0.2-1,0.3-1.5c0-0.1,0.1-0.5,0.1-0.7c-0.3,0-1.1,0.1-1.4,0.2c-0.3,0-0.6,0-1,0
						V298.2z M293.5,297.9L293.5,297.9c0.8-0.2,1.5-0.4,2.2-0.8c0.3-0.2,0.6-0.4,0.9-0.6c0.3-0.6,0.3-1.2,0.4-1.9
						c-1,0.5-2,0.8-3.1,1.1c-0.1,0.7-0.2,1.3-0.3,2L293.5,297.9z M290.7,295.2c0.8,0,1.6-0.1,2.4-0.2c0-0.8,0-0.8,0-1.7
						c0-0.3-0.1-0.5-0.1-0.8c0-0.2,0-0.4-0.1-0.6l-0.1,0c-0.5,0.1-1,0.1-1.5,0.2l-0.6,0V295.2z M293.9,294.2l0,0.7
						c0.7-0.2,1.4-0.4,2.1-0.6c0.3-0.1,0.7-0.3,1-0.5l0-0.1c-0.3-1.4-0.2-1.2-0.8-2.5c-0.1-0.1-0.2-0.3-0.3-0.4
						c-0.7,0.5-1.4,0.7-2.2,1l-0.1,0c0.1,0.6,0,0.2,0.1,1.1L293.9,294.2z M290.7,287.8v3.7l0.6,0c0.5,0,0.9-0.1,1.4-0.2l0.1,0l0-0.1
						c-0.2-1-0.7-2.5-1.7-3.2l-0.3-0.1L290.7,287.8z M293.4,290.5l0.1,0.5c0.7-0.2,1.3-0.5,2-0.9l-0.1-0.1c-0.3-0.3-0.6-0.6-0.9-0.9
						c-0.6-0.5-1.6-1.1-2.4-1.2c0.6,0.8,0.3,0.3,0.9,1.5L293.4,290.5z"/>
				</g>
				<g>
					<path class="st0" d="M282.3,305c-0.1,0-0.2,0-0.2,0l-0.4,0c-0.1,0-0.3,0-0.3,0v1.3c0,0.4,0,0.8,0,1.3v1.7c0,0.2,0,0.3,0.1,0.5
						l1.8,0c0,0,0,0,0-0.1v-0.3c0,0,0-0.1,0-0.1c0-0.4,0-0.8,0-1.2l0.7,0h0c0.7-0.1,1.8-0.3,1.8-1.6c0-1-0.7-1.5-1.5-1.5
						c0,0-0.1,0-0.1,0h0c-0.1,0-0.3,0-0.4,0c-0.3,0-0.6,0-0.9,0H282.3z M284.1,306.3c0,0.1,0,0.1,0,0.3c0,0.6-0.5,0.7-1,0.7l0-0.2
						l0-0.2c0-0.3,0-0.9,0-0.9C283.6,306,284,306,284.1,306.3L284.1,306.3z M290.1,309.8h0.2c0.2,0,0.3,0,0.3,0
						c-0.1-0.1-0.1-0.1-0.1-0.2l0-0.2c-0.5-1.4-0.9-2.9-1.4-4.3c0-0.1-0.1-0.1-0.2-0.1c-0.1,0-0.2,0-0.2,0l-0.3,0
						c-0.4,0-0.7,0-1.1,0h-0.5c0,0,0,0,0,0c-0.2,0.5-0.3,1-0.5,1.6l-0.1,0.3h0l-0.1,0.2c-0.3,0.9-0.6,1.8-0.8,2.7c0,0,0,0,0,0.1h0.2
						c0,0,0.1,0,0.1,0h0.1c0.3,0,0.5,0,0.8,0h0.2c0,0,0.1,0,0.1,0c0.1,0,0.3,0,0.3,0c0.1-0.2,0.1-0.5,0.2-0.7l1.3,0
						c0,0.1,0.1,0.4,0.1,0.6l0,0.1c0,0,0,0,0,0h0c0.3,0,0.5,0,0.8,0c0.1,0,0.2,0,0.3,0h0.2C290,309.8,290.1,309.8,290.1,309.8z
						 M288,306.1c0.1,0.3,0.1,0.5,0.2,0.8l0.1,0.5c0,0.2,0.1,0.5,0.1,0.5s-0.4,0-0.7,0c0,0-0.1,0-0.1,0h-0.2l0-0.2
						c0.1-0.5,0.4-1.8,0.5-1.9C288,306,288,306.1,288,306.1L288,306.1z M292.3,306.3c0-0.2,0.4-0.3,0.4-0.3h0c0.5,0,0.2,0.3,0.5,0.3
						c0.5,0,1,0,1.4,0l0.1-0.1c0-0.4-0.1-0.7-0.6-1h0c-0.4-0.2-0.9-0.3-1.4-0.3c-1,0-2.2,0.4-2.2,1.7c0,0.7,0.4,1,1.4,1.3
						c0.1,0,0.2,0,0.3,0.1l0.2,0h0c0,0,0.1,0,0.1,0h0c0.3,0.1,0.7,0.1,0.7,0.4c0,0.3-0.2,0.4-0.5,0.4c-0.5,0-0.4-0.4-0.5-0.4
						c-0.6,0-1.1,0-1.6,0c0,0,0,0,0,0c0,0.3,0.1,0.5,0.2,0.8c0.3,0.5,1.2,0.7,1.9,0.7c1-0.1,2.3-0.4,2.3-1.7c0-0.8-0.5-1.1-1.1-1.3
						v0c-0.4-0.1-0.7-0.2-0.9-0.2l-0.1,0C292.6,306.6,292.3,306.5,292.3,306.3z M296.9,306.3c0-0.2,0.4-0.3,0.4-0.3h0
						c0.5,0,0.2,0.3,0.5,0.3c0.5,0,1,0,1.4,0l0.1-0.1c0-0.4-0.1-0.7-0.6-1h0c-0.4-0.2-0.9-0.3-1.4-0.3c-1,0-2.2,0.4-2.2,1.7
						c0,0.7,0.4,1,1.4,1.3c0.1,0,0.2,0,0.3,0.1l0.2,0h0c0,0,0.1,0,0.1,0h0c0.3,0.1,0.7,0.1,0.7,0.4c0,0.3-0.2,0.4-0.5,0.4
						c-0.5,0-0.4-0.4-0.5-0.4c-0.6,0-1.1,0-1.6,0c0,0,0,0,0,0c0,0.3,0.1,0.5,0.2,0.8c0.3,0.5,1.2,0.7,1.9,0.7c1-0.1,2.3-0.4,2.3-1.7
						c0-0.8-0.5-1.1-1.1-1.3v0c-0.4-0.1-0.7-0.2-0.9-0.2l-0.1,0C297.2,306.6,296.9,306.5,296.9,306.3z"/>
				</g>
			</g>
		</g>
	</g>
	<g>
		<path class="st7" d="M382,290.1c-3.8,0-6.9,3.1-6.9,6.9c0,3.8,3.1,6.9,6.9,6.9c3.8,0,6.9-3.1,6.9-6.9
			C388.9,293.1,385.8,290.1,382,290.1z"/>
		<g>
			<path class="st1" d="M376.9,289.2c-0.1,0-0.2,0-0.3,0l-4.7-1c-0.6-0.1-1-0.8-0.9-1.4c0.1-0.6,0.8-1,1.4-0.9l4.7,1
				c0.6,0.1,1,0.8,0.9,1.4C378,288.9,377.5,289.2,376.9,289.2z"/>
		</g>
		<g>
			<path class="st1" d="M382.9,275.3c-0.2,0-0.4,0-0.5-0.1l-4.3-2.2c-0.6-0.3-0.8-1-0.5-1.6c0.3-0.6,1-0.8,1.6-0.5l4.3,2.2
				c0.6,0.3,0.8,1,0.5,1.6C383.8,275.1,383.4,275.3,382.9,275.3z"/>
		</g>
		<g>
			<path class="st1" d="M393.8,262.3c-0.2,0-0.5-0.1-0.7-0.3l-2.2-2.4c-0.3-0.4-0.3-0.9,0-1.3c0.4-0.3,0.9-0.3,1.3,0l2.2,2.4
				c0.3,0.4,0.3,0.9,0,1.3C394.2,262.2,394,262.3,393.8,262.3z"/>
		</g>
		<g>
			<path class="st1" d="M410.2,257.5c-0.4,0-0.7-0.3-0.7-0.7l-0.2-2.4c0-0.4,0.3-0.8,0.7-0.8c0.4,0,0.8,0.3,0.8,0.7l0.2,2.4
				C410.9,257.1,410.6,257.5,410.2,257.5C410.2,257.5,410.2,257.5,410.2,257.5z"/>
		</g>
		<g>
			<path class="st1" d="M422.7,257.8c-0.2,0-0.4-0.2-0.4-0.4v-1.9c0-0.2,0.2-0.4,0.4-0.4c0.2,0,0.4,0.2,0.4,0.4v1.9
				C423.2,257.6,423,257.8,422.7,257.8z"/>
		</g>
		<g>
			<path class="st1" d="M399.2,297.4c-0.2,0-0.4-0.2-0.4-0.4c-1-14.5,7.4-18.2,14.9-21.5c7.4-3.3,13.3-5.9,8.8-17.7l-12.2-0.5
				l-16.2,4.6l-10.7,12.6l-6,13.8c-0.1,0.2-0.4,0.3-0.6,0.2c-0.2-0.1-0.3-0.4-0.2-0.6l6-14l10.9-12.9l16.6-4.7l12.9,0.6l0.1,0.3
				c4.9,12.9-1.9,15.9-9.2,19.1c-7.2,3.2-15.3,6.8-14.3,20.6C399.6,297.2,399.4,297.4,399.2,297.4
				C399.2,297.4,399.2,297.4,399.2,297.4z"/>
		</g>
		<g>
			<path class="st6" d="M403.6,304.1c-0.1-1.2-0.6-2.1-1.5-2.8c-0.8-0.6-1.9-1.1-2.4-2c-0.1-0.2-0.2-0.4-0.2-0.7c0,0,0-0.1,0-0.1
				c0.1,0,0.1,0,0.1,0c0.1,0,0.2-0.1,0.3-0.2c0.4-0.3,0.5-0.7,0.5-1.1c-0.1-0.9-1.1-1.5-1.9-1c-0.8,0.5-0.8,1.6-0.1,2.1
				c0.1,0.1,0.2,0.1,0.3,0.1c0.1,0,0.2,0,0.1,0.1c0,0.3,0,0.5,0,0.8c0.1,0.5,0.3,1,0.7,1.5c0.4,0.5,0.8,0.8,1.2,1.2
				c0.4,0.4,0.8,0.8,1,1.4c0.2,0.5,0.1,1.1,0,1.6c-0.1,0.6-0.6,1.2-1.2,1.6c-0.4,0.3-0.9,0.4-1.5,0.5c0,0,0,0,0.1,0
				c-0.1,0-0.3,0-0.4,0c-0.3-0.1-0.5-0.1-0.8-0.2c-0.8-0.4-1.4-1-1.7-1.8c0.4,0.3,0.9,0.5,1.4,0.6c0.2,0,0.4,0.1,0.6,0
				c0.2-0.1,0.2-0.4,0-0.5c-0.1-0.1-0.3,0-0.5-0.1c-0.3-0.1-0.5-0.2-0.8-0.3c-0.4-0.3-0.8-0.7-1.1-1.1c-0.1-0.1-0.2-0.2-0.4-0.2
				c-0.3,0.1-0.2,0.3-0.2,0.5c-0.1,0.5,0,1,0.1,1.5c0.3,1,0.9,2,1.8,2.6c1.2,0.9,2.8,0.9,4.2,0.2c1.5-0.8,2.4-2.4,2.3-4
				C403.6,304.2,403.6,304.1,403.6,304.1z M398.4,297.2c0-0.4,0.3-0.7,0.7-0.7c0.4,0,0.7,0.3,0.7,0.7c0,0.4-0.3,0.7-0.7,0.7
				C398.7,297.9,398.4,297.6,398.4,297.2z"/>
		</g>
		<g>
			<g>
				<circle class="st9" cx="382.2" cy="293.7" r="1"/>
			</g>
			<g>
				<circle class="st9" cx="382.2" cy="296.8" r="1"/>
			</g>
			<g>
				<circle class="st9" cx="382.2" cy="299.9" r="1"/>
			</g>
		</g>
		<g>
			<g>
				<circle class="st9" cx="385.3" cy="296.8" r="1"/>
			</g>
			<g>
				<circle class="st9" cx="379" cy="296.8" r="1"/>
			</g>
		</g>
		<g>
			<g>
				<path class="st6" d="M370,289.7c0,0,0-0.1,0-0.2c0-0.1,0.1-0.3,0.1-0.6c0.1-0.5,0.3-1.3,0.6-2.2c0.5-1.9,1.4-4.6,2.8-7.7
					c0.7-1.5,1.5-3.2,2.4-4.9c1-1.7,2-3.4,3.3-5.1c1.3-1.7,2.7-3.4,4.2-4.9c1.6-1.6,3.3-3,5.2-4.3c1.9-1.3,3.8-2.4,5.9-3.3
					c2-0.9,4.1-1.6,6.1-2c2-0.5,4.1-0.8,6-0.9c1.9-0.2,3.7-0.1,5.4-0.1c0.4,0,0.8,0,1.2,0.1c0.4,0,0.8,0.1,1.2,0.1
					c0.8,0.1,1.5,0.2,2.1,0.2c1.3,0.2,2.5,0.4,3.4,0.6c0.9,0.2,1.7,0.4,2.2,0.5c0.5,0.1,0.8,0.2,0.8,0.2c0.2,0,0.3,0.2,0.3,0.5
					c0,0.2-0.2,0.3-0.4,0.3l0,0c0,0-0.3-0.1-0.8-0.1c-0.5-0.1-1.2-0.2-2.2-0.4c-0.9-0.2-2.1-0.3-3.4-0.4c-0.7-0.1-1.4-0.1-2.1-0.2
					c-0.4,0-0.8,0-1.1-0.1c-0.4,0-0.8,0-1.2,0c-1.6,0-3.4,0-5.2,0.3c-1.8,0.2-3.8,0.6-5.7,1.1c-1.9,0.5-3.9,1.2-5.8,2.2
					c-1.9,0.9-3.7,2-5.4,3.3c-1.7,1.3-3.3,2.7-4.7,4.2c-1.4,1.5-2.7,3.2-3.8,4.8c-1.1,1.6-2.1,3.3-2.9,5c-0.8,1.6-1.6,3.2-2.1,4.7
					c-1.2,3-1.9,5.6-2.4,7.4c-0.2,0.9-0.4,1.6-0.5,2.1c0,0.2-0.1,0.4-0.1,0.5c0,0.1,0,0.2,0,0.2l0,0c-0.1,0.9-1,1.5-1.8,1.3
					C370.4,291.5,369.8,290.7,370,289.7C369.9,289.8,369.9,289.7,370,289.7z"/>
			</g>
		</g>
		<g>
			<path class="st9" d="M367.4,309.9c-0.2,0-0.4,0-0.7-0.1c-1.5-0.4-2.5-1.9-2.1-3.4l3.8-15.9c0.4-1.5,1.9-2.5,3.4-2.1
				c1.5,0.4,2.5,1.9,2.1,3.4l-3.8,15.9C369.8,309.1,368.7,309.9,367.4,309.9z"/>
		</g>
	</g>
	<g>
		<path class="st6" d="M74.3,373h-35c-0.8,0-1.4,0.7-1.4,1.6v40.8c0,0.9,0.6,1.6,1.4,1.6h35c0.8,0,1.4-0.7,1.4-1.6v-40.8
			C75.7,373.7,75,373,74.3,373z"/>
		<g>
			<path class="st1" d="M37.2,366.7v2.6h-4.7v-2.6h-3.8v56.5h3.8v-2.7h4.7v2.7H41v-56.5H37.2z M37.2,411.8h-4.7v-5.4h4.7V411.8z
				 M37.2,397.6h-4.7v-5.4h4.7V397.6z M37.2,383.5h-4.7v-5.4h4.7V383.5z"/>
		</g>
		<g>
			<path class="st1" d="M81.4,366.7v2.6h-4.7v-2.6h-3.8v56.5h3.8v-2.7h4.7v2.7h3.8v-56.5H81.4z M81.4,411.8h-4.7v-5.4h4.7V411.8z
				 M81.4,397.6h-4.7v-5.4h4.7V397.6z M81.4,383.5h-4.7v-5.4h4.7V383.5z"/>
		</g>
		<g>
			<path class="st9" d="M50.6,385.8v18.4c0,1.1,0.6,1.5,1.4,0.9l11.6-9c0.8-0.6,0.8-1.6,0-2.2l-11.6-9
				C51.2,384.3,50.6,384.7,50.6,385.8z"/>
		</g>
	</g>
	<g>
		<circle class="st0" cx="162.4" cy="399.1" r="24.8"/>
		<path class="st7" d="M162.4,426.4c-15.1,0-27.3-12.3-27.3-27.3c0-15.1,12.3-27.3,27.3-27.3c15.1,0,27.3,12.3,27.3,27.3
			C189.8,414.2,177.5,426.4,162.4,426.4z M162.4,376.7c-12.3,0-22.4,10-22.4,22.4c0,12.3,10,22.4,22.4,22.4
			c12.3,0,22.4-10,22.4-22.4C184.8,386.8,174.8,376.7,162.4,376.7z"/>
		<circle class="st0" cx="162.4" cy="399.1" r="15.1"/>
		<path class="st7" d="M162.4,416.7c-9.7,0-17.6-7.9-17.6-17.6c0-9.7,7.9-17.6,17.6-17.6c9.7,0,17.6,7.9,17.6,17.6
			C180,408.8,172.1,416.7,162.4,416.7z M162.4,386.5c-7,0-12.6,5.7-12.6,12.6c0,7,5.7,12.6,12.6,12.6c7,0,12.6-5.7,12.6-12.6
			C175.1,392.1,169.4,386.5,162.4,386.5z"/>
		<circle class="st1" cx="162.4" cy="399.1" r="6.7"/>
		<path class="st6" d="M203,379.6c-1.6-0.9-4.3-2.3-6.2-3.2l-3-3.9c-0.2-1.8-0.7-5.8-1.1-7.9c-0.5-2.5-11.7,6.5-11,14.8l-20.1,18.7
			l1.4,1.9l23.7-14.4C194.4,387.7,205.1,380.8,203,379.6z"/>
		<path class="st0" d="M163.2,400.7c-0.2,0-0.4-0.1-0.5-0.2l-1.4-1.9c-0.2-0.3-0.2-0.6,0.1-0.8l19.9-18.5c-0.3-5,3.4-9.7,5.1-11.5
			c1.9-2.1,4.4-4.1,5.9-4.1c0.6,0,1.1,0.4,1.2,0.9c0.4,2.1,0.9,6,1.1,7.8l2.8,3.7c2,1,4.6,2.3,6.1,3.1c0.5,0.3,0.7,0.8,0.5,1.3
			c-0.6,2.2-7.9,6.2-14,6.2c0,0,0,0,0,0c-1,0-2-0.1-3-0.3l-23.4,14.3C163.4,400.6,163.3,400.7,163.2,400.7z M162.6,398.2l0.7,1
			l23.2-14.1c0.1-0.1,0.3-0.1,0.5-0.1c0.9,0.2,1.9,0.4,2.9,0.4c2.7,0,5.9-0.8,8.8-2.3c2.6-1.3,3.9-2.5,4-3c-1.6-0.9-4.5-2.3-6.1-3.1
			c-0.1,0-0.2-0.1-0.2-0.2l-3-3.9c-0.1-0.1-0.1-0.2-0.1-0.3c-0.2-1.6-0.7-5.6-1.1-7.8c-0.7,0-2.7,1.2-5,3.7
			c-1.6,1.7-5.2,6.2-4.7,10.9c0,0.2-0.1,0.4-0.2,0.5L162.6,398.2z"/>
	</g>
	<g>
		<g>
			<path class="st2" d="M396.6,374.7c0.2-0.6,0-1.2-0.6-1.4l-6.3-2.5c-0.3-0.1-0.6-0.1-0.8,0c-0.3,0.1-0.5,0.3-0.6,0.6l-5.6,13.8
				c-0.3,0.8-1.3,1.9-2,2.2l-2.3,1.1c-1.2,0.6-2.5,2-3,3.3l-10.6,26.1c-0.3,0.7-0.5,2.2,1.4,4.1c1.2,1.2,3,2.3,5,3.1
				c1.9,0.8,3.9,1.2,5.6,1.2c2.1,0,3.6-0.7,4.1-2l10.6-26.1c0.5-1.3,0.6-3.2,0.2-4.5l-0.8-2.4c-0.3-0.7-0.2-2.1,0.1-2.9L396.6,374.7
				z"/>
			<path class="st1" d="M397,374.4c-0.1-0.5-0.4-1.1-1.2-1.7c-0.7-0.5-1.6-1.1-2.7-1.5c-1.3-0.5-2.6-0.8-3.5-0.8
				c-0.7,0-1.2,0.2-1.5,0.4c-0.2,0.1-0.4,0.3-0.6,0.6l-1.9,4.7c-0.1,0.3-0.1,0.6,0,0.8c0.1,0.5,0.4,1.1,1.2,1.7
				c0.7,0.5,1.6,1.1,2.7,1.5c1.3,0.5,2.6,0.8,3.5,0.8c0.7,0,1.2-0.2,1.5-0.4c0.2-0.1,0.4-0.3,0.6-0.6l1.9-4.7
				C397.1,374.9,397.1,374.7,397,374.4z"/>
			<g>
				<path class="st9" d="M383.5,415.2c-5.3,0.1-10.3-1.9-14-5.7c1.5-3.8,3-7.5,4.6-11.3c3.8,3.8,8.7,5.8,14,5.7
					C386.6,407.7,385,411.4,383.5,415.2z"/>
			</g>
		</g>
		<g>
			<g>
				<g>
					<path class="st9" d="M417.1,396.6c4.3-0.9,7.1-5.1,6.2-9.4c-0.9-4.3-5.1-7.1-9.4-6.2c-4.3,0.9-7.1,5.1-6.2,9.4
						C408.6,394.7,412.8,397.5,417.1,396.6z M416.8,395.4c-3.6,0.8-7.2-1.6-7.9-5.2c-0.8-3.6,1.6-7.2,5.2-7.9
						c3.6-0.8,7.2,1.6,7.9,5.2C422.8,391,420.4,394.6,416.8,395.4z"/>
				</g>
				<g>
					<path class="st9" d="M417.3,394.6L417.3,394.6c1.1-0.4,1.3-0.5,2.2-1.2c0.3-0.3,0.5-0.6,0.8-0.8l0,0l-4-2.6L417.3,394.6z
						 M421,391.6L421,391.6c0.4-1,0.6-1.2,0.7-2.3c0-0.4,0-0.8,0-1.2l0-0.1l-4.6,1L421,391.6z"/>
				</g>
				<g>
					<path class="st9" d="M421.6,387.6C421.5,387.5,421.5,387.5,421.6,387.6L421.6,387.6z"/>
				</g>
				<g>
					<path class="st9" d="M415.8,387.3l2.6-4l0,0c-1-0.4-1.2-0.6-2.3-0.7c-0.4,0-0.8,0-1.2,0l-0.1,0L415.8,387.3z M421.4,387
						L421.4,387c-0.4-1.1-0.5-1.3-1.2-2.2c-0.3-0.3-0.6-0.5-0.8-0.8l0,0l-2.6,4L421.4,387z"/>
				</g>
				<g>
					<path class="st9" d="M414.1,388.5l-3.9-2.6l0,0l0,0l0,0l0,0c-0.4,0.7-0.2,0.4-0.5,1.1c-0.3,1-0.2,1.3-0.2,2.4l0,0.1
						L414.1,388.5z M414.7,387.6l-1-4.6l-0.1,0c-0.4,0.2-0.8,0.3-1.1,0.5c-0.7,0.4-0.7,0.4-1.4,1.1c-0.1,0.1-0.3,0.3-0.4,0.5
						L414.7,387.6z"/>
				</g>
			</g>
			<g>
				<path class="st7" d="M411.7,397.4l-10.3,5.2l8.5,4.1L411.7,397.4z"/>
			</g>
			<path class="st6" d="M424.6,418.9c-0.1-0.2-0.2-0.3-0.4-0.3l-7.4-0.6l-5-9.9l3.3-17.4l0-0.2c0-0.1,0-0.2-0.1-0.4
				c-0.1-0.3-0.4-0.6-0.6-0.7c-0.1,0-0.2,0-0.3,0l-0.1,0l-20.5,10.3c-0.3,0.2-0.4,0.6-0.2,1.1c0.1,0.2,0.3,0.4,0.5,0.5l16.3,7.9
				l4.8,9.5l-4,6.5c-0.1,0.2,0,0.4,0.1,0.6c0.1,0.1,0.3,0.2,0.4,0.1l13.1-6.6C424.7,419.4,424.7,419.2,424.6,418.9z M413.4,391.9
				l-2.9,15.4l-0.6,0.3l-14.1-6.9L413.4,391.9z"/>
			<g>
				<path class="st12" d="M408.7,392.2L408.7,392.2L408.7,392.2L408.7,392.2z"/>
			</g>
			<g>
				<path class="st12" d="M408.5,385.9L408.5,385.9L408.5,385.9L408.5,385.9L408.5,385.9z"/>
			</g>
			<g>
				<path class="st12" d="M412.1,382C412,382.1,412.1,382.1,412.1,382L412.1,382z"/>
			</g>
		</g>
		<g>
			<circle class="st9" cx="375.8" cy="378.8" r="3.3"/>
		</g>
		<g>
			<circle class="st9" cx="397.2" cy="390.5" r="2.4"/>
		</g>
		<g>
			<circle class="st6" cx="392.6" cy="365.7" r="2.2"/>
		</g>
		<g>
			<circle class="st7" cx="400.3" cy="414.1" r="3.5"/>
		</g>
		<g>
			<circle class="st2" cx="411.2" cy="373.1" r="3.5"/>
		</g>
	</g>
	<g>
		<g>
			<g>
				<path class="st8" d="M301.6,421.8c-0.5-0.2-1-0.5-1.5-0.8c-0.6-0.4-1.2-0.8-1.6-1.3c-0.5-0.5-0.8-1.1-1.2-1.7
					c-0.7-1.1-1.4-2.3-1.7-3.6c-0.4-1.4-0.3-2.8-0.2-4.2c0.3-2.9,0.9-5.8,1.6-8.6c0.6-2.2,1.3-4.4,2-6.6c0.8-2.7,1.4-5.5,1.6-8.4
					c0.1-1.5,0.1-2.9-0.1-4.4c-0.2-1.4-0.5-2.9-0.7-4.3c-0.2-1.4-0.3-2.8-0.2-4.2c0.1-1.3,0.2-2.7,1.1-3.7c0.8-1,1.8-2.3,3.8-2.3
					c2,0,3.9,1.5,4.5,3.6c0.2,0.6,0.3,1.3,0.3,1.9c0.1,0.7,0.1,1.4,0.1,2.1c-0.1,2.9-1,5.7-1.2,8.5c-0.1,1.5,0,3,0.2,4.4
					c0.2,1.5,0.5,3,0.8,4.4c0.5,2.1,1.1,4.1,1.8,6.2c0.9,2.8,1.7,5.7,2.1,8.6c0.2,1.4,0.4,2.9,0.4,4.3c0,1.4-0.2,2.7-0.8,4
					c-0.5,1.3-1.3,2.4-2,3.5c-0.8,1.1-2,1.9-3.2,2.4c-0.5,0.2-1.1,0.5-1.7,0.6c-0.2,0.1-0.3,0.1-0.5,0.1c-0.7,0-1.3,0-2,0
					c0,0-0.1,0-0.1,0C303.2,422.4,302.5,422.1,301.6,421.8z"/>
			</g>
			<g>
				<path class="st7" d="M308.8,390.4c-0.1-0.7-0.3-1.5-0.4-2.2c0-0.1,0-0.2,0-0.3h-7.9c-0.1,0.9-0.2,1.7-0.4,2.5H308.8z"/>
			</g>
			<g>
				<path class="st7" d="M300.7,384c0,0.8,0,1.6,0,2.4h7.6c-0.1-0.8-0.1-1.6,0-2.4H300.7z"/>
			</g>
		</g>
		<g class="st13">
			<path class="st14" d="M299.5,373.6C299.5,373.6,299.5,373.7,299.5,373.6c-0.1,0.8,0,1.6,0,2.4c0-0.3,0-0.5,0-0.8
				C299.6,374.7,299.6,374.1,299.5,373.6z"/>
			<path class="st14" d="M303.8,411.7c0-1.4-0.2-2.9-0.4-4.3c-0.5-2.9-1.3-5.8-2.1-8.6c-0.6-2-1.2-3.9-1.7-5.9
				c-0.2,0.7-0.4,1.4-0.6,2.1c-0.6,2.2-1.3,4.4-2,6.6c-0.8,2.8-1.4,5.7-1.6,8.6c-0.1,1.4-0.2,2.8,0.2,4.2c0.3,1.3,1,2.5,1.7,3.6
				c0.4,0.6,0.7,1.2,1.2,1.7c0.3,0.4,0.7,0.7,1.1,0.9c0.6-0.4,1.1-0.8,1.4-1.4c0.8-1.1,1.5-2.3,2-3.5
				C303.6,414.4,303.8,413.1,303.8,411.7z"/>
		</g>
		<g>
			<path class="st8" d="M288.6,421.8c-0.5-0.2-1-0.5-1.5-0.8c-0.6-0.4-1.2-0.8-1.6-1.3c-0.5-0.5-0.8-1.1-1.2-1.7
				c-0.7-1.1-1.4-2.3-1.7-3.6c-0.4-1.4-0.3-2.8-0.2-4.2c0.3-2.9,0.9-5.8,1.6-8.6c0.6-2.2,1.3-4.4,2-6.6c0.8-2.7,1.4-5.5,1.6-8.4
				c0.1-1.5,0.1-2.9-0.1-4.4c-0.2-1.4-0.5-2.9-0.7-4.3c-0.2-1.4-0.3-2.8-0.2-4.2c0.1-1.3,0.2-2.7,1.1-3.7c0.8-1,1.8-2.3,3.8-2.3
				c2,0,3.9,1.5,4.5,3.6c0.2,0.6,0.3,1.3,0.3,1.9c0.1,0.7,0.1,1.4,0.1,2.1c-0.1,2.9-1,5.7-1.2,8.5c-0.1,1.5,0,3,0.2,4.4
				c0.2,1.5,0.5,3,0.8,4.4c0.5,2.1,1.1,4.1,1.8,6.2c0.9,2.8,1.7,5.7,2.1,8.6c0.2,1.4,0.4,2.9,0.4,4.3c0,1.4-0.2,2.7-0.8,4
				c-0.5,1.3-1.3,2.4-2,3.5c-0.8,1.1-2,1.9-3.2,2.4c-0.6,0.2-1.1,0.5-1.7,0.6c-0.2,0.1-0.3,0.1-0.5,0.1c-0.7,0-1.3,0-2,0
				c0,0-0.1,0-0.1,0C290.3,422.4,289.5,422.1,288.6,421.8z"/>
		</g>
		<g>
			<path class="st7" d="M295.8,390.4c-0.1-0.7-0.3-1.5-0.4-2.2c0-0.1,0-0.2,0-0.3h-7.9c-0.1,0.9-0.2,1.7-0.4,2.5H295.8z"/>
		</g>
		<g>
			<path class="st7" d="M287.7,384c0,0.8,0,1.6,0,2.4h7.6c-0.1-0.8-0.1-1.6,0-2.4H287.7z"/>
		</g>
		<g class="st13">
			<path class="st14" d="M286.6,373.6C286.6,373.6,286.6,373.7,286.6,373.6c-0.1,0.8,0,1.6,0,2.4c0-0.3,0-0.5,0-0.8
				C286.6,374.7,286.6,374.1,286.6,373.6z"/>
			<path class="st14" d="M290.8,411.7c0-1.4-0.2-2.9-0.4-4.3c-0.5-2.9-1.3-5.8-2.1-8.6c-0.6-2-1.2-3.9-1.7-5.9
				c-0.2,0.7-0.4,1.4-0.6,2.1c-0.6,2.2-1.3,4.4-2,6.6c-0.8,2.8-1.4,5.7-1.6,8.6c-0.1,1.4-0.2,2.8,0.2,4.2c0.3,1.3,1,2.5,1.7,3.6
				c0.4,0.6,0.7,1.2,1.2,1.7c0.3,0.4,0.7,0.7,1.1,0.9c0.6-0.4,1.1-0.8,1.4-1.4c0.8-1.1,1.5-2.3,2-3.5
				C290.6,414.4,290.9,413.1,290.8,411.7z"/>
		</g>
		<g>
			<path class="st8" d="M275.8,421.8c-0.5-0.2-1-0.5-1.5-0.8c-0.6-0.4-1.2-0.8-1.6-1.3c-0.5-0.5-0.8-1.1-1.2-1.7
				c-0.7-1.1-1.4-2.3-1.7-3.6c-0.4-1.4-0.3-2.8-0.2-4.2c0.3-2.9,0.9-5.8,1.6-8.6c0.6-2.2,1.3-4.4,2-6.6c0.8-2.7,1.4-5.5,1.6-8.4
				c0.1-1.5,0.1-2.9-0.1-4.4c-0.2-1.4-0.5-2.9-0.7-4.3c-0.2-1.4-0.3-2.8-0.2-4.2c0.1-1.3,0.2-2.7,1.1-3.7c0.8-1,1.8-2.3,3.8-2.3
				c2,0,3.9,1.5,4.5,3.6c0.2,0.6,0.3,1.3,0.3,1.9c0.1,0.7,0.1,1.4,0.1,2.1c-0.1,2.9-1,5.7-1.2,8.5c-0.1,1.5,0,3,0.2,4.4
				c0.2,1.5,0.5,3,0.8,4.4c0.5,2.1,1.1,4.1,1.8,6.2c0.9,2.8,1.7,5.7,2.1,8.6c0.2,1.4,0.4,2.9,0.4,4.3c0,1.4-0.2,2.7-0.8,4
				c-0.5,1.3-1.3,2.4-2,3.5c-0.8,1.1-2,1.9-3.2,2.4c-0.6,0.2-1.1,0.5-1.7,0.6c-0.2,0.1-0.3,0.1-0.5,0.1c-0.7,0-1.3,0-2,0
				c0,0-0.1,0-0.1,0C277.4,422.4,276.6,422.1,275.8,421.8z"/>
		</g>
		<g>
			<path class="st7" d="M283,390.4c-0.1-0.7-0.3-1.5-0.4-2.2c0-0.1,0-0.2,0-0.3h-7.9c-0.1,0.9-0.2,1.7-0.4,2.5H283z"/>
		</g>
		<g>
			<path class="st7" d="M274.8,384c0,0.8,0,1.6,0,2.4h7.6c-0.1-0.8-0.1-1.6,0-2.4H274.8z"/>
		</g>
		<g>
			<circle class="st1" cx="266.1" cy="406.7" r="16.3"/>
		</g>
		<g>
			<circle class="st0" cx="261.3" cy="398.5" r="2.3"/>
		</g>
		<g>
			<circle class="st0" cx="269" cy="395.8" r="2.3"/>
		</g>
		<g>
			<path class="st0" d="M271.3,403.8c0,1.2-1,2.3-2.3,2.3s-2.3-1-2.3-2.3c0-1.2,1-2.3,2.3-2.3S271.3,402.6,271.3,403.8z"/>
		</g>
	</g>
</g>
</svg>
