<?xml version="1.0" encoding="utf-8"?>
<!-- Generator: Adobe Illustrator 19.0.0, SVG Export Plug-In . SVG Version: 6.00 Build 0)  -->
<svg version="1.1" id="Layer_1" xmlns="http://www.w3.org/2000/svg" xmlns:xlink="http://www.w3.org/1999/xlink" x="0px" y="0px"
	 viewBox="-254 56 450 450" style="enable-background:new -254 56 450 450;" xml:space="preserve">
<style type="text/css">
	.st0{fill:#FFFFFF;}
	.st1{fill:#414042;}
	.st2{fill:#7BA565;}
	.st3{fill:#3B4350;}
	.st4{fill:#E46A5D;}
	.st5{fill:#F1B14F;}
	.st6{fill:#77A8D8;}
	.st7{fill:#BF5151;}
	.st8{fill:#D1D3D4;}
	.st9{fill:#FFCD52;}
	.st10{fill:#DBAD49;}
	.st11{opacity:0.5;fill:#939598;enable-background:new    ;}
	.st12{fill:#464646;}
	.st13{display:none;}
	.st14{display:inline;fill:#77A8D8;}
	.st15{display:inline;}
	.st16{display:inline;fill:#FFFFFF;}
	.st17{display:inline;fill:#BF5151;}
	.st18{display:inline;fill:#414042;}
	.st19{opacity:0.5;}
	.st20{fill:#939598;}
</style>
<g id="Layer_4">
	<g>
		<rect x="-254" y="50" class="st0" width="450" height="450"/>
	</g>
</g>
<g id="Layer_5">
	<g>
		<rect x="-85" y="193.8" class="st1" width="1" height="16"/>
	</g>
	<g>
		<g>
			<path class="st2" d="M-186,137.7c2.7,1.4,5.9,0.2,7.1-2.6l7.7-17.9c0.8-1.9,0.3-4.6-1.2-6l-24.8-24.9c-1.5-1.5-4.2-2-6-1.1
				l-17.9,7.8c-2.8,1.2-4,4.4-2.6,7.1l2.5,4.9c0.9,1.8,3.4,3.1,5.4,2.8l5.6-1.7c2-0.3,4.9,0.6,6.3,2.1l9.8,9.8
				c1.5,1.5,2.4,4.3,2.1,6.3l-1.7,5.5c-0.3,2,0.9,4.4,2.8,5.4C-190.9,135.2-188.7,136.3-186,137.7z"/>
		</g>
		<g>
			<g>
				<path class="st3" d="M-196.4,98.7l-1.7-1.7c-0.3-0.3-0.3-0.9,0-1.2l1.7-1.7c0.3-0.3,0.3-0.9,0-1.2l-2.3-2.3
					c-0.3-0.3-0.8-0.3-1.2,0l-1.7,1.7c-0.3,0.3-0.8,0.3-1.2,0l-1.7-1.7c-0.3-0.3-0.9-0.3-1.2,0l-2.1,2.4c-0.3,0.3-0.3,0.8,0,1.2
					l1.7,1.7c0.3,0.3,0.3,0.8,0,1.2l-1.7,1.7c-0.3,0.3-0.3,0.9,0,1.2l2.3,2.3c0.3,0.3,0.8,0.3,1.2,0l1.7-1.7c0.3-0.3,0.9-0.3,1.2,0
					l1.7,1.7c0.3,0.3,0.9,0.3,1.2,0l2.3-2.3C-196.1,99.6-196.1,99-196.4,98.7z"/>
				<path class="st3" d="M-199.3,102.5L-199.3,102.5c-0.2,0-0.5-0.1-0.7-0.3l-1.7-1.7c-0.3-0.3-0.8-0.3-1,0l-1.7,1.7
					c-0.2,0.2-0.4,0.3-0.7,0.3c-0.2,0-0.5-0.1-0.7-0.3l-2.1-2.2c-0.2-0.2-0.3-0.4-0.3-0.7c0-0.2,0.1-0.5,0.3-0.7l1.7-1.7
					c0.3-0.3,0.3-0.7,0-1l-1.7-1.7c-0.2-0.2-0.3-0.4-0.3-0.7c0-0.2,0.1-0.5,0.3-0.7l2.3-2.3c0.2-0.2,0.4-0.3,0.7-0.3
					c0.2,0,0.5,0.1,0.7,0.3l1.7,1.7c0.3,0.3,0.8,0.3,1,0l1.7-1.7c0.2-0.2,0.4-0.3,0.7-0.3c0.2,0,0.5,0.1,0.7,0.3l2.3,2.3
					c0.2,0.2,0.3,0.4,0.3,0.7c0,0.2-0.1,0.5-0.3,0.7l-1.9,1.7c-0.3,0.3-0.3,0.7,0,1l1.7,1.7c0.2,0.2,0.3,0.4,0.3,0.7
					c0,0.2-0.1,0.5-0.3,0.7l-2.3,2.3C-198.8,102.4-199,102.5-199.3,102.5z M-202.1,100.2c0.2,0,0.5,0.1,0.7,0.3l1.7,1.7
					c0.1,0.1,0.3,0.2,0.5,0.2l0,0c0.2,0,0.4-0.1,0.5-0.2l2.3-2.3c0.1-0.1,0.2-0.3,0.2-0.5s-0.1-0.4-0.2-0.5l-1.7-1.7
					c-0.4-0.4-0.4-1,0-1.3l1.7-1.7c0.1-0.1,0.2-0.3,0.2-0.5c0-0.2-0.1-0.4-0.2-0.5l-2.3-2.3c-0.3-0.3-0.8-0.3-1,0l-1.7,1.7
					c-0.2,0.2-0.4,0.3-0.7,0.3c-0.2,0-0.5-0.1-0.7-0.3l-1.7-1.7c-0.3-0.3-0.8-0.3-1,0l-2.3,2.3c-0.1,0.1-0.2,0.3-0.2,0.5
					c0,0.2,0.1,0.4,0.2,0.5l1.7,1.7c0.4,0.4,0.4,1,0,1.3l-1.7,1.7c-0.1,0.1-0.2,0.3-0.2,0.5s0.1,0.4,0.2,0.5l2.3,2.3
					c0.3,0.3,0.8,0.3,1,0l1.7-1.7C-202.6,100.3-202.4,100.2-202.1,100.2z"/>
			</g>
		</g>
		<g>
			<g>
				<circle class="st4" cx="-183.9" cy="109.3" r="2.6"/>
				<path class="st4" d="M-183.9,112c-0.7,0-1.4-0.3-1.9-0.8s-0.8-1.2-0.8-1.9c0-0.7,0.3-1.4,0.8-1.9s1.2-0.8,1.9-0.8
					c0.7,0,1.4,0.3,1.9,0.8s0.8,1.2,0.8,1.9c0,0.7-0.3,1.4-0.8,1.9C-182.5,111.8-183.2,112-183.9,112z M-183.9,106.8
					c-0.7,0-1.3,0.3-1.8,0.7c-0.5,0.5-0.7,1.1-0.7,1.8c0,0.7,0.3,1.3,0.7,1.8c0.5,0.5,1.1,0.7,1.8,0.7c0.7,0,1.3-0.3,1.8-0.7
					c0.5-0.5,0.7-1.1,0.7-1.8c0-0.7-0.3-1.3-0.7-1.8C-182.6,107-183.2,106.8-183.9,106.8z"/>
			</g>
		</g>
		<g>
			<g>
				<circle class="st5" cx="-177.7" cy="115.5" r="2.6"/>
				<path class="st5" d="M-177.7,118.2c-0.7,0-1.4-0.3-1.9-0.8c-1.1-1.1-1.1-2.8,0-3.9c0.5-0.5,1.2-0.8,1.9-0.8s1.4,0.3,1.9,0.8
					s0.8,1.2,0.8,1.9s-0.3,1.4-0.8,1.9C-176.3,118-177,118.2-177.7,118.2z M-177.7,113c-0.7,0-1.3,0.3-1.8,0.7c-1,1-1,2.6,0,3.6
					c0.5,0.5,1.1,0.7,1.8,0.7s1.3-0.3,1.8-0.7c0.5-0.5,0.7-1.1,0.7-1.8s-0.3-1.3-0.7-1.8C-176.4,113.2-177,113-177.7,113z"/>
			</g>
		</g>
		<g>
			<g>
				<circle class="st5" cx="-187.4" cy="116.5" r="2.6"/>
				<path class="st5" d="M-187.4,119.3c-0.7,0-1.4-0.3-1.9-0.8c-1.1-1.1-1.1-2.8,0-3.9c0.5-0.5,1.2-0.8,1.9-0.8
					c0.7,0,1.4,0.3,1.9,0.8c1.1,1.1,1.1,2.8,0,3.9C-186,119-186.7,119.3-187.4,119.3z M-187.4,114c-0.7,0-1.3,0.3-1.8,0.7
					c-1,1-1,2.6,0,3.6c0.5,0.5,1.1,0.7,1.8,0.7c0.7,0,1.3-0.3,1.8-0.7c1-1,1-2.6,0-3.6C-186.1,114.3-186.7,114-187.4,114z"/>
			</g>
		</g>
		<g>
			<g>
				<circle class="st5" cx="-181.2" cy="122.7" r="2.6"/>
				<path class="st5" d="M-181.2,125.5c-0.7,0-1.4-0.3-1.9-0.8c-1.1-1.1-1.1-2.8,0-3.9c0.5-0.5,1.2-0.8,1.9-0.8s1.4,0.3,1.9,0.8
					s0.8,1.2,0.8,1.9c0,0.7-0.3,1.4-0.8,1.9C-179.8,125.2-180.5,125.5-181.2,125.5z M-181.2,120.2c-0.7,0-1.3,0.3-1.8,0.7
					c-1,1-1,2.6,0,3.6c0.5,0.5,1.1,0.7,1.8,0.7s1.3-0.3,1.8-0.7c0.5-0.5,0.7-1.1,0.7-1.8c0-0.7-0.3-1.3-0.7-1.8
					C-179.9,120.5-180.5,120.2-181.2,120.2z"/>
			</g>
		</g>
		<path class="st3" d="M-178.9,94.9l10.3-10.3l-2.1-2.1L-181,92.8l-0.2-0.2c-0.2-0.2-0.4-0.2-0.6-0.2c-0.2,0-0.4,0.1-0.5,0.2
			l-5.5,4.5c-0.2,0.1-0.3,0.3-0.3,0.5s0.1,0.4,0.2,0.5l3.8,3.8c0.1,0.1,0.3,0.2,0.5,0.2c0.2,0,0.4-0.1,0.5-0.3l4.5-5.5
			c0.3-0.3,0.2-0.8-0.1-1.1L-178.9,94.9z"/>
	</g>
	<g>
		<g>
			<path class="st6" d="M-74.2,113.7c0,5.6-4.6,10.1-10.3,10.1l0,0c-5.7,0-10.3-4.5-10.3-10.1V90.6c0-5.6,4.6-10.1,10.3-10.1l0,0
				c5.7,0,10.3,4.5,10.3,10.1V113.7z"/>
		</g>
		<path class="st1" d="M-73.3,97.6h-22.4c-0.5,0-0.8,0.4-0.8,0.8v10c0,0.5,0.4,0.8,0.8,0.8h22.4c0.5,0,0.8-0.4,0.8-0.8v-10
			C-72.4,98-72.8,97.6-73.3,97.6z"/>
		<g>
			<circle class="st1" cx="-90.3" cy="94" r="1.4"/>
			<circle class="st1" cx="-86.3" cy="94" r="1.4"/>
			<circle class="st1" cx="-78.4" cy="94" r="1.4"/>
			<circle class="st1" cx="-90.3" cy="90.7" r="1.4"/>
			<circle class="st1" cx="-86.3" cy="90.7" r="1.4"/>
			<circle class="st1" cx="-86.3" cy="87.4" r="1.4"/>
			<circle class="st1" cx="-82.4" cy="94" r="1.4"/>
			<circle class="st1" cx="-82.4" cy="90.7" r="1.4"/>
			<circle class="st1" cx="-82.4" cy="87.4" r="1.4"/>
			<circle class="st1" cx="-78.4" cy="90.7" r="1.4"/>
			<circle class="st1" cx="-90.3" cy="87.4" r="1.4"/>
			<circle class="st1" cx="-86.3" cy="84.2" r="1.4"/>
			<circle class="st1" cx="-82.4" cy="84.2" r="1.4"/>
			<circle class="st1" cx="-78.4" cy="87.4" r="1.4"/>
		</g>
		<path class="st1" d="M-63.6,103.8c0-2.4-1.9-4.3-4.2-4.5c-0.1,0-0.2,0-0.3,0c-0.9,0-1.6,0.7-1.6,1.6v5.8v7.1
			c0,7.9-6.6,14.4-14.7,14.4c-8.1,0-14.7-6.5-14.7-14.4v-7.1v-5.8c0-0.9-0.7-1.6-1.6-1.6c-0.1,0-0.2,0-0.3,0
			c-2.3,0.2-4.2,2.1-4.2,4.5c0,1.9,1.2,3.5,2.9,4.2v5.7c0,9.2,7.2,16.8,16.4,17.6v6.4h-11.3c-1.3,0-2.3,1-2.3,2.3
			c0,1.3,1,2.3,2.3,2.3h25.9c1.3,0,2.3-1,2.3-2.3c0-1.3-1-2.3-2.3-2.3h-11.3v-6.4c9.2-0.8,16.4-8.4,16.4-17.6V108
			C-64.8,107.3-63.6,105.7-63.6,103.8z"/>
	</g>
	<g>
		<g>
			<path class="st7" d="M60.2,107.4c-0.2-0.2-0.5-0.4-0.8-0.4c-6.4,0-11.3-2.1-15.7-4c-3.4-1.5-6.2-2.7-9.2-2.7
				c-2.3,0-4.5,0.9-6.5,2.6c-2-1.7-4.1-2.6-6.5-2.6c-2.9,0-5.8,1.3-9.2,2.7c-4.4,1.9-9.3,4-15.7,4c-0.3,0-0.6,0.1-0.8,0.4
				c-0.2,0.2-0.3,0.5-0.2,0.8l8,32c0.1,0.4,0.5,0.7,0.9,0.7c3.9,0,7.2-0.9,10.2-1.8c2.4-0.7,4.7-1.3,6.8-1.3c2.2,0,4,0.7,5.7,2.1
				l0,0l0,0c0,0,0.1,0,0.1,0.1l0.1,0.1l0,0c0.1,0,0.2,0.1,0.3,0.1h0.1h0.1c0.1,0,0.2,0,0.3-0.1l0,0c0.1,0,0.1-0.1,0.1-0.1
				s0.1,0,0.1-0.1l0,0l0,0c1.8-1.5,3.6-2.1,5.7-2.1s4.4,0.6,6.8,1.3c3,0.8,6.3,1.8,10.2,1.8c0.5,0,0.8-0.3,0.9-0.7l8-32
				C60.5,107.9,60.4,107.6,60.2,107.4z"/>
			<path class="st8" d="M28.1,100.9c-8.2-8.4-15.1,3.8-29.9,3.8l7.6,32c9.4,0,15.7-6.4,22.3-0.7c6.6-5.7,12.8,0.7,22.3,0.7l7.6-32
				C43.2,104.7,36.3,92.5,28.1,100.9z"/>
			<g>
				<g>
					<path class="st1" d="M6.2,110.9c-1,0-1.7-0.4-2.3-0.8c-0.7-0.4-1.1-0.7-1.9-0.5c-0.5,0.1-1-0.2-1.1-0.7s0.2-1,0.7-1.1
						c1.5-0.4,2.5,0.2,3.2,0.7c0.7,0.4,1.1,0.7,1.9,0.5c0.8-0.2,1-0.6,1.4-1.3c0.5-0.8,1.1-1.7,2.6-2.1c1.5-0.4,2.5,0.2,3.2,0.7
						c0.7,0.4,1.1,0.7,1.9,0.5c0.8-0.2,1-0.6,1.4-1.3c0.5-0.8,1.1-1.7,2.6-2.1c1.5-0.4,2.5,0.2,3.2,0.7c0.7,0.4,1.1,0.7,1.9,0.5
						c0.5-0.1,1,0.2,1.1,0.7s-0.2,1-0.7,1.1c-1.5,0.4-2.5-0.2-3.3-0.7c-0.7-0.4-1.1-0.7-1.9-0.5c-0.8,0.2-1,0.6-1.4,1.3
						c-0.5,0.8-1.1,1.7-2.6,2.1c-1.5,0.4-2.5-0.2-3.3-0.7c-0.7-0.4-1.1-0.7-1.9-0.5c-0.8,0.2-1,0.6-1.4,1.3
						c-0.5,0.8-1.1,1.7-2.6,2.1C6.8,110.8,6.5,110.9,6.2,110.9z"/>
				</g>
				<g>
					<path class="st1" d="M8,118.1c-1,0-1.7-0.5-2.3-0.9c-0.7-0.4-1-0.6-1.6-0.5c-0.5,0.1-1-0.2-1.1-0.7s0.2-1,0.7-1.1
						c1.4-0.3,2.4,0.3,3.1,0.8c0.7,0.4,1,0.6,1.6,0.5s0.8-0.5,1.2-1.2c0.4-0.7,1-1.7,2.4-2.1c1.4-0.3,2.4,0.3,3.1,0.8
						c0.7,0.4,1,0.6,1.6,0.5s0.8-0.5,1.2-1.2c0.4-0.7,1-1.7,2.4-2.1c1.4-0.3,2.4,0.3,3.1,0.8c0.7,0.4,1,0.6,1.6,0.5
						c0.5-0.1,1,0.2,1.1,0.7s-0.2,1-0.7,1.1c-1.4,0.3-2.4-0.3-3.1-0.8c-0.7-0.4-1-0.6-1.6-0.5s-0.8,0.5-1.2,1.2
						c-0.4,0.7-1,1.7-2.4,2.1c-1.4,0.3-2.4-0.3-3.1-0.8c-0.7-0.4-1-0.6-1.6-0.5s-0.8,0.5-1.2,1.2c-0.4,0.7-1,1.7-2.4,2.1
						C8.5,118,8.3,118.1,8,118.1z"/>
				</g>
				<g>
					<path class="st1" d="M9.2,125.3c-1,0-1.7-0.5-2.2-0.9c-0.6-0.4-0.9-0.6-1.4-0.5s-1-0.2-1.1-0.7s0.2-1,0.7-1.1
						c1.4-0.3,2.3,0.3,3,0.8c0.6,0.4,0.9,0.6,1.4,0.5s0.7-0.4,1-1.1c0.4-0.7,0.9-1.7,2.3-2.1c1.4-0.3,2.3,0.3,3,0.8
						c0.6,0.4,0.9,0.6,1.4,0.5s0.7-0.4,1-1.1c0.4-0.7,0.9-1.7,2.3-2.1c1.4-0.3,2.3,0.3,3,0.8c0.6,0.4,0.9,0.6,1.4,0.5
						c0.5-0.1,1,0.2,1.1,0.7s-0.2,1-0.7,1.1c-1.4,0.3-2.3-0.3-3-0.8c-0.6-0.4-0.9-0.6-1.4-0.5s-0.7,0.4-1,1.1
						c-0.4,0.7-0.9,1.7-2.3,2.1c-1.4,0.3-2.3-0.3-3-0.8c-0.6-0.4-0.9-0.6-1.4-0.5s-0.7,0.4-1,1.1c-0.4,0.7-0.9,1.7-2.3,2.1
						C9.7,125.3,9.5,125.3,9.2,125.3z"/>
				</g>
				<g>
					<path class="st1" d="M10.8,132.6c-1,0-1.7-0.5-2.2-0.9c-0.6-0.5-0.9-0.6-1.3-0.5c-0.5,0.1-1-0.2-1.1-0.7s0.2-1,0.7-1.1
						c1.3-0.3,2.2,0.4,2.9,0.9c0.6,0.5,0.9,0.6,1.3,0.5s0.6-0.4,0.9-1.1c0.3-0.7,0.8-1.7,2.2-2.1c1.3-0.3,2.2,0.4,2.9,0.9
						c0.6,0.5,0.9,0.6,1.3,0.5c0.4-0.1,0.6-0.4,0.9-1.1s0.8-1.7,2.2-2.1c1.3-0.3,2.2,0.4,2.9,0.9c0.6,0.5,0.9,0.6,1.3,0.5
						c0.5-0.1,1,0.2,1.1,0.7s-0.2,1-0.7,1.1c-1.3,0.3-2.2-0.4-2.9-0.9c-0.6-0.5-0.9-0.6-1.3-0.5s-0.6,0.4-0.9,1.1
						c-0.3,0.7-0.8,1.7-2.2,2.1c-1.3,0.3-2.2-0.4-2.9-0.9c-0.6-0.5-0.9-0.6-1.3-0.5c-0.4,0.1-0.6,0.4-0.9,1.1s-0.8,1.7-2.2,2.1
						C11.2,132.5,11,132.6,10.8,132.6z"/>
				</g>
				<g>
					<path class="st1" d="M53.8,111.9c-0.1,0-0.1,0-0.2,0c-1.5-0.4-2.1-1.3-2.6-2.1c-0.4-0.6-0.7-1.1-1.4-1.3
						c-0.8-0.2-1.2,0.1-1.9,0.5c-0.8,0.5-1.7,1-3.2,0.7c-1.5-0.4-2.1-1.3-2.6-2.1c-0.4-0.6-0.7-1.1-1.4-1.3
						c-0.8-0.2-1.2,0.1-1.9,0.5c-0.8,0.5-1.7,1-3.2,0.7c-1.5-0.4-2.1-1.3-2.6-2.1c-0.4-0.6-0.7-1.1-1.4-1.3
						c-0.5-0.1-0.8-0.6-0.7-1.1c0.1-0.5,0.6-0.8,1.1-0.7c1.5,0.4,2.1,1.3,2.6,2.1c0.4,0.6,0.7,1.1,1.4,1.3c0.8,0.2,1.2-0.1,1.9-0.5
						c0.8-0.5,1.7-1,3.2-0.7c1.5,0.4,2.1,1.3,2.6,2.1c0.4,0.6,0.7,1.1,1.4,1.3c0.8,0.2,1.2-0.1,1.9-0.5c0.8-0.5,1.7-1,3.2-0.7
						c1.5,0.4,2.1,1.3,2.6,2.1c0.4,0.6,0.7,1.1,1.4,1.3c0.5,0.1,0.8,0.6,0.7,1.1C54.6,111.6,54.2,111.9,53.8,111.9z"/>
				</g>
				<g>
					<path class="st1" d="M51.7,119c-0.1,0-0.1,0-0.2,0c-1.4-0.3-2-1.3-2.4-2.1c-0.4-0.7-0.6-1-1.2-1.2c-0.6-0.1-1,0.1-1.6,0.5
						c-0.7,0.5-1.6,1.1-3.1,0.8c-1.4-0.3-2-1.3-2.4-2.1c-0.4-0.7-0.6-1-1.2-1.2c-0.6-0.1-1,0.1-1.6,0.5c-0.7,0.5-1.6,1.1-3.1,0.8
						c-1.4-0.3-2-1.3-2.4-2.1c-0.4-0.7-0.6-1-1.2-1.2c-0.5-0.1-0.8-0.6-0.7-1.1c0.1-0.5,0.6-0.8,1.1-0.7c1.4,0.3,2,1.3,2.4,2.1
						c0.4,0.7,0.6,1,1.2,1.2c0.6,0.1,1-0.1,1.6-0.5c0.7-0.5,1.6-1.1,3.1-0.8c1.4,0.3,2,1.3,2.4,2.1c0.4,0.7,0.6,1,1.2,1.2
						c0.6,0.1,1-0.1,1.6-0.5c0.7-0.5,1.6-1.1,3.1-0.8c1.4,0.3,2,1.3,2.4,2.1c0.4,0.7,0.6,1,1.2,1.2c0.5,0.1,0.8,0.6,0.7,1.1
						C52.5,118.7,52.2,119,51.7,119z"/>
				</g>
				<g>
					<path class="st1" d="M50.3,126.1c-0.1,0-0.1,0-0.2,0c-1.4-0.3-1.9-1.3-2.3-2.1c-0.3-0.7-0.5-1-1-1.1s-0.8,0.1-1.4,0.5
						c-0.7,0.5-1.6,1.1-3,0.8c-1.4-0.3-1.9-1.3-2.3-2.1c-0.3-0.7-0.5-1-1-1.1s-0.8,0.1-1.4,0.5c-0.7,0.5-1.6,1.1-3,0.8
						c-1.4-0.3-1.9-1.3-2.3-2.1c-0.3-0.7-0.5-1-1-1.1s-0.8-0.6-0.7-1.1c0.1-0.5,0.6-0.8,1.1-0.7c1.4,0.3,1.9,1.3,2.3,2.1
						c0.3,0.7,0.5,1,1,1.1c0.5,0.1,0.8-0.1,1.4-0.5c0.7-0.5,1.6-1.1,3-0.8c1.4,0.3,1.9,1.3,2.3,2.1c0.3,0.7,0.5,1,1,1.1
						s0.8-0.1,1.4-0.5c0.7-0.5,1.6-1.1,3-0.8c1.4,0.3,1.9,1.3,2.3,2.1c0.3,0.7,0.5,1,1,1.1s0.8,0.6,0.7,1.1
						C51.1,125.9,50.7,126.1,50.3,126.1z"/>
				</g>
				<g>
					<path class="st1" d="M48.6,133.4c-0.1,0-0.1,0-0.2,0c-1.3-0.3-1.8-1.3-2.2-2.1c-0.3-0.7-0.5-1-0.9-1.1
						c-0.4-0.1-0.7,0.1-1.3,0.5c-0.6,0.5-1.5,1.2-2.9,0.9c-1.3-0.3-1.8-1.3-2.2-2.1c-0.3-0.7-0.5-0.9-0.9-1.1
						c-0.4-0.1-0.7,0.1-1.3,0.5c-0.6,0.5-1.5,1.2-2.9,0.9c-1.3-0.3-1.8-1.3-2.2-2.1c-0.3-0.7-0.5-1-0.9-1.1
						c-0.5-0.1-0.8-0.6-0.7-1.1c0.1-0.5,0.6-0.8,1.1-0.7c1.3,0.3,1.8,1.3,2.2,2.1c0.3,0.7,0.5,0.9,0.9,1.1c0.4,0.1,0.7-0.1,1.3-0.5
						c0.6-0.5,1.5-1.2,2.9-0.9c1.3,0.3,1.8,1.3,2.2,2.1c0.3,0.7,0.5,0.9,0.9,1.1c0.4,0.1,0.7-0.1,1.3-0.5c0.6-0.5,1.5-1.2,2.9-0.9
						c1.3,0.3,1.8,1.3,2.2,2.1c0.3,0.7,0.5,0.9,0.9,1.1c0.5,0.1,0.8,0.6,0.7,1.1C49.4,133.1,49,133.4,48.6,133.4z"/>
				</g>
			</g>
		</g>
		<path class="st7" d="M42,81.1h-5.4c-2,0-3.9,0.9-5.1,2.4c-2.1-1-4.6-1-6.7,0c-1.2-1.5-3.1-2.4-5.1-2.4h-5.4c-3.7,0-6.7,3-6.7,6.7
			c0,3.7,3,6.7,6.7,6.7h5.4c3.7,0,6.7-3,6.7-6.7c0-1-0.2-1.9-0.6-2.7c1.5-0.7,3.2-0.7,4.7,0c-0.4,0.8-0.6,1.7-0.6,2.7
			c0,3.7,3,6.7,6.7,6.7H42c3.7,0,6.7-3,6.7-6.7C48.7,84.1,45.7,81.1,42,81.1z M19.7,92.6h-5.4c-2.7,0-4.8-2.2-4.8-4.8
			c0-2.6,2.2-4.8,4.8-4.8h5.4c2.6,0,4.8,2.2,4.8,4.8C24.5,90.4,22.3,92.6,19.7,92.6z M42,92.6h-5.4c-2.7,0-4.8-2.2-4.8-4.8
			c0-0.9,0.3-1.8,0.7-2.5c0,0,0,0,0.1,0c0-0.1,0-0.1,0.1-0.2c0.9-1.3,2.3-2.1,4-2.1h5.4c2.7,0,4.8,2.2,4.8,4.8
			C46.9,90.4,44.6,92.6,42,92.6z"/>
		<path class="st6" d="M46.8,87.8c0,2.6-2.2,4.8-4.8,4.8h-5.4c-2.7,0-4.8-2.2-4.8-4.8c0-0.9,0.3-1.8,0.7-2.5c0,0,0,0,0.1,0
			c0-0.1,0-0.1,0.1-0.2c0.9-1.3,2.3-2.1,4-2.1h5.4C44.6,83,46.8,85.1,46.8,87.8z"/>
		<path class="st6" d="M24.5,87.8c0,2.6-2.2,4.8-4.8,4.8h-5.4c-2.7,0-4.8-2.2-4.8-4.8c0-2.6,2.2-4.8,4.8-4.8h5.4
			C22.3,83,24.5,85.1,24.5,87.8z"/>
	</g>
	<g>
		<g>
			<path class="st7" d="M167.7,134.3c0,2.2-1.8,4-4,4h-45.9c-2.2,0-4-1.8-4-4v-32.7c0-2.2,1.8-4,4-4h45.9c2.2,0,4,1.8,4,4V134.3z"/>
		</g>
		<g>
			<path class="st6" d="M156.1,132.9c0,1.3-1.2,2.4-2.7,2.4h-33.9c-1.5,0-2.7-1.1-2.7-2.4V103c0-1.3,1.2-2.4,2.7-2.4h33.9
				c1.5,0,2.7,1.1,2.7,2.4V132.9z"/>
		</g>
		<g>
			<circle class="st9" cx="161.8" cy="113.9" r="1.5"/>
		</g>
		<g>
			<circle class="st9" cx="161.8" cy="119.3" r="1.5"/>
		</g>
		<g>
			<circle class="st9" cx="161.8" cy="124.8" r="1.5"/>
		</g>
		<g>
			<g>
				<circle class="st3" cx="161.8" cy="131.9" r="2.2"/>
			</g>
		</g>
		<g>
			<path class="st1" d="M144.5,93.4l7.3-7.3l-1.3-1.3l-7.4,7.4l0.7,0.7c-0.9-0.6-2.1-1-3.3-1c-0.9,0-1.7,0.2-2.4,0.6l0.2-0.2
				l-7.4-7.4l-1.3,1.3l7.1,7.1c-1.2,1.1-2,2.6-2,4.3h11.5C146.3,96,145.6,94.5,144.5,93.4z"/>
			<g>
				<circle class="st4" cx="130.2" cy="85.5" r="1.9"/>
			</g>
			<g>
				<circle class="st4" cx="151.1" cy="85.5" r="1.9"/>
			</g>
		</g>
		<g>
			<g>
				<path class="st9" d="M128.7,112.6h-4.6V111h11.3v1.7h-4.7v13.6h-2L128.7,112.6L128.7,112.6z"/>
			</g>
			<g>
				<path class="st9" d="M141.3,126.2l-5-15.2h2.1l2.4,7.5c0.6,2.1,1.2,3.9,1.6,5.7h0.1c0.4-1.8,1-3.7,1.7-5.7l2.6-7.5h2.1
					l-5.4,15.2H141.3z"/>
			</g>
		</g>
	</g>
	<g>
		<g>
			<path class="st9" d="M-186.7,203.5c-10.8,0-19.6-2.9-19.6-6.4c0,26.1,8.8,47.3,19.6,47.3s19.6-21.2,19.6-47.3
				C-167.1,200.6-175.9,203.5-186.7,203.5z"/>
		</g>
		<g>
			<g>
				<path class="st1" d="M-191.2,217.2c-0.3,0-0.5-0.1-0.8-0.3l-5.7-3.9c-0.7-0.5-1-1.6-0.5-2.4c0.4-0.8,1.4-1.1,2.1-0.6l5.7,3.9
					c0.7,0.5,1,1.6,0.5,2.4C-190.2,216.9-190.7,217.2-191.2,217.2z"/>
			</g>
			<g>
				<path class="st1" d="M-182.3,217.2c-0.5,0-1-0.3-1.3-0.8c-0.4-0.8-0.2-1.9,0.5-2.4l5.7-3.9c0.7-0.5,1.7-0.2,2.1,0.6
					c0.4,0.8,0.2,1.9-0.5,2.4l-5.7,3.9C-181.7,217.1-182,217.2-182.3,217.2z"/>
			</g>
		</g>
		<g>
			<path class="st1" d="M-180.1,232.8c-0.3,0-0.6-0.1-0.8-0.3c-3.5-2.6-8.1-2.6-11.6,0c-0.7,0.5-1.7,0.3-2.1-0.5
				c-0.5-0.8-0.3-1.9,0.4-2.4c4.5-3.3,10.4-3.3,15,0c0.7,0.5,0.9,1.6,0.4,2.4C-179.1,232.5-179.6,232.8-180.1,232.8z"/>
		</g>
		<g>
			<path class="st6" d="M-207.3,210.8c-10.8,0-19.6-2.9-19.6-6.4c0,26.1,8.8,47.3,19.6,47.3s19.6-21.2,19.6-47.3
				C-187.7,207.9-196.5,210.8-207.3,210.8z"/>
		</g>
		<g>
			<g>
				<path class="st1" d="M-217.5,225.6c-0.5,0-1-0.3-1.3-0.8c-0.4-0.8-0.2-1.9,0.5-2.4l5.7-3.9c0.7-0.5,1.7-0.2,2.1,0.6
					s0.2,1.9-0.5,2.4l-5.7,3.9C-217,225.5-217.2,225.6-217.5,225.6z"/>
			</g>
			<g>
				<path class="st1" d="M-197.2,225.6c-0.3,0-0.5-0.1-0.8-0.3l-5.7-3.9c-0.7-0.5-1-1.6-0.5-2.4c0.4-0.8,1.4-1.1,2.1-0.6l5.7,3.9
					c0.7,0.5,1,1.6,0.5,2.4C-196.1,225.3-196.6,225.6-197.2,225.6z"/>
			</g>
		</g>
		<g>
			<path class="st1" d="M-207.3,241.2c-2.6,0-5.2-0.8-7.5-2.5c-0.7-0.5-0.9-1.6-0.4-2.4c0.5-0.8,1.4-1,2.1-0.5
				c3.5,2.6,8.1,2.6,11.6,0c0.7-0.5,1.7-0.3,2.1,0.5c0.5,0.8,0.3,1.9-0.4,2.4C-202.1,240.4-204.7,241.2-207.3,241.2z"/>
		</g>
	</g>
	<g>
		<g>
			<path class="st9" d="M-66.3,223.6h-18.1h-18.1c0.6,19.2-11.3,31.2-11.3,31.2h29.4H-55C-55,254.8-67,242.8-66.3,223.6z"/>
		</g>
		<g>
			<path class="st6" d="M-84.5,205.9c0,0-5.4,12.4-18.1,17.7h18.1h18.1C-79,218.4-84.5,205.9-84.5,205.9z"/>
		</g>
		<g>
			<path class="st9" d="M-84.5,205.9c0,0-3.3,12.4-10.9,17.7h10.9h10.9C-81.2,218.4-84.5,205.9-84.5,205.9z"/>
		</g>
		<g>
			<path class="st2" d="M-84.5,205.9c0,0-1.4,12.4-4.8,17.7h4.8h4.8C-83,218.4-84.5,205.9-84.5,205.9z"/>
		</g>
		<g>
			<path class="st10" d="M-84.5,223.6c0,0-5.4,21.9-18.1,31.2h18.1h18.1C-79,245.5-84.5,223.6-84.5,223.6z"/>
		</g>
		<g>
			<path class="st1" d="M-84.5,224.5c0,0-2.3,21.3-7.7,30.3h7.7h7.7C-82.2,245.8-84.5,224.5-84.5,224.5z"/>
		</g>
		<g>
			<polygon class="st7" points="-72.7,200.6 -84,200.6 -84,193.8 -72.7,193.8 -75.1,197.2 			"/>
		</g>
		<g>
			<path class="st7" d="M-98.1,228.2c2.5,0,4.5-2,4.5-4.5h-9.1C-102.6,226.1-100.6,228.2-98.1,228.2z"/>
		</g>
		<g>
			<path class="st7" d="M-89,228.2c2.5,0,4.5-2,4.5-4.5h-9.1C-93.5,226.1-91.5,228.2-89,228.2z"/>
		</g>
		<g>
			<path class="st7" d="M-79.9,228.2c2.5,0,4.5-2,4.5-4.5h-9.1C-84.5,226.1-82.4,228.2-79.9,228.2z"/>
		</g>
		<g>
			<path class="st7" d="M-70.9,228.2c2.5,0,4.5-2,4.5-4.5h-9.1C-75.4,226.1-73.4,228.2-70.9,228.2z"/>
		</g>
	</g>
	<g>
		<g>
			<g>
				<path class="st7" d="M18.8,203.2c-4-4-11.4-3.2-16.4,1.9c-5,5-5.9,12.4-1.9,16.4L18.8,203.2z"/>
			</g>
			<g>
				<path class="st7" d="M49.3,233.8c4,4,3.2,11.4-1.9,16.4c-5,5-12.4,5.9-16.4,1.9L49.3,233.8z"/>
			</g>
		</g>
		<g>
			<path class="st1" d="M29.6,253.9c-0.7-0.7-0.6-1.8,0.1-2.5l21.7-21.7c5.9-5.9,6.3-15.2,0.9-20.6l-8.8-8.8
				c-5.4-5.4-14.7-5-20.6,0.9L1.2,222.9c-0.7,0.7-1.8,0.8-2.5,0.1s-0.6-1.8,0.1-2.5l21.7-21.7c7.4-7.4,18.8-7.9,25.6-1.1l8.8,8.8
				c6.7,6.7,6.2,18.2-1.1,25.6l-21.7,21.7C31.4,254.5,30.3,254.5,29.6,253.9z"/>
		</g>
		<g>
			<g>
				<path class="st7" d="M1.8,226c-0.7-0.7-0.6-1.8,0.1-2.5l18.3-18.3c0.7-0.7,1.8-0.8,2.5-0.1s0.6,1.8-0.1,2.5L4.3,225.9
					C3.6,226.7,2.4,226.7,1.8,226z"/>
			</g>
			<g>
				<path class="st7" d="M26.5,250.8c-0.7-0.7-0.6-1.8,0.1-2.5L44.9,230c0.7-0.7,1.8-0.8,2.5-0.1s0.6,1.8-0.1,2.5L29,250.7
					C28.3,251.4,27.2,251.4,26.5,250.8z"/>
			</g>
		</g>
		<g>
			<path class="st6" d="M40.9,221.8c-0.2-1.5-0.8-3-2.1-4.5c-0.8-1-1.9-2-3.2-3.1c-0.5-0.4-1.1-0.8-1.6-1.2l-0.6-0.6
				c-0.2-0.2-0.4-0.3-0.6-0.2h-0.3c-0.4,0-0.7,0.4-0.6,0.8l1.7,13.4c-0.4-0.1-0.8-0.1-1.2,0c-0.6,0.1-1.3,0.3-1.9,0.6
				c-0.9,0.5-1.6,1.1-2,1.9c-0.5,0.8-0.7,1.7-0.6,2.5c0.1,0.5,0.2,1,0.5,1.4c0.7,1,1.7,1.4,3.1,1.2c0.2,0,0.4-0.1,0.6-0.1
				c0.4-0.1,0.8-0.2,1.3-0.4c0.9-0.4,1.6-1,2.3-1.8c0.7-1,1-2,0.8-3L35,218c0,0,0,0,0.1,0c0.8,0.4,1.6,1,2.2,1.6
				c0.8,0.8,1.2,1.6,1.2,2.4c0.1,0.5,0.3,1.1,0.7,1.4c0.3,0.2,0.5,0.3,0.8,0.2C40.4,223.6,40.9,223.2,40.9,221.8
				C40.9,221.9,40.9,221.9,40.9,221.8z"/>
			<path class="st6" d="M22,223.7l-6.7,0.9c-0.4,0.1-0.6,0.4-0.6,0.9L16,234c-0.2,0-0.4,0-0.6,0c-0.5,0.1-0.9,0.2-1.4,0.5
				c-0.6,0.3-1.1,0.8-1.4,1.4c-0.3,0.6-0.5,1.3-0.4,1.9c0.1,0.4,0.2,0.7,0.4,1c0.4,0.5,1.1,1,2.3,0.9c0.4-0.1,0.9-0.2,1.3-0.4
				c0.6-0.3,1.2-0.7,1.6-1.3c0.5-0.7,0.7-1.5,0.5-2.2l-1.3-8.3l3.9-0.6l1.7,11c0.1,0.4,0.4,0.7,0.8,0.7l0.7-0.1c0,0,0,0,0.1,0
				c0.2,0,0.3-0.1,0.4-0.3s0.2-0.4,0.1-0.6l-2.1-13.3C22.7,223.9,22.4,223.6,22,223.7z"/>
		</g>
	</g>
	<g>
		<g>
			<path class="st9" d="M144.8,231.9c0.6-0.2,1.2-0.5,1.8-0.7c0.9-0.4,1.8-1,2.6-1.8c3.8-3.8,3.5-10.4-0.8-14.7s-10.8-4.6-14.7-0.8
				c-0.8,0.8-1.4,1.6-1.8,2.6c-0.3,0.6-0.5,1.2-0.7,1.8c-0.4,1-1.6,1.9-2.8,1.9c-0.7,0-1.4,0-2.1,0c-3.7-0.1-7.4,1.2-10.1,3.9
				c-5.6,5.6-5.1,15.3,1.2,21.6c6.3,6.3,16,6.8,21.6,1.2c2.7-2.7,4-6.3,3.9-10.1c0-0.7,0-1.5,0-2.1
				C142.9,233.5,143.8,232.2,144.8,231.9z"/>
		</g>
		<g>
			<circle class="st1" cx="128.3" cy="234.7" r="6.4"/>
		</g>
		<path class="st6" d="M164,202.4l-3.3-3.3c-0.2-0.2-0.6-0.2-0.9,0L132.9,226c-0.2,0.2-0.2,0.6,0,0.9l3.3,3.3c0.2,0.2,0.6,0.2,0.9,0
			l26.9-26.9C164.2,203,164.2,202.6,164,202.4z"/>
		<path class="st9" d="M168.6,194.6l-0.2-0.2c-2-2-5.3-2-7.3,0l-4.4,4.4c-2,2-2,5.3,0,7.3l0.2,0.2c2,2,5.3,2,7.3,0l4.4-4.4
			C170.6,199.9,170.6,196.7,168.6,194.6z"/>
		<g>
			<path class="st7" d="M125.3,214.9c-0.2-0.2-0.3-0.5-0.3-0.9c1-6.2,9.2-10.5,13.9-9.9c0.6,0.1,1,0.6,0.9,1.1
				c-0.1,0.6-0.6,1-1.1,0.9c-3.8-0.5-10.8,3.4-11.6,8.2c-0.1,0.6-0.6,0.9-1.2,0.8C125.6,215.1,125.4,215,125.3,214.9z"/>
		</g>
		<g>
			<path class="st7" d="M136.2,255.4c-0.1-0.1-0.2-0.3-0.3-0.5c-0.1-0.5,0.2-1.1,0.7-1.2c5.1-1.4,11.3-8.8,10.8-14.7
				c0-0.6,0.4-1,0.9-1.1c0.6,0,1,0.4,1.1,0.9c0.3,3.2-1.1,7-3.7,10.5c-2.4,3.2-5.7,5.6-8.6,6.4C136.8,255.8,136.4,255.7,136.2,255.4
				z"/>
		</g>
	</g>
	<g>
		<g>
			<path class="st8" d="M-183.1,358.8l-26.3-8.9c-1.5-0.5-2.3-2.1-1.8-3.7l12.5-37.1c0.5-1.5,2.1-2.3,3.7-1.8l26.3,8.8
				c1.5,0.5,2.3,2.1,1.8,3.7l-12.6,37.2C-180,358.5-181.6,359.3-183.1,358.8z"/>
		</g>
		<g>
			<path class="st7" d="M-185.8,326.5c-0.3-0.7-1.2-1-1.9-0.6l-8.1,4.4c-1.6,0.8-2.3,2.9-1.5,4.5l3.8,8.3c0.3,0.7,1.2,1,1.9,0.6
				l8.1-4.3c1.6-0.9,2.3-2.9,1.5-4.5L-185.8,326.5z"/>
		</g>
		<path class="st11" d="M-181.9,352.5l-10.1-37.8c-0.4-1.5-2-2.5-3.5-2l-4.8,1.3l-10.9,32.3c-0.5,1.5,0.3,3.2,1.8,3.7l21.4,7.2
			l4.1-1.1C-182.4,355.6-181.4,354.1-181.9,352.5z"/>
		<g>
			<path class="st8" d="M-186.7,360.8l-26.7,7.2c-1.5,0.4-3.1-0.5-3.5-2l-10.2-37.8c-0.4-1.5,0.5-3.1,2-3.5l26.8-7.2
				c1.5-0.4,3.1,0.5,3.5,2l10.2,37.8C-184.2,358.8-185.1,360.4-186.7,360.8z"/>
		</g>
		<g>
			<path class="st1" d="M-204.2,345.2c0.8,1.7,2.4,3.6,3.2,4.4c1.1,1.1,0.8,2.3-0.7,2.8l-3,0.8c-1.5,0.4-2.4-0.5-2-2
				c0.3-1.2,0.8-3.4,0.6-5.5c-1.4,4.3-6.7,4.3-7.8,0.3c-1.2-4.6,5.3-13.3,5.3-13.3s10,4.3,11.2,8.8
				C-196.3,345.4-200.8,348.2-204.2,345.2z"/>
		</g>
	</g>
	<g>
		<path class="st8" d="M-69.1,321.8c-13.7-1.6-6.7,17.3-21.1,22.3c-13.3,4.6-12.7,25,7.8,25c14.1,0,25.5-11.4,25.5-25.5
			C-56.9,334.3-60.6,322.8-69.1,321.8z M-61,337.9c0,1.6-1.3,2.9-2.9,2.9c-1.6,0-2.9-1.3-2.9-2.9s1.3-2.9,2.9-2.9
			S-61,336.3-61,337.9z M-68.7,326.7c1.6,0,2.9,1.3,2.9,2.9s-1.3,2.9-2.9,2.9c-1.6,0-2.9-1.3-2.9-2.9
			C-71.7,328-70.4,326.7-68.7,326.7z M-79.3,349.8c-4.8,0-4.9-4.7-1.8-5.8c3.4-1.2,1.7-5.6,4.9-5.2c2,0.2,2.8,2.9,2.8,5.1
			C-73.4,347.1-76,349.8-79.3,349.8z M-70.5,360.7c-1.6,0-2.9-1.3-2.9-2.9s1.3-2.9,2.9-2.9c1.6,0,2.9,1.3,2.9,2.9
			C-67.6,359.4-68.9,360.7-70.5,360.7z M-63.9,351.2c-1.6,0-2.9-1.3-2.9-2.9s1.3-2.9,2.9-2.9c1.6,0,2.9,1.3,2.9,2.9
			C-61,349.9-62.3,351.2-63.9,351.2z"/>
		<path class="st2" d="M-67.6,357.8c0,1.6-1.3,2.9-2.9,2.9c-1.6,0-2.9-1.3-2.9-2.9s1.3-2.9,2.9-2.9
			C-68.9,354.9-67.6,356.2-67.6,357.8z"/>
		<path class="st6" d="M-61,348.3c0,1.6-1.3,2.9-2.9,2.9c-1.6,0-2.9-1.3-2.9-2.9s1.3-2.9,2.9-2.9S-61,346.7-61,348.3z"/>
		<path class="st9" d="M-61,337.9c0,1.6-1.3,2.9-2.9,2.9c-1.6,0-2.9-1.3-2.9-2.9s1.3-2.9,2.9-2.9S-61,336.3-61,337.9z"/>
		<path class="st7" d="M-65.8,329.6c0,1.6-1.3,2.9-2.9,2.9c-1.6,0-2.9-1.3-2.9-2.9s1.3-2.9,2.9-2.9S-65.8,328-65.8,329.6z"/>
		<g>
			<path class="st6" d="M-111.6,362.9c-0.4-1.1-0.5-2.3-0.4-3.4c0.1-1.5,0.6-2.8,1.2-4.2c1.1-2.7,2.3-5.4,3.7-8.1s2.9-5.4,4.4-8.1
				s2.8-5.4,4.3-8.1c1.4-2.5,2.8-5.1,4.2-7.6c0.6-1,1.1-1.9,1.7-2.9c0.3-0.5,1-0.6,1.4-0.2s0.2,0.9,0,1.4c-1.7,5.4-3.8,10.7-5.9,16
				c-2.2,5.7-4.2,11.5-6.8,17c-0.5,1-1,2.1-1.5,3.1c-0.6,1-1.1,2.1-1.8,3c-0.7,0.8-1.5,1.5-2.5,2.1
				C-110.2,363.2-111.2,363.8-111.6,362.9z"/>
			<path class="st7" d="M-83.5,306.3c-0.4,0.1-0.8,0.2-1.1,0.3c-2.7,0.7-5.4,2-7.3,4.1c-1.7,1.8-2.7,4.2-2.3,6.8
				c0.1,1.2,0.5,2.3,1,3.3c0.1,0.2,0.2,0.5,0.4,0.7c0.1,0.3,0.3,0.6,0.5,0.8c0.5,0.5,1.1,0,1.6-0.3c1.9-1,3.8-2.3,4.6-4.4
				c0.3-1,0.5-2,0.6-3c0.2-1.1,0.4-2.2,0.9-3.3c0.6-1.3,1.3-2.4,2.1-3.5C-82,307.1-82.6,306.1-83.5,306.3z"/>
		</g>
	</g>
	<g>
		<path class="st1" d="M18.4,324.5v-10.8c0-1.5,0.5-2.6,1.2-3.3c0.4,0.3,0.8,0.5,1.4,0.5h6.8c0.4,0,0.9-0.1,1.2-0.4
			c0.6,0.7,1.1,1.8,1.1,3.1v10.8h3.2v-10.8c0-2.9-1.4-5.4-3.4-6.4c-0.3-0.8-1.1-1.4-2-1.4H21c-0.9,0-1.6,0.5-2,1.2
			c-2.2,1-3.8,3.5-3.8,6.6v10.8h3.2V324.5z"/>
		<g>
			<path class="st12" d="M15.7,359.4L15.7,359.4c0.8,0,1.4,0.6,1.4,1.4v5.5c0,0.8-0.6,1.4-1.4,1.4l0,0c-0.8,0-1.4-0.6-1.4-1.4v-5.5
				C14.3,360,14.9,359.4,15.7,359.4z"/>
		</g>
		<g>
			<path class="st12" d="M19,359.4L19,359.4c0.8,0,1.4,0.6,1.4,1.4v5.5c0,0.8-0.6,1.4-1.4,1.4l0,0c-0.8,0-1.4-0.6-1.4-1.4v-5.5
				C17.6,360,18.2,359.4,19,359.4z"/>
		</g>
		<g>
			<path class="st12" d="M29.5,359.4L29.5,359.4c0.8,0,1.4,0.6,1.4,1.4v5.5c0,0.8-0.6,1.4-1.4,1.4l0,0c-0.8,0-1.4-0.6-1.4-1.4v-5.5
				C28.1,360,28.7,359.4,29.5,359.4z"/>
		</g>
		<g>
			<path class="st12" d="M32.8,359.4L32.8,359.4c0.8,0,1.4,0.6,1.4,1.4v5.5c0,0.8-0.6,1.4-1.4,1.4l0,0c-0.8,0-1.4-0.6-1.4-1.4v-5.5
				C31.4,360,32,359.4,32.8,359.4z"/>
		</g>
		<path class="st9" d="M33.6,322.7H14.9c-3.8,0-7,3.1-7,7v28.5c0,3.8,3.1,7,7,7h18.7c3.8,0,7-3.1,7-7v-28.5
			C40.6,325.8,37.4,322.7,33.6,322.7z"/>
		<path class="st7" d="M29.3,327.6H19.2c-3.7,0-6.7,2.9-6.7,6.4v19.8c0,3.6,3,6.5,6.7,6.5h10.1c3.7,0,6.7-2.9,6.7-6.5V334
			C36,330.5,33,327.6,29.3,327.6z M15.5,335c0-2.4,1.9-4.3,4.3-4.3h8.8c2.4,0,4.3,2,4.3,4.3v17.9c0,2.4-1.9,4.3-4.3,4.3h-8.8
			c-2.4,0-4.3-2-4.3-4.3V335z"/>
		<g>
			<g>
				<path class="st6" d="M26.2,339.3h20.3c1,0,1.7,0.8,1.7,1.7v26.7c0,1-0.8,1.7-1.7,1.7H26.2c-1,0-1.7-0.8-1.7-1.7V341
					C24.4,340.1,25.2,339.3,26.2,339.3z"/>
			</g>
			<g>
				<g>
					<path class="st0" d="M36.3,357.8c-2.8-0.1-5.1-1.4-6.5-3.9c-0.1-0.2-0.2-0.5-0.3-0.7h-0.1v-0.1c-0.4-0.8-0.5-1.8-0.6-2.7
						c0-4.1,3.3-7.4,7.4-7.4c0.2,0,0.1,0,0.2,0c3.1,0.1,5.9,2.2,6.9,5.2c0.5,1.5,0.4,2.9,0,4.4c0,0.2-0.1,0.3-0.2,0.5l0,0H43
						c-0.1,0.2-0.2,0.5-0.3,0.7c-1,1.7-2.4,3-4.3,3.5c-0.5,0.1-1,0.2-1.4,0.3L36.3,357.8z M34.4,356.7h0.1c-0.5-0.5-0.8-1.3-1-2
						c-1-0.2-1.9-0.6-2.8-1c0.5,0.8,0.6,1,1.4,1.7c0.3,0.3,0.7,0.5,1.1,0.7L34.4,356.7z M33,353.7h0.1c-0.3-1.4-0.2-0.7-0.3-2.1
						c-0.3-0.1-0.6-0.2-0.9-0.2c-0.6-0.2-1.2-0.4-1.9-0.6l-0.3-0.1c0,0.6,0.1,1.3,0.4,1.9h0.1C31.1,353.1,32,353.5,33,353.7
						L33,353.7z M32.8,350.8L32.8,350.8c0-1,0-2,0.2-3l-0.5-0.1c-0.5-0.2-1-0.4-1.5-0.6l-0.2-0.1c-0.7,0.9-0.8,1.7-1,2.8v0.1
						c0.7,0.4,1.5,0.6,2.3,0.9L32.8,350.8z M34.4,347.3l1.6,0.1v-3.7c-0.2,0-0.3,0.1-0.4,0.2c-0.9,0.7-1.4,2.1-1.7,3.2l0,0
						L34.4,347.3z M32.7,346.9l0.5,0.1c0.2-0.9,0.1-0.7,0.6-1.8c0.1-0.2,0.3-0.7,0.5-0.9c0.1-0.1,0.2-0.2,0.3-0.4
						c-1.2,0.3-2.7,1.3-3.4,2.3c0.4,0.2,0.8,0.4,1.2,0.5L32.7,346.9z M34.1,351.1l1.8,0.2v-3h-0.2c-0.7-0.1-1.3-0.1-2-0.3l0,0l0,0
						c-0.1,1-0.2,2-0.2,3L34.1,351.1z M35.6,354.2H36V352h-0.2c-1.4-0.1-0.7-0.1-2.2-0.2c0.1,0.8,0,0.5,0.2,1.6
						c0.1,0.5,0.1,0.4,0.1,0.6l0.3,0.1L35.6,354.2z M35.5,356.7l0.4,0.2v-1.8h-0.2c-0.5-0.1-1-0.1-1.5-0.2c0.2,0.3,0.3,0.6,0.4,0.9
						c0.1,0.2,0.2,0.3,0.3,0.4C35.2,356.4,35.4,356.5,35.5,356.7z M36.7,355.1v1.8c0.7-0.3,1.1-0.8,1.4-1.4c0.1-0.2,0.1-0.3,0.2-0.5
						l-0.7,0.1H36.7z M38.3,356.6l-0.1,0.1c0.8-0.2,1.7-0.7,2.4-1.2c0.3-0.3,0.6-0.6,0.9-0.9c0.2-0.2,0.3-0.4,0.4-0.6l0,0
						c-0.8,0.4-1.7,0.7-2.7,0.9c-0.2,0.5-0.1,0.2-0.4,0.9L38.3,356.6z M36.7,354.2c0.6,0,1.3,0,1.9-0.1c0.2-0.5,0.2-1,0.3-1.5
						c0-0.1,0.1-0.5,0.1-0.7c-0.3,0-1.1,0.1-1.4,0.2c-0.3,0-0.6,0-1,0v2.1H36.7z M39.5,353.9L39.5,353.9c0.8-0.2,1.5-0.4,2.2-0.8
						c0.3-0.2,0.6-0.4,0.9-0.6c0.3-0.6,0.3-1.2,0.4-1.9c-1,0.5-2,0.8-3.1,1.1c-0.1,0.7-0.2,1.3-0.3,2L39.5,353.9z M36.7,351.2
						c0.8,0,1.6-0.1,2.4-0.2c0-0.8,0-0.8,0-1.7c0-0.3-0.1-0.5-0.1-0.8c0-0.2,0-0.4-0.1-0.6h-0.1c-0.5,0.1-1,0.1-1.5,0.2h-0.6
						L36.7,351.2L36.7,351.2z M39.9,350.2v0.7c0.7-0.2,1.4-0.4,2.1-0.6c0.3-0.1,0.7-0.3,1-0.5v-0.1c-0.3-1.4-0.2-1.2-0.8-2.5
						c-0.1-0.1-0.2-0.3-0.3-0.4c-0.7,0.5-1.4,0.7-2.2,1h-0.1c0.1,0.6,0,0.2,0.1,1.1L39.9,350.2z M36.7,343.8v3.7h0.6
						c0.5,0,0.9-0.1,1.4-0.2h0.1v-0.1c-0.2-1-0.7-2.5-1.7-3.2l-0.3-0.1L36.7,343.8z M39.4,346.5l0.1,0.5c0.7-0.2,1.3-0.5,2-0.9
						l-0.1-0.1c-0.3-0.3-0.6-0.6-0.9-0.9c-0.6-0.5-1.6-1.1-2.4-1.2c0.6,0.8,0.3,0.3,0.9,1.5L39.4,346.5z"/>
				</g>
				<g>
					<path class="st0" d="M28.3,361c-0.1,0-0.2,0-0.2,0h-0.4c-0.1,0-0.3,0-0.3,0v1.3c0,0.4,0,0.8,0,1.3v1.7c0,0.2,0,0.3,0.1,0.5h1.8
						c0,0,0,0,0-0.1v-0.3v-0.1c0-0.4,0-0.8,0-1.2H30l0,0c0.7-0.1,1.8-0.3,1.8-1.6c0-1-0.7-1.5-1.5-1.5h-0.1l0,0c-0.1,0-0.3,0-0.4,0
						c-0.3,0-0.6,0-0.9,0L28.3,361L28.3,361z M30.1,362.3c0,0.1,0,0.1,0,0.3c0,0.6-0.5,0.7-1,0.7v-0.2v-0.2c0-0.3,0-0.9,0-0.9
						C29.6,362,30,362,30.1,362.3L30.1,362.3z M36.1,365.8h0.2c0.2,0,0.3,0,0.3,0c-0.1-0.1-0.1-0.1-0.1-0.2v-0.2
						c-0.5-1.4-0.9-2.9-1.4-4.3c0-0.1-0.1-0.1-0.2-0.1s-0.2,0-0.2,0h-0.3c-0.4,0-0.7,0-1.1,0h-0.5l0,0c-0.2,0.5-0.3,1-0.5,1.6
						l-0.1,0.3l0,0l-0.1,0.2c-0.3,0.9-0.6,1.8-0.8,2.7c0,0,0,0,0,0.1h0.2h0.1h0.1c0.3,0,0.5,0,0.8,0h0.2h0.1c0.1,0,0.3,0,0.3,0
						c0.1-0.2,0.1-0.5,0.2-0.7h1.3c0,0.1,0.1,0.4,0.1,0.6v0.1l0,0l0,0c0.3,0,0.5,0,0.8,0c0.1,0,0.2,0,0.3,0H36
						C36,365.8,36.1,365.8,36.1,365.8z M34,362.1c0.1,0.3,0.1,0.5,0.2,0.8l0.1,0.5c0,0.2,0.1,0.5,0.1,0.5s-0.4,0-0.7,0h-0.1h-0.2
						v-0.2c0.1-0.5,0.4-1.8,0.5-1.9C34,362,34,362.1,34,362.1L34,362.1z M38.3,362.3c0-0.2,0.4-0.3,0.4-0.3l0,0
						c0.5,0,0.2,0.3,0.5,0.3c0.5,0,1,0,1.4,0l0.1-0.1c0-0.4-0.1-0.7-0.6-1l0,0c-0.4-0.2-0.9-0.3-1.4-0.3c-1,0-2.2,0.4-2.2,1.7
						c0,0.7,0.4,1,1.4,1.3c0.1,0,0.2,0,0.3,0.1h0.2l0,0h0.1l0,0c0.3,0.1,0.7,0.1,0.7,0.4s-0.2,0.4-0.5,0.4c-0.5,0-0.4-0.4-0.5-0.4
						c-0.6,0-1.1,0-1.6,0l0,0c0,0.3,0.1,0.5,0.2,0.8c0.3,0.5,1.2,0.7,1.9,0.7c1-0.1,2.3-0.4,2.3-1.7c0-0.8-0.5-1.1-1.1-1.3l0,0
						c-0.4-0.1-0.7-0.2-0.9-0.2h-0.1C38.6,362.6,38.3,362.5,38.3,362.3z M42.9,362.3c0-0.2,0.4-0.3,0.4-0.3l0,0
						c0.5,0,0.2,0.3,0.5,0.3c0.5,0,1,0,1.4,0l0.1-0.1c0-0.4-0.1-0.7-0.6-1l0,0c-0.4-0.2-0.9-0.3-1.4-0.3c-1,0-2.2,0.4-2.2,1.7
						c0,0.7,0.4,1,1.4,1.3c0.1,0,0.2,0,0.3,0.1H43l0,0h0.1l0,0c0.3,0.1,0.7,0.1,0.7,0.4s-0.2,0.4-0.5,0.4c-0.5,0-0.4-0.4-0.5-0.4
						c-0.6,0-1.1,0-1.6,0l0,0c0,0.3,0.1,0.5,0.2,0.8c0.3,0.5,1.2,0.7,1.9,0.7c1-0.1,2.3-0.4,2.3-1.7c0-0.8-0.5-1.1-1.1-1.3l0,0
						c-0.4-0.1-0.7-0.2-0.9-0.2h-0.1C43.2,362.6,42.9,362.5,42.9,362.3z"/>
				</g>
			</g>
		</g>
	</g>
	<g>
		<path class="st7" d="M128,346.1c-3.8,0-6.9,3.1-6.9,6.9s3.1,6.9,6.9,6.9s6.9-3.1,6.9-6.9C134.9,349.1,131.8,346.1,128,346.1z"/>
		<g>
			<path class="st1" d="M122.9,345.2c-0.1,0-0.2,0-0.3,0l-4.7-1c-0.6-0.1-1-0.8-0.9-1.4s0.8-1,1.4-0.9l4.7,1c0.6,0.1,1,0.8,0.9,1.4
				C124,344.9,123.5,345.2,122.9,345.2z"/>
		</g>
		<g>
			<path class="st1" d="M128.9,331.3c-0.2,0-0.4,0-0.5-0.1l-4.3-2.2c-0.6-0.3-0.8-1-0.5-1.6s1-0.8,1.6-0.5l4.3,2.2
				c0.6,0.3,0.8,1,0.5,1.6C129.8,331.1,129.4,331.3,128.9,331.3z"/>
		</g>
		<g>
			<path class="st1" d="M139.8,318.3c-0.2,0-0.5-0.1-0.7-0.3l-2.2-2.4c-0.3-0.4-0.3-0.9,0-1.3c0.4-0.3,0.9-0.3,1.3,0l2.2,2.4
				c0.3,0.4,0.3,0.9,0,1.3C140.2,318.2,140,318.3,139.8,318.3z"/>
		</g>
		<g>
			<path class="st1" d="M156.2,313.5c-0.4,0-0.7-0.3-0.7-0.7l-0.2-2.4c0-0.4,0.3-0.8,0.7-0.8c0.4,0,0.8,0.3,0.8,0.7l0.2,2.4
				C156.9,313.1,156.6,313.5,156.2,313.5L156.2,313.5z"/>
		</g>
		<g>
			<path class="st1" d="M168.7,313.8c-0.2,0-0.4-0.2-0.4-0.4v-1.9c0-0.2,0.2-0.4,0.4-0.4c0.2,0,0.4,0.2,0.4,0.4v1.9
				C169.2,313.6,169,313.8,168.7,313.8z"/>
		</g>
		<g>
			<path class="st1" d="M145.2,353.4c-0.2,0-0.4-0.2-0.4-0.4c-1-14.5,7.4-18.2,14.9-21.5c7.4-3.3,13.3-5.9,8.8-17.7l-12.2-0.5
				l-16.2,4.6l-10.7,12.6l-6,13.8c-0.1,0.2-0.4,0.3-0.6,0.2c-0.2-0.1-0.3-0.4-0.2-0.6l6-14l10.9-12.9l16.6-4.7l12.9,0.6l0.1,0.3
				c4.9,12.9-1.9,15.9-9.2,19.1c-7.2,3.2-15.3,6.8-14.3,20.6C145.6,353.2,145.4,353.4,145.2,353.4L145.2,353.4z"/>
		</g>
		<g>
			<path class="st6" d="M149.6,360.1c-0.1-1.2-0.6-2.1-1.5-2.8c-0.8-0.6-1.9-1.1-2.4-2c-0.1-0.2-0.2-0.4-0.2-0.7v-0.1
				c0.1,0,0.1,0,0.1,0c0.1,0,0.2-0.1,0.3-0.2c0.4-0.3,0.5-0.7,0.5-1.1c-0.1-0.9-1.1-1.5-1.9-1s-0.8,1.6-0.1,2.1
				c0.1,0.1,0.2,0.1,0.3,0.1c0.1,0,0.2,0,0.1,0.1c0,0.3,0,0.5,0,0.8c0.1,0.5,0.3,1,0.7,1.5c0.4,0.5,0.8,0.8,1.2,1.2
				c0.4,0.4,0.8,0.8,1,1.4c0.2,0.5,0.1,1.1,0,1.6c-0.1,0.6-0.6,1.2-1.2,1.6c-0.4,0.3-0.9,0.4-1.5,0.5c0,0,0,0,0.1,0
				c-0.1,0-0.3,0-0.4,0c-0.3-0.1-0.5-0.1-0.8-0.2c-0.8-0.4-1.4-1-1.7-1.8c0.4,0.3,0.9,0.5,1.4,0.6c0.2,0,0.4,0.1,0.6,0
				s0.2-0.4,0-0.5c-0.1-0.1-0.3,0-0.5-0.1c-0.3-0.1-0.5-0.2-0.8-0.3c-0.4-0.3-0.8-0.7-1.1-1.1c-0.1-0.1-0.2-0.2-0.4-0.2
				c-0.3,0.1-0.2,0.3-0.2,0.5c-0.1,0.5,0,1,0.1,1.5c0.3,1,0.9,2,1.8,2.6c1.2,0.9,2.8,0.9,4.2,0.2c1.5-0.8,2.4-2.4,2.3-4
				C149.6,360.2,149.6,360.1,149.6,360.1z M144.4,353.2c0-0.4,0.3-0.7,0.7-0.7c0.4,0,0.7,0.3,0.7,0.7c0,0.4-0.3,0.7-0.7,0.7
				C144.7,353.9,144.4,353.6,144.4,353.2z"/>
		</g>
		<g>
			<g>
				<circle class="st9" cx="128.2" cy="349.7" r="1"/>
			</g>
			<g>
				<circle class="st9" cx="128.2" cy="352.8" r="1"/>
			</g>
			<g>
				<circle class="st9" cx="128.2" cy="355.9" r="1"/>
			</g>
		</g>
		<g>
			<g>
				<circle class="st9" cx="131.3" cy="352.8" r="1"/>
			</g>
			<g>
				<circle class="st9" cx="125" cy="352.8" r="1"/>
			</g>
		</g>
		<g>
			<g>
				<path class="st6" d="M116,345.7c0,0,0-0.1,0-0.2s0.1-0.3,0.1-0.6c0.1-0.5,0.3-1.3,0.6-2.2c0.5-1.9,1.4-4.6,2.8-7.7
					c0.7-1.5,1.5-3.2,2.4-4.9c1-1.7,2-3.4,3.3-5.1s2.7-3.4,4.2-4.9c1.6-1.6,3.3-3,5.2-4.3c1.9-1.3,3.8-2.4,5.9-3.3
					c2-0.9,4.1-1.6,6.1-2c2-0.5,4.1-0.8,6-0.9c1.9-0.2,3.7-0.1,5.4-0.1c0.4,0,0.8,0,1.2,0.1c0.4,0,0.8,0.1,1.2,0.1
					c0.8,0.1,1.5,0.2,2.1,0.2c1.3,0.2,2.5,0.4,3.4,0.6s1.7,0.4,2.2,0.5c0.5,0.1,0.8,0.2,0.8,0.2c0.2,0,0.3,0.2,0.3,0.5
					c0,0.2-0.2,0.3-0.4,0.3l0,0c0,0-0.3-0.1-0.8-0.1c-0.5-0.1-1.2-0.2-2.2-0.4c-0.9-0.2-2.1-0.3-3.4-0.4c-0.7-0.1-1.4-0.1-2.1-0.2
					c-0.4,0-0.8,0-1.1-0.1c-0.4,0-0.8,0-1.2,0c-1.6,0-3.4,0-5.2,0.3c-1.8,0.2-3.8,0.6-5.7,1.1c-1.9,0.5-3.9,1.2-5.8,2.2
					c-1.9,0.9-3.7,2-5.4,3.3c-1.7,1.3-3.3,2.7-4.7,4.2c-1.4,1.5-2.7,3.2-3.8,4.8c-1.1,1.6-2.1,3.3-2.9,5c-0.8,1.6-1.6,3.2-2.1,4.7
					c-1.2,3-1.9,5.6-2.4,7.4c-0.2,0.9-0.4,1.6-0.5,2.1c0,0.2-0.1,0.4-0.1,0.5s0,0.2,0,0.2l0,0c-0.1,0.9-1,1.5-1.8,1.3
					C116.4,347.5,115.8,346.7,116,345.7C115.9,345.8,115.9,345.7,116,345.7z"/>
			</g>
		</g>
		<g>
			<path class="st9" d="M113.4,365.9c-0.2,0-0.4,0-0.7-0.1c-1.5-0.4-2.5-1.9-2.1-3.4l3.8-15.9c0.4-1.5,1.9-2.5,3.4-2.1
				s2.5,1.9,2.1,3.4l-3.8,15.9C115.8,365.1,114.7,365.9,113.4,365.9z"/>
		</g>
	</g>
	<g class="st13">
		<path class="st14" d="M-179.7,429h-35c-0.8,0-1.4,0.7-1.4,1.6v40.8c0,0.9,0.6,1.6,1.4,1.6h35c0.8,0,1.4-0.7,1.4-1.6v-40.8
			C-178.3,429.7-179,429-179.7,429z"/>
		<g class="st15">
			<path class="st1" d="M-216.8,422.7v2.6h-4.7v-2.6h-3.8v56.5h3.8v-2.7h4.7v2.7h3.8v-56.5H-216.8z M-216.8,467.8h-4.7v-5.4h4.7
				V467.8z M-216.8,453.6h-4.7v-5.4h4.7V453.6z M-216.8,439.5h-4.7v-5.4h4.7V439.5z"/>
		</g>
		<g class="st15">
			<path class="st1" d="M-172.6,422.7v2.6h-4.7v-2.6h-3.8v56.5h3.8v-2.7h4.7v2.7h3.8v-56.5H-172.6z M-172.6,467.8h-4.7v-5.4h4.7
				V467.8z M-172.6,453.6h-4.7v-5.4h4.7V453.6z M-172.6,439.5h-4.7v-5.4h4.7V439.5z"/>
		</g>
		<g class="st15">
			<path class="st9" d="M-203.4,441.8v18.4c0,1.1,0.6,1.5,1.4,0.9l11.6-9c0.8-0.6,0.8-1.6,0-2.2l-11.6-9
				C-202.8,440.3-203.4,440.7-203.4,441.8z"/>
		</g>
	</g>
	<g class="st13">
		<circle class="st16" cx="-91.6" cy="455.1" r="24.8"/>
		<path class="st17" d="M-91.6,482.4c-15.1,0-27.3-12.3-27.3-27.3c0-15.1,12.3-27.3,27.3-27.3c15.1,0,27.3,12.3,27.3,27.3
			C-64.2,470.2-76.5,482.4-91.6,482.4z M-91.6,432.7c-12.3,0-22.4,10-22.4,22.4c0,12.3,10,22.4,22.4,22.4c12.3,0,22.4-10,22.4-22.4
			C-69.2,442.8-79.2,432.7-91.6,432.7z"/>
		<circle class="st16" cx="-91.6" cy="455.1" r="15.1"/>
		<path class="st17" d="M-91.6,472.7c-9.7,0-17.6-7.9-17.6-17.6s7.9-17.6,17.6-17.6c9.7,0,17.6,7.9,17.6,17.6
			C-74,464.8-81.9,472.7-91.6,472.7z M-91.6,442.5c-7,0-12.6,5.7-12.6,12.6c0,7,5.7,12.6,12.6,12.6c7,0,12.6-5.7,12.6-12.6
			C-78.9,448.1-84.6,442.5-91.6,442.5z"/>
		<circle class="st18" cx="-91.6" cy="455.1" r="6.7"/>
		<path class="st14" d="M-51,435.6c-1.6-0.9-4.3-2.3-6.2-3.2l-3-3.9c-0.2-1.8-0.7-5.8-1.1-7.9c-0.5-2.5-11.7,6.5-11,14.8l-20.1,18.7
			l1.4,1.9l23.7-14.4C-59.6,443.7-48.9,436.8-51,435.6z"/>
		<path class="st16" d="M-90.8,456.7c-0.2,0-0.4-0.1-0.5-0.2l-1.4-1.9c-0.2-0.3-0.2-0.6,0.1-0.8l19.9-18.5c-0.3-5,3.4-9.7,5.1-11.5
			c1.9-2.1,4.4-4.1,5.9-4.1c0.6,0,1.1,0.4,1.2,0.9c0.4,2.1,0.9,6,1.1,7.8l2.8,3.7c2,1,4.6,2.3,6.1,3.1c0.5,0.3,0.7,0.8,0.5,1.3
			c-0.6,2.2-7.9,6.2-14,6.2l0,0c-1,0-2-0.1-3-0.3l-23.4,14.3C-90.6,456.6-90.7,456.7-90.8,456.7z M-91.4,454.2l0.7,1l23.2-14.1
			c0.1-0.1,0.3-0.1,0.5-0.1c0.9,0.2,1.9,0.4,2.9,0.4c2.7,0,5.9-0.8,8.8-2.3c2.6-1.3,3.9-2.5,4-3c-1.6-0.9-4.5-2.3-6.1-3.1
			c-0.1,0-0.2-0.1-0.2-0.2l-3-3.9c-0.1-0.1-0.1-0.2-0.1-0.3c-0.2-1.6-0.7-5.6-1.1-7.8c-0.7,0-2.7,1.2-5,3.7
			c-1.6,1.7-5.2,6.2-4.7,10.9c0,0.2-0.1,0.4-0.2,0.5L-91.4,454.2z"/>
	</g>
	<g>
		<g>
			<path class="st2" d="M142.6,430.7c0.2-0.6,0-1.2-0.6-1.4l-6.3-2.5c-0.3-0.1-0.6-0.1-0.8,0c-0.3,0.1-0.5,0.3-0.6,0.6l-5.6,13.8
				c-0.3,0.8-1.3,1.9-2,2.2l-2.3,1.1c-1.2,0.6-2.5,2-3,3.3l-10.6,26.1c-0.3,0.7-0.5,2.2,1.4,4.1c1.2,1.2,3,2.3,5,3.1
				c1.9,0.8,3.9,1.2,5.6,1.2c2.1,0,3.6-0.7,4.1-2l10.6-26.1c0.5-1.3,0.6-3.2,0.2-4.5l-0.8-2.4c-0.3-0.7-0.2-2.1,0.1-2.9L142.6,430.7
				z"/>
			<path class="st1" d="M143,430.4c-0.1-0.5-0.4-1.1-1.2-1.7c-0.7-0.5-1.6-1.1-2.7-1.5c-1.3-0.5-2.6-0.8-3.5-0.8
				c-0.7,0-1.2,0.2-1.5,0.4c-0.2,0.1-0.4,0.3-0.6,0.6l-1.9,4.7c-0.1,0.3-0.1,0.6,0,0.8c0.1,0.5,0.4,1.1,1.2,1.7
				c0.7,0.5,1.6,1.1,2.7,1.5c1.3,0.5,2.6,0.8,3.5,0.8c0.7,0,1.2-0.2,1.5-0.4c0.2-0.1,0.4-0.3,0.6-0.6l1.9-4.7
				C143.1,430.9,143.1,430.7,143,430.4z"/>
			<g>
				<path class="st9" d="M129.5,471.2c-5.3,0.1-10.3-1.9-14-5.7c1.5-3.8,3-7.5,4.6-11.3c3.8,3.8,8.7,5.8,14,5.7
					C132.6,463.7,131,467.4,129.5,471.2z"/>
			</g>
		</g>
		<g>
			<g>
				<g>
					<path class="st9" d="M163.1,452.6c4.3-0.9,7.1-5.1,6.2-9.4s-5.1-7.1-9.4-6.2s-7.1,5.1-6.2,9.4
						C154.6,450.7,158.8,453.5,163.1,452.6z M162.8,451.4c-3.6,0.8-7.2-1.6-7.9-5.2c-0.8-3.6,1.6-7.2,5.2-7.9
						c3.6-0.8,7.2,1.6,7.9,5.2C168.8,447,166.4,450.6,162.8,451.4z"/>
				</g>
				<g>
					<path class="st9" d="M163.3,450.6L163.3,450.6c1.1-0.4,1.3-0.5,2.2-1.2c0.3-0.3,0.5-0.6,0.8-0.8l0,0l-4-2.6L163.3,450.6z
						 M167,447.6L167,447.6c0.4-1,0.6-1.2,0.7-2.3c0-0.4,0-0.8,0-1.2V444l-4.6,1L167,447.6z"/>
				</g>
				<g>
					<path class="st9" d="M167.6,443.6C167.5,443.5,167.5,443.5,167.6,443.6L167.6,443.6z"/>
				</g>
				<g>
					<path class="st9" d="M161.8,443.3l2.6-4l0,0c-1-0.4-1.2-0.6-2.3-0.7c-0.4,0-0.8,0-1.2,0h-0.1L161.8,443.3z M167.4,443
						L167.4,443c-0.4-1.1-0.5-1.3-1.2-2.2c-0.3-0.3-0.6-0.5-0.8-0.8l0,0l-2.6,4L167.4,443z"/>
				</g>
				<g>
					<path class="st9" d="M160.1,444.5l-3.9-2.6l0,0l0,0l0,0l0,0c-0.4,0.7-0.2,0.4-0.5,1.1c-0.3,1-0.2,1.3-0.2,2.4v0.1L160.1,444.5z
						 M160.7,443.6l-1-4.6h-0.1c-0.4,0.2-0.8,0.3-1.1,0.5c-0.7,0.4-0.7,0.4-1.4,1.1c-0.1,0.1-0.3,0.3-0.4,0.5L160.7,443.6z"/>
				</g>
			</g>
			<g>
				<path class="st7" d="M157.7,453.4l-10.3,5.2l8.5,4.1L157.7,453.4z"/>
			</g>
			<path class="st6" d="M170.6,474.9c-0.1-0.2-0.2-0.3-0.4-0.3l-7.4-0.6l-5-9.9l3.3-17.4v-0.2c0-0.1,0-0.2-0.1-0.4
				c-0.1-0.3-0.4-0.6-0.6-0.7c-0.1,0-0.2,0-0.3,0H160l-20.5,10.3c-0.3,0.2-0.4,0.6-0.2,1.1c0.1,0.2,0.3,0.4,0.5,0.5l16.3,7.9
				l4.8,9.5l-4,6.5c-0.1,0.2,0,0.4,0.1,0.6c0.1,0.1,0.3,0.2,0.4,0.1l13.1-6.6C170.7,475.4,170.7,475.2,170.6,474.9z M159.4,447.9
				l-2.9,15.4l-0.6,0.3l-14.1-6.9L159.4,447.9z"/>
			<g>
				<path class="st12" d="M154.7,448.2L154.7,448.2L154.7,448.2L154.7,448.2z"/>
			</g>
			<g>
				<path class="st12" d="M154.5,441.9L154.5,441.9L154.5,441.9L154.5,441.9L154.5,441.9z"/>
			</g>
			<g>
				<path class="st12" d="M158.1,438C158,438.1,158.1,438.1,158.1,438L158.1,438z"/>
			</g>
		</g>
		<g>
			<circle class="st9" cx="121.8" cy="434.8" r="3.3"/>
		</g>
		<g>
			<circle class="st9" cx="143.2" cy="446.5" r="2.4"/>
		</g>
		<g>
			<circle class="st6" cx="138.6" cy="421.7" r="2.2"/>
		</g>
		<g>
			<circle class="st7" cx="146.3" cy="470.1" r="3.5"/>
		</g>
		<g>
			<circle class="st2" cx="157.2" cy="429.1" r="3.5"/>
		</g>
	</g>
	<g>
		<g>
			<g>
				<path class="st8" d="M24.6,477.8c-0.5-0.2-1-0.5-1.5-0.8c-0.6-0.4-1.2-0.8-1.6-1.3c-0.5-0.5-0.8-1.1-1.2-1.7
					c-0.7-1.1-1.4-2.3-1.7-3.6c-0.4-1.4-0.3-2.8-0.2-4.2c0.3-2.9,0.9-5.8,1.6-8.6c0.6-2.2,1.3-4.4,2-6.6c0.8-2.7,1.4-5.5,1.6-8.4
					c0.1-1.5,0.1-2.9-0.1-4.4c-0.2-1.4-0.5-2.9-0.7-4.3s-0.3-2.8-0.2-4.2c0.1-1.3,0.2-2.7,1.1-3.7c0.8-1,1.8-2.3,3.8-2.3
					s3.9,1.5,4.5,3.6c0.2,0.6,0.3,1.3,0.3,1.9c0.1,0.7,0.1,1.4,0.1,2.1c-0.1,2.9-1,5.7-1.2,8.5c-0.1,1.5,0,3,0.2,4.4
					c0.2,1.5,0.5,3,0.8,4.4c0.5,2.1,1.1,4.1,1.8,6.2c0.9,2.8,1.7,5.7,2.1,8.6c0.2,1.4,0.4,2.9,0.4,4.3s-0.2,2.7-0.8,4
					c-0.5,1.3-1.3,2.4-2,3.5c-0.8,1.1-2,1.9-3.2,2.4c-0.5,0.2-1.1,0.5-1.7,0.6c-0.2,0.1-0.3,0.1-0.5,0.1c-0.7,0-1.3,0-2,0h-0.1
					C26.2,478.4,25.5,478.1,24.6,477.8z"/>
			</g>
			<g>
				<path class="st7" d="M31.8,446.4c-0.1-0.7-0.3-1.5-0.4-2.2c0-0.1,0-0.2,0-0.3h-7.9c-0.1,0.9-0.2,1.7-0.4,2.5H31.8z"/>
			</g>
			<g>
				<path class="st7" d="M23.7,440c0,0.8,0,1.6,0,2.4h7.6c-0.1-0.8-0.1-1.6,0-2.4H23.7z"/>
			</g>
		</g>
		<g class="st19">
			<path class="st20" d="M22.5,429.6C22.5,429.6,22.5,429.7,22.5,429.6c-0.1,0.8,0,1.6,0,2.4c0-0.3,0-0.5,0-0.8
				C22.6,430.7,22.6,430.1,22.5,429.6z"/>
			<path class="st20" d="M26.8,467.7c0-1.4-0.2-2.9-0.4-4.3c-0.5-2.9-1.3-5.8-2.1-8.6c-0.6-2-1.2-3.9-1.7-5.9
				c-0.2,0.7-0.4,1.4-0.6,2.1c-0.6,2.2-1.3,4.4-2,6.6c-0.8,2.8-1.4,5.7-1.6,8.6c-0.1,1.4-0.2,2.8,0.2,4.2c0.3,1.3,1,2.5,1.7,3.6
				c0.4,0.6,0.7,1.2,1.2,1.7c0.3,0.4,0.7,0.7,1.1,0.9c0.6-0.4,1.1-0.8,1.4-1.4c0.8-1.1,1.5-2.3,2-3.5
				C26.6,470.4,26.8,469.1,26.8,467.7z"/>
		</g>
		<g>
			<path class="st8" d="M11.6,477.8c-0.5-0.2-1-0.5-1.5-0.8c-0.6-0.4-1.2-0.8-1.6-1.3c-0.5-0.5-0.8-1.1-1.2-1.7
				c-0.7-1.1-1.4-2.3-1.7-3.6c-0.4-1.4-0.3-2.8-0.2-4.2c0.3-2.9,0.9-5.8,1.6-8.6c0.6-2.2,1.3-4.4,2-6.6c0.8-2.7,1.4-5.5,1.6-8.4
				c0.1-1.5,0.1-2.9-0.1-4.4c-0.2-1.4-0.5-2.9-0.7-4.3s-0.3-2.8-0.2-4.2c0.1-1.3,0.2-2.7,1.1-3.7c0.8-1,1.8-2.3,3.8-2.3
				s3.9,1.5,4.5,3.6c0.2,0.6,0.3,1.3,0.3,1.9c0.1,0.7,0.1,1.4,0.1,2.1c-0.1,2.9-1,5.7-1.2,8.5c-0.1,1.5,0,3,0.2,4.4
				c0.2,1.5,0.5,3,0.8,4.4c0.5,2.1,1.1,4.1,1.8,6.2c0.9,2.8,1.7,5.7,2.1,8.6c0.2,1.4,0.4,2.9,0.4,4.3s-0.2,2.7-0.8,4
				c-0.5,1.3-1.3,2.4-2,3.5c-0.8,1.1-2,1.9-3.2,2.4c-0.6,0.2-1.1,0.5-1.7,0.6c-0.2,0.1-0.3,0.1-0.5,0.1c-0.7,0-1.3,0-2,0h-0.1
				C13.3,478.4,12.5,478.1,11.6,477.8z"/>
		</g>
		<g>
			<path class="st7" d="M18.8,446.4c-0.1-0.7-0.3-1.5-0.4-2.2c0-0.1,0-0.2,0-0.3h-7.9c-0.1,0.9-0.2,1.7-0.4,2.5H18.8z"/>
		</g>
		<g>
			<path class="st7" d="M10.7,440c0,0.8,0,1.6,0,2.4h7.6c-0.1-0.8-0.1-1.6,0-2.4H10.7z"/>
		</g>
		<g class="st19">
			<path class="st20" d="M9.6,429.6C9.6,429.6,9.6,429.7,9.6,429.6c-0.1,0.8,0,1.6,0,2.4c0-0.3,0-0.5,0-0.8
				C9.6,430.7,9.6,430.1,9.6,429.6z"/>
			<path class="st20" d="M13.8,467.7c0-1.4-0.2-2.9-0.4-4.3c-0.5-2.9-1.3-5.8-2.1-8.6c-0.6-2-1.2-3.9-1.7-5.9
				c-0.2,0.7-0.4,1.4-0.6,2.1c-0.6,2.2-1.3,4.4-2,6.6c-0.8,2.8-1.4,5.7-1.6,8.6c-0.1,1.4-0.2,2.8,0.2,4.2c0.3,1.3,1,2.5,1.7,3.6
				c0.4,0.6,0.7,1.2,1.2,1.7c0.3,0.4,0.7,0.7,1.1,0.9c0.6-0.4,1.1-0.8,1.4-1.4c0.8-1.1,1.5-2.3,2-3.5
				C13.6,470.4,13.9,469.1,13.8,467.7z"/>
		</g>
		<g>
			<path class="st8" d="M-1.2,477.8c-0.5-0.2-1-0.5-1.5-0.8c-0.6-0.4-1.2-0.8-1.6-1.3c-0.5-0.5-0.8-1.1-1.2-1.7
				c-0.7-1.1-1.4-2.3-1.7-3.6c-0.4-1.4-0.3-2.8-0.2-4.2c0.3-2.9,0.9-5.8,1.6-8.6c0.6-2.2,1.3-4.4,2-6.6c0.8-2.7,1.4-5.5,1.6-8.4
				c0.1-1.5,0.1-2.9-0.1-4.4c-0.2-1.4-0.5-2.9-0.7-4.3s-0.3-2.8-0.2-4.2c0.1-1.3,0.2-2.7,1.1-3.7c0.8-1,1.8-2.3,3.8-2.3
				s3.9,1.5,4.5,3.6c0.2,0.6,0.3,1.3,0.3,1.9c0.1,0.7,0.1,1.4,0.1,2.1c-0.1,2.9-1,5.7-1.2,8.5c-0.1,1.5,0,3,0.2,4.4
				c0.2,1.5,0.5,3,0.8,4.4c0.5,2.1,1.1,4.1,1.8,6.2c0.9,2.8,1.7,5.7,2.1,8.6c0.2,1.4,0.4,2.9,0.4,4.3s-0.2,2.7-0.8,4
				c-0.5,1.3-1.3,2.4-2,3.5c-0.8,1.1-2,1.9-3.2,2.4c-0.6,0.2-1.1,0.5-1.7,0.6c-0.2,0.1-0.3,0.1-0.5,0.1c-0.7,0-1.3,0-2,0H0.4
				C0.4,478.4-0.4,478.1-1.2,477.8z"/>
		</g>
		<g>
			<path class="st7" d="M6,446.4c-0.1-0.7-0.3-1.5-0.4-2.2c0-0.1,0-0.2,0-0.3h-7.9c-0.1,0.9-0.2,1.7-0.4,2.5H6z"/>
		</g>
		<g>
			<path class="st7" d="M-2.2,440c0,0.8,0,1.6,0,2.4h7.6c-0.1-0.8-0.1-1.6,0-2.4H-2.2z"/>
		</g>
		<g>
			<circle class="st1" cx="-10.9" cy="462.7" r="16.3"/>
		</g>
		<g>
			<circle class="st0" cx="-15.7" cy="454.5" r="2.3"/>
		</g>
		<g>
			<circle class="st0" cx="-8" cy="451.8" r="2.3"/>
		</g>
		<g>
			<path class="st0" d="M-5.7,459.8c0,1.2-1,2.3-2.3,2.3s-2.3-1-2.3-2.3c0-1.2,1-2.3,2.3-2.3S-5.7,458.6-5.7,459.8z"/>
		</g>
	</g>
</g>
</svg>
