<svg xmlns="http://www.w3.org/2000/svg"><symbol id="linkedin" viewBox="-423 224.8 112.2 112.2"><style>.st0{fill:#9797a0}.st1{fill:#f1f2f2}</style><path d="M-333.4 285.4v23.1h-13.4V287c0-5.4-1.9-9.1-6.8-9.1-3.7 0-5.9 2.5-6.9 4.9-.4.9-.4 2.1-.4 3.3v22.5h-13.4s.2-36.5 0-40.3h13.4v5.7l-.1.1h.1v-.1c1.8-2.7 5-6.7 12.1-6.7 8.8 0 15.4 5.7 15.4 18.1zm-54.9-36.6c-4.6 0-7.6 3-7.6 7 0 3.9 2.9 7 7.4 7h.1c4.7 0 7.6-3.1 7.6-7-.1-4-3-7-7.5-7zm-6.8 59.7h13.4v-40.3h-13.4v40.3z" class="st1"/></symbol><symbol id="facebook" viewBox="-423 224.8 112.2 112.2"><style>.st0{fill:#9797a0}.st1{fill:#fff}</style><path d="M-352.8 283.1h-10v36.7H-378v-36.7h-7.2v-12.9h7.2v-8.3c0-6 2.8-15.3 15.3-15.3h11.2v12.5h-8.2c-1.3 0-3.2.7-3.2 3.5v7.6h11.3l-1.2 12.9z" class="st1"/></symbol><symbol id="github" viewBox="-56.8 224.6 117.8 112.2"><path id="XMLID_122_" d="M31.7 277c.3-1.9.5-4.1.5-6.4 0-10.2-4.9-13.8-5.8-15.5 1.4-7.7-.2-11.2-1-12.4-2.8-1-9.6 2.5-13.4 5-6.1-1.8-19-1.6-23.9.5-8.9-6.4-13.7-5.4-13.7-5.4s-3.1 5.5-.8 13.5c-2.9 3.7-5.1 6.4-5.1 13.4 0 1.7.1 3.3.3 4.8 2.5 13.3 13.1 19.1 23.4 20-1.6 1.2-3.4 3.4-3.7 6-2 1.3-5.9 1.7-9 .7-4.3-1.4-5.9-9.9-12.4-8.6-1.4.3-1.1 1.2.1 2 2 1.3 3.8 2.8 5.2 6.2 1.1 2.6 3.4 7.2 10.7 7.2 2.9 0 4.9-.3 4.9-.3s.1 6.6.1 9.2c0 3-4 3.8-4 5.2 0 .6 1.3.6 2.4.6 2.1 0 6.5-1.8 6.5-4.8v-12.1c0-3.2 1.7-4.2 1.7-4.2s.2 16.8-.4 19.1c-.7 2.7-2 2.3-2 3.5 0 1.8 5.3.4 7-3.4 1.4-3 .7-19.5.7-19.5h1.4v11c-.1 3.6-.4 8.1 1.7 10.2 1.4 1.4 5.7 3.9 5.7 1.6 0-1.3-3-2.4-3-5.9v-16.3c1.8 0 2.2 5.3 2.2 5.3l.7 9.9s-.4 3.6 3.9 5.1c1.5.5 4.8.7 5-.2.2-.9-4-2.2-4-5.1 0-1.7.1-2.7.1-10.1 0-7.4-1-10.2-4.5-12.4 10.1-1 20.6-5.5 22.5-17.4z"/></symbol></svg>