<?xml version="1.0" ?><svg height="512" id="svg2" version="1.1" width="512" xmlns="http://www.w3.org/2000/svg" xmlns:cc="http://creativecommons.org/ns#" xmlns:dc="http://purl.org/dc/elements/1.1/" xmlns:inkscape="http://www.inkscape.org/namespaces/inkscape" xmlns:rdf="http://www.w3.org/1999/02/22-rdf-syntax-ns#" xmlns:sodipodi="http://sodipodi.sourceforge.net/DTD/sodipodi-0.dtd" xmlns:svg="http://www.w3.org/2000/svg"><defs id="defs4"/><g id="layer1" transform="translate(0,-540.36218)"><g id="g4305"><g id="g4345" transform="translate(28,-40.00001)"><g id="g4454" transform="translate(28,-15.999995)"><path d="m 244,636.36218 0,48 128,0 0,-48 z m 0,96 0,48 208,0 0,-48 z m 0,96 0,48 56,0 0,-48 z m 0,96 0,48 160,0 0,-48 z m 0,96.00002 0,48 80,0 0,-48 z" id="rect2985" style="color:#000000;fill:#222222;fill-opacity:1;fill-rule:nonzero;stroke:none;stroke-width:20;marker:none;visibility:visible;display:inline;overflow:visible;enable-background:accumulate"/><path d="m 188,612.36217 0,480.00003 24,0 0,-480.00003 z" id="rect2985-1-2" style="color:#000000;fill:#2980b9;fill-opacity:1;fill-rule:nonzero;stroke:none;stroke-width:20;marker:none;visibility:visible;display:inline;overflow:visible;enable-background:accumulate"/><path d="m 156,636.36213 0,48 -128.000002,0 0,-48 z m 0,96 0,48 -208,0 0,-48 z m 0,96 0,48 -56.000003,0 0,-48 z m 0,96 0,48 -160.0000012,0 0,-48 z m 0,96.00007 0,48 -80.000002,0 0,-48 z" id="rect2985-5" style="color:#000000;fill:#222222;fill-opacity:1;fill-rule:nonzero;stroke:none;stroke-width:20;marker:none;visibility:visible;display:inline;overflow:visible;enable-background:accumulate"/></g></g></g></g></svg>