<?xml version="1.0" encoding="utf-8"?>
<!-- Generator: Adobe Illustrator 19.0.0, SVG Export Plug-In . SVG Version: 6.00 Build 0)  -->
<svg version="1.1" id="Capa_1" xmlns="http://www.w3.org/2000/svg" xmlns:xlink="http://www.w3.org/1999/xlink" x="0px" y="0px"
	 viewBox="-423 224.8 112.2 112.2" style="enable-background:new -423 224.8 112.2 112.2;" xml:space="preserve">
<style type="text/css">
	.st0{fill:#9797A0;}
	.st1{fill:#F1F2F2;}
</style>
<g>
	<circle class="st0" cx="-366.9" cy="280.9" r="56.1"/>
	<g>
		<path class="st1" d="M-333.4,285.4v23.1h-13.4V287c0-5.4-1.9-9.1-6.8-9.1c-3.7,0-5.9,2.5-6.9,4.9c-0.4,0.9-0.4,2.1-0.4,3.3v22.5
			h-13.4c0,0,0.2-36.5,0-40.3h13.4v5.7l-0.1,0.1h0.1V274c1.8-2.7,5-6.7,12.1-6.7C-340,267.3-333.4,273-333.4,285.4L-333.4,285.4z
			 M-388.3,248.8c-4.6,0-7.6,3-7.6,7c0,3.9,2.9,7,7.4,7h0.1c4.7,0,7.6-3.1,7.6-7C-380.9,251.8-383.8,248.8-388.3,248.8L-388.3,248.8
			z M-395.1,308.5h13.4v-40.3h-13.4V308.5z"/>
	</g>
</g>
</svg>
