<?xml version="1.0" encoding="utf-8"?>
<!-- Generator: Adobe Illustrator 19.0.0, SVG Export Plug-In . SVG Version: 6.00 Build 0)  -->
<svg version="1.1" id="Objects" xmlns="http://www.w3.org/2000/svg" xmlns:xlink="http://www.w3.org/1999/xlink" x="0px" y="0px"
	 viewBox="0 0 866.5 788.2" style="enable-background:new 0 0 866.5 788.2;" xml:space="preserve">
<style type="text/css">
	.st0{fill:#2121DB;}
	.st1{fill:#764E20;}
	.st2{fill:#679112;}
	.st3{fill:#95C11F;}
	.st4{fill:#8AA000;}
	.st5{fill:#60A800;}
	.st6{fill:#EFC6A5;}
	.st7{opacity:0.2;}
	.st8{fill:#706F6F;}
	.st9{fill:none;stroke:#FFFFFF;stroke-width:4;stroke-linecap:round;stroke-linejoin:round;stroke-dasharray:20.1278,25.1598;}
	.st10{fill:#BE1622;}
	.st11{fill:#95E3DC;}
	.st12{fill:#1D1D1B;stroke:#1D1D1B;stroke-width:1.9728;stroke-linecap:round;stroke-linejoin:round;stroke-miterlimit:10;}
	.st13{fill:#878787;}
	.st14{fill:#FFDE00;}
	.st15{fill:#FFC214;}
	.st16{fill:#42E3DB;}
	.st17{fill:#F39200;}
	.st18{fill:#1D71B8;}
	.st19{fill:none;}
	.st20{fill:#B17F4A;}
	.st21{font-family:'FrenteH1-Regular';}
	.st22{font-size:51.1818px;}
	.st23{display:none;}
	.st24{display:inline;}
	.st25{opacity:0.2;fill:#878787;}
	.st26{fill:#FFFFFF;}
	.st27{fill:#9D9D9C;}
	.st28{fill:#FFFFFF;stroke:#BE1622;stroke-width:8.36;stroke-linecap:round;stroke-linejoin:round;stroke-miterlimit:10;}
	.st29{stroke:#1D1D1B;stroke-width:0.616;stroke-linecap:round;stroke-linejoin:round;stroke-miterlimit:10;}
	.st30{font-size:29.7434px;}
	.st31{fill:none;stroke:#575756;stroke-width:6.261;stroke-linecap:round;stroke-linejoin:round;stroke-miterlimit:10;}
	.st32{fill:#2D2E83;stroke:#FFFFFF;stroke-width:1.374;stroke-linecap:round;stroke-linejoin:round;stroke-miterlimit:10;}
	.st33{fill:#2D2E83;stroke:#FFFFFF;stroke-width:0.175;stroke-linecap:round;stroke-linejoin:round;stroke-miterlimit:10;}
	.st34{font-size:18.9276px;}
	.st35{font-size:16.2237px;}
	.st36{fill:none;stroke:#FFFFFF;stroke-width:0.6774;stroke-miterlimit:10;}
	.st37{font-size:5.7942px;}
	.st38{stroke:#1D1D1B;stroke-width:0.5;stroke-linecap:round;stroke-linejoin:round;stroke-miterlimit:10;}
	.st39{font-size:10.6226px;}
	.st40{fill:#FFFFFF;stroke:#BE1622;stroke-width:8.1675;stroke-linecap:round;stroke-linejoin:round;stroke-miterlimit:10;}
	.st41{fill:#1D1D1B;}
	.st42{fill:none;stroke:#9D9D9C;stroke-width:2;stroke-miterlimit:10;}
</style>
<g>
	<g>
		<g>
			<path class="st0" d="M14.3,72.3c2.5-2.3,5.5-5,9.5-3.1c1.2,0.6,2.3,1.6,3.5,2.2c1.9,1,4.1,1,6.2,0.5c2.3-0.6,4.2-2.3,6.3-3.3
				c4.8-2.3,5.9,2.4,8.9,4.1c6.2,3.6,7.1-4.1,11.7-5.4c4.1-1.1,6.8,6.5,11.5,6.6c1.7,0.1,1.7-2.4,0-2.4c-4.9-0.2-5.5-7.3-11.2-6.6
				c-2.8,0.3-4.7,1.5-6.1,3.6c-3,4.4-5.5-0.4-8.3-2c-6.6-3.7-10.6,4.5-16.6,3.1c-3.4-0.8-4.9-3.3-8.7-3.6c-3.4-0.3-6.4,2.7-8.5,4.5
				C11.2,71.7,13.1,73.4,14.3,72.3L14.3,72.3z"/>
		</g>
		<g>
			<path class="st0" d="M162.9,93.3c3.8-6.5,9.5,0.2,14.9,0.6c5.2,0.4,8.1-6,13.6-1.7c2.5,2,5.4,1.6,7.9-0.2
				c3.6-2.5,5.9-2.6,9.2,0.2c1.7,1.4,3.4,2.3,5.6,2.9c1.7,0.4,2.4-1.9,0.7-2.3c-5.5-1.3-7-6.3-13.4-5.2c-2.8,0.5-4.2,4.5-7.7,3.1
				c-2.6-1-3.1-2.5-6.3-2.6c-2.1-0.1-4.1,0.9-5.8,1.8c-4.2,2.2-7.2,0.5-11-1.4c-4.6-2.3-7.9-0.4-10.1,3.4
				C159.8,93.5,162.1,94.7,162.9,93.3L162.9,93.3z"/>
		</g>
		<g>
			<path class="st0" d="M291.8,59.2c2.4-3.7,5-4.4,9.3-3.2c2.1,0.6,5,2.6,7.4,2.4c2.1-0.1,4-0.7,5.8-1.6c0.8-0.5,2-1.4,2.8-1.9
				c4.4-2.8,5.2,1.5,6.8,3c2.8,2.6,6.3,2.1,8.9-0.4c2.7-2.6,5.5-5.9,10-3.7c2.6,1.3,4.5,3.9,6.9,5.6c1.4,0.9,3.3-0.7,1.9-1.7
				c-3.6-2.5-7.3-8-12.7-7c-2.7,0.5-5,1.6-6.7,3.6c-2.4,2.8-5.8,2.5-7.9-0.2c-0.5-0.7-1.7-1.7-2.6-1.9c-2.7-0.5-4.6-0.3-6.8,1.2
				c-2,1.3-4.2,2.9-6.9,2.5c-1.6-0.2-3.4-1.4-4.9-1.9c-6.1-2-10.2-1.2-13.6,3.9C288.6,59.3,291,60.6,291.8,59.2L291.8,59.2z"/>
		</g>
		<g>
			<path class="st0" d="M419.8,86.5c2.9-2.2,6-3.7,8.3-0.1c0.7,1.2,2.5,1.2,3.8,1.1c3.8-0.3,4.4-7.2,7.6-2.6
				c2.3,3.4,6.6,0.2,9.1-0.5c3.9-1.1,7.1,3.1,11.4,2.4c1.7-0.3,1-2.6-0.7-2.3c-2.8,0.5-5.9-2.1-8.4-2.8c-1.5-0.4-3.2,0.5-4.6,0.8
				c-0.8,0.2-1.4,0.7-2,1.1c-2.4,1.6-3-1.2-3.5-2.1c-0.5-0.9-1.9-1.2-2.9-1.1c-2.3,0.3-3.2,0.9-4.5,2.5c-0.7,0.9-2.9,2.8-3.5,0.9
				c-0.2-0.6-0.5-1-1-1.3c-4-3.2-7.9-0.1-10.9,2.3C416.5,85.8,418.5,87.5,419.8,86.5L419.8,86.5z"/>
		</g>
		<g>
			<path class="st0" d="M552.9,52.5c3-4,6.6-6,10.8-1.6c1.3,1.4,3.3,2.4,5.5,2.1c2.3-0.4,3.8-1.6,5.3-3.1c1.4-1.4,2.4-2.7,4.9-1
				c1.1,0.7,0.7,2.6,1.3,3.6c2.1,3.7,6.6,2.3,8.1-1.1c0.8-1.9,2.7-5.2,5.4-2.8c1.1,1,1.7,2.5,2.5,3.7c1.1,1.6,2.5,2.8,4.5,3.1
				c1.7,0.3,2.4-2.1,0.7-2.3c-5.4-0.9-4.3-9.4-11.6-7.3c-2.9,0.8-3.4,3.4-4.5,5.5c-1.8,3.3-3.7-3.1-3.9-3.3c-0.6-1-1.7-1.6-2.8-2.1
				c-6.2-3-8.9,9.7-14.4,2.1c-4.3-5.9-11.3-0.7-14.2,3.2C549.6,52.5,551.9,53.7,552.9,52.5L552.9,52.5z"/>
		</g>
	</g>
	<g>
		<g>
			<g>
				<g>
					<g>
						<g>
							<path class="st1" d="M97.7,191.1c0,5.8,0.1,11.6,0,17.4c-0.1,4.4,7.5,4.4,7.6,0c0.1-5.8,0-11.6,0-17.4
								C105.3,186.7,97.7,186.7,97.7,191.1L97.7,191.1z"/>
						</g>
						<ellipse class="st2" cx="101.2" cy="177.4" rx="20" ry="15.9"/>
					</g>
					<g>
						<path class="st3" d="M91,174.3c2.8,0,2.8-3.9,0-3.9S88.2,174.3,91,174.3L91,174.3z"/>
					</g>
					<g>
						<path class="st3" d="M102.7,169c2.8,0,2.8-3.9,0-3.9S99.9,169,102.7,169L102.7,169z"/>
					</g>
					<g>
						<path class="st3" d="M115.1,179.4c2.8,0,2.8-3.9,0-3.9S112.3,179.4,115.1,179.4L115.1,179.4z"/>
					</g>
					<g>
						<path class="st3" d="M102.4,179.2c2.8,0,2.8-3.9,0-3.9C99.6,175.3,99.6,179.2,102.4,179.2L102.4,179.2z"/>
					</g>
					<g>
						<path class="st3" d="M91,184.2c2.8,0,2.8-3.9,0-3.9S88.2,184.2,91,184.2L91,184.2z"/>
					</g>
					<g>
						<path class="st3" d="M106.2,188.3c2.8,0,2.8-3.9,0-3.9C103.4,184.5,103.4,188.3,106.2,188.3L106.2,188.3z"/>
					</g>
				</g>
				<g>
					<g>
						<g>
							<path class="st1" d="M146.4,191.1c0,5.8,0.1,11.6,0,17.4c-0.1,4.4,7.5,4.4,7.6,0c0.1-5.8,0-11.6,0-17.4
								C154,186.7,146.4,186.7,146.4,191.1L146.4,191.1z"/>
						</g>
						<ellipse class="st4" cx="150" cy="177.4" rx="20" ry="15.9"/>
					</g>
					<g>
						<path class="st3" d="M138.1,174.3c2.8,0,2.8-3.9,0-3.9C135.3,170.5,135.3,174.3,138.1,174.3L138.1,174.3z"/>
					</g>
					<g>
						<path class="st3" d="M151.4,169.7c2.8,0,2.8-3.9,0-3.9C148.6,165.9,148.6,169.7,151.4,169.7L151.4,169.7z"/>
					</g>
					<g>
						<path class="st3" d="M164.1,177.7c2.8,0,2.8-3.9,0-3.9C161.3,173.8,161.3,177.7,164.1,177.7L164.1,177.7z"/>
					</g>
					<g>
						<path class="st3" d="M150,180.4c2.8,0,2.8-3.9,0-3.9C147.2,176.5,147.2,180.4,150,180.4L150,180.4z"/>
					</g>
					<g>
						<path class="st3" d="M158.7,188.3c2.8,0,2.8-3.9,0-3.9C155.9,184.5,155.9,188.3,158.7,188.3L158.7,188.3z"/>
					</g>
					<g>
						<path class="st3" d="M140.3,185.7c2.8,0,2.8-3.9,0-3.9C137.5,181.8,137.5,185.7,140.3,185.7L140.3,185.7z"/>
					</g>
				</g>
				<g>
					<g>
						<g>
							<path class="st1" d="M195.2,191.1c0,5.8,0.1,11.6,0,17.4c-0.1,4.4,7.5,4.4,7.6,0c0.1-5.8,0-11.6,0-17.4
								C202.7,186.7,195.2,186.7,195.2,191.1L195.2,191.1z"/>
						</g>
						<ellipse class="st5" cx="198.7" cy="177.4" rx="20" ry="15.9"/>
					</g>
					<g>
						<path class="st3" d="M190.4,170.5c2.8,0,2.8-3.9,0-3.9C187.6,166.6,187.6,170.5,190.4,170.5L190.4,170.5z"/>
					</g>
					<g>
						<path class="st3" d="M208.3,171.9c2.8,0,2.8-3.9,0-3.9C205.5,168,205.5,171.9,208.3,171.9L208.3,171.9z"/>
					</g>
					<g>
						<path class="st3" d="M197.4,179.9c2.8,0,2.8-3.9,0-3.9C194.6,176,194.6,179.9,197.4,179.9L197.4,179.9z"/>
					</g>
					<g>
						<path class="st3" d="M212.6,183c2.8,0,2.8-3.9,0-3.9C209.8,179.2,209.8,183,212.6,183L212.6,183z"/>
					</g>
					<g>
						<path class="st3" d="M197.2,190c2.8,0,2.8-3.9,0-3.9C194.4,186.2,194.4,190,197.2,190L197.2,190z"/>
					</g>
					<g>
						<path class="st3" d="M186.3,182.5c2.8,0,2.8-3.9,0-3.9C183.5,178.7,183.5,182.5,186.3,182.5L186.3,182.5z"/>
					</g>
				</g>
			</g>
			<g>
				<g>
					<g>
						<path class="st1" d="M798.9,238.9c0,5.8,0.1,11.6,0,17.4c-0.1,4.4,7.5,4.4,7.6,0c0.1-5.8,0-11.6,0-17.4
							C806.4,234.5,798.9,234.5,798.9,238.9L798.9,238.9z"/>
					</g>
					<ellipse class="st5" cx="802.4" cy="225.2" rx="20" ry="15.9"/>
				</g>
				<g>
					<path class="st3" d="M803.4,217.3c2.8,0,2.8-3.9,0-3.9C800.6,213.4,800.6,217.3,803.4,217.3L803.4,217.3z"/>
				</g>
				<g>
					<path class="st3" d="M790.4,224.1c2.8,0,2.8-3.9,0-3.9S787.6,224.1,790.4,224.1L790.4,224.1z"/>
				</g>
				<g>
					<path class="st3" d="M814.5,226c2.8,0,2.8-3.9,0-3.9C811.7,222.1,811.7,226,814.5,226L814.5,226z"/>
				</g>
				<g>
					<path class="st3" d="M802.1,227.9c2.8,0,2.8-3.9,0-3.9C799.3,224.1,799.3,227.9,802.1,227.9L802.1,227.9z"/>
				</g>
				<g>
					<path class="st3" d="M794.2,234.7c2.8,0,2.8-3.9,0-3.9C791.4,230.8,791.4,234.7,794.2,234.7L794.2,234.7z"/>
				</g>
				<g>
					<path class="st3" d="M808.6,236.4c2.8,0,2.8-3.9,0-3.9C805.8,232.5,805.8,236.4,808.6,236.4L808.6,236.4z"/>
				</g>
			</g>
			<g>
				<g>
					<g>
						<g>
							<path class="st1" d="M441.9,387.5c0,5.8,0.1,11.6,0,17.4c-0.1,4.4,7.5,4.4,7.6,0c0.1-5.8,0-11.6,0-17.4
								C449.5,383.1,441.9,383.1,441.9,387.5L441.9,387.5z"/>
						</g>
						<ellipse class="st4" cx="445.4" cy="373.7" rx="20" ry="15.9"/>
					</g>
					<g>
						<path class="st3" d="M436.5,367.7c2.8,0,2.8-3.9,0-3.9C433.7,363.8,433.7,367.7,436.5,367.7L436.5,367.7z"/>
					</g>
					<g>
						<path class="st3" d="M449.5,365.3c2.8,0,2.8-3.9,0-3.9C446.7,361.4,446.7,365.3,449.5,365.3L449.5,365.3z"/>
					</g>
					<g>
						<path class="st3" d="M458.2,376.4c2.8,0,2.8-3.9,0-3.9S455.4,376.4,458.2,376.4L458.2,376.4z"/>
					</g>
					<g>
						<path class="st3" d="M444.6,375.2c2.8,0,2.8-3.9,0-3.9C441.9,371.3,441.9,375.2,444.6,375.2L444.6,375.2z"/>
					</g>
					<g>
						<path class="st3" d="M431.9,377.4c2.8,0,2.8-3.9,0-3.9C429.1,373.5,429.1,377.4,431.9,377.4L431.9,377.4z"/>
					</g>
					<g>
						<path class="st3" d="M446.5,384.8c2.8,0,2.8-3.9,0-3.9C443.7,381,443.7,384.8,446.5,384.8L446.5,384.8z"/>
					</g>
				</g>
				<g>
					<g>
						<g>
							<path class="st1" d="M490.6,387.5c0,5.8,0.1,11.6,0,17.4c-0.1,4.4,7.5,4.4,7.6,0c0.1-5.8,0-11.6,0-17.4
								C498.2,383.1,490.6,383.1,490.6,387.5L490.6,387.5z"/>
						</g>
						<ellipse class="st5" cx="494.1" cy="373.7" rx="20" ry="15.9"/>
					</g>
					<g>
						<path class="st3" d="M487.7,366.7c2.8,0,2.8-3.9,0-3.9C484.9,362.9,484.9,366.7,487.7,366.7L487.7,366.7z"/>
					</g>
					<g>
						<path class="st3" d="M504.2,368.4c2.8,0,2.8-3.9,0-3.9C501.4,364.6,501.4,368.4,504.2,368.4L504.2,368.4z"/>
					</g>
					<g>
						<path class="st3" d="M493.9,377.1c2.8,0,2.8-3.9,0-3.9C491.1,373.3,491.1,377.1,493.9,377.1L493.9,377.1z"/>
					</g>
					<g>
						<path class="st3" d="M481.2,376.6c2.8,0,2.8-3.9,0-3.9C478.4,372.8,478.4,376.6,481.2,376.6L481.2,376.6z"/>
					</g>
					<g>
						<path class="st3" d="M494.5,386.8c2.8,0,2.8-3.9,0-3.9C491.7,382.9,491.7,386.8,494.5,386.8L494.5,386.8z"/>
					</g>
					<g>
						<path class="st3" d="M505.6,379.8c2.8,0,2.8-3.9,0-3.9C502.8,375.9,502.8,379.8,505.6,379.8L505.6,379.8z"/>
					</g>
				</g>
				<g>
					<g>
						<g>
							<path class="st1" d="M539.4,387.5c0,5.8,0.1,11.6,0,17.4c-0.1,4.4,7.5,4.4,7.6,0c0.1-5.8,0-11.6,0-17.4
								C546.9,383.1,539.4,383.1,539.4,387.5L539.4,387.5z"/>
						</g>
						<ellipse class="st2" cx="542.9" cy="373.7" rx="20" ry="15.9"/>
					</g>
					<g>
						<path class="st3" d="M535.4,367c2.8,0,2.8-3.9,0-3.9C532.6,363.1,532.6,367,535.4,367L535.4,367z"/>
					</g>
					<g>
						<path class="st3" d="M551.9,368.9c2.8,0,2.8-3.9,0-3.9C549.1,365,549.1,368.9,551.9,368.9L551.9,368.9z"/>
					</g>
					<g>
						<path class="st3" d="M542.7,375.4c2.8,0,2.8-3.9,0-3.9C539.9,371.6,539.9,375.4,542.7,375.4L542.7,375.4z"/>
					</g>
					<g>
						<path class="st3" d="M529.1,376.4c2.8,0,2.8-3.9,0-3.9S526.3,376.4,529.1,376.4L529.1,376.4z"/>
					</g>
					<g>
						<path class="st3" d="M540,385.3c2.8,0,2.8-3.9,0-3.9C537.2,381.5,537.2,385.3,540,385.3L540,385.3z"/>
					</g>
					<g>
						<path class="st3" d="M551.6,380.5c2.8,0,2.8-3.9,0-3.9S548.8,380.5,551.6,380.5L551.6,380.5z"/>
					</g>
				</g>
			</g>
			<g>
				<g>
					<g>
						<g>
							<path class="st1" d="M721.4,531.9c0,5.8,0.1,11.6,0,17.4c-0.1,4.4,7.5,4.4,7.6,0c0.1-5.8,0-11.6,0-17.4
								C729,527.5,721.4,527.5,721.4,531.9L721.4,531.9z"/>
						</g>
						<ellipse class="st5" cx="724.9" cy="518.1" rx="20" ry="15.9"/>
					</g>
					<g>
						<path class="st3" d="M726,510.6c2.8,0,2.8-3.9,0-3.9S723.2,510.6,726,510.6L726,510.6z"/>
					</g>
					<g>
						<path class="st3" d="M713.3,515.2c2.8,0,2.8-3.9,0-3.9S710.5,515.2,713.3,515.2L713.3,515.2z"/>
					</g>
					<g>
						<path class="st3" d="M737.4,517.9c2.8,0,2.8-3.9,0-3.9C734.6,514,734.6,517.9,737.4,517.9L737.4,517.9z"/>
					</g>
					<g>
						<path class="st3" d="M724.4,520.8c2.8,0,2.8-3.9,0-3.9S721.6,520.8,724.4,520.8L724.4,520.8z"/>
					</g>
					<g>
						<path class="st3" d="M716,525.8c2.8,0,2.8-3.9,0-3.9S713.2,525.8,716,525.8L716,525.8z"/>
					</g>
					<g>
						<path class="st3" d="M731.4,529c2.8,0,2.8-3.9,0-3.9C728.6,525.1,728.6,529,731.4,529L731.4,529z"/>
					</g>
				</g>
				<g>
					<g>
						<g>
							<path class="st1" d="M770.2,531.9c0,5.8,0.1,11.6,0,17.4c-0.1,4.4,7.5,4.4,7.6,0c0.1-5.8,0-11.6,0-17.4
								C777.7,527.5,770.1,527.5,770.2,531.9L770.2,531.9z"/>
						</g>
						<ellipse class="st4" cx="773.7" cy="518.1" rx="20" ry="15.9"/>
					</g>
					<g>
						<path class="st3" d="M772.8,520.3c2.8,0,2.8-3.9,0-3.9S770,520.3,772.8,520.3L772.8,520.3z"/>
					</g>
					<g>
						<path class="st3" d="M767.1,512.1c2.8,0,2.8-3.9,0-3.9C764.3,508.2,764.3,512.1,767.1,512.1L767.1,512.1z"/>
					</g>
					<g>
						<path class="st3" d="M781,512.6c2.8,0,2.8-3.9,0-3.9C778.2,508.7,778.2,512.6,781,512.6L781,512.6z"/>
					</g>
					<g>
						<path class="st3" d="M760.9,522.2c2.8,0,2.8-3.9,0-3.9S758.1,522.2,760.9,522.2L760.9,522.2z"/>
					</g>
					<g>
						<path class="st3" d="M773.4,528.5c2.8,0,2.8-3.9,0-3.9S770.6,528.5,773.4,528.5L773.4,528.5z"/>
					</g>
					<g>
						<path class="st3" d="M784.5,523.7c2.8,0,2.8-3.9,0-3.9S781.7,523.7,784.5,523.7L784.5,523.7z"/>
					</g>
				</g>
				<g>
					<g>
						<g>
							<path class="st1" d="M818.9,531.9c0,5.8,0.1,11.6,0,17.4c-0.1,4.4,7.5,4.4,7.6,0c0.1-5.8,0-11.6,0-17.4
								C826.5,527.5,818.9,527.5,818.9,531.9L818.9,531.9z"/>
						</g>
						<ellipse class="st2" cx="822.4" cy="518.1" rx="20" ry="15.9"/>
					</g>
					<g>
						<path class="st3" d="M821.3,510.9c2.8,0,2.8-3.9,0-3.9C818.5,507,818.5,510.9,821.3,510.9L821.3,510.9z"/>
					</g>
					<g>
						<path class="st3" d="M810.2,516.7c2.8,0,2.8-3.9,0-3.9S807.4,516.7,810.2,516.7L810.2,516.7z"/>
					</g>
					<g>
						<path class="st3" d="M834.3,518.1c2.8,0,2.8-3.9,0-3.9C831.5,514.2,831.5,518.1,834.3,518.1L834.3,518.1z"/>
					</g>
					<g>
						<path class="st3" d="M821,520.8c2.8,0,2.8-3.9,0-3.9S818.2,520.8,821,520.8L821,520.8z"/>
					</g>
					<g>
						<path class="st3" d="M812.6,526.6c2.8,0,2.8-3.9,0-3.9C809.8,522.7,809.8,526.6,812.6,526.6L812.6,526.6z"/>
					</g>
					<g>
						<path class="st3" d="M829.4,529.2c2.8,0,2.8-3.9,0-3.9S826.6,529.2,829.4,529.2L829.4,529.2z"/>
					</g>
				</g>
			</g>
			<g>
				<g>
					<g>
						<path class="st1" d="M50.5,425.3c0,5.8,0.1,11.6,0,17.4c-0.1,4.4,7.5,4.4,7.6,0c0.1-5.8,0-11.6,0-17.4
							C58.1,420.9,50.5,420.9,50.5,425.3L50.5,425.3z"/>
					</g>
					<ellipse class="st4" cx="54" cy="411.5" rx="20" ry="15.9"/>
				</g>
				<g>
					<path class="st3" d="M48.5,404.4c2.8,0,2.8-3.9,0-3.9C45.7,400.5,45.7,404.4,48.5,404.4L48.5,404.4z"/>
				</g>
				<g>
					<path class="st3" d="M63.1,407.1c2.8,0,2.8-3.9,0-3.9C60.3,403.2,60.3,407.1,63.1,407.1L63.1,407.1z"/>
				</g>
				<g>
					<path class="st3" d="M54.5,413.1c2.8,0,2.8-3.9,0-3.9C51.7,409.2,51.7,413.1,54.5,413.1L54.5,413.1z"/>
				</g>
				<g>
					<path class="st3" d="M41.7,413.6c2.8,0,2.8-3.9,0-3.9C38.9,409.7,38.9,413.6,41.7,413.6L41.7,413.6z"/>
				</g>
				<g>
					<path class="st3" d="M53.1,422.3c2.8,0,2.8-3.9,0-3.9C50.3,418.4,50.3,422.3,53.1,422.3L53.1,422.3z"/>
				</g>
				<g>
					<path class="st3" d="M63.7,418.9c2.8,0,2.8-3.9,0-3.9C60.9,415,60.9,418.9,63.7,418.9L63.7,418.9z"/>
				</g>
			</g>
			<g>
				<g>
					<g>
						<g>
							<path class="st1" d="M77.7,742.2c0,5.8,0.1,11.6,0,17.4c-0.1,4.4,7.5,4.4,7.6,0c0.1-5.8,0-11.6,0-17.4
								C85.2,737.8,77.7,737.8,77.7,742.2L77.7,742.2z"/>
						</g>
						<ellipse class="st5" cx="81.2" cy="728.5" rx="20" ry="15.9"/>
					</g>
					<g>
						<path class="st3" d="M75.3,721.9c2.8,0,2.8-3.9,0-3.9C72.5,718,72.5,721.9,75.3,721.9L75.3,721.9z"/>
					</g>
					<g>
						<path class="st3" d="M90.5,723.6c2.8,0,2.8-3.9,0-3.9S87.7,723.6,90.5,723.6L90.5,723.6z"/>
					</g>
					<g>
						<path class="st3" d="M81.3,730.6c2.8,0,2.8-3.9,0-3.9C78.5,726.7,78.5,730.6,81.3,730.6L81.3,730.6z"/>
					</g>
					<g>
						<path class="st3" d="M68.5,733c2.8,0,2.8-3.9,0-3.9C65.7,729.1,65.7,733,68.5,733L68.5,733z"/>
					</g>
					<g>
						<path class="st3" d="M80.5,740.9c2.8,0,2.8-3.9,0-3.9S77.7,740.9,80.5,740.9L80.5,740.9z"/>
					</g>
					<g>
						<path class="st3" d="M91,736.1c2.8,0,2.8-3.9,0-3.9S88.2,736.1,91,736.1L91,736.1z"/>
					</g>
				</g>
				<g>
					<g>
						<g>
							<path class="st1" d="M126.4,742.2c0,5.8,0.1,11.6,0,17.4c-0.1,4.4,7.5,4.4,7.6,0c0.1-5.8,0-11.6,0-17.4
								C134,737.8,126.4,737.8,126.4,742.2L126.4,742.2z"/>
						</g>
						<ellipse class="st2" cx="129.9" cy="728.5" rx="20" ry="15.9"/>
					</g>
					<g>
						<path class="st3" d="M128.9,721.4c2.8,0,2.8-3.9,0-3.9C126.1,717.5,126.1,721.4,128.9,721.4L128.9,721.4z"/>
					</g>
					<g>
						<path class="st3" d="M118.1,727.2c2.8,0,2.8-3.9,0-3.9S115.3,727.2,118.1,727.2L118.1,727.2z"/>
					</g>
					<g>
						<path class="st3" d="M140.6,728.4c2.8,0,2.8-3.9,0-3.9C137.8,724.5,137.8,728.4,140.6,728.4L140.6,728.4z"/>
					</g>
					<g>
						<path class="st3" d="M128.9,731.8c2.8,0,2.8-3.9,0-3.9C126.1,727.9,126.1,731.8,128.9,731.8L128.9,731.8z"/>
					</g>
					<g>
						<path class="st3" d="M120,737.3c2.8,0,2.8-3.9,0-3.9S117.2,737.3,120,737.3L120,737.3z"/>
					</g>
					<g>
						<path class="st3" d="M137.3,739.5c2.8,0,2.8-3.9,0-3.9C134.5,735.6,134.5,739.5,137.3,739.5L137.3,739.5z"/>
					</g>
				</g>
				<g>
					<g>
						<g>
							<path class="st1" d="M175.1,742.2c0,5.8,0.1,11.6,0,17.4c-0.1,4.4,7.5,4.4,7.6,0c0.1-5.8,0-11.6,0-17.4
								C182.7,737.8,175.1,737.8,175.1,742.2L175.1,742.2z"/>
						</g>
						<ellipse class="st4" cx="178.7" cy="728.5" rx="20" ry="15.9"/>
					</g>
					<g>
						<path class="st3" d="M178.2,721.1c2.8,0,2.8-3.9,0-3.9C175.4,717.3,175.4,721.1,178.2,721.1L178.2,721.1z"/>
					</g>
					<g>
						<path class="st3" d="M167.1,725.3c2.8,0,2.8-3.9,0-3.9S164.3,725.3,167.1,725.3L167.1,725.3z"/>
					</g>
					<g>
						<path class="st3" d="M189,725.3c2.8,0,2.8-3.9,0-3.9C186.2,721.4,186.2,725.3,189,725.3L189,725.3z"/>
					</g>
					<g>
						<path class="st3" d="M178.7,730.8c2.8,0,2.8-3.9,0-3.9C175.9,726.9,175.9,730.8,178.7,730.8L178.7,730.8z"/>
					</g>
					<g>
						<path class="st3" d="M169.3,735.9c2.8,0,2.8-3.9,0-3.9C166.5,732,166.5,735.9,169.3,735.9L169.3,735.9z"/>
					</g>
					<g>
						<path class="st3" d="M185.5,738.8c2.8,0,2.8-3.9,0-3.9C182.7,734.9,182.7,738.8,185.5,738.8L185.5,738.8z"/>
					</g>
				</g>
			</g>
			<g>
				<g>
					<g>
						<path class="st1" d="M706.4,750.6c0,5.8,0.1,11.6,0,17.4c-0.1,4.4,7.5,4.4,7.6,0c0.1-5.8,0-11.6,0-17.4
							C714,746.2,706.4,746.2,706.4,750.6L706.4,750.6z"/>
					</g>
					<ellipse class="st2" cx="709.9" cy="736.8" rx="20" ry="15.9"/>
				</g>
				<g>
					<path class="st3" d="M702.8,730.4c2.8,0,2.8-3.9,0-3.9C700,726.5,700,730.4,702.8,730.4L702.8,730.4z"/>
				</g>
				<g>
					<path class="st3" d="M717.6,730.6c2.8,0,2.8-3.9,0-3.9C714.8,726.7,714.8,730.6,717.6,730.6L717.6,730.6z"/>
				</g>
				<g>
					<path class="st3" d="M710.5,738.5c2.8,0,2.8-3.9,0-3.9S707.8,738.5,710.5,738.5L710.5,738.5z"/>
				</g>
				<g>
					<path class="st3" d="M697.2,739.7c2.8,0,2.8-3.9,0-3.9S694.4,739.7,697.2,739.7L697.2,739.7z"/>
				</g>
				<g>
					<path class="st3" d="M710.4,748.1c2.8,0,2.8-3.9,0-3.9S707.6,748.1,710.4,748.1L710.4,748.1z"/>
				</g>
				<g>
					<path class="st3" d="M721.6,742.2c2.8,0,2.8-3.9,0-3.9S718.8,742.2,721.6,742.2L721.6,742.2z"/>
				</g>
			</g>
		</g>
		<g>
			<g>
				<ellipse class="st6" cx="223.5" cy="546.5" rx="11.3" ry="7.6"/>
				<ellipse class="st6" cx="250.3" cy="553.9" rx="8" ry="4.7"/>
				<ellipse class="st6" cx="227.3" cy="566.8" rx="15" ry="8.1"/>
			</g>
			<g>
				<ellipse class="st6" cx="763.7" cy="306.9" rx="10" ry="6.1"/>
				<ellipse class="st6" cx="786.3" cy="316.3" rx="7.4" ry="4.3"/>
				<ellipse class="st6" cx="761" cy="327.7" rx="13" ry="7.2"/>
			</g>
			<g>
				<ellipse class="st6" cx="119.9" cy="322" rx="10" ry="5.7"/>
				<ellipse class="st6" cx="92.4" cy="330.9" rx="14.2" ry="8.8"/>
				<ellipse class="st6" cx="125.1" cy="338.6" rx="5.2" ry="4.7"/>
			</g>
			<g>
				<ellipse class="st6" cx="637.1" cy="566.8" rx="12.3" ry="8.1"/>
				<ellipse class="st6" cx="663" cy="570.8" rx="7.2" ry="4.1"/>
				<ellipse class="st6" cx="653.5" cy="584.5" rx="9.5" ry="5.7"/>
			</g>
			<g>
				<ellipse class="st6" cx="408.8" cy="725.3" rx="12.7" ry="8"/>
				<ellipse class="st6" cx="441.9" cy="732.7" rx="8.6" ry="4.2"/>
				<ellipse class="st6" cx="420.5" cy="740.6" rx="7.4" ry="3.8"/>
			</g>
			<g>
				<ellipse class="st6" cx="469.6" cy="172.9" rx="11.8" ry="7.5"/>
				<ellipse class="st6" cx="499.6" cy="174.7" rx="6.9" ry="3.7"/>
				<ellipse class="st6" cx="490.5" cy="187.2" rx="9.1" ry="5.3"/>
			</g>
			<g>
				<ellipse class="st6" cx="815.7" cy="98.4" rx="13.7" ry="7.1"/>
				<ellipse class="st6" cx="832.6" cy="110" rx="9.9" ry="3.5"/>
				<ellipse class="st6" cx="807.5" cy="113" rx="6" ry="3.9"/>
			</g>
		</g>
		<g>
			<g>
				<g>
					<path class="st3" d="M272.8,177.9c0.3,1.5,0.3,3.1,0.3,4.7c0,2.3,4.1,2.3,4.1,0c0-1.9-0.1-3.8-0.4-5.6c-0.2-1-1.5-1.5-2.5-1.3
						C273.1,175.9,272.6,176.9,272.8,177.9L272.8,177.9z"/>
				</g>
				<g>
					<path class="st3" d="M281.5,181.4c0.3,1.3,0.3,2.7,0.3,4c0,2.3,4.1,2.3,4.1,0c0-1.7-0.1-3.3-0.4-5c-0.2-1-1.5-1.5-2.5-1.3
						C281.8,179.5,281.3,180.4,281.5,181.4L281.5,181.4z"/>
				</g>
				<g>
					<path class="st3" d="M289.1,176.9c0.3,1.4,0.3,2.9,0.3,4.3c0,2.3,4.1,2.3,4.1,0c0-1.8-0.1-3.5-0.4-5.3c-0.2-1-1.5-1.5-2.5-1.3
						C289.4,174.9,288.9,175.9,289.1,176.9L289.1,176.9z"/>
				</g>
				<g>
					<path class="st3" d="M297,181.7c0.3,1.1,0.3,2.2,0.3,3.4c0,2.3,4.1,2.3,4.1,0c0-1.5-0.1-2.9-0.4-4.3
						C300.3,178.5,296.4,179.5,297,181.7L297,181.7z"/>
				</g>
				<g>
					<path class="st3" d="M264.4,183.2c0,0.9,0,1.7,0,2.6c0,1,0.9,1.8,2,1.8c1.1,0,2-0.8,2-1.8c0-0.9,0-1.7,0-2.6c0-1-0.9-1.8-2-1.8
						C265.4,181.4,264.4,182.2,264.4,183.2L264.4,183.2z"/>
				</g>
				<g>
					<path class="st3" d="M306,179.3c0,0.9,0,1.7,0,2.6c0,1,0.9,1.8,2,1.8c1.1,0,2-0.8,2-1.8c0-0.9,0-1.7,0-2.6c0-1-0.9-1.8-2-1.8
						C306.9,177.5,306,178.3,306,179.3L306,179.3z"/>
				</g>
			</g>
			<g>
				<g>
					<path class="st3" d="M585.8,520.7c0.3,1.5,0.3,3.1,0.3,4.7c0,2.3,4.1,2.3,4.1,0c0-1.9-0.1-3.8-0.4-5.6c-0.2-1-1.5-1.5-2.5-1.3
						C586.1,518.7,585.7,519.7,585.8,520.7L585.8,520.7z"/>
				</g>
				<g>
					<path class="st3" d="M594.5,524.2c0.3,1.3,0.3,2.7,0.3,4c0,2.3,4.1,2.3,4.1,0c0-1.7-0.1-3.3-0.4-5c-0.2-1-1.5-1.5-2.5-1.3
						C594.8,522.3,594.3,523.3,594.5,524.2L594.5,524.2z"/>
				</g>
				<g>
					<path class="st3" d="M602.1,519.7c0.3,1.4,0.3,2.9,0.3,4.3c0,2.3,4.1,2.3,4.1,0c0-1.8-0.1-3.5-0.4-5.3c-0.2-1-1.5-1.5-2.5-1.3
						C602.4,517.8,601.9,518.7,602.1,519.7L602.1,519.7z"/>
				</g>
				<g>
					<path class="st3" d="M610,524.5c0.3,1.1,0.3,2.2,0.3,3.4c0,2.3,4.1,2.3,4.1,0c0-1.5-0.1-2.9-0.4-4.3
						C613.4,521.3,609.4,522.3,610,524.5L610,524.5z"/>
				</g>
				<g>
					<path class="st3" d="M577.5,526c0,0.9,0,1.7,0,2.6c0,1,0.9,1.8,2,1.8c1.1,0,2-0.8,2-1.8c0-0.9,0-1.7,0-2.6c0-1-0.9-1.8-2-1.8
						C578.4,524.2,577.5,525,577.5,526L577.5,526z"/>
				</g>
				<g>
					<path class="st3" d="M619,522.1c0,0.9,0,1.7,0,2.6c0,1,0.9,1.8,2,1.8s2-0.8,2-1.8c0-0.9,0-1.7,0-2.6c0-1-0.9-1.8-2-1.8
						S619,521.1,619,522.1L619,522.1z"/>
				</g>
			</g>
			<g>
				<g>
					<path class="st3" d="M115.8,382.3c0.3,1.5,0.3,3.1,0.3,4.7c0,2.3,4.1,2.3,4.1,0c0-1.9-0.1-3.8-0.4-5.6c-0.2-1-1.5-1.5-2.5-1.3
						C116.1,380.4,115.6,381.3,115.8,382.3L115.8,382.3z"/>
				</g>
				<g>
					<path class="st3" d="M124.5,385.8c0.3,1.3,0.3,2.7,0.3,4c0,2.3,4.1,2.3,4.1,0c0-1.7-0.1-3.3-0.4-5c-0.2-1-1.5-1.5-2.5-1.3
						C124.8,383.9,124.3,384.9,124.5,385.8L124.5,385.8z"/>
				</g>
				<g>
					<path class="st3" d="M132.1,381.3c0.3,1.4,0.3,2.9,0.3,4.3c0,2.3,4.1,2.3,4.1,0c0-1.8-0.1-3.5-0.4-5.3c-0.2-1-1.5-1.5-2.5-1.3
						C132.3,379.4,131.9,380.4,132.1,381.3L132.1,381.3z"/>
				</g>
				<g>
					<path class="st3" d="M140,386.2c0.3,1.1,0.3,2.2,0.3,3.4c0,2.3,4.1,2.3,4.1,0c0-1.5-0.1-2.9-0.4-4.3
						C143.3,382.9,139.4,383.9,140,386.2L140,386.2z"/>
				</g>
				<g>
					<path class="st3" d="M107.4,387.6c0,0.9,0,1.7,0,2.6c0,1,0.9,1.8,2,1.8c1.1,0,2-0.8,2-1.8c0-0.9,0-1.7,0-2.6c0-1-0.9-1.8-2-1.8
						C108.4,385.8,107.4,386.6,107.4,387.6L107.4,387.6z"/>
				</g>
				<g>
					<path class="st3" d="M149,383.8c0,0.9,0,1.7,0,2.6c0,1,0.9,1.8,2,1.8c1.1,0,2-0.8,2-1.8c0-0.9,0-1.7,0-2.6c0-1-0.9-1.8-2-1.8
						C149.9,381.9,149,382.8,149,383.8L149,383.8z"/>
				</g>
			</g>
			<g>
				<g>
					<path class="st3" d="M759.3,756c0.3,1.5,0.3,3.1,0.3,4.7c0,2.3,4.1,2.3,4.1,0c0-1.9-0.1-3.8-0.4-5.6c-0.2-1-1.5-1.5-2.5-1.3
						C759.5,754.1,759.1,755.1,759.3,756L759.3,756z"/>
				</g>
				<g>
					<path class="st3" d="M767.9,759.6c0.3,1.3,0.3,2.7,0.3,4c0,2.3,4.1,2.3,4.1,0c0-1.7-0.1-3.3-0.4-5c-0.2-1-1.5-1.5-2.5-1.3
						C768.2,757.6,767.7,758.6,767.9,759.6L767.9,759.6z"/>
				</g>
				<g>
					<path class="st3" d="M775.5,755.1c0.3,1.4,0.3,2.9,0.3,4.3c0,2.3,4.1,2.3,4.1,0c0-1.8-0.1-3.5-0.4-5.3c-0.2-1-1.5-1.5-2.5-1.3
						C775.8,753.1,775.3,754.1,775.5,755.1L775.5,755.1z"/>
				</g>
				<g>
					<path class="st3" d="M783.4,759.9c0.3,1.1,0.3,2.2,0.3,3.4c0,2.3,4.1,2.3,4.1,0c0-1.5-0.1-2.9-0.4-4.3
						C786.8,756.7,782.9,757.6,783.4,759.9L783.4,759.9z"/>
				</g>
				<g>
					<path class="st3" d="M750.9,761.3c0,0.9,0,1.7,0,2.6c0,1,0.9,1.8,2,1.8c1.1,0,2-0.8,2-1.8c0-0.9,0-1.7,0-2.6c0-1-0.9-1.8-2-1.8
						C751.8,759.5,750.9,760.4,750.9,761.3L750.9,761.3z"/>
				</g>
				<g>
					<path class="st3" d="M792.4,757.5c0,0.9,0,1.7,0,2.6c0,1,0.9,1.8,2,1.8c1.1,0,2-0.8,2-1.8c0-0.9,0-1.7,0-2.6c0-1-0.9-1.8-2-1.8
						C793.3,755.7,792.4,756.5,792.4,757.5L792.4,757.5z"/>
				</g>
			</g>
		</g>
	</g>
	<g>
		<g>
			<g class="st7">
				<path class="st8" d="M866.6,627.1c-62.1-0.3-110.1-1.6-172.2-2.8c-69.4-1.4-139.1-0.7-208.6,1.1c-50.5,1.3-101,1.2-151.5,1.1
					c-20.3,0-40.5,0.1-60.7,0.5c-17.2,0.4-34.5,0.5-51.6-1.1c-8.1-1.2-16.2-3-23.9-5.4c-3.3-1.4-6.4-3-9.4-4.8
					c-1.6-1.3-3.1-2.7-4.6-4.2c-2.8-3.7-5.2-7.6-7.4-11.6c-3.1-7.5-5.4-15.3-6.9-23.2c-1-9.6-1-19.3,0-28.9
					c1.4-7.4,3.6-14.7,6.5-21.8c2.1-3.8,4.5-7.6,7.1-11.1c1.8-1.8,3.7-3.6,5.8-5.2c1.7-1,3.5-1.9,5.3-2.8c6.3-1.9,12.9-3,19.5-4
					c26.8-2.6,53.8-2.1,80.7-2.1c35.6,0,71.2-0.7,106.8-0.1c35.9,0.6,71.6,1.5,107.5,1c17.8-0.2,35.5-0.5,53.3-0.7
					c8.3-0.1,16.6-0.1,24.9-0.1c10,0,19.9-1.4,29.8-2.6c30.4-3.7,61.4-18.7,80.4-40.2c18.8-21.3,32.2-46.7,37-73.7
					c4.5-25.2,4.7-51.5-5.5-75.7c-11-26.2-29.6-48.2-56.8-62.5c-28.5-15-63.2-18-95.5-19.7c-25.1-1.3-50.1-0.6-75.2-0.6
					c-22.7,0-45.4,0.4-68,0.6c-26.5,0.2-53-0.3-79.6-0.6c-61.1-0.7-122.3,0.8-183.5,0.8C110.7,226.9,59.6,227,0,228
					c0.3,0.4,0,1.1,0,1.7C0,255,0,280,0,305.2c63.9-1,121.4-1.1,185.3-1.1c66.6,0,133.2-1.3,199.8-0.3c35.7,0.6,71.4-0.3,107.1-0.6
					c35.3-0.2,71-1.4,106.1,2.2c8.6,1.2,17.2,2.8,25.5,5.3c3.2,1.4,6.3,3.1,9.3,4.8c2.5,2,4.9,4.1,7.1,6.4c2.2,2.9,4.1,5.9,5.9,9
					c1.9,4.8,3.4,9.7,4.4,14.7c0.6,6.9,0.6,13.9-0.1,20.9c-1.7,8.3-4.2,16.5-7.6,24.4c-3,5.6-6.3,11.1-10.2,16.3
					c-2.4,2.4-4.9,4.7-7.6,6.8c-3.2,1.9-6.5,3.6-9.9,5.1c-5.5,1.7-11,3-16.7,3.9c-13.4,1-26.9,0.5-40.3,0.7
					c-17.8,0.2-35.5,0.5-53.3,0.7c-35.9,0.4-71.6-0.6-107.5-1.1c-35.4-0.5-70.8,0.1-106.2,0.1c-32.3,0-63.9,0.3-95.9,4.3
					c-26.6,3.3-51,12.5-70.1,29.6c-17.5,15.6-29.1,36.4-35.7,57.5c-13,41.7-8,89.1,14.6,127.5c5.5,9.4,13,18.2,21.1,25.8
					c12.9,12.1,29.1,19.1,46,25.4c15,5.6,31.2,7.4,47.2,9.2c13.2,1.5,26.5,1.8,39.8,1.7c29-0.1,58-0.8,87.1-0.8
					c35.6,0,71.2,0,106.8-0.5c70.2-1,140.4-2.2,210.7-2.1c33.7,0.1,67.4,1.3,101.1,2c33.6,0.7,69.3,0.7,103,1.1"/>
			</g>
			<g>
				<path class="st8" d="M866.5,618.5c-64-0.2-120.1-1.6-184.1-2.9c-69.4-1.4-139.1-0.7-208.6,1.1c-50.5,1.3-101,1.2-151.5,1.1
					c-20.3,0-40.5,0.1-60.7,0.5c-17.2,0.4-34.5,0.5-51.6-1.1c-8.1-1.2-16.2-3-23.9-5.4c-3.3-1.4-6.4-3-9.4-4.8
					c-1.6-1.3-3.1-2.7-4.6-4.2c-2.8-3.7-5.2-7.6-7.4-11.6c-3.1-7.5-5.4-15.3-6.9-23.2c-1-9.6-1-19.3,0-28.9
					c1.4-7.4,3.6-14.7,6.5-21.8c2.1-3.8,4.5-7.6,7.1-11.1c1.8-1.8,3.7-3.6,5.8-5.2c1.7-1,3.5-1.9,5.3-2.8c6.3-1.9,12.9-3,19.5-4
					c26.8-2.6,53.8-2.1,80.7-2.1c35.6,0,71.2-0.7,106.8-0.1c35.9,0.6,71.6,1.5,107.5,1c17.8-0.2,35.5-0.5,53.3-0.7
					c8.3-0.1,16.6-0.1,24.9-0.1c10,0,19.9-1.4,29.8-2.6c30.4-3.7,61.4-18.7,80.4-40.2c18.8-21.3,32.2-46.7,37-73.7
					c4.5-25.2,4.7-51.5-5.5-75.7c-11-26.2-29.6-48.2-56.8-62.5c-28.5-15-63.2-18-95.5-19.7c-25.1-1.3-50.1-0.6-75.2-0.6
					c-22.7,0-45.4,0.4-68,0.6c-26.5,0.2-53-0.3-79.6-0.6c-61.1-0.7-122.3,0.8-183.5,0.8c-56.9,0-101.5,0.1-158.4,0.9
					c0,26-0.1,51.5,0,77.3c61.9-0.9,111.5-0.9,173.4-0.9c66.6,0,133.2-1.3,199.8-0.3c35.7,0.6,71.4-0.3,107.1-0.6
					c35.3-0.2,71-1.4,106.1,2.2c8.6,1.2,17.2,2.8,25.5,5.3c3.2,1.4,6.3,3.1,9.3,4.8c2.5,2,4.9,4.1,7.1,6.4c2.2,2.9,4.1,5.9,5.9,9
					c1.9,4.8,3.4,9.7,4.4,14.7c0.6,6.9,0.6,13.9-0.1,20.9c-1.7,8.3-4.2,16.5-7.6,24.4c-3,5.6-6.3,11.1-10.2,16.3
					c-2.4,2.4-4.9,4.7-7.6,6.8c-3.2,1.9-6.5,3.6-9.9,5.1c-5.5,1.7-11,3-16.7,3.9c-13.4,1-26.9,0.5-40.3,0.7
					c-17.8,0.2-35.5,0.5-53.3,0.7c-35.9,0.4-71.6-0.6-107.5-1.1c-35.4-0.5-70.8,0.1-106.2,0.1c-32.3,0-63.9,0.3-95.9,4.3
					c-26.6,3.3-51,12.5-70.1,29.6c-17.5,15.6-29.1,36.4-35.7,57.5c-13,41.7-8,89.1,14.6,127.5c5.5,9.4,13,18.2,21.1,25.8
					c12.9,12.1,29.1,19.1,46,25.4c15,5.6,31.2,7.4,47.2,9.2c13.2,1.5,26.5,1.8,39.8,1.7c29-0.1,58-0.8,87.1-0.8
					c35.6,0,71.2,0,106.8-0.5c70.2-1,140.4-2.2,210.7-2.1c33.7,0.1,67.4,1.3,101.1,2c33.6,0.7,67.3,0.7,100.9,1.1
					c7.8,0.1,6.1,0.1,14,0.1"/>
			</g>
			<g>
				<path class="st9" d="M22.5,257.5c59.5-0.7,109.4-0.7,165.9-0.7c62.4,0,116.4-1.8,178.7-0.4c34.1,0.8,98.6-0.6,124-0.5
					c30.9,0.1,87.7-2.4,128.3,7.7c68.2,18.8,78.3,93.6,42.5,148.6c-19.5,30.4-52.7,41.3-88.5,41.3c-53.6,0-107.9,2.2-162.6,0.3
					c-44-1.5-86.7-0.5-130.5-0.5c-30.9,0-74.2-1-105.1,6.3c-73.1,15.9-79.5,133-29.1,175c37.4,29,100.7,21.7,146.2,21.7
					c60.1,0,121.2,0.3,181.3-1.1c56.9-1.4,114.3-1.4,172.8-1.4c45.5,0,95.3,2.4,140.8,2.4c25.3,0,44.1,0.5,66.1,0.8"/>
			</g>
		</g>
		<g>
			<g>
				<g>
					<path class="st10" d="M465.2,236.6c0,2.1-1.9,3.9-4.3,3.9h-61.4c-2.4,0-4.3-1.7-4.3-3.9v-7.7c0-2.1,1.9-3.9,4.3-3.9h61.4
						c2.4,0,4.3,1.7,4.3,3.9V236.6z"/>
					<path class="st10" d="M449.8,224.7c0,2.1-1.9,3.9-4.3,3.9h-30.7c-2.4,0-4.3-1.7-4.3-3.9v-13.5c0-2.1,1.9-3.9,4.3-3.9h30.7
						c2.4,0,4.3,1.7,4.3,3.9V224.7z"/>
					<path class="st11" d="M428,222.6c0,1.3-0.6,2.4-1.4,2.4h-10.1c-0.8,0-1.4-1.1-1.4-2.4v-8.3c0-1.3,0.6-2.4,1.4-2.4h10.1
						c0.8,0,1.4,1.1,1.4,2.4V222.6z"/>
					<path class="st11" d="M445.3,222.6c0,1.3-0.6,2.4-1.4,2.4h-10.1c-0.8,0-1.4-1.1-1.4-2.4v-8.3c0-1.3,0.6-2.4,1.4-2.4h10.1
						c0.8,0,1.4,1.1,1.4,2.4V222.6z"/>
					<ellipse class="st12" cx="413.1" cy="241.8" rx="6.5" ry="5.8"/>
					<ellipse class="st12" cx="447.2" cy="241.8" rx="6.5" ry="5.8"/>
					<ellipse class="st13" cx="413.1" cy="241.8" rx="3.2" ry="2.9"/>
					<ellipse class="st13" cx="447.2" cy="241.8" rx="3.2" ry="2.9"/>
				</g>
				<g>
					<path class="st14" d="M395.1,232.5c3.6,0,3.6-3.9,0-3.9S391.5,232.5,395.1,232.5L395.1,232.5z"/>
				</g>
			</g>
			<g>
				<g>
					<path class="st15" d="M348.2,469.5c0,2.1-1.9,3.9-4.3,3.9h-61.4c-2.4,0-4.3-1.7-4.3-3.9v-7.7c0-2.1,1.9-3.9,4.3-3.9h61.4
						c2.4,0,4.3,1.7,4.3,3.9V469.5z"/>
					<path class="st15" d="M332.9,457.6c0,2.1-1.9,3.9-4.3,3.9h-30.7c-2.4,0-4.3-1.7-4.3-3.9v-13.5c0-2.1,1.9-3.9,4.3-3.9h30.7
						c2.4,0,4.3,1.7,4.3,3.9V457.6z"/>
					<path class="st16" d="M311,455.5c0,1.3-0.6,2.4-1.4,2.4h-10.1c-0.8,0-1.4-1.1-1.4-2.4v-8.3c0-1.3,0.6-2.4,1.4-2.4h10.1
						c0.8,0,1.4,1.1,1.4,2.4V455.5z"/>
					<path class="st16" d="M328.4,455.5c0,1.3-0.6,2.4-1.4,2.4h-10.1c-0.8,0-1.4-1.1-1.4-2.4v-8.3c0-1.3,0.6-2.4,1.4-2.4h10.1
						c0.8,0,1.4,1.1,1.4,2.4V455.5z"/>
					<ellipse class="st12" cx="296.1" cy="474.6" rx="6.5" ry="5.8"/>
					<ellipse class="st12" cx="330.3" cy="474.6" rx="6.5" ry="5.8"/>
					<ellipse class="st13" cx="296.1" cy="474.6" rx="3.2" ry="2.9"/>
					<ellipse class="st13" cx="330.3" cy="474.6" rx="3.2" ry="2.9"/>
				</g>
				<g>
					<path class="st17" d="M278.4,466.2c3.6,0,3.6-3.9,0-3.9S274.8,466.2,278.4,466.2L278.4,466.2z"/>
				</g>
			</g>
			<g>
				<g>
					<path class="st18" d="M800,635.6c0,2.1-1.9,3.9-4.3,3.9h-61.4c-2.4,0-4.3-1.7-4.3-3.9v-7.7c0-2.1,1.9-3.9,4.3-3.9h61.4
						c2.4,0,4.3,1.7,4.3,3.9V635.6z"/>
					<path class="st18" d="M784.7,623.7c0,2.1-1.9,3.9-4.3,3.9h-30.7c-2.4,0-4.3-1.7-4.3-3.9v-13.5c0-2.1,1.9-3.9,4.3-3.9h30.7
						c2.4,0,4.3,1.7,4.3,3.9V623.7z"/>
					<path class="st11" d="M762.8,621.6c0,1.3-0.6,2.4-1.4,2.4h-10.1c-0.8,0-1.4-1.1-1.4-2.4v-8.3c0-1.3,0.6-2.4,1.4-2.4h10.1
						c0.8,0,1.4,1.1,1.4,2.4V621.6z"/>
					<path class="st11" d="M780.2,621.6c0,1.3-0.6,2.4-1.4,2.4h-10.1c-0.8,0-1.4-1.1-1.4-2.4v-8.3c0-1.3,0.6-2.4,1.4-2.4h10.1
						c0.8,0,1.4,1.1,1.4,2.4V621.6z"/>
					<ellipse class="st12" cx="747.9" cy="640.8" rx="6.5" ry="5.8"/>
					<ellipse class="st12" cx="782.1" cy="640.8" rx="6.5" ry="5.8"/>
					<ellipse class="st13" cx="747.9" cy="640.8" rx="3.2" ry="2.9"/>
					<ellipse class="st13" cx="782.1" cy="640.8" rx="3.2" ry="2.9"/>
				</g>
				<g>
					<path class="st14" d="M730.6,632.1c3.6,0,3.6-3.9,0-3.9S727,632.1,730.6,632.1L730.6,632.1z"/>
				</g>
			</g>
		</g>
	</g>
	<g>
		<rect x="203.7" y="518" class="st19" width="459.1" height="144.5"/>
		<text transform="matrix(1.1216 0 0 1 311.7779 554.312)"><tspan x="0" y="0" class="st20 st21 st22" style="text-decoration: underline;">ROUTE DE </tspan><tspan x="11.3" y="61.4" class="st20 st21 st22" style="text-decoration: underline;">MOKSHA</tspan></text>
		<g class="st23">
			<g class="st24">
				<ellipse class="st25" cx="328.4" cy="581.5" rx="13.5" ry="5.3"/>
				<g>
					<path class="st10" d="M327.8,581.5c-10.1-10.5-30-45-0.8-45C360.9,536.4,337.5,570.3,327.8,581.5"/>
					<g>
						<path class="st26" d="M327.4,558.6c10.1,0,10.1-13.9,0-13.9C317.3,544.7,317.3,558.6,327.4,558.6L327.4,558.6z"/>
					</g>
				</g>
			</g>
			<g class="st24">
				<ellipse class="st25" cx="538.5" cy="581.5" rx="13.5" ry="5.3"/>
				<g>
					<path class="st10" d="M537.9,581.5c-10.1-10.5-30-45-0.8-45C571,536.4,547.6,570.3,537.9,581.5"/>
					<g>
						<path class="st26" d="M537.5,558.6c10.1,0,10.1-13.9,0-13.9C527.4,544.7,527.4,558.6,537.5,558.6L537.5,558.6z"/>
					</g>
				</g>
			</g>
		</g>
	</g>
	<g>
		<g>
			<path class="st25" d="M786.7,208.1c0,6.4-38.8,11.6-86.6,11.6c-47.9,0-86.6-5.2-86.6-11.6c0-6.4,38.8-11.6,86.6-11.6
				C748,196.5,786.7,201.7,786.7,208.1z"/>
			<g>
				<path class="st8" d="M727.3,198.5c0,2.2-2.3,4-5.2,4h-53.7c-2.9,0-5.2-1.8-5.2-4V96.4c0-2.2,2.3-4,5.2-4h53.7
					c2.9,0,5.2,1.8,5.2,4V198.5z"/>
				<rect x="671.7" y="100.3" class="st11" width="11.6" height="10.3"/>
				<rect x="689.4" y="100.3" class="st16" width="11.6" height="10.3"/>
				<rect x="707.2" y="100.3" class="st11" width="11.6" height="10.3"/>
				<rect x="671.7" y="114.3" class="st16" width="11.6" height="10.3"/>
				<rect x="689.4" y="114.3" class="st11" width="11.6" height="10.3"/>
				<rect x="707.2" y="114.3" class="st11" width="11.6" height="10.3"/>
				<rect x="671.7" y="128.3" class="st11" width="11.6" height="10.3"/>
				<rect x="689.4" y="128.3" class="st11" width="11.6" height="10.3"/>
				<rect x="707.2" y="128.3" class="st16" width="11.6" height="10.3"/>
				<rect x="671.7" y="142.3" class="st11" width="11.6" height="10.3"/>
				<rect x="689.4" y="142.3" class="st11" width="11.6" height="10.3"/>
				<rect x="707.2" y="142.3" class="st11" width="11.6" height="10.3"/>
				<rect x="671.7" y="156.3" class="st16" width="11.6" height="10.3"/>
				<rect x="689.4" y="156.3" class="st11" width="11.6" height="10.3"/>
				<rect x="707.2" y="156.3" class="st11" width="11.6" height="10.3"/>
				<rect x="671.7" y="170.3" class="st11" width="11.6" height="10.3"/>
				<rect x="689.4" y="170.3" class="st11" width="11.6" height="10.3"/>
				<rect x="707.2" y="170.3" class="st11" width="11.6" height="10.3"/>
				<rect x="671.7" y="184.3" class="st11" width="11.6" height="10.3"/>
				<rect x="689.4" y="184.3" class="st11" width="11.6" height="10.3"/>
				<rect x="707.2" y="184.3" class="st16" width="11.6" height="10.3"/>
			</g>
			<g>
				<path class="st27" d="M771,208.3c0,1.7-1.8,3.2-4,3.2h-40.8c-2.2,0-4-1.4-4-3.2v-80.6c0-1.7,1.8-3.2,4-3.2H767
					c2.2,0,4,1.4,4,3.2V208.3z"/>
				<rect x="727.2" y="133.2" class="st11" width="39" height="7.6"/>
				<rect x="727.2" y="143.5" class="st16" width="39" height="7.6"/>
				<rect x="727.2" y="153.9" class="st11" width="39" height="7.6"/>
				<rect x="727.2" y="164.2" class="st11" width="39" height="7.6"/>
				<rect x="727.2" y="174.5" class="st16" width="39" height="7.6"/>
				<rect x="727.2" y="184.8" class="st11" width="39" height="7.6"/>
				<rect x="727.2" y="195.1" class="st11" width="39" height="7.6"/>
			</g>
			<g>
				<path class="st13" d="M673.7,204.6c0,2.1-1.8,3.7-4,3.7H629c-2.2,0-4-1.7-4-3.7v-95.1c0-2.1,1.8-3.7,4-3.7h40.8
					c2.2,0,4,1.7,4,3.7V204.6z"/>
				<rect x="630.5" y="112.3" class="st11" width="9.3" height="14"/>
				<rect x="644.7" y="112.3" class="st16" width="9.3" height="14"/>
				<rect x="658.9" y="112.3" class="st11" width="9.3" height="14"/>
				<rect x="630.5" y="131.2" class="st16" width="9.3" height="14"/>
				<rect x="644.7" y="131.2" class="st11" width="9.3" height="14"/>
				<rect x="658.9" y="131.2" class="st11" width="9.3" height="14"/>
				<rect x="630.5" y="150.1" class="st11" width="9.3" height="14"/>
				<rect x="644.7" y="150.1" class="st11" width="9.3" height="14"/>
				<rect x="658.9" y="150.1" class="st16" width="9.3" height="14"/>
				<rect x="630.5" y="169" class="st11" width="9.3" height="14"/>
				<rect x="644.7" y="169" class="st16" width="9.3" height="14"/>
				<rect x="658.9" y="169" class="st11" width="9.3" height="14"/>
				<rect x="630.5" y="187.8" class="st16" width="9.3" height="14"/>
				<rect x="644.7" y="187.8" class="st11" width="9.3" height="14"/>
				<rect x="658.9" y="187.8" class="st11" width="9.3" height="14"/>
			</g>
		</g>
		<g>
			<g>
				<ellipse class="st25" cx="758.9" cy="457" rx="19.9" ry="5.6"/>
				<g>
					<g>
						<path class="st8" d="M753.9,409.4c0,14.7,0.3,29.5,0.3,44.2c0,4.7,8.1,4.7,8.1,0c0-14.7-0.3-29.5-0.3-44.2
							C762,404.7,753.9,404.7,753.9,409.4L753.9,409.4z"/>
					</g>
					<ellipse class="st28" cx="758" cy="395" rx="28.6" ry="25.5"/>
					<rect x="738.1" y="382.8" class="st19" width="38.1" height="30.3"/>
					<text transform="matrix(1.1216 0 0 1 740.0626 403.9584)" class="st29 st21 st30">60</text>
				</g>
			</g>
			<g>
				<ellipse class="st25" cx="313.2" cy="393.3" rx="83.6" ry="7.7"/>
				<g>
					<line class="st31" x1="361.9" y1="350.8" x2="361.9" y2="391.3"/>
					<line class="st31" x1="260.3" y1="350.8" x2="260.3" y2="391.3"/>
					<path class="st32" d="M383.2,328.9c0,3-3.2,5.5-7.2,5.5H246.3c-3.9,0-7.2-2.4-7.2-5.5v-17.5c0-3,3.2-5.5,7.2-5.5H376
						c3.9,0,7.2,2.4,7.2,5.5V328.9z"/>
					<path class="st33" d="M380.1,327.2c0,2.4-3.1,4.4-6.9,4.4H249c-3.8,0-6.9-2-6.9-4.4V313c0-2.4,3.1-4.4,6.9-4.4h124.3
						c3.8,0,6.9,2,6.9,4.4V327.2z"/>
					<path class="st32" d="M383.2,358.6c0,3-3.2,5.5-7.2,5.5H246.3c-3.9,0-7.2-2.4-7.2-5.5v-17.5c0-3,3.2-5.5,7.2-5.5H376
						c3.9,0,7.2,2.4,7.2,5.5V358.6z"/>
					<path class="st33" d="M380.1,356.9c0,2.4-3.1,4.4-6.9,4.4H249c-3.8,0-6.9-2-6.9-4.4v-14.2c0-2.4,3.1-4.4,6.9-4.4h124.3
						c3.8,0,6.9,2,6.9,4.4V356.9z"/>
					<rect x="304.1" y="312.2" class="st19" width="78.9" height="15.8"/>
					<text transform="matrix(1.1216 0 0 1 306.0108 325.6698)"><tspan x="0" y="0" class="st26 st21 st34">beach </tspan><tspan x="58.5" y="0" class="st26 st21 st35">2 </tspan></text>
					<g>
						<rect x="242.3" y="341.2" class="st19" width="91.5" height="15.9"/>
						<text transform="matrix(1.1216 0 0 1 255.0768 354.6806)"><tspan x="0" y="0" class="st26 st21 st34">moun</tspan><tspan x="53" y="0" class="st26 st21 st34">-</tspan></text>
					</g>
					<g>
						<line class="st36" x1="290.2" y1="320.1" x2="253.7" y2="320.1"/>
						<g>
							<path class="st26" d="M249.2,320.1c2.1-0.7,4.7-1.9,6.3-3.1l-1.3,3.1l1.3,3.1C253.9,322,251.3,320.8,249.2,320.1z"/>
						</g>
					</g>
					<g>
						<line class="st36" x1="368.4" y1="349.2" x2="331.9" y2="349.2"/>
						<g>
							<path class="st26" d="M372.8,349.2c-2.1-0.7-4.7-1.9-6.3-3.1l1.3,3.1l-1.3,3.1C368.2,351,370.7,349.9,372.8,349.2z"/>
						</g>
					</g>
				</g>
			</g>
			<g>
				<ellipse class="st25" cx="54.5" cy="657" rx="25.1" ry="5.6"/>
				<g>
					<g>
						<path class="st26" d="M70.6,657c0-8.9,0-25.6,0-34.5c0-9.6-7.4-16.7-16.2-16.7c-8.9,0-16.2,7.1-16.2,16.7l0,0
							c0,8.9,0,25.6,0,34.5"/>
					</g>
					<g>
						<path class="st10" d="M70.6,624.6v-2.1c0-9.6-7.4-16.7-16.2-16.7c-8.9,0-16.2,7.1-16.2,16.7v1.8
							C48.9,624.3,59.7,624.4,70.6,624.6z"/>
					</g>
					<path class="st10" d="M63.2,635.8c0,0.7-0.7,1.4-1.5,1.4H47c-0.8,0-1.5-0.6-1.5-1.4V630c0-0.7,0.7-1.4,1.5-1.4h14.7
						c0.8,0,1.5,0.6,1.5,1.4V635.8z"/>
					<rect x="44" y="630.7" class="st19" width="20.6" height="6.9"/>
					<text transform="matrix(1.1216 0 0 1 47.8404 634.853)" class="st26 st21 st37">n-80</text>
					<rect x="39" y="641.4" class="st19" width="30.7" height="16.3"/>
					<text transform="matrix(1.1216 0 0 1 48.1978 648.9028)" class="st38 st21 st39">28</text>
				</g>
			</g>
			<g>
				<g>
					<path class="st8" d="M323.8,705c0,14.7,0.3,29.5,0.3,44.2c0,4.7,8.1,4.7,8.1,0c0-14.7-0.3-29.5-0.3-44.2
						C331.9,700.3,323.8,700.3,323.8,705L323.8,705z"/>
				</g>
				<g>
					<polygon class="st40" points="301.1,713 328,669.2 355,713 					"/>
					<rect x="318.9" y="702.9" class="st41" width="18.3" height="3.2"/>
					<path class="st41" d="M334.4,702.9c0,1.5-2.8,2.8-6.3,2.8c-3.5,0-6.3-1.2-6.3-2.8c0-1.5,1.4-3.8,6.3-3.8
						C333,699.1,334.4,701.4,334.4,702.9z"/>
				</g>
				<ellipse class="st25" cx="328.1" cy="752.1" rx="19.9" ry="5.6"/>
			</g>
		</g>
		<g>
			<g>
				<line class="st42" x1="241" y1="206.6" x2="309.5" y2="206.6"/>
				<rect x="247.1" y="206.6" class="st27" width="4.3" height="8.7"/>
				<rect x="260.1" y="206.6" class="st27" width="4.3" height="8.7"/>
				<rect x="273.1" y="206.6" class="st27" width="4.3" height="8.7"/>
				<rect x="286.1" y="206.6" class="st27" width="4.3" height="8.7"/>
				<rect x="299.1" y="206.6" class="st27" width="4.3" height="8.7"/>
			</g>
			<g>
				<line class="st42" x1="319" y1="404.1" x2="387.5" y2="404.1"/>
				<rect x="325.1" y="404.1" class="st27" width="4.3" height="8.7"/>
				<rect x="338.1" y="404.1" class="st27" width="4.3" height="8.7"/>
				<rect x="351.1" y="404.1" class="st27" width="4.3" height="8.7"/>
				<rect x="364.1" y="404.1" class="st27" width="4.3" height="8.7"/>
				<rect x="377.1" y="404.1" class="st27" width="4.3" height="8.7"/>
			</g>
			<g>
				<line class="st42" x1="591.8" y1="604.7" x2="660.3" y2="604.7"/>
				<rect x="597.9" y="604.7" class="st27" width="4.3" height="8.7"/>
				<rect x="610.9" y="604.7" class="st27" width="4.3" height="8.7"/>
				<rect x="623.9" y="604.7" class="st27" width="4.3" height="8.7"/>
				<rect x="636.9" y="604.7" class="st27" width="4.3" height="8.7"/>
				<rect x="649.9" y="604.7" class="st27" width="4.3" height="8.7"/>
			</g>
			<g>
				<line class="st42" x1="459.9" y1="687.6" x2="528.4" y2="687.6"/>
				<rect x="466" y="687.6" class="st27" width="4.3" height="8.7"/>
				<rect x="479" y="687.6" class="st27" width="4.3" height="8.7"/>
				<rect x="492" y="687.6" class="st27" width="4.3" height="8.7"/>
				<rect x="505" y="687.6" class="st27" width="4.3" height="8.7"/>
				<rect x="518" y="687.6" class="st27" width="4.3" height="8.7"/>
			</g>
			<g>
				<line class="st42" x1="493.4" y1="288.8" x2="561.9" y2="288.8"/>
				<rect x="499.5" y="288.8" class="st27" width="4.3" height="8.7"/>
				<rect x="512.5" y="288.8" class="st27" width="4.3" height="8.7"/>
				<rect x="525.5" y="288.8" class="st27" width="4.3" height="8.7"/>
				<rect x="538.5" y="288.8" class="st27" width="4.3" height="8.7"/>
				<rect x="551.5" y="288.8" class="st27" width="4.3" height="8.7"/>
			</g>
		</g>
	</g>
</g>
</svg>
