<?xml version="1.0" encoding="utf-8"?>
<!-- Generator: Adobe Illustrator 19.0.0, SVG Export Plug-In . SVG Version: 6.00 Build 0)  -->
<svg version="1.1" id="OBJECTS" xmlns="http://www.w3.org/2000/svg" xmlns:xlink="http://www.w3.org/1999/xlink" x="0px" y="0px"
	 viewBox="-303 133 352.9 296" style="enable-background:new -303 133 352.9 296;" xml:space="preserve">
<style type="text/css">
	.st0{fill:#002E4F;}
	.st1{fill:#00A4E2;}
	.st2{fill:#E1F3F6;}
	.st3{fill:#008DC4;}
	.st4{fill:#00AFE2;}
	.st5{fill:#006091;}
	.st6{fill:#0076AD;}
	.st7{fill:#00D2FD;}
	.st8{fill:#00396A;}
	.st9{fill:none;stroke:#20C6F0;stroke-width:7.6539;stroke-linecap:round;stroke-miterlimit:10;}
	.st10{fill:#0086CF;}
	.st11{fill:#0089E0;}
	.st12{fill:#CDE5E8;}
	.st13{fill:#F6EE9E;}
	.st14{fill:#F8FDFF;}
	.st15{fill:none;stroke:#DDDD67;stroke-width:0.8679;stroke-miterlimit:10;}
	.st16{fill:none;stroke:#DDDD67;stroke-width:0.755;stroke-miterlimit:10;}
	.st17{fill:#009EE7;}
	.st18{font-family:'ArialMT';}
	.st19{font-size:34.1705px;}
	.st20{fill:#4D99AD;}
	.st21{font-size:21.9435px;}
	.st22{display:none;fill:#68C04D;}
</style>
<g>
	<path class="st0" d="M-29.4,412.6c-2.5,3.2-5.4,5.7-4.8,6.8c0,0,1.3,1,5,1c6.3,0,12.5-0.5,11.5-1.1c-1.4-0.9-5.5-1.2-9.4-2.6
		c-1-0.3,2.1-2.2,1.3-2.5C-27.6,413.6-28.9,413-29.4,412.6z"/>
	<path class="st0" d="M35.6,419.2c0,0,0.8,1.2,4,1.2c5.5,0,11.1-0.7,10.3-1.3c-1.2-0.8-10.8-2.8-10.8-2.8l-2.1-2.7l-3.6,2
		L35.6,419.2z"/>
	<g>
		<path class="st1" d="M18.3,338.9c-3.9,0-6.9-0.8-7.1-0.8c-2-0.6-3.2-2.7-2.7-4.7c0.6-2,2.7-3.2,4.7-2.7c0.1,0,8.7,2.2,13.8-2.1
			c3.4-2.9,4.6-8.3,3.8-16.2l-0.3-2.5l7.7-4.4c1.8-1,4.2-0.4,5.2,1.4c1,1.8,0.4,4.2-1.4,5.2l-3.4,1.9c0.5,9.2-1.7,16-6.7,20.3
			C27.7,338,22.5,338.9,18.3,338.9z"/>
	</g>
	<g>
		<path class="st2" d="M31.5,317.6c-0.1,5.6-1.6,9.6-4.4,12c-5.5,4.7-14.9,2.3-15.1,2.3c-2.2-0.6-4.5,0.7-5.1,3
			c-0.6,2.2,0.7,4.5,2.9,5.2c0.3,0.1,3.5,1.7,7.8,1.5c16.3-0.6,26.1-14.6,26.3-22.8L31.5,317.6z"/>
	</g>
	<g>
		<path class="st3" d="M9.1,298.2c-1.5-0.7-2.9-1.4-4.3-2.1c-13.5,7.7-30.7,17.5-31.1,17.9c0,0,8.6,13.6,9.1,14.2
			c0.4,0.4,21.6-14.9,36.9-25.9C16.2,300.8,12.6,299.7,9.1,298.2z"/>
		<path class="st4" d="M9.4,297.8c3.5,1.6,7.2,2.7,10.8,4.1c8.4-6.1,14.9-10.8,14.9-10.8l-14.4-4c0,0-6.9,3.9-15.4,8.8
			C6.6,296.5,8,297.2,9.4,297.8z"/>
		<polygon class="st5" points="-15.4,279.9 -7,302.8 9.6,308.9 -11.4,270.6 		"/>
		<polygon class="st5" points="10.5,314.5 -1.8,314.5 9.1,333.6 25.8,340.6 		"/>
		<path class="st6" d="M25.8,340.6L16,323.9l-41.8,24.5l-8.2-14l5.2-83.3l18.8-11l33.8,57.6l11.4-6.7l9.5,16.1l-11.4,6.7l9.8,16.7
			L25.8,340.6z M-12.1,275.9l-1.1,0.6l-2.9,44.5l22.6-13.3L-12.1,275.9z"/>
		<polygon class="st3" points="-47.8,330.6 -34,334.4 -25.7,348.4 -40.4,344.7 		"/>
		<polygon class="st4" points="-47.8,330.6 -34,334.4 -28.8,251.1 -41.5,248.1 		"/>
		<polygon class="st7" points="-41.5,248.1 -28.8,251.1 -10,240.1 -22.9,236.3 		"/>
	</g>
	<path class="st0" d="M-13.6,363.8c0,0,2,22,2,29.7c0,0-16,12.5-20,19c1.7,1.3,5,3,7.2,2.9C-13.7,405.2-2,397.9-2,397.9
		s5.1-14.7,6.6-27.1L-13.6,363.8z"/>
	<path class="st2" d="M-2.2,364.8c3.6,0,7.3-0.6,10.4-2.3c-1-4.4,1.2-17.4,4-24.3c0,0,2.2-4.8,0.7-6.3c-5.7-5.5-10.6-5-12.1-5.1
		c-5.2,4.4-15,17.5-14.6,34.7C-11.1,364.4-5.7,364.8-2.2,364.8z"/>
	<path class="st8" d="M33.2,416.3c2.1-0.6,4.1-1.5,5.4-3.3c-6.2-10-28.9-46.9-30.1-49.8c0-0.1-0.1-0.2-0.1-0.2
		c-3.3,1.8-7.3,2.4-11.2,2.3c-3.4-0.1-8.2-0.6-11-3.1c0,0.2,0,0.4,0,0.5c0.5,9.6,32.4,41.7,45,54C31.9,416.6,32.6,416.4,33.2,416.3z
		"/>
	<g>
		<path class="st1" d="M-32.7,354.8c-0.9,0-1.7-0.1-2.6-0.4c-1.7-0.6-3.9-2-5-5.5c-0.6-2,0.6-4.2,2.6-4.8s4.2,0.6,4.8,2.6
			c0.1,0.2,0.1,0.4,0.2,0.5c0.4,0,1.9-0.1,5.6-2.3c3.3-1.9,7.2-4.8,11-7.6c6.4-4.7,12.4-9.2,17.4-10.7c2-0.6,4.2,0.5,4.8,2.5
			c0.6,2-0.5,4.2-2.5,4.8c-3.8,1.2-9.5,5.5-15.1,9.6C-19.8,349.5-27,354.8-32.7,354.8z"/>
	</g>
	<g>
		<path class="st1" d="M-25.6,352c-0.5-2.3-1-4.7-2.4-6.6c-3.1,1.7-4.4,1.8-4.8,1.8c0-0.1-0.1-0.2-0.2-0.5c-0.6-2-2.7-3.2-4.8-2.6
			c-2,0.6-3.2,2.7-2.6,4.8c1.1,3.6,3.3,5,5,5.5c0.8,0.3,1.7,0.4,2.6,0.4c2.2,0,4.7-0.8,7.3-2.1C-25.5,352.5-25.5,352.2-25.6,352z"/>
		<path class="st2" d="M6,329.1c-0.6-2-2.8-3.1-4.8-2.5c-5,1.6-11,6-17.4,10.7c-3.8,2.8-7.7,5.7-11,7.6c-0.2,0.1-0.3,0.2-0.4,0.3
			c1.4,1.9,3.9,11.2,4,11.4c4.1-2.1,23.5-16.9,27.7-21.4C5.6,333.6,6.6,331.1,6,329.1z"/>
	</g>
	<path class="st9" d="M-42.9,344.7"/>
	<g>
		<path class="st1" d="M-38.1,351.8c-0.2,0-0.5-0.1-0.7-0.2c-3-2.1-4.6-6.3-4.6-6.5c-0.2-0.6,0.1-1.2,0.7-1.4s1.2,0.1,1.4,0.7l0,0
			c0,0,1.4,3.7,3.8,5.4c0.5,0.4,0.6,1.1,0.3,1.6C-37.4,351.6-37.8,351.8-38.1,351.8z"/>
	</g>
	<g>
		<path class="st1" d="M-38.1,349c-0.4,0-0.7-0.2-0.9-0.5c-1.4-2-2.6-6.9-2.7-7.4c-0.1-0.6,0.2-1.2,0.8-1.4c0.6-0.1,1.2,0.2,1.4,0.8
			c0.3,1.4,1.4,5.2,2.4,6.6c0.4,0.5,0.2,1.2-0.3,1.6C-37.7,348.9-37.9,349-38.1,349z"/>
	</g>
	<g>
		<path class="st1" d="M-36.6,348.4c-0.4,0-0.9-0.3-1-0.7c-1-2.5-1.4-7.8-1.5-8.1c0-0.6,0.4-1.2,1-1.2c0.6-0.1,1.2,0.4,1.2,1
			c0.1,1.4,0.5,5.5,1.3,7.4c0.2,0.6,0,1.2-0.6,1.5C-36.3,348.3-36.4,348.4-36.6,348.4z"/>
	</g>
	<g>
		<path class="st1" d="M-34.9,347.8c-0.5,0-1-0.3-1.1-0.8c-0.7-2.8-0.1-5.6,0-5.7c0.1-0.6,0.8-1,1.4-0.8c0.6,0.1,1,0.7,0.8,1.4
			c0,0.1-0.5,2.4,0,4.6c0.2,0.6-0.2,1.2-0.8,1.4C-34.7,347.8-34.8,347.8-34.9,347.8z"/>
	</g>
	<g>
		<path class="st1" d="M10.4,335.2c-0.5,0-1-0.1-1.5-0.3c-1.8-0.8-2.6-3-1.7-4.8c0.9-1.9,2.5-3.8,2.7-4c1.3-1.5,3.6-1.7,5.1-0.4
			c1.5,1.3,1.7,3.6,0.4,5.1l0,0c-0.5,0.5-1.3,1.7-1.7,2.5C13,334.4,11.7,335.2,10.4,335.2z"/>
	</g>
	<g>
		<path class="st10" d="M10.9,333.3c0.4,0.5,0.9,0.9,1.3,1.3c0.6-0.4,1.1-0.9,1.4-1.5c0.4-0.8,1.2-1.9,1.7-2.5
			c1.3-1.5,1.1-3.8-0.4-5.1s-3.8-1.1-5.1,0.4c-0.1,0.1-0.4,0.4-0.7,0.9C9.1,329.2,9.3,331.6,10.9,333.3z"/>
	</g>
	<g>
		<path class="st1" d="M22.7,329.4c-1.4,3.5-5.4,5.1-8.9,3.7l0,0c-3.5-1.4-5.1-5.4-3.7-8.9l1.8-4.4c1.4-3.5,5.4-5.1,8.9-3.7l0,0
			c3.5,1.4,5.1,5.4,3.7,8.9L22.7,329.4z"/>
	</g>
	<path class="st8" d="M10.9,323.7c-0.6,2.3-3.9,1.6-5.2,0.4c-1.7-1.7-2.8-6.4,1.1-6.2c-2.8-4.2,6.6-8.7,7.6-3.9
		c0.7-1.2,1.5-2.4,3.1-2.5c1.2-0.1,3.2,0.8,3.1,2.3c1.8-1.4,4.3-1.3,6,0.1c0.6,0.4,1.6,1.4,1.1,2.2c-0.3,0.4-1.7,0.5-2.2,0.7
		c0.8-0.4,4.2,0.4,3.5,1.8c-0.3,0.7-1.9,0.1-2.4-0.1c0,0,0,0.2,0,0.1c1.8,1,2.5,2,2.3,4.2c-0.1,1-0.6,3-1.8,3.1
		c-0.6,0.1-1.3-0.3-1.3-1c1.5,1.5-0.6,5.5-2.5,3.5c-0.7-0.8-0.4-2.1,0.3-2.7c-1.1-0.6-3.5-4-1.8-5c-0.8,0-4.5-1.2-3.4-2.3
		c0.3,1.2-1.2,2.9-2.5,2.2c0.8,1.7-1.5,2.9-2.9,3c0.8,1.1-1.8,2.3-2.6,0.8L10.9,323.7z"/>
</g>
<g>
	<path class="st11" d="M-117.1,310.1c0,0-2.2-8.4,8.7-10.4l-0.8,10.1L-117.1,310.1z"/>
	<g>
		<path class="st12" d="M-160.5,331.2c-2.4,0-4.6-0.5-6.6-1.4c-9.8-4.7-10.9-18.6-11-19.2c-0.1-2.1,1.4-3.9,3.5-4.1
			c2.1-0.1,3.9,1.4,4.1,3.5c0.2,2.8,1.8,10.6,6.6,12.9c4,1.9,10.1,0,17.8-5.5c1.7-1.2,4.1-0.8,5.3,0.9s0.8,4.1-0.9,5.3
			C-148.7,328.6-155.1,331.2-160.5,331.2z"/>
	</g>
	<g>
		<g>
			<path class="st4" d="M-140.2,338.4c1.1-2.8,2.1-5.6,3.2-8.4c-0.8-0.1-1.6-0.2-2.3-0.3c-3.7-0.7-6.9-2.2-9.4-4.5
				c-2.6-2.3-4.6-5.2-6-8.8c-1.4-3.5-2.2-7.6-2.4-12.1s0.1-9.3,1.1-14.3c1-5.1,2.4-9.7,4.3-13.8c1.9-4.1,4.1-7.5,6.7-10.3
				c2.6-2.8,5.5-4.8,8.8-6c3.2-1.2,6.7-1.4,10.4-0.7c2.9,0.6,5.5,1.7,7.8,3.3c1.1-2.2,2.3-4.3,3.4-6.4c1.3-2.5,2.5-5.1,3.7-7.6
				c0.5-1.1,0.9-2.2,1.4-3.4c-3.8-2.1-8-3.7-12.7-4.6c-6.6-1.3-12.9-1-18.7,0.7s-11.1,4.7-15.8,8.8c-4.7,4.1-8.7,9.2-11.9,15.4
				c-3.3,6.2-5.6,13.1-7.1,20.7c-1.5,7.6-1.8,14.9-1.1,21.9c0.8,7,2.5,13.2,5.4,18.7c2.8,5.5,6.7,10.2,11.5,14
				c4.5,3.5,9.7,5.9,15.8,7.3C-142.8,344.9-141.4,341.6-140.2,338.4z"/>
			<path class="st5" d="M-88.3,280.8c-0.8-7-2.5-13.2-5.4-18.7c-2.8-5.5-6.7-10.2-11.4-14c-1.3-1-2.6-1.9-4.1-2.8
				c-0.4,1.1-0.9,2.3-1.4,3.4c-1.2,2.6-2.4,5.1-3.7,7.6c-1.1,2.1-2.3,4.3-3.4,6.5c0.4,0.3,0.8,0.6,1.1,0.9c2.6,2.3,4.6,5.2,6,8.8
				c1.5,3.6,2.3,7.6,2.5,12c0.2,4.5-0.1,9.3-1.1,14.4c-1,5-2.4,9.6-4.3,13.7c-1.9,4.1-4.1,7.6-6.8,10.3c-2.7,2.8-5.6,4.8-8.9,6
				c-2.4,0.9-4.9,1.3-7.5,1.1c-1.3,3-2.3,6.1-3.5,9.2c-1.1,3-2.4,6-3.8,8.9c0.3,0.1,0.6,0.1,0.9,0.2c6.6,1.3,12.9,1,18.7-0.7
				c5.8-1.7,11.1-4.7,15.8-8.8s8.7-9.2,11.9-15.4c3.3-6.2,5.6-13.1,7.1-20.7C-87.9,295.1-87.6,287.8-88.3,280.8z"/>
		</g>
		<g>
			<path class="st6" d="M-131.2,352.3c-6.6-1.3-12.3-3.8-17.1-7.6c-4.8-3.8-8.6-8.4-11.4-14c-2.8-5.5-4.6-11.8-5.4-18.7
				c-0.8-7-0.4-14.2,1.1-21.9c1.5-7.6,3.8-14.5,7.1-20.7c3.3-6.2,7.2-11.3,11.9-15.4c4.7-4.1,9.9-7,15.8-8.8
				c5.8-1.7,12.1-2,18.7-0.7c6.6,1.3,12.3,3.8,17.1,7.6c4.8,3.8,8.6,8.4,11.5,14c2.8,5.5,4.6,11.8,5.4,18.7c0.8,7,0.4,14.2-1.1,21.9
				c-1.5,7.6-3.8,14.5-7.1,20.7s-7.2,11.3-11.9,15.4c-4.7,4.1-9.9,7-15.8,8.8C-118.3,353.3-124.6,353.6-131.2,352.3z M-127.6,333.6
				c3.6,0.7,7,0.4,10.3-0.8c3.2-1.2,6.2-3.2,8.9-6c2.7-2.8,4.9-6.2,6.8-10.3c1.9-4.1,3.3-8.7,4.3-13.7c1-5.1,1.3-9.9,1.1-14.4
				s-1.1-8.5-2.5-12c-1.5-3.6-3.5-6.5-6-8.8c-2.6-2.3-5.7-3.8-9.3-4.5c-3.7-0.7-7.2-0.5-10.4,0.7c-3.2,1.2-6.2,3.2-8.8,6
				c-2.6,2.8-4.8,6.2-6.7,10.3s-3.3,8.7-4.3,13.8c-1,5-1.3,9.8-1.1,14.3s1,8.5,2.4,12.1c1.4,3.5,3.4,6.5,6,8.8
				C-134.5,331.4-131.3,332.9-127.6,333.6z"/>
		</g>
	</g>
	<g>
		<path class="st8" d="M-63.7,296.1l0.3,14.1c0,0-4,3.6-7.6,0l1.3-15.8L-63.7,296.1z"/>
		<path class="st0" d="M-80.2,408.3c-0.2-0.2-1.8-0.9-2-1.1c-0.8,1.3-1.4,2-2.4,3c2.5,2.2,1.8,4.8,1.8,4.8s-1.8,1.5-2.4,1.8
			c-2.2,1.1-6.2,2.6-6.2,2.6l10.2,0.8l7.5-7.7C-76.5,411-78.5,409.7-80.2,408.3z"/>
		<path class="st0" d="M-120.1,408.9c-1.6-0.3-3.7,1-5,0c-0.3,2.8-0.2,4.4-0.2,4.4l-15,6.2h19.2c0.2-2-0.2-4,0.1-5.9
			C-120.9,412.6-120.2,409.8-120.1,408.9z"/>
		<path class="st12" d="M-102.6,340.6l-17,32.3c0,0,6.9,5.8,13.7,7.8l12.7-38.1L-102.6,340.6z"/>
		<path class="st0" d="M-83.9,411.1c1-1,1.9-2.3,2.7-3.6c-4.4-3.8-6.5-7.7-12.5-14.3c-2.5-2.8,4.1-18.6,5.7-21.3
			c2.9-4.8,3.3-8.2,5.5-16.4l-16.6,6.2c-4,14.2-8.6,28.3-3.9,35.1c4.9,7.1,13.5,12.9,17.7,15.8C-85.2,412.6-84.1,411-83.9,411.1z"/>
		<g>
			<path class="st1" d="M-111.9,308.4c-0.2,0-0.5-0.1-0.7-0.2c-0.5-0.4-0.6-1.1-0.3-1.6c1.3-1.9,1.6-3.4,1.6-3.4
				c0.1-0.6,0.7-1,1.3-0.9c0.6,0.1,1,0.7,0.9,1.3c0,0.1-0.4,2-2,4.3C-111.2,308.2-111.5,308.4-111.9,308.4z"/>
		</g>
		<path class="st13" d="M-83.8,358.9c4.9-13.6,9.2-34.9,10.7-43.4c-0.9-0.4-1.7-0.6-2.4-0.8c-1.5-0.4-3.2-0.9-4.7-0.4
			c-0.8,0.2-1.4,0.6-2.1,1c-0.6,1.8-0.9,3.4-0.9,3.4s-10.6,20.3-17.5,34.1C-94.8,354.2-89.1,356.2-83.8,358.9z"/>
		<path class="st8" d="M-100.9,353.3L-100.9,353.3c-0.6,1.2-1.2,2.4-1.7,3.5l0,0c-1.4,2.4-2.8,4.6-4.2,6.8
			c-13.7,20.6-18.8,37-19.7,44.8c1.3,1,6.2,1.6,7.9,1.9c2.5-12.9,9.1-21.1,20.8-30.8c3.9-3.3,6.9-7.4,9.5-10.8
			c1.5-2,3.1-5.3,4.5-9.3C-89.2,356.6-95,354.6-100.9,353.3z"/>
		<g>
			<path class="st1" d="M-114.1,359c-1.6,0-3.1-1-3.6-2.6c-0.7-2,0.4-4.2,2.4-4.9c4.6-1.6,11.8-8,16.6-14.8
				c9.7-13.8,16.6-21.5,16.9-21.8c1.4-1.6,3.8-1.7,5.4-0.3c1.6,1.4,1.7,3.8,0.3,5.4l0,0c-0.1,0.1-6.9,7.7-16.3,21.1
				c-4.7,6.7-13.1,15.1-20.3,17.6C-113.3,358.9-113.7,359-114.1,359z"/>
		</g>
		<g>
			<path class="st1" d="M-75.7,316.8c-0.1,0-0.2,0-0.3,0c-2-0.1-3.5-1.9-3.3-3.9c0.2-2.1,1-4.4,1-4.7c0.6-1.9,2.7-2.9,4.6-2.2
				c1.9,0.6,2.9,2.7,2.2,4.6c-0.2,0.7-0.6,2-0.7,2.9C-72.2,315.4-73.8,316.8-75.7,316.8z"/>
		</g>
		<g>
			<path class="st10" d="M-74.6,313c0.6,0.7,1.3,1.4,2.1,2c0.3-0.5,0.4-1,0.5-1.5c0.1-0.9,0.4-2.2,0.7-2.9c0.6-1.9-0.4-3.9-2.2-4.6
				c-1.6-0.5-3.2,0.1-4.1,1.3C-77.5,309.4-75.8,311.7-74.6,313z"/>
		</g>
		<g>
			<path class="st1" d="M-65.4,305.3c-0.1,3.8-3.2,6.7-7,6.7l0,0c-3.8-0.1-6.7-3.2-6.7-7l0.1-4.7c0.1-3.8,3.2-6.7,7-6.7l0,0
				c3.8,0.1,6.7,3.2,6.7,7L-65.4,305.3z"/>
		</g>
		<g>
			<path class="st1" d="M-119.5,357.9c-1.6,0-3.4-0.4-5.4-1.3c-0.6-0.2-0.8-0.9-0.6-1.5c0.2-0.6,0.9-0.8,1.5-0.6
				c3,1.2,5.3,1.4,6.8,0.5c0.5-0.3,1.2-0.2,1.5,0.4c0.3,0.5,0.2,1.2-0.4,1.5C-117,357.6-118.2,357.9-119.5,357.9z"/>
		</g>
		<g>
			<path class="st1" d="M-118.2,359.6c-1.8,0-3.2-0.3-4.9-0.7l-0.5-0.1c-0.6-0.1-1-0.8-0.8-1.4c0.1-0.6,0.8-1,1.4-0.8l0.5,0.1
				c2.7,0.7,4.5,1.1,8.5,0.1c0.6-0.2,1.2,0.2,1.4,0.8c0.2,0.6-0.2,1.2-0.8,1.4C-115.4,359.4-116.9,359.6-118.2,359.6z"/>
		</g>
		<g>
			<path class="st1" d="M-119.6,355.7c-3.5,0-6-2.2-6.1-2.3c-0.5-0.4-0.5-1.1-0.1-1.6s1.1-0.5,1.6-0.1c0.1,0.1,2.7,2.4,6.2,1.5
				c0.6-0.2,1.2,0.2,1.4,0.8c0.2,0.6-0.2,1.2-0.8,1.4C-118.2,355.6-118.9,355.7-119.6,355.7z"/>
		</g>
		<g>
			<path class="st1" d="M-117.3,354.5h-0.1c-3.8-0.4-5.4-3.2-5.5-3.3c-0.3-0.5-0.1-1.2,0.4-1.5c0.5-0.3,1.2-0.1,1.5,0.4
				c0.1,0.1,1.1,1.9,3.7,2.2c0.6,0.1,1.1,0.6,1,1.2C-116.2,354.1-116.7,354.5-117.3,354.5z"/>
		</g>
		<g>
			<path class="st1" d="M-103.8,310c-0.1,0-0.1,0-0.2,0c-1.9-0.3-7-1.1-8.1-1.1c-0.6,0-1.1-0.5-1.1-1.1s0.5-1.1,1.1-1.1
				c1.6,0,7.8,1,8.5,1.1c0.6,0.1,1,0.7,0.9,1.3C-102.8,309.6-103.3,310-103.8,310z"/>
		</g>
		<g>
			<path class="st1" d="M-104.5,312.4c-0.1,0-0.2,0-0.3,0s-5.4-1.5-7.9-1.6c-0.6,0-1.1-0.6-1.1-1.2c0-0.6,0.6-1.1,1.2-1.1
				c2.7,0.2,8.1,1.6,8.4,1.7c0.6,0.2,1,0.8,0.8,1.4C-103.6,312.1-104,312.4-104.5,312.4z"/>
		</g>
		<g>
			<path class="st1" d="M-105.1,314.9c-0.1,0-0.2,0-0.3-0.1c-5.1-1.6-6.3-1.7-7-1.8c-0.3,0-0.6,0-0.9-0.1c-0.6-0.2-1-0.8-0.8-1.4
				c0.2-0.6,0.8-1,1.4-0.8c0.2,0,0.3,0.1,0.5,0.1c0.8,0.1,2.2,0.2,7.5,1.9c0.6,0.2,0.9,0.8,0.7,1.4
				C-104.1,314.6-104.6,314.9-105.1,314.9z"/>
		</g>
		<g>
			<path class="st1" d="M-107.3,316.7L-107.3,316.7c-5.2-0.4-5.4-3.1-5.4-3.4l2.3-0.1c0,0,0,0,0-0.1c0,0,0.2,1.1,3.2,1.3
				c0.6,0,1.1,0.6,1,1.2C-106.2,316.2-106.7,316.7-107.3,316.7z"/>
		</g>
		<path class="st1" d="M-111.5,315.3c0,0-1-0.5-2.5-0.5c-1.3,0-3-2.2-3-4.4c0,0-0.6-6.6,6.4-3.6L-111.5,315.3z"/>
		<path class="st12" d="M-89.4,335.1l-9.8,48.4c0,0,15.2,3.7,24.6-1.7l2.4-67.3C-72.3,314.5-82.8,310.8-89.4,335.1z"/>
		<path class="st2" d="M-87.2,361.7l9.4-0.5c0,0,0.2,14.4-5.4,13.8C-83.2,375.1-90.9,376.7-87.2,361.7z"/>
		<path class="st2" d="M-75.3,313.3c-1-0.9-2.4-1.4-3.8-1.4c-1.6,0-3.1,0.7-4.2,1.9c-0.3,0.3-7.2,8-17,22c-0.6,0.9-1.4,1.8-2.1,2.8
			l-1,1.2l1.1,1.1c1.2,1.2,2.4,2.4,3.6,3.6c0.6,0.6,1.3,1.3,1.9,1.9l1.4,1.4l1.3-1.5c1.1-1.3,2.2-2.7,3.1-4
			c9.4-13.3,16.1-20.9,16.2-20.9C-72.8,319-73,315.4-75.3,313.3z"/>
		
			<rect x="-104.8" y="339.1" transform="matrix(-0.7439 -0.6683 0.6683 -0.7439 -399.6332 530.7446)" class="st14" width="13.3" height="5.7"/>
		<path class="st8" d="M-85.8,308l8.7,3.4c0,0,3.7-17.9,1-20.6C-76.2,290.8-85.8,289.8-85.8,308z"/>
		<path class="st8" d="M-75.7,293.9c0.3,0.5,7,4.9,12.3,3.7c0,0-0.9-7.9-13.2-6.8L-75.7,293.9z"/>
		<circle class="st15" cx="-74.2" cy="302.3" r="3.8"/>
		<circle class="st16" cx="-65.3" cy="303.1" r="3.3"/>
		<path class="st15" d="M-70.5,302.3c0,0,1.2-0.5,2,0.3"/>
	</g>
	<g>
		<g>
			<path class="st10" d="M-180,308.9c-0.1,0-0.2,0-0.3,0c-2-0.1-3.5-1.9-3.3-3.9c0.2-2.1,1-4.4,1-4.7c0.6-1.9,2.7-2.9,4.6-2.2
				c1.9,0.6,2.9,2.7,2.2,4.6c-0.2,0.7-0.6,2-0.7,2.9C-176.5,307.5-178.1,308.9-180,308.9z"/>
		</g>
		<g>
			<path class="st0" d="M-182.1,408.9c6,2.8,10.9,2.7,11.3,2.8c3.9-6.9,15.6-25.7,4.9-41l-15.1-8.1
				C-181,362.5-165.9,378.2-182.1,408.9z"/>
			<path class="st0" d="M-174.3,415c0,0,1.4-2.8,2.5-4.7c-0.8-0.1-4.5-0.2-6-0.8c-1.4,2.9-4.5,7.1-6.6,10h20.3L-174.3,415z"/>
			<path class="st8" d="M-149.2,371.5c-2.5-4.9-20.8-19.6-22.5-28.1c-0.1-0.7-0.3-1.5-0.4-2.3c-2.9,1.6-6.8,2-9.8,2.1
				c-3.4,0.2-5.5,0.4-8.8-1.2c0.3,5.3-0.6,10.3,2.5,15.6c6.1,10.6,26.3,19.6,28.5,23.1c4.4,6.9,6,21.8,7.5,30.9
				c2.4,0,8-0.1,10.3-0.9C-142.6,406-141.3,386.8-149.2,371.5z"/>
			<path class="st0" d="M-142.9,414.2c0,0-0.7-2.7-0.9-3.9c-2.3,0.8-3.7,0-6.1,0c0.4,2.3,0.1,6.5,0.3,9h19.2L-142.9,414.2z"/>
			<path class="st12" d="M-181.7,346c2.9-0.1,9.1-0.9,11.5-3.4c-0.5-4-2.3-10.5-1.7-15.7c2.1-17.6-6.5-22.9-6.5-22.9s-4-2.8-7.2,0.5
				c-4.8,5-9.6,19.1-9.1,39.9C-191.3,346.2-185.2,346.1-181.7,346z"/>
		</g>
		<g>
			<path class="st1" d="M-137.6,351.5c-0.3,0-0.6,0-0.9-0.1c-13.9-3.2-25.6-11.5-34-24c-6.3-9.4-8.4-17.8-8.5-18.1
				c-0.5-2,0.7-4.1,2.8-4.6c2-0.5,4.1,0.7,4.6,2.8c0,0.2,2,7.7,7.6,16c7.3,10.9,17.2,17.8,29.2,20.6c2.1,0.5,3.3,2.5,2.9,4.6
				C-134.3,350.4-135.9,351.5-137.6,351.5z"/>
		</g>
		<path class="st2" d="M-146,340.1c-7.6-3.6-14.1-9.4-19.3-17.1c-5.5-8.2-7.5-15.7-7.5-15.8c-0.5-2-2.3-3.4-4.4-3.4
			c-0.4,0-0.7,0-1.1,0.1c-1.2,0.3-2.1,1-2.8,2.1c-0.6,1-0.8,2.2-0.5,3.4v0.1c0.6,2.6,3,11.6,8.6,20.1c6.7,10.1,15.9,17.6,26.4,21.8
			c0.1,0,0.2,0,0.3,0s0.3,0,0.4-0.1c0.2-0.1,0.3-0.3,0.3-0.6v-10.1C-145.6,340.4-145.8,340.2-146,340.1z"/>
		<g>
			<path class="st1" d="M-134.8,351.8c-1.2,0-2.5-0.1-3.9-0.4c-0.6-0.1-1-0.7-0.9-1.3s0.7-1,1.3-0.9c3.4,0.7,6.1,0.4,8.3-0.7
				c0.5-0.3,1.2-0.1,1.5,0.5c0.3,0.5,0.1,1.2-0.5,1.5C-130.5,351.4-132.5,351.8-134.8,351.8z"/>
		</g>
		<g>
			<path class="st1" d="M-134.6,349.3c-0.5,0-1.1,0-1.6-0.1c-0.6-0.1-1-0.7-1-1.3c0.1-0.6,0.7-1,1.3-1c3.6,0.5,6.9-1.3,7-1.4
				c0.5-0.3,1.2-0.1,1.5,0.4s0.1,1.2-0.4,1.5C-128,347.6-130.9,349.3-134.6,349.3z"/>
		</g>
		<g>
			<path class="st1" d="M-135.6,347.1c-0.2,0-0.4,0-0.5,0c-0.6,0-1.1-0.6-1.1-1.2c0-0.6,0.6-1.1,1.2-1.1c2.7,0.2,4.1-1.5,4.1-1.5
				c0.4-0.5,1.1-0.6,1.6-0.2s0.6,1.1,0.2,1.6C-130.2,344.9-132.1,347.1-135.6,347.1z"/>
		</g>
		<g>
			<path class="st1" d="M-139.5,345.2c-0.6,0-1.1-0.5-1.1-1.1c0-0.6,0.5-1.1,1.1-1.1c0.1,0,2.3-0.1,3.6-1.9c0.4-0.5,1.1-0.6,1.6-0.3
				c0.5,0.4,0.6,1.1,0.3,1.6C-136,345.2-139.3,345.2-139.5,345.2z"/>
		</g>
		<g>
			<path class="st1" d="M-143.2,319.8c-0.4,0-0.7-0.2-0.9-0.5c-1.7-2.3-2-4.3-2-4.3c-0.1-0.6,0.3-1.2,0.9-1.3
				c0.6-0.1,1.2,0.3,1.3,0.9c0,0,0.3,1.5,1.6,3.4c0.4,0.5,0.2,1.2-0.3,1.6C-142.7,319.7-142.9,319.8-143.2,319.8z"/>
		</g>
		<g>
			<path class="st1" d="M-142.9,320.3c-0.1,0-0.1,0-0.2,0c-2.5-0.5-7.3-0.5-7.4-0.5c-0.6,0-1.1-0.5-1.1-1.1c0-0.6,0.5-1.1,1.1-1.1
				c0.2,0,5.1,0,7.8,0.5c0.6,0.1,1,0.7,0.9,1.3C-141.9,319.9-142.4,320.3-142.9,320.3z"/>
		</g>
		<g>
			<path class="st1" d="M-151.2,322.6c-0.6,0-1-0.4-1.1-1s0.4-1.2,1-1.3c0.7-0.1,7-0.9,9.1-0.5c0.6,0.1,1,0.7,0.9,1.3
				s-0.7,1-1.3,0.9c-1.3-0.2-5.8,0.2-8.4,0.5C-151.1,322.6-151.1,322.6-151.2,322.6z"/>
		</g>
		<g>
			<path class="st1" d="M-149.7,325.2c-0.5,0-1-0.4-1.1-0.9c-0.1-0.6,0.3-1.2,0.9-1.3c2.7-0.5,3.5-0.8,4.8-1.2
				c0.6-0.2,1.4-0.4,2.5-0.8c0.6-0.2,1.2,0.2,1.4,0.8c0.2,0.6-0.2,1.2-0.8,1.4c-1.1,0.3-1.8,0.6-2.5,0.8c-1.4,0.4-2.2,0.7-5,1.3
				C-149.6,325.2-149.6,325.2-149.7,325.2z"/>
		</g>
		<g>
			<path class="st1" d="M-147.3,327c-0.5,0-1-0.4-1.1-0.9c-0.1-0.6,0.3-1.2,0.9-1.3c3.6-0.6,4.4-2,4.4-2c0.2-0.6,0.8-0.9,1.4-0.7
				c0.6,0.2,0.9,0.8,0.7,1.4c-0.1,0.4-1.1,2.7-6.1,3.5C-147.1,327-147.2,327-147.3,327z"/>
		</g>
		<path class="st1" d="M-142.9,325.6l-0.9-9.2c0,0,4,0.3,4,4.5C-139.8,322.3-140.2,323.9-142.9,325.6z"/>
		<g>
			<path class="st1" d="M-168.3,295.7c1,3.8-1.3,7.8-5.1,8.8l0,0c-3.8,1-7.8-1.3-8.8-5.1l-1.3-4.8c-1-3.8,1.3-7.8,5.1-8.8l0,0
				c3.8-1,7.8,1.3,8.8,5.1L-168.3,295.7z"/>
		</g>
		<g>
			<path class="st8" d="M-168.9,293.2c-0.5,1.5-1.3,3-2.5,4.1c-2.9,2.5-7.3,3.2-10.9,1.7l0.1,0.5c1,3.8,5,6.1,8.8,5.1s6.1-5,5.1-8.8
				L-168.9,293.2z"/>
		</g>
		<path class="st8" d="M-182.2,299.1c-2.7-1.7-5.6-8.3-1.4-9.8c2.6-0.9,1.6,7.2,1.6,9.5L-182.2,299.1z"/>
		<path class="st8" d="M-184.4,289.9c-3.3-2.4,0.8-9.1,8.9-9.1c5,0,5,3.8,1.5,5.9c-2.9,1.7-7.3,0.7-9.5,3.6L-184.4,289.9z"/>
		<path class="st8" d="M-168.9,294.6c-1.1-1.7-3.4-5.2-4.3-7.2c-0.6-1.3-1.3-3.4,1.2-1.9c2.1,1.3,3.3,5.8,3.1,8V294.6z"/>
	</g>
</g>
<g>
	<g>
		<path class="st5" d="M-226,310.6c-1.2,1.1-2.6,2.2-3.7,3.5l-16.2,33.9l12.1-15.6l12.8-26.5C-222.6,307.5-224.3,309.1-226,310.6z"
			/>
		<path class="st5" d="M-235.6,305.1c1.2-1.6,2.3-3.5,3.7-5.2l-28.5-13.9l-27,2.7l47.3,21.8C-238.5,308.8-237,307-235.6,305.1z"/>
		<path class="st4" d="M-231.5,300.1c-1.5,1.9-2.7,4.1-4.2,5.9c-1.3,1.6-2.6,3.2-3.9,4.7l21.5,9.9l7.8-10.2L-231.5,300.1z"/>
		<path class="st6" d="M-263.9,339.5l8.3-17.4l-43.6-20.9l7-14.6l71.9-42.4l19.6,9.4l-28.8,60.3l11.9,5.7l-8.1,16.9l-11.9-5.7
			l-8.3,17.4L-263.9,339.5z M-231.6,271.9l-1.1-0.5l-38.5,22.5l23.6,11.3L-231.6,271.9z"/>
		<polygon class="st5" points="-217.6,319.5 -210.4,310.4 -216.1,323.1 -226,336.9 		"/>
		<path class="st5" d="M-220.4,305.4l28.4-62.2l-8.6,10.3l-28.8,60.3C-228.7,313-220.9,305.9-220.4,305.4z"/>
		<polygon class="st17" points="-292.2,286.5 -279.4,275.4 -209.1,235 -220.3,244.2 		"/>
		<polygon class="st7" points="-220.3,244.2 -200.7,253.6 -192.1,243.2 -209.1,235 		"/>
	</g>
	<path class="st1" d="M-244.4,289.6c-2.4-1.7-4.1-1-5.2-0.8c-1.3,0.2-2.2-0.5-2.2-0.5c-0.5-0.3-1.2-0.2-1.6,0.3
		c-0.3,0.5-0.2,1.2,0.3,1.6c0.1,0,1,0.7,2.8,1.1c-1.9,1.7-3.8,3.8-3.9,3.9c-0.4,0.5-0.4,1.2,0.1,1.6c0.2,0.2,0.5,0.3,0.8,0.3
		s0.6-0.1,0.8-0.4c0,0,1.4-1.5,2.8-2.9c-1.4,1.7-2.7,3.5-2.9,3.9c-0.4,0.5-0.2,1.2,0.3,1.6c0.2,0.1,0.4,0.2,0.7,0.2
		c0.3,0,0.7-0.2,0.9-0.5c0.7-1,1.8-2.4,2.8-3.7c-0.4,0.7-0.8,1.6-1.8,3.1c-0.3,0.5-0.2,1.2,0.4,1.6c0.2,0.1,0.4,0.2,0.6,0.2
		c0.4,0,0.7-0.2,1-0.5c0.4-0.6,0.7-1.1,1-1.6c-0.2,0.5,0,1.1,0.4,1.4c0.2,0.1,0.4,0.2,0.6,0.2c0.4,0,0.7-0.2,0.9-0.5
		c1.1-1.6,1.6-2.9,1.8-4l0,0C-242.5,291.9-243.2,290.4-244.4,289.6z M-246.6,297.5c0.4-0.7,0.6-1.1,0.9-1.6
		C-246,296.3-246.3,296.9-246.6,297.5z"/>
	<path class="st8" d="M-278.9,302.3c-3.6-0.2-8.7,6.8-3.4,8.7c-4.8-0.1-6,6.7-1.6,8.5c-7.7-1.5-6.8,8.5-3.2,12.1
		c-2.5-0.4-5,2-4.6,4.5c0.4,2.6,1.4,6.2,7.8,8.1c6.4,1.9,10.3-1.7,13.5-5.1c2,4.2,12.1-1.5,11-6.4c3.8,1.3,7.2-3,7.3-6.4
		c0.1-3.4-2.3-5.9-4.5-8.1c1.6-1.4,1.9-4.1,1.5-6.2c-0.7-3.4-4.9-3.7-4.9-6.4c0-0.9,0.2-3.9-0.6-5.2c-1.3-2.1-3.5-4.1-6.3-3.1
		C-278.9,291.7-278.9,302.3-278.9,302.3z"/>
	<path class="st0" d="M-272,411.6c-3.2-0.6-3.8-0.4-7-1.2l-7.4,9.1h28.8l-16.7-4.5L-272,411.6z"/>
	<path class="st0" d="M-218.3,414.2l-1.7-2.2c-1.5,1-3.1,1.8-4.9,2.4l4.5,5.1h16.9L-218.3,414.2z"/>
	<path class="st0" d="M-282,411.6c3.2,0.8,6.5,1.6,9.7,2.2l23.8-29.3l-4.1-11.6l-16.7-19.2l4.8,27.2L-282,411.6z"/>
	<path class="st8" d="M-249.7,345.6c-6.5-1.7-15.4,0.5-21.7,2.9c0,0,3.9,15.5,6.5,20.1c7.4,13.5,39.7,47.1,39.7,47.1
		c1.8-0.6,5.2-3.1,6.7-4.1L-249.7,345.6z"/>
	<path class="st12" d="M-272.2,354.6c6.3-2.4,18.9-6.4,25.4-4.7c0,0-8.6-20.2-12.5-24.6c-2.6-3-17-11.5-17-0.4
		C-276.3,339.9-272.2,354.6-272.2,354.6z"/>
	<g>
		<path class="st1" d="M-266.6,323.8c-0.1,0-0.2,0.1-0.3,0.1c-1.9,0.5-3.9-0.6-4.4-2.5c-0.5-2-0.6-4.5-0.6-4.8c0-2,1.6-3.6,3.6-3.6
			s3.6,1.6,3.6,3.6c0,0.7,0.1,2.1,0.3,3C-263.9,321.3-264.9,323.2-266.6,323.8z"/>
	</g>
	<g>
		<path class="st10" d="M-264.2,320.3c0-0.3,0-0.5-0.1-0.8c-0.2-0.8-0.3-2.3-0.3-3c0-2-1.6-3.6-3.6-3.6s-3.6,1.6-3.6,3.6
			c0,0,0,0.2,0,0.3C-270.1,318.9-267.2,319.8-264.2,320.3z"/>
	</g>
	<g>
		<path class="st1" d="M-260.7,309.5c1.2,3.6-0.8,7.4-4.4,8.6l0,0c-3.6,1.2-7.4-0.8-8.6-4.4l-1.5-4.5c-1.2-3.6,0.8-7.4,4.4-8.6l0,0
			c3.6-1.2,7.4,0.8,8.6,4.4L-260.7,309.5z"/>
	</g>
	<path class="st1" d="M-220.6,305.9c-0.1-0.1-0.3-0.2-0.5-0.2c0.2-0.2,0.3-0.4,0.5-0.6c0.4-0.5,0.4-1.2-0.1-1.6
		c-0.1-0.1-0.1-0.1-0.2-0.1c0.3-0.5,0.3-1.1-0.2-1.5c-0.3-0.3-0.8-0.4-1.2-0.2c0.5-0.5,0.8-0.9,0.9-0.9c0.4-0.5,0.4-1.2-0.1-1.6
		s-1.2-0.4-1.6,0.1c0,0-2.5,2.8-5,4.2c-1.1-1.7-2.6-2.2-2.6-2.3c-0.6-0.2-1.2,0.1-1.4,0.6c-0.2,0.6,0.1,1.2,0.6,1.5
		c0,0,0.9,0.4,1.6,1.4c-0.1,0.3-0.2,0.6-0.3,1c-16.6,22.4-38.5,14.5-39.5,14.1c-2-0.8-4.2,0.2-4.9,2.2c-0.8,2,0.2,4.2,2.2,5
		c0.3,0.1,5.6,2.1,13.3,2.1c1.5,0,3.2-0.1,4.9-0.3c8.3-1,20.5-5.7,30.3-18.3c0.2-0.1,0.4-0.2,0.7-0.5c0.2-0.1,0.4-0.3,0.6-0.4l0,0
		c0.6-0.5,1.3-1.2,2.1-2.1C-220.1,307-220.1,306.3-220.6,305.9z"/>
	<path class="st2" d="M-251.1,319.9l-0.9,0.2c-2.3,0.5-4.6,0.7-7,0.7c-5.8,0-9.8-1.5-10.3-1.6c-0.5-0.2-1.1-0.3-1.6-0.3
		c-1.9,0-3.5,1.1-4.2,2.9c-0.4,1.1-0.5,2.4,0.1,3.4c2.2,3.9,8.2,5.5,16,5.5c1.7,0,3.3-0.1,5-0.3c1-0.1,2-0.3,3.1-0.5l0.7-0.2
		c0,0-0.9-2.8-1.1-5.7C-251.5,322.9-251.1,319.9-251.1,319.9z"/>
	<path class="st8" d="M-275.3,312.8c2.4-1.5,3.2-4.3,2.9-7.1c2.1,1.4,3.7,0.5,5-1.9c3.9,5.5,9.9-2.7,1.8-5.6
		c-6.5-2.4-12.9,4.1-11.3,10.6L-275.3,312.8z"/>
</g>
<text transform="matrix(1 0 0 1 -159.1064 177.6506)" class="st6 st18 st19">oops!</text>
<text transform="matrix(1 0 0 1 -185.7164 202.5022)" class="st20 st18 st21">Page not found </text>
<path class="st22" d="M-92.3,464.1c0,5.7-4.6,10.3-10.3,10.3h-44c-5.7,0-10.3-4.6-10.3-10.3l0,0c0-5.7,4.6-10.3,10.3-10.3h44
	C-96.9,453.7-92.3,458.3-92.3,464.1L-92.3,464.1z"/>
<text transform="matrix(1 0 0 1 -151.7719 465.588)" class="st18" style="display:none;fill:#FFFFFF;enable-background:new    ; font-size:5.9746px;">go to homepage </text>
</svg>
