<?xml version="1.0" encoding="utf-8"?>
<!-- Generator: Adobe Illustrator 19.0.0, SVG Export Plug-In . SVG Version: 6.00 Build 0)  -->
<svg version="1.1" id="OBJECTS" xmlns="http://www.w3.org/2000/svg" xmlns:xlink="http://www.w3.org/1999/xlink" x="0px" y="0px"
	 viewBox="-237 447.9 366.9 296" style="enable-background:new -237 447.9 366.9 296;" xml:space="preserve">
<style type="text/css">
	.st0{fill:#002E4F;}
	.st1{fill:#00A4E2;}
	.st2{fill:#E1F3F6;}
	.st3{fill:#008DC4;}
	.st4{fill:#00AFE2;}
	.st5{fill:#006091;}
	.st6{fill:#0076AD;}
	.st7{fill:#00D2FD;}
	.st8{fill:#00396A;}
	.st9{fill:none;stroke:#20C6F0;stroke-width:7.6539;stroke-linecap:round;stroke-miterlimit:10;}
	.st10{fill:#0086CF;}
	.st11{fill:#0089E0;}
	.st12{fill:#CDE5E8;}
	.st13{fill:#F6EE9E;}
	.st14{fill:#F8FDFF;}
	.st15{fill:none;stroke:#DDDD67;stroke-width:0.8679;stroke-miterlimit:10;}
	.st16{fill:none;stroke:#DDDD67;stroke-width:0.755;stroke-miterlimit:10;}
	.st17{fill:#009EE7;}
	.st18{display:none;fill:#68C04D;}
	.st19{display:none;fill:#FFFFFF;}
	.st20{display:none;}
	.st21{display:inline;}
	.st22{fill:none;}
	.st23{fill:#A5A4B4;}
	.st24{font-family:'ArialMT';}
	.st25{font-size:7.8884px;}
	.st26{fill:#27429C;}
	.st27{fill:#131B54;}
	.st28{font-size:22.0384px;}
	.st29{font-size:8.179px;}
	.st30{fill:#EBEBFF;}
	.st31{fill:#D6D7F4;}
	.st32{fill:#3D5AC4;}
	.st33{fill:#5571E9;}
	.st34{fill:#312C76;}
	.st35{fill:#151247;}
	.st36{opacity:0.16;fill:#5571E9;enable-background:new    ;}
	.st37{fill:#F5D100;}
	.st38{clip-path:url(#SVGID_2_);fill:#FFFFFF;}
	.st39{clip-path:url(#SVGID_4_);fill:#FFFFFF;}
	.st40{clip-path:url(#SVGID_6_);fill:#FFFFFF;}
	.st41{clip-path:url(#SVGID_8_);fill:#FFFFFF;}
	.st42{clip-path:url(#SVGID_10_);fill:#FFFFFF;}
	.st43{fill:#14103D;}
	.st44{fill:#EB8175;}
	.st45{fill:#231C61;}
	.st46{fill:#E1AD9D;}
	.st47{fill:#C8C6F2;}
	.st48{fill:#D8D7FD;}
	.st49{fill:#091218;}
	.st50{fill:#1B2934;}
	.st51{fill:#FFFFFF;}
	.st52{fill:#E16C5F;}
	.st53{clip-path:url(#SVGID_12_);fill:#231C61;}
	.st54{clip-path:url(#SVGID_14_);fill:#231C61;}
	.st55{fill:none;stroke:#F1AB00;stroke-width:0.2802;stroke-miterlimit:10;}
	.st56{fill:none;stroke:#FFFFFF;stroke-width:1.1206;stroke-linecap:round;stroke-linejoin:round;stroke-miterlimit:10;}
	.st57{fill:#334FBE;}
	.st58{fill:#4265D1;}
	.st59{clip-path:url(#SVGID_16_);fill:#231C61;}
	.st60{clip-path:url(#SVGID_18_);fill:#231C61;}
	.st61{fill:none;stroke:#F1AB00;stroke-width:0.2834;stroke-miterlimit:10;}
	.st62{fill:none;stroke:#FFFFFF;stroke-width:1.1334;stroke-linecap:round;stroke-linejoin:round;stroke-miterlimit:10;}
	.st63{fill:none;stroke:#3D5AC4;stroke-width:2.6489;stroke-miterlimit:10;}
	.st64{fill:none;stroke:#5571E9;stroke-width:2.6489;stroke-miterlimit:10;}
	.st65{fill:#2F4DAB;}
	.st66{fill:none;stroke:#231C61;stroke-width:2.1624;stroke-miterlimit:10;}
	.st67{fill:#373482;}
	.st68{fill:none;stroke:#5571E9;stroke-width:2.6489;stroke-linecap:round;stroke-linejoin:round;stroke-miterlimit:10;}
	.st69{clip-path:url(#SVGID_20_);fill:#FAFAFA;}
	.st70{clip-path:url(#SVGID_22_);fill:#FAFAFA;}
	.st71{fill:#E8C400;}
	.st72{clip-path:url(#SVGID_24_);fill:#FAFAFA;}
	.st73{clip-path:url(#SVGID_26_);fill:#FAFAFA;}
	.st74{fill:none;stroke:#3D5AC4;stroke-width:1.1366;stroke-linecap:round;stroke-linejoin:round;stroke-miterlimit:10;}
	.st75{font-family:'MyriadPro-SemiboldCond';}
	.st76{font-size:30px;}
</style>
<g>
	<path class="st0" d="M363.5,1000.7c-2.5,3.2-5.4,5.7-4.8,6.8c0,0,1.3,1,5,1c6.3,0,12.5-0.5,11.5-1.1c-1.4-0.9-5.5-1.2-9.4-2.6
		c-1-0.3,2.1-2.2,1.3-2.5C365.3,1001.7,364,1001.1,363.5,1000.7z"/>
	<path class="st0" d="M428.5,1007.3c0,0,0.8,1.2,4,1.2c5.5,0,11.1-0.7,10.3-1.3c-1.2-0.8-10.8-2.8-10.8-2.8l-2.1-2.7l-3.6,2
		L428.5,1007.3z"/>
	<g>
		<path class="st1" d="M411.2,927c-3.9,0-6.9-0.8-7.1-0.8c-2-0.6-3.2-2.7-2.7-4.7c0.6-2,2.7-3.2,4.7-2.7c0.1,0,8.7,2.2,13.8-2.1
			c3.4-2.9,4.6-8.3,3.8-16.2l-0.3-2.5l7.7-4.4c1.8-1,4.2-0.4,5.2,1.4s0.4,4.2-1.4,5.2l-3.4,1.9c0.5,9.2-1.7,16-6.7,20.3
			C420.6,926.1,415.4,927,411.2,927z"/>
	</g>
	<g>
		<path class="st2" d="M424.4,905.7c-0.1,5.6-1.6,9.6-4.4,12c-5.5,4.7-14.9,2.3-15.1,2.3c-2.2-0.6-4.5,0.7-5.1,3
			c-0.6,2.2,0.7,4.5,2.9,5.2c0.3,0.1,3.5,1.7,7.8,1.5c16.3-0.6,26.1-14.6,26.3-22.8L424.4,905.7z"/>
	</g>
	<g>
		<path class="st3" d="M402,886.3c-1.5-0.7-2.9-1.4-4.3-2.1c-13.5,7.7-30.7,17.5-31.1,17.9c0,0,8.6,13.6,9.1,14.2
			c0.4,0.4,21.6-14.9,36.9-25.9C409.1,888.9,405.5,887.8,402,886.3z"/>
		<path class="st4" d="M402.3,885.9c3.5,1.6,7.2,2.7,10.8,4.1c8.4-6.1,14.9-10.8,14.9-10.8l-14.4-4c0,0-6.9,3.9-15.4,8.8
			C399.5,884.6,400.9,885.3,402.3,885.9z"/>
		<polygon class="st5" points="377.5,868 385.9,890.9 402.5,897 381.5,858.7 		"/>
		<polygon class="st5" points="403.4,902.6 391.1,902.6 402,921.7 418.7,928.7 		"/>
		<path class="st6" d="M418.7,928.7l-9.8-16.7l-41.8,24.5l-8.2-14l5.2-83.3l18.8-11l33.8,57.6l11.4-6.7l9.5,16.1l-11.4,6.7l9.8,16.7
			L418.7,928.7z M380.8,864l-1.1,0.6l-2.9,44.5l22.6-13.3L380.8,864z"/>
		<polygon class="st3" points="345.1,918.7 358.9,922.5 367.2,936.5 352.5,932.8 		"/>
		<polygon class="st4" points="345.1,918.7 358.9,922.5 364.1,839.2 351.4,836.2 		"/>
		<polygon class="st7" points="351.4,836.2 364.1,839.2 382.9,828.2 370,824.4 		"/>
	</g>
	<path class="st0" d="M379.3,951.9c0,0,2,22,2,29.7c0,0-16,12.5-20,19c1.7,1.3,5,3,7.2,2.9c10.7-10.2,22.4-17.5,22.4-17.5
		s5.1-14.7,6.6-27.1L379.3,951.9z"/>
	<path class="st2" d="M390.7,952.9c3.6,0,7.3-0.6,10.4-2.3c-1-4.4,1.2-17.4,4-24.3c0,0,2.2-4.8,0.7-6.3c-5.7-5.5-10.6-5-12.1-5.1
		c-5.2,4.4-15,17.5-14.6,34.7C381.8,952.5,387.2,952.9,390.7,952.9z"/>
	<path class="st8" d="M426.1,1004.4c2.1-0.6,4.1-1.5,5.4-3.3c-6.2-10-28.9-46.9-30.1-49.8c0-0.1-0.1-0.2-0.1-0.2
		c-3.3,1.8-7.3,2.4-11.2,2.3c-3.4-0.1-8.2-0.6-11-3.1c0,0.2,0,0.4,0,0.5c0.5,9.6,32.4,41.7,45,54
		C424.8,1004.7,425.5,1004.5,426.1,1004.4z"/>
	<g>
		<path class="st1" d="M360.2,942.9c-0.9,0-1.7-0.1-2.6-0.4c-1.7-0.6-3.9-2-5-5.5c-0.6-2,0.6-4.2,2.6-4.8s4.2,0.6,4.8,2.6
			c0.1,0.2,0.1,0.4,0.2,0.5c0.4,0,1.9-0.1,5.6-2.3c3.3-1.9,7.2-4.8,11-7.6c6.4-4.7,12.4-9.2,17.4-10.7c2-0.6,4.2,0.5,4.8,2.5
			s-0.5,4.2-2.5,4.8c-3.8,1.2-9.5,5.5-15.1,9.6C373.1,937.6,365.9,942.9,360.2,942.9z"/>
	</g>
	<g>
		<path class="st1" d="M367.3,940.1c-0.5-2.3-1-4.7-2.4-6.6c-3.1,1.7-4.4,1.8-4.8,1.8c0-0.1-0.1-0.2-0.2-0.5c-0.6-2-2.7-3.2-4.8-2.6
			c-2,0.6-3.2,2.7-2.6,4.8c1.1,3.6,3.3,5,5,5.5c0.8,0.3,1.7,0.4,2.6,0.4c2.2,0,4.7-0.8,7.3-2.1C367.4,940.6,367.4,940.3,367.3,940.1
			z"/>
		<path class="st2" d="M398.9,917.2c-0.6-2-2.8-3.1-4.8-2.5c-5,1.6-11,6-17.4,10.7c-3.8,2.8-7.7,5.7-11,7.6
			c-0.2,0.1-0.3,0.2-0.4,0.3c1.4,1.9,3.9,11.2,4,11.4c4.1-2.1,23.5-16.9,27.7-21.4C398.5,921.7,399.5,919.2,398.9,917.2z"/>
	</g>
	<path class="st9" d="M350,932.8"/>
	<g>
		<path class="st1" d="M354.8,939.9c-0.2,0-0.5-0.1-0.7-0.2c-3-2.1-4.6-6.3-4.6-6.5c-0.2-0.6,0.1-1.2,0.7-1.4
			c0.6-0.2,1.2,0.1,1.4,0.7l0,0c0,0,1.4,3.7,3.8,5.4c0.5,0.4,0.6,1.1,0.3,1.6C355.5,939.7,355.1,939.9,354.8,939.9z"/>
	</g>
	<g>
		<path class="st1" d="M354.8,937.1c-0.4,0-0.7-0.2-0.9-0.5c-1.4-2-2.6-6.9-2.7-7.4c-0.1-0.6,0.2-1.2,0.8-1.4
			c0.6-0.1,1.2,0.2,1.4,0.8c0.3,1.4,1.4,5.2,2.4,6.6c0.4,0.5,0.2,1.2-0.3,1.6C355.2,937,355,937.1,354.8,937.1z"/>
	</g>
	<g>
		<path class="st1" d="M356.3,936.5c-0.4,0-0.9-0.3-1-0.7c-1-2.5-1.4-7.8-1.5-8.1c0-0.6,0.4-1.2,1-1.2c0.6-0.1,1.2,0.4,1.2,1
			c0.1,1.4,0.5,5.5,1.3,7.4c0.2,0.6,0,1.2-0.6,1.5C356.6,936.4,356.5,936.5,356.3,936.5z"/>
	</g>
	<g>
		<path class="st1" d="M358,935.9c-0.5,0-1-0.3-1.1-0.8c-0.7-2.8-0.1-5.6,0-5.7c0.1-0.6,0.8-1,1.4-0.8c0.6,0.1,1,0.7,0.8,1.4
			c0,0.1-0.5,2.4,0,4.6c0.2,0.6-0.2,1.2-0.8,1.4C358.2,935.9,358.1,935.9,358,935.9z"/>
	</g>
	<g>
		<path class="st1" d="M403.3,923.3c-0.5,0-1-0.1-1.5-0.3c-1.8-0.8-2.6-3-1.7-4.8c0.9-1.9,2.5-3.8,2.7-4c1.3-1.5,3.6-1.7,5.1-0.4
			s1.7,3.6,0.4,5.1l0,0c-0.5,0.5-1.3,1.7-1.7,2.5C405.9,922.5,404.6,923.3,403.3,923.3z"/>
	</g>
	<g>
		<path class="st10" d="M403.8,921.4c0.4,0.5,0.9,0.9,1.3,1.3c0.6-0.4,1.1-0.9,1.4-1.5c0.4-0.8,1.2-1.9,1.7-2.5
			c1.3-1.5,1.1-3.8-0.4-5.1c-1.5-1.3-3.8-1.1-5.1,0.4c-0.1,0.1-0.4,0.4-0.7,0.9C402,917.3,402.2,919.7,403.8,921.4z"/>
	</g>
	<g>
		<path class="st1" d="M415.6,917.5c-1.4,3.5-5.4,5.1-8.9,3.7l0,0c-3.5-1.4-5.1-5.4-3.7-8.9l1.8-4.4c1.4-3.5,5.4-5.1,8.9-3.7l0,0
			c3.5,1.4,5.1,5.4,3.7,8.9L415.6,917.5z"/>
	</g>
	<path class="st8" d="M403.8,911.8c-0.6,2.3-3.9,1.6-5.2,0.4c-1.7-1.7-2.8-6.4,1.1-6.2c-2.8-4.2,6.6-8.7,7.6-3.9
		c0.7-1.2,1.5-2.4,3.1-2.5c1.2-0.1,3.2,0.8,3.1,2.3c1.8-1.4,4.3-1.3,6,0.1c0.6,0.4,1.6,1.4,1.1,2.2c-0.3,0.4-1.7,0.5-2.2,0.7
		c0.8-0.4,4.2,0.4,3.5,1.8c-0.3,0.7-1.9,0.1-2.4-0.1c0,0,0,0.2,0,0.1c1.8,1,2.5,2,2.3,4.2c-0.1,1-0.6,3-1.8,3.1
		c-0.6,0.1-1.3-0.3-1.3-1c1.5,1.5-0.6,5.5-2.5,3.5c-0.7-0.8-0.4-2.1,0.3-2.7c-1.1-0.6-3.5-4-1.8-5c-0.8,0-4.5-1.2-3.4-2.3
		c0.3,1.2-1.2,2.9-2.5,2.2c0.8,1.7-1.5,2.9-2.9,3c0.8,1.1-1.8,2.3-2.6,0.8L403.8,911.8z"/>
</g>
<g>
	<path class="st11" d="M275.8,898.2c0,0-2.2-8.4,8.7-10.4l-0.8,10.1L275.8,898.2z"/>
	<g>
		<path class="st12" d="M232.4,919.3c-2.4,0-4.6-0.5-6.6-1.4c-9.8-4.7-10.9-18.6-11-19.2c-0.1-2.1,1.4-3.9,3.5-4.1
			c2.1-0.1,3.9,1.4,4.1,3.5c0.2,2.8,1.8,10.6,6.6,12.9c4,1.9,10.1,0,17.8-5.5c1.7-1.2,4.1-0.8,5.3,0.9c1.2,1.7,0.8,4.1-0.9,5.3
			C244.2,916.7,237.8,919.3,232.4,919.3z"/>
	</g>
	<g>
		<g>
			<path class="st4" d="M252.7,926.5c1.1-2.8,2.1-5.6,3.2-8.4c-0.8-0.1-1.6-0.2-2.3-0.3c-3.7-0.7-6.9-2.2-9.4-4.5
				c-2.6-2.3-4.6-5.2-6-8.8c-1.4-3.5-2.2-7.6-2.4-12.1c-0.2-4.5,0.1-9.3,1.1-14.3c1-5.1,2.4-9.7,4.3-13.8c1.9-4.1,4.1-7.5,6.7-10.3
				s5.5-4.8,8.8-6c3.2-1.2,6.7-1.4,10.4-0.7c2.9,0.6,5.5,1.7,7.8,3.3c1.1-2.2,2.3-4.3,3.4-6.4c1.3-2.5,2.5-5.1,3.7-7.6
				c0.5-1.1,0.9-2.2,1.4-3.4c-3.8-2.1-8-3.7-12.7-4.6c-6.6-1.3-12.9-1-18.7,0.7c-5.8,1.7-11.1,4.7-15.8,8.8s-8.7,9.2-11.9,15.4
				c-3.3,6.2-5.6,13.1-7.1,20.7c-1.5,7.6-1.8,14.9-1.1,21.9c0.8,7,2.5,13.2,5.4,18.7c2.8,5.5,6.7,10.2,11.5,14
				c4.5,3.5,9.7,5.9,15.8,7.3C250.1,933,251.5,929.7,252.7,926.5z"/>
			<path class="st5" d="M304.6,868.9c-0.8-7-2.5-13.2-5.4-18.7c-2.8-5.5-6.7-10.2-11.4-14c-1.3-1-2.6-1.9-4.1-2.8
				c-0.4,1.1-0.9,2.3-1.4,3.4c-1.2,2.6-2.4,5.1-3.7,7.6c-1.1,2.1-2.3,4.3-3.4,6.5c0.4,0.3,0.8,0.6,1.1,0.9c2.6,2.3,4.6,5.2,6,8.8
				c1.5,3.6,2.3,7.6,2.5,12c0.2,4.5-0.1,9.3-1.1,14.4c-1,5-2.4,9.6-4.3,13.7c-1.9,4.1-4.1,7.6-6.8,10.3c-2.7,2.8-5.6,4.8-8.9,6
				c-2.4,0.9-4.9,1.3-7.5,1.1c-1.3,3-2.3,6.1-3.5,9.2c-1.1,3-2.4,6-3.8,8.9c0.3,0.1,0.6,0.1,0.9,0.2c6.6,1.3,12.9,1,18.7-0.7
				s11.1-4.7,15.8-8.8s8.7-9.2,11.9-15.4c3.3-6.2,5.6-13.1,7.1-20.7C305,883.2,305.3,875.9,304.6,868.9z"/>
		</g>
		<g>
			<path class="st6" d="M261.7,940.4c-6.6-1.3-12.3-3.8-17.1-7.6c-4.8-3.8-8.6-8.4-11.4-14c-2.8-5.5-4.6-11.8-5.4-18.7
				c-0.8-7-0.4-14.2,1.1-21.9c1.5-7.6,3.8-14.5,7.1-20.7c3.3-6.2,7.2-11.3,11.9-15.4c4.7-4.1,9.9-7,15.8-8.8
				c5.8-1.7,12.1-2,18.7-0.7c6.6,1.3,12.3,3.8,17.1,7.6s8.6,8.4,11.5,14c2.8,5.5,4.6,11.8,5.4,18.7c0.8,7,0.4,14.2-1.1,21.9
				c-1.5,7.6-3.8,14.5-7.1,20.7s-7.2,11.3-11.9,15.4c-4.7,4.1-9.9,7-15.8,8.8C274.6,941.4,268.3,941.7,261.7,940.4z M265.3,921.7
				c3.6,0.7,7,0.4,10.3-0.8c3.2-1.2,6.2-3.2,8.9-6s4.9-6.2,6.8-10.3c1.9-4.1,3.3-8.7,4.3-13.7c1-5.1,1.3-9.9,1.1-14.4
				s-1.1-8.5-2.5-12c-1.5-3.6-3.5-6.5-6-8.8c-2.6-2.3-5.7-3.8-9.3-4.5c-3.7-0.7-7.2-0.5-10.4,0.7s-6.2,3.2-8.8,6
				c-2.6,2.8-4.8,6.2-6.7,10.3s-3.3,8.7-4.3,13.8c-1,5-1.3,9.8-1.1,14.3c0.2,4.5,1,8.5,2.4,12.1c1.4,3.5,3.4,6.5,6,8.8
				C258.4,919.5,261.6,921,265.3,921.7z"/>
		</g>
	</g>
	<g>
		<path class="st8" d="M329.2,884.2l0.3,14.1c0,0-4,3.6-7.6,0l1.3-15.8L329.2,884.2z"/>
		<path class="st0" d="M312.7,996.4c-0.2-0.2-1.8-0.9-2-1.1c-0.8,1.3-1.4,2-2.4,3c2.5,2.2,1.8,4.8,1.8,4.8s-1.8,1.5-2.4,1.8
			c-2.2,1.1-6.2,2.6-6.2,2.6l10.2,0.8l7.5-7.7C316.4,999.1,314.4,997.8,312.7,996.4z"/>
		<path class="st0" d="M272.8,997c-1.6-0.3-3.7,1-5,0c-0.3,2.8-0.2,4.4-0.2,4.4l-15,6.2h19.2c0.2-2-0.2-4,0.1-5.9
			C272,1000.7,272.7,997.9,272.8,997z"/>
		<path class="st12" d="M290.3,928.7l-17,32.3c0,0,6.9,5.8,13.7,7.8l12.7-38.1L290.3,928.7z"/>
		<path class="st0" d="M309,999.2c1-1,1.9-2.3,2.7-3.6c-4.4-3.8-6.5-7.7-12.5-14.3c-2.5-2.8,4.1-18.6,5.7-21.3
			c2.9-4.8,3.3-8.2,5.5-16.4l-16.6,6.2c-4,14.2-8.6,28.3-3.9,35.1c4.9,7.1,13.5,12.9,17.7,15.8C307.7,1000.7,308.8,999.1,309,999.2z
			"/>
		<g>
			<path class="st1" d="M281,896.5c-0.2,0-0.5-0.1-0.7-0.2c-0.5-0.4-0.6-1.1-0.3-1.6c1.3-1.9,1.6-3.4,1.6-3.4c0.1-0.6,0.7-1,1.3-0.9
				c0.6,0.1,1,0.7,0.9,1.3c0,0.1-0.4,2-2,4.3C281.7,896.3,281.4,896.5,281,896.5z"/>
		</g>
		<path class="st13" d="M309.1,947c4.9-13.6,9.2-34.9,10.7-43.4c-0.9-0.4-1.7-0.6-2.4-0.8c-1.5-0.4-3.2-0.9-4.7-0.4
			c-0.8,0.2-1.4,0.6-2.1,1c-0.6,1.8-0.9,3.4-0.9,3.4s-10.6,20.3-17.5,34.1C298.1,942.3,303.8,944.3,309.1,947z"/>
		<path class="st8" d="M292,941.4L292,941.4c-0.6,1.2-1.2,2.4-1.7,3.5l0,0c-1.4,2.4-2.8,4.6-4.2,6.8c-13.7,20.6-18.8,37-19.7,44.8
			c1.3,1,6.2,1.6,7.9,1.9c2.5-12.9,9.1-21.1,20.8-30.8c3.9-3.3,6.9-7.4,9.5-10.8c1.5-2,3.1-5.3,4.5-9.3
			C303.7,944.7,297.9,942.7,292,941.4z"/>
		<g>
			<path class="st1" d="M278.8,947.1c-1.6,0-3.1-1-3.6-2.6c-0.7-2,0.4-4.2,2.4-4.9c4.6-1.6,11.8-8,16.6-14.8
				c9.7-13.8,16.6-21.5,16.9-21.8c1.4-1.6,3.8-1.7,5.4-0.3c1.6,1.4,1.7,3.8,0.3,5.4l0,0c-0.1,0.1-6.9,7.7-16.3,21.1
				c-4.7,6.7-13.1,15.1-20.3,17.6C279.6,947,279.2,947.1,278.8,947.1z"/>
		</g>
		<g>
			<path class="st1" d="M317.2,904.9c-0.1,0-0.2,0-0.3,0c-2-0.1-3.5-1.9-3.3-3.9c0.2-2.1,1-4.4,1-4.7c0.6-1.9,2.7-2.9,4.6-2.2
				c1.9,0.6,2.9,2.7,2.2,4.6c-0.2,0.7-0.6,2-0.7,2.9C320.7,903.5,319.1,904.9,317.2,904.9z"/>
		</g>
		<g>
			<path class="st10" d="M318.3,901.1c0.6,0.7,1.3,1.4,2.1,2c0.3-0.5,0.4-1,0.5-1.5c0.1-0.9,0.4-2.2,0.7-2.9
				c0.6-1.9-0.4-3.9-2.2-4.6c-1.6-0.5-3.2,0.1-4.1,1.3C315.4,897.5,317.1,899.8,318.3,901.1z"/>
		</g>
		<g>
			<path class="st1" d="M327.5,893.4c-0.1,3.8-3.2,6.7-7,6.7l0,0c-3.8-0.1-6.7-3.2-6.7-7l0.1-4.7c0.1-3.8,3.2-6.7,7-6.7l0,0
				c3.8,0.1,6.7,3.2,6.7,7L327.5,893.4z"/>
		</g>
		<g>
			<path class="st1" d="M273.4,946c-1.6,0-3.4-0.4-5.4-1.3c-0.6-0.2-0.8-0.9-0.6-1.5c0.2-0.6,0.9-0.8,1.5-0.6c3,1.2,5.3,1.4,6.8,0.5
				c0.5-0.3,1.2-0.2,1.5,0.4c0.3,0.5,0.2,1.2-0.4,1.5C275.9,945.7,274.7,946,273.4,946z"/>
		</g>
		<g>
			<path class="st1" d="M274.7,947.7c-1.8,0-3.2-0.3-4.9-0.7l-0.5-0.1c-0.6-0.1-1-0.8-0.8-1.4c0.1-0.6,0.8-1,1.4-0.8l0.5,0.1
				c2.7,0.7,4.5,1.1,8.5,0.1c0.6-0.2,1.2,0.2,1.4,0.8c0.2,0.6-0.2,1.2-0.8,1.4C277.5,947.5,276,947.7,274.7,947.7z"/>
		</g>
		<g>
			<path class="st1" d="M273.3,943.8c-3.5,0-6-2.2-6.1-2.3c-0.5-0.4-0.5-1.1-0.1-1.6s1.1-0.5,1.6-0.1c0.1,0.1,2.7,2.4,6.2,1.5
				c0.6-0.2,1.2,0.2,1.4,0.8s-0.2,1.2-0.8,1.4C274.7,943.7,274,943.8,273.3,943.8z"/>
		</g>
		<g>
			<path class="st1" d="M275.6,942.6L275.6,942.6c-3.9-0.4-5.5-3.2-5.6-3.3c-0.3-0.5-0.1-1.2,0.4-1.5s1.2-0.1,1.5,0.4
				c0.1,0.1,1.1,1.9,3.7,2.2c0.6,0.1,1.1,0.6,1,1.2C276.7,942.2,276.2,942.6,275.6,942.6z"/>
		</g>
		<g>
			<path class="st1" d="M289.1,898.1c-0.1,0-0.1,0-0.2,0c-1.9-0.3-7-1.1-8.1-1.1c-0.6,0-1.1-0.5-1.1-1.1c0-0.6,0.5-1.1,1.1-1.1
				c1.6,0,7.8,1,8.5,1.1c0.6,0.1,1,0.7,0.9,1.3C290.1,897.7,289.6,898.1,289.1,898.1z"/>
		</g>
		<g>
			<path class="st1" d="M288.4,900.5c-0.1,0-0.2,0-0.3,0s-5.4-1.5-7.9-1.6c-0.6,0-1.1-0.6-1.1-1.2c0-0.6,0.6-1.1,1.2-1.1
				c2.7,0.2,8.1,1.6,8.4,1.7c0.6,0.2,1,0.8,0.8,1.4C289.3,900.2,288.9,900.5,288.4,900.5z"/>
		</g>
		<g>
			<path class="st1" d="M287.8,903c-0.1,0-0.2,0-0.3-0.1c-5.1-1.6-6.3-1.7-7-1.8c-0.3,0-0.6,0-0.9-0.1c-0.6-0.2-1-0.8-0.8-1.4
				c0.2-0.6,0.8-1,1.4-0.8c0.2,0,0.3,0.1,0.5,0.1c0.8,0.1,2.2,0.2,7.5,1.9c0.6,0.2,0.9,0.8,0.7,1.4C288.8,902.7,288.3,903,287.8,903
				z"/>
		</g>
		<g>
			<path class="st1" d="M285.6,904.8L285.6,904.8c-5.2-0.4-5.4-3.1-5.4-3.4l2.3-0.1c0,0,0,0,0-0.1c0,0,0.2,1.1,3.2,1.3
				c0.6,0,1.1,0.6,1,1.2C286.7,904.3,286.2,904.8,285.6,904.8z"/>
		</g>
		<path class="st1" d="M281.4,903.4c0,0-1-0.5-2.5-0.5c-1.3,0-3-2.2-3-4.4c0,0-0.6-6.6,6.4-3.6L281.4,903.4z"/>
		<path class="st12" d="M303.5,923.2l-9.8,48.4c0,0,15.2,3.7,24.6-1.7l2.4-67.3C320.6,902.6,310.1,898.9,303.5,923.2z"/>
		<path class="st2" d="M305.7,949.8l9.4-0.5c0,0,0.2,14.4-5.4,13.8C309.7,963.2,302,964.8,305.7,949.8z"/>
		<path class="st2" d="M317.6,901.4c-1-0.9-2.4-1.4-3.8-1.4c-1.6,0-3.1,0.7-4.2,1.9c-0.3,0.3-7.2,8-17,22c-0.6,0.9-1.4,1.8-2.1,2.8
			l-1,1.2l1.1,1.1c1.2,1.2,2.4,2.4,3.6,3.6c0.6,0.6,1.3,1.3,1.9,1.9l1.4,1.4l1.3-1.5c1.1-1.3,2.2-2.7,3.1-4
			c9.4-13.3,16.1-20.9,16.2-20.9C320.1,907.1,319.9,903.5,317.6,901.4z"/>
		
			<rect x="288.2" y="927.2" transform="matrix(-0.7439 -0.6683 0.6683 -0.7439 -107.4175 1818.9487)" class="st14" width="13.3" height="5.7"/>
		<path class="st8" d="M307.1,896.1l8.7,3.4c0,0,3.7-17.9,1-20.6C316.7,878.9,307.1,877.9,307.1,896.1z"/>
		<path class="st8" d="M317.2,882c0.3,0.5,7,4.9,12.3,3.7c0,0-0.9-7.9-13.2-6.8L317.2,882z"/>
		<circle class="st15" cx="318.7" cy="890.4" r="3.8"/>
		<circle class="st16" cx="327.6" cy="891.2" r="3.3"/>
		<path class="st15" d="M322.4,890.4c0,0,1.2-0.5,2,0.3"/>
	</g>
	<g>
		<g>
			<path class="st10" d="M212.9,897c-0.1,0-0.2,0-0.3,0c-2-0.1-3.5-1.9-3.3-3.9c0.2-2.1,1-4.4,1-4.7c0.6-1.9,2.7-2.9,4.6-2.2
				c1.9,0.6,2.9,2.7,2.2,4.6c-0.2,0.7-0.6,2-0.7,2.9C216.4,895.6,214.8,897,212.9,897z"/>
		</g>
		<g>
			<path class="st0" d="M210.8,997c6,2.8,10.9,2.7,11.3,2.8c3.9-6.9,15.6-25.7,4.9-41l-15.1-8.1C211.9,950.6,227,966.3,210.8,997z"
				/>
			<path class="st0" d="M218.6,1003.1c0,0,1.4-2.8,2.5-4.7c-0.8-0.1-4.5-0.2-6-0.8c-1.4,2.9-4.5,7.1-6.6,10h20.3L218.6,1003.1z"/>
			<path class="st8" d="M243.7,959.6c-2.5-4.9-20.8-19.6-22.5-28.1c-0.1-0.7-0.3-1.5-0.4-2.3c-2.9,1.6-6.8,2-9.8,2.1
				c-3.4,0.2-5.5,0.4-8.8-1.2c0.3,5.3-0.6,10.3,2.5,15.6c6.1,10.6,26.3,19.6,28.5,23.1c4.4,6.9,6,21.8,7.5,30.9
				c2.4,0,8-0.1,10.3-0.9C250.3,994.1,251.6,974.9,243.7,959.6z"/>
			<path class="st0" d="M250,1002.3c0,0-0.7-2.7-0.9-3.9c-2.3,0.8-3.7,0-6.1,0c0.4,2.3,0.1,6.5,0.3,9h19.2L250,1002.3z"/>
			<path class="st12" d="M211.2,934.1c2.9-0.1,9.1-0.9,11.5-3.4c-0.5-4-2.3-10.5-1.7-15.7c2.1-17.6-6.5-22.9-6.5-22.9
				s-4-2.8-7.2,0.5c-4.8,5-9.6,19.1-9.1,39.9C201.6,934.3,207.7,934.2,211.2,934.1z"/>
		</g>
		<g>
			<path class="st1" d="M255.3,939.6c-0.3,0-0.6,0-0.9-0.1c-13.9-3.2-25.6-11.5-34-24c-6.3-9.4-8.4-17.8-8.5-18.1
				c-0.5-2,0.7-4.1,2.8-4.6c2-0.5,4.1,0.7,4.6,2.8c0,0.2,2,7.7,7.6,16c7.3,10.9,17.2,17.8,29.2,20.6c2.1,0.5,3.3,2.5,2.9,4.6
				C258.6,938.5,257,939.6,255.3,939.6z"/>
		</g>
		<path class="st2" d="M246.9,928.2c-7.6-3.6-14.1-9.4-19.3-17.1c-5.5-8.2-7.5-15.7-7.5-15.8c-0.5-2-2.3-3.4-4.4-3.4
			c-0.4,0-0.7,0-1.1,0.1c-1.2,0.3-2.1,1-2.8,2.1c-0.6,1-0.8,2.2-0.5,3.4v0.1c0.6,2.6,3,11.6,8.6,20.1c6.7,10.1,15.9,17.6,26.4,21.8
			c0.1,0,0.2,0,0.3,0c0.1,0,0.3,0,0.4-0.1c0.2-0.1,0.3-0.3,0.3-0.6v-10.1C247.3,928.5,247.1,928.3,246.9,928.2z"/>
		<g>
			<path class="st1" d="M258.1,939.9c-1.2,0-2.5-0.1-3.9-0.4c-0.6-0.1-1-0.7-0.9-1.3c0.1-0.6,0.7-1,1.3-0.9c3.4,0.7,6.1,0.4,8.3-0.7
				c0.5-0.3,1.2-0.1,1.5,0.5c0.3,0.5,0.1,1.2-0.5,1.5C262.4,939.5,260.4,939.9,258.1,939.9z"/>
		</g>
		<g>
			<path class="st1" d="M258.3,937.4c-0.5,0-1.1,0-1.6-0.1c-0.6-0.1-1-0.7-1-1.3c0.1-0.6,0.7-1,1.3-1c3.6,0.5,6.9-1.3,7-1.4
				c0.5-0.3,1.2-0.1,1.5,0.4s0.1,1.2-0.4,1.5C264.9,935.7,262,937.4,258.3,937.4z"/>
		</g>
		<g>
			<path class="st1" d="M257.3,935.2c-0.2,0-0.4,0-0.5,0c-0.6,0-1.1-0.6-1.1-1.2c0-0.6,0.6-1.1,1.2-1.1c2.7,0.2,4.1-1.5,4.1-1.5
				c0.4-0.5,1.1-0.6,1.6-0.2c0.5,0.4,0.6,1.1,0.2,1.6C262.7,933,260.8,935.2,257.3,935.2z"/>
		</g>
		<g>
			<path class="st1" d="M253.4,933.3c-0.6,0-1.1-0.5-1.1-1.1c0-0.6,0.5-1.1,1.1-1.1c0.1,0,2.3-0.1,3.6-1.9c0.4-0.5,1.1-0.6,1.6-0.3
				c0.5,0.4,0.6,1.1,0.3,1.6C256.9,933.3,253.6,933.3,253.4,933.3z"/>
		</g>
		<g>
			<path class="st1" d="M249.7,907.9c-0.4,0-0.7-0.2-0.9-0.5c-1.7-2.3-2-4.3-2-4.3c-0.1-0.6,0.3-1.2,0.9-1.3s1.2,0.3,1.3,0.9
				c0,0,0.3,1.5,1.6,3.4c0.4,0.5,0.2,1.2-0.3,1.6C250.2,907.8,250,907.9,249.7,907.9z"/>
		</g>
		<g>
			<path class="st1" d="M250,908.4c-0.1,0-0.1,0-0.2,0c-2.5-0.5-7.3-0.5-7.4-0.5c-0.6,0-1.1-0.5-1.1-1.1c0-0.6,0.5-1.1,1.1-1.1
				c0.2,0,5.1,0,7.8,0.5c0.6,0.1,1,0.7,0.9,1.3C251,908,250.5,908.4,250,908.4z"/>
		</g>
		<g>
			<path class="st1" d="M241.7,910.7c-0.6,0-1-0.4-1.1-1c-0.1-0.6,0.4-1.2,1-1.3c0.7-0.1,7-0.9,9.1-0.5c0.6,0.1,1,0.7,0.9,1.3
				c-0.1,0.6-0.7,1-1.3,0.9c-1.3-0.2-5.8,0.2-8.4,0.5C241.8,910.7,241.8,910.7,241.7,910.7z"/>
		</g>
		<g>
			<path class="st1" d="M243.2,913.3c-0.5,0-1-0.4-1.1-0.9c-0.1-0.6,0.3-1.2,0.9-1.3c2.7-0.5,3.5-0.8,4.8-1.2
				c0.6-0.2,1.4-0.4,2.5-0.8c0.6-0.2,1.2,0.2,1.4,0.8c0.2,0.6-0.2,1.2-0.8,1.4c-1.1,0.3-1.8,0.6-2.5,0.8c-1.4,0.4-2.2,0.7-5,1.3
				C243.3,913.3,243.3,913.3,243.2,913.3z"/>
		</g>
		<g>
			<path class="st1" d="M245.6,915.1c-0.5,0-1-0.4-1.1-0.9c-0.1-0.6,0.3-1.2,0.9-1.3c3.6-0.6,4.4-2,4.4-2c0.2-0.6,0.8-0.9,1.4-0.7
				s0.9,0.8,0.7,1.4c-0.1,0.4-1.1,2.7-6.1,3.5C245.8,915.1,245.7,915.1,245.6,915.1z"/>
		</g>
		<path class="st1" d="M250,913.7l-0.9-9.2c0,0,4,0.3,4,4.5C253.1,910.4,252.7,912,250,913.7z"/>
		<g>
			<path class="st1" d="M224.6,883.8c1,3.8-1.3,7.8-5.1,8.8l0,0c-3.8,1-7.8-1.3-8.8-5.1l-1.3-4.8c-1-3.8,1.3-7.8,5.1-8.8l0,0
				c3.8-1,7.8,1.3,8.8,5.1L224.6,883.8z"/>
		</g>
		<g>
			<path class="st8" d="M224,881.3c-0.5,1.5-1.3,3-2.5,4.1c-2.9,2.5-7.3,3.2-10.9,1.7l0.1,0.5c1,3.8,5,6.1,8.8,5.1s6.1-5,5.1-8.8
				L224,881.3z"/>
		</g>
		<path class="st8" d="M210.7,887.2c-2.7-1.7-5.6-8.3-1.4-9.8c2.6-0.9,1.6,7.2,1.6,9.5L210.7,887.2z"/>
		<path class="st8" d="M208.5,878c-3.3-2.4,0.8-9.1,8.9-9.1c5,0,5,3.8,1.5,5.9c-2.9,1.7-7.3,0.7-9.5,3.6L208.5,878z"/>
		<path class="st8" d="M224,882.7c-1.1-1.7-3.4-5.2-4.3-7.2c-0.6-1.3-1.3-3.4,1.2-1.9c2.1,1.3,3.3,5.8,3.1,8L224,882.7L224,882.7z"
			/>
	</g>
</g>
<g>
	<g>
		<path class="st5" d="M166.9,898.7c-1.2,1.1-2.6,2.2-3.7,3.5L147,936.1l12.1-15.6l12.8-26.5C170.3,895.6,168.6,897.2,166.9,898.7z"
			/>
		<path class="st5" d="M157.3,893.2c1.2-1.6,2.3-3.5,3.7-5.2l-28.5-13.9l-27,2.7l47.3,21.8C154.4,896.9,155.9,895.1,157.3,893.2z"/>
		<path class="st4" d="M161.4,888.2c-1.5,1.9-2.7,4.1-4.2,5.9c-1.3,1.6-2.6,3.2-3.9,4.7l21.5,9.9l7.8-10.2L161.4,888.2z"/>
		<path class="st6" d="M129,927.6l8.3-17.4l-43.6-20.9l7-14.6l71.9-42.4l19.6,9.4L163.4,902l11.9,5.7l-8.1,16.9l-11.9-5.7l-8.3,17.4
			L129,927.6z M161.3,860l-1.1-0.5L121.7,882l23.6,11.3L161.3,860z"/>
		<polygon class="st5" points="175.3,907.6 182.5,898.5 176.8,911.2 166.9,925 		"/>
		<path class="st5" d="M172.5,893.5l28.4-62.2l-8.6,10.3l-28.8,60.3C164.2,901.1,172,894,172.5,893.5z"/>
		<polygon class="st17" points="100.7,874.6 113.5,863.5 183.8,823.1 172.6,832.3 		"/>
		<polygon class="st7" points="172.6,832.3 192.2,841.7 200.8,831.3 183.8,823.1 		"/>
	</g>
	<path class="st1" d="M148.5,877.7c-2.4-1.7-4.1-1-5.2-0.8c-1.3,0.2-2.2-0.5-2.2-0.5c-0.5-0.3-1.2-0.2-1.6,0.3
		c-0.3,0.5-0.2,1.2,0.3,1.6c0.1,0,1,0.7,2.8,1.1c-1.9,1.7-3.8,3.8-3.9,3.9c-0.4,0.5-0.4,1.2,0.1,1.6c0.2,0.2,0.5,0.3,0.8,0.3
		s0.6-0.1,0.8-0.4c0,0,1.4-1.5,2.8-2.9c-1.4,1.7-2.7,3.5-2.9,3.9c-0.4,0.5-0.2,1.2,0.3,1.6c0.2,0.1,0.4,0.2,0.7,0.2
		c0.3,0,0.7-0.2,0.9-0.5c0.7-1,1.8-2.4,2.8-3.7c-0.4,0.7-0.8,1.6-1.8,3.1c-0.3,0.5-0.2,1.2,0.4,1.6c0.2,0.1,0.4,0.2,0.6,0.2
		c0.4,0,0.7-0.2,1-0.5c0.4-0.6,0.7-1.1,1-1.6c-0.2,0.5,0,1.1,0.4,1.4c0.2,0.1,0.4,0.2,0.6,0.2c0.4,0,0.7-0.2,0.9-0.5
		c1.1-1.6,1.6-2.9,1.8-4l0,0C150.4,880,149.7,878.5,148.5,877.7z M146.3,885.6c0.4-0.7,0.6-1.1,0.9-1.6
		C146.9,884.4,146.6,885,146.3,885.6z"/>
	<path class="st8" d="M114,890.4c-3.6-0.2-8.7,6.8-3.4,8.7c-4.8-0.1-6,6.7-1.6,8.5c-7.7-1.5-6.8,8.5-3.2,12.1c-2.5-0.4-5,2-4.6,4.5
		c0.4,2.6,1.4,6.2,7.8,8.1c6.4,1.9,10.3-1.7,13.5-5.1c2,4.2,12.1-1.5,11-6.4c3.8,1.3,7.2-3,7.3-6.4c0.1-3.4-2.3-5.9-4.5-8.1
		c1.6-1.4,1.9-4.1,1.5-6.2c-0.7-3.4-4.9-3.7-4.9-6.4c0-0.9,0.2-3.9-0.6-5.2c-1.3-2.1-3.5-4.1-6.3-3.1C114,879.8,114,890.4,114,890.4
		z"/>
	<path class="st0" d="M120.9,999.7c-3.2-0.6-3.8-0.4-7-1.2l-7.4,9.1h28.8l-16.7-4.5L120.9,999.7z"/>
	<path class="st0" d="M174.6,1002.3l-1.7-2.2c-1.5,1-3.1,1.8-4.9,2.4l4.5,5.1h16.9L174.6,1002.3z"/>
	<path class="st0" d="M110.9,999.7c3.2,0.8,6.5,1.6,9.7,2.2l23.8-29.3l-4.1-11.6l-16.7-19.2l4.8,27.2L110.9,999.7z"/>
	<path class="st8" d="M143.2,933.7c-6.5-1.7-15.4,0.5-21.7,2.9c0,0,3.9,15.5,6.5,20.1c7.4,13.5,39.7,47.1,39.7,47.1
		c1.8-0.6,5.2-3.1,6.7-4.1L143.2,933.7z"/>
	<path class="st12" d="M120.7,942.7c6.3-2.4,18.9-6.4,25.4-4.7c0,0-8.6-20.2-12.5-24.6c-2.6-3-17-11.5-17-0.4
		C116.6,928,120.7,942.7,120.7,942.7z"/>
	<g>
		<path class="st1" d="M126.3,911.9c-0.1,0-0.2,0.1-0.3,0.1c-1.9,0.5-3.9-0.6-4.4-2.5c-0.5-2-0.6-4.5-0.6-4.8c0-2,1.6-3.6,3.6-3.6
			s3.6,1.6,3.6,3.6c0,0.7,0.1,2.1,0.3,3C129,909.4,128,911.3,126.3,911.9z"/>
	</g>
	<g>
		<path class="st10" d="M128.7,908.4c0-0.3,0-0.5-0.1-0.8c-0.2-0.8-0.3-2.3-0.3-3c0-2-1.6-3.6-3.6-3.6s-3.6,1.6-3.6,3.6
			c0,0,0,0.2,0,0.3C122.8,907,125.7,907.9,128.7,908.4z"/>
	</g>
	<g>
		<path class="st1" d="M132.2,897.6c1.2,3.6-0.8,7.4-4.4,8.6l0,0c-3.6,1.2-7.4-0.8-8.6-4.4l-1.5-4.5c-1.2-3.6,0.8-7.4,4.4-8.6l0,0
			c3.6-1.2,7.4,0.8,8.6,4.4L132.2,897.6z"/>
	</g>
	<path class="st1" d="M172.3,894c-0.1-0.1-0.3-0.2-0.5-0.2c0.2-0.2,0.3-0.4,0.5-0.6c0.4-0.5,0.4-1.2-0.1-1.6
		c-0.1-0.1-0.1-0.1-0.2-0.1c0.3-0.5,0.3-1.1-0.2-1.5c-0.3-0.3-0.8-0.4-1.2-0.2c0.5-0.5,0.8-0.9,0.9-0.9c0.4-0.5,0.4-1.2-0.1-1.6
		c-0.5-0.4-1.2-0.4-1.6,0.1c0,0-2.5,2.8-5,4.2c-1.1-1.7-2.6-2.2-2.6-2.3c-0.6-0.2-1.2,0.1-1.4,0.6c-0.2,0.6,0.1,1.2,0.6,1.5
		c0,0,0.9,0.4,1.6,1.4c-0.1,0.3-0.2,0.6-0.3,1c-16.6,22.4-38.5,14.5-39.5,14.1c-2-0.8-4.2,0.2-4.9,2.2c-0.8,2,0.2,4.2,2.2,5
		c0.3,0.1,5.6,2.1,13.3,2.1c1.5,0,3.2-0.1,4.9-0.3c8.3-1,20.5-5.7,30.3-18.3c0.2-0.1,0.4-0.2,0.7-0.5c0.2-0.1,0.4-0.3,0.6-0.4l0,0
		c0.6-0.5,1.3-1.2,2.1-2.1C172.8,895.1,172.8,894.4,172.3,894z"/>
	<path class="st2" d="M141.8,908l-0.9,0.2c-2.3,0.5-4.6,0.7-7,0.7c-5.8,0-9.8-1.5-10.3-1.6c-0.5-0.2-1.1-0.3-1.6-0.3
		c-1.9,0-3.5,1.1-4.2,2.9c-0.4,1.1-0.5,2.4,0.1,3.4c2.2,3.9,8.2,5.5,16,5.5c1.7,0,3.3-0.1,5-0.3c1-0.1,2-0.3,3.1-0.5l0.7-0.2
		c0,0-0.9-2.8-1.1-5.7C141.4,911,141.8,908,141.8,908z"/>
	<path class="st8" d="M117.6,900.9c2.4-1.5,3.2-4.3,2.9-7.1c2.1,1.4,3.7,0.5,5-1.9c3.9,5.5,9.9-2.7,1.8-5.6
		c-6.5-2.4-12.9,4.1-11.3,10.6L117.6,900.9z"/>
</g>
<text transform="matrix(1 0 0 1 233.7936 765.6907)" class="st6 st24" style="font-size:34.1705px;">oops!</text>
<text transform="matrix(1 0 0 1 207.1836 790.5422)" class="st24" style="fill:#4D99AD; font-size:21.9435px;">Page not found </text>
<path class="st18" d="M-573.3,1359.9c0,5.7-4.6,10.3-10.3,10.3h-44c-5.7,0-10.3-4.6-10.3-10.3l0,0c0-5.7,4.6-10.3,10.3-10.3h44
	C-577.9,1349.5-573.3,1354.1-573.3,1359.9L-573.3,1359.9z"/>
<text transform="matrix(1 0 0 1 -632.7719 1361.348)" class="st24" style="display:none;fill:#FFFFFF;enable-background:new    ; font-size:5.9746px;">go to homepage </text>
<g>
	<rect x="-400.7" y="443.4" class="st19" width="560.8" height="359"/>
	<g class="st20">
		<g class="st21">
			<g>
				<text transform="matrix(1 0 0 1 -374.4497 582.1659)" class="st27 st24" style="font-size:47.4311px;">Oops!</text>
			</g>
			<rect x="-371.9" y="628.8" class="st22" width="179.5" height="26.7"/>
			<text transform="matrix(1 0 0 1 -371.8911 634.3921)" class="st23 st24 st25">Lorem ipsum dolor sit amet, consectetur adipiscing </text>
			<text transform="matrix(1 0 0 1 -371.8911 646.9921)" class="st23 st24 st25">elit, sed do eiusmod tempor.</text>
			<g>
				<path class="st26" d="M-309.6,698.5h-51.3c-6.1,0-11-4.9-11-11l0,0c0-6.1,4.9-11,11-11h51.3c6.1,0,11,4.9,11,11l0,0
					C-298.5,693.5-303.5,698.5-309.6,698.5z"/>
				<g>
					<text transform="matrix(1 0 0 1 -355.6733 689.4867)" class="st51 st24" style="font-size:6.9072px;">more info</text>
				</g>
			</g>
			<text transform="matrix(1 0 0 1 -373.1704 611.9955)" class="st27 st24 st28">Under construction</text>
		</g>
		<g class="st21">
			<g>
				<text transform="matrix(1 0 0 1 -99.0767 461.2616)" class="st23 st24 st29">Home</text>
			</g>
			<g>
				<text transform="matrix(1 0 0 1 -58.2197 461.2616)" class="st23 st24 st29">About us</text>
			</g>
			<g>
				<text transform="matrix(1 0 0 1 -5.0967 461.2616)" class="st23 st24 st29">Work</text>
			</g>
			<g>
				<text transform="matrix(1 0 0 1 33.6982 461.2616)" class="st23 st24 st29">Info</text>
			</g>
			<text transform="matrix(1 0 0 1 66.9248 461.2616)" class="st26 st24 st29">Contact us</text>
			<g>
				<g>
					<g>
						<text transform="matrix(1 0 0 1 -356.0005 462.4432)" class="st24" style="fill:#252839; font-size:7.5383px;">YOUR LOGO</text>
					</g>
				</g>
				<circle class="st26" cx="-364.7" cy="459.8" r="4.5"/>
			</g>
		</g>
	</g>
	<g>
		<g>
			<path class="st30" d="M121.9,664.1c3.4-11,4.2-22.8,1.8-34c-3.8-17.6-16.1-39-51.6-48.2c-67.2-17.5-90.5-68.5-153.3-52.2
				c0,0-33.7,6.1-49.7,61.9s-78.5,56.7-57,105.3c3.5,7.9,13,16.6,26.6,24.8l254.8-0.9C111.1,699.6,116.6,681.3,121.9,664.1z"/>
		</g>
		<g>
			<path class="st31" d="M61.7,624.2h-9.6v-10.5c0-5.3-3.7-9.6-8.6-10.8v-13H40v12.7c-5.6,0.5-10.1,5.2-10.1,11v10.8h-9.4v12h-0.6
				v22.3l-17.3-0.1V632h-19.8v19.5h-13.9v19h-16.8v50.2H7.9l0,0h12l0,0h70v-63.3H61.7V624.2z"/>
			<polygon class="st31" points="-135.5,651.8 -135.5,626.8 -126.2,626.8 -126.2,613.5 -122.7,613.5 -122.7,626.8 -114,626.8 
				-114,651.8 -104.4,651.8 -104.4,666.8 -89,666.8 -89,615.8 -56.8,615.8 -56.8,720.7 -77.7,720.7 -86.8,720.7 -109.5,720.7 
				-120,720.7 -147.5,720.7 -147.5,651.8 			"/>
		</g>
	</g>
	<g>
		<g>
			<g>
				<path class="st32" d="M40.3,720.5l-146.7,0.1c-5.6,0-10.1-4.5-10.1-10.1l0,0l166.8-0.1l0,0C50.3,716,45.8,720.5,40.3,720.5z"/>
				<path class="st33" d="M40.3,717l-146.7,0.1c-4.3,0-8-2.7-9.4-6.6h-0.6c0,5.6,4.5,10.1,10.1,10.1l146.7-0.1
					c5.6,0,10.1-4.5,10.1-10.1h-0.6C48.3,714.3,44.6,717,40.3,717z"/>
				<path class="st26" d="M-23.6,713.8h-19c-1.9,0-3.4-1.5-3.4-3.4l0,0h25.7l0,0C-20.2,712.3-21.7,713.8-23.6,713.8z"/>
			</g>
			<g>
				<path class="st33" d="M41.8,710.4l-149.6,0.1l-0.1-90.3c0-5.2,4.2-9.4,9.4-9.4l130.9-0.1c5.2,0,9.4,4.2,9.4,9.4L41.8,710.4z"/>
				<rect x="-100.1" y="618.6" class="st34" width="134.1" height="84.1"/>
				<rect x="-100.1" y="694.6" class="st35" width="134.1" height="8"/>
				<rect x="-100.2" y="618.6" class="st35" width="134.1" height="4"/>
				<g>
					<polygon class="st36" points="-55.5,618.6 -100.1,663.3 -100.1,702.7 -100,702.7 -16,618.6 					"/>
					<polygon class="st36" points="-82.8,702.7 -63,702.7 21,618.5 1.2,618.6 					"/>
					<polygon class="st36" points="18.2,702.6 33.9,686.9 33.9,657 -13.4,702.7 					"/>
				</g>
			</g>
		</g>
		<g>
			<g>
				<rect id="XMLID_8_" x="-108" y="654.5" class="st37" width="149.7" height="16.5"/>
			</g>
			<g>
				<defs>
					<rect id="SVGID_1_" x="-108" y="654.5" width="149.7" height="16.5"/>
				</defs>
				<clipPath id="SVGID_2_">
					<use xlink:href="#SVGID_1_"  style="overflow:visible;"/>
				</clipPath>
				<polygon class="st38" points="-89.3,676.8 -102.2,676.8 -91.1,651.5 -78.2,651.5 				"/>
			</g>
			<g>
				<defs>
					<rect id="SVGID_3_" x="-108" y="654.5" width="149.7" height="16.5"/>
				</defs>
				<clipPath id="SVGID_4_">
					<use xlink:href="#SVGID_3_"  style="overflow:visible;"/>
				</clipPath>
				<polygon class="st39" points="-61.8,676.8 -74.7,676.8 -63.6,651.5 -50.7,651.5 				"/>
			</g>
			<g>
				<defs>
					<rect id="SVGID_5_" x="-108" y="654.5" width="149.7" height="16.5"/>
				</defs>
				<clipPath id="SVGID_6_">
					<use xlink:href="#SVGID_5_"  style="overflow:visible;"/>
				</clipPath>
				<polygon class="st40" points="-34.3,676.8 -47.2,676.8 -36.1,651.5 -23.2,651.5 				"/>
			</g>
			<g>
				<defs>
					<rect id="SVGID_7_" x="-108" y="654.5" width="149.7" height="16.5"/>
				</defs>
				<clipPath id="SVGID_8_">
					<use xlink:href="#SVGID_7_"  style="overflow:visible;"/>
				</clipPath>
				<polygon class="st41" points="-6.9,676.8 -19.7,676.8 -8.7,651.5 4.2,651.5 				"/>
			</g>
			<g>
				<defs>
					<rect id="SVGID_9_" x="-108" y="654.5" width="149.7" height="16.5"/>
				</defs>
				<clipPath id="SVGID_10_">
					<use xlink:href="#SVGID_9_"  style="overflow:visible;"/>
				</clipPath>
				<polygon class="st42" points="20.6,676.8 7.7,676.8 18.8,651.5 31.7,651.5 				"/>
			</g>
		</g>
	</g>
	<g>
		<g>
			<g>
				<g>
					<g>
						<path class="st43" d="M-120,626l-2.9,0.1l-1.7-0.5c-0.8-0.2-1.6,0-2.1,0.7l-0.2,0.3l8.6,4.7l1.7-3.5L-120,626z"/>
						<path class="st43" d="M-118.4,631.4l-8.6-4.8l0.3-0.5c0.1-0.1,0.2-0.1,0.3-0.1l8.4,4.7L-118.4,631.4"/>
					</g>
					<polygon class="st44" points="-116.7,627.8 -114.5,623.9 -116.7,619.8 -120,626 					"/>
				</g>
				<path class="st43" d="M-99,605.3c0,0-12.2-3.5-13.4-0.2s-8.3,17.9-8.3,17.9l5.3,2.8l8-13.8l10.7-0.9L-99,605.3z"/>
			</g>
			<g>
				<g>
					<g>
						<path class="st43" d="M-108.9,630.4l-2.4,1.5l-1.8,0.4c-0.8,0.2-1.4,0.8-1.5,1.7v0.4h9.8l-0.3-3.9L-108.9,630.4z"/>
						<path class="st43" d="M-104.8,634.4h-9.9v-0.6c0-0.1,0.1-0.2,0.2-0.2h9.6L-104.8,634.4"/>
					</g>
					<polygon class="st44" points="-105.1,630.4 -104.8,623.9 -108.7,623.4 -108.9,630.4 					"/>
				</g>
				<path class="st45" d="M-97.4,604.7l-11.5,0.5c0,0-1.7,0.1-1.5,4c0.1,3.9,0.1,19.4,0.1,19.4l5.5,0.2l1.1-16.3l11.5-0.1
					c2.4,0,4.7-1.4,5.6-3.6c0.4-0.9,0.5-1.8,0.3-2.8L-97.4,604.7z"/>
			</g>
		</g>
		<g>
			<g>
				<g>
					<path class="st46" d="M-108.3,602.4c0,1.1-0.7,1.3-1.8,1.3c-1.1,0-2.1-0.2-2.1-1.2s0.9-2,2-2
						C-109.2,600.4-108.3,601.3-108.3,602.4z"/>
					<path class="st46" d="M-106.9,603.5h-2.3c-0.6,0-1.1-0.5-1.1-1.1l0,0c0-0.6,0.5-1.1,1.1-1.1h2.3c0.6,0,1.1,0.5,1.1,1.1l0,0
						C-105.8,603-106.3,603.5-106.9,603.5z"/>
				</g>
				<path class="st47" d="M-107,603.7l-0.8-3.7l9.4-1l1.9-11c0.2-1,1.6-2.2,2.6-2l-0.3-0.1c1,0.2,1.9,1.3,1.7,2.3l-1.8,13.1
					c-0.1,0.7-0.7,1.3-1.4,1.4L-107,603.7z"/>
			</g>
			<path class="st48" d="M-88.2,586.2c0.2,0,0.4,0.1,0.6,0.1h0.1c1.6,0.6,2.7,2.4,2.8,4l-1.5,15.6c-9.7-0.1-11.1-1.2-11.1-1.2
				l0.8-15.9c0.1-1.5,0.8-2.9,2.5-3.1l0,0L-88.2,586.2z"/>
			<g>
				<g>
					<g>
						<path class="st44" d="M-98.9,603.6c0.1,1.1-0.7,1.3-1.7,1.4c-1.1,0.1-2.1,0-2.2-1.1s0.7-2,1.8-2.1
							C-100,601.7-99,602.5-98.9,603.6z"/>
						<path class="st44" d="M-97.5,604.6l-2.3,0.2c-0.6,0-1.1-0.4-1.2-1l0,0c0-0.6,0.4-1.1,1-1.2l2.3-0.2c0.6,0,1.1,0.4,1.2,1l0,0
							C-96.4,604.1-96.9,604.6-97.5,604.6z"/>
					</g>
					<path class="st48" d="M-97.6,604.9l-1-3.7l10.2-1.6l-0.6-9.5c0.1-1,1.2-2.1,2.2-2l0,0c1,0.1,2,1.2,1.9,2.2l0.7,11.4
						c-0.1,0.7-0.6,1.3-1.3,1.5L-97.6,604.9z"/>
				</g>
			</g>
			<g>
				<path class="st49" d="M-115.2,592.2l11.2,1.1c0.4,0,0.7,0.3,0.7,0.7l1.2,10.1c0.1,0.5-0.4,0.9-0.8,0.9l-11.3-1.1
					c-0.4,0-0.7-0.3-0.7-0.7l-1-10C-116.1,592.6-115.7,592.2-115.2,592.2z"/>
				<path class="st50" d="M-115.9,592.2l11.2,1.1c0.4,0,0.7,0.3,0.7,0.7l1.2,10.1c0.1,0.5-0.4,0.9-0.8,0.9l-11.3-1.1
					c-0.4,0-0.7-0.3-0.7-0.7l-1-10C-116.8,592.5-116.4,592.1-115.9,592.2z"/>
				<path class="st49" d="M-102.5,604.1l7.6,0.7c0.2,0,0.4,0.2,0.4,0.5l0,0c0,0.2-0.2,0.4-0.5,0.4l-8.1-0.7L-102.5,604.1z"/>
				<circle class="st51" cx="-110.7" cy="598.2" r="1.2"/>
			</g>
			<polygon class="st47" points="-89.3,592.2 -89,599.4 -98.6,601.2 -90.2,598.6 			"/>
		</g>
		<g>
			<g>
				<path class="st44" d="M-94.3,585.3l0.6,1.7c0.2,0.6,0.8,1,1.5,1.1l0,0c1.2,0.1,2.1-1.2,1.7-2.3l-1.1-2.6L-94.3,585.3z"/>
				<path class="st52" d="M-93.8,586.8c0,0,3.1-0.6,2.7-3.3c-0.5-2.7-3.4-0.6-3.4-0.6l0.3,2.7L-93.8,586.8z"/>
				<g>
					<g>
						<g>
							<circle id="XMLID_1_" class="st44" cx="-94.1" cy="580.7" r="4.9"/>
						</g>
						<g>
							<defs>
								<circle id="SVGID_11_" cx="-94.1" cy="580.7" r="4.9"/>
							</defs>
							<clipPath id="SVGID_12_">
								<use xlink:href="#SVGID_11_"  style="overflow:visible;"/>
							</clipPath>
							<path class="st53" d="M-92.3,581.6c0,0-0.8,3.9,2.1,4s1.3-7.4,1.3-7.4l-4.6-4.6l-7,1.7l0.7,4.5c0,0,1.1,0.6,7.2-0.4
								L-92.3,581.6z"/>
						</g>
						<g>
							<defs>
								<circle id="SVGID_13_" cx="-94.1" cy="580.7" r="4.9"/>
							</defs>
							<clipPath id="SVGID_14_">
								<use xlink:href="#SVGID_13_"  style="overflow:visible;"/>
							</clipPath>
							<polygon class="st54" points="-95.2,578.5 -92.9,581.9 -90.9,579.7 							"/>
						</g>
					</g>
					<circle class="st44" cx="-91.8" cy="581.3" r="1.4"/>
				</g>
			</g>
			<g>
				<path class="st37" d="M-99.6,579.8c0,0-1.1-3.9,1.5-6.3c2.1-2,5.5-1.9,7.3,0.3c0.9,1,1.6,2.6,1.6,4.9L-99.6,579.8z"/>
				<path class="st55" d="M-99,579.8v-2.4c0-0.6,0.5-1.1,1.1-1.2l0,0c0.6,0,1.1,0.4,1.2,1l0.2,2.4"/>
				<line class="st56" x1="-89.2" y1="578.8" x2="-100.5" y2="579.9"/>
			</g>
		</g>
	</g>
	<g>
		<g>
			<g>
				<polygon class="st44" points="13.8,709.9 16.3,712.3 13.4,713.9 11,711.5 				"/>
				<path class="st43" d="M-4.1,691.5l1.7,7.5c0.3,1.5,1,2.9,1.9,4.3l11.2,10l4.4-3.6l-9.5-10.1l-3.5-13.3L-4.1,691.5z"/>
				<g>
					<path class="st43" d="M13.4,713.8l-0.9,2.9l-1,1.5c-0.5,0.7-0.5,1.6,0,2.2l0.2,0.3l7.1-6.6l-2.8-2.7L13.4,713.8z"/>
					<polyline class="st43" points="18.9,714.1 11.7,720.8 11.1,720.2 18.3,713.5 18.9,714.1 					"/>
				</g>
			</g>
			<g>
				<polygon class="st44" points="-10.6,714.4 -11.5,717.6 -14.8,716.7 -13.9,713.6 				"/>
				<path class="st45" d="M-6.2,683.2l-9.1,30.9l5.8,1.4l5.1-15.5l6.3-10.1c0.3-0.5,0.6-0.9,0.9-1.4c0.5-0.9,0.7-1.9,0.7-3v-2
					L-6.2,683.2z"/>
				<g>
					<path class="st43" d="M-14.6,716.4l-2.9,1.1l-1.8,0.1c-0.8,0-1.5,0.6-1.7,1.4l-0.1,0.4l9.7,1.6l0.4-3.9L-14.6,716.4z"/>
					<polyline class="st43" points="-11.5,721 -21.2,719.4 -21.1,718.6 -11.3,720.2 -11.5,721 					"/>
				</g>
			</g>
		</g>
		<g>
			<g>
				<g>
					<polygon class="st57" points="-19,651.8 -22.7,657.5 -20.9,658.8 -17.1,652.7 					"/>
					<path class="st58" d="M-23.8,642.2c0,0,1.7,7.1,10.4,10c0.3,0.1,0.4,0.3,0.5,0.6c0.1,0.8,0.1,2.6-1.8,3.1
						c-0.2,0.1-0.4,0-0.5-0.1c-1.3-0.8-7.8-4.6-14.2-3.5L-23.8,642.2z"/>
					<path class="st57" d="M-23.8,642.2c0,0-1.6,7.1-5.7,10C-29.4,652.2-28.9,646-23.8,642.2z"/>
				</g>
				<g>
					<g>
						<g>
							<path class="st44" d="M-23.9,657.2c-0.3,1.3,0.8,2.9,2.1,3.2s2.6-0.6,2.9-1.9c0.3-1.3-0.8-2.9-2.1-3.2
								S-23.6,655.8-23.9,657.2z"/>
						</g>
						<polyline class="st44" points="-16.9,661 -19.5,658.3 -21.2,660.4 -16.9,663.5 						"/>
					</g>
					<path class="st47" d="M-17.3,658.5l-2.7,4l7.4,6.8c0.5,0.1,0.9,0.2,1.4,0.1l9.8-1.3c1.5-0.1,2.7-1.4,2.7-2.9l0,0
						c-0.1-1.5,0.2-3.8-1.3-3.7l-11.4,2.3L-17.3,658.5z"/>
				</g>
			</g>
			<g>
				<g>
					<path class="st48" d="M4.6,667.8c0.3-2.1-0.7-4.3-2.5-5.4c-0.8-0.5-1.6-0.9-2.2-0.8c-2,0.3-4,1.2-4.8,3.8
						c-1.5,4.5-1.9,17.7-1.9,17.7l10.5,0.4L4.6,667.8z"/>
				</g>
				<polygon class="st47" points="0.7,668.1 3.9,679.7 4.5,669.9 				"/>
			</g>
			<g>
				<g>
					<g>
						<path class="st44" d="M13.6,691c1-0.9,1.1-2.8,0.2-3.8c-0.9-1-2.4-1.1-3.4-0.2c-1,0.9-1.1,2.8-0.2,3.8
							C11,691.8,12.6,691.9,13.6,691z"/>
					</g>
					<polyline class="st44" points="8.8,682.7 10.7,687.4 13.3,686.8 11.7,681.7 					"/>
				</g>
				<path class="st48" d="M8.9,686.4l5.3-1.2L10.6,673c-0.1-0.5-0.3-0.9-0.6-1.3l-6.5-8.1c-0.9-1.3-2.4-1-3.6-0.2l0,0
					c-1.3,0.9-1.6,2.6-0.7,3.9l6.3,7.6L8.9,686.4z"/>
			</g>
		</g>
		<g>
			<g>
				<path class="st44" d="M-2.6,660l0.2,1.8c0.1,0.7,0.5,1.2,1.2,1.4l0,0c1.2,0.4,2.4-0.6,2.2-1.9l-0.4-2.9L-2.6,660z"/>
				<path class="st52" d="M-2.4,661.6c0,0,3.2-0.1,3.5-2.9c0.2-2.8-3.2-1.1-3.2-1.1l-0.4,2.8L-2.4,661.6z"/>
				<g>
					<g>
						<g>
							<circle id="XMLID_11_" class="st44" cx="-1.3" cy="655.5" r="5"/>
						</g>
						<g>
							<defs>
								<circle id="SVGID_15_" cx="-1.3" cy="655.5" r="5"/>
							</defs>
							<clipPath id="SVGID_16_">
								<use xlink:href="#SVGID_15_"  style="overflow:visible;"/>
							</clipPath>
							<path class="st59" d="M0.3,656.9c0,0-1.7,3.7,1.1,4.5s3.1-6.9,3.1-6.9l-3.4-5.7l-7.3-0.1l-0.4,4.6c0,0,0.9,0.9,7.1,1.4
								L0.3,656.9z"/>
						</g>
						<g>
							<defs>
								<circle id="SVGID_17_" cx="-1.3" cy="655.5" r="5"/>
							</defs>
							<clipPath id="SVGID_18_">
								<use xlink:href="#SVGID_17_"  style="overflow:visible;"/>
							</clipPath>
							<polygon class="st60" points="-1.8,653.2 -0.3,657.1 2.2,655.4 							"/>
						</g>
					</g>
					<circle class="st44" cx="0.9" cy="656.7" r="1.4"/>
				</g>
			</g>
			<g>
				<path class="st37" d="M-6.4,653.8c0,0-0.2-4.1,2.8-5.9c2.5-1.5,5.8-0.7,7.2,1.9c0.6,1.2,1,2.9,0.6,5.2L-6.4,653.8z"/>
				<path class="st61" d="M-5.9,653.8l0.5-2.4c0.1-0.6,0.7-1,1.3-0.9l0,0c0.6,0.1,1,0.7,1,1.3l-0.3,2.4"/>
				<line class="st62" x1="4.1" y1="655" x2="-7.3" y2="653.7"/>
			</g>
		</g>
	</g>
	<g>
		<g>
			<line class="st63" x1="73.8" y1="684.5" x2="62" y2="696.2"/>
			<line class="st63" x1="73.8" y1="672.1" x2="62" y2="683.7"/>
			<line class="st63" x1="73.8" y1="659.6" x2="62" y2="671.3"/>
			<line class="st63" x1="73.8" y1="647.2" x2="62" y2="658.8"/>
			<line class="st63" x1="73.8" y1="634.7" x2="62" y2="646.4"/>
			<line class="st63" x1="73.8" y1="622.3" x2="62" y2="633.9"/>
			<line class="st63" x1="73.8" y1="609.8" x2="62" y2="621.5"/>
			<line class="st63" x1="73.8" y1="597.4" x2="62" y2="609"/>
			<line class="st63" x1="73.8" y1="584.9" x2="62" y2="596.6"/>
			<line class="st63" x1="73.8" y1="572.5" x2="62" y2="584.1"/>
			<line class="st63" x1="73.8" y1="560" x2="62" y2="571.7"/>
			<line class="st63" x1="62" y1="683.7" x2="73.8" y2="683.7"/>
			<line class="st63" x1="62" y1="671.3" x2="73.8" y2="671.3"/>
			<line class="st63" x1="62" y1="658.8" x2="73.8" y2="658.8"/>
			<line class="st63" x1="62" y1="646.4" x2="73.8" y2="646.4"/>
			<line class="st63" x1="62" y1="633.9" x2="73.8" y2="633.9"/>
			<line class="st63" x1="62" y1="621.5" x2="73.8" y2="621.5"/>
			<line class="st63" x1="62" y1="609" x2="73.8" y2="609"/>
			<line class="st63" x1="62" y1="596.6" x2="73.8" y2="596.6"/>
			<line class="st63" x1="62" y1="584.1" x2="73.8" y2="584.1"/>
			<line class="st63" x1="62" y1="571.7" x2="73.8" y2="571.7"/>
			<line class="st64" x1="62" y1="699.5" x2="62" y2="562"/>
			<line class="st64" x1="73.8" y1="699.5" x2="73.8" y2="562"/>
			<rect x="55.9" y="696.2" class="st45" width="23.5" height="24.4"/>
		</g>
		<g>
			<g>
				<path class="st32" d="M73.8,562H61.5c-2.2,0-3.9-1.8-3.9-3.9v-15.4c0-2.2,1.8-3.9,3.9-3.9h12.3c2.2,0,3.9,1.8,3.9,3.9v15.4
					C77.8,560.3,76,562,73.8,562z"/>
				<path class="st65" d="M67.4,555.3h-7.9v-10.9h7.9c1.6,0,3,1.3,3,3v4.9C70.3,553.9,69,555.3,67.4,555.3z"/>
			</g>
			<g>
				<g>
					<line class="st66" x1="-16" y1="563.3" x2="-6.5" y2="590.8"/>
					<line class="st66" x1="-22.5" y1="560" x2="-41" y2="584.9"/>
					<g>
						<path class="st37" d="M-17,572.3l19,24.9c2.1,2.7,1.6,6.7-1.2,8.8l-24.9,19c-2.7,2.1-6.7,1.6-8.8-1.2l-19-24.9
							c-2.1-2.7-1.6-6.7,1.2-8.8l24.9-19C-23.1,569-19.1,569.5-17,572.3z"/>
						<path class="st22" d="M-18.5,576.9l15.6,20.4c1.7,2.2,1.3,5.4-1,7.2l-20.4,15.6c-2.2,1.7-5.4,1.3-7.2-1L-47,598.7
							c-1.7-2.2-1.3-5.4,1-7.2l20.4-15.6C-23.4,574.3-20.2,574.7-18.5,576.9z"/>
						<g>
							<path class="st45" d="M-23.3,607.3c-0.5,3.7-6.1,3-5.6-0.7C-28.4,602.8-22.8,603.6-23.3,607.3z M-20.9,586.7l-2.2,15.5
								l-4.7-0.6c0.7-5.2,1.3-10.3,2-15.6L-20.9,586.7z"/>
						</g>
					</g>
				</g>
				<g>
					<g>
						<circle class="st45" cx="-18.7" cy="557.7" r="7.9"/>
						<circle class="st67" cx="-18.7" cy="557.7" r="5.6"/>
					</g>
					<g>
						<line class="st63" x1="12.3" y1="522" x2="12.3" y2="538.7"/>
						<line class="st63" x1="-2.7" y1="522" x2="-2.7" y2="538.7"/>
						<line class="st63" x1="27.3" y1="522" x2="27.3" y2="538.7"/>
						<line class="st63" x1="43.9" y1="522" x2="43.9" y2="538.7"/>
						<line class="st63" x1="59.4" y1="522" x2="59.4" y2="538.7"/>
						<line class="st63" x1="75.5" y1="522" x2="75.5" y2="538.7"/>
						<line class="st63" x1="91.3" y1="522" x2="91.3" y2="538.7"/>
						<line class="st63" x1="-3.5" y1="538.7" x2="12.3" y2="522"/>
						<line class="st63" x1="12.3" y1="538.7" x2="28.1" y2="522"/>
						<line class="st63" x1="28.1" y1="538.7" x2="43.9" y2="522"/>
						<line class="st63" x1="43.9" y1="538.7" x2="59.7" y2="522"/>
						<line class="st63" x1="59.7" y1="538.7" x2="75.5" y2="522"/>
						<line class="st63" x1="75.5" y1="538.7" x2="91.3" y2="522"/>
						<polygon class="st68" points="-18.7,538.7 110.2,538.7 92.8,522 -5.3,522 						"/>
						<line class="st68" x1="-18.7" y1="538.7" x2="-18.7" y2="557.7"/>
					</g>
				</g>
			</g>
		</g>
	</g>
	<g>
		<g>
			<g>
				<g>
					<path id="XMLID_4_" class="st37" d="M-86.8,718.3l9-23.3c0.4-1.1,2-1.1,2.4,0l9,23.3H-86.8z"/>
				</g>
				<g>
					<defs>
						<path id="SVGID_19_" d="M-86.8,718.3l9-23.3c0.4-1.1,2-1.1,2.4,0l9,23.3H-86.8z"/>
					</defs>
					<clipPath id="SVGID_20_">
						<use xlink:href="#SVGID_19_"  style="overflow:visible;"/>
					</clipPath>
					<rect x="-84.7" y="700" class="st69" width="16" height="4.9"/>
				</g>
				<g>
					<defs>
						<path id="SVGID_21_" d="M-86.8,718.3l9-23.3c0.4-1.1,2-1.1,2.4,0l9,23.3H-86.8z"/>
					</defs>
					<clipPath id="SVGID_22_">
						<use xlink:href="#SVGID_21_"  style="overflow:visible;"/>
					</clipPath>
					<rect x="-85.6" y="709.4" class="st70" width="18.1" height="4.9"/>
				</g>
			</g>
			<rect x="-88.4" y="718.3" class="st71" width="23.9" height="2"/>
		</g>
		<g>
			<g>
				<g>
					<path id="XMLID_3_" class="st37" d="M44.2,718.4l9-23.3c0.4-1.1,2-1.1,2.4,0l9,23.3H44.2z"/>
				</g>
				<g>
					<defs>
						<path id="SVGID_23_" d="M44.2,718.4l9-23.3c0.4-1.1,2-1.1,2.4,0l9,23.3H44.2z"/>
					</defs>
					<clipPath id="SVGID_24_">
						<use xlink:href="#SVGID_23_"  style="overflow:visible;"/>
					</clipPath>
					<rect x="46.3" y="700.1" class="st72" width="16" height="4.9"/>
				</g>
				<g>
					<defs>
						<path id="SVGID_25_" d="M44.2,718.4l9-23.3c0.4-1.1,2-1.1,2.4,0l9,23.3H44.2z"/>
					</defs>
					<clipPath id="SVGID_26_">
						<use xlink:href="#SVGID_25_"  style="overflow:visible;"/>
					</clipPath>
					<rect x="45.4" y="709.5" class="st73" width="18.1" height="4.9"/>
				</g>
			</g>
			<rect x="42.5" y="718.4" class="st71" width="23.9" height="2"/>
		</g>
	</g>
	<g>
		<g>
			<circle class="st33" cx="-135.8" cy="679.4" r="18.7"/>
			<g>
				<line class="st74" x1="-135.8" y1="672.7" x2="-135.8" y2="720.3"/>
				<line class="st74" x1="-143" y1="673.7" x2="-135.8" y2="681.8"/>
				<path class="st74" d="M-129.3,681.4c-0.5,0.5-6.5,6.7-6.5,6.7"/>
			</g>
		</g>
		<line class="st74" x1="-192.1" y1="720.8" x2="122" y2="720.8"/>
	</g>
</g>
<text transform="matrix(1 0 0 1 -219 577.64)" class="st34 st75 st76">COMING</text>
<text transform="matrix(1 0 0 1 -219 613.64)" class="st34 st75 st76">SOON</text>
</svg>
