<svg height="512pt" viewBox="0 -14 512 512" width="512pt" xmlns="http://www.w3.org/2000/svg"><path d="m472.335938 0h-432.671876c-21.871093 0-39.664062 17.792969-39.664062 39.664062v314.40625c0 21.871094 17.792969 39.664063 39.664062 39.664063h161.714844v59.226563h-36.242187c-8.363281 0-15.144531 6.78125-15.144531 15.144531s6.78125 15.144531 15.144531 15.144531h181.722656c8.363281 0 15.144531-6.78125 15.144531-15.144531s-6.78125-15.144531-15.144531-15.144531h-36.246094v-59.226563h161.722657c21.871093 0 39.664062-17.792969 39.664062-39.664063v-314.40625c0-21.871093-17.792969-39.664062-39.664062-39.664062zm-432.671876 30.289062h432.671876c5.171874 0 9.375 4.203126 9.375 9.375v257.152344h-451.421876v-257.152344c0-5.171874 4.203126-9.375 9.375-9.375zm240.660157 422.671876h-48.65625v-59.226563h48.65625zm192.011719-89.515626h-432.671876c-5.171874 0-9.375-4.207031-9.375-9.375v-26.96875h451.421876v26.96875c0 5.171876-4.203126 9.375-9.375 9.375zm0 0"/><path d="m221.96875 221.183594v24.128906c0 8.363281 6.78125 15.144531 15.144531 15.144531h99.746094c8.363281 0 15.144531-6.78125 15.144531-15.144531v-99.746094c0-8.363281-6.78125-15.144531-15.144531-15.144531h-24.125c-7.058594-35.300781-38.28125-61.980469-75.625-61.980469-42.523437 0-77.121094 34.597656-77.121094 77.125 0 37.339844 26.683594 68.5625 61.980469 75.617188zm99.75 8.984375h-69.460938v-8.984375c30.398438-6.074219 54.398438-30.078125 60.476563-60.476563h8.984375zm-69.464844-40.292969v-29.167969h29.167969c-4.683594 13.660157-15.507813 24.484375-29.167969 29.167969zm-15.140625-91.148438c20.523438 0 37.996094 13.28125 44.308594 31.695313h-44.308594c-8.363281 0-15.144531 6.777344-15.144531 15.140625v44.308594c-18.414062-6.308594-31.691406-23.78125-31.691406-44.308594 0-25.824219 21.007812-46.835938 46.835937-46.835938zm0 0"/></svg>