<?xml version="1.0" encoding="utf-8"?>
<!-- Generator: Adobe Illustrator 19.0.0, SVG Export Plug-In . SVG Version: 6.00 Build 0)  -->
<svg version="1.1" id="OBJECTS" xmlns="http://www.w3.org/2000/svg" xmlns:xlink="http://www.w3.org/1999/xlink" x="0px" y="0px"
	 viewBox="-233 9 352.9 296" style="enable-background:new -233 9 352.9 296;" xml:space="preserve">
<style type="text/css">
	.st0{display:none;}
	.st1{display:inline;fill:#002E4F;}
	.st2{display:inline;}
	.st3{fill:#00A4E2;}
	.st4{fill:#E1F3F6;}
	.st5{fill:#008DC4;}
	.st6{fill:#00AFE2;}
	.st7{fill:#006091;}
	.st8{fill:#0076AD;}
	.st9{fill:#00D2FD;}
	.st10{display:inline;fill:#E1F3F6;}
	.st11{display:inline;fill:#00396A;}
	.st12{display:inline;fill:none;stroke:#20C6F0;stroke-width:7.6539;stroke-linecap:round;stroke-miterlimit:10;}
	.st13{fill:#0086CF;}
	.st14{display:inline;fill:#0089E0;}
	.st15{fill:#CDE5E8;}
	.st16{fill:#00396A;}
	.st17{fill:#002E4F;}
	.st18{fill:#F6EE9E;}
	.st19{fill:#F8FDFF;}
	.st20{fill:none;stroke:#DDDD67;stroke-width:0.8679;stroke-miterlimit:10;}
	.st21{fill:none;stroke:#DDDD67;stroke-width:0.755;stroke-miterlimit:10;}
	.st22{fill:#009EE7;}
	.st23{display:inline;fill:#00A4E2;}
	.st24{display:inline;fill:#CDE5E8;}
	.st25{display:none;fill:#68C04D;}
	.st26{fill:#2121DB;}
	.st27{font-family:'Montserrat-ExtraBold';}
	.st28{font-size:35px;}
</style>
<g class="st0">
	<path class="st1" d="M-524.4,569.6c-2.5,3.2-5.4,5.7-4.8,6.8c0,0,1.3,1,5,1c6.3,0,12.5-0.5,11.5-1.1c-1.4-0.9-5.5-1.2-9.4-2.6
		c-1-0.3,2.1-2.2,1.3-2.5C-522.6,570.6-523.9,570-524.4,569.6z"/>
	<path class="st1" d="M-459.4,576.2c0,0,0.8,1.2,4,1.2c5.5,0,11.1-0.7,10.3-1.3c-1.2-0.8-10.8-2.8-10.8-2.8l-2.1-2.7l-3.6,2
		L-459.4,576.2z"/>
	<g class="st2">
		<path class="st3" d="M-476.7,495.9c-3.9,0-6.9-0.8-7.1-0.8c-2-0.6-3.2-2.7-2.7-4.7c0.6-2,2.7-3.2,4.7-2.7c0.1,0,8.7,2.2,13.8-2.1
			c3.4-2.9,4.6-8.3,3.8-16.2l-0.3-2.5l7.7-4.4c1.8-1,4.2-0.4,5.2,1.4s0.4,4.2-1.4,5.2l-3.4,1.9c0.5,9.2-1.7,16-6.7,20.3
			C-467.3,495-472.5,495.9-476.7,495.9z"/>
	</g>
	<g class="st2">
		<path class="st4" d="M-463.5,474.6c-0.1,5.6-1.6,9.6-4.4,12c-5.5,4.7-14.9,2.3-15.1,2.3c-2.2-0.6-4.5,0.7-5.1,3
			c-0.6,2.2,0.7,4.5,2.9,5.2c0.3,0.1,3.5,1.7,7.8,1.5c16.3-0.6,26.1-14.6,26.3-22.8L-463.5,474.6z"/>
	</g>
	<g class="st2">
		<path class="st5" d="M-485.9,455.2c-1.5-0.7-2.9-1.4-4.3-2.1c-13.5,7.7-30.7,17.5-31.1,17.9c0,0,8.6,13.6,9.1,14.2
			c0.4,0.4,21.6-14.9,36.9-25.9C-478.8,457.8-482.4,456.7-485.9,455.2z"/>
		<path class="st6" d="M-485.6,454.8c3.5,1.6,7.2,2.7,10.8,4.1c8.4-6.1,14.9-10.8,14.9-10.8l-14.4-4c0,0-6.9,3.9-15.4,8.8
			C-488.4,453.5-487,454.2-485.6,454.8z"/>
		<polygon class="st7" points="-510.4,436.9 -502,459.8 -485.4,465.9 -506.4,427.6 		"/>
		<polygon class="st7" points="-484.5,471.5 -496.8,471.5 -485.9,490.6 -469.2,497.6 		"/>
		<path class="st8" d="M-469.2,497.6l-9.8-16.7l-41.8,24.5l-8.2-14l5.2-83.3l18.8-11l33.8,57.6l11.4-6.7l9.5,16.1l-11.4,6.7
			l9.8,16.7L-469.2,497.6z M-507.1,432.9l-1.1,0.6l-2.9,44.5l22.6-13.3L-507.1,432.9z"/>
		<polygon class="st5" points="-542.8,487.6 -529,491.4 -520.7,505.4 -535.4,501.7 		"/>
		<polygon class="st6" points="-542.8,487.6 -529,491.4 -523.8,408.1 -536.5,405.1 		"/>
		<polygon class="st9" points="-536.5,405.1 -523.8,408.1 -505,397.1 -517.9,393.3 		"/>
	</g>
	<path class="st1" d="M-508.6,520.8c0,0,2,22,2,29.7c0,0-16,12.5-20,19c1.7,1.3,5,3,7.2,2.9c10.7-10.2,22.4-17.5,22.4-17.5
		s5.1-14.7,6.6-27.1L-508.6,520.8z"/>
	<path class="st10" d="M-497.2,521.8c3.6,0,7.3-0.6,10.4-2.3c-1-4.4,1.2-17.4,4-24.3c0,0,2.2-4.8,0.7-6.3c-5.7-5.5-10.6-5-12.1-5.1
		c-5.2,4.4-15,17.5-14.6,34.7C-506.1,521.4-500.7,521.8-497.2,521.8z"/>
	<path class="st11" d="M-461.8,573.3c2.1-0.6,4.1-1.5,5.4-3.3c-6.2-10-28.9-46.9-30.1-49.8c0-0.1-0.1-0.2-0.1-0.2
		c-3.3,1.8-7.3,2.4-11.2,2.3c-3.4-0.1-8.2-0.6-11-3.1c0,0.2,0,0.4,0,0.5c0.5,9.6,32.4,41.7,45,54
		C-463.1,573.6-462.4,573.4-461.8,573.3z"/>
	<g class="st2">
		<path class="st3" d="M-527.7,511.8c-0.9,0-1.7-0.1-2.6-0.4c-1.7-0.6-3.9-2-5-5.5c-0.6-2,0.6-4.2,2.6-4.8s4.2,0.6,4.8,2.6
			c0.1,0.2,0.1,0.4,0.2,0.5c0.4,0,1.9-0.1,5.6-2.3c3.3-1.9,7.2-4.8,11-7.6c6.4-4.7,12.4-9.2,17.4-10.7c2-0.6,4.2,0.5,4.8,2.5
			c0.6,2-0.5,4.2-2.5,4.8c-3.8,1.2-9.5,5.5-15.1,9.6C-514.8,506.5-522,511.8-527.7,511.8z"/>
	</g>
	<g class="st2">
		<path class="st3" d="M-520.6,509c-0.5-2.3-1-4.7-2.4-6.6c-3.1,1.7-4.4,1.8-4.8,1.8c0-0.1-0.1-0.2-0.2-0.5c-0.6-2-2.7-3.2-4.8-2.6
			c-2,0.6-3.2,2.7-2.6,4.8c1.1,3.6,3.3,5,5,5.5c0.8,0.3,1.7,0.4,2.6,0.4c2.2,0,4.7-0.8,7.3-2.1C-520.5,509.5-520.5,509.2-520.6,509z
			"/>
		<path class="st4" d="M-489,486.1c-0.6-2-2.8-3.1-4.8-2.5c-5,1.6-11,6-17.4,10.7c-3.8,2.8-7.7,5.7-11,7.6c-0.2,0.1-0.3,0.2-0.4,0.3
			c1.4,1.9,3.9,11.2,4,11.4c4.1-2.1,23.5-16.9,27.7-21.4C-489.4,490.6-488.4,488.1-489,486.1z"/>
	</g>
	<path class="st12" d="M-537.9,501.7"/>
	<g class="st2">
		<path class="st3" d="M-533.1,508.8c-0.2,0-0.5-0.1-0.7-0.2c-3-2.1-4.6-6.3-4.6-6.5c-0.2-0.6,0.1-1.2,0.7-1.4
			c0.6-0.2,1.2,0.1,1.4,0.7l0,0c0,0,1.4,3.7,3.8,5.4c0.5,0.4,0.6,1.1,0.3,1.6C-532.4,508.6-532.8,508.8-533.1,508.8z"/>
	</g>
	<g class="st2">
		<path class="st3" d="M-533.1,506c-0.4,0-0.7-0.2-0.9-0.5c-1.4-2-2.6-6.9-2.7-7.4c-0.1-0.6,0.2-1.2,0.8-1.4
			c0.6-0.1,1.2,0.2,1.4,0.8c0.3,1.4,1.4,5.2,2.4,6.6c0.4,0.5,0.2,1.2-0.3,1.6C-532.7,505.9-532.9,506-533.1,506z"/>
	</g>
	<g class="st2">
		<path class="st3" d="M-531.6,505.4c-0.4,0-0.9-0.3-1-0.7c-1-2.5-1.4-7.8-1.5-8.1c0-0.6,0.4-1.2,1-1.2c0.6-0.1,1.2,0.4,1.2,1
			c0.1,1.4,0.5,5.5,1.3,7.4c0.2,0.6,0,1.2-0.6,1.5C-531.3,505.3-531.4,505.4-531.6,505.4z"/>
	</g>
	<g class="st2">
		<path class="st3" d="M-529.9,504.8c-0.5,0-1-0.3-1.1-0.8c-0.7-2.8-0.1-5.6,0-5.7c0.1-0.6,0.8-1,1.4-0.8c0.6,0.1,1,0.7,0.8,1.4
			c0,0.1-0.5,2.4,0,4.6c0.2,0.6-0.2,1.2-0.8,1.4C-529.7,504.8-529.8,504.8-529.9,504.8z"/>
	</g>
	<g class="st2">
		<path class="st3" d="M-484.6,492.2c-0.5,0-1-0.1-1.5-0.3c-1.8-0.8-2.6-3-1.7-4.8c0.9-1.9,2.5-3.8,2.7-4c1.3-1.5,3.6-1.7,5.1-0.4
			c1.5,1.3,1.7,3.6,0.4,5.1l0,0c-0.5,0.5-1.3,1.7-1.7,2.5C-482,491.4-483.3,492.2-484.6,492.2z"/>
	</g>
	<g class="st2">
		<path class="st13" d="M-484.1,490.3c0.4,0.5,0.9,0.9,1.3,1.3c0.6-0.4,1.1-0.9,1.4-1.5c0.4-0.8,1.2-1.9,1.7-2.5
			c1.3-1.5,1.1-3.8-0.4-5.1s-3.8-1.1-5.1,0.4c-0.1,0.1-0.4,0.4-0.7,0.9C-485.9,486.2-485.7,488.6-484.1,490.3z"/>
	</g>
	<g class="st2">
		<path class="st3" d="M-472.3,486.4c-1.4,3.5-5.4,5.1-8.9,3.7l0,0c-3.5-1.4-5.1-5.4-3.7-8.9l1.8-4.4c1.4-3.5,5.4-5.1,8.9-3.7l0,0
			c3.5,1.4,5.1,5.4,3.7,8.9L-472.3,486.4z"/>
	</g>
	<path class="st11" d="M-484.1,480.7c-0.6,2.3-3.9,1.6-5.2,0.4c-1.7-1.7-2.8-6.4,1.1-6.2c-2.8-4.2,6.6-8.7,7.6-3.9
		c0.7-1.2,1.5-2.4,3.1-2.5c1.2-0.1,3.2,0.8,3.1,2.3c1.8-1.4,4.3-1.3,6,0.1c0.6,0.4,1.6,1.4,1.1,2.2c-0.3,0.4-1.7,0.5-2.2,0.7
		c0.8-0.4,4.2,0.4,3.5,1.8c-0.3,0.7-1.9,0.1-2.4-0.1c0,0,0,0.2,0,0.1c1.8,1,2.5,2,2.3,4.2c-0.1,1-0.6,3-1.8,3.1
		c-0.6,0.1-1.3-0.3-1.3-1c1.5,1.5-0.6,5.5-2.5,3.5c-0.7-0.8-0.4-2.1,0.3-2.7c-1.1-0.6-3.5-4-1.8-5c-0.8,0-4.5-1.2-3.4-2.3
		c0.3,1.2-1.2,2.9-2.5,2.2c0.8,1.7-1.5,2.9-2.9,3c0.8,1.1-1.8,2.3-2.6,0.8L-484.1,480.7z"/>
</g>
<g class="st0">
	<path class="st14" d="M-583.1,328.1c0,0-2.2-8.4,8.7-10.4l-0.8,10.1L-583.1,328.1z"/>
	<g class="st2">
		<path class="st15" d="M-626.5,349.2c-2.4,0-4.6-0.5-6.6-1.4c-9.8-4.7-10.9-18.6-11-19.2c-0.1-2.1,1.4-3.9,3.5-4.1
			c2.1-0.1,3.9,1.4,4.1,3.5c0.2,2.8,1.8,10.6,6.6,12.9c4,1.9,10.1,0,17.8-5.5c1.7-1.2,4.1-0.8,5.3,0.9c1.2,1.7,0.8,4.1-0.9,5.3
			C-614.7,346.6-621.1,349.2-626.5,349.2z"/>
	</g>
	<g class="st2">
		<g>
			<path class="st6" d="M-606.2,356.4c1.1-2.8,2.1-5.6,3.2-8.4c-0.8-0.1-1.6-0.2-2.3-0.3c-3.7-0.7-6.9-2.2-9.4-4.5
				c-2.6-2.3-4.6-5.2-6-8.8c-1.4-3.5-2.2-7.6-2.4-12.1c-0.2-4.5,0.1-9.3,1.1-14.3c1-5.1,2.4-9.7,4.3-13.8c1.9-4.1,4.1-7.5,6.7-10.3
				c2.6-2.8,5.5-4.8,8.8-6c3.2-1.2,6.7-1.4,10.4-0.7c2.9,0.6,5.5,1.7,7.8,3.3c1.1-2.2,2.3-4.3,3.4-6.4c1.3-2.5,2.5-5.1,3.7-7.6
				c0.5-1.1,0.9-2.2,1.4-3.4c-3.8-2.1-8-3.7-12.7-4.6c-6.6-1.3-12.9-1-18.7,0.7c-5.8,1.7-11.1,4.7-15.8,8.8s-8.7,9.2-11.9,15.4
				c-3.3,6.2-5.6,13.1-7.1,20.7s-1.8,14.9-1.1,21.9c0.8,7,2.5,13.2,5.4,18.7c2.8,5.5,6.7,10.2,11.5,14c4.5,3.5,9.7,5.9,15.8,7.3
				C-608.8,362.9-607.4,359.6-606.2,356.4z"/>
			<path class="st7" d="M-554.3,298.8c-0.8-7-2.5-13.2-5.4-18.7c-2.8-5.5-6.7-10.2-11.4-14c-1.3-1-2.6-1.9-4.1-2.8
				c-0.4,1.1-0.9,2.3-1.4,3.4c-1.2,2.6-2.4,5.1-3.7,7.6c-1.1,2.1-2.3,4.3-3.4,6.5c0.4,0.3,0.8,0.6,1.1,0.9c2.6,2.3,4.6,5.2,6,8.8
				c1.5,3.6,2.3,7.6,2.5,12c0.2,4.5-0.1,9.3-1.1,14.4c-1,5-2.4,9.6-4.3,13.7c-1.9,4.1-4.1,7.6-6.8,10.3c-2.7,2.8-5.6,4.8-8.9,6
				c-2.4,0.9-4.9,1.3-7.5,1.1c-1.3,3-2.3,6.1-3.5,9.2c-1.1,3-2.4,6-3.8,8.9c0.3,0.1,0.6,0.1,0.9,0.2c6.6,1.3,12.9,1,18.7-0.7
				c5.8-1.7,11.1-4.7,15.8-8.8c4.7-4.1,8.7-9.2,11.9-15.4c3.3-6.2,5.6-13.1,7.1-20.7C-553.9,313.1-553.6,305.8-554.3,298.8z"/>
		</g>
		<g>
			<path class="st8" d="M-597.2,370.3c-6.6-1.3-12.3-3.8-17.1-7.6c-4.8-3.8-8.6-8.4-11.4-14c-2.8-5.5-4.6-11.8-5.4-18.7
				c-0.8-7-0.4-14.2,1.1-21.9c1.5-7.6,3.8-14.5,7.1-20.7c3.3-6.2,7.2-11.3,11.9-15.4c4.7-4.1,9.9-7,15.8-8.8
				c5.8-1.7,12.1-2,18.7-0.7s12.3,3.8,17.1,7.6c4.8,3.8,8.6,8.4,11.5,14c2.8,5.5,4.6,11.8,5.4,18.7c0.8,7,0.4,14.2-1.1,21.9
				c-1.5,7.6-3.8,14.5-7.1,20.7s-7.2,11.3-11.9,15.4c-4.7,4.1-9.9,7-15.8,8.8C-584.3,371.3-590.6,371.6-597.2,370.3z M-593.6,351.6
				c3.6,0.7,7,0.4,10.3-0.8c3.2-1.2,6.2-3.2,8.9-6c2.7-2.8,4.9-6.2,6.8-10.3c1.9-4.1,3.3-8.7,4.3-13.7c1-5.1,1.3-9.9,1.1-14.4
				c-0.2-4.5-1.1-8.5-2.5-12c-1.5-3.6-3.5-6.5-6-8.8c-2.6-2.3-5.7-3.8-9.3-4.5c-3.7-0.7-7.2-0.5-10.4,0.7c-3.2,1.2-6.2,3.2-8.8,6
				c-2.6,2.8-4.8,6.2-6.7,10.3s-3.3,8.7-4.3,13.8c-1,5-1.3,9.8-1.1,14.3c0.2,4.5,1,8.5,2.4,12.1c1.4,3.5,3.4,6.5,6,8.8
				C-600.5,349.4-597.3,350.9-593.6,351.6z"/>
		</g>
	</g>
	<g class="st2">
		<path class="st16" d="M-529.7,314.1l0.3,14.1c0,0-4,3.6-7.6,0l1.3-15.8L-529.7,314.1z"/>
		<path class="st17" d="M-546.2,426.3c-0.2-0.2-1.8-0.9-2-1.1c-0.8,1.3-1.4,2-2.4,3c2.5,2.2,1.8,4.8,1.8,4.8s-1.8,1.5-2.4,1.8
			c-2.2,1.1-6.2,2.6-6.2,2.6l10.2,0.8l7.5-7.7C-542.5,429-544.5,427.7-546.2,426.3z"/>
		<path class="st17" d="M-586.1,426.9c-1.6-0.3-3.7,1-5,0c-0.3,2.8-0.2,4.4-0.2,4.4l-15,6.2h19.2c0.2-2-0.2-4,0.1-5.9
			C-586.9,430.6-586.2,427.8-586.1,426.9z"/>
		<path class="st15" d="M-568.6,358.6l-17,32.3c0,0,6.9,5.8,13.7,7.8l12.7-38.1L-568.6,358.6z"/>
		<path class="st17" d="M-549.9,429.1c1-1,1.9-2.3,2.7-3.6c-4.4-3.8-6.5-7.7-12.5-14.3c-2.5-2.8,4.1-18.6,5.7-21.3
			c2.9-4.8,3.3-8.2,5.5-16.4l-16.6,6.2c-4,14.2-8.6,28.3-3.9,35.1c4.9,7.1,13.5,12.9,17.7,15.8C-551.2,430.6-550.1,429-549.9,429.1z
			"/>
		<g>
			<path class="st3" d="M-577.9,326.4c-0.2,0-0.5-0.1-0.7-0.2c-0.5-0.4-0.6-1.1-0.3-1.6c1.3-1.9,1.6-3.4,1.6-3.4
				c0.1-0.6,0.7-1,1.3-0.9s1,0.7,0.9,1.3c0,0.1-0.4,2-2,4.3C-577.2,326.2-577.5,326.4-577.9,326.4z"/>
		</g>
		<path class="st18" d="M-549.8,376.9c4.9-13.6,9.2-34.9,10.7-43.4c-0.9-0.4-1.7-0.6-2.4-0.8c-1.5-0.4-3.2-0.9-4.7-0.4
			c-0.8,0.2-1.4,0.6-2.1,1c-0.6,1.8-0.9,3.4-0.9,3.4s-10.6,20.3-17.5,34.1C-560.8,372.2-555.1,374.2-549.8,376.9z"/>
		<path class="st16" d="M-566.9,371.3L-566.9,371.3c-0.6,1.2-1.2,2.4-1.7,3.5l0,0c-1.4,2.4-2.8,4.6-4.2,6.8
			c-13.7,20.6-18.8,37-19.7,44.8c1.3,1,6.2,1.6,7.9,1.9c2.5-12.9,9.1-21.1,20.8-30.8c3.9-3.3,6.9-7.4,9.5-10.8
			c1.5-2,3.1-5.3,4.5-9.3C-555.2,374.6-561,372.6-566.9,371.3z"/>
		<g>
			<path class="st3" d="M-580.1,377c-1.6,0-3.1-1-3.6-2.6c-0.7-2,0.4-4.2,2.4-4.9c4.6-1.6,11.8-8,16.6-14.8
				c9.7-13.8,16.6-21.5,16.9-21.8c1.4-1.6,3.8-1.7,5.4-0.3c1.6,1.4,1.7,3.8,0.3,5.4l0,0c-0.1,0.1-6.9,7.7-16.3,21.1
				c-4.7,6.7-13.1,15.1-20.3,17.6C-579.3,376.9-579.7,377-580.1,377z"/>
		</g>
		<g>
			<path class="st3" d="M-541.7,334.8c-0.1,0-0.2,0-0.3,0c-2-0.1-3.5-1.9-3.3-3.9c0.2-2.1,1-4.4,1-4.7c0.6-1.9,2.7-2.9,4.6-2.2
				c1.9,0.6,2.9,2.7,2.2,4.6c-0.2,0.7-0.6,2-0.7,2.9C-538.2,333.4-539.8,334.8-541.7,334.8z"/>
		</g>
		<g>
			<path class="st13" d="M-540.6,331c0.6,0.7,1.3,1.4,2.1,2c0.3-0.5,0.4-1,0.5-1.5c0.1-0.9,0.4-2.2,0.7-2.9c0.6-1.9-0.4-3.9-2.2-4.6
				c-1.6-0.5-3.2,0.1-4.1,1.3C-543.5,327.4-541.8,329.7-540.6,331z"/>
		</g>
		<g>
			<path class="st3" d="M-531.4,323.3c-0.1,3.8-3.2,6.7-7,6.7l0,0c-3.8-0.1-6.7-3.2-6.7-7l0.1-4.7c0.1-3.8,3.2-6.7,7-6.7l0,0
				c3.8,0.1,6.7,3.2,6.7,7L-531.4,323.3z"/>
		</g>
		<g>
			<path class="st3" d="M-585.5,375.9c-1.6,0-3.4-0.4-5.4-1.3c-0.6-0.2-0.8-0.9-0.6-1.5s0.9-0.8,1.5-0.6c3,1.2,5.3,1.4,6.8,0.5
				c0.5-0.3,1.2-0.2,1.5,0.4c0.3,0.5,0.2,1.2-0.4,1.5C-583,375.6-584.2,375.9-585.5,375.9z"/>
		</g>
		<g>
			<path class="st3" d="M-584.2,377.6c-1.8,0-3.2-0.3-4.9-0.7l-0.5-0.1c-0.6-0.1-1-0.8-0.8-1.4c0.1-0.6,0.8-1,1.4-0.8l0.5,0.1
				c2.7,0.7,4.5,1.1,8.5,0.1c0.6-0.2,1.2,0.2,1.4,0.8c0.2,0.6-0.2,1.2-0.8,1.4C-581.4,377.4-582.9,377.6-584.2,377.6z"/>
		</g>
		<g>
			<path class="st3" d="M-585.6,373.7c-3.5,0-6-2.2-6.1-2.3c-0.5-0.4-0.5-1.1-0.1-1.6c0.4-0.5,1.1-0.5,1.6-0.1
				c0.1,0.1,2.7,2.4,6.2,1.5c0.6-0.2,1.2,0.2,1.4,0.8c0.2,0.6-0.2,1.2-0.8,1.4C-584.2,373.6-584.9,373.7-585.6,373.7z"/>
		</g>
		<g>
			<path class="st3" d="M-583.3,372.5h-0.1c-3.8-0.4-5.4-3.2-5.5-3.3c-0.3-0.5-0.1-1.2,0.4-1.5s1.2-0.1,1.5,0.4
				c0.1,0.1,1.1,1.9,3.7,2.2c0.6,0.1,1.1,0.6,1,1.2C-582.2,372.1-582.7,372.5-583.3,372.5z"/>
		</g>
		<g>
			<path class="st3" d="M-569.8,328c-0.1,0-0.1,0-0.2,0c-1.9-0.3-7-1.1-8.1-1.1c-0.6,0-1.1-0.5-1.1-1.1s0.5-1.1,1.1-1.1
				c1.6,0,7.8,1,8.5,1.1c0.6,0.1,1,0.7,0.9,1.3C-568.8,327.6-569.3,328-569.8,328z"/>
		</g>
		<g>
			<path class="st3" d="M-570.5,330.4c-0.1,0-0.2,0-0.3,0c-0.1,0-5.4-1.5-7.9-1.6c-0.6,0-1.1-0.6-1.1-1.2s0.6-1.1,1.2-1.1
				c2.7,0.2,8.1,1.6,8.4,1.7c0.6,0.2,1,0.8,0.8,1.4C-569.6,330.1-570,330.4-570.5,330.4z"/>
		</g>
		<g>
			<path class="st3" d="M-571.1,332.9c-0.1,0-0.2,0-0.3-0.1c-5.1-1.6-6.3-1.7-7-1.8c-0.3,0-0.6,0-0.9-0.1c-0.6-0.2-1-0.8-0.8-1.4
				s0.8-1,1.4-0.8c0.2,0,0.3,0.1,0.5,0.1c0.8,0.1,2.2,0.2,7.5,1.9c0.6,0.2,0.9,0.8,0.7,1.4C-570.1,332.6-570.6,332.9-571.1,332.9z"
				/>
		</g>
		<g>
			<path class="st3" d="M-573.3,334.7L-573.3,334.7c-5.2-0.4-5.4-3.1-5.4-3.4l2.3-0.1c0,0,0,0,0-0.1c0,0,0.2,1.1,3.2,1.3
				c0.6,0,1.1,0.6,1,1.2C-572.2,334.2-572.7,334.7-573.3,334.7z"/>
		</g>
		<path class="st3" d="M-577.5,333.3c0,0-1-0.5-2.5-0.5c-1.3,0-3-2.2-3-4.4c0,0-0.6-6.6,6.4-3.6L-577.5,333.3z"/>
		<path class="st15" d="M-555.4,353.1l-9.8,48.4c0,0,15.2,3.7,24.6-1.7l2.4-67.3C-538.3,332.5-548.8,328.8-555.4,353.1z"/>
		<path class="st4" d="M-553.2,379.7l9.4-0.5c0,0,0.2,14.4-5.4,13.8C-549.2,393.1-556.9,394.7-553.2,379.7z"/>
		<path class="st4" d="M-541.3,331.3c-1-0.9-2.4-1.4-3.8-1.4c-1.6,0-3.1,0.7-4.2,1.9c-0.3,0.3-7.2,8-17,22c-0.6,0.9-1.4,1.8-2.1,2.8
			l-1,1.2l1.1,1.1c1.2,1.2,2.4,2.4,3.6,3.6c0.6,0.6,1.3,1.3,1.9,1.9l1.4,1.4l1.3-1.5c1.1-1.3,2.2-2.7,3.1-4
			c9.4-13.3,16.1-20.9,16.2-20.9C-538.8,337-539,333.4-541.3,331.3z"/>
		
			<rect x="-570.7" y="357.1" transform="matrix(-0.7439 -0.6683 0.6683 -0.7439 -1224.2306 250.8157)" class="st19" width="13.3" height="5.7"/>
		<path class="st16" d="M-551.8,326l8.7,3.4c0,0,3.7-17.9,1-20.6C-542.2,308.8-551.8,307.8-551.8,326z"/>
		<path class="st16" d="M-541.7,311.9c0.3,0.5,7,4.9,12.3,3.7c0,0-0.9-7.9-13.2-6.8L-541.7,311.9z"/>
		<circle class="st20" cx="-540.2" cy="320.3" r="3.8"/>
		<circle class="st21" cx="-531.3" cy="321.1" r="3.3"/>
		<path class="st20" d="M-536.5,320.3c0,0,1.2-0.5,2,0.3"/>
	</g>
	<g class="st2">
		<g>
			<path class="st13" d="M-646,326.9c-0.1,0-0.2,0-0.3,0c-2-0.1-3.5-1.9-3.3-3.9c0.2-2.1,1-4.4,1-4.7c0.6-1.9,2.7-2.9,4.6-2.2
				c1.9,0.6,2.9,2.7,2.2,4.6c-0.2,0.7-0.6,2-0.7,2.9C-642.5,325.5-644.1,326.9-646,326.9z"/>
		</g>
		<g>
			<path class="st17" d="M-648.1,426.9c6,2.8,10.9,2.7,11.3,2.8c3.9-6.9,15.6-25.7,4.9-41l-15.1-8.1
				C-647,380.5-631.9,396.2-648.1,426.9z"/>
			<path class="st17" d="M-640.3,433c0,0,1.4-2.8,2.5-4.7c-0.8-0.1-4.5-0.2-6-0.8c-1.4,2.9-4.5,7.1-6.6,10h20.3L-640.3,433z"/>
			<path class="st16" d="M-615.2,389.5c-2.5-4.9-20.8-19.6-22.5-28.1c-0.1-0.7-0.3-1.5-0.4-2.3c-2.9,1.6-6.8,2-9.8,2.1
				c-3.4,0.2-5.5,0.4-8.8-1.2c0.3,5.3-0.6,10.3,2.5,15.6c6.1,10.6,26.3,19.6,28.5,23.1c4.4,6.9,6,21.8,7.5,30.9
				c2.4,0,8-0.1,10.3-0.9C-608.6,424-607.3,404.8-615.2,389.5z"/>
			<path class="st17" d="M-608.9,432.2c0,0-0.7-2.7-0.9-3.9c-2.3,0.8-3.7,0-6.1,0c0.4,2.3,0.1,6.5,0.3,9h19.2L-608.9,432.2z"/>
			<path class="st15" d="M-647.7,364c2.9-0.1,9.1-0.9,11.5-3.4c-0.5-4-2.3-10.5-1.7-15.7c2.1-17.6-6.5-22.9-6.5-22.9s-4-2.8-7.2,0.5
				c-4.8,5-9.6,19.1-9.1,39.9C-657.3,364.2-651.2,364.1-647.7,364z"/>
		</g>
		<g>
			<path class="st3" d="M-603.6,369.5c-0.3,0-0.6,0-0.9-0.1c-13.9-3.2-25.6-11.5-34-24c-6.3-9.4-8.4-17.8-8.5-18.1
				c-0.5-2,0.7-4.1,2.8-4.6c2-0.5,4.1,0.7,4.6,2.8c0,0.2,2,7.7,7.6,16c7.3,10.9,17.2,17.8,29.2,20.6c2.1,0.5,3.3,2.5,2.9,4.6
				C-600.3,368.4-601.9,369.5-603.6,369.5z"/>
		</g>
		<path class="st4" d="M-612,358.1c-7.6-3.6-14.1-9.4-19.3-17.1c-5.5-8.2-7.5-15.7-7.5-15.8c-0.5-2-2.3-3.4-4.4-3.4
			c-0.4,0-0.7,0-1.1,0.1c-1.2,0.3-2.1,1-2.8,2.1c-0.6,1-0.8,2.2-0.5,3.4v0.1c0.6,2.6,3,11.6,8.6,20.1c6.7,10.1,15.9,17.6,26.4,21.8
			c0.1,0,0.2,0,0.3,0c0.1,0,0.3,0,0.4-0.1c0.2-0.1,0.3-0.3,0.3-0.6v-10.1C-611.6,358.4-611.8,358.2-612,358.1z"/>
		<g>
			<path class="st3" d="M-600.8,369.8c-1.2,0-2.5-0.1-3.9-0.4c-0.6-0.1-1-0.7-0.9-1.3c0.1-0.6,0.7-1,1.3-0.9
				c3.4,0.7,6.1,0.4,8.3-0.7c0.5-0.3,1.2-0.1,1.5,0.5c0.3,0.5,0.1,1.2-0.5,1.5C-596.5,369.4-598.5,369.8-600.8,369.8z"/>
		</g>
		<g>
			<path class="st3" d="M-600.6,367.3c-0.5,0-1.1,0-1.6-0.1c-0.6-0.1-1-0.7-1-1.3c0.1-0.6,0.7-1,1.3-1c3.6,0.5,6.9-1.3,7-1.4
				c0.5-0.3,1.2-0.1,1.5,0.4s0.1,1.2-0.4,1.5C-594,365.6-596.9,367.3-600.6,367.3z"/>
		</g>
		<g>
			<path class="st3" d="M-601.6,365.1c-0.2,0-0.4,0-0.5,0c-0.6,0-1.1-0.6-1.1-1.2s0.6-1.1,1.2-1.1c2.7,0.2,4.1-1.5,4.1-1.5
				c0.4-0.5,1.1-0.6,1.6-0.2s0.6,1.1,0.2,1.6C-596.2,362.9-598.1,365.1-601.6,365.1z"/>
		</g>
		<g>
			<path class="st3" d="M-605.5,363.2c-0.6,0-1.1-0.5-1.1-1.1s0.5-1.1,1.1-1.1c0.1,0,2.3-0.1,3.6-1.9c0.4-0.5,1.1-0.6,1.6-0.3
				c0.5,0.4,0.6,1.1,0.3,1.6C-602,363.2-605.3,363.2-605.5,363.2z"/>
		</g>
		<g>
			<path class="st3" d="M-609.2,337.8c-0.4,0-0.7-0.2-0.9-0.5c-1.7-2.3-2-4.3-2-4.3c-0.1-0.6,0.3-1.2,0.9-1.3
				c0.6-0.1,1.2,0.3,1.3,0.9c0,0,0.3,1.5,1.6,3.4c0.4,0.5,0.2,1.2-0.3,1.6C-608.7,337.7-608.9,337.8-609.2,337.8z"/>
		</g>
		<g>
			<path class="st3" d="M-608.9,338.3c-0.1,0-0.1,0-0.2,0c-2.5-0.5-7.3-0.5-7.4-0.5c-0.6,0-1.1-0.5-1.1-1.1s0.5-1.1,1.1-1.1
				c0.2,0,5.1,0,7.8,0.5c0.6,0.1,1,0.7,0.9,1.3C-607.9,337.9-608.4,338.3-608.9,338.3z"/>
		</g>
		<g>
			<path class="st3" d="M-617.2,340.6c-0.6,0-1-0.4-1.1-1c-0.1-0.6,0.4-1.2,1-1.3c0.7-0.1,7-0.9,9.1-0.5c0.6,0.1,1,0.7,0.9,1.3
				c-0.1,0.6-0.7,1-1.3,0.9c-1.3-0.2-5.8,0.2-8.4,0.5C-617.1,340.6-617.1,340.6-617.2,340.6z"/>
		</g>
		<g>
			<path class="st3" d="M-615.7,343.2c-0.5,0-1-0.4-1.1-0.9c-0.1-0.6,0.3-1.2,0.9-1.3c2.7-0.5,3.5-0.8,4.8-1.2
				c0.6-0.2,1.4-0.4,2.5-0.8c0.6-0.2,1.2,0.2,1.4,0.8c0.2,0.6-0.2,1.2-0.8,1.4c-1.1,0.3-1.8,0.6-2.5,0.8c-1.4,0.4-2.2,0.7-5,1.3
				C-615.6,343.2-615.6,343.2-615.7,343.2z"/>
		</g>
		<g>
			<path class="st3" d="M-613.3,345c-0.5,0-1-0.4-1.1-0.9c-0.1-0.6,0.3-1.2,0.9-1.3c3.6-0.6,4.4-2,4.4-2c0.2-0.6,0.8-0.9,1.4-0.7
				c0.6,0.2,0.9,0.8,0.7,1.4c-0.1,0.4-1.1,2.7-6.1,3.5C-613.1,345-613.2,345-613.3,345z"/>
		</g>
		<path class="st3" d="M-608.9,343.6l-0.9-9.2c0,0,4,0.3,4,4.5C-605.8,340.3-606.2,341.9-608.9,343.6z"/>
		<g>
			<path class="st3" d="M-634.3,313.7c1,3.8-1.3,7.8-5.1,8.8l0,0c-3.8,1-7.8-1.3-8.8-5.1l-1.3-4.8c-1-3.8,1.3-7.8,5.1-8.8l0,0
				c3.8-1,7.8,1.3,8.8,5.1L-634.3,313.7z"/>
		</g>
		<g>
			<path class="st16" d="M-634.9,311.2c-0.5,1.5-1.3,3-2.5,4.1c-2.9,2.5-7.3,3.2-10.9,1.7l0.1,0.5c1,3.8,5,6.1,8.8,5.1
				c3.8-1,6.1-5,5.1-8.8L-634.9,311.2z"/>
		</g>
		<path class="st16" d="M-648.2,317.1c-2.7-1.7-5.6-8.3-1.4-9.8c2.6-0.9,1.6,7.2,1.6,9.5L-648.2,317.1z"/>
		<path class="st16" d="M-650.4,307.9c-3.3-2.4,0.8-9.1,8.9-9.1c5,0,5,3.8,1.5,5.9c-2.9,1.7-7.3,0.7-9.5,3.6L-650.4,307.9z"/>
		<path class="st16" d="M-634.9,312.6c-1.1-1.7-3.4-5.2-4.3-7.2c-0.6-1.3-1.3-3.4,1.2-1.9c2.1,1.3,3.3,5.8,3.1,8L-634.9,312.6
			L-634.9,312.6z"/>
	</g>
</g>
<g class="st0">
	<g class="st2">
		<path class="st7" d="M-692,328.6c-1.2,1.1-2.6,2.2-3.7,3.5l-16.2,33.9l12.1-15.6l12.8-26.5C-688.6,325.5-690.3,327.1-692,328.6z"
			/>
		<path class="st7" d="M-701.6,323.1c1.2-1.6,2.3-3.5,3.7-5.2l-28.5-13.9l-27,2.7l47.3,21.8C-704.5,326.8-703,325-701.6,323.1z"/>
		<path class="st6" d="M-697.5,318.1c-1.5,1.9-2.7,4.1-4.2,5.9c-1.3,1.6-2.6,3.2-3.9,4.7l21.5,9.9l7.8-10.2L-697.5,318.1z"/>
		<path class="st8" d="M-729.9,357.5l8.3-17.4l-43.6-20.9l7-14.6l71.9-42.4l19.6,9.4l-28.8,60.3l11.9,5.7l-8.1,16.9l-11.9-5.7
			l-8.3,17.4L-729.9,357.5z M-697.6,289.9l-1.1-0.5l-38.5,22.5l23.6,11.3L-697.6,289.9z"/>
		<polygon class="st7" points="-683.6,337.5 -676.4,328.4 -682.1,341.1 -692,354.9 		"/>
		<path class="st7" d="M-686.4,323.4l28.4-62.2l-8.6,10.3l-28.8,60.3C-694.7,331-686.9,323.9-686.4,323.4z"/>
		<polygon class="st22" points="-758.2,304.5 -745.4,293.4 -675.1,253 -686.3,262.2 		"/>
		<polygon class="st9" points="-686.3,262.2 -666.7,271.6 -658.1,261.2 -675.1,253 		"/>
	</g>
	<path class="st23" d="M-710.4,307.6c-2.4-1.7-4.1-1-5.2-0.8c-1.3,0.2-2.2-0.5-2.2-0.5c-0.5-0.3-1.2-0.2-1.6,0.3
		c-0.3,0.5-0.2,1.2,0.3,1.6c0.1,0,1,0.7,2.8,1.1c-1.9,1.7-3.8,3.8-3.9,3.9c-0.4,0.5-0.4,1.2,0.1,1.6c0.2,0.2,0.5,0.3,0.8,0.3
		s0.6-0.1,0.8-0.4c0,0,1.4-1.5,2.8-2.9c-1.4,1.7-2.7,3.5-2.9,3.9c-0.4,0.5-0.2,1.2,0.3,1.6c0.2,0.1,0.4,0.2,0.7,0.2
		c0.3,0,0.7-0.2,0.9-0.5c0.7-1,1.8-2.4,2.8-3.7c-0.4,0.7-0.8,1.6-1.8,3.1c-0.3,0.5-0.2,1.2,0.4,1.6c0.2,0.1,0.4,0.2,0.6,0.2
		c0.4,0,0.7-0.2,1-0.5c0.4-0.6,0.7-1.1,1-1.6c-0.2,0.5,0,1.1,0.4,1.4c0.2,0.1,0.4,0.2,0.6,0.2c0.4,0,0.7-0.2,0.9-0.5
		c1.1-1.6,1.6-2.9,1.8-4l0,0C-708.5,309.9-709.2,308.4-710.4,307.6z M-712.6,315.5c0.4-0.7,0.6-1.1,0.9-1.6
		C-712,314.3-712.3,314.9-712.6,315.5z"/>
	<path class="st11" d="M-744.9,320.3c-3.6-0.2-8.7,6.8-3.4,8.7c-4.8-0.1-6,6.7-1.6,8.5c-7.7-1.5-6.8,8.5-3.2,12.1
		c-2.5-0.4-5,2-4.6,4.5c0.4,2.6,1.4,6.2,7.8,8.1s10.3-1.7,13.5-5.1c2,4.2,12.1-1.5,11-6.4c3.8,1.3,7.2-3,7.3-6.4s-2.3-5.9-4.5-8.1
		c1.6-1.4,1.9-4.1,1.5-6.2c-0.7-3.4-4.9-3.7-4.9-6.4c0-0.9,0.2-3.9-0.6-5.2c-1.3-2.1-3.5-4.1-6.3-3.1
		C-744.9,309.7-744.9,320.3-744.9,320.3z"/>
	<path class="st1" d="M-738,429.6c-3.2-0.6-3.8-0.4-7-1.2l-7.4,9.1h28.8l-16.7-4.5L-738,429.6z"/>
	<path class="st1" d="M-684.3,432.2l-1.7-2.2c-1.5,1-3.1,1.8-4.9,2.4l4.5,5.1h16.9L-684.3,432.2z"/>
	<path class="st1" d="M-748,429.6c3.2,0.8,6.5,1.6,9.7,2.2l23.8-29.3l-4.1-11.6l-16.7-19.2l4.8,27.2L-748,429.6z"/>
	<path class="st11" d="M-715.7,363.6c-6.5-1.7-15.4,0.5-21.7,2.9c0,0,3.9,15.5,6.5,20.1c7.4,13.5,39.7,47.1,39.7,47.1
		c1.8-0.6,5.2-3.1,6.7-4.1L-715.7,363.6z"/>
	<path class="st24" d="M-738.2,372.6c6.3-2.4,18.9-6.4,25.4-4.7c0,0-8.6-20.2-12.5-24.6c-2.6-3-17-11.5-17-0.4
		C-742.3,357.9-738.2,372.6-738.2,372.6z"/>
	<g class="st2">
		<path class="st3" d="M-732.6,341.8c-0.1,0-0.2,0.1-0.3,0.1c-1.9,0.5-3.9-0.6-4.4-2.5c-0.5-2-0.6-4.5-0.6-4.8c0-2,1.6-3.6,3.6-3.6
			s3.6,1.6,3.6,3.6c0,0.7,0.1,2.1,0.3,3C-729.9,339.3-730.9,341.2-732.6,341.8z"/>
	</g>
	<g class="st2">
		<path class="st13" d="M-730.2,338.3c0-0.3,0-0.5-0.1-0.8c-0.2-0.8-0.3-2.3-0.3-3c0-2-1.6-3.6-3.6-3.6s-3.6,1.6-3.6,3.6
			c0,0,0,0.2,0,0.3C-736.1,336.9-733.2,337.8-730.2,338.3z"/>
	</g>
	<g class="st2">
		<path class="st3" d="M-726.7,327.5c1.2,3.6-0.8,7.4-4.4,8.6l0,0c-3.6,1.2-7.4-0.8-8.6-4.4l-1.5-4.5c-1.2-3.6,0.8-7.4,4.4-8.6l0,0
			c3.6-1.2,7.4,0.8,8.6,4.4L-726.7,327.5z"/>
	</g>
	<path class="st23" d="M-686.6,323.9c-0.1-0.1-0.3-0.2-0.5-0.2c0.2-0.2,0.3-0.4,0.5-0.6c0.4-0.5,0.4-1.2-0.1-1.6
		c-0.1-0.1-0.1-0.1-0.2-0.1c0.3-0.5,0.3-1.1-0.2-1.5c-0.3-0.3-0.8-0.4-1.2-0.2c0.5-0.5,0.8-0.9,0.9-0.9c0.4-0.5,0.4-1.2-0.1-1.6
		s-1.2-0.4-1.6,0.1c0,0-2.5,2.8-5,4.2c-1.1-1.7-2.6-2.2-2.6-2.3c-0.6-0.2-1.2,0.1-1.4,0.6c-0.2,0.6,0.1,1.2,0.6,1.5
		c0,0,0.9,0.4,1.6,1.4c-0.1,0.3-0.2,0.6-0.3,1c-16.6,22.4-38.5,14.5-39.5,14.1c-2-0.8-4.2,0.2-4.9,2.2c-0.8,2,0.2,4.2,2.2,5
		c0.3,0.1,5.6,2.1,13.3,2.1c1.5,0,3.2-0.1,4.9-0.3c8.3-1,20.5-5.7,30.3-18.3c0.2-0.1,0.4-0.2,0.7-0.5c0.2-0.1,0.4-0.3,0.6-0.4l0,0
		c0.6-0.5,1.3-1.2,2.1-2.1C-686.1,325-686.1,324.3-686.6,323.9z"/>
	<path class="st10" d="M-717.1,337.9l-0.9,0.2c-2.3,0.5-4.6,0.7-7,0.7c-5.8,0-9.8-1.5-10.3-1.6c-0.5-0.2-1.1-0.3-1.6-0.3
		c-1.9,0-3.5,1.1-4.2,2.9c-0.4,1.1-0.5,2.4,0.1,3.4c2.2,3.9,8.2,5.5,16,5.5c1.7,0,3.3-0.1,5-0.3c1-0.1,2-0.3,3.1-0.5l0.7-0.2
		c0,0-0.9-2.8-1.1-5.7C-717.5,340.9-717.1,337.9-717.1,337.9z"/>
	<path class="st11" d="M-741.3,330.8c2.4-1.5,3.2-4.3,2.9-7.1c2.1,1.4,3.7,0.5,5-1.9c3.9,5.5,9.9-2.7,1.8-5.6
		c-6.5-2.4-12.9,4.1-11.3,10.6L-741.3,330.8z"/>
</g>
<text transform="matrix(1 0 0 1 -625.1064 195.6506)" style="display:none;fill:#0076AD;enable-background:new    ; font-family:'ArialMT'; font-size:34.1705px;">oops!</text>
<text transform="matrix(1 0 0 1 -651.7164 220.5022)" style="display:none;fill:#4D99AD;enable-background:new    ; font-family:'ArialMT'; font-size:21.9435px;">Page not found </text>
<path class="st25" d="M-558.3,482.1c0,5.7-4.6,10.3-10.3,10.3h-44c-5.7,0-10.3-4.6-10.3-10.3l0,0c0-5.7,4.6-10.3,10.3-10.3h44
	C-562.9,471.7-558.3,476.3-558.3,482.1L-558.3,482.1z"/>
<text transform="matrix(1 0 0 1 -617.7719 483.588)" style="display:none;fill:#FFFFFF;enable-background:new    ; font-family:'ArialMT'; font-size:5.9746px;">go to homepage </text>
<text transform="matrix(1 0 0 1 -189.4531 107)" class="st26 st27 st28">REGISTRATION </text>
<text transform="matrix(1 0 0 1 -194.0531 149)" class="st26 st27 st28"> WILL START AT </text>
<text transform="matrix(1 0 0 1 -162.4531 191)" class="st26 st27 st28">8 pm TODAY</text>
</svg>
