<?xml version="1.0" encoding="utf-8"?>
<!-- Generator: Adobe Illustrator 19.0.0, SVG Export Plug-In . SVG Version: 6.00 Build 0)  -->
<svg version="1.1" id="OBJECTS" xmlns="http://www.w3.org/2000/svg" xmlns:xlink="http://www.w3.org/1999/xlink" x="0px" y="0px"
	 viewBox="-233 9 352.9 296" style="enable-background:new -233 9 352.9 296;" xml:space="preserve">
<style type="text/css">
	.st0{display:none;}
	.st1{display:inline;fill:#002E4F;}
	.st2{display:inline;}
	.st3{fill:#00A4E2;}
	.st4{fill:#E1F3F6;}
	.st5{fill:#008DC4;}
	.st6{fill:#00AFE2;}
	.st7{fill:#006091;}
	.st8{fill:#0076AD;}
	.st9{fill:#00D2FD;}
	.st10{display:inline;fill:#E1F3F6;}
	.st11{display:inline;fill:#00396A;}
	.st12{display:inline;fill:none;stroke:#20C6F0;stroke-width:7.6539;stroke-linecap:round;stroke-miterlimit:10;}
	.st13{fill:#0086CF;}
	.st14{display:inline;fill:#0089E0;}
	.st15{fill:#CDE5E8;}
	.st16{fill:#00396A;}
	.st17{fill:#002E4F;}
	.st18{fill:#F6EE9E;}
	.st19{fill:#F8FDFF;}
	.st20{fill:none;stroke:#DDDD67;stroke-width:0.8679;stroke-miterlimit:10;}
	.st21{fill:none;stroke:#DDDD67;stroke-width:0.755;stroke-miterlimit:10;}
	.st22{fill:#009EE7;}
	.st23{display:inline;fill:#00A4E2;}
	.st24{display:inline;fill:#CDE5E8;}
	.st25{display:none;fill:#68C04D;}
	.st26{fill:#2121DB;}
	.st27{font-family:'Montserrat-ExtraBold';}
	.st28{font-size:35px;}
</style>
<g class="st0">
	<path class="st1" d="M-757.4,578.6c-2.5,3.2-5.4,5.7-4.8,6.8c0,0,1.3,1,5,1c6.3,0,12.5-0.5,11.5-1.1c-1.4-0.9-5.5-1.2-9.4-2.6
		c-1-0.3,2.1-2.2,1.3-2.5C-755.6,579.6-756.9,579-757.4,578.6z"/>
	<path class="st1" d="M-692.4,585.2c0,0,0.8,1.2,4,1.2c5.5,0,11.1-0.7,10.3-1.3c-1.2-0.8-10.8-2.8-10.8-2.8l-2.1-2.7l-3.6,2
		L-692.4,585.2z"/>
	<g class="st2">
		<path class="st3" d="M-709.7,504.9c-3.9,0-6.9-0.8-7.1-0.8c-2-0.6-3.2-2.7-2.7-4.7c0.6-2,2.7-3.2,4.7-2.7c0.1,0,8.7,2.2,13.8-2.1
			c3.4-2.9,4.6-8.3,3.8-16.2l-0.3-2.5l7.7-4.4c1.8-1,4.2-0.4,5.2,1.4s0.4,4.2-1.4,5.2l-3.4,1.9c0.5,9.2-1.7,16-6.7,20.3
			C-700.3,504-705.5,504.9-709.7,504.9z"/>
	</g>
	<g class="st2">
		<path class="st4" d="M-696.5,483.6c-0.1,5.6-1.6,9.6-4.4,12c-5.5,4.7-14.9,2.3-15.1,2.3c-2.2-0.6-4.5,0.7-5.1,3
			c-0.6,2.2,0.7,4.5,2.9,5.2c0.3,0.1,3.5,1.7,7.8,1.5c16.3-0.6,26.1-14.6,26.3-22.8L-696.5,483.6z"/>
	</g>
	<g class="st2">
		<path class="st5" d="M-718.9,464.2c-1.5-0.7-2.9-1.4-4.3-2.1c-13.5,7.7-30.7,17.5-31.1,17.9c0,0,8.6,13.6,9.1,14.2
			c0.4,0.4,21.6-14.9,36.9-25.9C-711.8,466.8-715.4,465.7-718.9,464.2z"/>
		<path class="st6" d="M-718.6,463.8c3.5,1.6,7.2,2.7,10.8,4.1c8.4-6.1,14.9-10.8,14.9-10.8l-14.4-4c0,0-6.9,3.9-15.4,8.8
			C-721.4,462.5-720,463.2-718.6,463.8z"/>
		<polygon class="st7" points="-743.4,445.9 -735,468.8 -718.4,474.9 -739.4,436.6 		"/>
		<polygon class="st7" points="-717.5,480.5 -729.8,480.5 -718.9,499.6 -702.2,506.6 		"/>
		<path class="st8" d="M-702.2,506.6l-9.8-16.7l-41.8,24.5l-8.2-14l5.2-83.3l18.8-11l33.8,57.6l11.4-6.7l9.5,16.1l-11.4,6.7
			l9.8,16.7L-702.2,506.6z M-740.1,441.9l-1.1,0.6l-2.9,44.5l22.6-13.3L-740.1,441.9z"/>
		<polygon class="st5" points="-775.8,496.6 -762,500.4 -753.7,514.4 -768.4,510.7 		"/>
		<polygon class="st6" points="-775.8,496.6 -762,500.4 -756.8,417.1 -769.5,414.1 		"/>
		<polygon class="st9" points="-769.5,414.1 -756.8,417.1 -738,406.1 -750.9,402.3 		"/>
	</g>
	<path class="st1" d="M-741.6,529.8c0,0,2,22,2,29.7c0,0-16,12.5-20,19c1.7,1.3,5,3,7.2,2.9c10.7-10.2,22.4-17.5,22.4-17.5
		s5.1-14.7,6.6-27.1L-741.6,529.8z"/>
	<path class="st10" d="M-730.2,530.8c3.6,0,7.3-0.6,10.4-2.3c-1-4.4,1.2-17.4,4-24.3c0,0,2.2-4.8,0.7-6.3c-5.7-5.5-10.6-5-12.1-5.1
		c-5.2,4.4-15,17.5-14.6,34.7C-739.1,530.4-733.7,530.8-730.2,530.8z"/>
	<path class="st11" d="M-694.8,582.3c2.1-0.6,4.1-1.5,5.4-3.3c-6.2-10-28.9-46.9-30.1-49.8c0-0.1-0.1-0.2-0.1-0.2
		c-3.3,1.8-7.3,2.4-11.2,2.3c-3.4-0.1-8.2-0.6-11-3.1c0,0.2,0,0.4,0,0.5c0.5,9.6,32.4,41.7,45,54
		C-696.1,582.6-695.4,582.4-694.8,582.3z"/>
	<g class="st2">
		<path class="st3" d="M-760.7,520.8c-0.9,0-1.7-0.1-2.6-0.4c-1.7-0.6-3.9-2-5-5.5c-0.6-2,0.6-4.2,2.6-4.8s4.2,0.6,4.8,2.6
			c0.1,0.2,0.1,0.4,0.2,0.5c0.4,0,1.9-0.1,5.6-2.3c3.3-1.9,7.2-4.8,11-7.6c6.4-4.7,12.4-9.2,17.4-10.7c2-0.6,4.2,0.5,4.8,2.5
			s-0.5,4.2-2.5,4.8c-3.8,1.2-9.5,5.5-15.1,9.6C-747.8,515.5-755,520.8-760.7,520.8z"/>
	</g>
	<g class="st2">
		<path class="st3" d="M-753.6,518c-0.5-2.3-1-4.7-2.4-6.6c-3.1,1.7-4.4,1.8-4.8,1.8c0-0.1-0.1-0.2-0.2-0.5c-0.6-2-2.7-3.2-4.8-2.6
			c-2,0.6-3.2,2.7-2.6,4.8c1.1,3.6,3.3,5,5,5.5c0.8,0.3,1.7,0.4,2.6,0.4c2.2,0,4.7-0.8,7.3-2.1C-753.5,518.5-753.5,518.2-753.6,518z
			"/>
		<path class="st4" d="M-722,495.1c-0.6-2-2.8-3.1-4.8-2.5c-5,1.6-11,6-17.4,10.7c-3.8,2.8-7.7,5.7-11,7.6c-0.2,0.1-0.3,0.2-0.4,0.3
			c1.4,1.9,3.9,11.2,4,11.4c4.1-2.1,23.5-16.9,27.7-21.4C-722.4,499.6-721.4,497.1-722,495.1z"/>
	</g>
	<path class="st12" d="M-770.9,510.7"/>
	<g class="st2">
		<path class="st3" d="M-766.1,517.8c-0.2,0-0.5-0.1-0.7-0.2c-3-2.1-4.6-6.3-4.6-6.5c-0.2-0.6,0.1-1.2,0.7-1.4
			c0.6-0.2,1.2,0.1,1.4,0.7l0,0c0,0,1.4,3.7,3.8,5.4c0.5,0.4,0.6,1.1,0.3,1.6C-765.4,517.6-765.8,517.8-766.1,517.8z"/>
	</g>
	<g class="st2">
		<path class="st3" d="M-766.1,515c-0.4,0-0.7-0.2-0.9-0.5c-1.4-2-2.6-6.9-2.7-7.4c-0.1-0.6,0.2-1.2,0.8-1.4
			c0.6-0.1,1.2,0.2,1.4,0.8c0.3,1.4,1.4,5.2,2.4,6.6c0.4,0.5,0.2,1.2-0.3,1.6C-765.7,514.9-765.9,515-766.1,515z"/>
	</g>
	<g class="st2">
		<path class="st3" d="M-764.6,514.4c-0.4,0-0.9-0.3-1-0.7c-1-2.5-1.4-7.8-1.5-8.1c0-0.6,0.4-1.2,1-1.2c0.6-0.1,1.2,0.4,1.2,1
			c0.1,1.4,0.5,5.5,1.3,7.4c0.2,0.6,0,1.2-0.6,1.5C-764.3,514.3-764.4,514.4-764.6,514.4z"/>
	</g>
	<g class="st2">
		<path class="st3" d="M-762.9,513.8c-0.5,0-1-0.3-1.1-0.8c-0.7-2.8-0.1-5.6,0-5.7c0.1-0.6,0.8-1,1.4-0.8c0.6,0.1,1,0.7,0.8,1.4
			c0,0.1-0.5,2.4,0,4.6c0.2,0.6-0.2,1.2-0.8,1.4C-762.7,513.8-762.8,513.8-762.9,513.8z"/>
	</g>
	<g class="st2">
		<path class="st3" d="M-717.6,501.2c-0.5,0-1-0.1-1.5-0.3c-1.8-0.8-2.6-3-1.7-4.8c0.9-1.9,2.5-3.8,2.7-4c1.3-1.5,3.6-1.7,5.1-0.4
			c1.5,1.3,1.7,3.6,0.4,5.1l0,0c-0.5,0.5-1.3,1.7-1.7,2.5C-715,500.4-716.3,501.2-717.6,501.2z"/>
	</g>
	<g class="st2">
		<path class="st13" d="M-717.1,499.3c0.4,0.5,0.9,0.9,1.3,1.3c0.6-0.4,1.1-0.9,1.4-1.5c0.4-0.8,1.2-1.9,1.7-2.5
			c1.3-1.5,1.1-3.8-0.4-5.1s-3.8-1.1-5.1,0.4c-0.1,0.1-0.4,0.4-0.7,0.9C-718.9,495.2-718.7,497.6-717.1,499.3z"/>
	</g>
	<g class="st2">
		<path class="st3" d="M-705.3,495.4c-1.4,3.5-5.4,5.1-8.9,3.7l0,0c-3.5-1.4-5.1-5.4-3.7-8.9l1.8-4.4c1.4-3.5,5.4-5.1,8.9-3.7l0,0
			c3.5,1.4,5.1,5.4,3.7,8.9L-705.3,495.4z"/>
	</g>
	<path class="st11" d="M-717.1,489.7c-0.6,2.3-3.9,1.6-5.2,0.4c-1.7-1.7-2.8-6.4,1.1-6.2c-2.8-4.2,6.6-8.7,7.6-3.9
		c0.7-1.2,1.5-2.4,3.1-2.5c1.2-0.1,3.2,0.8,3.1,2.3c1.8-1.4,4.3-1.3,6,0.1c0.6,0.4,1.6,1.4,1.1,2.2c-0.3,0.4-1.7,0.5-2.2,0.7
		c0.8-0.4,4.2,0.4,3.5,1.8c-0.3,0.7-1.9,0.1-2.4-0.1c0,0,0,0.2,0,0.1c1.8,1,2.5,2,2.3,4.2c-0.1,1-0.6,3-1.8,3.1
		c-0.6,0.1-1.3-0.3-1.3-1c1.5,1.5-0.6,5.5-2.5,3.5c-0.7-0.8-0.4-2.1,0.3-2.7c-1.1-0.6-3.5-4-1.8-5c-0.8,0-4.5-1.2-3.4-2.3
		c0.3,1.2-1.2,2.9-2.5,2.2c0.8,1.7-1.5,2.9-2.9,3c0.8,1.1-1.8,2.3-2.6,0.8L-717.1,489.7z"/>
</g>
<g class="st0">
	<path class="st14" d="M-816.1,337.1c0,0-2.2-8.4,8.7-10.4l-0.8,10.1L-816.1,337.1z"/>
	<g class="st2">
		<path class="st15" d="M-859.5,358.2c-2.4,0-4.6-0.5-6.6-1.4c-9.8-4.7-10.9-18.6-11-19.2c-0.1-2.1,1.4-3.9,3.5-4.1
			c2.1-0.1,3.9,1.4,4.1,3.5c0.2,2.8,1.8,10.6,6.6,12.9c4,1.9,10.1,0,17.8-5.5c1.7-1.2,4.1-0.8,5.3,0.9c1.2,1.7,0.8,4.1-0.9,5.3
			C-847.7,355.6-854.1,358.2-859.5,358.2z"/>
	</g>
	<g class="st2">
		<g>
			<path class="st6" d="M-839.2,365.4c1.1-2.8,2.1-5.6,3.2-8.4c-0.8-0.1-1.6-0.2-2.3-0.3c-3.7-0.7-6.9-2.2-9.4-4.5
				c-2.6-2.3-4.6-5.2-6-8.8c-1.4-3.5-2.2-7.6-2.4-12.1s0.1-9.3,1.1-14.3c1-5.1,2.4-9.7,4.3-13.8c1.9-4.1,4.1-7.5,6.7-10.3
				c2.6-2.8,5.5-4.8,8.8-6c3.2-1.2,6.7-1.4,10.4-0.7c2.9,0.6,5.5,1.7,7.8,3.3c1.1-2.2,2.3-4.3,3.4-6.4c1.3-2.5,2.5-5.1,3.7-7.6
				c0.5-1.1,0.9-2.2,1.4-3.4c-3.8-2.1-8-3.7-12.7-4.6c-6.6-1.3-12.9-1-18.7,0.7s-11.1,4.7-15.8,8.8s-8.7,9.2-11.9,15.4
				c-3.3,6.2-5.6,13.1-7.1,20.7s-1.8,14.9-1.1,21.9c0.8,7,2.5,13.2,5.4,18.7c2.8,5.5,6.7,10.2,11.5,14c4.5,3.5,9.7,5.9,15.8,7.3
				C-841.8,371.9-840.4,368.6-839.2,365.4z"/>
			<path class="st7" d="M-787.3,307.8c-0.8-7-2.5-13.2-5.4-18.7c-2.8-5.5-6.7-10.2-11.4-14c-1.3-1-2.6-1.9-4.1-2.8
				c-0.4,1.1-0.9,2.3-1.4,3.4c-1.2,2.6-2.4,5.1-3.7,7.6c-1.1,2.1-2.3,4.3-3.4,6.5c0.4,0.3,0.8,0.6,1.1,0.9c2.6,2.3,4.6,5.2,6,8.8
				c1.5,3.6,2.3,7.6,2.5,12c0.2,4.5-0.1,9.3-1.1,14.4c-1,5-2.4,9.6-4.3,13.7c-1.9,4.1-4.1,7.6-6.8,10.3c-2.7,2.8-5.6,4.8-8.9,6
				c-2.4,0.9-4.9,1.3-7.5,1.1c-1.3,3-2.3,6.1-3.5,9.2c-1.1,3-2.4,6-3.8,8.9c0.3,0.1,0.6,0.1,0.9,0.2c6.6,1.3,12.9,1,18.7-0.7
				s11.1-4.7,15.8-8.8c4.7-4.1,8.7-9.2,11.9-15.4c3.3-6.2,5.6-13.1,7.1-20.7C-786.9,322.1-786.6,314.8-787.3,307.8z"/>
		</g>
		<g>
			<path class="st8" d="M-830.2,379.3c-6.6-1.3-12.3-3.8-17.1-7.6c-4.8-3.8-8.6-8.4-11.4-14c-2.8-5.5-4.6-11.8-5.4-18.7
				c-0.8-7-0.4-14.2,1.1-21.9c1.5-7.6,3.8-14.5,7.1-20.7s7.2-11.3,11.9-15.4s9.9-7,15.8-8.8c5.8-1.7,12.1-2,18.7-0.7
				s12.3,3.8,17.1,7.6c4.8,3.8,8.6,8.4,11.5,14c2.8,5.5,4.6,11.8,5.4,18.7c0.8,7,0.4,14.2-1.1,21.9c-1.5,7.6-3.8,14.5-7.1,20.7
				s-7.2,11.3-11.9,15.4s-9.9,7-15.8,8.8C-817.3,380.3-823.6,380.6-830.2,379.3z M-826.6,360.6c3.6,0.7,7,0.4,10.3-0.8
				c3.2-1.2,6.2-3.2,8.9-6s4.9-6.2,6.8-10.3c1.9-4.1,3.3-8.7,4.3-13.7c1-5.1,1.3-9.9,1.1-14.4s-1.1-8.5-2.5-12
				c-1.5-3.6-3.5-6.5-6-8.8c-2.6-2.3-5.7-3.8-9.3-4.5c-3.7-0.7-7.2-0.5-10.4,0.7s-6.2,3.2-8.8,6s-4.8,6.2-6.7,10.3
				s-3.3,8.7-4.3,13.8c-1,5-1.3,9.8-1.1,14.3s1,8.5,2.4,12.1c1.4,3.5,3.4,6.5,6,8.8C-833.5,358.4-830.3,359.9-826.6,360.6z"/>
		</g>
	</g>
	<g class="st2">
		<path class="st16" d="M-762.7,323.1l0.3,14.1c0,0-4,3.6-7.6,0l1.3-15.8L-762.7,323.1z"/>
		<path class="st17" d="M-779.2,435.3c-0.2-0.2-1.8-0.9-2-1.1c-0.8,1.3-1.4,2-2.4,3c2.5,2.2,1.8,4.8,1.8,4.8s-1.8,1.5-2.4,1.8
			c-2.2,1.1-6.2,2.6-6.2,2.6l10.2,0.8l7.5-7.7C-775.5,438-777.5,436.7-779.2,435.3z"/>
		<path class="st17" d="M-819.1,435.9c-1.6-0.3-3.7,1-5,0c-0.3,2.8-0.2,4.4-0.2,4.4l-15,6.2h19.2c0.2-2-0.2-4,0.1-5.9
			C-819.9,439.6-819.2,436.8-819.1,435.9z"/>
		<path class="st15" d="M-801.6,367.6l-17,32.3c0,0,6.9,5.8,13.7,7.8l12.7-38.1L-801.6,367.6z"/>
		<path class="st17" d="M-782.9,438.1c1-1,1.9-2.3,2.7-3.6c-4.4-3.8-6.5-7.7-12.5-14.3c-2.5-2.8,4.1-18.6,5.7-21.3
			c2.9-4.8,3.3-8.2,5.5-16.4l-16.6,6.2c-4,14.2-8.6,28.3-3.9,35.1c4.9,7.1,13.5,12.9,17.7,15.8C-784.2,439.6-783.1,438-782.9,438.1z
			"/>
		<g>
			<path class="st3" d="M-810.9,335.4c-0.2,0-0.5-0.1-0.7-0.2c-0.5-0.4-0.6-1.1-0.3-1.6c1.3-1.9,1.6-3.4,1.6-3.4
				c0.1-0.6,0.7-1,1.3-0.9s1,0.7,0.9,1.3c0,0.1-0.4,2-2,4.3C-810.2,335.2-810.5,335.4-810.9,335.4z"/>
		</g>
		<path class="st18" d="M-782.8,385.9c4.9-13.6,9.2-34.9,10.7-43.4c-0.9-0.4-1.7-0.6-2.4-0.8c-1.5-0.4-3.2-0.9-4.7-0.4
			c-0.8,0.2-1.4,0.6-2.1,1c-0.6,1.8-0.9,3.4-0.9,3.4s-10.6,20.3-17.5,34.1C-793.8,381.2-788.1,383.2-782.8,385.9z"/>
		<path class="st16" d="M-799.9,380.3L-799.9,380.3c-0.6,1.2-1.2,2.4-1.7,3.5l0,0c-1.4,2.4-2.8,4.6-4.2,6.8
			c-13.7,20.6-18.8,37-19.7,44.8c1.3,1,6.2,1.6,7.9,1.9c2.5-12.9,9.1-21.1,20.8-30.8c3.9-3.3,6.9-7.4,9.5-10.8
			c1.5-2,3.1-5.3,4.5-9.3C-788.2,383.6-794,381.6-799.9,380.3z"/>
		<g>
			<path class="st3" d="M-813.1,386c-1.6,0-3.1-1-3.6-2.6c-0.7-2,0.4-4.2,2.4-4.9c4.6-1.6,11.8-8,16.6-14.8
				c9.7-13.8,16.6-21.5,16.9-21.8c1.4-1.6,3.8-1.7,5.4-0.3c1.6,1.4,1.7,3.8,0.3,5.4l0,0c-0.1,0.1-6.9,7.7-16.3,21.1
				c-4.7,6.7-13.1,15.1-20.3,17.6C-812.3,385.9-812.7,386-813.1,386z"/>
		</g>
		<g>
			<path class="st3" d="M-774.7,343.8c-0.1,0-0.2,0-0.3,0c-2-0.1-3.5-1.9-3.3-3.9c0.2-2.1,1-4.4,1-4.7c0.6-1.9,2.7-2.9,4.6-2.2
				c1.9,0.6,2.9,2.7,2.2,4.6c-0.2,0.7-0.6,2-0.7,2.9C-771.2,342.4-772.8,343.8-774.7,343.8z"/>
		</g>
		<g>
			<path class="st13" d="M-773.6,340c0.6,0.7,1.3,1.4,2.1,2c0.3-0.5,0.4-1,0.5-1.5c0.1-0.9,0.4-2.2,0.7-2.9c0.6-1.9-0.4-3.9-2.2-4.6
				c-1.6-0.5-3.2,0.1-4.1,1.3C-776.5,336.4-774.8,338.7-773.6,340z"/>
		</g>
		<g>
			<path class="st3" d="M-764.4,332.3c-0.1,3.8-3.2,6.7-7,6.7l0,0c-3.8-0.1-6.7-3.2-6.7-7l0.1-4.7c0.1-3.8,3.2-6.7,7-6.7l0,0
				c3.8,0.1,6.7,3.2,6.7,7L-764.4,332.3z"/>
		</g>
		<g>
			<path class="st3" d="M-818.5,384.9c-1.6,0-3.4-0.4-5.4-1.3c-0.6-0.2-0.8-0.9-0.6-1.5s0.9-0.8,1.5-0.6c3,1.2,5.3,1.4,6.8,0.5
				c0.5-0.3,1.2-0.2,1.5,0.4c0.3,0.5,0.2,1.2-0.4,1.5C-816,384.6-817.2,384.9-818.5,384.9z"/>
		</g>
		<g>
			<path class="st3" d="M-817.2,386.6c-1.8,0-3.2-0.3-4.9-0.7l-0.5-0.1c-0.6-0.1-1-0.8-0.8-1.4c0.1-0.6,0.8-1,1.4-0.8l0.5,0.1
				c2.7,0.7,4.5,1.1,8.5,0.1c0.6-0.2,1.2,0.2,1.4,0.8c0.2,0.6-0.2,1.2-0.8,1.4C-814.4,386.4-815.9,386.6-817.2,386.6z"/>
		</g>
		<g>
			<path class="st3" d="M-818.6,382.7c-3.5,0-6-2.2-6.1-2.3c-0.5-0.4-0.5-1.1-0.1-1.6s1.1-0.5,1.6-0.1c0.1,0.1,2.7,2.4,6.2,1.5
				c0.6-0.2,1.2,0.2,1.4,0.8c0.2,0.6-0.2,1.2-0.8,1.4C-817.2,382.6-817.9,382.7-818.6,382.7z"/>
		</g>
		<g>
			<path class="st3" d="M-816.3,381.5L-816.3,381.5c-3.9-0.4-5.5-3.2-5.6-3.3c-0.3-0.5-0.1-1.2,0.4-1.5s1.2-0.1,1.5,0.4
				c0.1,0.1,1.1,1.9,3.7,2.2c0.6,0.1,1.1,0.6,1,1.2C-815.2,381.1-815.7,381.5-816.3,381.5z"/>
		</g>
		<g>
			<path class="st3" d="M-802.8,337c-0.1,0-0.1,0-0.2,0c-1.9-0.3-7-1.1-8.1-1.1c-0.6,0-1.1-0.5-1.1-1.1s0.5-1.1,1.1-1.1
				c1.6,0,7.8,1,8.5,1.1c0.6,0.1,1,0.7,0.9,1.3C-801.8,336.6-802.3,337-802.8,337z"/>
		</g>
		<g>
			<path class="st3" d="M-803.5,339.4c-0.1,0-0.2,0-0.3,0s-5.4-1.5-7.9-1.6c-0.6,0-1.1-0.6-1.1-1.2s0.6-1.1,1.2-1.1
				c2.7,0.2,8.1,1.6,8.4,1.7c0.6,0.2,1,0.8,0.8,1.4C-802.6,339.1-803,339.4-803.5,339.4z"/>
		</g>
		<g>
			<path class="st3" d="M-804.1,341.9c-0.1,0-0.2,0-0.3-0.1c-5.1-1.6-6.3-1.7-7-1.8c-0.3,0-0.6,0-0.9-0.1c-0.6-0.2-1-0.8-0.8-1.4
				s0.8-1,1.4-0.8c0.2,0,0.3,0.1,0.5,0.1c0.8,0.1,2.2,0.2,7.5,1.9c0.6,0.2,0.9,0.8,0.7,1.4C-803.1,341.6-803.6,341.9-804.1,341.9z"
				/>
		</g>
		<g>
			<path class="st3" d="M-806.3,343.7L-806.3,343.7c-5.2-0.4-5.4-3.1-5.4-3.4l2.3-0.1c0,0,0,0,0-0.1c0,0,0.2,1.1,3.2,1.3
				c0.6,0,1.1,0.6,1,1.2C-805.2,343.2-805.7,343.7-806.3,343.7z"/>
		</g>
		<path class="st3" d="M-810.5,342.3c0,0-1-0.5-2.5-0.5c-1.3,0-3-2.2-3-4.4c0,0-0.6-6.6,6.4-3.6L-810.5,342.3z"/>
		<path class="st15" d="M-788.4,362.1l-9.8,48.4c0,0,15.2,3.7,24.6-1.7l2.4-67.3C-771.3,341.5-781.8,337.8-788.4,362.1z"/>
		<path class="st4" d="M-786.2,388.7l9.4-0.5c0,0,0.2,14.4-5.4,13.8C-782.2,402.1-789.9,403.7-786.2,388.7z"/>
		<path class="st4" d="M-774.3,340.3c-1-0.9-2.4-1.4-3.8-1.4c-1.6,0-3.1,0.7-4.2,1.9c-0.3,0.3-7.2,8-17,22c-0.6,0.9-1.4,1.8-2.1,2.8
			l-1,1.2l1.1,1.1c1.2,1.2,2.4,2.4,3.6,3.6c0.6,0.6,1.3,1.3,1.9,1.9l1.4,1.4l1.3-1.5c1.1-1.3,2.2-2.7,3.1-4
			c9.4-13.3,16.1-20.9,16.2-20.9C-771.8,346-772,342.4-774.3,340.3z"/>
		
			<rect x="-803.7" y="366.2" transform="matrix(0.7439 0.6683 -0.6683 0.7439 42.468 627.1882)" class="st19" width="13.3" height="5.7"/>
		<path class="st16" d="M-784.8,335l8.7,3.4c0,0,3.7-17.9,1-20.6C-775.2,317.8-784.8,316.8-784.8,335z"/>
		<path class="st16" d="M-774.7,320.9c0.3,0.5,7,4.9,12.3,3.7c0,0-0.9-7.9-13.2-6.8L-774.7,320.9z"/>
		<circle class="st20" cx="-773.2" cy="329.3" r="3.8"/>
		<circle class="st21" cx="-764.3" cy="330.1" r="3.3"/>
		<path class="st20" d="M-769.5,329.3c0,0,1.2-0.5,2,0.3"/>
	</g>
	<g class="st2">
		<g>
			<path class="st13" d="M-879,335.9c-0.1,0-0.2,0-0.3,0c-2-0.1-3.5-1.9-3.3-3.9c0.2-2.1,1-4.4,1-4.7c0.6-1.9,2.7-2.9,4.6-2.2
				c1.9,0.6,2.9,2.7,2.2,4.6c-0.2,0.7-0.6,2-0.7,2.9C-875.5,334.5-877.1,335.9-879,335.9z"/>
		</g>
		<g>
			<path class="st17" d="M-881.1,435.9c6,2.8,10.9,2.7,11.3,2.8c3.9-6.9,15.6-25.7,4.9-41l-15.1-8.1
				C-880,389.5-864.9,405.2-881.1,435.9z"/>
			<path class="st17" d="M-873.3,442c0,0,1.4-2.8,2.5-4.7c-0.8-0.1-4.5-0.2-6-0.8c-1.4,2.9-4.5,7.1-6.6,10h20.3L-873.3,442z"/>
			<path class="st16" d="M-848.2,398.5c-2.5-4.9-20.8-19.6-22.5-28.1c-0.1-0.7-0.3-1.5-0.4-2.3c-2.9,1.6-6.8,2-9.8,2.1
				c-3.4,0.2-5.5,0.4-8.8-1.2c0.3,5.3-0.6,10.3,2.5,15.6c6.1,10.6,26.3,19.6,28.5,23.1c4.4,6.9,6,21.8,7.5,30.9
				c2.4,0,8-0.1,10.3-0.9C-841.6,433-840.3,413.8-848.2,398.5z"/>
			<path class="st17" d="M-841.9,441.2c0,0-0.7-2.7-0.9-3.9c-2.3,0.8-3.7,0-6.1,0c0.4,2.3,0.1,6.5,0.3,9h19.2L-841.9,441.2z"/>
			<path class="st15" d="M-880.7,373c2.9-0.1,9.1-0.9,11.5-3.4c-0.5-4-2.3-10.5-1.7-15.7c2.1-17.6-6.5-22.9-6.5-22.9s-4-2.8-7.2,0.5
				c-4.8,5-9.6,19.1-9.1,39.9C-890.3,373.2-884.2,373.1-880.7,373z"/>
		</g>
		<g>
			<path class="st3" d="M-836.6,378.5c-0.3,0-0.6,0-0.9-0.1c-13.9-3.2-25.6-11.5-34-24c-6.3-9.4-8.4-17.8-8.5-18.1
				c-0.5-2,0.7-4.1,2.8-4.6c2-0.5,4.1,0.7,4.6,2.8c0,0.2,2,7.7,7.6,16c7.3,10.9,17.2,17.8,29.2,20.6c2.1,0.5,3.3,2.5,2.9,4.6
				C-833.3,377.4-834.9,378.5-836.6,378.5z"/>
		</g>
		<path class="st4" d="M-845,367.1c-7.6-3.6-14.1-9.4-19.3-17.1c-5.5-8.2-7.5-15.7-7.5-15.8c-0.5-2-2.3-3.4-4.4-3.4
			c-0.4,0-0.7,0-1.1,0.1c-1.2,0.3-2.1,1-2.8,2.1c-0.6,1-0.8,2.2-0.5,3.4v0.1c0.6,2.6,3,11.6,8.6,20.1c6.7,10.1,15.9,17.6,26.4,21.8
			c0.1,0,0.2,0,0.3,0s0.3,0,0.4-0.1c0.2-0.1,0.3-0.3,0.3-0.6v-10.1C-844.6,367.4-844.8,367.2-845,367.1z"/>
		<g>
			<path class="st3" d="M-833.8,378.8c-1.2,0-2.5-0.1-3.9-0.4c-0.6-0.1-1-0.7-0.9-1.3c0.1-0.6,0.7-1,1.3-0.9
				c3.4,0.7,6.1,0.4,8.3-0.7c0.5-0.3,1.2-0.1,1.5,0.5c0.3,0.5,0.1,1.2-0.5,1.5C-829.5,378.4-831.5,378.8-833.8,378.8z"/>
		</g>
		<g>
			<path class="st3" d="M-833.6,376.3c-0.5,0-1.1,0-1.6-0.1c-0.6-0.1-1-0.7-1-1.3c0.1-0.6,0.7-1,1.3-1c3.6,0.5,6.9-1.3,7-1.4
				c0.5-0.3,1.2-0.1,1.5,0.4s0.1,1.2-0.4,1.5C-827,374.6-829.9,376.3-833.6,376.3z"/>
		</g>
		<g>
			<path class="st3" d="M-834.6,374.1c-0.2,0-0.4,0-0.5,0c-0.6,0-1.1-0.6-1.1-1.2s0.6-1.1,1.2-1.1c2.7,0.2,4.1-1.5,4.1-1.5
				c0.4-0.5,1.1-0.6,1.6-0.2s0.6,1.1,0.2,1.6C-829.2,371.9-831.1,374.1-834.6,374.1z"/>
		</g>
		<g>
			<path class="st3" d="M-838.5,372.2c-0.6,0-1.1-0.5-1.1-1.1s0.5-1.1,1.1-1.1c0.1,0,2.3-0.1,3.6-1.9c0.4-0.5,1.1-0.6,1.6-0.3
				c0.5,0.4,0.6,1.1,0.3,1.6C-835,372.2-838.3,372.2-838.5,372.2z"/>
		</g>
		<g>
			<path class="st3" d="M-842.2,346.8c-0.4,0-0.7-0.2-0.9-0.5c-1.7-2.3-2-4.3-2-4.3c-0.1-0.6,0.3-1.2,0.9-1.3
				c0.6-0.1,1.2,0.3,1.3,0.9c0,0,0.3,1.5,1.6,3.4c0.4,0.5,0.2,1.2-0.3,1.6C-841.7,346.7-841.9,346.8-842.2,346.8z"/>
		</g>
		<g>
			<path class="st3" d="M-841.9,347.3c-0.1,0-0.1,0-0.2,0c-2.5-0.5-7.3-0.5-7.4-0.5c-0.6,0-1.1-0.5-1.1-1.1s0.5-1.1,1.1-1.1
				c0.2,0,5.1,0,7.8,0.5c0.6,0.1,1,0.7,0.9,1.3C-840.9,346.9-841.4,347.3-841.9,347.3z"/>
		</g>
		<g>
			<path class="st3" d="M-850.2,349.6c-0.6,0-1-0.4-1.1-1s0.4-1.2,1-1.3c0.7-0.1,7-0.9,9.1-0.5c0.6,0.1,1,0.7,0.9,1.3
				c-0.1,0.6-0.7,1-1.3,0.9c-1.3-0.2-5.8,0.2-8.4,0.5C-850.1,349.6-850.1,349.6-850.2,349.6z"/>
		</g>
		<g>
			<path class="st3" d="M-848.7,352.2c-0.5,0-1-0.4-1.1-0.9c-0.1-0.6,0.3-1.2,0.9-1.3c2.7-0.5,3.5-0.8,4.8-1.2
				c0.6-0.2,1.4-0.4,2.5-0.8c0.6-0.2,1.2,0.2,1.4,0.8c0.2,0.6-0.2,1.2-0.8,1.4c-1.1,0.3-1.8,0.6-2.5,0.8c-1.4,0.4-2.2,0.7-5,1.3
				C-848.6,352.2-848.6,352.2-848.7,352.2z"/>
		</g>
		<g>
			<path class="st3" d="M-846.3,354c-0.5,0-1-0.4-1.1-0.9c-0.1-0.6,0.3-1.2,0.9-1.3c3.6-0.6,4.4-2,4.4-2c0.2-0.6,0.8-0.9,1.4-0.7
				c0.6,0.2,0.9,0.8,0.7,1.4c-0.1,0.4-1.1,2.7-6.1,3.5C-846.1,354-846.2,354-846.3,354z"/>
		</g>
		<path class="st3" d="M-841.9,352.6l-0.9-9.2c0,0,4,0.3,4,4.5C-838.8,349.3-839.2,350.9-841.9,352.6z"/>
		<g>
			<path class="st3" d="M-867.3,322.7c1,3.8-1.3,7.8-5.1,8.8l0,0c-3.8,1-7.8-1.3-8.8-5.1l-1.3-4.8c-1-3.8,1.3-7.8,5.1-8.8l0,0
				c3.8-1,7.8,1.3,8.8,5.1L-867.3,322.7z"/>
		</g>
		<g>
			<path class="st16" d="M-867.9,320.2c-0.5,1.5-1.3,3-2.5,4.1c-2.9,2.5-7.3,3.2-10.9,1.7l0.1,0.5c1,3.8,5,6.1,8.8,5.1
				s6.1-5,5.1-8.8L-867.9,320.2z"/>
		</g>
		<path class="st16" d="M-881.2,326.1c-2.7-1.7-5.6-8.3-1.4-9.8c2.6-0.9,1.6,7.2,1.6,9.5L-881.2,326.1z"/>
		<path class="st16" d="M-883.4,316.9c-3.3-2.4,0.8-9.1,8.9-9.1c5,0,5,3.8,1.5,5.9c-2.9,1.7-7.3,0.7-9.5,3.6L-883.4,316.9z"/>
		<path class="st16" d="M-867.9,321.6c-1.1-1.7-3.4-5.2-4.3-7.2c-0.6-1.3-1.3-3.4,1.2-1.9c2.1,1.3,3.3,5.8,3.1,8V321.6L-867.9,321.6
			z"/>
	</g>
</g>
<g class="st0">
	<g class="st2">
		<path class="st7" d="M-925,337.6c-1.2,1.1-2.6,2.2-3.7,3.5l-16.2,33.9l12.1-15.6l12.8-26.5C-921.6,334.5-923.3,336.1-925,337.6z"
			/>
		<path class="st7" d="M-934.6,332.1c1.2-1.6,2.3-3.5,3.7-5.2l-28.5-13.9l-27,2.7l47.3,21.8C-937.5,335.8-936,334-934.6,332.1z"/>
		<path class="st6" d="M-930.5,327.1c-1.5,1.9-2.7,4.1-4.2,5.9c-1.3,1.6-2.6,3.2-3.9,4.7l21.5,9.9l7.8-10.2L-930.5,327.1z"/>
		<path class="st8" d="M-962.9,366.5l8.3-17.4l-43.6-20.9l7-14.6l71.9-42.4l19.6,9.4l-28.8,60.3l11.9,5.7l-8.1,16.9l-11.9-5.7
			l-8.3,17.4L-962.9,366.5z M-930.6,298.9l-1.1-0.5l-38.5,22.5l23.6,11.3L-930.6,298.9z"/>
		<polygon class="st7" points="-916.6,346.5 -909.4,337.4 -915.1,350.1 -925,363.9 		"/>
		<path class="st7" d="M-919.4,332.4l28.4-62.2l-8.6,10.3l-28.8,60.3C-927.7,340-919.9,332.9-919.4,332.4z"/>
		<polygon class="st22" points="-991.2,313.5 -978.4,302.4 -908.1,262 -919.3,271.2 		"/>
		<polygon class="st9" points="-919.3,271.2 -899.7,280.6 -891.1,270.2 -908.1,262 		"/>
	</g>
	<path class="st23" d="M-943.4,316.6c-2.4-1.7-4.1-1-5.2-0.8c-1.3,0.2-2.2-0.5-2.2-0.5c-0.5-0.3-1.2-0.2-1.6,0.3
		c-0.3,0.5-0.2,1.2,0.3,1.6c0.1,0,1,0.7,2.8,1.1c-1.9,1.7-3.8,3.8-3.9,3.9c-0.4,0.5-0.4,1.2,0.1,1.6c0.2,0.2,0.5,0.3,0.8,0.3
		s0.6-0.1,0.8-0.4c0,0,1.4-1.5,2.8-2.9c-1.4,1.7-2.7,3.5-2.9,3.9c-0.4,0.5-0.2,1.2,0.3,1.6c0.2,0.1,0.4,0.2,0.7,0.2s0.7-0.2,0.9-0.5
		c0.7-1,1.8-2.4,2.8-3.7c-0.4,0.7-0.8,1.6-1.8,3.1c-0.3,0.5-0.2,1.2,0.4,1.6c0.2,0.1,0.4,0.2,0.6,0.2c0.4,0,0.7-0.2,1-0.5
		c0.4-0.6,0.7-1.1,1-1.6c-0.2,0.5,0,1.1,0.4,1.4c0.2,0.1,0.4,0.2,0.6,0.2c0.4,0,0.7-0.2,0.9-0.5c1.1-1.6,1.6-2.9,1.8-4l0,0
		C-941.5,318.9-942.2,317.4-943.4,316.6z M-945.6,324.5c0.4-0.7,0.6-1.1,0.9-1.6C-945,323.3-945.3,323.9-945.6,324.5z"/>
	<path class="st11" d="M-977.9,329.3c-3.6-0.2-8.7,6.8-3.4,8.7c-4.8-0.1-6,6.7-1.6,8.5c-7.7-1.5-6.8,8.5-3.2,12.1
		c-2.5-0.4-5,2-4.6,4.5c0.4,2.6,1.4,6.2,7.8,8.1s10.3-1.7,13.5-5.1c2,4.2,12.1-1.5,11-6.4c3.8,1.3,7.2-3,7.3-6.4s-2.3-5.9-4.5-8.1
		c1.6-1.4,1.9-4.1,1.5-6.2c-0.7-3.4-4.9-3.7-4.9-6.4c0-0.9,0.2-3.9-0.6-5.2c-1.3-2.1-3.5-4.1-6.3-3.1
		C-977.9,318.7-977.9,329.3-977.9,329.3z"/>
	<path class="st1" d="M-971,438.6c-3.2-0.6-3.8-0.4-7-1.2l-7.4,9.1h28.8l-16.7-4.5L-971,438.6z"/>
	<path class="st1" d="M-917.3,441.2l-1.7-2.2c-1.5,1-3.1,1.8-4.9,2.4l4.5,5.1h16.9L-917.3,441.2z"/>
	<path class="st1" d="M-981,438.6c3.2,0.8,6.5,1.6,9.7,2.2l23.8-29.3l-4.1-11.6l-16.7-19.2l4.8,27.2L-981,438.6z"/>
	<path class="st11" d="M-948.7,372.6c-6.5-1.7-15.4,0.5-21.7,2.9c0,0,3.9,15.5,6.5,20.1c7.4,13.5,39.7,47.1,39.7,47.1
		c1.8-0.6,5.2-3.1,6.7-4.1L-948.7,372.6z"/>
	<path class="st24" d="M-971.2,381.6c6.3-2.4,18.9-6.4,25.4-4.7c0,0-8.6-20.2-12.5-24.6c-2.6-3-17-11.5-17-0.4
		C-975.3,366.9-971.2,381.6-971.2,381.6z"/>
	<g class="st2">
		<path class="st3" d="M-965.6,350.8c-0.1,0-0.2,0.1-0.3,0.1c-1.9,0.5-3.9-0.6-4.4-2.5c-0.5-2-0.6-4.5-0.6-4.8c0-2,1.6-3.6,3.6-3.6
			s3.6,1.6,3.6,3.6c0,0.7,0.1,2.1,0.3,3C-962.9,348.3-963.9,350.2-965.6,350.8z"/>
	</g>
	<g class="st2">
		<path class="st13" d="M-963.2,347.3c0-0.3,0-0.5-0.1-0.8c-0.2-0.8-0.3-2.3-0.3-3c0-2-1.6-3.6-3.6-3.6s-3.6,1.6-3.6,3.6
			c0,0,0,0.2,0,0.3C-969.1,345.9-966.2,346.8-963.2,347.3z"/>
	</g>
	<g class="st2">
		<path class="st3" d="M-959.7,336.5c1.2,3.6-0.8,7.4-4.4,8.6l0,0c-3.6,1.2-7.4-0.8-8.6-4.4l-1.5-4.5c-1.2-3.6,0.8-7.4,4.4-8.6l0,0
			c3.6-1.2,7.4,0.8,8.6,4.4L-959.7,336.5z"/>
	</g>
	<path class="st23" d="M-919.6,332.9c-0.1-0.1-0.3-0.2-0.5-0.2c0.2-0.2,0.3-0.4,0.5-0.6c0.4-0.5,0.4-1.2-0.1-1.6
		c-0.1-0.1-0.1-0.1-0.2-0.1c0.3-0.5,0.3-1.1-0.2-1.5c-0.3-0.3-0.8-0.4-1.2-0.2c0.5-0.5,0.8-0.9,0.9-0.9c0.4-0.5,0.4-1.2-0.1-1.6
		s-1.2-0.4-1.6,0.1c0,0-2.5,2.8-5,4.2c-1.1-1.7-2.6-2.2-2.6-2.3c-0.6-0.2-1.2,0.1-1.4,0.6c-0.2,0.6,0.1,1.2,0.6,1.5
		c0,0,0.9,0.4,1.6,1.4c-0.1,0.3-0.2,0.6-0.3,1c-16.6,22.4-38.5,14.5-39.5,14.1c-2-0.8-4.2,0.2-4.9,2.2c-0.8,2,0.2,4.2,2.2,5
		c0.3,0.1,5.6,2.1,13.3,2.1c1.5,0,3.2-0.1,4.9-0.3c8.3-1,20.5-5.7,30.3-18.3c0.2-0.1,0.4-0.2,0.7-0.5c0.2-0.1,0.4-0.3,0.6-0.4l0,0
		c0.6-0.5,1.3-1.2,2.1-2.1C-919.1,334-919.1,333.3-919.6,332.9z"/>
	<path class="st10" d="M-950.1,346.9l-0.9,0.2c-2.3,0.5-4.6,0.7-7,0.7c-5.8,0-9.8-1.5-10.3-1.6c-0.5-0.2-1.1-0.3-1.6-0.3
		c-1.9,0-3.5,1.1-4.2,2.9c-0.4,1.1-0.5,2.4,0.1,3.4c2.2,3.9,8.2,5.5,16,5.5c1.7,0,3.3-0.1,5-0.3c1-0.1,2-0.3,3.1-0.5l0.7-0.2
		c0,0-0.9-2.8-1.1-5.7C-950.5,349.9-950.1,346.9-950.1,346.9z"/>
	<path class="st11" d="M-974.3,339.8c2.4-1.5,3.2-4.3,2.9-7.1c2.1,1.4,3.7,0.5,5-1.9c3.9,5.5,9.9-2.7,1.8-5.6
		c-6.5-2.4-12.9,4.1-11.3,10.6L-974.3,339.8z"/>
</g>
<text transform="matrix(1 0 0 1 -858.1064 204.6506)" style="display:none;fill:#0076AD;enable-background:new    ; font-family:'ArialMT'; font-size:34.1705px;">oops!</text>
<text transform="matrix(1 0 0 1 -884.7164 229.5022)" style="display:none;fill:#4D99AD;enable-background:new    ; font-family:'ArialMT'; font-size:21.9435px;">Page not found </text>
<path class="st25" d="M-791.3,491.1c0,5.7-4.6,10.3-10.3,10.3h-44c-5.7,0-10.3-4.6-10.3-10.3l0,0c0-5.7,4.6-10.3,10.3-10.3h44
	C-795.9,480.7-791.3,485.3-791.3,491.1L-791.3,491.1z"/>
<text transform="matrix(1 0 0 1 -850.7719 492.588)" style="display:none;fill:#FFFFFF;enable-background:new    ; font-family:'ArialMT'; font-size:5.9746px;">go to homepage </text>
<text transform="matrix(1 0 0 1 -200.4531 141)" class="st26 st27 st28">REGISTRATION </text>
<text transform="matrix(1 0 0 1 -207.0531 189)" class="st26 st27 st28"> WILL START AT </text>
<text transform="matrix(1 0 0 1 -197.4531 239)" class="st26 st27 st28">12 am midnight</text>
</svg>
