<?xml version="1.0" encoding="utf-8"?>
<!-- Generator: Adobe Illustrator 19.0.0, SVG Export Plug-In . SVG Version: 6.00 Build 0)  -->
<svg version="1.1" id="Layer_1" xmlns="http://www.w3.org/2000/svg" xmlns:xlink="http://www.w3.org/1999/xlink" x="0px" y="0px"
	 viewBox="0 0 40 37.7" style="enable-background:new 0 0 40 37.7;" xml:space="preserve">
<style type="text/css">
	.st0{display:none;fill:#3C2FEA;}
	.st1{display:none;fill:none;stroke:#3E3EDD;stroke-width:8;stroke-miterlimit:10;}
	.st2{fill:#3E3EDD;}
	.st3{display:none;fill:#3E3EDD;}
	.st4{display:none;opacity:0.44;fill:none;stroke:#121293;stroke-width:4;stroke-miterlimit:10;}
	.st5{display:none;fill:#6060C6;}
	.st6{display:none;fill:#A1A1E5;}
</style>
<path id="XMLID_46_" class="st0" d="M-112.5-175.6c55,4.7,82.7,31,83.5,42.5c2.3,33.7-18.3,62.8-44.9,81.5s-38.6-2.7-38.6-2.7
	V-175.6z"/>
<circle id="XMLID_47_" class="st1" cx="-63.1" cy="461.7" r="43.4"/>
<circle id="XMLID_54_" class="st2" cx="21" cy="18.9" r="16.5"/>
<path id="XMLID_56_" class="st3" d="M363.1,188.4c-46.3,0-64.6,26.6-64.6,53s18.6,53,64.6,53"/>
<ellipse id="XMLID_57_" class="st4" cx="-76.3" cy="245.4" rx="13.2" ry="13"/>
<ellipse id="XMLID_60_" class="st4" cx="-47.3" cy="467.4" rx="20.8" ry="20.6"/>
<path id="XMLID_61_" class="st5" d="M363.5,392.4l-115.3,111c-8.8,8.5-8.2,22.9,1.3,30.6l114,92.4V392.4z"/>
<path id="XMLID_59_" class="st6" d="M-112.5,151.4c35-33,139.2-73,238.2-72s168.8,42,237.8,41c0,60,0,60,0,60s97,3,0,0
	s-181-49.3-283-34.3s-193,66.8-193,66.8V151.4z"/>
<path id="XMLID_53_" class="st6" d="M363.1,364.4c-129-22.4-239.6-48.5-314.6-32s-161,68.1-161,68.1v-96
	c52.6-37.5,179.5-90.3,295.6-46.1s131.3,26.5,180.4,28C363.1,328.3,363.1,364.4,363.1,364.4"/>
</svg>
