<?xml version="1.0" encoding="utf-8"?>
<!-- Generator: Adobe Illustrator 19.0.0, SVG Export Plug-In . SVG Version: 6.00 Build 0)  -->
<svg version="1.1" xmlns="http://www.w3.org/2000/svg" xmlns:xlink="http://www.w3.org/1999/xlink" x="0px" y="0px"
	 viewBox="0 0 325 326.1" style="enable-background:new 0 0 325 326.1;" xml:space="preserve">
<style type="text/css">
	.st0{opacity:0.8;fill:#B8BDFF;}
	.st1{opacity:0.2;}
	.st2{fill:#FFFFFF;}
	.st3{opacity:0.1;fill:#001627;}
	.st4{fill:#B3C1C6;}
	.st5{fill:#414074;}
	.st6{fill:#2D2D51;}
	.st7{opacity:0.5;}
	.st8{fill:#FFFFFF;stroke:#888CF0;stroke-width:0.8792;stroke-miterlimit:10;}
	.st9{fill:#888CF0;}
	.st10{fill:#FFC979;}
	.st11{fill:#888CF0;stroke:#888CF0;stroke-width:0.1755;stroke-miterlimit:10;}
	.st12{opacity:0.2;fill:#001627;}
	.st13{fill:#F1B762;}
	.st14{fill:#C68D42;stroke:#F1B762;stroke-width:1.7905;stroke-miterlimit:10;}
	.st15{fill:none;stroke:#F1B762;stroke-width:4.2768;stroke-miterlimit:10;}
	.st16{fill:none;stroke:#959FAF;stroke-width:1.0692;stroke-linecap:round;stroke-miterlimit:10;}
	.st17{fill:none;stroke:#F1B762;stroke-width:2.1384;stroke-linecap:round;stroke-miterlimit:10;}
	.st18{fill:#EDAA98;}
	.st19{fill:#FFC1AC;}
	.st20{fill:#001627;}
	.st21{fill:#03243A;}
	.st22{opacity:0.4;fill:#001627;}
	.st23{fill:#6E7989;}
	.st24{fill:#A9ACD8;}
	.st25{font-family:'Poppins-Bold';}
	.st26{font-size:12.5632px;}
	.st27{fill:#7178C6;}
	.st28{fill:#2E2E59;}
	.st29{display:none;}
	.st30{display:inline;fill:#FFFFFF;}
	.st31{fill:#D8A159;}
	.st32{display:inline;fill:#D8A159;}
	.st33{display:inline;fill:#FFC979;}
	.st34{display:inline;}
	.st35{font-size:14.5468px;}
</style>
<g id="BACKGROUND">
	<g>
		<rect id="XMLID_242_" x="-4.4" y="-4.5" class="st0" width="330.6" height="330.6"/>
		<g class="st1">
			<path id="XMLID_3_" class="st2" d="M306.1,153.9c0,2-0.3,7.1-0.8,15.1c-0.6,8.1-2.4,17.4-5.5,27.9c-3.1,10.6-7.9,21.8-14.4,33.5
				c-6.5,11.8-15.7,22.8-27.5,32.8c-11.9,10-26.8,18.3-44.9,24.9c-18.1,6.5-40.1,9.8-66.1,9.8c-20.9,0-39.8-2.3-56.8-7.2
				c-16.9-4.8-31.5-12.1-43.6-21.8c-12.1-9.8-21.6-22.4-28.4-37.7c-6.8-15.3-10.2-33.7-10.2-55.4c0-18.1,3-35.8,8.9-53.2
				c5.9-17.4,15.1-32.8,27.5-46.3C56.7,62.8,72.8,52,92.6,43.9c19.8-8.1,43.2-12.1,70.3-12.1c46.9,0,82.4,10.5,106.7,31.7
				C293.9,84.6,306.1,114.8,306.1,153.9z"/>
		</g>
	</g>
</g>
<g id="OBJECTS">
	<g>
		<g>
			<path id="XMLID_5_" class="st2" d="M326.3,257c-37.3-6.3-97.2-10.3-164.7-10.3S34.1,250.7-3.1,257v30.2v23.5h329.7V257H326.3z"/>
			<path id="XMLID_6_" class="st3" d="M326.3,257c-4.4-0.7-9.2-1.5-14.2-2.1c0.1,0.6,0.2,1.1,0.2,1.7c0,19.4-67.4,35.1-150.6,35.1
				S11.1,276,11.1,256.6c0-0.6,0.1-1.2,0.2-1.7c-5.1,0.7-10,1.4-14.5,2.2v30.2v23.5h329.7V257H326.3z"/>
			<path id="XMLID_7_" class="st4" d="M326.8,311.1c-37.3-2.9-97.2-4.8-164.7-4.8c-67.6,0-127.5,1.9-164.7,4.8V325v1H327v-15H326.8z
				"/>
		</g>
		<g>
			<g>
				<polygon id="XMLID_241_" class="st5" points="84,249.8 72.9,271.3 73.3,274.6 238.2,276 238.2,271.7 226.7,249.4 				"/>
				<polygon id="XMLID_240_" class="st6" points="72.9,271.3 73.3,274.6 238.2,276 238.2,271.7 				"/>
			</g>
			<g>
				<polyline id="XMLID_239_" class="st6" points="79.3,139.9 236.8,138.3 228.1,240.8 82.4,238 76.7,136.9 				"/>
				<polygon id="XMLID_223_" class="st5" points="77,136.9 76.7,136.9 82.4,234.5 228.1,237.4 236.8,138.3 				"/>
				<polyline id="XMLID_222_" class="st2" points="82.9,140.7 230.7,142.1 222.6,233.5 88.1,230.9 82.9,140.7 				"/>
				<g>
					<g id="XMLID_10_" class="st7">
						<rect id="XMLID_11_" x="113.2" y="156.6" class="st8" width="105.2" height="71.3"/>
						<rect id="XMLID_12_" x="116.3" y="162.2" class="st9" width="5.4" height="2.4"/>
						<rect id="XMLID_13_" x="116.3" y="166.8" class="st9" width="5.4" height="2.4"/>
						<rect id="XMLID_14_" x="116.3" y="171.3" class="st9" width="5.4" height="2.4"/>
						<rect id="XMLID_15_" x="116.3" y="175.8" class="st9" width="5.4" height="2.4"/>
						<rect id="XMLID_16_" x="116.3" y="180.3" class="st9" width="5.4" height="2.4"/>
						<rect id="XMLID_17_" x="116.3" y="184.8" class="st9" width="5.4" height="2.4"/>
						<rect id="XMLID_18_" x="116.3" y="189.4" class="st9" width="5.4" height="2.4"/>
						<rect id="XMLID_19_" x="116.3" y="193.9" class="st9" width="5.4" height="2.4"/>
						<rect id="XMLID_20_" x="116.3" y="198.4" class="st9" width="5.4" height="2.4"/>
						<rect id="XMLID_21_" x="116.3" y="202.9" class="st9" width="5.4" height="2.4"/>
						<rect id="XMLID_22_" x="116.3" y="207.4" class="st9" width="5.4" height="2.4"/>
						<rect id="XMLID_23_" x="116.3" y="212" class="st9" width="5.4" height="2.4"/>
						<rect id="XMLID_24_" x="116.3" y="216.5" class="st9" width="5.4" height="2.4"/>
						<rect id="XMLID_25_" x="116.3" y="221" class="st9" width="5.4" height="2.4"/>
						<rect id="XMLID_26_" x="134.5" y="162.2" class="st10" width="9.5" height="2.4"/>
						<rect id="XMLID_27_" x="146.6" y="162.2" class="st9" width="44.8" height="2.4"/>
						<rect id="XMLID_28_" x="131.2" y="166.8" class="st10" width="11.6" height="2.4"/>
						<rect id="XMLID_29_" x="145.6" y="166.8" class="st9" width="50.1" height="2.4"/>
						<rect id="XMLID_30_" x="142.8" y="171.3" class="st10" width="16.3" height="2.4"/>
						<rect id="XMLID_31_" x="161.5" y="171.3" class="st9" width="39.7" height="2.4"/>
						<rect id="XMLID_32_" x="151.3" y="175.8" class="st10" width="15.7" height="2.4"/>
						<rect id="XMLID_33_" x="170" y="175.8" class="st9" width="39.7" height="2.4"/>
						<rect id="XMLID_34_" x="135.8" y="180.3" class="st10" width="11.2" height="2.4"/>
						<rect id="XMLID_35_" x="149.8" y="180.3" class="st9" width="45.5" height="2.4"/>
						<rect id="XMLID_36_" x="131" y="184.8" class="st10" width="9.5" height="2.4"/>
						<rect id="XMLID_37_" x="143.1" y="184.8" class="st9" width="48.4" height="2.4"/>
						<rect id="XMLID_38_" x="153.1" y="189.4" class="st10" width="14" height="2.4"/>
						<rect id="XMLID_39_" x="170.2" y="189.4" class="st9" width="37.1" height="2.4"/>
						<rect id="XMLID_40_" x="136.6" y="193.9" class="st10" width="16.3" height="2.4"/>
						<rect id="XMLID_41_" x="155.6" y="193.9" class="st9" width="43.6" height="2.4"/>
						<rect id="XMLID_42_" x="144.1" y="198.4" class="st10" width="30" height="2.4"/>
						<rect id="XMLID_43_" x="176.8" y="198.4" class="st9" width="36.6" height="2.4"/>
						<rect id="XMLID_44_" x="142.4" y="202.9" class="st10" width="22.1" height="2.4"/>
						<rect id="XMLID_45_" x="168.3" y="202.9" class="st9" width="36.4" height="2.4"/>
						<rect id="XMLID_46_" x="136.6" y="207.4" class="st10" width="21.8" height="2.4"/>
						<rect id="XMLID_47_" x="161.1" y="207.4" class="st9" width="39.7" height="2.4"/>
						<rect id="XMLID_48_" x="135.7" y="212" class="st10" width="15" height="2.4"/>
						<rect id="XMLID_49_" x="154" y="212" class="st9" width="41" height="2.4"/>
						<rect id="XMLID_50_" x="131.4" y="216.5" class="st10" width="14.3" height="2.4"/>
						<rect id="XMLID_51_" x="148.1" y="216.5" class="st9" width="55.4" height="2.4"/>
						<rect id="XMLID_52_" x="155.2" y="221" class="st10" width="16.3" height="2.4"/>
						<rect id="XMLID_53_" x="174.7" y="221" class="st9" width="38.9" height="2.4"/>
						<rect id="XMLID_54_" x="113.2" y="156.8" class="st11" width="105.2" height="2.8"/>
					</g>
					<rect id="XMLID_55_" x="91.4" y="148" class="st2" width="105.2" height="71.3"/>
					<g id="XMLID_56_" class="st7">
						<rect id="XMLID_57_" x="91.4" y="148" class="st8" width="105.2" height="71.3"/>
						<rect id="XMLID_58_" x="94.5" y="153.6" class="st9" width="5.4" height="2.4"/>
						<rect id="XMLID_59_" x="94.5" y="158.2" class="st9" width="5.4" height="2.4"/>
						<rect id="XMLID_60_" x="94.5" y="162.7" class="st9" width="5.4" height="2.4"/>
						<rect id="XMLID_61_" x="94.5" y="167.2" class="st9" width="5.4" height="2.4"/>
						<rect id="XMLID_62_" x="94.5" y="171.7" class="st9" width="5.4" height="2.4"/>
						<rect id="XMLID_63_" x="94.5" y="176.2" class="st9" width="5.4" height="2.4"/>
						<rect id="XMLID_64_" x="94.5" y="180.8" class="st9" width="5.4" height="2.4"/>
						<rect id="XMLID_65_" x="94.5" y="185.3" class="st9" width="5.4" height="2.4"/>
						<rect id="XMLID_66_" x="94.5" y="189.8" class="st9" width="5.4" height="2.4"/>
						<rect id="XMLID_67_" x="94.5" y="194.3" class="st9" width="5.4" height="2.4"/>
						<rect id="XMLID_68_" x="94.5" y="198.8" class="st9" width="5.4" height="2.4"/>
						<rect id="XMLID_69_" x="94.5" y="203.4" class="st9" width="5.4" height="2.4"/>
						<rect id="XMLID_70_" x="94.5" y="207.9" class="st9" width="5.4" height="2.4"/>
						<rect id="XMLID_71_" x="94.5" y="212.4" class="st9" width="5.4" height="2.4"/>
						<rect id="XMLID_72_" x="112.7" y="153.6" class="st10" width="9.5" height="2.4"/>
						<rect id="XMLID_73_" x="124.8" y="153.6" class="st9" width="44.8" height="2.4"/>
						<rect id="XMLID_74_" x="109.3" y="158.2" class="st10" width="11.6" height="2.4"/>
						<rect id="XMLID_75_" x="123.7" y="158.2" class="st9" width="50.1" height="2.4"/>
						<rect id="XMLID_76_" x="121" y="162.7" class="st10" width="16.3" height="2.4"/>
						<rect id="XMLID_77_" x="139.6" y="162.7" class="st9" width="39.7" height="2.4"/>
						<rect id="XMLID_78_" x="129.5" y="167.2" class="st10" width="15.7" height="2.4"/>
						<rect id="XMLID_79_" x="148.2" y="167.2" class="st9" width="39.7" height="2.4"/>
						<rect id="XMLID_80_" x="114" y="171.7" class="st10" width="11.2" height="2.4"/>
						<rect id="XMLID_81_" x="128" y="171.7" class="st9" width="45.5" height="2.4"/>
						<rect id="XMLID_82_" x="109.2" y="176.2" class="st10" width="9.5" height="2.4"/>
						<rect id="XMLID_83_" x="121.3" y="176.2" class="st9" width="48.4" height="2.4"/>
						<rect id="XMLID_84_" x="131.3" y="180.8" class="st10" width="14" height="2.4"/>
						<rect id="XMLID_85_" x="148.4" y="180.8" class="st9" width="37.1" height="2.4"/>
						<rect id="XMLID_86_" x="114.7" y="185.3" class="st10" width="16.3" height="2.4"/>
						<rect id="XMLID_87_" x="133.8" y="185.3" class="st9" width="43.6" height="2.4"/>
						<rect id="XMLID_88_" x="122.3" y="189.8" class="st10" width="30" height="2.4"/>
						<rect id="XMLID_89_" x="155" y="189.8" class="st9" width="36.6" height="2.4"/>
						<rect id="XMLID_90_" x="120.6" y="194.3" class="st10" width="22.1" height="2.4"/>
						<rect id="XMLID_91_" x="146.5" y="194.3" class="st9" width="36.4" height="2.4"/>
						<rect id="XMLID_92_" x="114.7" y="198.8" class="st10" width="21.8" height="2.4"/>
						<rect id="XMLID_93_" x="139.3" y="198.8" class="st9" width="39.7" height="2.4"/>
						<rect id="XMLID_94_" x="113.9" y="203.4" class="st10" width="15" height="2.4"/>
						<rect id="XMLID_95_" x="132.2" y="203.4" class="st9" width="41" height="2.4"/>
						<rect id="XMLID_96_" x="109.5" y="207.9" class="st10" width="14.3" height="2.4"/>
						<rect id="XMLID_97_" x="126.3" y="207.9" class="st9" width="55.4" height="2.4"/>
						<rect id="XMLID_98_" x="133.4" y="212.4" class="st10" width="16.3" height="2.4"/>
						<rect id="XMLID_99_" x="152.9" y="212.4" class="st9" width="38.9" height="2.4"/>
						<rect id="XMLID_100_" x="91.4" y="148.2" class="st11" width="105.2" height="2.8"/>
					</g>
				</g>
			</g>
		</g>
		<g>
			<ellipse id="XMLID_8_" class="st12" cx="54.3" cy="266.2" rx="13.4" ry="3.7"/>
			<g id="XMLID_9_">
				<g id="XMLID_101_">
					<polygon id="XMLID_102_" class="st13" points="44.5,240.1 45.6,265.4 67.2,264.9 68.9,240.2 					"/>
					<path id="XMLID_103_" class="st14" d="M45.1,240.2c0,1.6,5.4,2.9,12,2.9c6.6,0,11.4-1.3,11.4-2.9c0-1.6-4.8-2.9-11.4-2.9
						C50.4,237.3,45.1,238.6,45.1,240.2z"/>
					<path id="XMLID_104_" class="st13" d="M45.6,265.2c0,1.6,5.6,3.4,11.2,3.4c5.6,0,10.4-2.1,10.4-3.7c0-1.6-4.6-2.9-10.2-2.9
						C51.4,262,45.6,263.6,45.6,265.2z"/>
				</g>
				<circle id="XMLID_105_" class="st15" cx="44.8" cy="251.8" r="6.5"/>
				<line id="XMLID_106_" class="st16" x1="62.8" y1="241.9" x2="62.8" y2="251.7"/>
				<polygon id="XMLID_107_" class="st2" points="62.8,249.2 59.6,252.6 60.1,257.6 66.2,257.3 66.5,251.5 				"/>
			</g>
		</g>
		<g>
			<ellipse id="XMLID_108_" class="st12" cx="289.9" cy="261.4" rx="18.4" ry="5.1"/>
			<g id="XMLID_109_">
				<path id="XMLID_219_" class="st13" d="M271.4,208.9c-1.3,1.7-3.7,2-5.4,0.6l0,0c-1.7-1.3-2-3.7-0.6-5.4l8.1-10.3
					c1.3-1.7,3.7-2,5.4-0.6l0,0c1.7,1.3,2,3.7,0.6,5.4L271.4,208.9z"/>
				<path id="XMLID_218_" class="st3" d="M271.4,208.9c-1.3,1.7-3.7,2-5.4,0.6l0,0c-1.7-1.3-2-3.7-0.6-5.4l8.1-10.3
					c1.3-1.7,3.7-2,5.4-0.6l0,0c1.7,1.3,2,3.7,0.6,5.4L271.4,208.9z"/>
				<path id="XMLID_217_" class="st13" d="M271.8,259.9c-0.1,3.5,7,5.2,15.9,5.5s16.4-0.9,16.5-4.4c0.1-3.5-7.7-9.7-16.6-10
					C278.7,250.7,271.9,256.4,271.8,259.9z"/>
				<path id="XMLID_216_" class="st3" d="M291,251.4c4.8,2.6,8.2,6.7,8.1,9.4c-0.1,2.4-2.6,3.9-6.4,4.6c6.6-0.2,11.5-1.6,11.6-4.4
					C304.4,257.9,298.5,252.8,291,251.4z"/>
				<line id="XMLID_110_" class="st17" x1="308.3" y1="189.9" x2="289.2" y2="252.8"/>
				<line id="XMLID_111_" class="st17" x1="312.2" y1="189.9" x2="293.1" y2="252.8"/>
				<line id="XMLID_215_" class="st17" x1="268.5" y1="210.1" x2="316.8" y2="194.1"/>
				<line id="XMLID_214_" class="st17" x1="266.5" y1="206.8" x2="314.7" y2="190.8"/>
				<path id="XMLID_213_" class="st13" d="M273.6,223.4c0.4-0.5,0.8-1,1.2-1.5c4.9-6.8,3.9-16-2.3-20.4c-6.2-4.4-15.2-2.5-20.1,4.3
					c-0.4,0.5-0.7,1.1-1,1.6L273.6,223.4z"/>
				<path id="XMLID_112_" class="st3" d="M272.5,201.4c-0.1-0.1-0.3-0.2-0.4-0.3c3.2,4.8,3.1,11.7-0.8,17.2c-0.4,0.5-0.8,1-1.2,1.5
					l-18.3-13.1c-0.1,0.2-0.3,0.5-0.4,0.7l22.2,16c0.4-0.5,0.8-1,1.2-1.5C279.7,215,278.7,205.9,272.5,201.4z"/>
				
					<ellipse id="XMLID_212_" transform="matrix(-0.5786 0.8156 -0.8156 -0.5786 590.0606 125.4049)" class="st2" cx="262.6" cy="215.1" rx="3.1" ry="13.9"/>
			</g>
		</g>
		<g>
			<g id="XMLID_113_">
				<polygon id="XMLID_211_" class="st18" points="131.6,160.4 125.9,172.2 130.9,175.9 				"/>
				<path id="XMLID_210_" class="st19" d="M132.8,152.4c0,0-12.7,44.1,12,38.2l1.4,14.4l19.1,1.9l0.7-20.5c0,0,6.6-42.4,3.3-46.4
					C166,135.9,138.6,128.6,132.8,152.4z"/>
				<path id="XMLID_209_" class="st18" d="M136,152.4c0,0-13.4,44.1,8.8,38.2l0.6,15.5l19.8,0.8l0.6-20.5c0,0,5.9-42.4,3-46.4
					C165.8,135.9,141.2,128.6,136,152.4z"/>
				<path id="XMLID_208_" class="st20" d="M175.9,140.6c-2.9-3.8-6.6-4.7-9.1-4.9c-0.4-7.1-10.9-7.5-19.2-6
					c-11,2.1-20.5-7.1-20.5-7.1c-2.8,9.9,2.8,14.6,2.8,14.6c-2.6-0.5-6.1-5.4-6.1-5.4c-1.4,10.6,9.2,17.4,9.2,17.4
					c-0.7,5.4,3.3,9.2,3.3,9.2l0.5,12.3h2.1c0,0-0.5-3.8,1.2-8.2c1.6-4.5,5.9-0.5,5.2,6.8c-0.7,7.3-4.7,4.2-4.7,4.2
					c0.7,5.7,8,13.9,8,13.9h17.2C182.9,159.5,180.4,146.5,175.9,140.6z"/>
				<path id="XMLID_207_" class="st21" d="M134.9,156.8c1.7-6.7,5.3-13.2,10.5-17.5c5.5-4.6,12.7-8,19.9-7.3
					c-3.3-3.6-11.2-3.6-17.7-2.3c-11,2.1-20.5-7.1-20.5-7.1c-2.8,9.9,2.8,14.6,2.8,14.6c-2.6-0.5-6.1-5.4-6.1-5.4
					c-1.4,10.6,9.2,17.4,9.2,17.4C132.6,152.6,133.8,155.2,134.9,156.8z"/>
				<g id="XMLID_206_">
					<path id="XMLID_248_" class="st18" d="M144,164.3c-0.3-0.2-0.5-0.4-0.8-0.6c-0.3-0.2-0.5-0.3-0.7-0.3c-0.1,0-0.1,0-0.1,0.1
						c0,0,0,0,0,0.1l0,0.1c0,0-0.1,0.2-0.1,0.3l-0.1,0.4l0-0.2c0,1.9-0.2,3.8-0.6,5.6l-0.6-0.9c0.2,0.1,0.4,0.2,0.6,0.3
						c0.2,0.1,0.3,0.2,0.5,0.3c0.2,0.1,0.3,0.3,0.5,0.4c0.2,0.2,0.3,0.4,0.4,0.7c0,0.1,0.1,0.3,0,0.4c0,0.1,0,0.3-0.1,0.4
						c-0.1,0.1-0.1,0.2-0.2,0.3l-0.2,0.2c-0.2,0.1-0.3,0.2-0.5,0.3c-0.2,0.1-0.4,0.1-0.5,0.2c0.2-0.3,0.4-0.6,0.5-0.8l0.1-0.2
						c0-0.1,0-0.1,0-0.2c0-0.1,0-0.1,0-0.1c0,0-0.1,0-0.1-0.1c-0.1,0-0.1-0.1-0.2-0.1c-0.1,0-0.2-0.1-0.3-0.1
						c-0.1,0-0.3-0.1-0.4-0.1c-0.1,0-0.3-0.1-0.4-0.1l-0.6-0.1l0-0.8c0-1.9,0.3-3.8,0.7-5.6l0-0.2l0,0c0.1-0.2,0.2-0.4,0.3-0.5
						c0.1-0.2,0.2-0.4,0.5-0.5c0.1-0.1,0.2-0.2,0.3-0.2c0.1-0.1,0.3-0.1,0.4-0.1c0.3,0,0.6,0.1,0.8,0.2c0.2,0.1,0.3,0.3,0.5,0.4
						c0.1,0.1,0.2,0.3,0.3,0.5C143.8,163.7,144,164,144,164.3z"/>
				</g>
			</g>
			<g id="XMLID_116_">
				<g>
					<path id="XMLID_118_" class="st5" d="M239.6,255.5c0,0-1.4,3.7,0.5,4.9c1.9,1.2,13.5,1,13.9-2.4c0.4-3.5-2.4-7.2-5.9-8.1
						S239.6,255.5,239.6,255.5z"/>
					<path id="XMLID_119_" class="st6" d="M252.1,252.4c0.2,0.7,0.2,1.4,0.1,2.1c-0.3,3.1-9.8,3.5-13.1,2.8
						c-0.2,1.1-0.1,2.5,0.9,3.2c1.9,1.2,13.5,1,13.9-2.4C254.2,256,253.4,254,252.1,252.4z"/>
					<path id="XMLID_120_" class="st19" d="M232.2,250.1c0,0,9.1-5.5,10.4-5.2c1.3,0.4,2.6,0.9,2.6,0.9s1.8-1,3-0.5
						c1.2,0.5,6.4,2.6,5.5,3.9c-0.9,1.3-3.9,0.3-3.9,0.3s3.7,0.9,4.4,1.7c0,0,0.3,1.7-1.4,1.7c-1.7,0-5.5-1.4-5.5-1.4
						s-5,6.6-8.9,6.6C234.6,257.9,232.2,250.1,232.2,250.1z"/>
					<path id="XMLID_121_" class="st19" d="M101.3,249.2c0,0-8-5.5-9.1-5.2c-1.1,0.4-2.2,0.9-2.2,0.9s-1.6-1-2.6-0.5
						c-1,0.5-5.6,2.6-4.8,3.9c0.8,1.3,3.4,0.3,3.4,0.3s-3.3,0.9-3.8,1.7c0,0-0.2,1.7,1.2,1.7s4.8-1.4,4.8-1.4s4.4,6.6,7.7,6.6
						C99.2,257.1,101.3,249.2,101.3,249.2z"/>
					<path id="XMLID_122_" class="st13" d="M233.1,246.9c-3.5,0-20.6,6.2-20.6,6.2s-12.7-36.8-23.3-47.4
						c-10.6-10.6-44.9-7.4-61.2-4.6c-10.3,1.8-17.2,15.5-20.4,48.3c-6.8-3.5-10-4.9-12.9-4.2c-7.7,1.9-5.8,11.3-5.8,11.3
						s12.8,9.5,17.7,11c3,0.9,10.8,11.1,16.4-25.4c-0.3,8.7-4.3,26.2-0.7,45.3l69.3,6.4c0,0-2.4-25.4-3.3-44.8
						c5.6,5.9,11.8,21.9,18,22.3c5.1,0.3,25.7-6,30.6-8.9C242,259.6,236.7,246.9,233.1,246.9z"/>
					<path id="XMLID_123_" class="st3" d="M235.7,249.9c-3.5,0-21.9,7.1-21.9,7.1s-0.5-1.5-1.3-3.9c0,0,0,0,0,0
						s-10.6-30.7-20.5-44.1c-0.1-0.1-0.2-0.2-0.3-0.3c-10.6-10.6-44.9-7.4-61.2-4.6c-10.3,1.8-17.2,15.5-20.4,48.3
						c-4.3-2.3-11.3-5.2-16.4-6.9c-6.5,2.5-4.7,10.9-4.7,10.9s12.8,9.5,17.7,11c3,0.9,10.8,11.1,16.4-25.4
						c-0.3,8.7-4.3,26.2-0.7,45.3l69.3,6.4c0,0-2.4-25.4-3.3-44.8c5.6,5.9,11.8,21.9,18,22.3c5.1,0.3,25.7-6,30.6-8.9
						c3.3-1.9,2-8.1-0.2-12.1C236.4,250.1,236,249.9,235.7,249.9z"/>
				</g>
				<path id="XMLID_117_" class="st20" d="M205.8,326.1h32.1c4.2-8.5,7.9-17.5,7.5-19.6c-3.5-19.1-54.4-23.6-54.4-23.6
					c-7,2.2-11.9,3.9-19.3,4.7c-15.8,1.8-31.8,1.3-47.6,0.1c0.8,7.6,2,14.4,3.8,18.8H185C192.8,311,199.6,318.8,205.8,326.1z"/>
			</g>
		</g>
		<g>
			<g>
				<path id="XMLID_125_" class="st5" d="M219.2,319.4c0,3.9-3.2,7.1-7.1,7.1h-94.9c-3.9,0-7.1-3.2-7.1-7.1v-11.5
					c0-3.9,3.2-7.1,7.1-7.1h94.9c3.9,0,7.1,3.2,7.1,7.1V319.4z"/>
				<path id="XMLID_126_" class="st22" d="M187.4,319.4c0,3.9-2.9,7-6.4,7h-64.5c-3.5,0-6.4-3.1-6.4-7v-10.9c0-3.9,2.9-7,6.4-7h64.5
					c3.5,0,6.4,3.1,6.4,7V319.4z"/>
			</g>
			<g>
				<path id="XMLID_127_" class="st5" d="M187.9,270c0,3.6-2.9,6.5-6.5,6.5h-59.8c-3.6,0-6.5-2.9-6.5-6.5v-47.5
					c0-3.6,2.9-6.5,6.5-6.5h59.8c3.6,0,6.5,2.9,6.5,6.5V270z"/>
				<path id="XMLID_128_" class="st22" d="M180.7,270.6c0,3.2-2.6,5.9-5.9,5.9h-53.9c-3.2,0-5.9-2.6-5.9-5.9v-42.3
					c0-3.2,2.6-5.9,5.9-5.9h53.9c3.2,0,5.9,2.6,5.9,5.9V270.6z"/>
			</g>
			<g>
				<path id="XMLID_129_" class="st23" d="M155.5,326.1v-70.7c0-3.4-2.8-6.2-6.2-6.2c-3.4,0-6.2,2.8-6.2,6.2v70.7H155.5z"/>
				<path id="XMLID_130_" class="st12" d="M152.6,326.1h2.9v-70.7c0-2.4-1.4-4.6-3.5-5.6c0.4,0.8,0.6,1.7,0.6,2.7V326.1z"/>
			</g>
		</g>
	</g>
	<g>
		<g>
			<g>
				<path id="XMLID_205_" class="st24" d="M283,17.4h-51.7c-3.7,0-6.7,3-6.7,6.7v31.7c0,3.7,3,6.7,6.7,6.7h23.2l-3.7,13.7h3.7
					l14.8-13.7H283c3.7,0,6.7-3,6.7-6.7V24.2C289.8,20.4,286.8,17.4,283,17.4z"/>
				<path id="XMLID_204_" class="st2" d="M279.3,17.4h-51.7c-3.7,0-6.7,3-6.7,6.7v31.7c0,3.7,3,6.7,6.7,6.7h23.2v13.7l14.8-13.7
					h13.7c3.7,0,6.7-3,6.7-6.7V24.2C286.1,20.4,283.1,17.4,279.3,17.4z"/>
			</g>
			<g id="XMLID_227_">
				<path id="XMLID_131_" class="st24" d="M167.2,83.3h-58.1c-4.2,0-7.6,2.7-7.6,6v28.1c0,3.2,3.1,5.7,7.1,5.9l-4.2,11.2h4.2
					l15.3-11.2h43.3c4.2,0,7.6-2.7,7.6-6V89.3C174.8,86,171.4,83.3,167.2,83.3z"/>
				<path id="XMLID_138_" class="st2" d="M163.1,83.3h-58.1c-4.2,0-7.6,2.7-7.6,6v28.1c0,3.2,3.1,5.7,7.1,5.9v11.2l15.3-11.2h43.3
					c4.2,0,7.6-2.7,7.6-6V89.3C170.6,86,167.3,83.3,163.1,83.3z"/>
				<text id="XMLID_224_" transform="matrix(1 0 0 1 101.0118 106.579)" class="st9 st25 st26">MONGODB</text>
			</g>
		</g>
		<g>
			<g>
				<circle id="XMLID_203_" class="st27" cx="194.2" cy="60.9" r="18.3"/>
				<circle id="XMLID_202_" class="st9" cx="190.3" cy="60.9" r="18.3"/>
				<g>
					<path id="XMLID_147_" class="st2" d="M181.5,57.4c-0.8,0-1.4,0.3-1.8,1c-0.4,0.6-0.7,1.5-0.7,2.6c0,2.3,0.9,3.5,2.6,3.5
						c0.5,0,1.1-0.1,1.6-0.2c0.5-0.1,1-0.3,1.5-0.5v2.8c-1,0.4-2.1,0.7-3.4,0.7c-1.8,0-3.2-0.5-4.2-1.6c-1-1.1-1.5-2.6-1.5-4.6
						c0-1.2,0.2-2.3,0.7-3.3c0.5-0.9,1.1-1.7,2-2.2c0.9-0.5,1.9-0.8,3.1-0.8c1.3,0,2.6,0.3,3.7,0.9l-1,2.6c-0.4-0.2-0.9-0.4-1.3-0.5
						C182.5,57.5,182,57.4,181.5,57.4z"/>
					<path id="XMLID_149_" class="st2" d="M195,63.3c0,0.7-0.2,1.4-0.6,2c-0.4,0.6-0.9,1-1.6,1.4c-0.7,0.3-1.6,0.5-2.5,0.5
						c-0.8,0-1.5-0.1-2-0.2c-0.5-0.1-1.1-0.3-1.7-0.6v-2.9c0.6,0.3,1.3,0.6,1.9,0.7c0.7,0.2,1.3,0.3,1.8,0.3c0.5,0,0.8-0.1,1.1-0.3
						c0.2-0.2,0.3-0.4,0.3-0.6c0-0.2,0-0.3-0.1-0.4c-0.1-0.1-0.2-0.2-0.4-0.4c-0.2-0.1-0.7-0.4-1.6-0.8c-0.8-0.4-1.4-0.7-1.8-1
						c-0.4-0.3-0.7-0.7-0.9-1.2c-0.2-0.4-0.3-0.9-0.3-1.5c0-1.1,0.4-2,1.2-2.6c0.8-0.6,1.9-0.9,3.3-0.9c1.2,0,2.5,0.3,3.8,0.9
						l-1,2.5c-1.1-0.5-2.1-0.8-2.9-0.8c-0.4,0-0.7,0.1-0.9,0.2c-0.2,0.1-0.3,0.3-0.3,0.6c0,0.2,0.1,0.4,0.4,0.6c0.2,0.2,0.9,0.5,2,1
						c1,0.5,1.8,1,2.2,1.5C194.8,61.8,195,62.5,195,63.3z"/>
					<path id="XMLID_151_" class="st2" d="M204.7,63.3c0,0.7-0.2,1.4-0.6,2c-0.4,0.6-0.9,1-1.6,1.4c-0.7,0.3-1.6,0.5-2.5,0.5
						c-0.8,0-1.5-0.1-2-0.2c-0.5-0.1-1.1-0.3-1.7-0.6v-2.9c0.6,0.3,1.3,0.6,1.9,0.7c0.7,0.2,1.3,0.3,1.8,0.3c0.5,0,0.8-0.1,1.1-0.3
						c0.2-0.2,0.3-0.4,0.3-0.6c0-0.2,0-0.3-0.1-0.4c-0.1-0.1-0.2-0.2-0.4-0.4c-0.2-0.1-0.7-0.4-1.6-0.8c-0.8-0.4-1.4-0.7-1.8-1
						c-0.4-0.3-0.7-0.7-0.9-1.2c-0.2-0.4-0.3-0.9-0.3-1.5c0-1.1,0.4-2,1.2-2.6c0.8-0.6,1.9-0.9,3.3-0.9c1.2,0,2.5,0.3,3.8,0.9
						l-1,2.5c-1.1-0.5-2.1-0.8-2.9-0.8c-0.4,0-0.7,0.1-0.9,0.2c-0.2,0.1-0.3,0.3-0.3,0.6c0,0.2,0.1,0.4,0.4,0.6c0.2,0.2,0.9,0.5,2,1
						c1,0.5,1.8,1,2.2,1.5S204.7,62.5,204.7,63.3z"/>
				</g>
			</g>
			<g>
				<g>
					<path id="XMLID_153_" class="st27" d="M80.6,97.7C80.6,84,69.6,73,55.9,73C42.3,73,31.2,84,31.2,97.7
						c0,13.6,11.1,24.7,24.7,24.7c3.3,0,6.5-0.7,9.5-1.9l3,7.1h4.1V116C77.5,111.5,80.6,104.9,80.6,97.7z"/>
					<path id="XMLID_154_" class="st9" d="M76.5,97.7C76.5,84,65.5,73,51.8,73S27.1,84,27.1,97.7c0,13.6,11.1,24.7,24.7,24.7
						c3.3,0,6.5-0.7,9.5-1.9l7.1,7.1V116C73.4,111.5,76.5,104.9,76.5,97.7z"/>
				</g>
				<g>
					<path id="XMLID_155_" class="st2" d="M43.1,109.6c-1,0-1.9-0.1-2.7-0.3v-4.1c0.3,0.1,0.6,0.1,0.9,0.2c0.3,0.1,0.7,0.1,1,0.1
						c0.9,0,1.5-0.3,1.9-0.8c0.4-0.5,0.6-1.4,0.6-2.7V83.9H50v17.7c0,2.6-0.6,4.7-1.7,6S45.4,109.6,43.1,109.6z"/>
					<path id="XMLID_157_" class="st2" d="M65.7,98.8c0,1.6-0.6,2.9-1.7,3.7c-1.1,0.8-2.7,1.2-4.8,1.2c-1.1,0-2.1-0.1-2.9-0.2
						c-0.8-0.1-1.7-0.3-2.5-0.7v-4.2c0.8,0.4,1.7,0.7,2.7,0.9c1,0.2,1.8,0.3,2.6,0.3c1.1,0,1.7-0.3,1.7-0.8c0-0.3-0.2-0.5-0.5-0.7
						c-0.3-0.2-1.2-0.6-2.8-1.2c-1.4-0.6-2.4-1.2-2.9-1.9c-0.6-0.7-0.8-1.6-0.8-2.8c0-1.4,0.5-2.5,1.6-3.3C56.5,88.4,58,88,60,88
						c1,0,1.9,0.1,2.8,0.3c0.9,0.2,1.8,0.5,2.7,1l-1.4,3.4c-0.7-0.3-1.4-0.6-2.2-0.8c-0.8-0.2-1.4-0.3-1.9-0.3
						c-0.9,0-1.3,0.2-1.3,0.6c0,0.3,0.1,0.5,0.4,0.7c0.3,0.2,1.2,0.6,2.6,1.1c1.1,0.4,1.9,0.9,2.4,1.3c0.5,0.4,0.9,0.9,1.2,1.5
						C65.6,97.3,65.7,98,65.7,98.8z"/>
				</g>
			</g>
		</g>
		<g>
			<g>
				<g id="XMLID_146_">
					<path id="XMLID_159_" class="st28" d="M103.3,9.4H66.9c-2.9,0-5.2,2.3-5.2,5.2V51c0,2.9,2.3,5.2,5.2,5.2h21.4l8.4,10.1h3.4
						V56.1h3.3c2.9,0,5.2-2.3,5.2-5.2V14.5C108.5,11.7,106.2,9.4,103.3,9.4z"/>
					<path id="XMLID_160_" class="st5" d="M100,9.4H63.6c-2.9,0-5.2,2.3-5.2,5.2V51c0,2.9,2.3,5.2,5.2,5.2H85l11.7,10.1V56.1h3.3
						c2.9,0,5.2-2.3,5.2-5.2V14.5C105.1,11.7,102.8,9.4,100,9.4z"/>
				</g>
				<g id="XMLID_161_">
					<path id="XMLID_162_" class="st2" d="M76.9,38.7l-12.1-5.4v-2.1l12.1-6v3.6l-7.4,3.4l7.4,3V38.7z"/>
					<path id="XMLID_164_" class="st2" d="M88.6,23.1L82,41h-4.1l6.5-18H88.6z"/>
					<path id="XMLID_166_" class="st2" d="M89.5,35.1l7.4-3l-7.4-3.4v-3.6l12.1,6v2.1l-12.1,5.4V35.1z"/>
				</g>
			</g>
			<g id="XMLID_228_">
				<g id="XMLID_236_">
					<path id="XMLID_238_" class="st28" d="M233.6,84.2h-28c-2.2,0-4,1.8-4,4v28c0,2.2,1.8,4,4,4h16.4l6.4,7.8h2.6v-7.8h2.5
						c2.2,0,4-1.8,4-4v-28C237.5,85.9,235.8,84.2,233.6,84.2z"/>
					<path id="XMLID_237_" class="st5" d="M231,84.2h-28c-2.2,0-4,1.8-4,4v28c0,2.2,1.8,4,4,4h16.4l9,7.8v-7.8h2.5c2.2,0,4-1.8,4-4
						v-28C234.9,85.9,233.2,84.2,231,84.2z"/>
				</g>
				<g id="XMLID_229_" class="st29">
					<path id="XMLID_234_" class="st30" d="M213.3,106.7l-9.3-4.1V101l9.3-4.6V99l-5.7,2.6l5.7,2.3V106.7z"/>
					<path id="XMLID_232_" class="st30" d="M222.2,94.7l-5,13.8H214l5-13.8H222.2z"/>
					<path id="XMLID_230_" class="st30" d="M222.9,103.9l5.7-2.3l-5.7-2.6v-2.7l9.3,4.6v1.6l-9.3,4.1V103.9z"/>
				</g>
			</g>
			<g>
				<g>
					<path id="XMLID_169_" class="st28" d="M288.1,115.3H256c-2.5,0-4.6,2-4.6,4.6v19.2c0,2.5,2,4.6,4.6,4.6l-2,9h3.4l9.8-9h20.9
						c2.5,0,4.6-2,4.6-4.6v-19.2C292.7,117.3,290.6,115.3,288.1,115.3z"/>
					<path id="XMLID_170_" class="st5" d="M284.7,115.3h-32.1c-2.5,0-4.6,2-4.6,4.6v19.2c0,2.5,2,4.6,4.6,4.6h1.5v9l9.8-9h20.9
						c2.5,0,4.6-2,4.6-4.6v-19.2C289.2,117.3,287.2,115.3,284.7,115.3z"/>
				</g>
				<g>
					<path id="XMLID_171_" class="st2" d="M261.4,134.5H260v-3.9h-4v3.9h-1.4v-8.7h1.4v3.6h4v-3.6h1.4V134.5z"/>
					<path id="XMLID_173_" class="st2" d="M266.7,134.5h-1.4V127h-2.6v-1.2h6.6v1.2h-2.6V134.5z"/>
					<path id="XMLID_175_" class="st2" d="M274.4,134.5l-2.5-7.3h0c0.1,1.1,0.1,2.1,0.1,3v4.2h-1.3v-8.7h2l2.4,6.9h0l2.5-6.9h2v8.7
						h-1.4v-4.3c0-0.4,0-1,0-1.7c0-0.7,0-1.1,0.1-1.3h0l-2.6,7.3H274.4z"/>
					<path id="XMLID_177_" class="st2" d="M281.9,134.5v-8.7h1.4v7.5h3.7v1.2H281.9z"/>
				</g>
			</g>
		</g>
		<g>
			<g>
				<circle id="XMLID_201_" class="st31" cx="53.8" cy="149.6" r="12.3"/>
				<circle id="XMLID_200_" class="st10" cx="51.5" cy="149.6" r="12.3"/>
				<g>
					<path id="XMLID_179_" class="st5" d="M47.8,149.3c0-1.5,0.2-2.9,0.7-4.2c0.4-1.3,1.1-2.5,1.9-3.4h1.7c-0.8,1.1-1.4,2.3-1.8,3.6
						c-0.4,1.3-0.6,2.7-0.6,4.1c0,1.4,0.2,2.7,0.6,4c0.4,1.3,1,2.5,1.8,3.5h-1.7c-0.8-1-1.5-2.1-1.9-3.4
						C48,152.2,47.8,150.8,47.8,149.3z"/>
					<path id="XMLID_181_" class="st5" d="M53.8,145.7c0-0.9,0.4-1.3,1.3-1.3c0.4,0,0.7,0.1,1,0.3c0.2,0.2,0.3,0.5,0.3,0.9
						c0,0.4-0.1,0.7-0.3,1c-0.2,0.2-0.5,0.4-0.9,0.4c-0.4,0-0.7-0.1-0.9-0.3C53.9,146.5,53.8,146.2,53.8,145.7z M53.8,153
						c0-0.4,0.1-0.7,0.3-1c0.2-0.2,0.5-0.3,0.9-0.3c0.4,0,0.7,0.1,0.9,0.3c0.2,0.2,0.3,0.5,0.3,0.9c0,0.4-0.1,0.7-0.3,1
						c-0.2,0.2-0.5,0.4-0.9,0.4c-0.4,0-0.7-0.1-0.9-0.3C53.9,153.7,53.8,153.4,53.8,153z"/>
				</g>
			</g>
			<g id="XMLID_221_" class="st29">
				<path id="XMLID_199_" class="st32" d="M237,104.3c0-10.9-8.8-19.7-19.7-19.7c-10.9,0-19.7,8.8-19.7,19.7
					c0,10,7.5,18.3,17.1,19.5l2.6,8.4h3.1l2.6-9.1C231.2,120.6,237,113.1,237,104.3z"/>
				<path id="XMLID_145_" class="st33" d="M233.9,104.3c0-10.9-8.8-19.7-19.7-19.7c-10.9,0-19.7,8.8-19.7,19.7
					c0,10,7.5,18.3,17.1,19.5l5.7,8.4l2.6-9.1C228.1,120.6,233.9,113.1,233.9,104.3z"/>
				<g id="XMLID_225_" class="st34">
					<path id="XMLID_184_" class="st5" d="M557.1-2.2c0,3.9-0.3,7-1,9.1s-1.6,3.2-2.9,3.2h-0.8v11.7h-2.8v-35.3h3.6
						c1.3,0,2.3,1,2.9,2.9C556.7-8.6,557.1-5.8,557.1-2.2z M552.4,2.4h0.5c0.4,0,0.8-0.4,1-1.2c0.2-0.8,0.4-1.9,0.4-3.3
						c0-2.4-0.4-3.6-1.2-3.6h-0.7V2.4z"/>
					<path id="XMLID_187_" class="st5" d="M567.6,21.8h-2.8V7.4h-3.2v14.4h-2.8v-35.3h2.8v13.1h3.2v-13.1h2.8V21.8z"/>
					<path id="XMLID_189_" class="st5" d="M577.3-2.2c0,3.9-0.3,7-1,9.1c-0.7,2.1-1.6,3.2-2.9,3.2h-0.8v11.7h-2.8v-35.3h3.6
						c1.3,0,2.3,1,2.9,2.9S577.3-5.8,577.3-2.2z M572.6,2.4h0.5c0.4,0,0.8-0.4,1-1.2c0.2-0.8,0.4-1.9,0.4-3.3c0-2.4-0.4-3.6-1.2-3.6
						h-0.7V2.4z"/>
				</g>
			</g>
			<g>
				<path id="XMLID_144_" class="st31" d="M148.1,27h-22.3c-1.7,0-3.2,1.4-3.2,3.2v22.3c0,1.7,1.4,3.2,3.2,3.2h11.1l6.1,8.1h3.2
					v-8.1h1.9c1.7,0,3.2-1.4,3.2-3.2V30.2C151.2,28.5,149.8,27,148.1,27z"/>
				<path id="XMLID_143_" class="st10" d="M144.9,27h-22.3c-1.7,0-3.2,1.4-3.2,3.2v22.3c0,1.7,1.4,3.2,3.2,3.2h11.1l9.3,8.1v-8.1
					h1.9c1.7,0,3.2-1.4,3.2-3.2V30.2C148,28.5,146.6,27,144.9,27z"/>
				<g>
					<g id="XMLID_192_">
						<path id="XMLID_142_" class="st5" d="M143.8,49.1c0.7,0.7,0.7,1.7,0,2.4l0,0c-0.7,0.7-1.7,0.7-2.4,0l-4.7-4.7
							c-0.7-0.7-0.7-1.7,0-2.4l0,0c0.7-0.7,1.7-0.7,2.4,0L143.8,49.1z"/>
					</g>
					<g id="XMLID_193_">
						<path class="st5" d="M135.1,42.7c-2.6,2.6-6.8,2.6-9.4,0c-2.6-2.6-2.6-6.8,0-9.4c2.6-2.6,6.8-2.6,9.4,0
							C137.7,35.9,137.7,40.1,135.1,42.7z M126.7,34.4c-2,2-2,5.3,0,7.3c2,2,5.3,2,7.3,0c2-2,2-5.3,0-7.3
							C132,32.4,128.7,32.4,126.7,34.4z"/>
					</g>
					<g id="XMLID_194_">
						
							<rect id="XMLID_139_" x="136.4" y="41.1" transform="matrix(0.7071 -0.7071 0.7071 0.7071 8.4846 110.072)" class="st5" width="1.5" height="7.3"/>
					</g>
				</g>
			</g>
		</g>
	</g>
	<text id="XMLID_134_" transform="matrix(1 0 0 1 224.6602 45.0859)" class="st9 st25 st35">NODEJS</text>
	<text id="XMLID_226_" transform="matrix(1 0 0 1 210.7744 105.918)" class="st2 st25 st35">{ }  </text>
</g>
</svg>
