<?xml version="1.0" encoding="utf-8"?>
<!-- Generator: Adobe Illustrator 19.0.0, SVG Export Plug-In . SVG Version: 6.00 Build 0)  -->
<svg version="1.1" xmlns="http://www.w3.org/2000/svg" xmlns:xlink="http://www.w3.org/1999/xlink" x="0px" y="0px"
	 viewBox="0 0 622.7 622.7" style="enable-background:new 0 0 622.7 622.7;" xml:space="preserve">
<style type="text/css">
	.st0{display:none;}
	.st1{display:inline;fill:#7D3AEA;}
	.st2{fill:#E6E7E8;}
	.st3{fill:#A6A8AB;}
	.st4{fill:#D0D2D3;}
	.st5{fill:#F9FAFE;}
	.st6{fill:#FFCE55;}
	.st7{opacity:0.3;fill:none;stroke:#FFFFFF;stroke-width:0.35;stroke-miterlimit:10;}
	.st8{opacity:0.2;fill:#FFFFFF;}
	.st9{fill:#CAEAFF;}
	.st10{fill:#81D4FA;}
	.st11{fill:#FFFFFF;}
	.st12{fill:#303637;}
	.st13{fill:#55B6FA;}
	.st14{fill:none;stroke:#FFFFFF;stroke-miterlimit:10;}
	.st15{fill:none;stroke:#FFFFFF;stroke-miterlimit:10;stroke-dasharray:4.7738,4.7738;}
	.st16{fill:none;stroke:#FFFFFF;stroke-miterlimit:10;stroke-dasharray:4.2013,4.2013;}
	.st17{fill:none;stroke:#FFFFFF;stroke-miterlimit:10;stroke-dasharray:4.1621,4.1621;}
	.st18{fill:#FFA97C;}
	.st19{opacity:0.3;fill:#D66634;}
	.st20{fill:#F06359;}
	.st21{fill:none;stroke:#F1F1F2;stroke-width:5;stroke-linecap:round;stroke-linejoin:round;stroke-miterlimit:10;}
	.st22{fill:none;stroke:#F1F1F2;stroke-width:2.5;stroke-linecap:round;stroke-linejoin:round;stroke-miterlimit:10;}
	.st23{fill:none;stroke:#F1F1F2;stroke-width:3;stroke-linecap:round;stroke-linejoin:round;stroke-miterlimit:10;}
	.st24{fill:#929497;}
	.st25{clip-path:url(#SVGID_2_);}
	.st26{fill:#F7D9BC;}
	.st27{fill:#00ADEE;}
	.st28{fill:#F6A49B;}
	.st29{fill:#292B2B;}
	.st30{fill:#F7A584;}
	.st31{fill:#27282A;}
	.st32{opacity:0.2;fill:#F7A584;}
	.st33{opacity:0.1;fill:#F3F3F3;}
	.st34{fill:none;stroke:#27282A;stroke-width:0.397;stroke-miterlimit:10;}
	.st35{fill:none;stroke:#58595B;stroke-miterlimit:10;}
	.st36{clip-path:url(#SVGID_4_);}
	.st37{fill:#FFBE90;}
	.st38{fill:#F4CDB3;}
	.st39{opacity:0.4;fill:#FFA97C;}
	.st40{fill:#4D4D4D;}
	.st41{opacity:0.1;fill:#303637;}
	.st42{fill:none;}
	.st43{fill:#FBA478;}
	.st44{fill:#E67944;}
	.st45{fill:#FFAC7A;}
	.st46{fill:#999999;}
	.st47{fill:#131313;}
	.st48{opacity:0.2;fill:#F1F1F1;}
	.st49{fill:none;stroke:#34BF6E;stroke-width:3;stroke-miterlimit:10;}
</style>
<g id="BACKGROUND" class="st0">
	<rect x="61.4" y="61.4" class="st1" width="500" height="500"/>
</g>
<g id="OBJECTS">
	<g>
		<g>
			<polygon class="st2" points="129.7,200.5 79.9,251 11.6,183.7 54.7,140 54.7,140 60.6,139.5 67.4,139 			"/>
			<polygon class="st3" points="54.7,140 60.6,145.8 67.4,139 67.4,139 			"/>
			<g>
				
					<rect x="27.7" y="176.7" transform="matrix(0.7023 -0.7119 0.7119 0.7023 -121.6874 82.353)" class="st4" width="19.9" height="19.9"/>
				<g>
					
						<rect x="39.5" y="158.8" transform="matrix(0.7023 -0.7119 0.7119 0.7023 -98.0624 85.458)" class="st4" width="27.3" height="2.5"/>
					
						<rect x="43.1" y="162.4" transform="matrix(0.7023 -0.7119 0.7119 0.7023 -99.5404 89.131)" class="st4" width="27.3" height="2.5"/>
					
						<rect x="46.8" y="166" transform="matrix(0.7023 -0.7119 0.7119 0.7023 -101.0184 92.804)" class="st4" width="27.3" height="2.5"/>
					
						<rect x="50.4" y="169.6" transform="matrix(0.7023 -0.7119 0.7119 0.7023 -102.4964 96.4769)" class="st4" width="27.3" height="2.5"/>
				</g>
			</g>
			<g>
				
					<rect x="47.1" y="195.9" transform="matrix(0.7023 -0.7119 0.7119 0.7023 -129.5563 101.9082)" class="st4" width="19.9" height="19.9"/>
				<g>
					
						<rect x="58.9" y="177.9" transform="matrix(0.7023 -0.7119 0.7119 0.7023 -105.9312 105.0128)" class="st4" width="27.3" height="2.5"/>
					
						<rect x="62.6" y="181.5" transform="matrix(0.7023 -0.7119 0.7119 0.7023 -107.4094 108.6862)" class="st4" width="27.3" height="2.5"/>
					
						<rect x="66.2" y="185.1" transform="matrix(0.7023 -0.7119 0.7119 0.7023 -108.8874 112.3592)" class="st4" width="27.3" height="2.5"/>
					
						<rect x="69.9" y="188.8" transform="matrix(0.7023 -0.7119 0.7119 0.7023 -110.3654 116.0322)" class="st4" width="27.3" height="2.5"/>
				</g>
			</g>
			<g>
				
					<rect x="66.6" y="215.1" transform="matrix(0.7023 -0.7119 0.7119 0.7023 -137.4253 121.4634)" class="st4" width="19.9" height="19.9"/>
				<g>
					
						<rect x="78.4" y="197.1" transform="matrix(0.7023 -0.7119 0.7119 0.7023 -113.8002 124.5679)" class="st4" width="27.3" height="2.5"/>
					
						<rect x="82" y="200.7" transform="matrix(0.7023 -0.7119 0.7119 0.7023 -115.2782 128.2409)" class="st4" width="27.3" height="2.5"/>
					
						<rect x="85.7" y="204.3" transform="matrix(0.7023 -0.7119 0.7119 0.7023 -116.7563 131.9144)" class="st4" width="27.3" height="2.5"/>
					
						<rect x="89.3" y="207.9" transform="matrix(0.7023 -0.7119 0.7119 0.7023 -118.2343 135.5874)" class="st4" width="27.3" height="2.5"/>
				</g>
			</g>
		</g>
		<g>
			<polygon class="st5" points="130.5,195.2 76.3,241 14.4,167.7 61.3,128.1 61.3,128.1 67.2,128.2 74,128.3 			"/>
			<polygon class="st3" points="61.3,128.1 66.7,134.5 74,128.3 74,128.3 			"/>
			<g>
				
					<rect x="30.1" y="163.1" transform="matrix(0.7638 -0.6454 0.6454 0.7638 -102.261 66.7168)" class="st4" width="19.9" height="19.9"/>
				<g>
					
						<rect x="44.3" y="146.7" transform="matrix(0.7638 -0.6454 0.6454 0.7638 -81.7877 72.3081)" class="st4" width="27.3" height="2.5"/>
					
						<rect x="47.6" y="150.6" transform="matrix(0.7638 -0.6454 0.6454 0.7638 -83.5352 75.371)" class="st4" width="27.3" height="2.5"/>
					
						<rect x="50.9" y="154.5" transform="matrix(0.7638 -0.6454 0.6454 0.7638 -85.2826 78.4336)" class="st4" width="27.3" height="2.5"/>
					
						<rect x="54.2" y="158.4" transform="matrix(0.7638 -0.6454 0.6454 0.7638 -87.0303 81.4969)" class="st4" width="27.3" height="2.5"/>
				</g>
			</g>
			<g>
				
					<rect x="47.7" y="184" transform="matrix(0.7638 -0.6454 0.6454 0.7638 -111.565 83.0241)" class="st4" width="19.9" height="19.9"/>
				<g>
					
						<rect x="61.9" y="167.6" transform="matrix(0.7638 -0.6454 0.6454 0.7638 -91.0917 88.6153)" class="st4" width="27.3" height="2.5"/>
					
						<rect x="65.2" y="171.5" transform="matrix(0.7638 -0.6454 0.6454 0.7638 -92.839 91.6778)" class="st4" width="27.3" height="2.5"/>
					
						<rect x="68.5" y="175.4" transform="matrix(0.7638 -0.6454 0.6454 0.7638 -94.5865 94.7407)" class="st4" width="27.3" height="2.5"/>
					
						<rect x="71.8" y="179.3" transform="matrix(0.7638 -0.6454 0.6454 0.7638 -96.3342 97.804)" class="st4" width="27.3" height="2.5"/>
				</g>
			</g>
			<g>
				
					<rect x="65.3" y="204.9" transform="matrix(0.7638 -0.6454 0.6454 0.7638 -120.8693 99.3318)" class="st4" width="19.9" height="19.9"/>
				<g>
					
						<rect x="79.5" y="188.4" transform="matrix(0.7638 -0.6454 0.6454 0.7638 -100.3956 104.9225)" class="st4" width="27.3" height="2.5"/>
					
						<rect x="82.8" y="192.3" transform="matrix(0.7638 -0.6454 0.6454 0.7638 -102.1429 107.985)" class="st4" width="27.3" height="2.5"/>
					
						<rect x="86.1" y="196.3" transform="matrix(0.7638 -0.6454 0.6454 0.7638 -103.8906 111.0483)" class="st4" width="27.3" height="2.5"/>
					
						<rect x="89.5" y="200.2" transform="matrix(0.7638 -0.6454 0.6454 0.7638 -105.6381 114.1112)" class="st4" width="27.3" height="2.5"/>
				</g>
			</g>
		</g>
		<g>
			<path class="st6" d="M55.8,187l-6.6-11.5c-1.8-3.1-0.7-7.1,2.4-9l42.7-24.7c3.1-1.8,7.1-0.7,9,2.4l47.1,81.3
				c1.8,3.1,0.7,7.1-2.4,9l-34.5,20l-13.9,8.1l-5.7,3.3c-3.1,1.8-7.1,0.7-9-2.4l-33.9-58.5c-1.8-3.1-0.7-7.1,2.4-9l0,0
				C56.6,194.1,57.7,190.1,55.8,187z"/>
			<path class="st7" d="M147.8,228.9L90,262.4l-35.1-60.6l3-1.8c4.5-2.6,6-8.3,3.4-12.8L52,171.1l46.6-27L147.8,228.9z"/>
			<path class="st8" d="M133.3,225.6L133.3,225.6c1.9-1.1,2.6-3.6,1.5-5.5l-35.8-61.8c-1.1-1.9-3.6-2.6-5.5-1.5l0,0
				c-1.9,1.1-2.6,3.6-1.5,5.5l35.8,61.8C128.9,226.1,131.3,226.7,133.3,225.6z"/>
		</g>
	</g>
	<g>
		<g>
			<path class="st9" d="M208.9,71.1c0.2-0.7,0.3-1.5,0.3-2.2c0-5.4-4.4-9.8-9.8-9.8c-1.5,0-2.8,0.3-4.1,0.9
				c-0.4-3.6-3.5-6.4-7.2-6.4c-3.1,0-5.7,1.9-6.7,4.6c-0.6-0.2-1.3-0.3-2-0.3c-3.2,0-6,1.9-7.4,4.6c-0.3,0-0.6,0-0.9,0
				c-5,0-9.2,3.8-9.7,8.7H208.9z"/>
			<g>
				<path class="st10" d="M188.1,53.6c-0.8,0-1.7,0.2-2.4,0.4c2.6,0.9,4.5,3.2,4.8,6c1.2-0.6,2.6-0.9,4.1-0.9c0.2,0,0.4,0,0.6,0
					C194.4,55.9,191.5,53.6,188.1,53.6z"/>
				<path class="st10" d="M199.3,59.1c-0.8,0-1.6,0.1-2.4,0.3c4.2,1.1,7.4,4.9,7.4,9.5c0,0.8-0.1,1.5-0.3,2.2h4.8
					c0.2-0.7,0.3-1.5,0.3-2.2C209.2,63.5,204.8,59.1,199.3,59.1z"/>
				<path class="st9" d="M195.3,60c0.5-0.2,1.1-0.4,1.7-0.6c-0.6-0.1-1.2-0.2-1.8-0.3C195.2,59.4,195.2,59.7,195.3,60z"/>
			</g>
		</g>
		<g>
			<path class="st9" d="M159.4,71.1c0-0.4,0.1-0.8,0.1-1.2c0-6.3-5.1-11.5-11.4-11.6c-1.7-2.5-4.3-4.3-7.3-4.9
				c-0.6-5.8-5.5-10.4-11.5-10.4c-5.2,0-9.6,3.4-11.1,8.2c-1-0.3-2-0.4-3.1-0.4c-5.3,0-9.7,3.5-11.1,8.4c-1.8-1.1-3.8-1.7-6-1.7
				c-6.4,0-11.6,5.2-11.6,11.6c0,0.7,0.1,1.4,0.2,2.1H159.4z"/>
			<g>
				<path class="st9" d="M112.5,51.3c0,0,0-0.1,0-0.1c-0.1,0-0.2,0-0.3,0.1C112.3,51.2,112.4,51.2,112.5,51.3z"/>
				<path class="st10" d="M148,58.4c-1.7-2.5-4.3-4.3-7.3-4.9c-0.6-5.8-5.5-10.4-11.5-10.4c-1,0-2,0.1-2.9,0.4
					c4.6,1.2,8.2,5.2,8.6,10c3,0.6,5.6,2.4,7.3,4.9c6.3,0.1,11.4,5.2,11.4,11.6c0,0.4,0,0.8-0.1,1.2h5.8c0-0.4,0.1-0.8,0.1-1.2
					C159.4,63.6,154.3,58.5,148,58.4z"/>
				<path class="st9" d="M95.1,57.9c1.1,0.3,2.2,0.7,3.1,1.3c0.2-0.6,0.4-1.1,0.6-1.7c-0.3,0-0.6,0-0.9,0C97,57.5,96,57.6,95.1,57.9
					z"/>
			</g>
		</g>
		<g>
			<path class="st11" d="M190.8,79.5c0.1-0.4,0.1-0.8,0.1-1.2v0c0-3.8-3.1-7-7-7h-4.6c0.1-0.5,0.1-1,0.1-1.6c0-5.3-4-9.7-9.1-10.3
				c-1.8-6.4-7.6-11.1-14.6-11.1c-7.2,0-13.2,5-14.7,11.7c-1.1-0.4-2.3-0.6-3.5-0.6c-5.7,0-10.4,4.7-10.4,10.4c0,0.5,0.1,1,0.1,1.6
				h-4.1c-3.8,0-7,3.1-7,7v0c0,0.4,0,0.8,0.1,1.2H190.8z"/>
			<g>
				<path class="st10" d="M170.4,59.4c-1.8-6.4-7.6-11.1-14.6-11.1c-0.6,0-1.2,0.1-1.9,0.1c6.1,0.8,11.2,5.2,12.7,11
					c5.1,0.6,9.1,5,9.1,10.3c0,0.5-0.1,1-0.1,1.6h3.7c0.1-0.5,0.1-1,0.1-1.6C179.5,64.5,175.5,60.1,170.4,59.4z"/>
				<path class="st10" d="M187.3,78.3L187.3,78.3c0,0.4,0,0.8-0.1,1.2h3.7c0.1-0.4,0.1-0.8,0.1-1.2v0c0-3.8-3.1-7-7-7h-3.7
					C184.1,71.3,187.3,74.4,187.3,78.3z"/>
			</g>
		</g>
	</g>
	<path class="st12" d="M337.4,346.5H108.1c-4.6,0-8.3-3.7-8.3-8.3V193.5c0-4.6,3.7-8.3,8.3-8.3h229.3c4.6,0,8.3,3.7,8.3,8.3v144.7
		C345.7,342.7,342,346.5,337.4,346.5z"/>
	<path class="st13" d="M331.2,338.5h-217c-4.3,0-7.9-3.3-7.9-7.5V200.6c0-4.1,3.5-7.5,7.9-7.5h217c4.3,0,7.9,3.3,7.9,7.5V331
		C339.1,335.2,335.6,338.5,331.2,338.5z"/>
	<path class="st12" d="M206.7,346.5v49.1h32v-49.1H206.7z M222.7,383.2c-5.8,0-10.4-4.7-10.4-10.4s4.7-10.4,10.4-10.4
		s10.4,4.7,10.4,10.4S228.5,383.2,222.7,383.2z"/>
	<rect x="173.6" y="395.6" class="st12" width="98.2" height="9.7"/>
	<g>
		<g>
			<line class="st14" x1="362.9" y1="265.8" x2="364.9" y2="265.8"/>
			<line class="st15" x1="369.7" y1="265.8" x2="386.4" y2="265.8"/>
			<polyline class="st14" points="388.8,265.8 390.9,265.8 390.9,263.7 			"/>
			<line class="st16" x1="390.9" y1="259.5" x2="390.9" y2="93.6"/>
			<polyline class="st14" points="390.9,91.5 390.9,89.4 388.8,89.4 			"/>
			<line class="st17" x1="384.7" y1="89.4" x2="228.6" y2="89.4"/>
			<line class="st14" x1="226.5" y1="89.4" x2="224.4" y2="89.4"/>
		</g>
	</g>
	<circle class="st11" cx="362.1" cy="266" r="5"/>
	<circle class="st11" cx="219.4" cy="89.4" r="5"/>
	<path class="st18" d="M176.4,235.8c4-1.6,9.1-2.7,12.3,0.2c1.7,1.5,2.4,3.8,3,6c1.1,4.4,1.6,8.9,2.1,13.3
		c0.8,6.6,1.4,13.2,0.6,19.8c-0.9,6.6-3.4,13.1-8.2,17.7c-1.1,1.1-2.5,2.1-4,2.4c-1.1,0.2-2.3,0.1-3.4-0.1
		c-3.9-0.5-7.7-1.1-11.6-1.6c-1.3-0.2-2.6-0.4-3.9-0.9c-1.8-0.7-3.2-2.1-4.5-3.6c-8-9.2-10.3-22.5-6.7-34
		C155.4,244.8,167.1,239.5,176.4,235.8z"/>
	<polyline class="st19" points="168.8,250.8 164,252.9 168.8,252.2 168.8,250.1 	"/>
	<g>
		<g>
			<rect x="168.8" y="150.5" class="st5" width="115.3" height="150.3"/>
			<rect x="168.8" y="150.5" class="st12" width="115.3" height="9.6"/>
		</g>
		<circle class="st20" cx="276.3" cy="154.6" r="1.8"/>
		<circle class="st2" cx="269.6" cy="154.6" r="1.8"/>
		<circle class="st2" cx="262.8" cy="154.6" r="1.8"/>
	</g>
	<line class="st21" x1="290.3" y1="482.5" x2="160.1" y2="482.5"/>
	<line class="st21" x1="282.6" y1="128.1" x2="202.4" y2="128.1"/>
	<line class="st21" x1="481.8" y1="502.3" x2="401.5" y2="502.3"/>
	<circle class="st22" cx="95.9" cy="391.7" r="3.8"/>
	<circle class="st23" cx="286.8" cy="110.2" r="4.7"/>
	<circle class="st23" cx="477.1" cy="475.8" r="4.7"/>
	<circle class="st23" cx="329.9" cy="43.1" r="4.7"/>
	<g>
		<circle class="st24" cx="196.4" cy="190.1" r="19.2"/>
		<g>
			<defs>
				<circle id="SVGID_1_" cx="196.4" cy="190.4" r="18.9"/>
			</defs>
			<clipPath id="SVGID_2_">
				<use xlink:href="#SVGID_1_"  style="overflow:visible;"/>
			</clipPath>
			<g class="st25">
				<g>
					<path class="st26" d="M199,199.6l1.7,0.4c3.2,0.7,5.4,3.5,5.4,6.8v2.5c0,0.4-0.3,0.8-0.8,0.8h-9h-9c-0.4,0-0.8-0.3-0.8-0.8
						v-2.5c0-3.3,2.3-6.1,5.4-6.8l1.5-0.3c0,0,0,0,0.1,0l1.7-0.2c0,0,0.1,0,0.1,0h2.2c0,0,0.1,0,0.1,0L199,199.6
						C199,199.6,199,199.6,199,199.6z"/>
					<g>
						<path class="st27" d="M202,200.2l-3-0.7l-0.8-0.1l0,1.9c0,0,0,0,0,0l0-0.1c0,0,0,0.1,0,0.1l0,0v0c-0.1,0.9-0.8,1.6-1.7,1.6
							c-1,0-1.8-0.8-1.8-1.8v0v-1.7l-1,0.1l-2.7,0.6c-0.7,0.2-1.3,0.4-1.9,0.8v8.9h7.4h7.5v-8.9C203.4,200.7,202.7,200.4,202,200.2z
							"/>
					</g>
					<path class="st27" d="M189.1,206.5h-2.3c0,0-0.6-3.4,2.3-5.4V206.5z"/>
					<path class="st27" d="M204,206.5h2.3c0,0,0.6-3.4-2.3-5.4V206.5z"/>
					<g>
						<path class="st26" d="M198.3,199.4l0,1.9l0-0.1c0,1-0.8,1.8-1.8,1.8c-1,0-1.8-0.8-1.8-1.8v0v-2.8l0.4-0.4h0.3l1.7-0.4l0.5,0.1
							l0.6,0.2"/>
						<path class="st28" d="M197.2,197.6l-1.7,0.4h-0.3l-0.4,0.4v1.3c0.5,0.3,1.1,0.5,1.8,0.5c0.6,0,1.2-0.2,1.7-0.5l0-0.4v-1.5
							l-0.6-0.2L197.2,197.6z"/>
					</g>
				</g>
				<path class="st26" d="M196.5,199L196.5,199c-3.9,0-7-3.1-7-7v-7.8c0-3.9,3.1-7,7-7l0,0c3.9,0,7,3.1,7,7v7.8
					C203.5,195.9,200.4,199,196.5,199z"/>
				<circle class="st29" cx="199.7" cy="187.6" r="0.7"/>
				<circle class="st29" cx="193.5" cy="187.6" r="0.7"/>
				<g>
					<g>
						<path class="st30" d="M196.6,194.7c-0.9,0-1.9-0.3-2.5-0.7c-0.1-0.1-0.1-0.2,0-0.2c0.1-0.1,0.2-0.1,0.2,0
							c0.6,0.4,1.5,0.7,2.3,0.7c0.9,0,1.7-0.3,2.4-0.7c0.1,0,0.2,0,0.2,0c0.1,0.1,0,0.2,0,0.2C198.5,194.4,197.6,194.7,196.6,194.7z
							"/>
					</g>
				</g>
				<g>
					<g>
						<path class="st30" d="M195.8,197.2c-0.1,0-0.1,0-0.1-0.1c0-0.1,0-0.2,0.1-0.2c0.2-0.1,0.5-0.2,0.8-0.2c0.3,0,0.5,0,0.7,0.1
							c0.1,0,0.1,0.1,0.1,0.2c0,0.1-0.1,0.1-0.2,0.1c-0.2-0.1-0.4-0.1-0.6-0.1C196.3,197.1,196.1,197.1,195.8,197.2
							C195.9,197.2,195.9,197.2,195.8,197.2z"/>
					</g>
				</g>
				<path class="st28" d="M203.5,187.4L203.5,187.4c0.7,0,1.4,0.6,1.4,1.4v0.8c0,0.7-0.6,1.4-1.4,1.4h0"/>
				<path class="st28" d="M189.5,187.4L189.5,187.4c-0.7,0-1.4,0.6-1.4,1.4v0.8c0,0.7,0.6,1.4,1.4,1.4l0,0"/>
				<path class="st28" d="M196.4,187.9l-0.5,2.2c-0.1,0.5,0.3,1,0.8,1l0,0c0.5,0,0.9-0.5,0.8-1l-0.5-2.2
					C196.8,187.7,196.5,187.7,196.4,187.9z"/>
				<g>
					<g>
						<g>
							<path class="st31" d="M194.6,185.7c-0.1,0-0.1,0-0.2-0.1c-1-0.8-1.6-0.1-1.6,0c-0.1,0.1-0.3,0.2-0.4,0
								c-0.1-0.1-0.2-0.3,0-0.4c0.4-0.4,1.3-1,2.5,0c0.1,0.1,0.2,0.3,0,0.4C194.7,185.7,194.7,185.7,194.6,185.7z"/>
						</g>
					</g>
				</g>
				<g>
					<g>
						<g>
							<path class="st31" d="M198.6,185.7c-0.1,0-0.2,0-0.2-0.1c-0.1-0.1-0.1-0.3,0-0.4c1.2-0.9,2.2-0.4,2.5,0
								c0.1,0.1,0.1,0.3,0,0.4c-0.1,0.1-0.3,0.1-0.4,0c-0.1-0.1-0.7-0.7-1.6,0C198.7,185.7,198.7,185.7,198.6,185.7z"/>
						</g>
					</g>
				</g>
				<path class="st26" d="M199.8,197c0,0.1,0,0.1,0,0.2"/>
				<rect x="204" y="206.5" class="st28" width="0.9" height="3.5"/>
				<rect x="188.2" y="206.5" class="st28" width="0.9" height="3.5"/>
				<path class="st32" d="M196.5,199C196.5,199,196.5,199,196.5,199L196.5,199c3.9,0,7-3.1,7-7v-5l0,0c0,0-0.4,6.9-5.8,9
					c-0.8,0.3-1.6,0.3-2.4,0c-5.4-2.1-5.8-9-5.8-9l0,0v5C189.5,195.9,192.6,199,196.5,199L196.5,199C196.5,199,196.5,199,196.5,199"
					/>
				<path class="st31" d="M203,178.6c-1-2.3-3.4-4.3-8.7-3.4c-0.1,0.1-1.4,0.2-2.2,1.6c-1.6,0.2-3.6,1.8-2.6,9.9
					c0,0,1.2-9.1,4.2-5.8c0,0,0,0,0,0c1,1.1,3.6,3.2,9.8,3.3c0.1,1.3,0,2.5,0,2.5C205.4,180.5,203.9,179,203,178.6z"/>
				<path class="st33" d="M197,181.8c-0.8-0.4-1.6-1-2.2-1.9c-0.9-1.3-2.3-1-2.3-1l0.1,0.2c0.1,0,1.2-0.2,2.1,0.9
					c0.6,0.9,1.4,1.6,2.3,2c1.4,0.6,3.7,1.3,7.4,1.5c0-0.1,0-0.2,0-0.3C200.7,183.1,198.4,182.4,197,181.8z"/>
				<path class="st33" d="M204.4,181c-6.1-0.1-7.5-1.5-7.8-2.1l0-0.1c-1.7-2.4-4.1-1.4-4.1-1.4l0.1,0.2c0,0,2.2-0.9,3.8,1.3l0,0
					c0.7,1.4,3.5,2.2,8,2.2C204.4,181.2,204.4,181.1,204.4,181z"/>
			</g>
		</g>
		<g>
			<circle class="st34" cx="199.6" cy="187.7" r="1.8"/>
			<line class="st34" x1="201.3" y1="187.2" x2="203.5" y2="187.2"/>
		</g>
		<g>
			<circle class="st34" cx="193.4" cy="187.7" r="1.8"/>
			<line class="st34" x1="191.7" y1="187.2" x2="189.5" y2="187.2"/>
		</g>
		<line class="st34" x1="195.1" y1="187.6" x2="197.9" y2="187.6"/>
	</g>
	<rect x="224.4" y="177.6" class="st4" width="48.4" height="5.9"/>
	<rect x="224.4" y="190.2" class="st4" width="48.4" height="5.9"/>
	<rect x="224.4" y="202.7" class="st4" width="48.4" height="5.9"/>
	<rect x="199.6" y="221.6" class="st4" width="73.3" height="5.9"/>
	<rect x="199.6" y="240.5" class="st4" width="73.3" height="5.9"/>
	<rect x="199.6" y="259.4" class="st4" width="73.3" height="5.9"/>
	<rect x="199.6" y="278.4" class="st4" width="73.3" height="5.9"/>
	<g>
		<rect x="181" y="220.2" class="st35" width="8.1" height="7.3"/>
		<rect x="181" y="239.8" class="st35" width="8.1" height="7.3"/>
		<rect x="181" y="259.5" class="st35" width="8.1" height="7.3"/>
		<rect x="181" y="279.2" class="st35" width="8.1" height="7.3"/>
	</g>
	<g>
		<g>
			<g>
				<defs>
					<path id="SVGID_3_" d="M331.2,338.5h-217c-4.3,0-7.9-3.3-7.9-7.5V200.6c0-4.1,3.5-7.5,7.9-7.5h217c4.3,0,7.9,3.3,7.9,7.5V331
						C339.1,335.2,335.6,338.5,331.2,338.5z"/>
				</defs>
				<clipPath id="SVGID_4_">
					<use xlink:href="#SVGID_3_"  style="overflow:visible;"/>
				</clipPath>
				<g class="st36">
					<g>
						<path class="st37" d="M169.2,286.2c-1.8-1.3-2.3-3.5-2.4-5.8c-1.3,5.9-5.1,5.7-6,6.1c0,0-0.1,0.1-0.1,0.1c0,0,0.1-0.1,0.1-0.1
							c5.6-3.9,6.1-10.7,6.2-11.7c0.1-7.2-2.1-14.4-6.1-20.3c-2.6-3.9-6.5-8.3-3.2-13.1c0.9-1.2,2.2-2,3.4-2.9c2.8-2,5-4.9,6.1-8.1
							c0.5-1.6,1.7-10.2-1.5-9.6c-0.5,0.1-1,0.4-1.4,0.7c-3.5,2.5-7.1,4.8-10.8,6.8c-3.3,1.8-5.4,2.4-6.7,6
							c-4.1,12-8.5,23.5-6.1,36.4c1.5,8.1-3.1,16.7-7.4,23.8c-0.7,1.2-1.5,2.4-1.8,3.7c6.2,7.4,12.8,14.8,20.6,20.3
							c2.9-4,5.8-8.1,9.6-11.3c3.3-2.9,3.6-4.5,7.5-6.6v-7.1L169.2,286.2z"/>
						<g>
							<path class="st38" d="M156.8,232c0.1,0.1,0.1,0.2,0.2,0.2c0.1,0,0.3,0,0.4-0.1c1.3-0.7,2.6-1.4,3.8-2.2
								c0.5-0.4,1.1-0.8,1.5-1.3c0.6-0.7,0.9-1.6,1-2.5c0.2-1.4,0.2-2.8-0.1-4.1c-2.7,1.9-5.4,3.7-8.3,5.3
								C155.4,229,156.1,230.9,156.8,232z"/>
							<path class="st18" d="M154.5,233.1c-0.6-0.5-0.8-2.6-0.9-3.3c-0.1-0.4-0.1-0.9-0.1-1.3c0,0-0.1,0.1-0.1,0.1
								c-0.2,0.1-0.4,0.2-0.6,0.3C152.6,230.5,153.3,232.2,154.5,233.1z"/>
							<path class="st18" d="M152.7,233.1c-0.6-0.5-0.8-2.6-0.9-3.3c0-0.1,0-0.3,0-0.4c-0.3,0.1-0.5,0.3-0.8,0.4
								C151.1,231.1,151.7,232.4,152.7,233.1z"/>
							<path class="st39" d="M147.2,275c-0.2-7.6-4.4-14.4-5.8-21.8c-0.1-0.4-0.1-0.7-0.2-1.1c-1.4,6.1-1.9,12.2-0.7,18.8
								c1.5,8.1-3.1,16.7-7.4,23.8c-0.7,1.2-1.5,2.4-1.8,3.7c1,1.2,2,2.4,3,3.6c1.1-1.4,2.2-2.9,3.2-4.3
								C142.3,290.9,147.3,283.4,147.2,275z"/>
							<path class="st18" d="M152.8,242.3c1.7-0.2,3.5-0.5,5.1-1c0.2-0.3,0.5-0.5,0.7-0.8c-0.4,0.1-0.7,0.2-1,0.4
								c-1.7,0.8-3.6,1.3-5.5,1.5C152.4,242.3,152.6,242.3,152.8,242.3z"/>
							<path class="st18" d="M153,317.3c0.6-0.8,1.1-1.5,1.7-2.3c-0.5-0.6-1.1-1.2-1.6-1.8c-4.5-4.2-9.3-8.4-12.9-13.4
								c3.3,4.5,6.6,9,9.9,13.5C151,314.7,152,316.1,153,317.3z"/>
							<path class="st5" d="M129.3,289.5c0,0,8.9,18.8,25.4,31.1c0.3,0.7-2.9,5.4-2.9,5.4s-21-13-28.3-32
								C124.2,292,129.3,289.5,129.3,289.5z"/>
							<g>
								<path class="st40" d="M122.1,289.5c0,0,3.3,20.1,37.6,38c-1.4-1-36.2,46.8-36.2,46.8l-53.4-42.4L122.1,289.5z"/>
								<path class="st41" d="M143.4,317.3h-2.8l-49.5,31.3l32.4,25.7c0,0,34.7-47.7,36.2-46.8C153.2,324.1,147.9,320.7,143.4,317.3
									L143.4,317.3z"/>
							</g>
						</g>
					</g>
					<circle class="st6" cx="146" cy="329.8" r="3.8"/>
				</g>
				<g class="st36">
					<g>
						<rect x="223.6" y="209.7" class="st42" width="86.9" height="123.5"/>
						<g>
							<g>
								<path class="st43" d="M283,238.2c1,1.3,1.6,2.7,2.2,4.2c1.2,2.8,2.3,5.6,3.4,8.5c1.1,3.1,2.2,6.2,2.5,9.4
									c0.2,2.1,0.2,4.2,0.2,6.3c-0.2,9.3-0.4,18.5-0.5,27.8c-1.4-1.6-2.2-3.7-2.9-5.7c-3.8-10-6.9-20.3-9.2-30.8
									c-0.8-3.4-1.5-6.9-2.6-10.1c-0.8-2.2-1.8-4.3-2.8-6.5c-1.6-3.3-3.1-6.6-4.7-9.8c2.3-0.8,4.8,1,7,1.8
									C278.2,234.4,281,235.7,283,238.2z"/>
								<path class="st44" d="M242.9,240.4c0.6,0.5,1.4,0.9,1.8,1c1.5,0.3,2.9-1,4.3-1.4c0.9-0.2,1.8-0.3,2.7-0.3
									c2.1-0.1,4.3-0.2,6.4-0.3c0.3,0,0.6,0,0.8,0.1c0.3,0.1,0.5,0.4,0.6,0.7c0.8,1.2,1.8,2.3,2.9,3.3c0.4,0.3,0.8,0.7,0.9,1.1
									c0.2,0.8-0.2,1.5-0.6,2.2c-0.9,1.8-1.3,3.9-1,5.9c0,0.3,0.1,0.7,0,1c-0.1,0.4-0.5,0.7-0.8,0.9c-2.2,1.8-3.5,4.6-3.4,7.4
									c3,0.2,6-0.4,8.7-1.5c1.5-0.6,3-1.5,4.1-2.8c1.2-1.5,1.8-3.3,1.9-5.2c0.2-1.9,0-3.8-0.2-5.6c-0.2-1.7-0.4-3.5-1.2-5.1
									c-0.8-1.5-2-2.8-3.5-3.7c-1.9-1.3-4.2-2.2-6.5-2.6c-4-0.9-8.5-1.4-12.3,0.3c-2,0.9-4.1,1.7-6.1,2.6
									c-0.2,0.1-0.4,0.2-0.5,0.3C241.8,239.3,242.3,239.9,242.9,240.4z"/>
								<path class="st43" d="M264.5,253.5c0-1-0.2-2,0.1-3c0.3-1.2,1.3-2,2-3c0.1-0.2,0.3-0.4,0.3-0.6c0-0.2-0.1-0.4-0.2-0.6
									c-2-3.7-2-7.4-6.6-8.8c-4.7-1.4-10.4-0.5-15.3-0.4c-1.6,0-3.5-0.2-3.8-2.2c0-0.1,0-0.3,0-0.4c0.1-0.1,0.2-0.2,0.3-0.3
									c0.8-0.5,1.8-0.6,2.7-0.9c2.5-0.7,4.7-1.7,7.3-2.2c4-0.8,7.9-1.5,11.9-2.3c0.6-0.1,1.1-0.2,1.7-0.1c0.6,0.1,1.1,0.5,1.5,0.9
									c2.2,1.8,4.3,3.6,6.5,5.3c1.5,1.3,3.2,2.6,3.9,4.5c0.6,1.6,0.5,3.3,0.4,5c-0.4,6.4-0.4,12.8-0.1,19.1
									c0.1,1.8,0.2,4.1-1.1,5.6c-2.4,2.8-9.4,0.4-12.1-1.1c-3.6-2.1-4.8-5.6-2.2-9c1.2-1.6,2.7-3.1,2.9-5
									C264.5,254,264.5,253.8,264.5,253.5z"/>
								<path class="st37" d="M291.9,281.2c-0.7-7.4-1.1-14.4-2.5-21.7c0-0.1,0.2,1.7,0.2,1.6c0.5-2.4-0.3-4.9-1.4-7
									c-1.1-2.2-2.6-4.1-3.8-6.2c-2.8-5-3.9-10.9-6.8-15.8c-0.7-1.2-1.6-2.4-2.8-3c-1-0.5-2.1-0.7-3.2-0.8
									c-3.7-0.5-7.3-0.9-11-1.4c-2.4-0.3-4.8-0.6-7.2-0.5c-3.8,0.2-7.2,1.2-10.9,0.3c-0.8-0.2-1.5,0.6-1.5,1.4
									c0,0.8,0.4,1.5,0.9,2.1c1.8,2.2,4.4,3.7,7.2,4.1c2,0.3,4.1,0.1,6.1,0.4c1.8,0.3,3.5,1,5.2,1.8c3,1.3,5.9,2.7,8.9,4.2
									c1,0.5,2,1.1,2.2,2.1c0.1,0.9-0.5,1.8-1.1,2.6c-2.6,3.7-3.5,8.5-2.3,12.9c0.6,2.3-2.2,3.1-4.1,3.4c-2.1,0.4-3.4-1-4.5-2.8
									c-2-3.2-2.8-7.1-3.9-10.7c0-0.2-0.2-0.5-0.3-0.7c-0.7-1.9-1.5-3.7-2.6-5.4c-0.6-0.9-1.2-1.9-1.9-2.7
									c-1.4-1.7-3.8-2.4-5.9-1.6c-1.3,0.5-2.3,1.5-2.9,2.8c-1.3,2.7-0.5,5.2-0.1,8c0.3,1.6,0.6,3.3,0.8,4.9
									c0.6,3.4,1.3,6.8,2.8,9.9c2.4,4.9,3.7,9.9,5.1,15c1.5,5.4,5,10.7,8,15.4c6.3,9.8,13.9,19,18.8,29.7
									c2.6,5.8,4.4,11.9,5.9,18.1c0.6,2.6,1.5,15.5,4,16.3c1.1,0.3,3.9-2,5-2.5c3-1.1,6.4-1.6,9.5-2.3c2-0.4,17.7-4.7,18.5-3.4
									C307.3,329.6,294.2,305.2,291.9,281.2z"/>
								<path class="st38" d="M242.2,244c0,0-0.5-7.3,7.4-3.7c0.3,0.1,1.9,5.5,1.9,6.8c-0.2-0.4-3.2,2.6-7.3,3
									C244,250.3,242.2,244,242.2,244z"/>
								<path class="st38" d="M244,228.3c1.7,0.5,3.5,0.7,5.3,0.4c-0.1-0.6-0.3-1.3-0.4-1.9c-1.9,0.2-3.7,0.3-5.6,0
									c0.1,0.6,0.2,1.2,0.4,1.4C243.7,228.3,243.9,228.3,244,228.3z"/>
								<path class="st45" d="M251,229.5c-0.1-1-0.1-1.9-0.1-2.9c-0.1,0-0.3,0-0.4,0.1C250.6,227.6,250.8,228.5,251,229.5z"/>
								<path class="st45" d="M252.5,228.4c-0.1-0.7,0-1.4,0.1-2c-0.1,0-0.2,0-0.4,0c0,0.1,0,0.2,0,0.2
									C252.3,227.3,252.4,227.9,252.5,228.4z"/>
								<path class="st45" d="M254.3,234.5c0.4-0.3,0.7-0.5,1.1-0.8c0.6-0.4,1.2-0.9,1.7-1.5c-0.8,1-2.6,1.6-3.8,2.2
									C253.6,234.5,254,234.5,254.3,234.5z"/>
								<path class="st45" d="M264.8,238.3c0.9-0.3,1.8-0.6,2.6-1c-1.1,0.4-2.2,0.7-3.3,0.7C264.3,238.1,264.5,238.2,264.8,238.3z"
									/>
								<path class="st45" d="M273.2,232.7c-0.2-1.4-0.1-2.8,0.1-4.2c-0.2-0.1-0.5-0.1-0.7-0.1C272.3,229.9,273,231.2,273.2,232.7z"
									/>
								<path class="st43" d="M260.5,260.1c0.6,2.9,0.7,5.9,0.6,8.8c0.3-2.7,0.4-5.4,0.2-8.1C261,260.7,260.8,260.4,260.5,260.1z"/>
								<path class="st45" d="M277.9,243.6c-2.3-0.4-4.6-1-6.8-1.9c0.2,0.3,0.4,0.6,0.5,1c0,0.2,0,0.4,0,0.7
									C273.6,243.9,275.8,244,277.9,243.6z"/>
								<path class="st45" d="M253.1,248.4c-2.4,1.6-5.2,2.9-8.1,3.3c1.2-0.6,2-1.2,3.3-1.6C249.8,249.8,251.8,249.3,253.1,248.4z"
									/>
								<path class="st45" d="M245.7,253c1.3,0.3,2.8,0.3,4.1-0.1c1.3-0.4,2.6-1.1,3.4-2.2c-1,0.6-2.1,0.8-3.2,1.3
									C248.6,252.7,247.1,252.9,245.7,253z"/>
							</g>
							<path class="st5" d="M265.8,308.6v4.9c0,0,29.4-6.9,33.8-13.6c-0.5,0.3-2.9-3.8-2.9-3.8S293.7,303.1,265.8,308.6z"/>
							<path class="st40" d="M305.1,294.9c0,0-13.5,14.5-45.8,19.9c-0.1,0.4,15.2,55,15.2,55s59.1-21.3,58.8-21.9
								C332.9,347.3,305.1,294.9,305.1,294.9z"/>
							<path class="st41" d="M304.9,358.7c-5.9-15.8-19.1-51.5-19.5-50.9c-3.4,1.9-11.2,3.9-17.4,5.3c-2.7,0.7-5.6,1.3-8.7,1.8
								c-0.1,0.4,15.2,55,15.2,55S289.8,364.2,304.9,358.7z"/>
							<g>
								<path class="st12" d="M230.2,225.7c0,0,34,14.3,65.9,38.1c0.2,0.5,1.2,3.3-3.5,4.6C292.3,268.5,240.3,236.3,230.2,225.7z"/>
								<path class="st46" d="M230.2,225.7c0,0,2.9,2.8,5.6,4.9c0,0,2,0.2,1.6-1.6C237.3,228.9,230.2,225.7,230.2,225.7z"/>
								<path class="st47" d="M230.2,225.7l2.4,2.2c0,0,1,0,0.9-0.8C233.4,227.1,230.2,225.7,230.2,225.7z"/>
								<path class="st47" d="M279.1,252c-0.5,1.7-1.6,3.6-4,5.5c0.2,0.1,0.3,0.2,0.5,0.3c2.3-1.9,3.5-3.8,4-5.5
									C279.4,252.2,279.2,252.1,279.1,252z"/>
								<path class="st48" d="M240,231c0,0,27.4,13.9,36.9,21.4c0,0.3-0.9,1.3-0.9,1.3L240,231z"/>
								<path class="st48" d="M279.6,255.8l14.6,10.3c0,0,1.5-0.5,1-1.9c0.1-0.1-15.2-9.7-15.2-9.7L279.6,255.8z"/>
							</g>
						</g>
					</g>
					<circle class="st6" cx="272.2" cy="322.6" r="3.8"/>
				</g>
			</g>
			<path class="st12" d="M305.1,294.9c0,0-5.1,0.3-7.7,2.4c-0.1-0.2,2.1,2.6,2.1,2.6L305.1,294.9z"/>
			<path class="st12" d="M259.3,314.8c0,0,1.3-3.5,6.5-4.4c0-0.3,0,3.1,0,3.1L259.3,314.8z"/>
		</g>
		<path class="st12" d="M122.1,289.5c0,0,2.4-0.2,3.7,2.2c0,0-1.8,1.2-2.2,2.3C123.5,294,122.1,290.7,122.1,289.5z"/>
		<path class="st12" d="M154.5,321.5c0,0,5.4,3.4,5.2,6c0,0-5.4-2.9-6.6-3.7C153.3,323.6,154.5,321.5,154.5,321.5z"/>
	</g>
	<polyline class="st49" points="179.8,216.9 185.1,223.8 197.9,214.4 	"/>
	<polyline class="st49" points="179.8,236.7 185.1,243.5 197.9,234.2 	"/>
	<polyline class="st49" points="179.8,256.4 185.1,263.3 197.9,253.9 	"/>
	<polyline class="st49" points="179.8,276.2 185.1,283.1 197.9,273.7 	"/>
	<polygon class="st6" points="364.3,330.5 412.7,348.2 399.7,362.8 	"/>
	<polygon class="st6" points="347.2,341.2 358.9,363.9 347.2,365.5 	"/>
	<polygon class="st5" points="178.6,402.1 148.9,428.8 140.7,418.5 	"/>
	<g>
		<polygon class="st5" points="176.1,396 147.4,402.9 146,390.5 		"/>
	</g>
	<line class="st21" x1="339.1" y1="65.1" x2="417.1" y2="65.1"/>
</g>
<g id="DESIGNED_BY_FREEPIK" class="st0">
</g>
</svg>
