<?xml version="1.0" encoding="utf-8"?>
<!-- Generator: Adobe Illustrator 19.0.0, SVG Export Plug-In . SVG Version: 6.00 Build 0)  -->
<svg version="1.1" id="Layer_1" xmlns="http://www.w3.org/2000/svg" xmlns:xlink="http://www.w3.org/1999/xlink" x="0px" y="0px"
	 viewBox="-125 269 97 90" style="enable-background:new -125 269 97 90;" xml:space="preserve">
<style type="text/css">
	.st0{display:none;fill:#3C2FEA;}
	.st1{display:none;fill:none;stroke:#3E3EDD;stroke-width:8;stroke-miterlimit:10;}
	.st2{display:none;fill:#3E3EDD;}
	.st3{display:none;opacity:0.44;fill:none;stroke:#121293;stroke-width:4;stroke-miterlimit:10;enable-background:new    ;}
	.st4{display:none;fill:#6060C6;}
	.st5{display:none;fill:#A1A1E5;}
	.st6{fill:#5A5AED;}
</style>
<path id="XMLID_46_" class="st0" d="M-241-25.1c55,4.7,82.7,31,83.5,42.5c2.3,33.8-18.3,62.8-44.9,81.5s-38.6-2.7-38.6-2.7V-25.1z"
	/>
<circle id="XMLID_47_" class="st1" cx="-191.6" cy="612.3" r="43.4"/>
<circle id="XMLID_54_" class="st2" cx="-107.5" cy="169.4" r="16.5"/>
<path id="XMLID_56_" class="st2" d="M234.6,338.9c-46.3,0-64.6,26.6-64.6,53s18.6,53,64.6,53"/>
<ellipse id="XMLID_57_" class="st3" cx="-204.8" cy="395.9" rx="13.2" ry="13"/>
<ellipse id="XMLID_60_" class="st3" cx="-175.8" cy="617.9" rx="20.8" ry="20.6"/>
<path id="XMLID_61_" class="st4" d="M235,542.9l-115.3,111c-8.8,8.5-8.2,22.9,1.3,30.6l114,92.4V542.9z"/>
<path id="XMLID_1_" class="st5" d="M235,330.9c-97-3-181-49.3-283-34.3s-193,66.8-193,66.8v-61.5c35-33,139.2-73,238.2-72
	s168.8,42,237.8,41C235,330.9,235,330.9,235,330.9"/>
<path id="XMLID_53_" class="st5" d="M234.6,514.9C105.6,492.5-5,466.4-80,482.9S-241,551-241,551v-96
	c52.6-37.5,179.5-90.3,295.6-46.1s131.3,26.5,180.4,28C234.6,478.8,234.6,514.9,234.6,514.9"/>
<path class="st6" d="M-112.3,345.3c-25.6-15.4,47-78,67.7-66.7c17.5,9.6,17,68,5,71S-109,347.3-112.3,345.3z"/>
</svg>
