<?xml version="1.0" encoding="utf-8"?>
<!-- Generator: Adobe Illustrator 19.0.0, SVG Export Plug-In . SVG Version: 6.00 Build 0)  -->
<svg version="1.1" id="Layer_1" xmlns="http://www.w3.org/2000/svg" xmlns:xlink="http://www.w3.org/1999/xlink" x="0px" y="0px"
	 viewBox="0 0 409 333" style="enable-background:new 0 0 409 333;" xml:space="preserve">
<style type="text/css">
	.st0{fill:#0E0D16;}
	.st1{fill:#ECE2BA;}
	.st2{fill:#5201B5;}
	.st3{fill:#FFAAA1;}
	.st4{fill:#00A9A5;}
	.st5{fill:#522CDA;}
	.st6{fill:#333333;}
	.st7{fill:#4C4B4B;}
	.st8{fill:#FFFFFF;}
	.st9{fill:#FCFDFF;stroke:#231F20;stroke-width:0.2;stroke-miterlimit:10;}
	.st10{fill:#E14832;}
	.st11{fill:#282625;}
	.st12{fill:#C1403A;}
</style>
<g id="boy">
	<polygon id="XMLID_19_" class="st0" points="157.5,270.7 146,278 170,278 168.3,269 	"/>
	<polygon id="XMLID_25_" class="st0" points="274.9,270.7 285,278 264,278 264,267 	"/>
	<path id="XMLID_731_" class="st0" d="M239.9,273.5h-48.5c-1,0-1.8-0.8-1.8-1.8l0,0c0-1,0.8-1.8,1.8-1.8h48.5c1,0,1.8,0.8,1.8,1.8
		l0,0C241.7,272.7,240.9,273.5,239.9,273.5z"/>
	<rect id="XMLID_31_" x="214.2" y="216.1" class="st1" width="4.9" height="53.9"/>
	<path id="XMLID_22_" class="st0" d="M180.9,213.2c2.8,5.5,61.8,4.6,69.5,1.6s-0.1-8.8-0.1-8.8H181L180.9,213.2z"/>
	<path id="XMLID_18_" class="st2" d="M180.5,186c-12.3,4-19.5,2.1-26.4,12.3c-4,6-2.7,37.5,0,53.8c2.7,16.3,3.3,18.8,3.3,18.8H170
		c0,0,5.8-49.5,7.9-55.9c2.1-6.3,74.9-6.8,78.6,0.5c3.7,7.3,7.2,55.3,7.2,55.3H277c3.7-17.3,9.6-62.2,7.8-70.3
		c-2.4-10.9-31.4-14.7-31.4-14.7H180.5z"/>
	<path id="XMLID_2_" class="st3" d="M234.8,70.8l2.2,0.9c-14,15.7-36.9,5.9-41.1,0.4c1.2-0.1,1.3-0.1,2.3-0.1h0.1l0.8-1.5
		c0,0-0.1-0.1-0.2-0.3c-0.4-0.7-2-3.1-3-6.9c-10.6,0-7-11-0.6-7.4c-0.3-0.2-0.6-0.6-0.8-0.9c-0.4-0.4-0.1-1.5-0.5-2
		c-1.2-1.2-3.8-3.1-3.8-4.4l0.2-0.6c0-6,5.5-15.1,5.5-15.1h11.8l8.7,3.2l10.1,3.1c0,0,4.5,8.3,4.5,8.8c0,0.2,1.9,1.1,3.7,1.8
		c-0.6,1.9-1.4,3.4-2.2,4c0.4-0.1,0.8-0.2,1.2-0.2c6.9-0.9,4.5,11.5-2.9,6.2c0.3,2.8-0.5,5.3-1.3,7c-0.1,0.1-0.1,0.2-0.2,0.3
		c0,0-0.1,0.1-0.1,0.1c-0.3,0.7-0.3,1.2,0.5,2.4"/>
	<path id="XMLID_1_" class="st4" d="M196.9,72.1c-2.6-2.3-11.9,1.6-15.4,4.5c-3.6,2.9-38.7,37.8-36.9,61.8
		c1.1,14.9,12.5,24,28.1,26.9c12.3-3.9,3.9-14.3,3.9-14.3c-8.2-3.9-16.1-12.3,2.7-26.5s25.2-5.2,25.2-5.2s42.8-4.1,53.2,3.4
		c10.4,7.4,16.1,19.6-0.4,26.4c-7.4,9.4,1.9,15.2,1.9,15.2c10,2.3,32.5-7.6,34-19.7c-1.6-27-27.8-61.2-37.8-66.9
		c-6.7-6.2-18.5-6.2-18.5-6.2C220.5,84.7,206.9,80.8,196.9,72.1z"/>
	<path id="XMLID_16_" class="st4" d="M178.6,166.8c-0.3,9.8-2,13.9,1.8,19.2c2.5,3.5,69.2,5.1,72.7,2.3c5.4-4.3,3.4-21,1.3-24.2
		C252.2,160.9,178.6,166.8,178.6,166.8z"/>
	<path id="XMLID_36_" class="st5" d="M235.7,49.9c-0.6,1.9-1.4,3.4-2.2,4c0.4-0.1,0.8-0.2,1.2-0.3c-0.8,0.4-1.5,0.8-2.4,1.3
		c0,0-1.3-9.8-7.6-14.4c-7.4,0.1-20.1,0.1-23-5.2c-4.3,2.9-4.4,8.2-5.4,9.8c0,0,0.8,6.8,0.5,9.8l-1,0.4c-0.3,0.2-0.5,0.6-1.3-0.3
		c-1.2-1.2-3.7-3.2-4.4-4.8l-0.3-0.4c-5.4-9.6-0.2-19.7,5.3-25.5c0.5-0.6,1.4-1.1,2-1.6c1.1-0.9,2.9-1.6,5-2
		c0.6-0.2,1.4-0.3,2.2-0.4c1.5-0.3,3.1-0.4,4.7-0.6c10-0.8,22.1,0.9,22.8,3.2c0,0,2.1-0.5,1.7-4.2C240.1,25.1,238.6,42,235.7,49.9z"
		/>
	<path id="XMLID_20_" class="st6" d="M258.4,162.4h-81.9v-53.6c0-0.2,0.2-0.4,0.4-0.4h81.2c0.2,0,0.4,0.2,0.4,0.4V162.4z"/>
	<g id="XMLID_38_">
		<path id="XMLID_13_" class="st7" d="M201.7,71.7c0,0,0.1,0.1,0.2,0.2c0.1,0.1,0.4,0.3,0.7,0.5c0.6,0.4,1.5,0.9,2.6,1.5
			c1.1,0.6,2.5,1.2,3.9,1.9c0.7,0.3,1.5,0.6,2.3,0.9c0.8,0.3,1.5,0.6,2.4,0.6c1.7,0.1,3.4-0.1,4.9-0.4c0.8-0.2,1.5-0.4,2.2-0.6
			c0.7-0.2,1.3-0.5,1.9-0.8c0.3-0.1,0.5-0.3,0.8-0.4c0.2-0.1,0.5-0.3,0.7-0.4c0.4-0.3,0.8-0.6,1.1-0.8c0.5-0.5,0.9-0.8,0.9-0.8
			s-0.3,0.3-0.8,0.8c-0.3,0.2-0.6,0.6-1,0.8c-0.2,0.1-0.4,0.3-0.7,0.5c-0.3,0.1-0.5,0.3-0.8,0.5c-1.1,0.6-2.5,1.2-4.1,1.5
			c-1.6,0.3-3.3,0.6-5,0.5c-0.4,0-0.9-0.1-1.3-0.2c-0.4-0.1-0.8-0.3-1.2-0.4c-0.8-0.3-1.5-0.6-2.3-1c-1.5-0.7-2.8-1.4-3.9-2
			c-1.1-0.6-2-1.3-2.6-1.7c-0.3-0.2-0.5-0.4-0.6-0.6C201.7,71.8,201.7,71.7,201.7,71.7z"/>
	</g>
	<circle id="XMLID_730_" class="st8" cx="217.3" cy="135.4" r="9.7"/>
	<g id="XMLID_726_">
		<path id="XMLID_729_" class="st9" d="M213.3,133.6l-2.5,1.9c-0.2,0.2-0.2,0.5,0,0.7l8.9,6.1c0.3,0.2,0.7,0,0.7-0.4l0.1-10.1
			c0-0.1-0.1-0.3-0.2-0.3l-0.9-0.7c-0.3-0.2-0.7,0-0.7,0.3l0,8.6l-4.9-3.5c-0.2-0.2-0.2-0.5,0-0.6l0.7-0.6c0.2-0.2,0.2-0.4,0-0.6
			l-0.7-0.7C213.8,133.5,213.5,133.5,213.3,133.6z"/>
		<path id="XMLID_728_" class="st9" d="M218,130.1l-3.7,2.8c-0.2,0.1-0.2,0.3,0,0.5l0.9,1c0.1,0.1,0.3,0.1,0.4,0l0.8-0.7
			c0.2-0.2,0.5,0,0.5,0.2l-0.1,2c0,0.3-0.3,0.4-0.5,0.2l-0.4-0.4c-0.1-0.1-0.3-0.1-0.4,0l-0.2,0.2c-0.1,0.1-0.1,0.3,0.1,0.4l2.5,1.9
			c0.2,0.2,0.5,0,0.5-0.3v-6.1c0-0.3-0.3-0.4-0.5-0.2l-2.1,1.7c-0.1,0.1-0.3,0.1-0.4-0.1l0,0c-0.1-0.1-0.1-0.3,0.1-0.4l2.9-2.2
			c0.1-0.1,0.2-0.3,0.1-0.4l0-0.1C218.4,130.1,218.1,130,218,130.1z"/>
		<path id="XMLID_727_" class="st9" d="M219.2,129.3l0.9-0.7c0.2-0.1,0.4,0,0.4,0.2v1.5c0,0.2-0.3,0.3-0.4,0.2l-0.9-0.7
			C219,129.6,219,129.4,219.2,129.3z"/>
	</g>
</g>
<g id="table">
	<path id="XMLID_3_" class="st10" d="M395,168.8H17.2c-1.8,0-3.2-1.4-3.2-3.2l0,0c0-1.8,1.4-3.2,3.2-3.2H395c1.8,0,3.2,1.4,3.2,3.2
		l0,0C398.2,167.4,396.7,168.8,395,168.8z"/>
	<polygon id="XMLID_23_" class="st11" points="54.8,173.4 32.4,320.8 32.3,322 32,322 32,321.6 47.6,172.8 	"/>
	<polygon id="XMLID_10_" class="st11" points="353.7,174.3 385,320.1 385.2,321.3 388.5,321.1 388.5,320.7 362.4,173.2 	"/>
	<path id="XMLID_9_" class="st12" d="M385,174.2H27.2c-1.8,0-3.2-1.4-3.2-3.2v0c0-1.8,1.4-3.2,3.2-3.2H385c1.8,0,3.2,1.4,3.2,3.2v0
		C388.2,172.8,386.7,174.2,385,174.2z"/>
	<polygon id="XMLID_21_" class="st11" points="32.4,320.7 32.3,321.7 32.2,321.7 32.3,320.7 	"/>
</g>
</svg>
