<?xml version="1.0" encoding="utf-8"?>
<!-- Generator: Adobe Illustrator 19.0.0, SVG Export Plug-In . SVG Version: 6.00 Build 0)  -->
<svg version="1.1" id="Layer_1" xmlns="http://www.w3.org/2000/svg" xmlns:xlink="http://www.w3.org/1999/xlink" x="0px" y="0px"
	 viewBox="0 0 789.6 668.1" style="enable-background:new 0 0 789.6 668.1;" xml:space="preserve">
<style type="text/css">
	.st0{fill:#FFFFFF;}
	.st1{fill:#B9AEF7;}
	.st2{fill:none;stroke:#777782;stroke-linecap:round;stroke-miterlimit:10;}
	.st3{fill:none;stroke:#FFFFFF;stroke-width:3;stroke-miterlimit:10;}
</style>
<g id="white">
	<g id="pattern">
		<path id="XMLID_149_" class="st0" d="M43.4,35.7l-9.2-4.3l4.3-9.2c1-2.2-0.2-4.8-2.4-5.8l0,0c-2.2-1-4.3,0-5.3,2.2l-4.3,9.2
			l-9.8-4.6c-2.2-1-5,0.1-6,2.2l0,0c-1,2.2,0.2,4.5,2.4,5.5l9.8,4.6l-4.5,9.8c-1,2.2-0.5,4.7,1.6,5.8l0,0c2.2,1,5,0,6.1-2.2l4.5-9.8
			l9.2,4.3c2.2,1,4.6,0.4,5.6-1.8l0,0C46.4,39.5,45.6,36.7,43.4,35.7z"/>
		<path id="XMLID_148_" class="st0" d="M663.4,641.7l-9.2-4.3l4.3-9.2c1-2.2-0.2-4.8-2.4-5.8l0,0c-2.2-1-4.3,0-5.3,2.2l-4.3,9.2
			l-9.8-4.6c-2.2-1-5,0.1-6,2.2l0,0c-1,2.2,0.2,4.5,2.4,5.5l9.8,4.6l-4.5,9.8c-1,2.2-0.5,4.7,1.6,5.8l0,0c2.2,1,5,0,6.1-2.2l4.5-9.8
			l9.2,4.3c2.2,1,4.6,0.4,5.6-1.8l0,0C666.4,645.5,665.6,642.7,663.4,641.7z"/>
		<path id="XMLID_147_" class="st0" d="M763.3,148.6l-6.4-5.3l5.3-6.4c1.2-1.5,0.8-3.8-0.7-5.1l0,0c-1.5-1.2-3.4-0.8-4.7,0.7
			l-5.3,6.4l-6.8-5.6c-1.5-1.2-4-1-5.2,0.5l0,0c-1.2,1.5-0.7,3.6,0.8,4.8l6.8,5.6l-5.6,6.8c-1.2,1.5-1.4,3.6,0.1,4.9l0,0
			c1.5,1.2,4,1,5.2-0.5l5.6-6.8l6.4,5.3c1.5,1.2,3.5,1.3,4.8-0.3l0,0C764.9,152.1,764.8,149.8,763.3,148.6z"/>
		<circle id="XMLID_146_" class="st0" cx="75.4" cy="150.3" r="6.4"/>
		<circle id="XMLID_145_" class="st0" cx="266.5" cy="19.5" r="7.5"/>
		<circle id="XMLID_144_" class="st0" cx="233.9" cy="377.4" r="5.9"/>
		<circle id="XMLID_143_" class="st0" cx="681" cy="289" r="4"/>
		<rect id="XMLID_142_" x="764.6" y="489.4" class="st0" width="16.4" height="16.4"/>
	</g>
	<g id="page">
		<path id="XMLID_947_" class="st1" d="M470,100h-18c13.9-6,18-9.8,18-9.8V100z"/>
		<path id="XMLID_943_" class="st0" d="M426.3,60.9c46.9-27.8,35.2-58.6,35.2-58.6c22,42.5,35.2,80.6,8.8,98.1
			C455.6,75.6,426.3,60.9,426.3,60.9z"/>
		<path id="XMLID_949_" class="st2" d="M444.8,67c17.6,0,23.1-12.4,24.7-24.7"/>
		<path id="XMLID_951_" class="st2" d="M455,72.2c12.5,0,16.4-8.8,17.6-17.6"/>
		<path id="XMLID_953_" class="st2" d="M461.9,80.7c12.1,0,15.9-8.5,17-17"/>
	</g>
	<g id="wifi">
		<path id="XMLID_955_" class="st3" d="M145.1,48.7c-4.4,3.9-6.9,9.3-7.5,15.2l7.4,2.3l8,2.5l14.2,4.5l-3-14.6l-1.7-8.3l-1.6-7.6
			C154.9,42.9,149.4,44.8,145.1,48.7z"/>
		<path id="XMLID_935_" class="st3" d="M138.8,41.7c-5.6,5.1-8.8,12-9.6,19.6l8.4,2.6l7.4,2.3l8,2.5l14.2,4.5l-3-14.6l-1.7-8.3
			l-1.6-7.6l-1.8-8.6C151.5,34.3,144.4,36.8,138.8,41.7z"/>
		<path id="XMLID_898_" class="st3" d="M162.4,50.4l1.7,8.3l3,14.6L153,68.8l-8-2.5c0.5-4.4,2.4-8.5,5.7-11.4
			C153.8,51.9,158,50.5,162.4,50.4z"/>
		<path id="XMLID_884_" class="st3" d="M164.1,58.7l3,14.6L153,68.8c0.3-2.8,1.5-5.4,3.6-7.3C158.7,59.6,161.3,58.7,164.1,58.7z"/>
		<path id="XMLID_892_" class="st3" d="M159,34.2l1.8,8.6l1.6,7.6l1.7,8.3l3,14.6L153,68.8l-8-2.5l-7.4-2.3l-8.4-2.6
			c0.8-7.6,4-14.5,9.6-19.6C144.4,36.8,151.5,34.3,159,34.2z"/>
	</g>
	<g id="brackets">
		<polygon id="XMLID_34_" class="st0" points="665.1,224.7 605.2,199.5 656.5,157.7 657.3,164.5 616.4,197.9 664.3,218 		"/>
		<polygon id="XMLID_32_" class="st0" points="701.6,157.1 757.7,190 701.3,224.6 701.3,217.8 746.4,190.1 701.5,163.8 		"/>
		<polygon id="XMLID_31_" class="st0" points="673.9,225.2 669.8,225.2 690.8,156.5 694.9,156.5 		"/>
	</g>
</g>
</svg>
