<?xml version="1.0" encoding="utf-8"?>
<!-- Generator: Adobe Illustrator 19.0.0, SVG Export Plug-In . SVG Version: 6.00 Build 0)  -->
<svg version="1.1" id="OBJECTS" xmlns="http://www.w3.org/2000/svg" xmlns:xlink="http://www.w3.org/1999/xlink" x="0px" y="0px"
	 viewBox="0 0 411.4 304.7" style="enable-background:new 0 0 411.4 304.7;" xml:space="preserve">
<style type="text/css">
	.st0{opacity:0.35;}
	.st1{fill:#C3ECFE;}
	.st2{fill:none;stroke:#C3ECFE;stroke-width:1.0564;stroke-miterlimit:10;}
	.st3{fill:#599FD2;}
	.st4{fill:none;stroke:#A1DBFF;stroke-width:1.0564;stroke-miterlimit:10;stroke-dasharray:2.641;}
	.st5{fill:#88D2FF;}
	.st6{fill:#9BDFFF;}
	.st7{fill:#C0EDFF;}
	.st8{fill:none;stroke:#A1DBFF;stroke-width:1.0564;stroke-miterlimit:10;}
	.st9{fill:none;stroke:#A1DBFF;stroke-width:1.0564;stroke-miterlimit:10;stroke-dasharray:2.6719,2.6719;}
	.st10{fill:#FE7D90;}
	.st11{opacity:0.5;}
	.st12{fill:none;stroke:#CCF3FF;stroke-width:1.0564;stroke-miterlimit:10;}
	.st13{fill:#CCF3FF;}
	.st14{fill:#E9E8EE;}
	.st15{fill:#E8505B;}
	.st16{opacity:0.45;}
	.st17{fill:#B03D44;}
	.st18{fill:#3E89CC;}
	.st19{fill:#FFFFFF;}
	.st20{opacity:0.45;fill:#B03D44;}
	.st21{opacity:0.25;fill:#0964AF;}
	.st22{fill:none;stroke:#FE7D90;stroke-width:1.0564;stroke-miterlimit:10;}
	.st23{fill:#0964AF;}
	.st24{opacity:0.15;}
	.st25{fill:none;stroke:#0964AF;stroke-width:2.1128;stroke-linecap:round;stroke-linejoin:round;stroke-miterlimit:10;}
	.st26{opacity:0.45;fill:#5AB5E2;}
	.st27{opacity:0.35;fill:#BDEEFF;}
	.st28{fill:#FFBE9D;}
	.st29{fill:#170D54;}
	.st30{fill:#F2A181;}
	.st31{fill:#FFCCB0;}
	.st32{fill:#57C6F2;}
	.st33{fill:#1B227A;}
	.st34{fill:#EAEAEA;}
	.st35{fill:#E5F8FF;}
	.st36{fill:none;stroke:#A1D2F0;stroke-width:0.5282;stroke-linecap:round;stroke-linejoin:round;stroke-miterlimit:10;}
	.st37{fill:#2679C4;}
	.st38{fill:none;stroke:#1B227A;stroke-width:5.282;stroke-miterlimit:10;}
	.st39{fill:none;stroke:#1B227A;stroke-width:5.282;stroke-linecap:round;stroke-linejoin:round;stroke-miterlimit:10;}
	.st40{fill:#80CFFF;}
	.st41{fill:#A4E1FF;}
	.st42{opacity:0.19;fill:#0964AF;}
	.st43{fill:none;stroke:#FFFFFF;stroke-width:1.0564;stroke-linecap:round;stroke-linejoin:round;stroke-miterlimit:10;}
	.st44{fill:#FFFFFF;stroke:#FE7D90;stroke-width:2.1128;stroke-linecap:round;stroke-linejoin:round;stroke-miterlimit:10;}
	.st45{fill:none;stroke:#FE7D90;stroke-width:2.1128;stroke-linecap:round;stroke-linejoin:round;stroke-miterlimit:10;}
	.st46{fill:none;stroke:#2F3F91;stroke-width:1.0564;stroke-miterlimit:10;}
	.st47{fill:#C2EBFF;}
</style>
<g>
	<g class="st0">
		<path class="st1" d="M388.2,204.3c-5.6-20.1,12.2-20.9,12.6-46.9c0.2-10.6-5.7-21.4-19.6-26.4c-6.9-2.4-13.7-4.1-19.8-8
			c-13.9-8.8-13.7-25.6-17.5-40c-8.4-31.5-40.5-56.5-73-55.6c-23.5,0.6-44.7,1.3-66,21.2C190.1,62.3,180.6,79,167,93.1
			c-14.4,14.9-31.9,22-51.6,26.8c-18.6,4.5-38.9,9.9-53.1,23.4C48.9,156,50.9,169.4,56.6,185c6.3,17.2-7.4,29-21.7,35.7
			c-12.1,5.7-28.1,5.2-33.7,18.7c-6.1,14.7,12,14.9,28.7,14.9c16.8,0,233.7-1.3,294.4,0.5c16.3,0.5,68.4,4.9,75.8-15.4
			C405.1,225.5,392.1,218.3,388.2,204.3z"/>
	</g>
	<g>
		<path class="st2" d="M406.8,198c-12.1,28.2-35.5,51.2-63.5,63.7"/>
		<g>
			<g>
				<path class="st1" d="M403.3,205.5c4.2-3.5,7.1-8.6,8-14.1c0.2-1.3,0.3-2.9-0.6-3.9c-0.2-0.3-0.6-0.5-0.9-0.5
					c-0.6-0.1-1.1,0.4-1.5,0.8c-2.1,2.4-2.8,5.6-3.2,8.8C404.6,199.8,403.9,202.1,403.3,205.5"/>
			</g>
			<g>
				<path class="st1" d="M397.5,215.1c2.5-4.9,3.1-10.7,1.8-16.1c-0.3-1.3-0.9-2.7-2.1-3.3c-0.3-0.2-0.7-0.2-1.1-0.1
					c-0.6,0.2-0.9,0.8-1.1,1.4c-1,3-0.4,6.3,0.5,9.3C396.5,209.3,396.8,211.7,397.5,215.1"/>
			</g>
			<g>
				<path class="st1" d="M389,226.9c3.1-4.6,4.4-10.3,3.7-15.7c-0.2-1.3-0.6-2.8-1.7-3.5c-0.3-0.2-0.7-0.3-1.1-0.3
					c-0.6,0.1-1,0.7-1.2,1.2c-1.4,2.9-1.1,6.2-0.6,9.3S388.7,223.5,389,226.9"/>
			</g>
			<g>
				<path class="st1" d="M379.3,237.3c3.1-4.6,4.4-10.3,3.7-15.7c-0.2-1.3-0.6-2.8-1.7-3.5c-0.3-0.2-0.7-0.3-1.1-0.3
					c-0.6,0.1-1,0.7-1.2,1.2c-1.4,2.9-1.1,6.2-0.6,9.3C379,231.4,379,233.8,379.3,237.3"/>
			</g>
			<g>
				<path class="st1" d="M364.7,249.2c3.5-4.2,5.5-9.8,5.3-15.3c0-1.3-0.3-2.9-1.3-3.7c-0.3-0.2-0.7-0.4-1-0.4c-0.6,0-1,0.6-1.3,1.1
					c-1.6,2.7-1.8,6.1-1.6,9.2C365,243.4,364.8,245.8,364.7,249.2"/>
			</g>
			<g>
				<path class="st1" d="M353.3,256.9c3.5-3.8,5.7-9,6.2-14.5c0.1-1.3,0.1-2.9-0.7-3.8c-0.2-0.3-0.5-0.5-0.8-0.5
					c-0.5,0-0.9,0.4-1.3,0.9c-1.7,2.5-2.2,5.8-2.3,9C354.2,251.1,353.7,253.4,353.3,256.9"/>
			</g>
			<g>
				<path class="st1" d="M394.6,219.3c5.6,0.9,11.6-0.2,16.6-3.2c1.2-0.7,2.5-1.7,2.8-3.1c0.1-0.4,0.1-0.8-0.2-1.1
					c-0.3-0.5-1-0.6-1.6-0.6c-3.3,0-6.4,1.6-9.3,3.4C400.2,216.6,397.8,217.6,394.6,219.3"/>
			</g>
			<g>
				<path class="st1" d="M387.8,228.3c5.2,2.2,11.3,2.5,16.9,0.9c1.4-0.4,2.8-1.1,3.4-2.3c0.2-0.3,0.2-0.7,0.1-1.1
					c-0.2-0.6-0.8-0.8-1.4-1c-3.2-0.8-6.6,0-9.8,1.1C393.8,226.9,391.3,227.3,387.8,228.3"/>
			</g>
			<g>
				<path class="st1" d="M377.6,238.7c4.7,3.2,10.6,4.8,16.4,4.2c1.4-0.1,3-0.5,3.8-1.6c0.2-0.3,0.4-0.7,0.3-1
					c-0.1-0.6-0.7-1-1.2-1.3c-2.9-1.4-6.5-1.3-9.8-0.9C383.7,238.6,381.2,238.5,377.6,238.7"/>
			</g>
			<g>
				<path class="st1" d="M363.3,250.7c5.3,2.1,11.4,2.3,16.9,0.5c1.4-0.4,2.8-1.1,3.4-2.4c0.2-0.4,0.2-0.7,0.1-1.1
					c-0.2-0.6-0.9-0.8-1.5-1c-3.2-0.8-6.6,0.1-9.8,1.3C369.3,249.3,366.8,249.7,363.3,250.7"/>
			</g>
			<g>
				<path class="st1" d="M351.7,257.7c3.7,4.2,9.1,7.2,14.9,8.1c1.4,0.2,3,0.3,4.1-0.6c0.3-0.2,0.5-0.6,0.6-0.9
					c0.1-0.6-0.4-1.1-0.9-1.5c-2.5-2.1-6-2.9-9.3-3.2C357.7,259,355.3,258.3,351.7,257.7"/>
			</g>
		</g>
	</g>
	<g>
		<g>
			<path class="st3" d="M338.3,138.6c-0.1,0-0.3-0.1-0.3-0.3l-0.1-1.5c0-0.2,0.1-0.3,0.3-0.3c0.2,0,0.3,0.1,0.3,0.3l0.1,1.5
				C338.6,138.5,338.5,138.6,338.3,138.6C338.3,138.6,338.3,138.6,338.3,138.6z"/>
		</g>
		<g>
			<g>
				<polygon class="st1" points="345.1,207.2 341.1,207.5 336.6,143.2 338.6,143.1 340.6,142.9 				"/>
			</g>
		</g>
		<polygon class="st1" points="338.7,137.7 337.9,137.8 336.6,143.2 340.6,142.9 		"/>
	</g>
	<g>
		<path class="st2" d="M120.1,153.7c7.1,38.7,34.1,73.3,70,89.5"/>
		<g>
			<g>
				<path class="st1" d="M121.9,161.8c-3.3-4.4-5-10-4.7-15.5c0.1-1.3,0.4-2.8,1.5-3.6c0.3-0.2,0.7-0.4,1-0.3c0.6,0.1,1,0.6,1.3,1.1
					c1.5,2.8,1.5,6.1,1.2,9.3C121.8,156,122,158.4,121.9,161.8"/>
			</g>
			<g>
				<path class="st1" d="M125.3,172.5c-1.3-5.3-0.7-11.2,1.9-16.1c0.6-1.2,1.5-2.5,2.8-2.7c0.4-0.1,0.8-0.1,1.1,0.1
					c0.5,0.3,0.7,1,0.7,1.6c0.3,3.2-1,6.2-2.6,9C127.6,167.1,126.8,169.4,125.3,172.5"/>
			</g>
			<g>
				<path class="st1" d="M130.9,185.9c-2-5.1-2-11-0.1-16.2c0.5-1.3,1.2-2.6,2.4-3.1c0.4-0.1,0.7-0.2,1.1,0c0.5,0.2,0.8,0.9,0.9,1.5
					c0.7,3.1-0.3,6.3-1.5,9.2C132.6,180.3,132,182.6,130.9,185.9"/>
			</g>
			<g>
				<path class="st1" d="M138.1,198.2c-2-5.1-2-11-0.1-16.2c0.5-1.3,1.2-2.6,2.4-3.1c0.4-0.1,0.7-0.2,1.1,0c0.5,0.2,0.8,0.9,0.9,1.5
					c0.7,3.1-0.3,6.3-1.5,9.2C139.7,192.5,139.2,194.9,138.1,198.2"/>
			</g>
			<g>
				<path class="st1" d="M149.7,213.1c-2.5-4.9-3.1-10.7-1.8-16.1c0.3-1.3,0.9-2.7,2.1-3.3c0.3-0.2,0.7-0.2,1.1-0.1
					c0.6,0.2,0.9,0.8,1.1,1.4c1,3,0.4,6.3-0.5,9.3C150.7,207.3,150.4,209.7,149.7,213.1"/>
			</g>
			<g>
				<path class="st1" d="M159.1,223c-2.5-4.4-3.6-10.1-2.8-15.5c0.2-1.3,0.6-2.8,1.6-3.6c0.3-0.2,0.6-0.3,0.9-0.3
					c0.5,0.1,0.8,0.6,1,1.2c1.1,2.8,0.8,6.1,0.3,9.2C159.5,217.2,159.5,219.6,159.1,223"/>
			</g>
			<g>
				<path class="st1" d="M127.2,177.2c-5.7-0.3-11.3-2.8-15.5-6.8c-1-1-2.1-2.2-2-3.6c0-0.4,0.1-0.8,0.4-1c0.4-0.4,1.1-0.4,1.7-0.2
					c3.2,0.7,5.9,3,8.3,5.4C122.4,173.3,124.5,174.8,127.2,177.2"/>
			</g>
			<g>
				<path class="st1" d="M131.9,187.5c-5.6,1-11.6,0-16.7-2.9c-1.2-0.7-2.5-1.7-2.8-3c-0.1-0.4-0.1-0.8,0.1-1.1
					c0.3-0.5,1-0.6,1.6-0.6c3.3-0.1,6.5,1.5,9.3,3.2C126.3,184.8,128.6,185.8,131.9,187.5"/>
			</g>
			<g>
				<path class="st1" d="M139.5,199.9c-5.3,2.1-11.4,2.3-16.9,0.5c-1.4-0.4-2.8-1.1-3.4-2.4c-0.2-0.4-0.2-0.7-0.1-1.1
					c0.2-0.6,0.9-0.8,1.5-1c3.2-0.8,6.6,0.1,9.8,1.3C133.5,198.4,136,198.9,139.5,199.9"/>
			</g>
			<g>
				<path class="st1" d="M150.8,214.9c-5.6,0.9-11.6-0.3-16.6-3.3c-1.2-0.7-2.5-1.7-2.7-3.1c-0.1-0.4,0-0.8,0.2-1.1
					c0.3-0.5,1-0.6,1.6-0.6c3.3,0,6.4,1.6,9.2,3.4C145.2,212.1,147.6,213.1,150.8,214.9"/>
			</g>
			<g>
				<path class="st1" d="M160.5,224.2c-4.6,3.3-10.5,5-16.3,4.5c-1.4-0.1-3-0.4-3.8-1.5c-0.2-0.3-0.4-0.7-0.4-1
					c0.1-0.6,0.6-1,1.2-1.3c2.9-1.5,6.5-1.5,9.8-1.1C154.3,224.2,156.8,224,160.5,224.2"/>
			</g>
		</g>
	</g>
	<g>
		<path class="st2" d="M50.2,207.8c39.3-1.8,79.1,16.8,102.9,48.1"/>
		<g>
			<g>
				<path class="st1" d="M58.5,207.7c-5-2.3-10.9-2.7-16.1-1.1c-1.3,0.4-2.7,1-3.2,2.3c-0.1,0.3-0.2,0.7-0.1,1.1
					c0.2,0.6,0.8,0.8,1.4,1c3,0.9,6.3,0.1,9.3-1C52.8,209,55.2,208.6,58.5,207.7"/>
			</g>
			<g>
				<path class="st1" d="M69.7,208.7c-5.5-0.1-11,1.9-15.2,5.4c-1,0.9-2.1,2-2,3.3c0,0.4,0.1,0.8,0.4,1c0.4,0.4,1.1,0.4,1.7,0.4
					c3.1-0.4,5.8-2.4,8.2-4.6C64.9,212.2,66.9,210.9,69.7,208.7"/>
			</g>
			<g>
				<path class="st1" d="M84,211.2c-5.5-0.8-11.2,0.5-15.8,3.5c-1.1,0.7-2.3,1.7-2.4,3.1c0,0.4,0,0.8,0.2,1.1c0.4,0.5,1,0.6,1.6,0.6
					c3.2,0,6.1-1.7,8.7-3.5S81,213,84,211.2"/>
			</g>
			<g>
				<path class="st1" d="M97.6,215.4c-5.5-0.8-11.2,0.5-15.8,3.5c-1.1,0.7-2.3,1.7-2.4,3.1c0,0.4,0,0.8,0.2,1.1
					c0.4,0.5,1,0.6,1.6,0.6c3.2,0,6.1-1.7,8.7-3.5C92.4,218.3,94.6,217.2,97.6,215.4"/>
			</g>
			<g>
				<path class="st1" d="M114.7,223.3c-5.3-1.3-11.2-0.7-16.1,1.9c-1.2,0.6-2.5,1.5-2.7,2.8c-0.1,0.4-0.1,0.8,0.1,1.1
					c0.3,0.5,1,0.7,1.6,0.7c3.2,0.3,6.2-1,9-2.6C109.3,225.6,111.5,224.8,114.7,223.3"/>
			</g>
			<g>
				<path class="st1" d="M126.5,230.3c-4.9-1.5-10.6-1.2-15.7,0.8c-1.3,0.5-2.6,1.2-3.1,2.3c-0.1,0.3-0.2,0.7-0.1,1
					c0.2,0.5,0.8,0.7,1.4,0.7c3,0.4,6.2-0.6,9.1-1.8C120.9,232,123.3,231.4,126.5,230.3"/>
			</g>
			<g>
				<path class="st1" d="M74.7,209.5c-1.6-5.4-5.3-10.3-10.1-13.6c-1.2-0.8-2.6-1.5-4-1.2c-0.4,0.1-0.7,0.3-0.9,0.6
					c-0.3,0.5-0.1,1.2,0.2,1.7c1.4,3,4.2,5.1,7.1,6.8S71.7,207.4,74.7,209.5"/>
			</g>
			<g>
				<path class="st1" d="M85.8,211.7c-0.3-5.7-2.7-11.3-6.6-15.6c-1-1.1-2.2-2.1-3.6-2.1c-0.4,0-0.8,0.1-1,0.4
					c-0.4,0.4-0.4,1.1-0.3,1.7c0.6,3.2,2.9,6,5.2,8.3C81.9,206.9,83.4,209,85.8,211.7"/>
			</g>
			<g>
				<path class="st1" d="M99.6,216.4c0.9-5.6-0.3-11.6-3.3-16.6c-0.7-1.2-1.7-2.5-3.1-2.7c-0.4-0.1-0.8,0-1.1,0.2
					c-0.5,0.3-0.6,1-0.6,1.6c0,3.3,1.6,6.4,3.5,9.2C96.8,210.9,97.8,213.2,99.6,216.4"/>
			</g>
			<g>
				<path class="st1" d="M116.7,224c-0.4-5.6-2.9-11.2-6.9-15.4c-1-1-2.2-2-3.6-2c-0.4,0-0.8,0.1-1,0.4c-0.4,0.4-0.4,1.1-0.2,1.7
					c0.7,3.2,3,5.9,5.4,8.2C112.7,219.2,114.2,221.3,116.7,224"/>
			</g>
			<g>
				<path class="st1" d="M127.9,231.4c2.2-5.2,2.5-11.3,0.8-16.9c-0.4-1.4-1.1-2.8-2.3-3.4c-0.3-0.2-0.7-0.2-1.1-0.1
					c-0.6,0.2-0.8,0.9-1,1.5c-0.8,3.2,0,6.6,1.1,9.8C126.5,225.4,127,227.9,127.9,231.4"/>
			</g>
		</g>
	</g>
	<g>
		<path class="st1" d="M174.5,224.5c-5.7-5.3-13.7-8-21.5-7.3c-5.3,0.5-11,3.3-12.1,8.5c-0.6,2.5-0.4,5.7-2.7,6.7
			c-2.3,0.9-4.5-1.4-6.8-2.2c-3.9-1.3-8.3,3.1-7,7c0.6,1.8,2.1,3.3,2,5.2c-0.2,2.5-3.3,3.9-5.8,3.5c-2.5-0.4-4.7-1.9-7.2-2.5
			c-2.5-0.6-5.6,0-6.5,2.4c-0.8,2.1,0.6,5-1.1,6.5c-0.7,0.7-1.8,0.8-2.7,0.9c-21.3,2-44.8,5.8-42.4,9.6c0.7,1,2.3,0.7,3.5,0.7
			c45.3-0.7,86.5-1.4,131.9,0"/>
	</g>
	<path class="st4" d="M179.8,138.2c-3.2,9-12.6,19.1-23.4,19.1c-12.2,0-15.2-9.9-18.8-13c-8.8-7.7-14.2-9.5-25.4-11.4
		c-7.3-1.2-15-11.4-13.1-21.5c3.4-18.4,36.7-27.2,45.1-40.7c6.9-11,6.5-17.5,18.5-25.4"/>
	<g>
		<polyline class="st5" points="325.6,153.2 339,205.9 336.5,206.6 319.8,154.7 		"/>
		<g>
			<path class="st6" d="M313.1,154.4c-6.9,1.8-14.2-3.6-16.3-11.9c-2.1-8.3,1.7-16.5,8.6-18.2c6.9-1.8,14.2,3.6,16.3,11.9
				C323.9,144.5,320,152.7,313.1,154.4z M306.7,129c-4.3,1.1-6.6,6.7-5.2,12.4c1.5,5.8,6.2,9.5,10.5,8.4c4.3-1.1,6.6-6.7,5.2-12.4
				C315.7,131.6,311,127.9,306.7,129z"/>
		</g>
		<g>
			<path class="st7" d="M320.2,139.8c0.2,0.9,4.1,16,4.1,16c0.2,0.8-0.3,1.6-1.1,1.8l0,0c-0.8,0.2-1.6-0.3-1.8-1.1l-0.5-1.8
				c0,0-2.1-4.6-8.1-2.7c0,0,7.1-0.9,7.3-0.9C320.4,151.2,320,138.9,320.2,139.8z"/>
			<path class="st6" d="M323.8,160c-2.1,0.5-4.2-0.7-4.7-2.8c0,0-0.2-1.3-0.7-2c-0.8-1.1-2.3-1.5-5.2-0.8l-0.7-4.1
				c1.5-0.5,2.6-1.2,3.8-1.1c0.6-0.1,1.2-0.1,1.6-0.2c0-1.2,0-2.9,0-4.1c0-1.3,1.7-2.8,1.7-3.8c0-1.7-1.8-3.5,0.4-3.7l2.1-0.3
				l4.6,18.1C327.1,157.3,325.9,159.4,323.8,160z"/>
		</g>
		<g>
			<polyline class="st5" points="327.6,152.8 327.6,207.2 330.2,207.2 333.5,152.8 			"/>
			<g>
				<path class="st6" d="M327.1,135.3c0-8.6,5.8-15.5,12.8-15.5c7.1,0,12.9,7,12.9,15.5c0,8.6-5.8,15.5-12.8,15.5
					C332.8,150.8,327.1,143.9,327.1,135.3z M331.8,135.3c0,5.9,3.6,10.8,8.1,10.8c4.5,0,8.1-4.8,8.1-10.8c0-5.9-3.6-10.8-8.1-10.8
					C335.4,124.6,331.8,129.4,331.8,135.3z"/>
			</g>
			<g>
				<path class="st7" d="M329.4,138.4c0,0.9,0,16.5,0,16.5c0,0.8,0.7,1.5,1.5,1.5l0,0c0.8,0,1.5-0.7,1.5-1.5l0-1.9
					c0,0,0.9-5,7.2-4.6c0,0-7.1,0.9-7.3,1C332.1,149.5,329.4,137.5,329.4,138.4z"/>
				<path class="st6" d="M331,158.8c2.1,0,3.9-1.7,3.9-3.9c0,0-0.1-1.3,0.2-2.1c0.5-1.2,1.9-2,4.9-2l-0.3-4.1
					c-1.6-0.1-2.8-0.5-4-0.1c-0.6,0.1-1.2,0.2-1.6,0.2c-0.3-1.2-0.7-2.8-1-4c-0.3-1.3-2.4-2.3-2.6-3.2c-0.4-1.7,0.9-3.8-1.3-3.5
					l-2.1,0.2l0,18.7C327.1,157.1,328.8,158.8,331,158.8z"/>
			</g>
		</g>
	</g>
	<g>
		<g>
			<path class="st8" d="M257.9,76c0.1-0.4,0.2-0.9,0.3-1.3"/>
			<path class="st9" d="M259.1,72.2c3.8-9.6,14.5-19.2,30.6-15.5c11.7,2.7,14.8,13.7,21.1,20.8c4.7,5.3,11.3,9.6,13.4,17
				c5,17.1-1.8,35.7-14,41.5c-6.7,3.2-23.5,1.8-32.1-1.2"/>
			<path class="st8" d="M276.8,134.3c-0.4-0.2-0.8-0.4-1.2-0.5"/>
		</g>
	</g>
	<g>
		<g>
			<path class="st5" d="M350.5,197.5l-6.8-1.2l10.6-58.6c0.1-0.6,0.7-1.1,1.4-0.9l4.5,0.8c0.6,0.1,1.1,0.7,0.9,1.4L350.5,197.5z"/>
		</g>
		<g>
			<path class="st10" d="M360.1,144.3l-6.8-1.2l1-5.4c0.1-0.6,0.7-1.1,1.4-0.9l4.5,0.8c0.6,0.1,1.1,0.7,0.9,1.4L360.1,144.3z"/>
		</g>
		<g class="st11">
			<g>
				
					<rect x="353" y="143.7" transform="matrix(0.9841 0.1777 -0.1777 0.9841 31.4038 -61.0532)" class="st3" width="7" height="2.1"/>
			</g>
		</g>
	</g>
	<g>
		
			<rect x="356.2" y="146.2" transform="matrix(0.9303 0.3667 -0.3667 0.9303 90.726 -120.3558)" class="st1" width="12" height="64.9"/>
		<g>
			<line class="st12" x1="375.2" y1="151.1" x2="378.9" y2="152.6"/>
			<line class="st12" x1="373.9" y1="154.3" x2="377.6" y2="155.7"/>
			<line class="st12" x1="372.7" y1="157.4" x2="376.4" y2="158.9"/>
			<line class="st12" x1="369.7" y1="159.8" x2="375.2" y2="162"/>
			<line class="st12" x1="370.2" y1="163.7" x2="373.9" y2="165.1"/>
			<line class="st12" x1="369" y1="166.8" x2="372.7" y2="168.3"/>
			<line class="st12" x1="367.8" y1="170" x2="371.4" y2="171.4"/>
			<line class="st12" x1="364.7" y1="172.4" x2="370.2" y2="174.5"/>
			<line class="st12" x1="365.3" y1="176.2" x2="369" y2="177.7"/>
			<line class="st12" x1="364.1" y1="179.4" x2="367.7" y2="180.8"/>
			<line class="st12" x1="362.8" y1="182.5" x2="366.5" y2="184"/>
			<line class="st12" x1="359.8" y1="184.9" x2="365.3" y2="187.1"/>
			<line class="st12" x1="360.3" y1="188.8" x2="364" y2="190.2"/>
			<line class="st12" x1="359.1" y1="191.9" x2="362.8" y2="193.4"/>
			<line class="st12" x1="357.9" y1="195.1" x2="361.6" y2="196.5"/>
			<line class="st12" x1="354.8" y1="197.5" x2="360.3" y2="199.7"/>
			<line class="st12" x1="355.4" y1="201.3" x2="359.1" y2="202.8"/>
			<line class="st12" x1="354.2" y1="204.5" x2="357.8" y2="205.9"/>
			<line class="st12" x1="352.9" y1="207.6" x2="356.6" y2="209.1"/>
		</g>
	</g>
	<path class="st6" d="M364,266.2h-55.7L299,182c-0.1-1.1,0.7-2,1.8-2h70.8c1.1,0,1.9,0.9,1.8,2L364,266.2z"/>
	<g>
		<path class="st13" d="M294.2,269.9c33.5,0.5,67.1,0.9,100.6,1.4c1.1,0,4.7-1.1-1.4-5c-5.2-3.3-21.5-0.3-21.5-0.3s3.8-1.5,3.8-3.5
			c0-2-1.5-3.7-3.3-4.5c-1.8-0.8-3.8-0.9-5.8-0.8c-4,0.2-8,1.1-11.7,2.6c1.6-1,2.1-3.4,1-4.9c-1.1-1.5-3.5-1.8-4.9-0.6
			c2.5-3.4,6.4-18.5-5.5-25.1c-15-8.3-26.3-1.5-28.8,3.5c-1.2-4.9-6.9-8.7-10.6-9.6c-8.5-2.1-14-1.5-21.9,2.2
			c-2.8,1.3-6.6,5.8-8.4,8.2c-2.9,3.9-3.4,9-3.5,13.8c-0.1,3.6-0.1,7.3,0,10.9"/>
	</g>
	<g>
		<ellipse class="st14" cx="238.3" cy="275.2" rx="75.4" ry="3.1"/>
		<g>
			<g>
				<path class="st15" d="M239.8,55.6c-4.2,0-7.6,3.4-7.6,7.6v9.7h15.1c0,0,0-7.7,0-9.7C247.3,59,243.9,55.6,239.8,55.6z
					 M239.8,67.5c-2.3,0-4.2-1.9-4.2-4.2c0-2.3,1.9-4.2,4.2-4.2c2.3,0,4.2,1.9,4.2,4.2C244,65.6,242.1,67.5,239.8,67.5z"/>
			</g>
		</g>
		<g class="st16">
			<g>
				<path class="st17" d="M244,63.3c0-2.3-1.9-4.2-4.2-4.2c-0.2,0-0.4,0-0.6,0.1c0.6-0.2,0.7-0.4,1.7-0.4c2.3,0,4.2,1.9,4.2,4.2
					c0,2.1-1.1,3.3-2.7,3.7C243.3,65.9,244,64.6,244,63.3z M234.5,71.9v-9.7c0-2.6,1.1-5,3.2-6.3c-3.2,0.9-5.5,3.8-5.5,7.3v9.7h15.1
					c0,0,0-0.4,0-1H234.5z"/>
			</g>
		</g>
		<path class="st18" d="M299.9,275.2H176.7c-5.4,0-9.7-4.4-9.7-9.7V83.1c0-5.4,4.4-9.7,9.7-9.7h123.2c5.4,0,9.7,4.4,9.7,9.7v182.3
			C309.7,270.8,305.3,275.2,299.9,275.2z"/>
		<rect x="175.2" y="81.3" class="st1" width="126.2" height="185.9"/>
		<rect x="180.1" y="87" class="st19" width="116.5" height="174.6"/>
		<path class="st15" d="M284.2,84.3h-91.8v-5.9c0-3.9,3.1-7,7-7h77.8c3.9,0,7,3.1,7,7V84.3z"/>
		<path class="st20" d="M196,82.4v-5.5c0-2.1,0.9-4,2.3-5.3c-3.3,0.7-5.8,3.7-5.8,7.2v5.5h91.8v-1.9H196z"/>
		<g>
			<g>
				<circle class="st21" cx="203.4" cy="111" r="15"/>
				<circle class="st22" cx="203.4" cy="111" r="17.4"/>
				<path class="st19" d="M206.4,111.2c1.5-1,2.4-2.6,2.4-4.5c0-3-2.4-5.4-5.4-5.4c-3,0-5.4,2.4-5.4,5.4c0,1.9,1,3.5,2.4,4.5
					c-3.4,0.8-5.9,3.8-5.9,7.4v4.5c2.5,1.8,5.5,2.9,8.8,2.9c3.3,0,6.3-1.1,8.8-2.9v-4.5C212.2,115,209.7,112,206.4,111.2z"/>
			</g>
			<g>
				<polygon class="st23" points="227.7,97.2 228.4,98.7 230.1,98.9 228.9,100.1 229.2,101.7 227.7,100.9 226.3,101.7 226.5,100.1 
					225.4,98.9 227,98.7 				"/>
				<polygon class="st23" points="234.8,97.2 235.5,98.7 237.1,98.9 236,100.1 236.2,101.7 234.8,100.9 233.3,101.7 233.6,100.1 
					232.4,98.9 234.1,98.7 				"/>
				<polygon class="st23" points="241.9,97.2 242.6,98.7 244.2,98.9 243,100.1 243.3,101.7 241.9,100.9 240.4,101.7 240.7,100.1 
					239.5,98.9 241.1,98.7 				"/>
				<polygon class="st23" points="249,97.2 249.7,98.7 251.3,98.9 250.1,100.1 250.4,101.7 249,100.9 247.5,101.7 247.8,100.1 
					246.6,98.9 248.2,98.7 				"/>
				<polygon class="st23" points="256,97.2 256.8,98.7 258.4,98.9 257.2,100.1 257.5,101.7 256,100.9 254.6,101.7 254.9,100.1 
					253.7,98.9 255.3,98.7 				"/>
				<g class="st24">
					<line class="st25" x1="226.1" y1="105.6" x2="241.2" y2="105.6"/>
					<line class="st25" x1="275" y1="111.6" x2="286.5" y2="111.6"/>
					<line class="st25" x1="226.1" y1="111.6" x2="270.1" y2="111.6"/>
					<line class="st25" x1="226.1" y1="117.6" x2="286.5" y2="117.6"/>
					<line class="st25" x1="267.3" y1="123.7" x2="286.5" y2="123.7"/>
					<line class="st25" x1="226.1" y1="123.7" x2="262.5" y2="123.7"/>
					<line class="st25" x1="246.2" y1="105.6" x2="286.5" y2="105.6"/>
				</g>
			</g>
			<g>
				<circle class="st21" cx="203.4" cy="153.3" r="15"/>
				<path class="st19" d="M206.4,153.5c1.5-1,2.4-2.6,2.4-4.5c0-3-2.4-5.4-5.4-5.4c-3,0-5.4,2.4-5.4,5.4c0,1.9,1,3.5,2.4,4.5
					c-3.4,0.8-5.9,3.8-5.9,7.4v4.5c2.5,1.8,5.5,2.9,8.8,2.9c3.3,0,6.3-1.1,8.8-2.9v-4.5C212.2,157.3,209.7,154.3,206.4,153.5z"/>
			</g>
			<g>
				<polygon class="st23" points="227.7,139.5 228.4,141 230.1,141.2 228.9,142.4 229.2,144 227.7,143.2 226.3,144 226.5,142.4 
					225.4,141.2 227,141 				"/>
				<polygon class="st23" points="234.8,139.5 235.5,141 237.1,141.2 236,142.4 236.2,144 234.8,143.2 233.3,144 233.6,142.4 
					232.4,141.2 234.1,141 				"/>
				<polygon class="st23" points="241.9,139.5 242.6,141 244.2,141.2 243,142.4 243.3,144 241.9,143.2 240.4,144 240.7,142.4 
					239.5,141.2 241.1,141 				"/>
				<polygon class="st21" points="249,139.5 249.7,141 251.3,141.2 250.1,142.4 250.4,144 249,143.2 247.5,144 247.8,142.4 
					246.6,141.2 248.2,141 				"/>
				<polygon class="st21" points="256,139.5 256.8,141 258.4,141.2 257.2,142.4 257.5,144 256,143.2 254.6,144 254.9,142.4 
					253.7,141.2 255.3,141 				"/>
				<g class="st24">
					<line class="st25" x1="226.1" y1="147.9" x2="252.9" y2="147.9"/>
					<line class="st25" x1="242" y1="153.9" x2="286.5" y2="153.9"/>
					<line class="st25" x1="226.1" y1="153.9" x2="237" y2="153.9"/>
					<line class="st25" x1="226.1" y1="159.9" x2="286.5" y2="159.9"/>
					<line class="st25" x1="274.1" y1="165.9" x2="286.5" y2="165.9"/>
					<line class="st25" x1="226.1" y1="165.9" x2="269.4" y2="165.9"/>
					<line class="st25" x1="257.9" y1="147.9" x2="286.5" y2="147.9"/>
				</g>
			</g>
			<g>
				<circle class="st21" cx="203.4" cy="195.6" r="15"/>
				<path class="st19" d="M206.4,195.8c1.5-1,2.4-2.6,2.4-4.5c0-3-2.4-5.4-5.4-5.4c-3,0-5.4,2.4-5.4,5.4c0,1.9,1,3.5,2.4,4.5
					c-3.4,0.8-5.9,3.8-5.9,7.4v4.5c2.5,1.8,5.5,2.9,8.8,2.9c3.3,0,6.3-1.1,8.8-2.9v-4.5C212.2,199.6,209.7,196.6,206.4,195.8z"/>
			</g>
			<g>
				<polygon class="st23" points="227.7,181.8 228.4,183.3 230.1,183.5 228.9,184.6 229.2,186.3 227.7,185.5 226.3,186.3 
					226.5,184.6 225.4,183.5 227,183.3 				"/>
				<polygon class="st23" points="234.8,181.8 235.5,183.3 237.1,183.5 236,184.6 236.2,186.3 234.8,185.5 233.3,186.3 233.6,184.6 
					232.4,183.5 234.1,183.3 				"/>
				<polygon class="st23" points="241.9,181.8 242.6,183.3 244.2,183.5 243,184.6 243.3,186.3 241.9,185.5 240.4,186.3 240.7,184.6 
					239.5,183.5 241.1,183.3 				"/>
				<polygon class="st23" points="249,181.8 249.7,183.3 251.3,183.5 250.1,184.6 250.4,186.3 249,185.5 247.5,186.3 247.8,184.6 
					246.6,183.5 248.2,183.3 				"/>
				<polygon class="st21" points="256,181.8 256.8,183.3 258.4,183.5 257.2,184.6 257.5,186.3 256,185.5 254.6,186.3 254.9,184.6 
					253.7,183.5 255.3,183.3 				"/>
				<g class="st24">
					<line class="st25" x1="226.1" y1="190.1" x2="241.2" y2="190.1"/>
					<line class="st25" x1="253.8" y1="196.2" x2="286.5" y2="196.2"/>
					<line class="st25" x1="226.1" y1="196.2" x2="248.8" y2="196.2"/>
					<line class="st25" x1="226.1" y1="202.2" x2="286.5" y2="202.2"/>
					<line class="st25" x1="239.9" y1="208.2" x2="286.5" y2="208.2"/>
					<line class="st25" x1="226.1" y1="208.2" x2="235.1" y2="208.2"/>
					<line class="st25" x1="246.2" y1="190.1" x2="286.5" y2="190.1"/>
				</g>
			</g>
			<g>
				<circle class="st21" cx="203.4" cy="237.9" r="15"/>
				<path class="st19" d="M206.4,238.1c1.5-1,2.4-2.6,2.4-4.5c0-3-2.4-5.4-5.4-5.4c-3,0-5.4,2.4-5.4,5.4c0,1.9,1,3.5,2.4,4.5
					c-3.4,0.8-5.9,3.8-5.9,7.4v4.5c2.5,1.8,5.5,2.9,8.8,2.9c3.3,0,6.3-1.1,8.8-2.9v-4.5C212.2,241.9,209.7,238.9,206.4,238.1z"/>
			</g>
			<g>
				<polygon class="st23" points="227.7,224.1 228.4,225.6 230.1,225.8 228.9,226.9 229.2,228.6 227.7,227.8 226.3,228.6 
					226.5,226.9 225.4,225.8 227,225.6 				"/>
				<polygon class="st23" points="234.8,224.1 235.5,225.6 237.1,225.8 236,226.9 236.2,228.6 234.8,227.8 233.3,228.6 233.6,226.9 
					232.4,225.8 234.1,225.6 				"/>
				<polygon class="st23" points="241.9,224.1 242.6,225.6 244.2,225.8 243,226.9 243.3,228.6 241.9,227.8 240.4,228.6 240.7,226.9 
					239.5,225.8 241.1,225.6 				"/>
				<polygon class="st23" points="249,224.1 249.7,225.6 251.3,225.8 250.1,226.9 250.4,228.6 249,227.8 247.5,228.6 247.8,226.9 
					246.6,225.8 248.2,225.6 				"/>
				<polygon class="st23" points="256,224.1 256.8,225.6 258.4,225.8 257.2,226.9 257.5,228.6 256,227.8 254.6,228.6 254.9,226.9 
					253.7,225.8 255.3,225.6 				"/>
				<g class="st24">
					<line class="st25" x1="286.5" y1="250.5" x2="271.4" y2="250.5"/>
					<line class="st25" x1="237.6" y1="244.5" x2="226.1" y2="244.5"/>
					<line class="st25" x1="286.5" y1="244.5" x2="242.6" y2="244.5"/>
					<line class="st25" x1="286.5" y1="238.5" x2="226.1" y2="238.5"/>
					<line class="st25" x1="245.3" y1="232.4" x2="226.1" y2="232.4"/>
					<line class="st25" x1="286.5" y1="232.4" x2="250.1" y2="232.4"/>
					<line class="st25" x1="266.5" y1="250.5" x2="226.1" y2="250.5"/>
				</g>
			</g>
		</g>
		<path class="st26" d="M249.5,192.3c4.1,2.8,8.8,4.3,13.7,4.3c1.4,0,2.8-0.1,4.2-0.4c3.5-0.6,6.6-2,9.4-3.9l8.9,10.8
			c0,0.4,0,0.7,0.1,1.1c0.2,1,0.9,2,1.9,2.3c0.3,0.1,0.6,0.1,0.7,0.4c0.1,0.1,0.1,0.3,0.1,0.4c0.1,0.8,0.9,1.3,1.7,1.2c0,0,0,0,0,0
			l6.6,8c0,0.4,0.2,0.8,0.5,1c0.2,0.1,0.5,0.2,0.5,0.5c0,0.1,0,0.2-0.1,0.3c-0.1,0.3,0,0.8,0.3,1c0.3,0.2,0.7,0.3,1,0.1
			c0,0.7,0.7,1.4,1.4,1.5l6.8,8.2c0.5,0.6,1.3,1,2.1,1c0.1,0,0.2,0,0.3,0v-6.5l-4.9-5.9c0.1-0.1,0.1-0.1,0.2-0.2
			c0.3-0.3,0.5-0.5,0.9-0.8l0.1,0.3c0,0,1.5-0.5,3.7-1.3v-4.9c-2.8,1.7-5,3.1-5,3.1l0,0.1c-0.1,0-0.1,0-0.2,0.1
			c-0.3,0.1-1.5,0-2.6,0l-6.7-8c1.2-0.3,2.9-0.8,4.6-1.4c0,0,0.1,0,0.1,0c0.2-0.1,0.4-0.1,0.7-0.2c0.1,0,0.2-0.1,0.2-0.1
			c0.2-0.1,0.4-0.1,0.5-0.2c0.1,0,0.2-0.1,0.3-0.1c0.2-0.1,0.3-0.1,0.5-0.2c0.1,0,0.2-0.1,0.3-0.1c0.2-0.1,0.3-0.1,0.5-0.2
			c0.1,0,0.2-0.1,0.3-0.1c0.2-0.1,0.3-0.1,0.5-0.2c0.1,0,0.2-0.1,0.3-0.1c0.2-0.1,0.3-0.1,0.5-0.2c0.1,0,0.2-0.1,0.2-0.1
			c0.2-0.1,0.4-0.2,0.7-0.3c0,0,0,0,0.1,0c0.2-0.1,0.5-0.2,0.7-0.3c0.1,0,0.1-0.1,0.2-0.1c0.2-0.1,0.3-0.2,0.5-0.2
			c0.1,0,0.2-0.1,0.2-0.1c0.1-0.1,0.3-0.1,0.4-0.2c0.1,0,0.2-0.1,0.2-0.1c0.1-0.1,0.2-0.1,0.3-0.2c0.1,0,0.2-0.1,0.2-0.1
			c0.1-0.1,0.2-0.1,0.3-0.2c0.1,0,0.1-0.1,0.2-0.1c0.1-0.1,0.2-0.1,0.3-0.2c0.1,0,0.1-0.1,0.2-0.1c0.1-0.1,0.2-0.1,0.3-0.2
			c0,0,0.1-0.1,0.1-0.1c0,0,0,0,0,0v-26.4c-0.1,0.1-0.3,0.2-0.4,0.4c-2.7,2.9-4.6,21.3-4.6,22c-0.1,0.5-7.7,4.9-11.5,7.1
			c0-0.5-0.2-1-0.5-1.4c-0.4-0.4-0.9-0.7-1.5-0.9c-0.1,0-0.2,0-0.2,0l-10-12.1c0.7-0.8,1.4-1.6,2-2.5c3.7-5.3,5.1-11.6,4-17.9
			c-1.1-6.3-4.6-11.8-9.9-15.5c-5.3-3.7-11.6-5.1-17.9-4c-6.3,1.1-11.8,4.6-15.5,9.9C236,169.7,238.6,184.7,249.5,192.3z
			 M247.9,161.9c2.9-4.1,7.1-6.8,12-7.7c1.1-0.2,2.2-0.3,3.3-0.3c3.8,0,7.5,1.2,10.6,3.4c4.1,2.9,6.8,7.1,7.7,12
			c0.9,4.9-0.2,9.9-3.1,13.9c-2.9,4.1-7.1,6.8-12,7.7c-4.9,0.9-9.9-0.2-13.9-3.1C244.1,182,242,170.4,247.9,161.9z"/>
	</g>
	<g>
		<ellipse class="st27" cx="98.9" cy="278.6" rx="21.1" ry="1.6"/>
		<g>
			<path class="st28" d="M126.4,195.8c0,0,2.3,2.7,2.8,2.9c0.3,0.1,2.1,0.4,2.6,0.5c0.2,0,0.4,0.1,0.6,0.2c0.2,0.1,0.4,0.3,0.5,0.4
				c0.4,0.5,0.8,1,1.2,1.5c0.1,0.1,0.2,0.3,0.3,0.4c0.1,0.2,0.1,0.4,0.2,0.6c0.3,1.1,0.5,2.3,0.7,3.5c0,0.1,0,0.1,0,0.2
				c-0.1,0.1-0.3,0.1-0.4,0c-0.1-0.1-0.2-0.2-0.3-0.3c0,0.1,0,0.2,0,0.3c-0.2,0.1-0.4,0-0.6-0.1c-0.8-0.5-1.6-1.1-2-2
				c-0.1-0.2-0.2-0.3-0.3-0.5c-0.4-0.4-0.9-0.3-1.4-0.5c-0.4-0.1-0.9-0.2-1.3-0.4c-0.8-0.3-0.9-1.3-0.9-1.4c0-0.1-0.1-0.2-0.2-0.2
				c-0.5-0.4-2.5-1.9-2.5-1.9"/>
		</g>
		<g>
			<path class="st29" d="M99.1,137.5c1.1,0.3,1.7,1.7,2.1,2.7c0.5,1.2,0.7,2.4,0.8,3.7c0.1,0.9,0.2,1.8-0.2,2.6
				c-0.2,0.4-0.4,0.8-0.7,1.1c-0.2,0.2-0.3,0.4-0.5,0.5c-0.2,0.1-0.5,0.2-0.7,0.1c-0.3-0.1-0.5-0.5-0.6-0.9
				c-0.6-2.3-1.3-4.6-2.6-6.7"/>
		</g>
		<g>
			<path class="st30" d="M100.3,144.8c0-0.7,0.8-1.2,1.5-0.5c0.6,0.6,0.7,1.8,0.7,2.7c0,1.1-0.8,1.3-1.5,1.4"/>
		</g>
		<g>
			<path class="st31" d="M108.3,270.5c0,0,0,2.3-0.1,3.1c-0.2,0.8-2.7,0.5-3,0.1c-0.2-0.5,0.1-4.2,0.1-4.2"/>
			<path class="st15" d="M104.4,274.4c-0.1,0.8-0.1,2.4-0.1,2.4l2.6,0.6l0.3-0.5c0,0,0.7,0.6,1.6,0.8c0.6,0.2,1.9,0.3,2.5,0.2
				c2.2-0.1,3.7-0.8,3.8-1.1c0.3-1.3-2.6-1.2-3.2-1.2c-1.7-0.1-2.8-1.4-3.2-2.2c-0.2-0.6-0.1-0.8-0.5-0.7c0,0-0.3,0-0.6,0.4
				c-0.4,0.5-1,0.9-1.7,0.7c-0.4-0.1-0.7-0.3-1-0.6C105.1,273.4,104.5,273.5,104.4,274.4z"/>
		</g>
		<path class="st18" d="M103.2,242.8c0.3-4-3-9.3-3-9.3s8.7-4.8,8.8-6.2c0,0,1.2,8.2,1.6,11c0.7,5-1.8,33.6-1.8,33.6
			s-1.8,0.5-4.2,0.1c0,0-0.4-11-2.3-18.5C101.6,249.9,102.9,243.7,103.2,242.8z"/>
		<path class="st18" d="M102.5,197c3.2,7.3,6.8,30.7,7.6,38.7c0.4,3.4-2.5,7.4-5.8,4.3c-4-3.7-9.5-20.6-11.5-23.6
			c-2-3-9.5-5.7-4.4-20.9"/>
		<g>
			<path class="st31" d="M88,270.6c0,0-0.3,3.2-0.4,4c-0.1,0.8-2.7,0.7-3,0.3c-0.3-0.4-0.2-4.2-0.2-4.2"/>
			<path class="st15" d="M83.8,275.5c-0.1,0.8,0.1,2.2,0.1,2.2l3,0.2l0.2-0.5c0,0,0.9,0.6,1.7,0.6l2.5,0.2c1.8,0.1,2.9,0,3-0.4
				c0.3-1.3-1.9-1.4-2.5-1.5c-1.6-0.1-3.4-1-3.7-1.9c-0.2-0.6-0.1-0.8-0.5-0.7c0,0-0.3,0-0.5,0.4c-0.4,0.6-1,0.9-1.6,0.7
				c-0.4-0.1-0.7-0.3-1-0.6C84.5,274.5,83.9,274.7,83.8,275.5z"/>
		</g>
		<path class="st18" d="M94.4,242.3c-0.6,2.8-7.9,1.8-7.8-0.7c0.2-3.6-2.3-8.1-3.2-25.1c-0.1-1.9-2-2.2-2.8-7.5
			c-0.8-5.3,2.4-11.1,2.4-11.1l11.3-1.6c0,0,4.4,9.8,3.5,19.6C96.9,225.8,95.1,239,94.4,242.3z"/>
		<path class="st18" d="M86.7,241c0,0-2.6,5.1-2.9,8.8c-0.4,5.4,0.1,23.2,0.1,23.2s2.8,0.6,4.3,0.2c0,0,6.5-31.5,6.8-34.9
			C95.2,234.8,86.7,241,86.7,241z"/>
		<path class="st32" d="M106.9,162.8c-1.3-1.5-5.4-3.9-10.8-3.7c-3.7,0.1-14,0.7-15.1,3.2c-0.6,1.3-1.2,14.4-0.4,18.9
			c0.6,3.4,2.3,11.8,2.3,13.9c0,2-1.1,2.9-0.6,3.5c1.1,1.3,9,1.9,12.6,1.9c3.3,0,8.8-0.9,9.1-1.9c0.4-1.6-0.6-1.5-0.8-3.1
			c-0.1-1.6-0.9-12.4,0-13.9c1.5-2.5,3-9,3.1-10.9C106.6,168.8,108.2,164.3,106.9,162.8z"/>
		<path class="st26" d="M83.6,173.4c-0.4,0.8-3,5.1-3,5.1l-0.1,0.5c0.1,0.9,0.2,1.7,0.3,2.3c0.6,3.4,2.3,11.8,2.3,13.9
			c0,2-1.1,2.9-0.6,3.5c0.5,0.5,2,0.9,3.9,1.2c-0.4-0.5-0.8-1-0.9-1.3c-0.2-0.6,0.8-0.4,1-0.9c0.2-0.5-2.3-10.3-2.9-15.1
			C83,177.8,84,172.6,83.6,173.4z"/>
		<path class="st28" d="M99.3,154.5c0,0,0,4.5,0.2,4.7c0.2,0.2,1.1,0.6,1.1,0.6s-0.6,3.9-1.6,3.6c-1-0.3-7.5-3.6-7.5-3.6
			s0.9-0.4,0.9-0.7c0-0.4-0.9-7.5-0.9-7.5"/>
		<path class="st28" d="M94.8,138c0.9,0.3,3.4-0.3,4.1,0.8c0.7,1,1.3,3.5,1.6,4.2c0.5,1.4,0.9,2.8,1.2,4.3c0.5,1.8,1.3,5.2-0.5,6.8
			c-0.5,0.4-0.8,0.6-1.4,0.7c-0.9,0.2-1.7,0.3-2.6,0.5c-1.3,0.2-2.8,0.5-4.1,0.1c-1.8-0.6-2.7-3-3.2-4.6l-2.6-9.4L94.8,138z"/>
		<path class="st33" d="M99.3,164.5c0,0,0.4,16.7,1,26.8l-2.4,3.4l-1.7-4.2c0,0-0.7-12.2,1.6-25.8L99.3,164.5z"/>
		<path class="st33" d="M99.8,163l-0.1,0.2c-0.1,0.4-0.3,0.8-0.5,1.2l0,0l-1.5,0.1c0,0-1-0.5-1.2-1.1c-0.1-0.6,1.7-1.5,1.7-1.5
			l0.2,0.1C99,162.3,99.5,162.6,99.8,163L99.8,163z"/>
		<path class="st34" d="M92.3,157.5c0,0-1.3,0.9-2,2.1c0.8,1.8,3.1,4.8,5,6.2c0.9-2.4,3.1-3.8,3.1-3.8S92.8,160.8,92.3,157.5z"/>
		<path class="st34" d="M98.3,162c0,0,1.9,0.7,3,2.8c0,0,0.4-2.8-0.4-5.3c0,0-1-1.7-1.4-1.7C99.6,159.8,98.3,162,98.3,162z"/>
		<path class="st32" d="M105.8,161.8c3.3,1.8,9,20.8,9.6,21c0.6,0.2,13.5,15.3,13.5,15.3l-2,2.8c0,0-13-9.4-16.7-13.6
			c-2.6-2.9-7.6-15.9-7.6-15.9S102.5,160,105.8,161.8z"/>
		<path class="st26" d="M111.4,186.6c-1.3-1.1-5.4-13.2-5.4-13.2l-1,4.1c1.6,3.8,3.7,8.3,5.1,9.8c3.7,4.1,16.7,13.6,16.7,13.6
			l0.8-1.1C127.7,199.8,112.7,187.7,111.4,186.6z"/>
		<g>
			<path class="st10" d="M89,193.4l-19.7,3.7c-0.5,0.1-0.9,0.6-0.7,1.2l2.6,13.6c0.1,0.5,0.6,0.8,1.1,0.7l19.7-3.7
				c0.5-0.1,0.9-0.6,0.7-1.2L90,194C89.9,193.6,89.4,193.3,89,193.4z"/>
			<polygon class="st35" points="88.7,194.4 69.9,198 72.5,211.5 91.3,207.9 			"/>
			<g>
				<line class="st36" x1="89.2" y1="207.2" x2="87.2" y2="195.7"/>
				<line class="st36" x1="87.5" y1="207.6" x2="85.4" y2="196.1"/>
				<line class="st36" x1="84.9" y1="208.1" x2="82.8" y2="196.6"/>
				<line class="st36" x1="82.3" y1="208.6" x2="80.3" y2="197.1"/>
				<line class="st36" x1="79.8" y1="209.1" x2="77.5" y2="197.6"/>
				<line class="st36" x1="77.2" y1="209.7" x2="74.9" y2="198.2"/>
				<line class="st36" x1="74.7" y1="210.2" x2="72.3" y2="198.7"/>
			</g>
		</g>
		<g>
			<g>
				<path class="st28" d="M78.5,203.3c0,0,0.8,1.6,1.2,2.4c0.3,0.5,2.3,2.3,3.2,3.7c0.4,0.7,0.8,1.4,0.7,2.2
					c-0.1,0.8-0.8,1.5-1.6,1.4c-0.2,0-0.5-0.2-0.6,0c-0.1,0.1-0.1,0.2-0.2,0.3c-0.2,0.3-0.5,0.5-0.9,0.4c-0.3,0-0.6-0.3-0.7-0.7
					c-0.5,0.5-1.4,0.5-2,0c0.3-0.3,0.5-0.6,0.5-1c-0.1-0.4-0.4-0.7-0.6-1c-0.4-0.5-0.6-1.2-0.6-1.9c0-0.5,0.1-1,0.2-1.4
					c0.1-1-0.1-2-0.6-2.9"/>
			</g>
			<path class="st32" d="M84.5,171.5c-0.6,2.1-9.7,16.1-9.7,16.1l4.9,17.7l-2.8,1.7c0,0-8.6-14.3-8.7-18.4c0-4,6.3-18.9,10.9-24.9
				c1.5-1.9,4.4-2.9,4.4-2.9"/>
		</g>
		<g>
			<path class="st33" d="M89,149.1c0.6-0.3,1.1-0.7,1.4-0.1c0.2,0.3,0.3,0.7,0.7,0.8c0.3,0.1,0.7-0.2,0.8-0.6c0.1-0.4,0-0.7-0.1-1.1
				c-0.2-0.8-0.5-1.5-0.7-2.3c-0.2-0.8-0.5-1.6-0.2-2.3c0.2-0.4,0.4-0.7,0.7-0.9c1-0.8,2.3-1.3,3.5-1.5c1.3-0.3,2.6-0.4,3.8-0.8
				c0.5-0.2,1-0.4,1.5-0.7c0.7-0.6,1-1.5,1-2.4c0-0.9-0.3-1.7-0.7-2.5c-0.1,0.3-0.2,0.6-0.4,0.9c-0.2-0.4-0.4-0.8-0.7-1.1
				c-0.4,2.1-9.1,1.4-11.1,2.3c-1.4,0.6-2.6,1-2.5,3.3c0,0.1-0.2,0.3-0.3,0.4c-1.3,1.1-1.8,2.5-1.9,4.6c-0.2,2.5,1.3,5.3,2.7,7.4
				c0.4,0.5,0.6,0.9,1.1,1.3c0.5,0.4,1.4,0.6,2,0.5s1.9-0.1,1.9-0.7c0-0.5-1-1.3-1.2-1.6"/>
		</g>
		<g>
			<path class="st28" d="M91.3,151.5c0,0,0.1,0.4-0.2,0.8c-0.2,0.3-0.7,0.3-1,0.1c-0.9-0.3-1.6-1.2-1.7-2.1
				c-0.2-1.1,0.4-2.2,1.4-1.9c0.6,0.2,1,0.8,0.9,1.4"/>
		</g>
		<g>
			<path class="st30" d="M99.3,154.8l-2.8,0.5c0,0,0.9,1,2.8,1"/>
		</g>
		<path class="st37" d="M105.6,242.7c0.5-1.7-0.9-4.2-1.6-6.2c-0.7-1.9-6-17.3-6-17.3l-1.2,6.2c1.1,2.7,2.3,5.5,3.5,8l0,0l0,0
			c0.5,1,0.9,1.9,1.4,2.7c0.8,1.9,1.7,4.4,1.6,6.6c-0.3,1-1.6,7.1-0.8,10.6c1.8,7.5,2.3,18.5,2.3,18.5c0.5,0.1,0.9,0.1,1.3,0.2
			c-0.2-2.7-0.4-7.5-0.4-8.5c0-1.3-1.7-9.1-1.6-12.1C104.1,248.4,105,244.4,105.6,242.7z"/>
		<g>
			<polygon class="st10" points="92.2,203.6 90.5,204 89.3,197.6 91,197.3 			"/>
			<g>
				<g>
					<path class="st10" d="M94.6,199.8c-0.2-0.8-1-1.4-1.8-1.2l-2,0.4l0.6,3c0,0,1.6-0.3,2-0.4C94.2,201.5,94.7,200.7,94.6,199.8z
						 M92.2,200.3c-0.1-0.5,0.2-0.9,0.7-1c0.5-0.1,0.9,0.2,1,0.7c0.1,0.5-0.2,0.9-0.7,1C92.7,201.1,92.2,200.8,92.2,200.3z"/>
				</g>
			</g>
		</g>
	</g>
	<g>
		<ellipse class="st27" cx="153.3" cy="290.8" rx="21.9" ry="2"/>
		<g>
			<path class="st26" d="M180.3,172l-13.5-1.8v27l7.3,1c0.6,0.1,1.2-0.3,1.4-0.9l5.8-23.9C181.5,172.8,181,172.1,180.3,172z"/>
			<path class="st32" d="M163.3,169l-4.8,21.3c-0.1,0.6,0.3,1.2,0.8,1.2l15.1,2.2c0.5,0.1,1-0.3,1.1-0.8l4.8-21.3
				c0.1-0.6-0.3-1.2-0.8-1.2l-15.1-2.2C163.9,168.1,163.4,168.5,163.3,169z"/>
			<polygon class="st35" points="164.3,169.7 159.6,190.1 174.6,192.2 179.3,171.8 			"/>
			<g>
				<line class="st36" x1="177.7" y1="173.3" x2="164.9" y2="171.5"/>
				<line class="st36" x1="177.2" y1="175.2" x2="164.5" y2="173.4"/>
				<line class="st36" x1="171.9" y1="176.8" x2="164" y2="175.7"/>
				<line class="st36" x1="171.4" y1="178.5" x2="163.4" y2="177.4"/>
				<line class="st36" x1="170.8" y1="180.2" x2="162.8" y2="179"/>
				<line class="st36" x1="173.7" y1="189.3" x2="165.8" y2="188.2"/>
			</g>
		</g>
		<g>
			<path class="st30" d="M157.5,190.5c0.9-0.4,1.5-1.1,2.1-1.9c0.6-0.7,1.2-1.4,1.8-2.1c0.2-0.3,0.5-0.6,0.5-1
				c-1-0.1-1.7,1.2-2.7,1.3c0.5-1.7,1.1-3.3,2-4.7c0.2-0.4,0.4-0.8,0.3-1.2c-1.1,0.4-2,1.2-2.8,2c-0.6,0.6-1.1,1.2-1.5,1.9
				c-1.3,2-2.1,4.3-2.7,6.7"/>
		</g>
		<g>
			<path class="st28" d="M153.2,207.7l-10.8-9.1c0,0-5,6.8-3.1,13.4c0.9,3.2,2.1,4.8,2.6,6.4c0.5,1.4,3.7,21.7,3.5,23.2
				c-0.2,1.5-2,5.6-2.6,10c-0.8,5.2-0.7,22.3-1.3,26.8c-0.6,4.5,3.6,5.3,3.8,3.8c2-13.1,7.2-33.5,7.9-40
				C153.8,235.5,153.5,223.5,153.2,207.7z"/>
			<g>
				<path class="st30" d="M153.2,220.6l-4.7,10.8c2,3.3,3.1,7.3,3.3,11.3c0.1,2.1-0.1,4.2,0,6.2c0,0.1,0,0.3,0.1,0.5
					c0.6-3.1,1.1-5.6,1.3-7.3c0.5-4.6,0.5-12,0.4-21.5C153.4,220.6,153.3,220.6,153.2,220.6z"/>
			</g>
			<path class="st28" d="M145.9,277.8c0,0-1,4.7-0.7,5.4c0.3,0.6,1.2,2.4,2.2,3c1,0.7,3.4,1.5,3.5,1.7c0.2,0.3,0.2,0.7-0.1,1
				c-0.9,0.7-2.3,1-3.3,0.8c-3.1-0.5-3.5-1.9-5.3-2.1c-0.3,0-0.9,0.4-1.8,0c-0.9-0.4-1.3-1.3-1.2-2c0.1-1.3,0.9-2.4,1.4-3.4
				c0.5-1,0.9-5.4,0.9-5.4"/>
			<path class="st33" d="M151.1,289.1c0.2-0.4,0.3-1,0.1-1.1c-0.3-0.2-1.3-0.9-2-1.2c-0.6-0.3-1.6-0.5-1.2-0.3
				c0.3,0.2-0.3,0.9-0.9,0.8c-2-0.1-3.4-1.4-4.5-1.7c-1.6-0.4-2.3-2.3-2.4-2.6c-0.3,0.2-1,1.7-1.2,2.2c-0.1,0.4-0.4,1.2-0.2,1.7
				c0.1,0.3,0.3,0.9,0.2,1.6c0,0,0.3,0.2,1.2,0.4c0.5,0.1,1.2,0,1.2,0l0.1-1c0,0,0.4,0,1,0.1c0.6,0.1,1.5,0.6,1.5,0.7
				c0.2,0.3,0.4,0.8,0.7,0.9c0.8,0.4,1.6,0.6,2.6,0.6C149.5,290.4,150.7,289.8,151.1,289.1z"/>
		</g>
		<g>
			<path class="st28" d="M167.9,288.9c-0.2-0.3-2.7-0.7-3.9-1.2c-1.1-0.5-2.5-2-2.7-2.6c-0.3-0.6-0.2-3.9-0.2-5.2
				c0.2-9.3,2-32.1,2.2-37.5c0.4-9.5-0.8-19.3-4.4-34.5l-13.6-10.4c0,0-3.8,7.1-2.5,13.8c0.7,3.9,4,4.5,4.5,6
				c0.6,1.5,8.8,26.1,8.8,26.1s-1.6,5.3-1.7,11.1c-0.1,5,2.2,20,2.6,25.7c0,1.1,0.2,3.8-0.1,4.6c-0.4,1-1.4,2.3-1.4,3.6
				c0,0.8,0.6,1.5,1.5,1.8c1,0.3,1.5-0.3,1.8-0.3c1.9-0.1,2.4,1.2,5.8,1.2c1,0,2.5-0.6,3.3-1.4C168.2,289.6,168.1,289.2,167.9,288.9
				z"/>
			<path class="st33" d="M168.2,290.1c0.2-0.4,0.2-1-0.1-1.1c-0.3-0.1-1.5-0.7-2.2-0.8c-0.7-0.2-1.7-0.3-1.3-0.1
				c0.4,0.1-0.2,0.9-0.8,1c-2,0.2-3.7-0.9-4.9-0.9c-1.7-0.1-2.4-1.9-2.5-2.2c-0.3,0.2-1.1,1.9-1.2,2.4c-0.1,0.5-0.2,1.3,0,1.7
				c0.1,0.3,0.4,0.9,0.4,1.6c0,0,0.4,0.2,1.3,0.2c0.6,0,1.3-0.2,1.3-0.2v-1c0,0,0.5-0.1,1-0.1c0.6,0,1.3,0.3,1.7,0.6
				c0.3,0.2,0.6,0.6,0.9,0.7c1,0.2,1.6,0.3,2.7,0.2C166.7,291.6,167.9,290.8,168.2,290.1z"/>
		</g>
		<path class="st33" d="M142.7,197.4c-0.9,1-4.2,6.5-4.2,10.9c0,4.5,1.5,7.3,1.7,8.2c1,6.8,2,15,2,15.5c0,0.4,3.9,3,9.1,2.7
			c9.6-0.6,13.3-3.1,13.3-3.1s-0.5-16.5-1.9-24.6c-0.7-4.1-4-10.6-4-10.6"/>
		<path class="st28" d="M133.9,179.6c0,0,1.5,7.7,2,9c0.4,1.4,2.4,10,4.3,9.9c1.9-0.2,12.3-8.8,12.3-8.8l-1.5-2.9l-9.2,4.4
			c0,0-0.8-9.9-1.6-12.3"/>
		<g>
			<path class="st30" d="M137.5,184.4c1,3.4,3,7,3.6,9.7c0.1,0.5,6.5-1.8,6.5-4.2"/>
		</g>
		<path class="st15" d="M140.1,169c0,0-3,0.3-4.6,1.5c-3.9,3-0.9,13.9-0.9,13.9s-0.2,0.6,2.4,0.4c2.6-0.1,4.8-0.9,4.8-0.9l-0.8-8.9"
			/>
		<path class="st17" d="M136.7,175.2c0,0-0.3,6.4,0.8,9.7c1.1,0,2.2-0.3,2.2-0.3L136.7,175.2z"/>
		<g>
			<path class="st28" d="M154.7,148.9c1.8,2.4,1.5,5.7,1,8.7c-0.2,1.5-0.5,3-0.7,4.5c-0.1,0.7-0.3,1.5-0.8,1.9
				c-0.6,0.5-1.4,0.5-2.1,0.4c0,1.2,0,2.5,0,3.7c-2.1,0.1-4.2,0.1-6.4,0c0-0.9-0.2-1.7-0.6-2.5c-1,0-1.7-1.1-2.1-2
				c-0.5-1.1-0.8-2.3-1.1-3.4c-0.4-1.5-0.9-3.1-0.9-4.7c0-1.6,0.3-3.2,1.3-4.5c0.7-0.8,1.6-1.4,2.6-1.9c1.3-0.7,2.9-1.2,4.3-0.6"/>
		</g>
		<g>
			<path class="st33" d="M152.5,160.2c-0.3-1.2-0.2-2,0.2-2.8c0.1-0.3,0.3-0.5,0.6-0.7c0.3-0.2,0.8-0.3,1.1-0.1
				c0.2,0.1,0.4,0.3,0.6,0.5c0.4-1.7,0.5-3.5,0.4-5.2c-0.2-2.8-1.9-4.9-4.3-5.9c-4.5-1.8-11,0-12.8,4.4c-1.4,3.3-0.7,8.1,2,10.9
				c2.3,2.5,5.7,2.8,8.8,2.3c1.6-0.3,4-0.1,4.9-2.3c0.1-0.2-0.1-0.3-0.2-0.3C153,161.1,152.5,160.4,152.5,160.2z"/>
		</g>
		<g>
			<path class="st33" d="M152.8,154.3c0.2,0.3,0.1,0.6,0.3,0.9c0.3,0.5,0.6,0.6,1.1,0.8c0.8,0.4,0.6,1.5,0.6,2
				c0.6-0.4,0.7-1.4,0.8-2c0.2-0.6,0.3-1.2,0.4-1.8c0.2-0.6,0.5-1.1,0.5-1.7c0.2-2.1-1.1-4.5-2.7-5.7c-1.2-0.9-2.9-0.8-4.2,0
				c-0.5,0.4-1,0.9-1.2,1.5c-0.1,0.3-0.2,0.6,0,0.8"/>
		</g>
		<g>
			<path class="st17" d="M142.6,169c0.1-0.7,0.3-1.6,1-1.9c0.2-0.1,0.4-0.1,0.6-0.1c2.1-0.2,4.2-0.3,6.2-0.3c0.9,0,1.8,0.1,2.5,0.4
				c1.2,0.6,1.9,1.9,2.5,3.1"/>
		</g>
		<g>
			<path class="st15" d="M160.1,195.7c-0.3-0.4-1-0.9-1.2-1.4c-0.6-1.1-1.1-5.9-0.9-7.1c0.2-1.3,1.4-2,1.9-4.9
				c0.7-3.7-0.9-6.6-1.7-7.9c-1.2-1.8-0.5-1.7-0.9-3.9c-0.1-0.4-0.2-0.8-0.4-1.1c-0.3-0.3-2.1-1.1-2.4-1.1c-3.4-0.5-5.3-0.1-8.7,0
				c-1.7,0.1-3.4,0.3-5,0.6c-1.8,0.4-3.4,0.9-3.8,3.4c-0.6,3.8-0.1,7.7,1.1,11.4c0.8,2.4,5.4,10.8,4.2,12.4c-0.3,0.4-0.9,1.1-1,1.5
				c-0.3,1.7,3.5,2.3,5.2,2.4c2.5,0.2,5.3,0.1,7.8,0c1.9-0.1,6-0.7,6.3-3.1C160.6,196.4,160.4,196,160.1,195.7z"/>
		</g>
		<path class="st17" d="M159.4,183c0,0.7-0.4,1.6-0.5,1.9c-0.5,0.2-2.4,0.6-3.4,0.2c-0.2-2.2-1.6-6.6-1.6-6.6S159.4,182.3,159.4,183
			z"/>
		<g>
			<path class="st33" d="M143.7,162.1c-1.3-0.4-2.7,0.4-3.6,1.4c-1,1.2-1.4,3-0.5,4.3c0.3,0.5,0.8,0.8,1.4,1.1
				c1.5,0.9,3.4,1.4,5.1,0.9c1.7-0.4,3.2-2,3.2-3.7c0-1.6-1.2-2.9-2.4-4"/>
		</g>
		<g>
			<path class="st28" d="M157,181.4c0,0,6.2,15,8.9,15c2,0,6.8-13.9,6.8-13.9l-3-1.4l-3.4,5.8l-3.4-10.8"/>
			<path class="st28" d="M169.1,182.1c0,0,1-1.6,0.9-2.7c0-0.4-0.3-2.5-0.1-2.9c0.2-0.4,0.7-1.7,1-2c0.3-0.3,1.4-0.7,1.6-0.5
				c0.3,0.2,0.6-0.7,1-0.6c0.4,0.1,0.8,0.4,0.8,0.8c0,0.4,0.6,0.5,0.7,0.8c0.1,0.3,0,0.5,0.1,0.8c0.1,0.2,0.4,0.1,0.5,0.7
				c0.1,0.5,0,0.5,0,0.8c0,0.3,0.3,0.2,0.2,0.7s-0.4,1.1-0.7,1.7c-0.3,0.5-0.9,1.2-1.7,1.7c-0.4,0.2-0.6,0.7-1,1.4"/>
			<path class="st33" d="M170.7,170.5c-0.1-0.1-0.3-0.3-0.5-0.1c-0.2,0.2-0.2,0.5-0.1,0.6c0.1,0.1,1.8,4.2,1.8,4.2s0.1,0.2,0.4-0.1
				c0.3-0.3,0.2-0.4,0.2-0.4S170.8,170.6,170.7,170.5z"/>
			<g>
				<path class="st30" d="M172.7,174.4c-0.4,0.6-0.8,0.8-1.1,1.2c-0.3,0.3-0.3,0.4-0.6,0.7c0.6,0,0.5-0.4,1.2-0.9
					c0.3-0.2,0.7-0.5,0.7-0.9C172.9,174.3,172.8,174.3,172.7,174.4L172.7,174.4z"/>
			</g>
		</g>
		<g>
			<path class="st15" d="M151.3,168c1.6,0.1,6.3-0.7,9,2c2.2,2.3,3.5,8.3,4.3,10.8c-2.2,2.2-4.3,4-7.6,3.3c-0.1-0.1-1.8-5.3-3-5.8"
				/>
		</g>
		<g>
			<path class="st29" d="M153.1,234.6c-0.6-4-4.4-16.2-4.6-16.6c-2.1-1.6-3.4-3.2-4.1-4.6c-0.5,2.7,0.8,5.3,1.9,7.8
				c2,4.3,3.2,9,4.9,13.5"/>
		</g>
	</g>
	<g>
		<path class="st32" d="M312.9,172.2c-2.7,2.9-4.6,21.3-4.6,22c-0.1,0.7-13.6,8.3-13.6,8.3l1.9,2.2c0,0,14.4-3.6,17-6.8
			c2.2-2.7,7.3-24.4,7.3-24.4S317.4,167.4,312.9,172.2z"/>
		<ellipse class="st27" cx="333.9" cy="296.6" rx="40.2" ry="2.8"/>
		<g>
			<path class="st28" d="M354.2,282c0,0,1.1,2.1,1.7,2.8c0.6,0.7,3-0.8,3-1.4c0-0.5-2.1-3.9-2.1-3.9"/>
			<path class="st33" d="M359.9,283.6c0.5,0.7,1.4,2.2,1.4,2.2l-2.1,1.9l-0.6-0.2c0,0-0.4,1-1,1.6c-0.5,0.5-1.6,1.2-2.2,1.5
				c-2.1,1-3.9,1.1-4.1,0.9c-1-1.1,1.8-2.4,2.3-2.7c1.5-1,1.9-2.7,1.8-3.7c-0.1-0.7-0.3-0.8,0.1-0.9c0,0,0.3-0.1,0.7,0.1
				c0.6,0.3,1.4,0.3,1.9-0.2c0.3-0.3,0.6-0.6,0.6-1C358.7,283,359.4,282.8,359.9,283.6z"/>
		</g>
		<g>
			<path class="st28" d="M314.6,289.3c0,0-0.5,1.3-0.5,2.2c0.1,0.9,2.9,0.9,3.3,0.5c0.3-0.4,0.5-4.4,0.5-4.4"/>
			<path class="st33" d="M318.2,292.7c0,0.9-0.3,2.4-0.3,2.4h-3.3l-0.2-0.5c0,0-1.1,0.5-1.9,0.5h-2.8c-2,0-3.2-0.2-3.2-0.6
				c-0.2-1.4,2.2-1.4,2.8-1.4c1.8,0,3.8-0.8,4.2-1.7c0.3-0.6,0.2-0.8,0.5-0.7c0,0,0.3,0.1,0.6,0.5c0.3,0.6,1,1,1.7,0.9
				c0.4-0.1,0.8-0.2,1.1-0.5C317.5,291.5,318.2,291.8,318.2,292.7z"/>
		</g>
		<path class="st15" d="M331.4,229.4c0,0.1-2.7-2.9-2.7-2.8c-1.1,5.4-6,23.3-7.6,28v0c-0.2,0.7-1.5,2.1-2.6,2.3
			c-2.4,0.6-6.3-0.2-6.6-4.8c0-0.5,0.1-1.1,0-1.7c-0.7-7.1,6.1-38.4,6.3-40.4c0.2-2,4.1-0.6,5.2-0.9
			C328.9,207.3,332.8,222,331.4,229.4z"/>
		<path class="st15" d="M321.4,257.1c-1.1-3.3,0.6-7.2,0.6-7.2s-9.5-7.3-10-2.8c0,0.4-0.4,3.4-0.4,5.1c0,6.1,2.1,25.3,2,37.1v0.8
			c0,0,1.6,0.3,4.4,0.3c0.1,0,0.3,0,0.4,0c0.8-7.3,2.5-17.3,3.3-27.3C321.8,260.5,321.6,257.7,321.4,257.1z"/>
		<path class="st15" d="M345.5,255.6c-1.9-2.4-3.9-3.4-4.5-5.2c-1.4-4.2-1-21.1-1.1-25.8c0.4-1,4-10.6-3.4-17.6c0,0-6.7,2.9-12,3.2
			c-4.2,0.3-6.3-0.1-6.3-0.1s4,6,4.2,8.6c0.4,4.5,8.8,31.7,9.5,33.2c1.5,3.4,3.1,4.7,3.6,5.4c3.7,4.9,12.5,15.1,19.1,24.9l0.4,0.6
			c0,0,1.3-0.5,3.8-2.2C355.3,274.1,351.6,263.1,345.5,255.6z"/>
		<path class="st32" d="M312.9,172.2c1.3-1.5,7-3.9,12.7-3.7c3.9,0.1,16.2,1.4,17.4,4c0.6,1.3,0.5,14-0.3,18.6
			c-0.7,3.5-2.7,12.6-2.7,14.7s1.1,3,0.6,3.6c-1.2,1.4-10,2-13.8,2c-3.4,0-9.1-0.9-9.4-2c-0.4-1.6,0.7-1.6,0.8-3.2
			c0.1-1.7,0.9-12.8,0-14.4c-1.6-2.6-4-9.8-4.1-11.8C313.9,178.1,311.6,173.7,312.9,172.2z"/>
		<path class="st28" d="M322.3,163.7c0,0,0,4.7-0.2,4.9c-0.2,0.2-1.1,0.6-1.1,0.6s0.7,4.1,1.7,3.8c1-0.3,7.8-3.7,7.8-3.7
			s-1-0.4-1-0.8c0-0.4,0.9-7.8,0.9-7.8"/>
		<g>
			<path class="st29" d="M324.1,148.3c-0.8-0.6-2-0.6-2.9-0.2c-0.9,0.4-1.6,1.3-2,2.3c-0.4,0.9-0.5,2,0,2.9c-0.7,0.2-1.1,1-1.1,1.7
				c0,0.8,0.5,1.5,0.9,2.2c0.4,0.6,1.2,1,1.9,0.8c0.5-0.1,0.9-0.5,1.2-0.9c0.3-0.4,0.5-0.9,0.7-1.4c0.9-2.2,1.5-4.6,1.9-6.9"/>
		</g>
		<path class="st28" d="M327,146.7c-1,0.3-3.6-0.3-4.3,0.8c-0.7,1.1-1.3,3.7-1.6,4.4c-0.5,1.4-0.9,2.9-1.3,4.4
			c-0.5,1.9-1.8,5.5,0.1,7.1c0.5,0.5,1.2,0.5,1.9,0.6c0.9,0.2,1.8,0.3,2.7,0.5c1.4,0.2,2.9,0.5,4.3,0.1c1.8-0.6,2.8-3.1,3.3-4.8
			l2.7-9.8L327,146.7z"/>
		<g>
			<path class="st28" d="M331,160.8c0,0-0.1,0.5,0.3,0.8c0.3,0.3,0.8,0.2,1.1,0c0.9-0.4,1.5-1.4,1.5-2.4c0.1-1.2-0.7-2.2-1.7-1.8
				c-0.6,0.2-0.9,1-0.8,1.6"/>
		</g>
		<g>
			<path class="st33" d="M333.5,155.5c-0.3,1-1.1,3.2-2,3c-0.9-0.2,0.4-3.7,1.1-5c-1.1,0-2.5-0.2-2.9-1.2c-0.1-0.2-0.2-0.5-0.4-0.6
				c-0.2,0-0.4,0.1-0.5,0.2c-0.8,0.5-1.8,0-2.5-0.7c-0.1-0.2-0.3-0.3-0.5-0.3c-0.1,0-0.2,0.1-0.3,0.2c-1.3,0.9-4.7,0.9-4.7-0.7
				c-1.1,0.6-1.8-0.8-1.8-1.8c0.1-0.9,0.8-2.5,2.3-2.5c-0.1-1.2,0.8-1.9,1.8-2.6c0.9-0.7,2.1-1,3.3-1.1c1.8-0.1,3.9,0.7,4.6,2.4
				c0,0.1,0.1,0.3,0.2,0.3c0.1,0.1,0.3,0,0.4,0c1.4-0.4,3-0.2,4.1,0.8c1.1,1,1.4,2.7,0.6,3.9c1.1,0.3,1.7,1.5,1.5,2.6
				c-0.2,1.1-0.9,2-1.6,2.8c1.2,0.4,1.6,2,1,3c-0.6,1.1-2.1,1.7-3.3,1.5c0.3-1.1-0.2-2.4-1.3-2.6"/>
		</g>
		<path class="st33" d="M322.4,174.1c0,0-0.4,17.3-1.1,27.8l2.5,3.5l1.7-4.4c0,0,0.7-12.7-1.7-26.8L322.4,174.1z"/>
		<path class="st29" d="M321.8,172.6l0.1,0.2c0.1,0.4,0.3,0.9,0.5,1.3l0,0l1.6,0.1c0,0,1.1-0.6,1.2-1.2c0.1-0.6-1.7-1.6-1.7-1.6
			l-0.2,0.1C322.7,171.8,322.2,172.2,321.8,172.6L321.8,172.6z"/>
		<path class="st34" d="M329.6,166.9c0,0,1.3,1,2.1,2.1c-0.8,1.8-3.2,5-5.2,6.4c-0.9-2.5-3.2-4-3.2-4S329.1,170.4,329.6,166.9z"/>
		<path class="st34" d="M323.4,171.5c0,0-1.9,0.8-3.1,2.9c0,0-0.4-2.9,0.4-5.5c0,0,1-1.8,1.5-1.8C322,169.3,323.4,171.5,323.4,171.5
			z"/>
		<path class="st17" d="M321.4,257.1c-0.3-0.8-0.4-1.6-0.4-2.4c0,0,0-0.1,0.1-0.1v0c1.1-3.2,3.7-12.3,5.6-19.6l-3-10.5
			c0,0-1.8,21.4-2.4,23c-0.6,1.5-2.4,6.5-2.2,7.6c0.2,1.1,1.3,3,1.2,4.7c-0.2,1.7-0.2,16.8-0.2,16.9c0.6-4.4,1.2-9,1.5-13.7
			C321.8,260.5,321.6,257.7,321.4,257.1z"/>
		<g>
			<circle class="st38" cx="266.9" cy="170.6" r="21.3"/>
			<line class="st39" x1="281.3" y1="187.2" x2="313.1" y2="225.5"/>
		</g>
		<g>
			<g>
				<path class="st28" d="M310.8,211.3c0,0-1.8,0.5-2.7,0.8c-0.6,0.2-3.4-0.1-5,0.2c-0.8,0.2-1.6,0.5-2.1,1.1
					c-0.5,0.6-0.5,1.7,0.1,2.2c0.2,0.1,0.5,0.2,0.5,0.5c0,0.1,0,0.2-0.1,0.3c-0.1,0.3,0,0.8,0.3,1c0.3,0.2,0.7,0.3,1,0.1
					c0,0.8,0.7,1.4,1.4,1.5c0-0.4,0.1-0.9,0.4-1.1c0.3-0.2,0.8-0.2,1.2-0.2c0.7-0.1,1.4-0.4,1.9-0.9c0.4-0.4,0.6-0.8,0.9-1.2
					c0.7-0.8,1.6-1.3,2.6-1.6"/>
			</g>
			<path class="st26" d="M343.1,172.5c-0.1-0.1-0.1-0.2-0.2-0.3l-8.2,8c-1.9,5.2-5.8,18.8-5.8,18.8s-3.7,1.7-6.1,3
				c-0.6,0.3-2.4,1.5-4.5,3c0,0.6-0.1,1.1-0.1,1.4c-0.1,1.7-0.4,1.7,0.1,3.3c0,1.1-0.4,2.7-0.7,4.3c6.1-1.6,18.8-5.5,19.2-5.8
				c0.7-0.4,4.4-15.4,6.6-24.5C343.7,178,343.5,173.5,343.1,172.5z"/>
			<path class="st32" d="M334.7,179.3c-0.8,2.2-4.8,21.2-4.8,21.2s-3.9,1-6.4,2.3c-1.9,1-15.2,9.3-15.2,9.3l1.3,3.1
				c0,0,23.7-8.4,24.7-9c1-0.6,10.5-24.6,10.5-28.8c0-2.5-2-5.1-2-5.1"/>
		</g>
		<g>
			<path class="st28" d="M294,206.6c-0.8,0.1-1.6-0.5-1.7-1.2c0-0.2,0-0.3-0.1-0.4c-0.1-0.2-0.5-0.3-0.7-0.4c-1-0.3-1.6-1.3-1.9-2.3
				c-0.1-0.5-0.2-1.1,0-1.6c0.2-0.5,0.6-1,1.1-1.2c0.1,0,0.2,0,0.3,0c0.1,0,0.2,0.1,0.2,0.2c0.3,0.4,0.5,0.9,0.7,1.4
				c0.1,0.4,0.2,0.8,0.5,1c0.2,0.1,0.5,0.2,0.7,0.3c0.5,0.2,0.7,0.7,0.8,1.2C294.2,204.2,293.8,205.8,294,206.6"/>
		</g>
		<g>
			<path class="st28" d="M296.8,201.6c0.1-0.6-0.1-1.3-0.5-1.7c-0.4-0.4-0.9-0.7-1.5-0.9c-0.1-0.1-0.3-0.1-0.4,0
				c-0.1,0.1,0,0.2,0,0.3c0.2,0.4,0.7,0.5,0.9,0.9c0.1,0.1,0.1,0.3,0.2,0.4C295.7,201.2,296.2,201.5,296.8,201.6"/>
		</g>
		<path class="st26" d="M316.9,189.1c0,0-2.2-5.6-2.7-7.9c-1.1,5.5-0.7,15-1.6,15.8c-0.9,0.8-9.9,6-9.9,6l0,0
			c4.3-1.3,9.5-3.3,10.9-5C314.4,197,315.7,193.3,316.9,189.1L316.9,189.1z"/>
		<path class="st30" d="M322.3,164.1c0,0,3.8,0.8,4.5,0.7c0.7-0.1-1.5,1.2-1.9,1.2c-0.4,0-2.6-0.3-2.6-0.3V164.1z"/>
	</g>
	<g>
		<path class="st40" d="M170.1,32.9c0-0.1-5.3,3.2-5.3,3.2l1.4,9l2.6-6.8l6.9-1.3l9.9-9.3L170.1,32.9z"/>
		<polygon class="st41" points="185.6,27.8 166.2,45.2 168.8,38.4 		"/>
		<polygon class="st1" points="185.6,27.8 159.9,33.3 164.8,36.2 185.6,27.8 168.8,38.4 177.1,43.6 		"/>
	</g>
	<path class="st29" d="M91.5,147c0.1,0.1,0.5,0.1,0.6,0.1c0.2,0,0.1,0.1,0.9,0.9c0.6,0.6,1.5,0.7,3.1,0c1.2-0.6,0.9-1.5,1-2
		s0.1-0.6,0.3-0.6c0.2-0.1,0.3,0,0.6,0.3c0.3,0.4,0.9,1.3,2.2,1c1-0.2,1.4-0.7,1.4-1.4c0.1-1.2,0.1-1.2,0.2-1.3
		c0.1-0.1,0-0.6-0.1-0.8c-0.1-0.2-0.9-0.1-1.6,0.2c-0.8,0.2-2,0.6-2.3,0.9c-0.4,0.3-0.3,0.5-0.6,0.6c-0.2,0.1-0.3-0.1-0.8-0.2
		c-0.5-0.1-2.6,0.6-3.3,0.8c-0.8,0.2-1.8,0.7-1.8,0.9C91.3,146.7,91.4,146.9,91.5,147z M98.2,145c0-0.3,0.3-0.4,1.2-0.7
		s1.3-0.5,1.5-0.4c0.2,0.1,0.4,0.5,0.3,1.2c-0.1,0.8-0.2,1.2-1,1.4c-0.8,0.2-1.3-0.1-1.6-0.5C98.4,145.5,98.2,145.1,98.2,145z
		 M92.7,146.3c0.1-0.2,1.3-0.5,2.2-0.7c0.9-0.2,1.2-0.3,1.4,0c0.1,0.1,0.2,0.5,0.2,1c0,0.5,0,1-1.4,1.4c-1,0.3-1.5,0.1-2-0.5
		C92.7,147,92.6,146.5,92.7,146.3z"/>
	<g>
		<path class="st1" d="M119.8,88.5h38.7c2.5,0,4.5,2,4.5,4.5v25.1c0,2.5-2,4.5-4.5,4.5h-38.7c-2.5,0-4.5-2-4.5-4.5V93
			C115.3,90.5,117.3,88.5,119.8,88.5z"/>
		<polyline class="st1" points="157.7,111.6 169.1,108.3 158.9,105.7 		"/>
		<g>
			<rect x="132.3" y="103.7" class="st21" width="7.1" height="1.6"/>
			<rect x="127.3" y="101.3" class="st21" width="12.2" height="1.6"/>
			<rect x="121.7" y="110.5" class="st21" width="34.9" height="2"/>
			<rect x="121.7" y="113.5" class="st21" width="34.9" height="2"/>
			<rect x="127.3" y="98.8" class="st21" width="12.2" height="1.6"/>
			<rect x="135" y="96.4" class="st21" width="4.5" height="1.6"/>
			<circle class="st21" cx="149.5" cy="101.5" r="7.2"/>
			<path class="st42" d="M148.1,101.6c-0.7-0.5-1.2-1.3-1.2-2.2c0-1.4,1.2-2.6,2.6-2.6c1.4,0,2.6,1.2,2.6,2.6c0,0.9-0.5,1.7-1.2,2.2
				c1.6,0.4,2.8,1.8,2.8,3.5v2.1c-1.2,0.9-2.6,1.4-4.2,1.4c-1.6,0-3-0.5-4.2-1.4v-2.1C145.3,103.4,146.5,102,148.1,101.6z"/>
		</g>
	</g>
	<g>
		<circle class="st10" cx="115.2" cy="75.6" r="5"/>
		<polyline class="st43" points="113.1,75 114.2,77.5 117.9,75.2 		"/>
	</g>
	<g>
		<circle class="st10" cx="308" cy="38.7" r="5"/>
		<polyline class="st43" points="306,39.8 308.6,40.8 309.6,36.5 		"/>
	</g>
	<g>
		<circle class="st44" cx="361.2" cy="210.8" r="15.3"/>
		<circle class="st45" cx="361.2" cy="210.8" r="10.7"/>
		<circle class="st45" cx="361.2" cy="210.8" r="6.1"/>
		<circle class="st10" cx="361.2" cy="210.8" r="2.6"/>
		<g>
			<line class="st46" x1="361.2" y1="210.8" x2="380.9" y2="191"/>
			<polyline class="st46" points="384.1,191.3 380.6,191.3 380.6,187.8 			"/>
			<polyline class="st46" points="382.3,193.1 378.8,193.1 378.8,189.6 			"/>
			<polyline class="st46" points="380.5,194.9 377,194.9 377,191.3 			"/>
			<polyline class="st46" points="364.6,210.9 361,210.9 361,207.3 			"/>
		</g>
	</g>
	<circle class="st10" cx="39" cy="160.7" r="1.8"/>
	<circle class="st10" cx="384.1" cy="120.5" r="1.8"/>
	<circle class="st10" cx="212.2" cy="51.7" r="1.8"/>
	<g>
		<g>
			<path class="st10" d="M153.1,87c-0.3,0-0.6-0.3-0.6-0.6v-4.1c0-0.3,0.3-0.6,0.6-0.6c0.3,0,0.6,0.3,0.6,0.6v4.1
				C153.7,86.8,153.5,87,153.1,87z"/>
		</g>
		<g>
			<path class="st10" d="M155.2,85h-4.1c-0.3,0-0.6-0.3-0.6-0.6c0-0.3,0.3-0.6,0.6-0.6h4.1c0.3,0,0.6,0.3,0.6,0.6
				C155.8,84.7,155.5,85,155.2,85z"/>
		</g>
	</g>
	<g>
		<g>
			<path class="st10" d="M52.4,243.8c-0.3,0-0.6-0.3-0.6-0.6v-4.1c0-0.3,0.3-0.6,0.6-0.6c0.3,0,0.6,0.3,0.6,0.6v4.1
				C53,243.5,52.7,243.8,52.4,243.8z"/>
		</g>
		<g>
			<path class="st10" d="M54.4,241.7h-4.1c-0.3,0-0.6-0.3-0.6-0.6c0-0.3,0.3-0.6,0.6-0.6h4.1c0.3,0,0.6,0.3,0.6,0.6
				C55,241.4,54.8,241.7,54.4,241.7z"/>
		</g>
	</g>
	<g>
		<g>
			<path class="st10" d="M401.2,182.2c-0.3,0-0.6-0.3-0.6-0.6v-4.1c0-0.3,0.3-0.6,0.6-0.6c0.3,0,0.6,0.3,0.6,0.6v4.1
				C401.8,182,401.5,182.2,401.2,182.2z"/>
		</g>
		<g>
			<path class="st10" d="M403.3,180.2h-4.1c-0.3,0-0.6-0.3-0.6-0.6c0-0.3,0.3-0.6,0.6-0.6h4.1c0.3,0,0.6,0.3,0.6,0.6
				C403.8,179.9,403.6,180.2,403.3,180.2z"/>
		</g>
	</g>
	<g>
		<g>
			
				<rect x="261.7" y="20.6" transform="matrix(0.9487 0.3162 -0.3162 0.9487 23.3836 -85.4528)" class="st6" width="26.7" height="17.4"/>
			<polygon class="st6" points="290.5,25.3 265.1,16.9 281.2,10.7 			"/>
			
				<rect x="264.6" y="19.3" transform="matrix(0.9487 0.3162 -0.3162 0.9487 23.0897 -85.583)" class="st19" width="21.4" height="18.1"/>
			<polygon class="st47" points="265.1,16.9 259.6,33.4 274.8,29.9 			"/>
			<polygon class="st47" points="290.5,25.3 285,41.8 274.8,29.9 			"/>
			<polygon class="st47" points="285,41.8 259.6,33.4 275.8,27.2 			"/>
		</g>
		<g>
			<path class="st6" d="M259.6,33.4c1.3-0.6,2.6-1.2,3.9-1.8c1.3-0.6,2.6-1.1,4-1.7c2.7-1.1,5.3-2.2,8-3.2l0.4-0.2l0.2,0.4
				c1.5,2.4,3,4.9,4.5,7.4c0.7,1.2,1.5,2.5,2.2,3.7c0.7,1.3,1.4,2.5,2.1,3.8c-0.9-1.2-1.7-2.4-2.5-3.5c-0.8-1.2-1.6-2.4-2.4-3.6
				c-1.6-2.4-3.2-4.8-4.7-7.3l0.6,0.2c-2.7,1-5.4,2-8.1,3c-1.4,0.5-2.7,0.9-4.1,1.4C262.4,32.5,261,32.9,259.6,33.4z"/>
		</g>
	</g>
</g>
</svg>
