<?xml version="1.0" encoding="utf-8"?>
<!-- Generator: Adobe Illustrator 19.0.0, SVG Export Plug-In . SVG Version: 6.00 Build 0)  -->
<svg version="1.1" id="Layer_1" xmlns="http://www.w3.org/2000/svg" xmlns:xlink="http://www.w3.org/1999/xlink" x="0px" y="0px"
	 viewBox="0 0 120 122" style="enable-background:new 0 0 120 122;" xml:space="preserve">
<style type="text/css">
	.st0{display:none;fill:#3C2FEA;}
	.st1{opacity:0.44;fill:none;stroke:#121293;stroke-width:4;stroke-miterlimit:10;}
	.st2{fill:none;stroke:#3E3EDD;stroke-width:8;stroke-miterlimit:10;}
	.st3{fill:#3E3EDD;}
	.st4{display:none;fill:#3E3EDD;}
	.st5{display:none;opacity:0.44;fill:none;stroke:#121293;stroke-width:4;stroke-miterlimit:10;}
	.st6{display:none;fill:#6060C6;}
	.st7{display:none;fill:#A1A1E5;}
</style>
<path id="XMLID_46_" class="st0" d="M-71-296c55,4.7,82.7,31,83.5,42.5c2.3,33.8-18.3,62.8-44.9,81.5s-38.6-2.7-38.6-2.7V-296z"/>
<ellipse id="XMLID_60_" class="st1" cx="58.2" cy="54" rx="20.8" ry="20.6"/>
<circle id="XMLID_47_" class="st2" cx="63.4" cy="58.4" r="43.4"/>
<circle id="XMLID_54_" class="st3" cx="79.5" cy="58.5" r="16.5"/>
<path id="XMLID_56_" class="st4" d="M404.6,68c-46.3,0-64.6,26.6-64.6,53s18.6,53,64.6,53"/>
<ellipse id="XMLID_57_" class="st5" cx="-34.8" cy="125" rx="13.2" ry="13"/>
<path id="XMLID_61_" class="st6" d="M405,272L289.7,383c-8.8,8.5-8.2,22.9,1.3,30.6L405,506V272z"/>
<path id="XMLID_59_" class="st7" d="M-71,31C-36-2,68.2-42,167.2-41S336,1,405,0c0,60,0,60,0,60s97,3,0,0S224,10.7,122,25.7
	S-71,92.5-71,92.5V31z"/>
<path id="XMLID_53_" class="st7" d="M404.6,244C275.6,221.6,165,195.5,90,212s-161,68.1-161,68.1v-96
	c52.6-37.5,179.5-90.3,295.6-46.1s131.3,26.5,180.4,28C404.6,207.9,404.6,244,404.6,244"/>
</svg>
