<?xml version="1.0" encoding="utf-8"?>
<!-- Generator: Adobe Illustrator 19.0.0, SVG Export Plug-In . SVG Version: 6.00 Build 0)  -->
<svg version="1.1" xmlns="http://www.w3.org/2000/svg" xmlns:xlink="http://www.w3.org/1999/xlink" x="0px" y="0px"
	 viewBox="0 0 411 457.5" style="enable-background:new 0 0 411 457.5;" xml:space="preserve">
<style type="text/css">
	.st0{display:none;}
	.st1{display:inline;fill:#4AACDD;}
	.st2{clip-path:url(#SVGID_2_);}
	.st3{fill:#E5CBA5;}
	.st4{clip-path:url(#SVGID_4_);}
	.st5{fill:#CEB593;}
	.st6{opacity:0.22;fill:#CEB593;}
	.st7{fill:#C6A789;}
	.st8{fill:#D1B290;}
	.st9{fill:#D8BC98;}
	.st10{fill:#E8D8C4;}
	.st11{fill:#394244;}
	.st12{opacity:0.54;fill:#FCF7E0;stroke:#FCF7E0;stroke-width:10;stroke-miterlimit:10;}
	.st13{filter:url(#Adobe_OpacityMaskFilter);}
	.st14{filter:url(#Adobe_OpacityMaskFilter_1_);}
	.st15{mask:url(#SVGID_5_);fill:url(#SVGID_6_);}
	.st16{fill:url(#SVGID_7_);}
	.st17{opacity:0.34;fill:url(#SVGID_8_);}
	.st18{opacity:0.33;fill:url(#SVGID_9_);}
	.st19{opacity:0.27;fill:url(#SVGID_10_);}
	.st20{opacity:0.27;fill:url(#SVGID_11_);}
	.st21{fill:#DD3636;}
	.st22{fill:#EA5C5C;}
	.st23{fill:none;}
	.st24{fill:#F2E9DD;}
	.st25{display:none;fill:#F2EBE7;}
	.st26{display:none;fill:#32383D;}
	.st27{opacity:0.12;fill:url(#SVGID_12_);}
	.st28{display:inline;}
	.st29{fill:#0982A8;}
</style>
<g id="BACKGROUND" class="st0">
	<rect x="-76.9" y="-26" class="st1" width="500" height="500"/>
</g>
<g id="OBJECT">
	<g>
		<defs>
			<rect id="SVGID_1_" x="-76.9" y="-26" width="500" height="500"/>
		</defs>
		<clipPath id="SVGID_2_">
			<use xlink:href="#SVGID_1_"  style="overflow:visible;"/>
		</clipPath>
		<g class="st2">
			<path class="st3" d="M213.1,279.5c-3.9,2.5-6.1,11.2-7.4,15.4c-1.4,4.4-3.5,9.6-3.7,14.2c-0.2,3.2,0.6,8.5,3.7,10.2
				c4.7,2.5,14.7,1.5,18.9-1.5c8.1-5.7,11.8-15.7,18-23c2.7-3.2,4.5-8.1,7.8-10.9c1.8-1.5,4.9-1.9,7.2-2.1c2.7-0.2,4.6,0.8,7.1,2
				c2.5,1.2,15.1,10.4,16.9,12.6c0.9,1.1,3.6,13.5,3.9,14.9c0.8,3.2-8.4-11-7.2-7.9c1.7,4.5,3.8,8.8,5.9,13.1
				c1.3,2.7,2.7,5.5,3.9,8.1c3.1,6.7,9.1,11.8,13.9,17.3c7.2,8.3,15,16,24.3,21.8c8.1,5.1,21.4,13.3,30.9,7.5
				c5.9-3.6,12.8-11.2,14.4-18.3c0.2-0.8,0.2-2.3-0.1-3.1c-0.6-1.4-2.5-2.6-3.5-3.7c-1.6-1.7,11.4,5.7,9.9,3.8
				c-9.3-11.5-22.7-31.1-36.9-48c-10.7-12.9-12-14-21.9-27.5c-2-2.7-7.8-9.6-14.6-13.1c-2.3-1.2-5-3.3-7.6-3.4
				c-8.5-0.2-16.3-2.8-24.5-4.7c-5.5-1.2-10.6-2-15.9-4.2c-2.7-1.1-5.5-2.3-8.5-3.4c-3-1-6.9-1.9-9.8-0.7c-3.8,1.6-6.5,6.6-8.8,9.8
				c-3.7,5.2-8,9.8-11.5,15.2C216.6,271.9,212.6,275.9,213.1,279.5z"/>
			<g>
				<defs>
					<path id="SVGID_3_" d="M219.3,273c-4.1,2.1-7.3,10.5-9,14.5c-1.8,4.3-4.5,9.1-5.2,13.8c-0.5,3.2-0.3,8.5,2.6,10.5
						c4.4,3,14.4,3,19,0.5c8.6-4.8,13.4-14.4,20.3-20.9c3.1-2.9,5.4-7.6,8.9-10c1.9-1.3,5.1-1.4,7.4-1.3c2.7,0.1,4.5,1.3,6.9,2.7
						c2.4,1.4,13.9,12,15.5,14.3c0.8,1.2,2.2,13.8,2.3,15.2c0.4,3.2-7.2-11.8-6.4-8.6c1.2,4.7,2.8,9.1,4.5,13.7c1,2.8,2.1,5.7,3,8.5
						c2.3,7,7.8,12.7,12,18.7c6.3,9,13.3,17.5,21.9,24.2c7.5,5.9,19.9,15.5,29.9,10.7c6.3-3,13.9-9.8,16.3-16.7
						c0.3-0.7,0.4-2.3,0.2-3.1c-0.4-1.4-2.2-2.9-3.1-4c-1.4-1.9,10.8,6.8,9.4,4.8c-8.1-12.5-19.3-33.3-31.6-51.6
						c-9.3-13.9-10.5-15.2-18.8-29.6c-1.7-2.9-6.8-10.3-13.2-14.6c-2.1-1.4-4.7-3.9-7.2-4.2c-8.4-1.1-16-4.5-23.9-7.2
						c-5.3-1.8-10.3-3.1-15.3-5.8c-2.6-1.4-5.2-2.9-8.1-4.3c-2.9-1.3-6.7-2.6-9.6-1.7c-4,1.2-7.1,5.9-9.8,8.8
						c-4.3,4.7-9,8.9-13,13.9C223.6,265.9,219.1,269.4,219.3,273z"/>
				</defs>
				<clipPath id="SVGID_4_">
					<use xlink:href="#SVGID_3_"  style="overflow:visible;"/>
				</clipPath>
				<g class="st4">
					<path class="st5" d="M260.1,281c-0.1-3.8-1.1-7.3,0.4-11c1.2-3.1,3.8-5.5,6.3-7.6c0.7,3.3-2.3,7.7-3,11
						c-0.8,3.7-0.5,7.4-0.7,11.2C262.2,284.4,261.6,284,260.1,281z"/>
					<path class="st5" d="M283.2,299.4c-0.6-4.2,6.6-9.5,9.6-11.2c3.4-1.8,6.9-2.3,10.6-2.7c-0.6,1.8-4.3,1.9-5.9,2.8
						c-2.8,1.6-6.6,5.3-8.5,8c-1,1.4-1.3,3.2-2.6,4.2C284.5,302,284.1,300.9,283.2,299.4z"/>
					<path class="st6" d="M230.6,249.8c2.1-1,5.9-2.1,8.4-1.6c3.4,0.6,4.4,4,6.2,7.2c2.9,5.1,5.7,14.8,11.6,17.5
						c3.9,1.8,8.7,1.6,12.7,2.8c4.4,1.3,10.7,4.7,14.1,7.8c4,3.6,6,10.3,8.7,15.1c3.7,6.4,8.5,12.2,12.1,18.6
						c3.3,5.9,5.5,14.9,3.2,21.5c-1.6-0.7-3-2.3-4.2-3.4c-5-4.6-10.2-8.8-15.2-13.4c-10.2-9.1-20-18.6-30.2-27.8
						c-6.2-5.6-13.2-12.3-16.7-20.1c-1.8-4-3-8.1-5.3-11.8c-1.4-2.2-2.1-5-3.4-7"/>
				</g>
			</g>
			<path class="st7" d="M270.1,398.7c0.9,3.9,1.2,7.9,4.1,10.9c3.3,3.5,8.7,4.3,13.2,5.4c10.1,2.5,20,3.5,30.2,0.1
				c2.6-0.9,7.5-2.4,7.9-5.7c0.6-4.4-7-10-10-12.1C301.4,388,286.3,391.1,270.1,398.7z"/>
			<path class="st8" d="M263.8,403.4c1.8,2.5,7,1.4,9.5,1.6c6.3,0.3,13,0.6,19.1,1.8c5.5,1.1,10.9,2.6,16.4,2.7
				c2.8,0,6.3-0.4,7.1-3.4c1-3.6-3.2-8.7-5.1-11.3c-6.9-9.6-31.6-25.7-42.7-20.2C261.2,377.9,260.9,394.6,263.8,403.4z"/>
			<path class="st9" d="M240.6,310c0.8,3.7-0.6,19.1-0.8,22.9c-0.3,6.3-0.3,12.4-0.1,18.7c0.1,5.2,0.6,10.4,0.9,15.6
				c0.2,3.2-0.1,6.4,0.5,9.5c0.7,4,3.3,4.9,6.8,6.7c9,4.5,19.4,7.9,29.2,10.4c3.9,1,9.1,1.9,13-0.1c6.1-3.2,6.6-9.7,5.5-15.7
				c-2.7-13.7-10.8-27-20.4-37c-8-8.3-16.6-17.3-26.9-22.5"/>
			<path class="st10" d="M271.8,374.5c-0.8,3.5-3.1,11-1.2,14.6c1.8,3.3,9.5,4.2,12.8,4.2c4,0.1,8-0.6,8.9-5.2
				C293.9,379.7,281,372.8,271.8,374.5z"/>
			<g>
				<g>
					<path class="st11" d="M132.7,17.5C64.6,17.5,9.4,72.8,9.4,140.9s55.2,123.4,123.4,123.4S256.1,209,256.1,140.9
						S200.9,17.5,132.7,17.5z M132.7,248.7c-59.6,0-107.9-48.3-107.9-107.9C24.9,81.3,73.2,33,132.7,33s107.9,48.3,107.9,107.9
						C240.6,200.5,192.3,248.7,132.7,248.7z"/>
					<g>
						<g>
							<path class="st12" d="M132.9,32.2c-59.8,0-108.3,48.5-108.3,108.3c0,59.8,48.5,108.3,108.3,108.3
								c59.8,0,108.3-48.5,108.3-108.3C241.1,80.6,192.7,32.2,132.9,32.2z M133.1,246.8c-58.8,0-106.4-47.6-106.4-106.4
								C26.7,81.7,74.3,34,133.1,34c58.8,0,106.4,47.6,106.4,106.4C239.5,199.2,191.9,246.8,133.1,246.8z"/>
							<defs>
								<filter id="Adobe_OpacityMaskFilter" filterUnits="userSpaceOnUse" x="24.6" y="32.2" width="216.5" height="216.5">
									<feFlood  style="flood-color:white;flood-opacity:1" result="back"/>
									<feBlend  in="SourceGraphic" in2="back" mode="normal"/>
								</filter>
							</defs>
							<mask maskUnits="userSpaceOnUse" x="24.6" y="32.2" width="216.5" height="216.5" id="SVGID_5_">
								<g class="st13">
									<defs>
										<filter id="Adobe_OpacityMaskFilter_1_" filterUnits="userSpaceOnUse" x="24.6" y="32.2" width="216.5" height="216.5">
											<feFlood  style="flood-color:white;flood-opacity:1" result="back"/>
											<feBlend  in="SourceGraphic" in2="back" mode="normal"/>
										</filter>
									</defs>
									<mask maskUnits="userSpaceOnUse" x="24.6" y="32.2" width="216.5" height="216.5" id="SVGID_5_">
										<g class="st14">
										</g>
									</mask>
									<linearGradient id="SVGID_6_" gradientUnits="userSpaceOnUse" x1="64.2415" y1="221.76" x2="252.8218" y2="-1.6602">
										<stop  offset="0" style="stop-color:#FFFFFF"/>
										<stop  offset="1" style="stop-color:#000000"/>
									</linearGradient>
									<path class="st15" d="M132.9,32.2c-59.8,0-108.3,48.5-108.3,108.3c0,59.8,48.5,108.3,108.3,108.3
										c59.8,0,108.3-48.5,108.3-108.3C241.1,80.6,192.7,32.2,132.9,32.2z M133.1,246.8c-58.8,0-106.4-47.6-106.4-106.4
										C26.7,81.7,74.3,34,133.1,34c58.8,0,106.4,47.6,106.4,106.4C239.5,199.2,191.9,246.8,133.1,246.8z"/>
								</g>
							</mask>
							<linearGradient id="SVGID_7_" gradientUnits="userSpaceOnUse" x1="64.2415" y1="221.76" x2="252.8218" y2="-1.6602">
								<stop  offset="0" style="stop-color:#FFFFFF"/>
								<stop  offset="1" style="stop-color:#FFFFFF"/>
							</linearGradient>
							<path class="st16" d="M132.9,32.2c-59.8,0-108.3,48.5-108.3,108.3c0,59.8,48.5,108.3,108.3,108.3
								c59.8,0,108.3-48.5,108.3-108.3C241.1,80.6,192.7,32.2,132.9,32.2z M133.1,246.8c-58.8,0-106.4-47.6-106.4-106.4
								C26.7,81.7,74.3,34,133.1,34c58.8,0,106.4,47.6,106.4,106.4C239.5,199.2,191.9,246.8,133.1,246.8z"/>
							<linearGradient id="SVGID_8_" gradientUnits="userSpaceOnUse" x1="146.6533" y1="154.1414" x2="23.1741" y2="29.3345">
								<stop  offset="5.618000e-003" style="stop-color:#FFFFFF"/>
								<stop  offset="0.1487" style="stop-color:#EEE8FE"/>
								<stop  offset="0.3624" style="stop-color:#DACBFD"/>
								<stop  offset="0.5766" style="stop-color:#CBB7FC"/>
								<stop  offset="0.7896" style="stop-color:#C2ABFB"/>
								<stop  offset="1" style="stop-color:#BFA7FB"/>
							</linearGradient>
							<circle class="st17" cx="132.6" cy="140" r="106.7"/>
							<radialGradient id="SVGID_9_" cx="162.6364" cy="64.8601" r="195.111" gradientUnits="userSpaceOnUse">
								<stop  offset="5.618000e-003" style="stop-color:#FFFFFF"/>
								<stop  offset="9.586882e-002" style="stop-color:#FAF8F5"/>
								<stop  offset="0.2503" style="stop-color:#EDE4DA"/>
								<stop  offset="0.4503" style="stop-color:#D8C4AD"/>
								<stop  offset="0.6882" style="stop-color:#BB976F"/>
								<stop  offset="0.9552" style="stop-color:#965F22"/>
								<stop  offset="1" style="stop-color:#8F5514"/>
							</radialGradient>
							<circle class="st18" cx="138.7" cy="146.8" r="97.4"/>
						</g>
						<linearGradient id="SVGID_10_" gradientUnits="userSpaceOnUse" x1="71.2542" y1="72.1972" x2="67.3913" y2="89.6385">
							<stop  offset="2.424240e-002" style="stop-color:#FFFFFF"/>
							<stop  offset="1" style="stop-color:#FFFFFF"/>
						</linearGradient>
						<path class="st19" d="M72.6,69.8c-3.3,2.7-10.2,8.9-16.9,18.8l10,5.8C74,82.9,82.2,76.7,82.2,76.7L72.6,69.8z"/>
						<linearGradient id="SVGID_11_" gradientUnits="userSpaceOnUse" x1="57.3231" y1="101.4187" x2="44.9591" y2="157.2438">
							<stop  offset="2.424240e-002" style="stop-color:#FFFFFF"/>
							<stop  offset="1" style="stop-color:#FFFFFF"/>
						</linearGradient>
						<path class="st20" d="M53.5,91.9c-0.6,1-1.3,2.1-1.9,3.2c-8.9,15.8-17.4,41.9-8.7,77.8l10-0.6c-10.1-32.7-0.4-58.2,10.5-74.7
							L53.5,91.9z"/>
					</g>
				</g>
				<g>
					
						<rect x="234.2" y="218.9" transform="matrix(0.7832 -0.6218 0.6218 0.7832 -121.9761 216.8138)" class="st11" width="31.4" height="128.8"/>
					
						<rect x="285.9" y="256.4" transform="matrix(0.7832 -0.6218 0.6218 0.7832 -152.2847 266.9653)" class="st21" width="41.5" height="190.8"/>
					
						<rect x="295.1" y="266" transform="matrix(0.7832 -0.6218 0.6218 0.7832 -154.8899 265.3149)" class="st22" width="15.8" height="177.6"/>
				</g>
			</g>
			<path class="st6" d="M260.1,359.2c-2.9,0.2-7.1,4.7-8.5,7.1c-1.2,1.9-2.1,4-1.6,6.3c1.8,0.6,3.5-2.7,4.8-3.8
				c1.9-1.5,5.2-3.6,7.3-2.4c0.9,0.5,1.7,2.7,2.4,3.6c1.1,1.5,2.4,3,3.7,4.4c1.8,1.9,3.7,4.1,5.8,5.6c2.9,2.1,6.4,3.9,9.7,5.3
				c0.2-1.6-0.8-3.3-1.4-4.8c-2.3-5.5-5.5-10.7-8.7-15.8c-5.3-8.4-10.4-17.4-17-24.9c-2.2-2.5-4.7-4.8-6.2-7.8
				c-0.7-1.4-1.3-2.8-2.2-4c-2.2,7.2,0.2,18,3.9,24.2c1,1.8,2.6,3.1,3.7,4.8C256.6,358.2,256.8,359.5,260.1,359.2z"/>
			<path class="st3" d="M247.2,343.5c-6.4-13.7-9.1-19.5,5.1-27.4c12.3-6.8,20.5,3.5,29.8,12.4c14.7,14,17.3,27.3,37.6,34
				c16.7,5.5,31.8-21.4,48.3-25.7c8.7,13.1,34.9,38.7,37.6,54c1.5,8.6-3.1,8.5-10.1,14.7c-12.4,11-29.9,29.1-46,34
				c-6.6,2-6.8,0.6-13.5-1.3c-24.5-7.2-29.3-30-41.3-42.2c-11-11.2-21.5-19-30.8-31.5C259.3,358.5,252.8,352.7,247.2,343.5z"/>
			<g>
				<path class="st10" d="M256.1,347.5c-1.6,0-3.1-1.1-3.6-2.6c-1.3-3.4-4.5-7-5.5-10.3c-0.7-2.5-1.8-6.5-1.4-9.1
					c0.8-5.1,7.7-7.3,11.7-8.1c6.7-1.3,11.6,4.1,16.2,8.2c4.5,4,5.2,8.2,2.1,12.8C272.1,343.5,264.1,347.5,256.1,347.5z"/>
				<g>
					<path class="st23" d="M256.3,347.5c0.7-3.4,0.7-6.3,3.9-9.1c4-3.4,11-5.6,16.3-5.5c0.3,0,0.6,0,1,0.1c0-2.6-1.3-5.1-4-7.5
						c-4.6-4.1-9.5-9.5-16.2-8.2c-4,0.8-10.9,3-11.7,8.1c-0.4,2.6,0.7,6.6,1.4,9.1c1,3.3,4.2,6.9,5.5,10.3c0.6,1.5,2,2.6,3.6,2.6
						C256.2,347.5,256.3,347.5,256.3,347.5z"/>
					<path class="st24" d="M260.3,338.4c-3.2,2.8-3.3,5.7-3.9,9.1c7.9,0,15.8-4.1,19.3-9.2c1.2-1.8,1.9-3.6,1.9-5.3
						c-0.3-0.1-0.7-0.1-1-0.1C271.3,332.8,264.2,335,260.3,338.4z"/>
				</g>
			</g>
			<path class="st25" d="M409.8,388.2c-13,10.3-26.8,19.5-40.2,29.2c-8.6,6.3-16.2,13.8-24.5,20.1c-2.1,1.6-7.6,4.7-7.7,7
				c0,1,3.5,5.1,4,5.8c1.7,2.2,3.6,4.4,5.3,6.6c2.3-0.5,4.6-2.8,6.6-4.1c5.6-3.5,11.5-6.8,17.2-10.2c8.9-5.3,16.6-11.5,24.4-18.1
				c7.7-6.4,16-12.5,24.1-18.1c3-2.1,5.2-3,4.5-6.4C422.5,394.7,417.2,390.2,409.8,388.2z"/>
			<path class="st26" d="M340,459c3.9-4.3,10.5-7.7,15.1-11.5c7.1-5.8,13.9-11.8,20.6-18.1c4.8-4.5,9.5-9.3,14.8-13.3
				c3.4-2.6,7.1-4.7,10.3-7.4c4.5-3.8,9.6-7,14.1-10.9c2.5-2.1,5-4.9,7.8-6.5c8.5,13.6,18.5,25.8,28.8,38.1
				c6.5,7.7,12.6,15.5,18.6,23.6c3.2,4.4,5.7,10.1,9.4,14c-2.9,2-5.4,4.5-8.2,6.6c-6.9,5.2-14.8,9.4-22,14.1
				c-15.8,10.2-31.8,20.1-48.9,28c-3.6,1.7-9.2,5.6-13.2,6.2c-2.9,0.4-2.9-0.4-4.9-3.1c-10.2-13.6-16-30.1-26.3-43.8
				c-2.9-3.8-6.2-8.1-9.3-11.6C345.7,462.2,344.2,461.5,340,459z"/>
			
				<linearGradient id="SVGID_12_" gradientUnits="userSpaceOnUse" x1="57.2333" y1="171.4822" x2="227.768" y2="171.4822" gradientTransform="matrix(0.9432 -0.3323 0.3323 0.9432 -48.3499 55.8187)">
				<stop  offset="2.424240e-002" style="stop-color:#FFFFFF"/>
				<stop  offset="1" style="stop-color:#FFFFFF"/>
			</linearGradient>
			<path class="st27" d="M185.1,83.3c0.6,1.4,1.2,2.9,1.7,4.4c15.7,44.5-7.7,93.2-52.1,108.8c-26.6,9.4-54.6,4.8-76.3-9.9
				c17.2,41.6,64.2,62.9,107.2,47.8c44.5-15.7,67.8-64.4,52.1-108.8C211.4,107.6,199.7,93.2,185.1,83.3z"/>
		</g>
	</g>
</g>
<g id="DESIGNED_BY_FREEPIK" class="st0">
	<g id="XMLID_76_" class="st28">
		<g id="XMLID_929_">
			<path id="XMLID_958_" class="st29" d="M104.4,434.8c-0.2,0-0.4,0.1-0.5,0.2c-0.1,0.2-0.2,0.4-0.2,0.7v2.3
				c-0.3-0.3-0.6-0.6-0.9-0.7c-0.3-0.2-0.7-0.2-1.1-0.2c-0.8,0-1.4,0.3-1.9,0.8c-0.5,0.5-0.7,1.3-0.7,2.3c0,0.5,0.1,0.9,0.2,1.3
				c0.1,0.4,0.3,0.7,0.5,1c0.2,0.3,0.5,0.5,0.8,0.7c0.3,0.2,0.7,0.2,1,0.2c0.3,0,0.5,0,0.8-0.1c0.2-0.1,0.5-0.2,0.7-0.3
				c0.2-0.1,0.4-0.3,0.6-0.6v0.2c0,0.3,0.1,0.5,0.2,0.7c0.1,0.2,0.3,0.2,0.5,0.2c0.2,0,0.4-0.1,0.5-0.2c0.1-0.1,0.2-0.4,0.2-0.7
				v-6.9c0-0.3-0.1-0.5-0.2-0.7C104.8,434.9,104.6,434.8,104.4,434.8z M103.4,441.4c-0.1,0.3-0.3,0.5-0.5,0.7
				c-0.2,0.1-0.5,0.2-0.8,0.2c-0.3,0-0.5-0.1-0.7-0.2c-0.2-0.1-0.4-0.4-0.5-0.7c-0.1-0.3-0.2-0.7-0.2-1.1c0-0.4,0.1-0.8,0.2-1.1
				c0.1-0.3,0.3-0.5,0.5-0.7c0.2-0.2,0.5-0.2,0.8-0.2c0.3,0,0.5,0.1,0.8,0.2c0.2,0.2,0.4,0.4,0.5,0.7c0.1,0.3,0.2,0.7,0.2,1.1
				C103.6,440.7,103.5,441.1,103.4,441.4z"/>
			<path id="XMLID_954_" class="st29" d="M111.5,440.5c0.2-0.1,0.3-0.4,0.3-0.8c0-0.4-0.1-0.8-0.3-1.2c-0.2-0.4-0.5-0.7-1-1
				c-0.4-0.3-1-0.4-1.6-0.4c-0.5,0-0.9,0.1-1.3,0.2c-0.4,0.2-0.7,0.4-1,0.6c-0.3,0.3-0.5,0.6-0.6,1c-0.1,0.4-0.2,0.8-0.2,1.3
				c0,1,0.3,1.8,0.8,2.3c0.6,0.6,1.3,0.9,2.3,0.9c0.4,0,0.8-0.1,1.2-0.2c0.3-0.1,0.6-0.3,0.8-0.4c0.2-0.2,0.4-0.4,0.5-0.5
				c0.1-0.2,0.2-0.4,0.2-0.5c0-0.2,0-0.3-0.1-0.4c-0.1-0.1-0.2-0.1-0.4-0.1c-0.1,0-0.3,0-0.3,0.1c-0.2,0.2-0.4,0.3-0.5,0.4
				c-0.1,0.1-0.3,0.2-0.4,0.3c-0.1,0.1-0.3,0.2-0.4,0.2c-0.2,0-0.3,0.1-0.5,0.1c-0.3,0-0.5-0.1-0.8-0.2c-0.2-0.1-0.4-0.3-0.6-0.6
				c-0.1-0.3-0.2-0.6-0.2-0.9h3C110.9,440.7,111.3,440.6,111.5,440.5z M107.5,439.8c0.1-0.5,0.2-0.9,0.5-1.2c0.2-0.3,0.6-0.4,1-0.4
				c0.4,0,0.7,0.1,1,0.4c0.2,0.3,0.4,0.7,0.4,1.2H107.5z"/>
			<path id="XMLID_952_" class="st29" d="M116.7,440.1c-0.3-0.2-0.7-0.3-1.2-0.4c-0.4-0.1-0.7-0.2-1-0.3c-0.2-0.1-0.4-0.2-0.6-0.3
				c-0.1-0.1-0.2-0.2-0.2-0.4c0-0.2,0.1-0.3,0.3-0.4c0.2-0.1,0.4-0.2,0.7-0.2c0.3,0,0.5,0,0.7,0.1c0.2,0.1,0.3,0.2,0.4,0.4
				c0.1,0.2,0.3,0.3,0.4,0.4c0.1,0.1,0.2,0.1,0.4,0.1c0.2,0,0.4-0.1,0.5-0.2c0.1-0.1,0.2-0.3,0.2-0.4c0-0.2-0.1-0.3-0.2-0.5
				c-0.1-0.2-0.3-0.3-0.5-0.5c-0.2-0.1-0.5-0.3-0.8-0.3c-0.3-0.1-0.7-0.1-1.1-0.1c-0.5,0-1,0.1-1.3,0.2c-0.4,0.2-0.6,0.4-0.8,0.7
				c-0.2,0.3-0.3,0.6-0.3,0.9c0,0.3,0.1,0.6,0.3,0.9c0.2,0.2,0.5,0.4,0.8,0.6c0.3,0.1,0.8,0.3,1.3,0.4c0.5,0.1,0.8,0.2,1,0.4
				c0.2,0.1,0.3,0.3,0.3,0.6c0,0.2-0.1,0.3-0.3,0.5c-0.2,0.1-0.5,0.2-0.8,0.2c-0.4,0-0.7-0.1-0.9-0.2c-0.2-0.1-0.4-0.3-0.6-0.6
				c-0.1-0.1-0.2-0.3-0.3-0.3c-0.1-0.1-0.2-0.1-0.4-0.1c-0.2,0-0.3,0.1-0.5,0.2c-0.1,0.1-0.2,0.3-0.2,0.4c0,0.3,0.1,0.5,0.3,0.8
				c0.2,0.3,0.5,0.5,0.9,0.6c0.4,0.2,0.9,0.3,1.4,0.3c0.6,0,1.1-0.1,1.5-0.2c0.4-0.2,0.7-0.4,0.9-0.7c0.2-0.3,0.3-0.7,0.3-1.1
				c0-0.3-0.1-0.5-0.2-0.8C117.2,440.4,117,440.2,116.7,440.1z"/>
			<path id="XMLID_950_" class="st29" d="M119.2,437.1c-0.2,0-0.4,0.1-0.6,0.2c-0.1,0.2-0.2,0.4-0.2,0.7v4.5c0,0.3,0.1,0.5,0.2,0.7
				c0.1,0.2,0.3,0.2,0.6,0.2c0.2,0,0.4-0.1,0.6-0.2c0.1-0.2,0.2-0.4,0.2-0.7V438c0-0.3-0.1-0.5-0.2-0.7
				C119.6,437.2,119.4,437.1,119.2,437.1z"/>
			<path id="XMLID_949_" class="st29" d="M119.2,434.9c-0.2,0-0.4,0.1-0.6,0.2c-0.2,0.1-0.2,0.3-0.2,0.5c0,0.2,0.1,0.4,0.2,0.6
				c0.2,0.1,0.3,0.2,0.6,0.2c0.2,0,0.4-0.1,0.5-0.2c0.2-0.1,0.2-0.3,0.2-0.6c0-0.2-0.1-0.4-0.2-0.6
				C119.6,434.9,119.4,434.9,119.2,434.9z"/>
			<path id="XMLID_945_" class="st29" d="M126.1,437.1c-0.2,0-0.4,0.1-0.5,0.2c-0.1,0.1-0.2,0.4-0.2,0.6v0.2
				c-0.3-0.4-0.6-0.6-0.9-0.8c-0.3-0.2-0.7-0.3-1.1-0.3c-0.4,0-0.7,0.1-1,0.2c-0.3,0.1-0.6,0.3-0.8,0.6c-0.2,0.3-0.4,0.6-0.5,1
				c-0.1,0.4-0.2,0.8-0.2,1.3c0,0.6,0.1,1.2,0.3,1.7c0.2,0.5,0.5,0.9,0.9,1.1c0.4,0.3,0.8,0.4,1.4,0.4c0.4,0,0.8-0.1,1.1-0.3
				c0.3-0.2,0.6-0.4,0.8-0.8c0,0.5,0,0.9,0,1.1c0,0.2-0.1,0.4-0.2,0.6c-0.1,0.2-0.2,0.4-0.5,0.5c-0.2,0.1-0.5,0.2-0.9,0.2
				c-0.2,0-0.4,0-0.5-0.1c-0.2,0-0.3-0.1-0.4-0.2c-0.1-0.1-0.2-0.2-0.3-0.3c-0.1-0.1-0.2-0.2-0.3-0.3c-0.2-0.2-0.4-0.3-0.6-0.3
				c-0.2,0-0.3,0.1-0.5,0.2c-0.1,0.1-0.2,0.3-0.2,0.5c0,0.3,0.1,0.5,0.3,0.7c0.2,0.2,0.6,0.4,1,0.6c0.4,0.2,0.9,0.2,1.4,0.2
				c0.6,0,1.1-0.1,1.5-0.2c0.4-0.1,0.7-0.3,1-0.5c0.2-0.2,0.4-0.6,0.5-0.9c0.1-0.4,0.2-0.8,0.2-1.3v-4.5c0-0.4,0-0.7-0.1-0.8
				C126.6,437.2,126.4,437.1,126.1,437.1z M125.1,441.3c-0.1,0.3-0.3,0.5-0.6,0.6c-0.2,0.1-0.5,0.2-0.7,0.2c-0.4,0-0.8-0.2-1.1-0.5
				c-0.3-0.3-0.4-0.8-0.4-1.4c0-0.6,0.1-1.1,0.4-1.4c0.3-0.3,0.6-0.5,1.1-0.5c0.5,0,0.8,0.2,1.1,0.5c0.3,0.4,0.4,0.8,0.4,1.5
				C125.3,440.7,125.2,441,125.1,441.3z"/>
			<path id="XMLID_944_" class="st29" d="M133.1,438.1c-0.2-0.3-0.4-0.6-0.7-0.8c-0.3-0.2-0.7-0.3-1.1-0.3c-0.4,0-0.8,0.1-1.1,0.3
				c-0.3,0.2-0.6,0.4-0.9,0.8V438c0-0.2,0-0.3-0.1-0.5c-0.1-0.1-0.2-0.2-0.3-0.3c-0.1-0.1-0.2-0.1-0.4-0.1c-0.2,0-0.4,0.1-0.5,0.2
				c-0.1,0.1-0.2,0.4-0.2,0.7v4.5c0,0.3,0.1,0.5,0.2,0.7c0.1,0.2,0.3,0.2,0.6,0.2c0.2,0,0.4-0.1,0.6-0.2c0.1-0.2,0.2-0.4,0.2-0.7v-2
				c0-0.6,0-1.1,0.1-1.3c0.1-0.3,0.3-0.5,0.5-0.7c0.2-0.2,0.5-0.2,0.8-0.2c0.4,0,0.7,0.1,0.9,0.4c0.1,0.3,0.2,0.7,0.2,1.2v2.6
				c0,0.3,0.1,0.5,0.2,0.7c0.1,0.2,0.3,0.2,0.6,0.2c0.2,0,0.4-0.1,0.6-0.2c0.1-0.2,0.2-0.4,0.2-0.7v-2.9c0-0.3,0-0.6,0-0.8
				C133.3,438.5,133.2,438.3,133.1,438.1z"/>
			<path id="XMLID_939_" class="st29" d="M139.7,440.5c0.2-0.1,0.3-0.4,0.3-0.8c0-0.4-0.1-0.8-0.3-1.2c-0.2-0.4-0.5-0.7-1-1
				c-0.4-0.3-1-0.4-1.6-0.4c-0.5,0-0.9,0.1-1.3,0.2c-0.4,0.2-0.7,0.4-1,0.6c-0.3,0.3-0.5,0.6-0.6,1c-0.1,0.4-0.2,0.8-0.2,1.3
				c0,1,0.3,1.8,0.8,2.3c0.6,0.6,1.3,0.9,2.3,0.9c0.4,0,0.8-0.1,1.2-0.2c0.3-0.1,0.6-0.3,0.8-0.4c0.2-0.2,0.4-0.4,0.5-0.5
				c0.1-0.2,0.2-0.4,0.2-0.5c0-0.2,0-0.3-0.1-0.4c-0.1-0.1-0.2-0.1-0.4-0.1c-0.1,0-0.3,0-0.3,0.1c-0.2,0.2-0.4,0.3-0.5,0.4
				c-0.1,0.1-0.3,0.2-0.4,0.3c-0.1,0.1-0.3,0.2-0.4,0.2c-0.2,0-0.3,0.1-0.5,0.1c-0.3,0-0.5-0.1-0.8-0.2c-0.2-0.1-0.4-0.3-0.6-0.6
				c-0.1-0.3-0.2-0.6-0.2-0.9h3C139.2,440.7,139.5,440.6,139.7,440.5z M135.7,439.8c0.1-0.5,0.2-0.9,0.5-1.2c0.2-0.3,0.6-0.4,1-0.4
				c0.4,0,0.7,0.1,1,0.4c0.2,0.3,0.4,0.7,0.4,1.2H135.7z"/>
			<path id="XMLID_936_" class="st29" d="M145.9,434.8c-0.2,0-0.4,0.1-0.5,0.2c-0.1,0.2-0.2,0.4-0.2,0.7v2.3
				c-0.3-0.3-0.6-0.6-0.9-0.7c-0.3-0.2-0.7-0.2-1.1-0.2c-0.8,0-1.4,0.3-1.9,0.8c-0.5,0.5-0.7,1.3-0.7,2.3c0,0.5,0.1,0.9,0.2,1.3
				c0.1,0.4,0.3,0.7,0.5,1c0.2,0.3,0.5,0.5,0.8,0.7c0.3,0.2,0.7,0.2,1,0.2c0.3,0,0.5,0,0.8-0.1c0.2-0.1,0.5-0.2,0.7-0.3
				c0.2-0.1,0.4-0.3,0.6-0.6v0.2c0,0.3,0.1,0.5,0.2,0.7c0.1,0.2,0.3,0.2,0.5,0.2c0.2,0,0.4-0.1,0.5-0.2c0.1-0.1,0.2-0.4,0.2-0.7
				v-6.9c0-0.3-0.1-0.5-0.2-0.7C146.3,434.9,146.1,434.8,145.9,434.8z M144.8,441.4c-0.1,0.3-0.3,0.5-0.5,0.7
				c-0.2,0.1-0.5,0.2-0.8,0.2c-0.3,0-0.5-0.1-0.7-0.2c-0.2-0.1-0.4-0.4-0.5-0.7c-0.1-0.3-0.2-0.7-0.2-1.1c0-0.4,0.1-0.8,0.2-1.1
				c0.1-0.3,0.3-0.5,0.5-0.7c0.2-0.2,0.5-0.2,0.8-0.2c0.3,0,0.5,0.1,0.8,0.2c0.2,0.2,0.4,0.4,0.5,0.7c0.1,0.3,0.2,0.7,0.2,1.1
				C145,440.7,145,441.1,144.8,441.4z"/>
			<path id="XMLID_933_" class="st29" d="M154.9,437.5c-0.4-0.2-0.8-0.4-1.4-0.4c-0.4,0-0.8,0.1-1.1,0.2c-0.3,0.2-0.6,0.4-0.9,0.7
				v-2.4c0-0.3-0.1-0.5-0.2-0.7c-0.1-0.2-0.3-0.2-0.6-0.2c-0.2,0-0.4,0.1-0.5,0.2c-0.1,0.2-0.2,0.4-0.2,0.7v6.8
				c0,0.3,0.1,0.5,0.2,0.7c0.1,0.2,0.3,0.2,0.5,0.2c0.2,0,0.4-0.1,0.5-0.2c0.1-0.2,0.2-0.4,0.2-0.7v-0.2c0.2,0.2,0.3,0.3,0.4,0.4
				c0.1,0.1,0.2,0.2,0.4,0.3c0.1,0.1,0.3,0.2,0.5,0.2c0.2,0.1,0.4,0.1,0.7,0.1c0.4,0,0.8-0.1,1.1-0.2c0.3-0.2,0.6-0.4,0.8-0.7
				c0.2-0.3,0.4-0.6,0.5-1c0.1-0.4,0.2-0.8,0.2-1.3c0-0.6-0.1-1.2-0.3-1.7C155.6,438.1,155.3,437.7,154.9,437.5z M154.1,441.7
				c-0.3,0.3-0.6,0.5-1,0.5c-0.5,0-0.8-0.2-1.1-0.5c-0.3-0.3-0.4-0.8-0.4-1.4c0-0.4,0.1-0.8,0.2-1.1c0.1-0.3,0.3-0.5,0.5-0.7
				c0.2-0.2,0.5-0.2,0.8-0.2c0.3,0,0.5,0.1,0.8,0.2c0.2,0.2,0.4,0.4,0.5,0.7c0.1,0.3,0.2,0.7,0.2,1.1
				C154.5,440.9,154.4,441.4,154.1,441.7z"/>
			<path id="XMLID_931_" class="st29" d="M161.5,437.2c-0.1-0.1-0.2-0.1-0.3-0.1c-0.2,0-0.3,0-0.4,0.1c-0.1,0.1-0.2,0.2-0.3,0.3
				c-0.1,0.2-0.2,0.4-0.3,0.7l-1.2,3.6l-1.3-3.8c-0.1-0.3-0.2-0.5-0.3-0.6c-0.1-0.1-0.3-0.2-0.5-0.2c-0.1,0-0.3,0-0.4,0.1
				c-0.1,0.1-0.2,0.2-0.3,0.3c-0.1,0.1-0.1,0.2-0.1,0.4c0,0.1,0.1,0.3,0.2,0.6l1.9,4.8l-0.1,0.3c-0.1,0.3-0.2,0.4-0.3,0.6
				c-0.1,0.1-0.2,0.2-0.3,0.3c-0.1,0.1-0.2,0.1-0.4,0.1c-0.1,0-0.2,0-0.3,0c-0.1,0-0.2,0-0.2,0c-0.2,0-0.4,0-0.5,0.1
				c-0.1,0.1-0.2,0.2-0.2,0.4c0,0.3,0.1,0.4,0.3,0.5c0.2,0.1,0.6,0.1,1,0.1c0.5,0,0.8-0.1,1.1-0.2c0.3-0.1,0.5-0.3,0.7-0.6
				c0.2-0.3,0.3-0.6,0.5-1.1l2-5.3c0-0.1,0.1-0.3,0.1-0.4c0-0.1,0.1-0.2,0.1-0.3c0-0.1,0-0.2-0.1-0.3
				C161.7,437.4,161.7,437.3,161.5,437.2z"/>
		</g>
		<g id="XMLID_365_">
			<g id="XMLID_380_">
				<path id="XMLID_928_" class="st29" d="M183.1,434.8c-0.5,0-0.9,0.1-1.2,0.2c-0.3,0.1-0.5,0.3-0.6,0.6c-0.1,0.3-0.2,0.7-0.2,1.2
					v0.5h-0.4c-0.5,0-0.8,0.2-0.8,0.6c0,0.2,0.1,0.3,0.2,0.4c0.1,0.1,0.3,0.2,0.5,0.2h0.4v4.1c0,0.3,0.1,0.5,0.2,0.7
					c0.1,0.2,0.3,0.2,0.6,0.2c0.2,0,0.4-0.1,0.6-0.2c0.1-0.2,0.2-0.4,0.2-0.7v-4.1h0.4c0.3,0,0.5,0,0.7-0.1c0.2-0.1,0.2-0.2,0.2-0.5
					c0-0.4-0.3-0.5-0.9-0.5h-0.4v-0.4c0-0.3,0-0.5,0.1-0.7c0.1-0.2,0.3-0.2,0.5-0.2c0.1,0,0.2,0,0.4,0c0.1,0,0.3,0,0.3,0
					c0.1,0,0.2-0.1,0.3-0.2c0.1-0.1,0.1-0.2,0.1-0.4C184.4,435,184,434.8,183.1,434.8z"/>
				<path id="XMLID_926_" class="st29" d="M188,437.4c-0.3-0.2-0.6-0.2-1-0.2c-0.3,0-0.6,0.1-0.8,0.2c-0.2,0.2-0.4,0.4-0.6,0.7
					c0-0.3-0.1-0.6-0.2-0.7c-0.1-0.2-0.3-0.2-0.6-0.2c-0.5,0-0.8,0.4-0.8,1.1v4.3c0,0.3,0.1,0.5,0.2,0.7c0.1,0.2,0.3,0.2,0.6,0.2
					c0.2,0,0.4-0.1,0.6-0.2c0.1-0.2,0.2-0.4,0.2-0.7v-1.3c0-0.5,0-0.9,0-1.2c0-0.3,0.1-0.6,0.2-0.8c0.1-0.2,0.2-0.4,0.3-0.5
					c0.1-0.1,0.3-0.2,0.6-0.2c0.2,0,0.4,0,0.6,0.1c0.2,0.1,0.4,0.1,0.4,0.1c0.2,0,0.3-0.1,0.4-0.2c0.1-0.1,0.2-0.3,0.2-0.5
					C188.5,437.7,188.4,437.5,188,437.4z"/>
				<path id="XMLID_922_" class="st29" d="M193.9,440.5c0.2-0.1,0.3-0.4,0.3-0.8c0-0.4-0.1-0.8-0.3-1.2c-0.2-0.4-0.5-0.7-1-1
					c-0.4-0.3-1-0.4-1.6-0.4c-0.5,0-0.9,0.1-1.3,0.2c-0.4,0.2-0.7,0.4-1,0.6c-0.3,0.3-0.5,0.6-0.6,1c-0.1,0.4-0.2,0.8-0.2,1.3
					c0,1,0.3,1.8,0.8,2.3c0.6,0.6,1.3,0.9,2.3,0.9c0.4,0,0.8-0.1,1.2-0.2c0.3-0.1,0.6-0.3,0.8-0.4c0.2-0.2,0.4-0.4,0.5-0.5
					c0.1-0.2,0.2-0.4,0.2-0.5c0-0.2,0-0.3-0.1-0.4c-0.1-0.1-0.2-0.1-0.4-0.1c-0.1,0-0.3,0-0.3,0.1c-0.2,0.2-0.4,0.3-0.5,0.4
					c-0.1,0.1-0.3,0.2-0.4,0.3c-0.1,0.1-0.3,0.2-0.4,0.2c-0.2,0-0.3,0.1-0.5,0.1c-0.3,0-0.5-0.1-0.8-0.2c-0.2-0.1-0.4-0.3-0.6-0.6
					c-0.1-0.3-0.2-0.6-0.2-0.9h3C193.4,440.7,193.7,440.6,193.9,440.5z M189.9,439.8c0.1-0.5,0.2-0.9,0.5-1.2c0.2-0.3,0.6-0.4,1-0.4
					c0.4,0,0.7,0.1,1,0.4c0.3,0.3,0.4,0.7,0.4,1.2H189.9z"/>
				<path id="XMLID_919_" class="st29" d="M200.4,440.5c0.2-0.1,0.3-0.4,0.3-0.8c0-0.4-0.1-0.8-0.3-1.2c-0.2-0.4-0.5-0.7-1-1
					c-0.4-0.3-1-0.4-1.6-0.4c-0.5,0-0.9,0.1-1.3,0.2c-0.4,0.2-0.7,0.4-1,0.6c-0.3,0.3-0.5,0.6-0.6,1c-0.1,0.4-0.2,0.8-0.2,1.3
					c0,1,0.3,1.8,0.8,2.3c0.6,0.6,1.3,0.9,2.3,0.9c0.4,0,0.8-0.1,1.2-0.2c0.3-0.1,0.6-0.3,0.8-0.4c0.2-0.2,0.4-0.4,0.5-0.5
					c0.1-0.2,0.2-0.4,0.2-0.5c0-0.2,0-0.3-0.1-0.4c-0.1-0.1-0.2-0.1-0.4-0.1c-0.1,0-0.3,0-0.3,0.1c-0.2,0.2-0.4,0.3-0.5,0.4
					c-0.1,0.1-0.3,0.2-0.4,0.3c-0.1,0.1-0.3,0.2-0.5,0.2c-0.2,0-0.3,0.1-0.5,0.1c-0.3,0-0.5-0.1-0.8-0.2c-0.2-0.1-0.4-0.3-0.6-0.6
					c-0.1-0.3-0.2-0.6-0.2-0.9h3C199.8,440.7,200.2,440.6,200.4,440.5z M196.4,439.8c0.1-0.5,0.2-0.9,0.5-1.2c0.3-0.3,0.6-0.4,1-0.4
					c0.4,0,0.7,0.1,1,0.4c0.2,0.3,0.4,0.7,0.4,1.2H196.4z"/>
				<path id="XMLID_390_" class="st29" d="M206.2,437.5c-0.4-0.2-0.8-0.4-1.3-0.4c-0.4,0-0.8,0.1-1.1,0.3c-0.3,0.2-0.6,0.4-0.9,0.8
					V438c0-0.3-0.1-0.5-0.2-0.7c-0.1-0.1-0.3-0.2-0.5-0.2c-0.2,0-0.4,0.1-0.5,0.2c-0.1,0.1-0.2,0.4-0.2,0.7v6.7c0,0.3,0,0.6,0.1,0.8
					c0.1,0.2,0.3,0.3,0.6,0.3c0.5,0,0.7-0.3,0.7-1v-2.3c0.3,0.3,0.6,0.6,0.9,0.8c0.3,0.2,0.7,0.3,1.1,0.3c0.4,0,0.7-0.1,1-0.2
					c0.3-0.1,0.6-0.4,0.8-0.6c0.2-0.3,0.4-0.6,0.6-1c0.1-0.4,0.2-0.8,0.2-1.3c0-0.7-0.1-1.2-0.4-1.7
					C206.9,438.1,206.6,437.7,206.2,437.5z M205.7,441.3c-0.1,0.3-0.3,0.5-0.5,0.7c-0.2,0.1-0.5,0.2-0.7,0.2c-0.4,0-0.8-0.2-1.1-0.5
					c-0.3-0.3-0.4-0.8-0.4-1.4c0-0.7,0.1-1.2,0.4-1.5c0.3-0.3,0.7-0.5,1.1-0.5c0.3,0,0.5,0.1,0.7,0.2c0.2,0.2,0.4,0.4,0.5,0.7
					c0.1,0.3,0.2,0.6,0.2,1.1C205.9,440.7,205.8,441,205.7,441.3z"/>
				<path id="XMLID_389_" class="st29" d="M209,437.1c-0.2,0-0.4,0.1-0.6,0.2c-0.1,0.2-0.2,0.4-0.2,0.7v4.5c0,0.3,0.1,0.5,0.2,0.7
					c0.1,0.2,0.3,0.2,0.6,0.2c0.2,0,0.4-0.1,0.6-0.2c0.1-0.2,0.2-0.4,0.2-0.7V438c0-0.3-0.1-0.5-0.2-0.6
					C209.4,437.2,209.2,437.1,209,437.1z"/>
				<path id="XMLID_388_" class="st29" d="M209,434.9c-0.2,0-0.4,0.1-0.5,0.2c-0.2,0.1-0.2,0.3-0.2,0.5c0,0.2,0.1,0.4,0.2,0.6
					c0.2,0.1,0.3,0.2,0.6,0.2c0.2,0,0.4-0.1,0.5-0.2c0.2-0.1,0.2-0.3,0.2-0.6c0-0.2-0.1-0.4-0.2-0.6
					C209.4,434.9,209.2,434.9,209,434.9z"/>
				<path id="XMLID_387_" class="st29" d="M216.1,441.9l-1.6-2.5l0.8-0.8c0.4-0.4,0.6-0.7,0.6-0.9c0-0.2-0.1-0.3-0.2-0.5
					c-0.1-0.1-0.3-0.2-0.5-0.2c-0.2,0-0.3,0-0.4,0.1c-0.1,0.1-0.3,0.2-0.5,0.5l-1.8,1.8v-3.8c0-0.3-0.1-0.6-0.2-0.7
					c-0.1-0.2-0.3-0.2-0.6-0.2c-0.2,0-0.4,0.1-0.6,0.3c-0.1,0.2-0.2,0.4-0.2,0.8v6.6c0,0.3,0.1,0.5,0.2,0.7c0.1,0.2,0.3,0.2,0.6,0.2
					c0.2,0,0.4-0.1,0.5-0.2c0.2-0.2,0.2-0.4,0.2-0.7v-1.2l0.8-0.8l1.4,2.3c0.2,0.3,0.3,0.5,0.4,0.6c0.1,0.1,0.3,0.2,0.4,0.2
					c0.2,0,0.4-0.1,0.5-0.2c0.1-0.1,0.2-0.3,0.2-0.6c0-0.1,0-0.2-0.1-0.3C216.3,442.3,216.2,442.1,216.1,441.9z"/>
				<path id="XMLID_386_" class="st29" d="M218.2,441.7c-0.2,0-0.4,0.1-0.6,0.3c-0.2,0.2-0.2,0.4-0.2,0.6c0,0.3,0.1,0.5,0.3,0.6
					c0.2,0.2,0.4,0.2,0.6,0.2c0.2,0,0.4-0.1,0.6-0.2c0.2-0.2,0.3-0.4,0.3-0.6c0-0.2-0.1-0.4-0.3-0.6
					C218.6,441.8,218.4,441.7,218.2,441.7z"/>
				<path id="XMLID_385_" class="st29" d="M225.3,440.8c-0.2,0-0.3,0.1-0.4,0.1c-0.1,0.1-0.2,0.2-0.3,0.4c-0.2,0.3-0.4,0.5-0.6,0.7
					c-0.2,0.1-0.5,0.2-0.8,0.2c-0.2,0-0.4,0-0.6-0.1c-0.2-0.1-0.4-0.2-0.5-0.4c-0.1-0.2-0.2-0.4-0.3-0.6c-0.1-0.2-0.1-0.5-0.1-0.8
					c0-0.6,0.1-1.1,0.4-1.5c0.3-0.4,0.7-0.5,1.1-0.5c0.3,0,0.6,0.1,0.8,0.2c0.2,0.1,0.4,0.4,0.6,0.6c0.1,0.2,0.2,0.3,0.3,0.3
					c0.1,0.1,0.2,0.1,0.3,0.1c0.2,0,0.4-0.1,0.5-0.2c0.1-0.1,0.2-0.3,0.2-0.5c0-0.2-0.1-0.4-0.2-0.6c-0.1-0.2-0.3-0.4-0.5-0.6
					c-0.2-0.2-0.5-0.3-0.9-0.5c-0.3-0.1-0.7-0.2-1.1-0.2c-0.6,0-1.2,0.1-1.7,0.4c-0.5,0.3-0.8,0.6-1.1,1.1c-0.2,0.5-0.4,1.1-0.4,1.7
					c0,0.9,0.3,1.7,0.8,2.3c0.5,0.6,1.3,0.8,2.3,0.8c0.5,0,0.9-0.1,1.2-0.2c0.4-0.1,0.7-0.3,0.9-0.5c0.2-0.2,0.4-0.4,0.5-0.6
					c0.1-0.2,0.2-0.4,0.2-0.6c0-0.2-0.1-0.3-0.2-0.5C225.6,440.9,225.5,440.8,225.3,440.8z"/>
				<path id="XMLID_382_" class="st29" d="M231.8,438c-0.3-0.3-0.6-0.5-1-0.6c-0.4-0.2-0.8-0.2-1.3-0.2c-0.5,0-0.9,0.1-1.3,0.2
					c-0.4,0.2-0.7,0.4-1,0.6c-0.3,0.3-0.5,0.6-0.6,1c-0.1,0.4-0.2,0.8-0.2,1.3c0,0.5,0.1,0.9,0.2,1.3c0.1,0.4,0.4,0.7,0.6,1
					c0.3,0.3,0.6,0.5,1,0.7c0.4,0.2,0.8,0.2,1.3,0.2c0.5,0,0.9-0.1,1.3-0.2c0.4-0.2,0.7-0.4,1-0.6c0.3-0.3,0.5-0.6,0.6-1
					c0.1-0.4,0.2-0.8,0.2-1.3c0-0.5-0.1-0.9-0.2-1.3C232.3,438.6,232.1,438.3,231.8,438z M230.7,441.8c-0.3,0.4-0.7,0.5-1.1,0.5
					c-0.3,0-0.6-0.1-0.8-0.2c-0.2-0.2-0.4-0.4-0.5-0.7c-0.1-0.3-0.2-0.7-0.2-1.1c0-0.4,0.1-0.8,0.2-1.1c0.1-0.3,0.3-0.5,0.5-0.7
					c0.2-0.2,0.5-0.2,0.8-0.2c0.5,0,0.8,0.2,1.1,0.5c0.3,0.4,0.4,0.8,0.4,1.5C231.1,440.9,231,441.4,230.7,441.8z"/>
				<path id="XMLID_381_" class="st29" d="M241.4,437.4c-0.3-0.2-0.7-0.3-1.1-0.3c-0.4,0-0.7,0.1-1,0.2c-0.3,0.2-0.6,0.4-0.8,0.7
					c-0.2-0.3-0.4-0.6-0.7-0.7c-0.3-0.2-0.6-0.2-1-0.2c-0.4,0-0.7,0.1-1,0.2c-0.3,0.1-0.6,0.4-0.9,0.7v-0.1c0-0.3-0.1-0.4-0.2-0.6
					c-0.1-0.1-0.3-0.2-0.5-0.2c-0.2,0-0.4,0.1-0.5,0.2c-0.1,0.2-0.2,0.4-0.2,0.7v4.5c0,0.3,0.1,0.6,0.2,0.7c0.2,0.2,0.3,0.2,0.6,0.2
					c0.2,0,0.4-0.1,0.6-0.2c0.1-0.2,0.2-0.4,0.2-0.7v-2.1c0-0.7,0.1-1.2,0.2-1.5c0.2-0.4,0.5-0.5,1-0.5c0.3,0,0.4,0.1,0.6,0.2
					c0.1,0.1,0.2,0.3,0.2,0.5c0,0.2,0,0.5,0,0.9v2.5c0,0.3,0.1,0.6,0.2,0.7c0.1,0.2,0.3,0.2,0.6,0.2c0.2,0,0.4-0.1,0.6-0.2
					c0.1-0.2,0.2-0.4,0.2-0.7v-2.1c0-0.7,0.1-1.1,0.2-1.4c0.1-0.2,0.2-0.4,0.4-0.5c0.2-0.1,0.4-0.2,0.6-0.2c0.3,0,0.4,0.1,0.6,0.2
					c0.1,0.1,0.2,0.3,0.2,0.5c0,0.2,0,0.5,0,0.8v2.6c0,0.3,0.1,0.6,0.2,0.7c0.2,0.2,0.3,0.2,0.6,0.2c0.2,0,0.4-0.1,0.6-0.2
					c0.1-0.2,0.2-0.4,0.2-0.7v-3c0-0.6-0.1-1-0.2-1.3C241.9,437.8,241.7,437.5,241.4,437.4z"/>
			</g>
			<g id="XMLID_366_">
				<path id="XMLID_379_" class="st29" d="M166.1,439.9C166.1,439.9,166.1,439.9,166.1,439.9C166.1,439.9,166.1,439.9,166.1,439.9z"
					/>
				<path id="XMLID_378_" class="st29" d="M166.2,440.4C166.2,440.4,166.2,440.4,166.2,440.4c0-0.1-0.1-0.3-0.1-0.4
					C166.1,440.1,166.2,440.3,166.2,440.4z"/>
				<path id="XMLID_377_" class="st29" d="M166.7,441.8C166.7,441.8,166.7,441.8,166.7,441.8C166.7,441.8,166.7,441.8,166.7,441.8z"
					/>
				<path id="XMLID_376_" class="st29" d="M166.7,441.7C166.6,441.7,166.6,441.7,166.7,441.7C166.6,441.7,166.6,441.7,166.7,441.7z"
					/>
				<path id="XMLID_375_" class="st29" d="M166.3,441c0.1,0.2,0.2,0.5,0.3,0.7C166.5,441.4,166.4,441.2,166.3,441L166.3,441z"/>
				<path id="XMLID_374_" class="st29" d="M171.4,433.4l-0.1-0.2c0.3-0.1,0.5-0.3,0.5-0.6c0-0.3-0.3-0.6-0.6-0.6
					c-0.4,0-0.6,0.3-0.6,0.6c0,0.3,0.2,0.6,0.5,0.6l0.1,0.3c-1,0.1-1.8,0.5-1.8,0.5l0.1,0.4c0.6-0.2,1.1-0.3,1.6-0.4
					c0.5,0,0.8-0.1,1.1-0.1c0.3,0,0.5,0,0.8,0.1l0.1-0.5C173,433.5,172.3,433.3,171.4,433.4z"/>
				<path id="XMLID_373_" class="st29" d="M166.3,435.8c0,0-0.5,0.4-0.8,1.2c0,0,0,0-0.1-0.1c-0.1-0.1-0.3-0.2-0.5-0.2c0,0,0,0,0,0
					c-0.1,0-0.2,0-0.3-0.1c0.1-0.1,0.1-0.2,0.1-0.2c0-0.2-0.2-0.4-0.4-0.4c-0.2,0-0.4,0.2-0.4,0.4c0,0.2,0.2,0.4,0.4,0.4
					c0,0,0.1,0,0.1,0c0.1,0.1,0.3,0.2,0.5,0.2c0.1,0,0.2,0,0.3,0.1c0.1,0.1,0.1,0.2,0.1,0.3c0,0,0,0,0,0c-0.3,0.7-0.2,1.6-0.2,1.6
					l0.6,0c0-0.3,0.1-0.9,0.2-1.3c0.3-0.9,0.7-1.4,0.7-1.4l0,0c0,0,0-0.1,0.1-0.1l-0.2-0.1L166.3,435.8z"/>
				<path id="XMLID_372_" class="st29" d="M177.7,434.5c-0.2,0-0.4,0.2-0.4,0.4c0,0,0,0.1,0,0.1c-0.1,0.1-0.2,0.3-0.2,0.5
					c0,0.1,0,0.2-0.1,0.3c-0.1,0-0.1,0.1-0.2,0.1c-0.5-0.7-1.1-1.1-1.1-1.1l-0.5,0.5c0.3,0.3,0.7,0.7,1,1.2c0.2,0.3,0.5,0.8,0.7,1.2
					l0.6-0.3c0,0-0.3-0.7-0.7-1.3c0.1,0,0.1-0.1,0.2-0.1c0.1-0.1,0.2-0.3,0.2-0.5c0-0.1,0-0.2,0.1-0.3c0.1,0.1,0.2,0.1,0.2,0.1
					c0.2,0,0.4-0.2,0.4-0.4C178.1,434.6,177.9,434.5,177.7,434.5z"/>
				<path id="XMLID_371_" class="st29" d="M176.1,440c-0.8,0.4-2.2,1-4.1,1.2c-0.7,0.1-1.4,0.1-2.1,0.1c-0.8,0-1.6-0.1-2.1-0.1
					c-0.6-0.1-1.2-0.2-1.5-0.3c0.1,0.2,0.2,0.5,0.3,0.7c0,0,0,0,0,0c0,0,0,0.1,0,0.1c0,0,0,0.1,0,0.1c0,0,0,0,0,0
					c0.2,0.3,0.4,0.7,0.6,0.9c0.9,0.9,1.7,1.1,1.8,1.1l0,0l0,0c0,0,0.8,0.3,2,0.3c1.2,0,2.3-0.2,3.4-0.7c0.8-0.4,1.6-1,2-1.6
					c0.3-0.4,0.5-0.9,0.6-1.4c0.1-0.3,0.1-0.7,0.1-1.1C177,439.5,176.6,439.7,176.1,440z"/>
				<path id="XMLID_367_" class="st29" d="M172.9,434.3c-0.3,0-0.5-0.1-0.7-0.1c-0.3,0-0.6,0-1,0.1c-0.4,0-0.9,0.2-1.5,0.4
					c-0.8,0.3-1.5,0.7-2.1,1.2l0,0c-0.1,0.1-0.3,0.2-0.5,0.5c0,0-0.4,0.6-0.7,1.4c-0.2,0.6-0.2,1.5-0.2,1.5v0c0,0.2,0,0.4,0,0.6
					c0,0,0,0,0,0c0,0,0,0.1,0,0.1c0,0.1,0,0.3,0.1,0.4c0.4,0.1,2.9,0.7,5.7,0.3c1.8-0.2,3.1-0.8,3.9-1.2c0.7-0.3,1.1-0.6,1.3-0.7
					c-0.2-0.6-0.6-1.6-1-2.2C174.9,434.9,173.6,434.4,172.9,434.3z M169.4,439.4c-0.9,0-1.7-0.8-1.7-1.7c0-0.9,0.8-1.7,1.7-1.7
					c0.9,0,1.7,0.8,1.7,1.7C171.1,438.6,170.3,439.4,169.4,439.4z M174.3,438.1c-0.6,0-1-0.5-1-1c0-0.6,0.5-1,1-1c0.6,0,1,0.5,1,1
					C175.4,437.7,174.9,438.1,174.3,438.1z"/>
			</g>
		</g>
	</g>
</g>
</svg>
