<?xml version="1.0" encoding="utf-8"?>
<!-- Generator: Adobe Illustrator 19.0.0, SVG Export Plug-In . SVG Version: 6.00 Build 0)  -->
<svg version="1.1" id="Layer_1" xmlns="http://www.w3.org/2000/svg" xmlns:xlink="http://www.w3.org/1999/xlink" x="0px" y="0px"
	 viewBox="0 0 956.9 763.5" style="enable-background:new 0 0 956.9 763.5;" xml:space="preserve">
<style type="text/css">
	.st0{fill:url(#XMLID_317_);}
	.st1{fill:url(#XMLID_318_);}
	.st2{fill:url(#XMLID_319_);}
	.st3{fill:url(#glass_1_);}
</style>
<g id="bg_1_">
	<g id="bg">
		<g id="XMLID_145_">
			<g id="XMLID_839_">
				<g id="XMLID_843_">
					<g id="XMLID_1404_">
						<path id="XMLID_1408_" d="M957.3,752.9l1.7-0.2c0.2,0,0.3,0.1,0.3,0.3c0,0.2-0.1,0.3-0.2,0.3l-1.7,0.2c-0.2,0-0.3-0.1-0.3-0.3
							C957,753.1,957.1,752.9,957.3,752.9z"/>
						<path id="XMLID_1407_" d="M954,753.3l1.7-0.2c0.2,0,0.3,0.1,0.3,0.3c0,0.2-0.1,0.3-0.3,0.3l-1.7,0.2c-0.2,0-0.3-0.1-0.3-0.3
							C953.7,753.4,953.8,753.3,954,753.3z"/>
						<path id="XMLID_1406_" d="M950.7,753.6l1.7-0.2c0.2,0,0.3,0.1,0.3,0.3c0,0.2-0.1,0.3-0.3,0.3l-1.7,0.2c-0.2,0-0.3-0.1-0.3-0.3
							S950.6,753.6,950.7,753.6z"/>
						<path id="XMLID_1405_" d="M947.4,753.9l1.7-0.2c0.2,0,0.3,0.1,0.3,0.3c0,0.2-0.1,0.3-0.3,0.3l-1.7,0.2c-0.2,0-0.3-0.1-0.3-0.3
							S947.3,753.9,947.4,753.9z"/>
					</g>
					<g id="XMLID_1399_">
						<path id="XMLID_1403_" d="M945.2,754.1l1.7-0.2c0.2,0,0.3,0.1,0.3,0.3c0,0.2-0.1,0.3-0.3,0.3l-1.7,0.2c-0.2,0-0.3-0.1-0.3-0.3
							C944.9,754.3,945,754.1,945.2,754.1z"/>
						<path id="XMLID_1402_" d="M941.9,754.4l1.7-0.1c0.2,0,0.3,0.1,0.3,0.3c0,0.2-0.1,0.3-0.3,0.3l-1.7,0.1c-0.2,0-0.3-0.1-0.3-0.3
							C941.6,754.5,941.7,754.4,941.9,754.4z"/>
						<path id="XMLID_1401_" d="M938.6,754.6l1.7-0.1c0.2,0,0.3,0.1,0.3,0.3s-0.1,0.3-0.3,0.3l-1.7,0.1c-0.2,0-0.3-0.1-0.3-0.3
							C938.3,754.8,938.5,754.6,938.6,754.6z"/>
						<path id="XMLID_1400_" d="M935.3,754.9l1.7-0.1c0.2,0,0.3,0.1,0.3,0.3c0,0.2-0.1,0.3-0.3,0.3l-1.7,0.1c-0.2,0-0.3-0.1-0.3-0.3
							C935.1,755,935.2,754.9,935.3,754.9z"/>
					</g>
					<g id="XMLID_1394_">
						<path id="XMLID_1398_" d="M933,755.1l1.7-0.1c0.2,0,0.3,0.1,0.3,0.3c0,0.2-0.1,0.3-0.3,0.3l-1.7,0.1c-0.2,0-0.3-0.1-0.3-0.3
							C932.8,755.2,932.9,755.1,933,755.1z"/>
						<path id="XMLID_1397_" d="M929.8,755.3l1.7-0.1c0.2,0,0.3,0.1,0.3,0.3c0,0.2-0.1,0.3-0.3,0.3l-1.7,0.1c-0.2,0-0.3-0.1-0.3-0.3
							C929.5,755.4,929.6,755.3,929.8,755.3z"/>
						<path id="XMLID_1396_" d="M926.5,755.4l1.7-0.1c0.2,0,0.3,0.1,0.3,0.3c0,0.2-0.1,0.3-0.3,0.3l-1.7,0.1c-0.2,0-0.3-0.1-0.3-0.3
							S926.3,755.4,926.5,755.4z"/>
						<path id="XMLID_1395_" d="M923.2,755.6l1.7-0.1c0.2,0,0.3,0.1,0.3,0.3c0,0.2-0.1,0.3-0.3,0.3l-1.7,0.1c-0.2,0-0.3-0.1-0.3-0.3
							C922.9,755.8,923,755.6,923.2,755.6z"/>
					</g>
					<g id="XMLID_1389_">
						<path id="XMLID_1393_" d="M920.9,755.7l1.7-0.1c0.2,0,0.3,0.1,0.3,0.3c0,0.2-0.1,0.3-0.3,0.3l-1.7,0.1c-0.2,0-0.3-0.1-0.3-0.3
							C920.6,755.9,920.8,755.7,920.9,755.7z"/>
						<path id="XMLID_1392_" d="M917.6,755.9c0,0,0.4,0,0.9,0c0.4,0,0.9,0,0.9,0c0.2,0,0.3,0.1,0.3,0.3c0,0.2-0.1,0.3-0.3,0.3
							c0,0-0.4,0-0.9,0c-0.4,0-0.9,0-0.9,0c-0.2,0-0.3-0.1-0.3-0.3l0,0C917.3,756,917.5,755.9,917.6,755.9z"/>
						<path id="XMLID_1391_" d="M914.3,756l1.7,0c0.2,0,0.3,0.1,0.3,0.3s-0.1,0.3-0.3,0.3l-1.7,0c-0.2,0-0.3-0.1-0.3-0.3
							C914.1,756.1,914.2,756,914.3,756z"/>
						<path id="XMLID_1390_" d="M911.1,756.1l1.7,0c0.2,0,0.3,0.1,0.3,0.3c0,0.2-0.1,0.3-0.3,0.3l-1.7,0c-0.2,0-0.3-0.1-0.3-0.3
							C910.8,756.2,910.9,756.1,911.1,756.1z"/>
					</g>
					<g id="XMLID_1384_">
						<path id="XMLID_1388_" d="M908.8,756.1l1.7,0c0.2,0,0.3,0.1,0.3,0.3c0,0.2-0.1,0.3-0.3,0.3l-1.7,0c-0.2,0-0.3-0.1-0.3-0.3
							C908.5,756.3,908.6,756.1,908.8,756.1z"/>
						<path id="XMLID_1387_" d="M905.5,756.2l1.7,0c0.2,0,0.3,0.1,0.3,0.3c0,0.2-0.1,0.3-0.3,0.3l-1.7,0c-0.2,0-0.3-0.1-0.3-0.3
							C905.2,756.3,905.3,756.2,905.5,756.2z"/>
						<path id="XMLID_1386_" d="M902.2,756.2l1.7,0c0.2,0,0.3,0.1,0.3,0.3s-0.1,0.3-0.3,0.3l-1.7,0c-0.2,0-0.3-0.1-0.3-0.3
							C901.9,756.3,902,756.2,902.2,756.2z"/>
						<path id="XMLID_1385_" d="M898.9,756.2l1.7,0c0.2,0,0.3,0.1,0.3,0.3c0,0.2-0.1,0.3-0.3,0.3l-1.7,0c-0.2,0-0.3-0.1-0.3-0.3
							S898.7,756.2,898.9,756.2z"/>
					</g>
					<g id="XMLID_1379_">
						<path id="XMLID_1383_" d="M896.6,756.2l1.7,0c0.2,0,0.3,0.1,0.3,0.3s-0.1,0.3-0.3,0.3l-1.7,0c-0.2,0-0.3-0.1-0.3-0.3
							S896.5,756.2,896.6,756.2z"/>
						<path id="XMLID_1382_" d="M893.3,756.2l1.7,0c0.2,0,0.3,0.1,0.3,0.3s-0.1,0.3-0.3,0.3l-1.7,0c-0.2,0-0.3-0.1-0.3-0.3
							C893,756.3,893.2,756.2,893.3,756.2z"/>
						<path id="XMLID_1381_" d="M890,756.1l1.7,0c0.2,0,0.3,0.1,0.3,0.3c0,0.2-0.1,0.3-0.3,0.3l-1.7,0c-0.2,0-0.3-0.1-0.3-0.3
							S889.9,756.1,890,756.1z"/>
						<path id="XMLID_1380_" d="M886.7,756l1.7,0c0.2,0,0.3,0.1,0.3,0.3c0,0.2-0.1,0.3-0.3,0.3l-1.7,0c-0.2,0-0.3-0.1-0.3-0.3
							C886.5,756.1,886.6,756,886.7,756z"/>
					</g>
					<g id="XMLID_1374_">
						<path id="XMLID_1378_" d="M884.5,756l1.7,0c0.2,0,0.3,0.1,0.3,0.3c0,0.2-0.1,0.3-0.3,0.3l-1.7,0c-0.2,0-0.3-0.1-0.3-0.3
							C884.2,756.1,884.3,756,884.5,756z"/>
						<path id="XMLID_1377_" d="M881.2,755.9l1.7,0.1c0.2,0,0.3,0.1,0.3,0.3c0,0.2-0.1,0.3-0.3,0.3l-1.7-0.1c-0.2,0-0.3-0.1-0.3-0.3
							C880.9,756,881,755.9,881.2,755.9z"/>
						<path id="XMLID_1376_" d="M877.9,755.7l1.7,0.1c0.2,0,0.3,0.1,0.3,0.3c0,0.2-0.1,0.3-0.3,0.3l-1.7-0.1c-0.2,0-0.3-0.1-0.3-0.3
							C877.6,755.8,877.7,755.7,877.9,755.7z"/>
						<path id="XMLID_1375_" d="M874.6,755.5l1.7,0.1c0.2,0,0.3,0.1,0.3,0.3c0,0.2-0.1,0.3-0.3,0.3l-1.7-0.1c-0.2,0-0.3-0.1-0.3-0.3
							C874.3,755.6,874.5,755.5,874.6,755.5z"/>
					</g>
					<g id="XMLID_1369_">
						<path id="XMLID_1373_" d="M872.3,755.4l1.7,0.1c0.2,0,0.3,0.1,0.3,0.3c0,0.2-0.1,0.3-0.3,0.3l-1.7-0.1c-0.2,0-0.3-0.1-0.3-0.3
							C872,755.5,872.2,755.3,872.3,755.4z"/>
						<path id="XMLID_1372_" d="M869,755.1c0,0,0.4,0,0.9,0.1c0.4,0,0.9,0.1,0.9,0.1c0.2,0,0.3,0.1,0.3,0.3s-0.1,0.3-0.3,0.3
							c0,0-0.4,0-0.9-0.1c-0.4,0-0.9-0.1-0.9-0.1c-0.2,0-0.3-0.2-0.3-0.3C868.7,755.2,868.9,755.1,869,755.1z"/>
						<path id="XMLID_1371_" d="M865.8,754.8l1.7,0.2c0.2,0,0.3,0.2,0.3,0.3c0,0.2-0.1,0.3-0.3,0.3l-1.7-0.2c-0.2,0-0.3-0.2-0.3-0.3
							C865.5,754.9,865.6,754.8,865.8,754.8z"/>
						<path id="XMLID_1370_" d="M862.5,754.6l1.7,0.2c0.2,0,0.3,0.2,0.3,0.3c0,0.2-0.2,0.3-0.3,0.3l-1.7-0.2c-0.2,0-0.3-0.2-0.3-0.3
							S862.3,754.5,862.5,754.6z"/>
					</g>
					<g id="XMLID_1364_">
						<path id="XMLID_1368_" d="M860.2,754.4l1.7,0.2c0.2,0,0.3,0.2,0.3,0.3s-0.2,0.3-0.3,0.3l-1.7-0.2c-0.2,0-0.3-0.2-0.3-0.3
							C859.9,754.5,860.1,754.3,860.2,754.4z"/>
						<path id="XMLID_1367_" d="M856.9,754l1.7,0.2c0.2,0,0.3,0.2,0.2,0.3c0,0.2-0.2,0.3-0.3,0.2l-1.7-0.2c-0.2,0-0.3-0.2-0.2-0.3
							S856.8,754,856.9,754z"/>
						<path id="XMLID_1366_" d="M853.7,753.6l1.7,0.2c0.2,0,0.3,0.2,0.2,0.3s-0.2,0.3-0.3,0.2l-1.7-0.2c-0.2,0-0.3-0.2-0.2-0.3
							S853.5,753.6,853.7,753.6z"/>
						<path id="XMLID_1365_" d="M850.4,753.2l1.7,0.2c0.2,0,0.3,0.2,0.2,0.3v0c0,0.2-0.2,0.3-0.3,0.2l-1.7-0.2
							c-0.2,0-0.3-0.2-0.2-0.3S850.3,753.2,850.4,753.2z"/>
					</g>
					<g id="XMLID_1359_">
						<path id="XMLID_1363_" d="M848.1,752.9c0,0,0.4,0.1,0.9,0.1c0.4,0.1,0.9,0.1,0.9,0.1c0.2,0,0.3,0.2,0.2,0.3s-0.2,0.3-0.3,0.2
							c0,0-0.4-0.1-0.9-0.1c-0.4,0-0.9-0.1-0.9-0.1c-0.2,0-0.3-0.2-0.2-0.3C847.8,753,848,752.9,848.1,752.9z"/>
						<path id="XMLID_1362_" d="M844.9,752.4l1.7,0.3c0.2,0,0.3,0.2,0.2,0.3c0,0.2-0.2,0.3-0.3,0.2l-1.7-0.3c-0.2,0-0.3-0.2-0.2-0.3
							C844.6,752.5,844.7,752.4,844.9,752.4z"/>
						<path id="XMLID_1361_" d="M841.6,751.9l1.7,0.3c0.2,0,0.3,0.2,0.2,0.3s-0.2,0.3-0.3,0.2l-1.7-0.3c-0.2,0-0.3-0.2-0.2-0.3
							C841.4,752,841.5,751.9,841.6,751.9z"/>
						<path id="XMLID_1360_" d="M838.4,751.4c0,0,0.4,0.1,0.9,0.1c0.4,0.1,0.9,0.1,0.9,0.1c0.2,0,0.3,0.2,0.2,0.3
							c0,0.2-0.2,0.3-0.3,0.2c0,0-0.4-0.1-0.9-0.1c-0.4-0.1-0.9-0.1-0.9-0.1c-0.2,0-0.3-0.2-0.2-0.3
							C838.1,751.5,838.3,751.4,838.4,751.4z"/>
					</g>
					<g id="XMLID_1354_">
						<path id="XMLID_1358_" d="M836.2,750.9l1.7,0.3c0.2,0,0.3,0.2,0.2,0.3c0,0.2-0.2,0.3-0.3,0.2l-1.7-0.3c-0.2,0-0.3-0.2-0.2-0.3
							S836,750.9,836.2,750.9z"/>
						<path id="XMLID_1357_" d="M832.9,750.3l1.7,0.3c0.2,0,0.3,0.2,0.2,0.3c0,0.2-0.2,0.3-0.3,0.2l-1.7-0.3c-0.2,0-0.3-0.2-0.2-0.3
							C832.6,750.4,832.8,750.3,832.9,750.3z"/>
						<path id="XMLID_1356_" d="M829.7,749.7l1.7,0.3c0.2,0,0.3,0.2,0.2,0.3c0,0.2-0.2,0.3-0.3,0.2l-1.7-0.3c-0.2,0-0.3-0.2-0.2-0.3
							C829.4,749.8,829.5,749.7,829.7,749.7z"/>
						<path id="XMLID_1355_" d="M826.5,749l1.7,0.4c0.2,0,0.2,0.2,0.2,0.3s-0.2,0.2-0.3,0.2l-1.7-0.4c-0.2,0-0.2-0.2-0.2-0.3
							S826.3,749,826.5,749z"/>
					</g>
					<g id="XMLID_1349_">
						<path id="XMLID_1353_" d="M824.3,748.5l1.7,0.4c0.2,0,0.2,0.2,0.2,0.3c0,0.2-0.2,0.2-0.3,0.2l-1.7-0.4c-0.2,0-0.2-0.2-0.2-0.3
							C824,748.5,824.1,748.5,824.3,748.5z"/>
						<path id="XMLID_1352_" d="M821.1,747.7l1.7,0.4c0.2,0,0.2,0.2,0.2,0.3c0,0.2-0.2,0.2-0.3,0.2l-1.7-0.4c-0.2,0-0.2-0.2-0.2-0.3
							C820.8,747.8,820.9,747.7,821.1,747.7z"/>
						<path id="XMLID_1351_" d="M817.9,746.9l1.7,0.5c0.1,0,0.2,0.2,0.2,0.3c0,0.2-0.2,0.2-0.3,0.2l-1.7-0.5c-0.1,0-0.2-0.2-0.2-0.3
							C817.6,747,817.7,746.9,817.9,746.9z"/>
						<path id="XMLID_1350_" d="M814.7,746.1l1.7,0.5c0.1,0,0.2,0.2,0.2,0.3c0,0.1-0.2,0.2-0.3,0.2l-1.7-0.5c-0.1,0-0.2-0.2-0.2-0.3
							S814.5,746,814.7,746.1z"/>
					</g>
					<g id="XMLID_1344_">
						<path id="XMLID_1348_" d="M812.5,745.5l1.7,0.5c0.1,0,0.2,0.2,0.2,0.3s-0.2,0.2-0.3,0.2l-1.7-0.5c-0.1,0-0.2-0.2-0.2-0.3
							S812.3,745.5,812.5,745.5z"/>
						<path id="XMLID_1347_" d="M809.3,744.6c0,0,0.4,0.1,0.8,0.3c0.4,0.1,0.8,0.3,0.8,0.3c0.1,0,0.2,0.2,0.2,0.3
							c0,0.1-0.2,0.2-0.4,0.2c0,0-0.4-0.1-0.8-0.3c-0.4-0.1-0.8-0.3-0.8-0.3c-0.1,0-0.2-0.2-0.2-0.4
							C809,744.6,809.2,744.5,809.3,744.6z"/>
						<path id="XMLID_1346_" d="M806.2,743.6l1.7,0.5c0.1,0,0.2,0.2,0.2,0.4s-0.2,0.2-0.4,0.2l-1.7-0.5c-0.1,0-0.2-0.2-0.2-0.4
							S806,743.6,806.2,743.6z"/>
						<path id="XMLID_1345_" d="M803.1,742.6l1.7,0.5c0.1,0,0.2,0.2,0.2,0.4c0,0.1-0.2,0.2-0.4,0.2l-1.7-0.5c-0.1,0-0.2-0.2-0.2-0.4
							C802.8,742.7,802.9,742.6,803.1,742.6z"/>
					</g>
					<g id="XMLID_1339_">
						<path id="XMLID_1343_" d="M800.9,741.9c0,0,0.4,0.1,0.8,0.3c0.4,0.1,0.8,0.3,0.8,0.3c0.1,0,0.2,0.2,0.2,0.4
							c0,0.1-0.2,0.2-0.4,0.2c0,0-0.4-0.1-0.8-0.3c-0.4-0.1-0.8-0.3-0.8-0.3c-0.1-0.1-0.2-0.2-0.2-0.4
							C800.6,741.9,800.7,741.8,800.9,741.9z"/>
						<path id="XMLID_1342_" d="M797.8,740.8l1.6,0.6c0.1,0.1,0.2,0.2,0.2,0.4c-0.1,0.1-0.2,0.2-0.4,0.2l-1.6-0.6
							c-0.1-0.1-0.2-0.2-0.2-0.4S797.6,740.7,797.8,740.8z"/>
						<path id="XMLID_1341_" d="M794.7,739.7l1.6,0.6c0.1,0.1,0.2,0.2,0.2,0.4c-0.1,0.1-0.2,0.2-0.4,0.2l-1.6-0.6
							c-0.1-0.1-0.2-0.2-0.2-0.4C794.4,739.7,794.6,739.6,794.7,739.7z"/>
						<path id="XMLID_1340_" d="M791.6,738.5l1.6,0.6c0.1,0.1,0.2,0.2,0.2,0.4c-0.1,0.1-0.2,0.2-0.4,0.2l-1.6-0.6
							c-0.1-0.1-0.2-0.2-0.2-0.4C791.3,738.5,791.5,738.4,791.6,738.5z"/>
					</g>
					<g id="XMLID_1334_">
						<path id="XMLID_1338_" d="M789.5,737.6l1.6,0.6c0.1,0.1,0.2,0.2,0.2,0.4c-0.1,0.1-0.2,0.2-0.4,0.2l-1.6-0.6
							c-0.1-0.1-0.2-0.2-0.2-0.4C789.2,737.6,789.4,737.6,789.5,737.6z"/>
						<path id="XMLID_1337_" d="M786.5,736.4l1.6,0.6c0.1,0.1,0.2,0.2,0.2,0.4c-0.1,0.1-0.2,0.2-0.4,0.2l-1.6-0.6
							c-0.1-0.1-0.2-0.2-0.1-0.4C786.2,736.4,786.3,736.3,786.5,736.4z"/>
						<path id="XMLID_1336_" d="M783.5,735.1l1.6,0.7c0.1,0.1,0.2,0.2,0.1,0.4s-0.2,0.2-0.4,0.1l-1.6-0.7c-0.1-0.1-0.2-0.2-0.1-0.4
							C783.2,735.1,783.3,735,783.5,735.1z"/>
						<path id="XMLID_1335_" d="M780.5,733.7l1.6,0.7c0.1,0.1,0.2,0.2,0.1,0.4s-0.2,0.2-0.4,0.1l-1.6-0.7c-0.1-0.1-0.2-0.2-0.1-0.4
							C780.2,733.7,780.3,733.6,780.5,733.7z"/>
					</g>
					<g id="XMLID_1329_">
						<path id="XMLID_1333_" d="M778.4,732.8c0,0,0.4,0.2,0.8,0.4c0.4,0.2,0.8,0.4,0.8,0.4c0.1,0.1,0.2,0.2,0.1,0.4
							c-0.1,0.1-0.2,0.2-0.4,0.1c0,0-0.4-0.2-0.8-0.4c-0.4-0.2-0.8-0.4-0.8-0.4c-0.1-0.1-0.2-0.2-0.1-0.4
							C778.1,732.7,778.3,732.7,778.4,732.8z"/>
						<path id="XMLID_1332_" d="M775.5,731.3l1.5,0.8c0.1,0.1,0.2,0.2,0.1,0.4c-0.1,0.1-0.2,0.2-0.4,0.1l-1.6-0.8
							c-0.1-0.1-0.2-0.2-0.1-0.4C775.2,731.3,775.3,731.2,775.5,731.3z"/>
						<path id="XMLID_1331_" d="M772.5,729.8l1.5,0.8c0.1,0.1,0.2,0.2,0.1,0.4c-0.1,0.1-0.2,0.2-0.4,0.1l-1.6-0.8
							c-0.1-0.1-0.2-0.2-0.1-0.4S772.4,729.7,772.5,729.8z"/>
						<path id="XMLID_1330_" d="M769.6,728.3l1.5,0.8c0.1,0.1,0.2,0.2,0.1,0.4s-0.2,0.2-0.4,0.1l-1.5-0.8c-0.1-0.1-0.2-0.2-0.1-0.4
							C769.3,728.2,769.5,728.2,769.6,728.3z"/>
					</g>
					<g id="XMLID_1324_">
						<path id="XMLID_1328_" d="M767.6,727.1l1.5,0.8c0.1,0.1,0.2,0.2,0.1,0.4c-0.1,0.1-0.2,0.2-0.4,0.1l-1.5-0.8
							c-0.1-0.1-0.2-0.2-0.1-0.4S767.5,727.1,767.6,727.1z"/>
						<path id="XMLID_1327_" d="M764.8,725.6l1.5,0.8c0.1,0.1,0.2,0.2,0.1,0.4c-0.1,0.1-0.2,0.2-0.4,0.1l-1.5-0.8
							c-0.1-0.1-0.2-0.3-0.1-0.4S764.6,725.5,764.8,725.6z"/>
						<path id="XMLID_1326_" d="M761.9,723.8l1.5,0.9c0.1,0.1,0.2,0.3,0.1,0.4c-0.1,0.1-0.3,0.2-0.4,0.1l-1.5-0.9
							c-0.1-0.1-0.2-0.3-0.1-0.4C761.6,723.8,761.8,723.8,761.9,723.8z"/>
						<path id="XMLID_1325_" d="M759.1,722.1l1.5,0.9c0.1,0.1,0.2,0.3,0.1,0.4c-0.1,0.1-0.3,0.2-0.4,0.1l-1.5-0.9
							c-0.1-0.1-0.2-0.3-0.1-0.4S759,722.1,759.1,722.1z"/>
					</g>
					<g id="XMLID_1319_">
						<path id="XMLID_1323_" d="M757.2,720.9c0,0,0.4,0.2,0.7,0.5c0.4,0.2,0.7,0.5,0.7,0.5c0.1,0.1,0.2,0.3,0.1,0.4
							s-0.3,0.2-0.4,0.1c0,0-0.4-0.2-0.7-0.5c-0.4-0.2-0.7-0.5-0.7-0.5c-0.1-0.1-0.2-0.3-0.1-0.4
							C756.9,720.9,757.1,720.8,757.2,720.9z"/>
						<path id="XMLID_1322_" d="M754.5,719.1l1.4,1c0.1,0.1,0.2,0.3,0.1,0.4c-0.1,0.1-0.3,0.2-0.4,0.1l-1.4-1
							c-0.1-0.1-0.2-0.3-0.1-0.4S754.3,719,754.5,719.1z"/>
						<path id="XMLID_1321_" d="M751.7,717.3l1.4,1c0.1,0.1,0.2,0.3,0.1,0.4c-0.1,0.1-0.3,0.2-0.4,0.1l-1.4-1
							c-0.1-0.1-0.2-0.3-0.1-0.4S751.6,717.2,751.7,717.3z"/>
						<path id="XMLID_1320_" d="M749.1,715.3l1.4,1c0.1,0.1,0.2,0.3,0.1,0.4c-0.1,0.1-0.3,0.2-0.4,0.1l-1.4-1
							c-0.1-0.1-0.2-0.3-0.1-0.4l0,0C748.8,715.3,749,715.2,749.1,715.3z"/>
					</g>
					<g id="XMLID_1314_">
						<path id="XMLID_1318_" d="M747.2,714l1.4,1c0.1,0.1,0.2,0.3,0.1,0.4l0,0c-0.1,0.1-0.3,0.2-0.4,0.1l-1.4-1
							c-0.1-0.1-0.2-0.3-0.1-0.4C746.9,713.9,747.1,713.9,747.2,714z"/>
						<path id="XMLID_1317_" d="M744.6,712c0,0,0.3,0.3,0.7,0.5c0.3,0.3,0.7,0.5,0.7,0.5c0.1,0.1,0.2,0.3,0.1,0.4
							c-0.1,0.1-0.3,0.2-0.4,0.1c0,0-0.3-0.3-0.7-0.5c-0.3-0.3-0.7-0.5-0.7-0.5c-0.1-0.1-0.1-0.3,0-0.4
							C744.3,711.9,744.5,711.9,744.6,712z"/>
						<path id="XMLID_1316_" d="M742,710l1.4,1.1c0.1,0.1,0.1,0.3,0,0.4s-0.3,0.1-0.4,0l-1.4-1.1c-0.1-0.1-0.1-0.3,0-0.4
							S741.9,709.9,742,710z"/>
						<path id="XMLID_1315_" d="M739.5,707.9c0,0,0.3,0.3,0.7,0.6c0.3,0.3,0.7,0.5,0.7,0.5c0.1,0.1,0.1,0.3,0,0.4
							c-0.1,0.1-0.3,0.1-0.4,0c0,0-0.3-0.3-0.7-0.5c-0.3-0.3-0.7-0.6-0.7-0.6c-0.1-0.1-0.1-0.3,0-0.4
							C739.2,707.8,739.4,707.8,739.5,707.9z"/>
					</g>
					<g id="XMLID_1309_">
						<path id="XMLID_1313_" d="M737.7,706.4l1.3,1.1c0.1,0.1,0.1,0.3,0,0.4s-0.3,0.1-0.4,0l-1.3-1.1c-0.1-0.1-0.1-0.3,0-0.4
							S737.6,706.3,737.7,706.4z"/>
						<path id="XMLID_1312_" d="M735.2,704.3l1.3,1.1c0.1,0.1,0.1,0.3,0,0.4c-0.1,0.1-0.3,0.1-0.4,0l-1.3-1.1
							c-0.1-0.1-0.1-0.3,0-0.4S735.1,704.2,735.2,704.3z"/>
						<path id="XMLID_1311_" d="M732.8,702.1l1.3,1.2c0.1,0.1,0.1,0.3,0,0.4c-0.1,0.1-0.3,0.1-0.4,0l-1.3-1.2
							c-0.1-0.1-0.1-0.3,0-0.4C732.5,702,732.7,702,732.8,702.1z"/>
						<path id="XMLID_1310_" d="M730.4,699.9l1.3,1.2c0.1,0.1,0.1,0.3,0,0.4c-0.1,0.1-0.3,0.1-0.4,0l-1.3-1.2
							c-0.1-0.1-0.1-0.3,0-0.4C730.1,699.8,730.2,699.8,730.4,699.9z"/>
					</g>
					<g id="XMLID_1304_">
						<path id="XMLID_1308_" d="M728.7,698.3c0,0,0.3,0.3,0.6,0.6c0.3,0.3,0.6,0.6,0.6,0.6c0.1,0.1,0.1,0.3,0,0.4
							c-0.1,0.1-0.3,0.1-0.4,0c0,0-0.3-0.3-0.6-0.6c-0.3-0.3-0.6-0.6-0.6-0.6c-0.1-0.1-0.1-0.3,0-0.4
							C728.4,698.2,728.6,698.2,728.7,698.3z"/>
						<path id="XMLID_1307_" d="M726.3,696l1.2,1.2c0.1,0.1,0.1,0.3,0,0.4c-0.1,0.1-0.3,0.1-0.4,0l-1.2-1.2c-0.1-0.1-0.1-0.3,0-0.4
							S726.2,695.9,726.3,696z"/>
						<path id="XMLID_1306_" d="M724,693.7l1.2,1.2c0.1,0.1,0.1,0.3,0,0.4s-0.3,0.1-0.4,0l-1.2-1.2c-0.1-0.1-0.1-0.3,0-0.4
							C723.7,693.6,723.9,693.6,724,693.7z"/>
						<path id="XMLID_1305_" d="M721.7,691.3l1.2,1.3c0.1,0.1,0.1,0.3,0,0.4c-0.1,0.1-0.3,0.1-0.4,0l-1.2-1.3
							c-0.1-0.1-0.1-0.3,0-0.4C721.4,691.2,721.6,691.2,721.7,691.3z"/>
					</g>
					<g id="XMLID_1299_">
						<path id="XMLID_1303_" d="M720.2,689.7l1.2,1.3c0.1,0.1,0.1,0.3,0,0.4c-0.1,0.1-0.3,0.1-0.4,0l-1.2-1.3
							c-0.1-0.1-0.1-0.3,0-0.4S720,689.6,720.2,689.7z"/>
						<path id="XMLID_1302_" d="M717.9,687.3l1.2,1.3c0.1,0.1,0.1,0.3,0,0.4c-0.1,0.1-0.3,0.1-0.4,0l-1.2-1.3
							c-0.1-0.1-0.1-0.3,0-0.4C717.6,687.1,717.8,687.2,717.9,687.3z"/>
						<path id="XMLID_1301_" d="M715.7,684.8l1.2,1.3c0.1,0.1,0.1,0.3,0,0.4s-0.3,0.1-0.4,0l-1.2-1.3c-0.1-0.1-0.1-0.3,0-0.4
							C715.5,684.7,715.6,684.7,715.7,684.8z"/>
						<path id="XMLID_1300_" d="M713.6,682.3c0,0,0.3,0.3,0.6,0.7c0.3,0.3,0.6,0.6,0.6,0.6c0.1,0.1,0.1,0.3,0,0.4s-0.3,0.1-0.4,0
							c0,0-0.3-0.3-0.6-0.7c-0.3-0.3-0.6-0.7-0.6-0.7c-0.1-0.1-0.1-0.3,0-0.4C713.3,682.2,713.5,682.2,713.6,682.3z"/>
					</g>
					<g id="XMLID_1294_">
						<path id="XMLID_1298_" d="M712.1,680.6l1.1,1.3c0.1,0.1,0.1,0.3,0,0.4c-0.1,0.1-0.3,0.1-0.4,0l-1.1-1.3
							c-0.1-0.1-0.1-0.3,0-0.4C711.8,680.5,712,680.5,712.1,680.6z"/>
						<path id="XMLID_1297_" d="M710,678.1l1.1,1.3c0.1,0.1,0.1,0.3,0,0.4c-0.1,0.1-0.3,0.1-0.4,0l-1.1-1.3c-0.1-0.1-0.1-0.3,0-0.4
							C709.7,677.9,709.9,678,710,678.1z"/>
						<path id="XMLID_1296_" d="M707.9,675.5l1.1,1.4c0.1,0.1,0.1,0.3,0,0.4c-0.1,0.1-0.3,0.1-0.4,0l-1.1-1.4
							c-0.1-0.1-0.1-0.3,0-0.4S707.8,675.4,707.9,675.5z"/>
						<path id="XMLID_1295_" d="M705.9,672.9l1.1,1.4c0.1,0.1,0.1,0.3,0,0.4s-0.3,0.1-0.4,0l-1.1-1.4c-0.1-0.1-0.1-0.3,0-0.4
							S705.8,672.8,705.9,672.9z"/>
					</g>
					<g id="XMLID_1289_">
						<path id="XMLID_1293_" d="M704.5,671.1c0,0,0.3,0.3,0.5,0.7c0.3,0.3,0.5,0.7,0.5,0.7c0.1,0.1,0.1,0.3,0,0.4
							c-0.1,0.1-0.3,0.1-0.4,0c0,0-0.3-0.3-0.5-0.7c-0.3-0.3-0.5-0.7-0.5-0.7c-0.1-0.1-0.1-0.3,0.1-0.4
							C704.2,671,704.4,671,704.5,671.1z"/>
						<path id="XMLID_1292_" d="M702.5,668.5l1,1.4c0.1,0.1,0.1,0.3-0.1,0.4c-0.1,0.1-0.3,0.1-0.4-0.1l-1-1.4
							c-0.1-0.1-0.1-0.3,0.1-0.4S702.4,668.4,702.5,668.5z"/>
						<path id="XMLID_1291_" d="M700.6,665.9c0,0,0.3,0.4,0.5,0.7c0.3,0.3,0.5,0.7,0.5,0.7c0.1,0.1,0.1,0.3-0.1,0.4
							c-0.1,0.1-0.3,0.1-0.4-0.1c0,0-0.3-0.3-0.5-0.7c-0.3-0.4-0.5-0.7-0.5-0.7c-0.1-0.1-0.1-0.3,0.1-0.4S700.5,665.7,700.6,665.9z"
							/>
						<path id="XMLID_1290_" d="M698.7,663.2l1,1.4c0.1,0.1,0.1,0.3-0.1,0.4c-0.1,0.1-0.3,0.1-0.4-0.1l-1-1.4
							c-0.1-0.1-0.1-0.3,0.1-0.4C698.4,663,698.6,663.1,698.7,663.2z"/>
					</g>
					<g id="XMLID_1284_">
						<path id="XMLID_1288_" d="M697.3,661.3l1,1.4c0.1,0.1,0.1,0.3-0.1,0.4c-0.1,0.1-0.3,0.1-0.4-0.1l-1-1.4
							c-0.1-0.1-0.1-0.3,0.1-0.4S697.2,661.2,697.3,661.3z"/>
						<path id="XMLID_1287_" d="M695.4,658.6l1,1.4c0.1,0.1,0.1,0.3-0.1,0.4c-0.1,0.1-0.3,0.1-0.4-0.1l-1-1.4
							c-0.1-0.1-0.1-0.3,0.1-0.4C695.2,658.5,695.4,658.5,695.4,658.6z"/>
						<path id="XMLID_1286_" d="M693.6,655.9l1,1.4c0.1,0.1,0.1,0.3-0.1,0.4c-0.1,0.1-0.3,0.1-0.4-0.1l-1-1.4
							c-0.1-0.1-0.1-0.3,0.1-0.4S693.5,655.8,693.6,655.9z"/>
						<path id="XMLID_1285_" d="M691.8,653.2l0.9,1.4c0.1,0.1,0,0.3-0.1,0.4c-0.1,0.1-0.3,0.1-0.4-0.1l-1-1.4
							c-0.1-0.1,0-0.3,0.1-0.4S691.7,653,691.8,653.2z"/>
					</g>
					<g id="XMLID_1279_">
						<path id="XMLID_1283_" d="M690.5,651.3l0.9,1.4c0.1,0.1,0,0.3-0.1,0.4s-0.3,0-0.4-0.1l-1-1.4c-0.1-0.1,0-0.3,0.1-0.4
							S690.4,651.1,690.5,651.3z"/>
						<path id="XMLID_1282_" d="M688.7,648.5l0.9,1.5c0.1,0.1,0,0.3-0.1,0.4c-0.1,0.1-0.3,0-0.4-0.1l-0.9-1.5
							c-0.1-0.1,0-0.3,0.1-0.4C688.5,648.3,688.6,648.4,688.7,648.5z"/>
						<path id="XMLID_1281_" d="M687,645.7l0.9,1.5c0.1,0.1,0,0.3-0.1,0.4s-0.3,0-0.4-0.1l-0.9-1.5c-0.1-0.1,0-0.3,0.1-0.4
							C686.7,645.6,686.9,645.6,687,645.7z"/>
						<path id="XMLID_1280_" d="M685.2,642.9l0.9,1.5c0.1,0.1,0,0.3-0.1,0.4s-0.3,0-0.4-0.1l-0.9-1.5c-0.1-0.1,0-0.3,0.1-0.4
							C684.9,642.8,685.1,642.8,685.2,642.9z"/>
					</g>
					<g id="XMLID_1274_">
						<path id="XMLID_1278_" d="M684,641l0.9,1.5c0.1,0.1,0,0.3-0.1,0.4c-0.1,0.1-0.3,0-0.4-0.1l-0.9-1.5c-0.1-0.1,0-0.3,0.1-0.4
							S683.9,640.9,684,641z"/>
						<path id="XMLID_1277_" d="M682.3,638.2l0.9,1.5c0.1,0.1,0,0.3-0.1,0.4c-0.1,0.1-0.3,0-0.4-0.1l-0.9-1.5
							c-0.1-0.1,0-0.3,0.1-0.4C682,638,682.2,638.1,682.3,638.2z"/>
						<path id="XMLID_1276_" d="M680.6,635.4l0.9,1.5c0.1,0.1,0,0.3-0.1,0.4c-0.1,0.1-0.3,0-0.4-0.1l-0.9-1.5
							c-0.1-0.1,0-0.3,0.1-0.4S680.5,635.2,680.6,635.4z"/>
						<path id="XMLID_1275_" d="M678.9,632.5l0.9,1.5c0.1,0.1,0,0.3-0.1,0.4c-0.1,0.1-0.3,0-0.4-0.1l-0.9-1.5
							c-0.1-0.1,0-0.3,0.1-0.4C678.7,632.4,678.8,632.4,678.9,632.5z"/>
					</g>
					<g id="XMLID_1269_">
						<path id="XMLID_1273_" d="M677.7,630.6l0.9,1.5c0.1,0.1,0,0.3-0.1,0.4c-0.1,0.1-0.3,0-0.4-0.1l-0.9-1.5
							c-0.1-0.1,0-0.3,0.1-0.4C677.5,630.4,677.7,630.4,677.7,630.6z"/>
						<path id="XMLID_1272_" d="M676.1,627.7l0.9,1.5c0.1,0.1,0,0.3-0.1,0.4c-0.1,0.1-0.3,0-0.4-0.1l-0.9-1.5
							c-0.1-0.1,0-0.3,0.1-0.4C675.8,627.6,676,627.6,676.1,627.7z"/>
						<path id="XMLID_1271_" d="M674.4,624.9l0.9,1.5c0.1,0.1,0,0.3-0.1,0.4c-0.1,0.1-0.3,0-0.4-0.1l-0.9-1.5
							c-0.1-0.1,0-0.3,0.1-0.4S674.4,624.8,674.4,624.9z"/>
						<path id="XMLID_1270_" d="M672.8,622l0.9,1.5c0.1,0.1,0,0.3-0.1,0.4s-0.3,0-0.4-0.1l-0.9-1.5c-0.1-0.1,0-0.3,0.1-0.4
							S672.7,621.9,672.8,622z"/>
					</g>
					<g id="XMLID_1264_">
						<path id="XMLID_1268_" d="M671.7,620l0.9,1.5c0.1,0.1,0,0.3-0.1,0.4s-0.3,0-0.4-0.1l-0.9-1.5c-0.1-0.1,0-0.3,0.1-0.4
							C671.4,619.9,671.6,619.9,671.7,620z"/>
						<path id="XMLID_1267_" d="M670,617.2l0.9,1.5c0.1,0.1,0,0.3-0.1,0.4s-0.3,0-0.4-0.1l-0.9-1.5c-0.1-0.1,0-0.3,0.1-0.4
							S670,617,670,617.2z"/>
						<path id="XMLID_1266_" d="M668.4,614.3l0.8,1.5c0.1,0.1,0,0.3-0.1,0.4c-0.1,0.1-0.3,0-0.4-0.1l-0.8-1.5
							c-0.1-0.1,0-0.3,0.1-0.4S668.3,614.2,668.4,614.3z"/>
						<path id="XMLID_1265_" d="M666.8,611.4l0.8,1.5c0.1,0.1,0,0.3-0.1,0.4c-0.1,0.1-0.3,0-0.4-0.1l-0.8-1.5
							c-0.1-0.1,0-0.3,0.1-0.4C666.6,611.3,666.7,611.3,666.8,611.4z"/>
					</g>
					<g id="XMLID_1259_">
						<path id="XMLID_1263_" d="M665.7,609.4l0.8,1.5c0.1,0.1,0,0.3-0.1,0.4c-0.1,0.1-0.3,0-0.4-0.1l-0.8-1.5
							c-0.1-0.1,0-0.3,0.1-0.4C665.5,609.3,665.6,609.3,665.7,609.4z"/>
						<path id="XMLID_1262_" d="M664.1,606.6l0.8,1.5c0.1,0.1,0,0.3-0.1,0.4s-0.3,0-0.4-0.1l-0.8-1.5c-0.1-0.1,0-0.3,0.1-0.4
							C663.8,606.4,664,606.4,664.1,606.6z"/>
						<path id="XMLID_1261_" d="M662.5,603.7l0.8,1.5c0.1,0.1,0,0.3-0.1,0.4s-0.3,0-0.4-0.1L662,604c-0.1-0.1,0-0.3,0.1-0.4
							S662.4,603.6,662.5,603.7z"/>
						<path id="XMLID_1260_" d="M660.9,600.8l0.8,1.5c0.1,0.1,0,0.3-0.1,0.4c-0.1,0.1-0.3,0-0.4-0.1l-0.8-1.5
							c-0.1-0.1,0-0.3,0.1-0.4C660.7,600.6,660.8,600.7,660.9,600.8z"/>
					</g>
					<g id="XMLID_1254_">
						<path id="XMLID_1258_" d="M659.8,598.8l0.8,1.5c0.1,0.1,0,0.3-0.1,0.4c-0.1,0.1-0.3,0-0.4-0.1l-0.8-1.5
							c-0.1-0.1,0-0.3,0.1-0.4C659.5,598.6,659.7,598.7,659.8,598.8z"/>
						<path id="XMLID_1257_" d="M658.2,595.9l0.8,1.5c0.1,0.1,0,0.3-0.1,0.4s-0.3,0-0.4-0.1l-0.8-1.5c-0.1-0.1,0-0.3,0.1-0.4
							C657.9,595.8,658.1,595.8,658.2,595.9z"/>
						<path id="XMLID_1256_" d="M656.6,593.1l0.8,1.5c0.1,0.1,0,0.3-0.1,0.4c-0.1,0.1-0.3,0-0.4-0.1l-0.8-1.5
							c-0.1-0.1,0-0.3,0.1-0.4C656.3,592.9,656.5,592.9,656.6,593.1z"/>
						<path id="XMLID_1255_" d="M655,590.2l0.8,1.5c0.1,0.1,0,0.3-0.1,0.4c-0.1,0.1-0.3,0-0.4-0.1l-0.8-1.5c-0.1-0.1,0-0.3,0.1-0.4
							C654.7,590,654.9,590.1,655,590.2z"/>
					</g>
					<g id="XMLID_1249_">
						<path id="XMLID_1253_" d="M653.9,588.2l0.8,1.5c0.1,0.1,0,0.3-0.1,0.4c-0.1,0.1-0.3,0-0.4-0.1l-0.8-1.5
							c-0.1-0.1,0-0.3,0.1-0.4C653.6,588,653.8,588.1,653.9,588.2z"/>
						<path id="XMLID_1252_" d="M652.2,585.3l0.9,1.5c0.1,0.1,0,0.3-0.1,0.4c-0.1,0.1-0.3,0-0.4-0.1l-0.9-1.5
							c-0.1-0.1,0-0.3,0.1-0.4C652,585.1,652.2,585.2,652.2,585.3z"/>
						<path id="XMLID_1251_" d="M650.6,582.5l0.9,1.5c0.1,0.1,0,0.3-0.1,0.4s-0.3,0-0.4-0.1l-0.9-1.5c-0.1-0.1,0-0.3,0.1-0.4
							C650.4,582.3,650.5,582.3,650.6,582.5z"/>
						<path id="XMLID_1250_" d="M649,579.6l0.9,1.5c0.1,0.1,0,0.3-0.1,0.4c-0.1,0.1-0.3,0-0.4-0.1l-0.9-1.5c-0.1-0.1,0-0.3,0.1-0.4
							C648.7,579.4,648.9,579.5,649,579.6z"/>
					</g>
					<g id="XMLID_1244_">
						<path id="XMLID_1248_" d="M647.8,577.6l0.9,1.5c0.1,0.1,0,0.3-0.1,0.4s-0.3,0-0.4-0.1l-0.9-1.5c-0.1-0.1,0-0.3,0.1-0.4
							S647.8,577.5,647.8,577.6z"/>
						<path id="XMLID_1247_" d="M646.2,574.8l0.9,1.5c0.1,0.1,0,0.3-0.1,0.4c-0.1,0.1-0.3,0-0.4-0.1l-0.9-1.5
							c-0.1-0.1,0-0.3,0.1-0.4C646,574.6,646.1,574.6,646.2,574.8z"/>
						<path id="XMLID_1246_" d="M644.5,571.9l0.9,1.5c0.1,0.1,0,0.3-0.1,0.4c-0.1,0.1-0.3,0-0.4-0.1l-0.9-1.5
							c-0.1-0.1,0-0.3,0.1-0.4S644.5,571.8,644.5,571.9z"/>
						<path id="XMLID_1245_" d="M642.9,569.1l0.9,1.5c0.1,0.1,0,0.3-0.1,0.4c-0.1,0.1-0.3,0-0.4-0.1l-0.9-1.5
							c-0.1-0.1,0-0.3,0.1-0.4C642.6,568.9,642.8,569,642.9,569.1z"/>
					</g>
					<g id="XMLID_1239_">
						<path id="XMLID_1243_" d="M641.7,567.1l0.9,1.5c0.1,0.1,0,0.3-0.1,0.4s-0.3,0-0.4-0.1l-0.9-1.5c-0.1-0.1,0-0.3,0.1-0.4
							C641.4,566.9,641.6,567,641.7,567.1z"/>
						<path id="XMLID_1242_" d="M640,564.3l0.9,1.5c0.1,0.1,0,0.3-0.1,0.4c-0.1,0.1-0.3,0-0.4-0.1l-0.9-1.5c-0.1-0.1,0-0.3,0.1-0.4
							C639.7,564.1,639.9,564.2,640,564.3z"/>
						<path id="XMLID_1241_" d="M638.3,561.5l0.9,1.5c0.1,0.1,0,0.3-0.1,0.4s-0.3,0-0.4-0.1l-0.9-1.5c-0.1-0.1,0-0.3,0.1-0.4
							C638,561.3,638.2,561.4,638.3,561.5z"/>
						<path id="XMLID_1240_" d="M636.5,558.7l0.9,1.5c0.1,0.1,0,0.3-0.1,0.4s-0.3,0-0.4-0.1l-0.9-1.5c-0.1-0.1,0-0.3,0.1-0.4
							C636.3,558.5,636.5,558.6,636.5,558.7z"/>
					</g>
					<g id="XMLID_1234_">
						<path id="XMLID_1238_" d="M635.3,556.8l0.9,1.5c0.1,0.1,0,0.3-0.1,0.4c-0.1,0.1-0.3,0-0.4-0.1l-0.9-1.5
							c-0.1-0.1,0-0.3,0.1-0.4C635.1,556.6,635.2,556.6,635.3,556.8z"/>
						<path id="XMLID_1237_" d="M633.5,554l0.9,1.5c0.1,0.1,0,0.3-0.1,0.4c-0.1,0.1-0.3,0-0.4-0.1l-0.9-1.5c-0.1-0.1,0-0.3,0.1-0.4
							C633.3,553.8,633.5,553.9,633.5,554z"/>
						<path id="XMLID_1236_" d="M631.8,551.2l0.9,1.5c0.1,0.1,0,0.3-0.1,0.4c-0.1,0.1-0.3,0-0.4-0.1l-0.9-1.5
							c-0.1-0.1,0-0.3,0.1-0.4C631.5,551.1,631.7,551.1,631.8,551.2z"/>
						<path id="XMLID_1235_" d="M629.9,548.5l1,1.4c0.1,0.1,0.1,0.3-0.1,0.4c-0.1,0.1-0.3,0-0.4-0.1l-1-1.4
							c-0.1-0.1-0.1-0.3,0.1-0.4C629.7,548.3,629.9,548.3,629.9,548.5z"/>
					</g>
					<g id="XMLID_1229_">
						<path id="XMLID_1233_" d="M628.7,546.6l1,1.4c0.1,0.1,0.1,0.3-0.1,0.4c-0.1,0.1-0.3,0.1-0.4-0.1l-1-1.4
							c-0.1-0.1-0.1-0.3,0.1-0.4C628.4,546.4,628.6,546.4,628.7,546.6z"/>
						<path id="XMLID_1232_" d="M626.8,543.8c0,0,0.2,0.4,0.5,0.7c0.2,0.4,0.5,0.7,0.5,0.7c0.1,0.1,0.1,0.3-0.1,0.4
							s-0.3,0.1-0.4-0.1c0,0-0.2-0.4-0.5-0.7c-0.2-0.4-0.5-0.7-0.5-0.7c-0.1-0.1-0.1-0.3,0.1-0.4
							C626.6,543.7,626.7,543.7,626.8,543.8z"/>
						<path id="XMLID_1231_" d="M624.9,541.1l1,1.4c0.1,0.1,0.1,0.3-0.1,0.4c-0.1,0.1-0.3,0.1-0.4-0.1l-1-1.4
							c-0.1-0.1-0.1-0.3,0.1-0.4C624.7,541,624.8,541,624.9,541.1z"/>
						<path id="XMLID_1230_" d="M623,538.5l1,1.4c0.1,0.1,0.1,0.3-0.1,0.4s-0.3,0.1-0.4-0.1l-1-1.4c-0.1-0.1-0.1-0.3,0.1-0.4
							S622.9,538.3,623,538.5z"/>
					</g>
					<g id="XMLID_1224_">
						<path id="XMLID_1228_" d="M621.7,536.6l1,1.4c0.1,0.1,0.1,0.3-0.1,0.4c-0.1,0.1-0.3,0.1-0.4-0.1l-1-1.4
							c-0.1-0.1-0.1-0.3,0.1-0.4C621.4,536.5,621.6,536.5,621.7,536.6z"/>
						<path id="XMLID_1227_" d="M619.7,533.9l1,1.4c0.1,0.1,0.1,0.3-0.1,0.4c-0.1,0.1-0.3,0.1-0.4-0.1l-1-1.4
							c-0.1-0.1-0.1-0.3,0.1-0.4C619.5,533.8,619.6,533.8,619.7,533.9z"/>
						<path id="XMLID_1226_" d="M617.7,531.3l1.1,1.4c0.1,0.1,0.1,0.3-0.1,0.4c-0.1,0.1-0.3,0.1-0.4-0.1l-1.1-1.4
							c-0.1-0.1-0.1-0.3,0.1-0.4C617.5,531.2,617.6,531.2,617.7,531.3z"/>
						<path id="XMLID_1225_" d="M615.7,528.7l1.1,1.4c0.1,0.1,0.1,0.3-0.1,0.4c-0.1,0.1-0.3,0.1-0.4-0.1l-1.1-1.4
							c-0.1-0.1-0.1-0.3,0-0.4C615.5,528.6,615.6,528.6,615.7,528.7z"/>
					</g>
					<g id="XMLID_1219_">
						<path id="XMLID_1223_" d="M614.3,526.9c0,0,0.3,0.3,0.5,0.7c0.3,0.3,0.5,0.7,0.5,0.7c0.1,0.1,0.1,0.3,0,0.4
							c-0.1,0.1-0.3,0.1-0.4,0c0,0-0.3-0.3-0.5-0.7c-0.3-0.3-0.5-0.7-0.5-0.7c-0.1-0.1-0.1-0.3,0-0.4
							C614,526.8,614.2,526.8,614.3,526.9z"/>
						<path id="XMLID_1222_" d="M612.2,524.4l1.1,1.3c0.1,0.1,0.1,0.3,0,0.4c-0.1,0.1-0.3,0.1-0.4,0l-1.1-1.3
							c-0.1-0.1-0.1-0.3,0-0.4C612,524.2,612.1,524.2,612.2,524.4z"/>
						<path id="XMLID_1221_" d="M610.1,521.8l1.1,1.3c0.1,0.1,0.1,0.3,0,0.4c-0.1,0.1-0.3,0.1-0.4,0l-1.1-1.3
							c-0.1-0.1-0.1-0.3,0-0.4C609.9,521.7,610,521.7,610.1,521.8z"/>
						<path id="XMLID_1220_" d="M608,519.3l1.1,1.3c0.1,0.1,0.1,0.3,0,0.4c-0.1,0.1-0.3,0.1-0.4,0l-1.1-1.3c-0.1-0.1-0.1-0.3,0-0.4
							S607.9,519.2,608,519.3z"/>
					</g>
					<g id="XMLID_1214_">
						<path id="XMLID_1218_" d="M606.5,517.6l1.1,1.3c0.1,0.1,0.1,0.3,0,0.4c-0.1,0.1-0.3,0.1-0.4,0l-1.1-1.3
							c-0.1-0.1-0.1-0.3,0-0.4C606.2,517.5,606.4,517.5,606.5,517.6z"/>
						<path id="XMLID_1217_" d="M604.3,515.1l1.2,1.3c0.1,0.1,0.1,0.3,0,0.4c-0.1,0.1-0.3,0.1-0.4,0l-1.2-1.3
							c-0.1-0.1-0.1-0.3,0-0.4S604.2,515,604.3,515.1z"/>
						<path id="XMLID_1216_" d="M602.1,512.7l1.2,1.3c0.1,0.1,0.1,0.3,0,0.4s-0.3,0.1-0.4,0l-1.2-1.3c-0.1-0.1-0.1-0.3,0-0.4
							C601.8,512.6,602,512.6,602.1,512.7z"/>
						<path id="XMLID_1215_" d="M599.8,510.3c0,0,0.3,0.3,0.6,0.6c0.3,0.3,0.6,0.6,0.6,0.6c0.1,0.1,0.1,0.3,0,0.4
							c-0.1,0.1-0.3,0.1-0.4,0c0,0-0.3-0.3-0.6-0.6c-0.3-0.3-0.6-0.6-0.6-0.6c-0.1-0.1-0.1-0.3,0-0.4S599.7,510.2,599.8,510.3z"/>
					</g>
					<g id="XMLID_1209_">
						<path id="XMLID_1213_" d="M598.2,508.7l1.2,1.2c0.1,0.1,0.1,0.3,0,0.4s-0.3,0.1-0.4,0l-1.2-1.2c-0.1-0.1-0.1-0.3,0-0.4
							S598.1,508.6,598.2,508.7z"/>
						<path id="XMLID_1212_" d="M595.9,506.3l1.2,1.2c0.1,0.1,0.1,0.3,0,0.4c-0.1,0.1-0.3,0.1-0.4,0l-1.2-1.2
							c-0.1-0.1-0.1-0.3,0-0.4S595.8,506.2,595.9,506.3z"/>
						<path id="XMLID_1211_" d="M593.5,504.1l1.3,1.2c0.1,0.1,0.1,0.3,0,0.4c-0.1,0.1-0.3,0.1-0.4,0l-1.3-1.2
							c-0.1-0.1-0.1-0.3,0-0.4C593.2,504,593.4,503.9,593.5,504.1z"/>
						<path id="XMLID_1210_" d="M591.1,501.8l1.3,1.2c0.1,0.1,0.1,0.3,0,0.4c-0.1,0.1-0.3,0.1-0.4,0l-1.3-1.2
							c-0.1-0.1-0.1-0.3,0-0.4C590.8,501.7,591,501.7,591.1,501.8z"/>
					</g>
					<g id="XMLID_1204_">
						<path id="XMLID_1208_" d="M589.4,500.2c0,0,0.3,0.3,0.6,0.6c0.3,0.3,0.6,0.6,0.6,0.6c0.1,0.1,0.1,0.3,0,0.4
							c-0.1,0.1-0.3,0.1-0.4,0c0,0-0.3-0.3-0.6-0.6c-0.3-0.3-0.6-0.6-0.6-0.6c-0.1-0.1-0.1-0.3,0-0.4
							C589.1,500.1,589.3,500.1,589.4,500.2z"/>
						<path id="XMLID_1207_" d="M586.9,498.1l1.3,1.1c0.1,0.1,0.1,0.3,0,0.4s-0.3,0.1-0.4,0l-1.3-1.1c-0.1-0.1-0.1-0.3,0-0.4
							S586.8,498,586.9,498.1z"/>
						<path id="XMLID_1206_" d="M584.5,495.9c0,0,0.3,0.3,0.7,0.6c0.3,0.3,0.6,0.6,0.6,0.6c0.1,0.1,0.1,0.3,0,0.4
							c-0.1,0.1-0.3,0.1-0.4,0c0,0-0.3-0.3-0.6-0.6c-0.3-0.3-0.7-0.6-0.7-0.6c-0.1-0.1-0.1-0.3,0-0.4
							C584.2,495.8,584.3,495.8,584.5,495.9z"/>
						<path id="XMLID_1205_" d="M581.9,493.8l1.3,1.1c0.1,0.1,0.1,0.3,0,0.4c-0.1,0.1-0.3,0.1-0.4,0l-1.3-1.1
							c-0.1-0.1-0.1-0.3,0-0.4C581.6,493.7,581.8,493.7,581.9,493.8z"/>
					</g>
					<g id="XMLID_1199_">
						<path id="XMLID_1203_" d="M580.1,492.4l1.3,1.1c0.1,0.1,0.1,0.3,0,0.4c-0.1,0.1-0.3,0.1-0.4,0l-1.3-1.1
							c-0.1-0.1-0.1-0.3,0-0.4C579.8,492.3,580,492.3,580.1,492.4z"/>
						<path id="XMLID_1202_" d="M577.5,490.3l1.4,1c0.1,0.1,0.1,0.3,0.1,0.4s-0.3,0.1-0.4,0.1l-1.4-1c-0.1-0.1-0.1-0.3-0.1-0.4
							S577.4,490.2,577.5,490.3z"/>
						<path id="XMLID_1201_" d="M574.9,488.4l1.4,1c0.1,0.1,0.1,0.3,0.1,0.4c-0.1,0.1-0.3,0.1-0.4,0.1l-1.4-1
							c-0.1-0.1-0.1-0.3-0.1-0.4C574.6,488.3,574.8,488.3,574.9,488.4z"/>
						<path id="XMLID_1200_" d="M572.2,486.4c0,0,0.4,0.2,0.7,0.5c0.4,0.2,0.7,0.5,0.7,0.5c0.1,0.1,0.2,0.3,0.1,0.4
							s-0.3,0.2-0.4,0.1c0,0-0.3-0.3-0.7-0.5c-0.4-0.2-0.7-0.5-0.7-0.5c-0.1-0.1-0.2-0.3-0.1-0.4
							C571.9,486.4,572.1,486.3,572.2,486.4z"/>
					</g>
					<g id="XMLID_1194_">
						<path id="XMLID_1198_" d="M570.3,485.1l1.4,1c0.1,0.1,0.2,0.3,0.1,0.4c-0.1,0.1-0.3,0.2-0.4,0.1l-1.4-1
							c-0.1-0.1-0.2-0.3-0.1-0.4C570,485,570.2,485,570.3,485.1z"/>
						<path id="XMLID_1197_" d="M567.6,483.2l1.4,1c0.1,0.1,0.2,0.3,0.1,0.4c-0.1,0.1-0.3,0.2-0.4,0.1l-1.4-1
							c-0.1-0.1-0.2-0.3-0.1-0.4C567.3,483.2,567.5,483.1,567.6,483.2z"/>
						<path id="XMLID_1196_" d="M564.9,481.4l1.5,0.9c0.1,0.1,0.2,0.3,0.1,0.4c-0.1,0.1-0.3,0.2-0.4,0.1l-1.5-0.9
							c-0.1-0.1-0.2-0.3-0.1-0.4C564.6,481.4,564.7,481.3,564.9,481.4z"/>
						<path id="XMLID_1195_" d="M562.1,479.7l1.5,0.9c0.1,0.1,0.2,0.3,0.1,0.4c-0.1,0.1-0.3,0.2-0.4,0.1l-1.5-0.9
							c-0.1-0.1-0.2-0.3-0.1-0.4S562,479.6,562.1,479.7z"/>
					</g>
					<g id="XMLID_1189_">
						<path id="XMLID_1193_" d="M560.1,478.5c0,0,0.4,0.2,0.7,0.4c0.4,0.2,0.7,0.5,0.7,0.5c0.1,0.1,0.2,0.3,0.1,0.4
							s-0.3,0.2-0.4,0.1c0,0-0.4-0.2-0.7-0.5c-0.4-0.2-0.7-0.4-0.7-0.4c-0.1-0.1-0.2-0.2-0.1-0.4S560,478.4,560.1,478.5z"/>
						<path id="XMLID_1192_" d="M557.3,476.8l1.5,0.9c0.1,0.1,0.2,0.3,0.1,0.4c-0.1,0.1-0.3,0.2-0.4,0.1l-1.5-0.9
							c-0.1-0.1-0.2-0.3-0.1-0.4C557,476.8,557.1,476.7,557.3,476.8z"/>
						<path id="XMLID_1191_" d="M554.3,475.3l1.5,0.8c0.1,0.1,0.2,0.2,0.1,0.4c-0.1,0.1-0.2,0.2-0.4,0.1l-1.5-0.8
							c-0.1-0.1-0.2-0.2-0.1-0.4C554,475.3,554.2,475.2,554.3,475.3z"/>
						<path id="XMLID_1190_" d="M551.4,473.9l1.6,0.7c0.1,0.1,0.2,0.2,0.1,0.4c-0.1,0.1-0.2,0.2-0.4,0.1l-1.6-0.7
							c-0.1-0.1-0.2-0.2-0.1-0.4C551,473.9,551.2,473.8,551.4,473.9z"/>
					</g>
					<g id="XMLID_1184_">
						<path id="XMLID_1188_" d="M549.2,473c0,0,0.4,0.1,0.8,0.3c0.4,0.2,0.8,0.4,0.8,0.4c0.1,0.1,0.2,0.2,0.1,0.4
							c-0.1,0.1-0.2,0.2-0.4,0.1c0,0-0.4-0.2-0.8-0.4c-0.4-0.2-0.8-0.3-0.8-0.3c-0.1-0.1-0.2-0.2-0.2-0.4
							C548.9,473,549.1,472.9,549.2,473z"/>
						<path id="XMLID_1187_" d="M546.2,471.8l1.6,0.6c0.1,0.1,0.2,0.2,0.2,0.4c-0.1,0.1-0.2,0.2-0.4,0.2l-1.6-0.6
							c-0.1-0.1-0.2-0.2-0.2-0.4C545.9,471.8,546,471.7,546.2,471.8z"/>
						<path id="XMLID_1186_" d="M543,470.7l1.6,0.6c0.1,0,0.2,0.2,0.2,0.4s-0.2,0.2-0.4,0.2l-1.6-0.6c-0.1,0-0.2-0.2-0.2-0.4
							C542.7,470.8,542.9,470.7,543,470.7z"/>
						<path id="XMLID_1185_" d="M539.9,469.8l1.7,0.5c0.1,0,0.2,0.2,0.2,0.3l0,0c0,0.1-0.2,0.2-0.4,0.2l-1.7-0.5
							c-0.1,0-0.2-0.2-0.2-0.3C539.6,469.8,539.7,469.7,539.9,469.8z"/>
					</g>
					<g id="XMLID_1179_">
						<path id="XMLID_1183_" d="M537.7,469.2c0,0,0.4,0.1,0.8,0.2c0.4,0.1,0.8,0.2,0.8,0.2c0.1,0,0.2,0.2,0.2,0.3
							c0,0.1-0.2,0.2-0.3,0.2c0,0-0.4-0.1-0.8-0.2c-0.4-0.1-0.8-0.2-0.8-0.2c-0.1,0-0.2-0.2-0.2-0.3
							C537.4,469.3,537.5,469.2,537.7,469.2z"/>
						<path id="XMLID_1182_" d="M534.4,468.5c0,0,0.4,0.1,0.8,0.2c0.4,0.1,0.8,0.2,0.8,0.2c0.2,0,0.2,0.2,0.2,0.3
							c0,0.2-0.2,0.2-0.3,0.2c0,0-0.4-0.1-0.8-0.2c-0.4-0.1-0.8-0.2-0.8-0.2c-0.2,0-0.2-0.2-0.2-0.3
							C534.1,468.5,534.3,468.4,534.4,468.5z"/>
						<path id="XMLID_1181_" d="M531.2,467.8l1.7,0.3c0.2,0,0.3,0.2,0.2,0.3c0,0.2-0.2,0.3-0.3,0.2l-1.7-0.3c-0.2,0-0.3-0.2-0.2-0.3
							C530.9,467.9,531.1,467.8,531.2,467.8z"/>
						<path id="XMLID_1180_" d="M527.9,467.3l1.7,0.3c0.2,0,0.3,0.2,0.2,0.3s-0.2,0.3-0.3,0.2l-1.7-0.3c-0.2,0-0.3-0.2-0.2-0.3
							C527.6,467.4,527.8,467.3,527.9,467.3z"/>
					</g>
					<g id="XMLID_1174_">
						<path id="XMLID_1178_" d="M525.7,467.1c0,0,0.4,0,0.9,0.1c0.4,0,0.9,0.1,0.9,0.1c0.2,0,0.3,0.2,0.2,0.3c0,0.2-0.2,0.3-0.3,0.2
							c0,0-0.4-0.1-0.9-0.1c-0.4,0-0.9-0.1-0.9-0.1c-0.2,0-0.3-0.2-0.2-0.3C525.4,467.1,525.5,467,525.7,467.1z"/>
						<path id="XMLID_1177_" d="M522.4,466.7c0,0,0.4,0,0.9,0.1c0.4,0,0.9,0.1,0.9,0.1c0.2,0,0.3,0.2,0.3,0.3c0,0.2-0.2,0.3-0.3,0.2
							c0,0-0.4,0-0.9-0.1c-0.4,0-0.9-0.1-0.9-0.1c-0.2,0-0.3-0.1-0.3-0.3S522.2,466.7,522.4,466.7z"/>
						<path id="XMLID_1176_" d="M519.1,466.5c0,0,0.4,0,0.9,0.1c0.4,0,0.9,0.1,0.9,0.1c0.2,0,0.3,0.1,0.3,0.3s-0.1,0.3-0.3,0.3
							c0,0-0.4,0-0.9-0.1c-0.4,0-0.9-0.1-0.9-0.1c-0.2,0-0.3-0.1-0.3-0.3C518.8,466.6,518.9,466.5,519.1,466.5z"/>
						<path id="XMLID_1175_" d="M515.8,466.4l1.7,0.1c0.2,0,0.3,0.1,0.3,0.3s-0.1,0.3-0.3,0.3l-1.7-0.1c-0.2,0-0.3-0.1-0.3-0.3
							C515.5,466.5,515.6,466.4,515.8,466.4z"/>
					</g>
					<g id="XMLID_1169_">
						<path id="XMLID_1173_" d="M513.5,466.4l1.7,0c0.2,0,0.3,0.1,0.3,0.3c0,0.2-0.1,0.3-0.3,0.3l-1.7,0c-0.2,0-0.3-0.1-0.3-0.3
							C513.2,466.5,513.3,466.4,513.5,466.4z"/>
						<path id="XMLID_1172_" d="M510.2,466.4c0,0,0.4,0,0.9,0c0.4,0,0.9,0,0.9,0c0.2,0,0.3,0.1,0.3,0.3s-0.1,0.3-0.3,0.3
							c0,0-0.4,0-0.9,0c-0.4,0-0.9,0-0.9,0c-0.2,0-0.3-0.1-0.3-0.3C509.9,466.5,510,466.4,510.2,466.4z"/>
						<path id="XMLID_1171_" d="M506.9,466.5c0,0,0.4,0,0.9,0c0.4,0,0.9,0,0.9,0c0.2,0,0.3,0.1,0.3,0.3c0,0.2-0.1,0.3-0.3,0.3
							c0,0-0.4,0-0.9,0c-0.4,0-0.9,0-0.9,0c-0.2,0-0.3-0.1-0.3-0.3S506.7,466.5,506.9,466.5z"/>
						<path id="XMLID_1170_" d="M503.6,466.7l1.7-0.1c0.2,0,0.3,0.1,0.3,0.3s-0.1,0.3-0.3,0.3l-1.7,0.1c-0.2,0-0.3-0.1-0.3-0.3
							C503.3,466.9,503.5,466.7,503.6,466.7z"/>
					</g>
					<g id="XMLID_1164_">
						<path id="XMLID_1168_" d="M501.3,466.9l1.7-0.2c0.2,0,0.3,0.1,0.3,0.3c0,0.2-0.1,0.3-0.3,0.3l-1.7,0.2c-0.2,0-0.3-0.1-0.3-0.3
							S501.2,466.9,501.3,466.9z"/>
						<path id="XMLID_1167_" d="M498,467.2c0,0,0.4,0,0.9-0.1c0.4,0,0.9-0.1,0.9-0.1c0.2,0,0.3,0.1,0.3,0.3c0,0.2-0.1,0.3-0.3,0.3
							c0,0-0.4,0-0.9,0.1c-0.4,0-0.9,0.1-0.9,0.1c-0.2,0-0.3-0.1-0.3-0.2S497.9,467.3,498,467.2z"/>
						<path id="XMLID_1166_" d="M494.8,467.6c0,0,0.4-0.1,0.9-0.1c0.4,0,0.9-0.1,0.9-0.1c0.2,0,0.3,0.1,0.3,0.2s-0.1,0.3-0.2,0.3
							c0,0-0.4,0-0.9,0.1c-0.4,0.1-0.9,0.1-0.9,0.1c-0.2,0-0.3-0.1-0.3-0.2S494.6,467.6,494.8,467.6z"/>
						<path id="XMLID_1165_" d="M491.5,468.1l1.7-0.2c0.2,0,0.3,0.1,0.3,0.2c0,0.2-0.1,0.3-0.2,0.3l-1.7,0.2c-0.2,0-0.3-0.1-0.3-0.2
							C491.2,468.2,491.4,468.1,491.5,468.1z"/>
					</g>
					<g id="XMLID_1159_">
						<path id="XMLID_1163_" d="M489.2,468.4l1.7-0.3c0.2,0,0.3,0.1,0.3,0.2c0,0.2-0.1,0.3-0.2,0.3l-1.7,0.3c-0.2,0-0.3-0.1-0.3-0.2
							C489,468.6,489.1,468.4,489.2,468.4z"/>
						<path id="XMLID_1162_" d="M486,469l1.7-0.3c0.2,0,0.3,0.1,0.3,0.2c0,0.2-0.1,0.3-0.2,0.3l-1.7,0.3c-0.2,0-0.3-0.1-0.3-0.2
							C485.7,469.1,485.8,469,486,469z"/>
						<path id="XMLID_1161_" d="M482.7,469.5l1.7-0.3c0.2,0,0.3,0.1,0.3,0.2s-0.1,0.3-0.2,0.3l-1.7,0.3c-0.2,0-0.3-0.1-0.3-0.2
							C482.5,469.7,482.6,469.6,482.7,469.5z"/>
						<path id="XMLID_1160_" d="M479.5,470.2l1.7-0.3c0.2,0,0.3,0.1,0.3,0.2s-0.1,0.3-0.2,0.3l-1.7,0.3c-0.2,0-0.3-0.1-0.3-0.2
							C479.3,470.4,479.4,470.2,479.5,470.2z"/>
					</g>
					<g id="XMLID_1154_">
						<path id="XMLID_1158_" d="M477.3,470.7l1.7-0.4c0.2,0,0.3,0.1,0.3,0.2c0,0.2-0.1,0.3-0.2,0.3l-1.7,0.4c-0.2,0-0.3-0.1-0.3-0.2
							C477,470.8,477.1,470.7,477.3,470.7z"/>
						<path id="XMLID_1157_" d="M474.1,471.4l1.7-0.4c0.2,0,0.3,0.1,0.3,0.2s-0.1,0.3-0.2,0.3l-1.7,0.4c-0.2,0-0.3-0.1-0.3-0.2
							C473.8,471.5,473.9,471.4,474.1,471.4z"/>
						<path id="XMLID_1156_" d="M470.8,472.1l1.7-0.4c0.2,0,0.3,0.1,0.3,0.2s-0.1,0.3-0.2,0.3l-1.7,0.4c-0.2,0-0.3-0.1-0.3-0.2
							C470.6,472.3,470.7,472.1,470.8,472.1z"/>
						<path id="XMLID_1155_" d="M467.6,472.9l1.7-0.4c0.2,0,0.3,0.1,0.3,0.2c0,0.2-0.1,0.3-0.2,0.3l-1.7,0.4c-0.2,0-0.3-0.1-0.3-0.2
							l0,0C467.4,473.1,467.5,472.9,467.6,472.9z"/>
					</g>
					<g id="XMLID_1149_">
						<path id="XMLID_1153_" d="M465.4,473.4l1.7-0.4c0.2,0,0.3,0.1,0.3,0.2l0,0c0,0.2-0.1,0.3-0.2,0.3l-1.7,0.4
							c-0.1,0-0.3-0.1-0.3-0.2C465.2,473.6,465.3,473.5,465.4,473.4z"/>
						<path id="XMLID_1152_" d="M462.2,474.2l1.7-0.4c0.2,0,0.3,0.1,0.3,0.2c0,0.2-0.1,0.3-0.2,0.3l-1.7,0.4c-0.1,0-0.3-0.1-0.3-0.2
							C462,474.4,462.1,474.3,462.2,474.2z"/>
						<path id="XMLID_1151_" d="M459,475.1l1.7-0.4c0.1,0,0.3,0.1,0.3,0.2c0,0.1-0.1,0.3-0.2,0.3l-1.7,0.4c-0.1,0-0.3-0.1-0.3-0.2
							C458.8,475.3,458.9,475.1,459,475.1z"/>
						<path id="XMLID_1150_" d="M455.9,476l1.7-0.5c0.1,0,0.3,0,0.3,0.2c0,0.1,0,0.3-0.2,0.3l-1.7,0.5c-0.1,0-0.3,0-0.3-0.2
							C455.6,476.2,455.7,476,455.9,476z"/>
					</g>
					<g id="XMLID_1144_">
						<path id="XMLID_1148_" d="M453.7,476.6l1.7-0.5c0.1,0,0.3,0,0.3,0.2c0,0.1,0,0.3-0.2,0.3l-1.7,0.5c-0.1,0-0.3,0-0.3-0.2
							C453.4,476.8,453.5,476.6,453.7,476.6z"/>
						<path id="XMLID_1147_" d="M450.5,477.5l1.7-0.5c0.1,0,0.3,0,0.3,0.2c0,0.1,0,0.3-0.2,0.3l-1.7,0.5c-0.1,0-0.3,0-0.3-0.2
							C450.3,477.7,450.3,477.5,450.5,477.5z"/>
						<path id="XMLID_1146_" d="M447.3,478.4l1.7-0.5c0.1,0,0.3,0,0.3,0.2c0,0.1,0,0.3-0.2,0.3l-1.7,0.5c-0.1,0-0.3,0-0.3-0.2
							C447.1,478.6,447.2,478.4,447.3,478.4z"/>
						<path id="XMLID_1145_" d="M444.2,479.3l1.7-0.5c0.1,0,0.3,0,0.3,0.2c0,0.1,0,0.3-0.2,0.3l-1.7,0.5c-0.1,0-0.3,0-0.3-0.2
							C443.9,479.5,444,479.3,444.2,479.3z"/>
					</g>
					<g id="XMLID_1139_">
						<path id="XMLID_1143_" d="M442,479.9l1.7-0.5c0.1,0,0.3,0,0.3,0.2c0,0.1,0,0.3-0.2,0.3l-1.7,0.5c-0.1,0-0.3,0-0.3-0.2
							C441.7,480.1,441.8,480,442,479.9z"/>
						<path id="XMLID_1142_" d="M438.8,480.9l1.7-0.5c0.1,0,0.3,0,0.3,0.2s0,0.3-0.2,0.3l-1.7,0.5c-0.1,0-0.3,0-0.3-0.2
							S438.7,480.9,438.8,480.9z"/>
						<path id="XMLID_1141_" d="M435.7,481.8l1.7-0.5c0.1,0,0.3,0,0.3,0.2c0,0.1,0,0.3-0.2,0.4l-1.7,0.5c-0.1,0-0.3,0-0.3-0.2
							C435.4,482,435.5,481.8,435.7,481.8z"/>
						<path id="XMLID_1140_" d="M432.5,482.7l1.7-0.5c0.1,0,0.3,0,0.3,0.2s0,0.3-0.2,0.4l-1.7,0.5c-0.1,0-0.3,0-0.3-0.2
							S432.4,482.8,432.5,482.7z"/>
					</g>
					<g id="XMLID_1134_">
						<path id="XMLID_1138_" d="M430.3,483.4l1.7-0.5c0.1,0,0.3,0,0.3,0.2s0,0.3-0.2,0.3l-1.7,0.5c-0.1,0-0.3,0-0.3-0.2l0,0
							C430.1,483.6,430.2,483.4,430.3,483.4z"/>
						<path id="XMLID_1137_" d="M427.1,484.3l1.7-0.5c0.1,0,0.3,0,0.3,0.2c0,0.1,0,0.3-0.2,0.3l-1.7,0.5c-0.1,0-0.3,0-0.3-0.2
							S427,484.4,427.1,484.3z"/>
						<path id="XMLID_1136_" d="M424,485.2l1.7-0.5c0.1,0,0.3,0,0.3,0.2c0,0.1,0,0.3-0.2,0.3l-1.7,0.5c-0.1,0-0.3,0-0.3-0.2
							C423.8,485.4,423.8,485.3,424,485.2z"/>
						<path id="XMLID_1135_" d="M420.8,486.2l1.7-0.5c0.1,0,0.3,0,0.3,0.2s0,0.3-0.2,0.3l-1.7,0.5c-0.1,0-0.3,0-0.3-0.2
							S420.7,486.2,420.8,486.2z"/>
					</g>
					<g id="XMLID_1129_">
						<path id="XMLID_1133_" d="M418.6,486.8l1.7-0.5c0.1,0,0.3,0,0.3,0.2c0,0.1,0,0.3-0.2,0.3l-1.7,0.5c-0.1,0-0.3,0-0.3-0.2
							C418.4,487,418.5,486.8,418.6,486.8z"/>
						<path id="XMLID_1132_" d="M415.5,487.7l1.7-0.5c0.1,0,0.3,0,0.3,0.2c0,0.1,0,0.3-0.2,0.3l-1.7,0.5c-0.1,0-0.3,0-0.3-0.2
							C415.2,487.9,415.3,487.7,415.5,487.7z"/>
						<path id="XMLID_1131_" d="M412.3,488.6l1.7-0.5c0.1,0,0.3,0,0.3,0.2c0,0.1,0,0.3-0.2,0.3l-1.7,0.5c-0.1,0-0.3,0-0.3-0.2
							S412.2,488.6,412.3,488.6z"/>
						<path id="XMLID_1130_" d="M409.1,489.4l1.7-0.5c0.1,0,0.3,0,0.3,0.2c0,0.1,0,0.3-0.2,0.3l-1.7,0.5c-0.1,0-0.3-0.1-0.3-0.2
							C408.9,489.6,409,489.5,409.1,489.4z"/>
					</g>
					<g id="XMLID_1124_">
						<path id="XMLID_1128_" d="M406.9,490l1.7-0.4c0.1,0,0.3,0.1,0.3,0.2c0,0.1,0,0.3-0.2,0.3l-1.7,0.4c-0.1,0-0.3-0.1-0.3-0.2
							S406.8,490,406.9,490z"/>
						<path id="XMLID_1127_" d="M403.7,490.8l1.7-0.4c0.1,0,0.3,0.1,0.3,0.2l0,0c0,0.1-0.1,0.3-0.2,0.3l-1.7,0.4
							c-0.2,0-0.3-0.1-0.3-0.2C403.5,491,403.6,490.9,403.7,490.8z"/>
						<path id="XMLID_1126_" d="M400.5,491.6l1.7-0.4c0.1,0,0.3,0.1,0.3,0.2s-0.1,0.3-0.2,0.3l-1.7,0.4c-0.2,0-0.3-0.1-0.3-0.2
							S400.4,491.7,400.5,491.6z"/>
						<path id="XMLID_1125_" d="M397.3,492.4l1.7-0.4c0.2,0,0.3,0.1,0.3,0.2s-0.1,0.3-0.2,0.3l-1.7,0.4c-0.2,0-0.3-0.1-0.3-0.2
							C397.1,492.6,397.2,492.4,397.3,492.4z"/>
					</g>
					<g id="XMLID_1119_">
						<path id="XMLID_1123_" d="M395.1,492.9l1.7-0.4c0.2,0,0.3,0.1,0.3,0.2c0,0.2-0.1,0.3-0.2,0.3l-1.7,0.4c-0.2,0-0.3-0.1-0.3-0.2
							v0C394.9,493.1,395,492.9,395.1,492.9z"/>
						<path id="XMLID_1122_" d="M391.9,493.6l1.7-0.4c0.2,0,0.3,0.1,0.3,0.2s-0.1,0.3-0.2,0.3l-1.7,0.4c-0.2,0-0.3-0.1-0.3-0.2
							C391.6,493.8,391.7,493.6,391.9,493.6z"/>
						<path id="XMLID_1121_" d="M388.7,494.2l1.7-0.3c0.2,0,0.3,0.1,0.3,0.2c0,0.2-0.1,0.3-0.2,0.3l-1.7,0.3c-0.2,0-0.3-0.1-0.3-0.2
							S388.5,494.3,388.7,494.2z"/>
						<path id="XMLID_1120_" d="M385.4,494.8l1.7-0.3c0.2,0,0.3,0.1,0.3,0.2s-0.1,0.3-0.2,0.3l-1.7,0.3c-0.2,0-0.3-0.1-0.3-0.2
							C385.2,495,385.3,494.9,385.4,494.8z"/>
					</g>
					<g id="XMLID_1114_">
						<path id="XMLID_1118_" d="M383.2,495.2l1.7-0.3c0.2,0,0.3,0.1,0.3,0.2c0,0.2-0.1,0.3-0.2,0.3l-1.7,0.3c-0.2,0-0.3-0.1-0.3-0.2
							l0,0C382.9,495.4,383,495.2,383.2,495.2z"/>
						<path id="XMLID_1117_" d="M379.9,495.7l1.7-0.3c0.2,0,0.3,0.1,0.3,0.2s-0.1,0.3-0.2,0.3l-1.7,0.3c-0.2,0-0.3-0.1-0.3-0.2
							S379.8,495.7,379.9,495.7z"/>
						<path id="XMLID_1116_" d="M376.7,496.2c0,0,0.4-0.1,0.9-0.1c0.4-0.1,0.9-0.1,0.9-0.1c0.2,0,0.3,0.1,0.3,0.2
							c0,0.2-0.1,0.3-0.2,0.3c0,0-0.4,0.1-0.9,0.1c-0.4,0.1-0.9,0.1-0.9,0.1c-0.2,0-0.3-0.1-0.3-0.2
							C376.4,496.3,376.5,496.2,376.7,496.2z"/>
						<path id="XMLID_1115_" d="M373.4,496.6c0,0,0.4,0,0.9-0.1c0.4-0.1,0.9-0.1,0.9-0.1c0.2,0,0.3,0.1,0.3,0.2
							c0,0.2-0.1,0.3-0.2,0.3c0,0-0.4,0.1-0.9,0.1c-0.4,0-0.9,0.1-0.9,0.1c-0.2,0-0.3-0.1-0.3-0.3l0,0
							C373.2,496.7,373.3,496.6,373.4,496.6z"/>
					</g>
					<g id="XMLID_1109_">
						<path id="XMLID_1113_" d="M371.1,496.8l1.7-0.2c0.2,0,0.3,0.1,0.3,0.3l0,0c0,0.2-0.1,0.3-0.3,0.3l-1.7,0.2
							c-0.2,0-0.3-0.1-0.3-0.3C370.9,496.9,371,496.8,371.1,496.8z"/>
						<path id="XMLID_1112_" d="M367.9,497l1.7-0.1c0.2,0,0.3,0.1,0.3,0.3c0,0.2-0.1,0.3-0.3,0.3l-1.7,0.1c-0.2,0-0.3-0.1-0.3-0.3
							C367.6,497.2,367.7,497,367.9,497z"/>
						<path id="XMLID_1111_" d="M364.6,497.2l1.7-0.1c0.2,0,0.3,0.1,0.3,0.3c0,0.2-0.1,0.3-0.3,0.3l-1.7,0.1c-0.2,0-0.3-0.1-0.3-0.3
							C364.3,497.3,364.4,497.2,364.6,497.2z"/>
						<path id="XMLID_1110_" d="M361.3,497.2c0,0,0.4,0,0.9,0c0.4,0,0.9,0,0.9,0c0.2,0,0.3,0.1,0.3,0.3c0,0.2-0.1,0.3-0.3,0.3
							c0,0-0.4,0-0.9,0c-0.4,0-0.9,0-0.9,0c-0.2,0-0.3-0.1-0.3-0.3C361,497.4,361.2,497.2,361.3,497.2z"/>
					</g>
					<g id="XMLID_1104_">
						<path id="XMLID_1108_" d="M359,497.2l1.7,0c0.2,0,0.3,0.1,0.3,0.3c0,0.2-0.1,0.3-0.3,0.3l-1.7,0c-0.2,0-0.3-0.1-0.3-0.3
							C358.7,497.4,358.9,497.2,359,497.2z"/>
						<path id="XMLID_1107_" d="M355.8,497.1l1.7,0.1c0.2,0,0.3,0.1,0.3,0.3c0,0.2-0.1,0.3-0.3,0.3l-1.7-0.1c-0.2,0-0.3-0.1-0.3-0.3
							C355.5,497.2,355.6,497.1,355.8,497.1z"/>
						<path id="XMLID_1106_" d="M352.5,496.9l1.7,0.1c0.2,0,0.3,0.1,0.3,0.3c0,0.2-0.1,0.3-0.3,0.3l-1.7-0.1c-0.2,0-0.3-0.1-0.3-0.3
							C352.2,497,352.3,496.9,352.5,496.9z"/>
						<path id="XMLID_1105_" d="M349.2,496.5l1.7,0.2c0.2,0,0.3,0.2,0.2,0.3c0,0.2-0.2,0.3-0.3,0.2l-1.7-0.2c-0.2,0-0.3-0.2-0.2-0.3
							S349.1,496.5,349.2,496.5z"/>
					</g>
					<g id="XMLID_1099_">
						<path id="XMLID_1103_" d="M347,496.2c0,0,0.4,0.1,0.9,0.1c0.4,0.1,0.9,0.1,0.9,0.1c0.2,0,0.3,0.2,0.2,0.3
							c0,0.2-0.2,0.3-0.3,0.2c0,0-0.4,0-0.9-0.1c-0.4-0.1-0.9-0.1-0.9-0.1c-0.2,0-0.3-0.2-0.2-0.3
							C346.7,496.3,346.8,496.2,347,496.2z"/>
						<path id="XMLID_1102_" d="M343.7,495.7c0,0,0.4,0.1,0.8,0.2c0.4,0.1,0.8,0.1,0.8,0.1c0.2,0,0.3,0.2,0.2,0.3
							c0,0.2-0.2,0.3-0.3,0.2c0,0-0.4-0.1-0.9-0.1c-0.4-0.1-0.9-0.2-0.9-0.2c-0.2,0-0.3-0.2-0.2-0.3S343.6,495.6,343.7,495.7z"/>
						<path id="XMLID_1101_" d="M340.5,494.9c0,0,0.4,0.1,0.8,0.2c0.4,0.1,0.8,0.2,0.8,0.2c0.2,0,0.2,0.2,0.2,0.3
							c0,0.2-0.2,0.2-0.3,0.2c0,0-0.4-0.1-0.9-0.2c-0.4-0.1-0.8-0.2-0.8-0.2c-0.2,0-0.2-0.2-0.2-0.3S340.4,494.9,340.5,494.9z"/>
						<path id="XMLID_1100_" d="M337.4,494.1c0,0,0.4,0.1,0.8,0.2c0.4,0.1,0.8,0.2,0.8,0.2c0.1,0,0.2,0.2,0.2,0.3s-0.2,0.2-0.3,0.2
							c0,0-0.4-0.1-0.8-0.2c-0.4-0.1-0.8-0.2-0.8-0.2c-0.1,0-0.2-0.2-0.2-0.4C337.1,494.1,337.2,494,337.4,494.1z"/>
					</g>
					<g id="XMLID_1094_">
						<path id="XMLID_1098_" d="M335.2,493.4l1.6,0.5c0.1,0,0.2,0.2,0.2,0.4s-0.2,0.2-0.4,0.2l-1.7-0.5c-0.1,0-0.2-0.2-0.2-0.4
							S335.1,493.3,335.2,493.4z"/>
						<path id="XMLID_1097_" d="M332.1,492.3l1.6,0.6c0.1,0.1,0.2,0.2,0.2,0.4c-0.1,0.1-0.2,0.2-0.4,0.2l-1.6-0.6
							c-0.1-0.1-0.2-0.2-0.2-0.4C331.8,492.3,332,492.2,332.1,492.3z"/>
						<path id="XMLID_1096_" d="M329.1,491l1.6,0.7c0.1,0.1,0.2,0.2,0.1,0.4s-0.2,0.2-0.4,0.1l-1.6-0.7c-0.1-0.1-0.2-0.2-0.1-0.4
							C328.8,491,329,490.9,329.1,491z"/>
						<path id="XMLID_1095_" d="M326.2,489.6l1.5,0.8c0.1,0.1,0.2,0.2,0.1,0.4c-0.1,0.1-0.2,0.2-0.4,0.1l-1.6-0.8
							c-0.1-0.1-0.2-0.2-0.1-0.4C325.8,489.6,326,489.5,326.2,489.6z"/>
					</g>
					<g id="XMLID_1089_">
						<path id="XMLID_1093_" d="M324.1,488.5c0,0,0.4,0.2,0.7,0.4c0.4,0.2,0.8,0.4,0.8,0.4c0.1,0.1,0.2,0.2,0.1,0.4
							c-0.1,0.1-0.2,0.2-0.4,0.1c0,0-0.4-0.2-0.8-0.4c-0.4-0.2-0.8-0.4-0.8-0.4c-0.1-0.1-0.2-0.3-0.1-0.4
							C323.8,488.5,324,488.4,324.1,488.5z"/>
						<path id="XMLID_1092_" d="M321.3,486.8c0,0,0.4,0.2,0.7,0.5c0.4,0.2,0.7,0.4,0.7,0.4c0.1,0.1,0.2,0.2,0.1,0.4
							s-0.3,0.2-0.4,0.1c0,0-0.4-0.2-0.8-0.4c-0.4-0.2-0.7-0.5-0.7-0.5c-0.1-0.1-0.2-0.3-0.1-0.4C321,486.8,321.2,486.8,321.3,486.8
							z"/>
						<path id="XMLID_1091_" d="M318.6,485c0,0,0.4,0.2,0.7,0.5c0.4,0.2,0.7,0.5,0.7,0.5c0.1,0.1,0.2,0.3,0.1,0.4
							c-0.1,0.1-0.3,0.2-0.4,0.1c0,0-0.4-0.2-0.7-0.5c-0.4-0.2-0.7-0.5-0.7-0.5c-0.1-0.1-0.2-0.3-0.1-0.4
							C318.3,485,318.5,484.9,318.6,485z"/>
						<path id="XMLID_1090_" d="M316,483.1l1.4,1c0.1,0.1,0.2,0.3,0.1,0.4s-0.3,0.2-0.4,0.1l-1.4-1c-0.1-0.1-0.1-0.3-0.1-0.4
							C315.7,483,315.8,483,316,483.1z"/>
					</g>
					<g id="XMLID_1084_">
						<path id="XMLID_1088_" d="M314.2,481.6l1.3,1.1c0.1,0.1,0.1,0.3,0,0.4c-0.1,0.1-0.3,0.1-0.4,0l-1.3-1.1
							c-0.1-0.1-0.1-0.3,0-0.4C313.9,481.6,314.1,481.5,314.2,481.6z"/>
						<path id="XMLID_1087_" d="M311.7,479.5c0,0,0.3,0.3,0.7,0.6c0.3,0.3,0.7,0.5,0.7,0.5c0.1,0.1,0.1,0.3,0,0.4
							c-0.1,0.1-0.3,0.1-0.4,0c0,0-0.3-0.3-0.7-0.6c-0.3-0.3-0.7-0.6-0.7-0.6c-0.1-0.1-0.1-0.3,0-0.4l0,0
							C311.4,479.5,311.5,479.4,311.7,479.5z"/>
						<path id="XMLID_1086_" d="M309.2,477.3l1.3,1.2c0.1,0.1,0.1,0.3,0,0.4s-0.3,0.1-0.4,0l-1.3-1.2c-0.1-0.1-0.1-0.3,0-0.4h0
							C308.9,477.2,309.1,477.2,309.2,477.3z"/>
						<path id="XMLID_1085_" d="M306.9,475.1l1.2,1.2c0.1,0.1,0.1,0.3,0,0.4c-0.1,0.1-0.3,0.1-0.4,0l-1.2-1.2
							c-0.1-0.1-0.1-0.3,0-0.4C306.6,475,306.8,475,306.9,475.1z"/>
					</g>
					<g id="XMLID_1079_">
						<path id="XMLID_1083_" d="M305.3,473.4l1.2,1.2c0.1,0.1,0.1,0.3,0,0.4s-0.3,0.1-0.4,0l-1.2-1.2c-0.1-0.1-0.1-0.3,0-0.4
							C305,473.3,305.1,473.3,305.3,473.4z"/>
						<path id="XMLID_1082_" d="M303,471l1.2,1.3c0.1,0.1,0.1,0.3,0,0.4s-0.3,0.1-0.4,0l-1.2-1.3c-0.1-0.1-0.1-0.3,0-0.4
							C302.8,470.9,302.9,470.9,303,471z"/>
						<path id="XMLID_1081_" d="M300.9,468.6l1.1,1.3c0.1,0.1,0.1,0.3,0,0.4c-0.1,0.1-0.3,0.1-0.4,0l-1.1-1.3
							c-0.1-0.1-0.1-0.3,0-0.4C300.6,468.4,300.8,468.4,300.9,468.6z"/>
						<path id="XMLID_1080_" d="M298.8,466c0,0,0.3,0.3,0.5,0.7c0.3,0.3,0.6,0.7,0.6,0.7c0.1,0.1,0.1,0.3,0,0.4s-0.3,0.1-0.4,0
							c0,0-0.3-0.3-0.6-0.7c-0.3-0.3-0.5-0.7-0.5-0.7c-0.1-0.1-0.1-0.3,0.1-0.4C298.5,465.9,298.7,465.9,298.8,466z"/>
					</g>
					<g id="XMLID_1074_">
						<path id="XMLID_1078_" d="M297.4,464.2l1,1.4c0.1,0.1,0.1,0.3-0.1,0.4c-0.1,0.1-0.3,0.1-0.4-0.1l-1.1-1.4
							c-0.1-0.1-0.1-0.3,0.1-0.4C297.1,464.1,297.3,464.1,297.4,464.2z"/>
						<path id="XMLID_1077_" d="M295.5,461.6c0,0,0.2,0.4,0.5,0.7c0.2,0.4,0.5,0.7,0.5,0.7c0.1,0.1,0.1,0.3-0.1,0.4
							c-0.1,0.1-0.3,0.1-0.4-0.1c0,0-0.3-0.3-0.5-0.7c-0.2-0.4-0.5-0.7-0.5-0.7c-0.1-0.1-0.1-0.3,0.1-0.4
							C295.2,461.4,295.4,461.4,295.5,461.6z"/>
						<path id="XMLID_1076_" d="M293.6,458.9l1,1.4c0.1,0.1,0.1,0.3-0.1,0.4s-0.3,0.1-0.4-0.1l-1-1.4c-0.1-0.1,0-0.3,0.1-0.4
							C293.4,458.7,293.5,458.7,293.6,458.9z"/>
						<path id="XMLID_1075_" d="M291.9,456.1l0.9,1.5c0.1,0.1,0,0.3-0.1,0.4c-0.1,0.1-0.3,0-0.4-0.1l-0.9-1.5
							c-0.1-0.1,0-0.3,0.1-0.4C291.6,455.9,291.8,456,291.9,456.1z"/>
					</g>
					<g id="XMLID_1069_">
						<path id="XMLID_1073_" d="M290.7,454.1c0,0,0.2,0.4,0.4,0.7c0.2,0.4,0.5,0.7,0.5,0.7c0.1,0.1,0,0.3-0.1,0.4s-0.3,0-0.4-0.1
							c0,0-0.2-0.4-0.5-0.7c-0.2-0.4-0.4-0.7-0.4-0.7c-0.1-0.1,0-0.3,0.1-0.4C290.4,454,290.6,454,290.7,454.1z"/>
						<path id="XMLID_1072_" d="M289,451.3l0.9,1.5c0.1,0.1,0,0.3-0.1,0.4c-0.1,0.1-0.3,0-0.4-0.1l-0.9-1.5c-0.1-0.1,0-0.3,0.1-0.4
							C288.8,451.1,288.9,451.2,289,451.3z"/>
						<path id="XMLID_1071_" d="M287.5,448.4l0.8,1.5c0.1,0.1,0,0.3-0.1,0.4s-0.3,0-0.4-0.1l-0.8-1.5c-0.1-0.1,0-0.3,0.1-0.4
							C287.2,448.2,287.4,448.3,287.5,448.4z"/>
						<path id="XMLID_1070_" d="M286,445.5l0.8,1.6c0.1,0.1,0,0.3-0.1,0.4c-0.1,0.1-0.3,0-0.4-0.1l-0.8-1.6c-0.1-0.1,0-0.3,0.1-0.4
							C285.7,445.3,285.9,445.3,286,445.5z"/>
					</g>
					<g id="XMLID_1064_">
						<path id="XMLID_1068_" d="M285,443.4l0.8,1.6c0.1,0.1,0,0.3-0.1,0.4c-0.1,0.1-0.3,0-0.4-0.1l-0.8-1.6c-0.1-0.1,0-0.3,0.1-0.4
							C284.7,443.2,284.9,443.3,285,443.4z"/>
						<path id="XMLID_1067_" d="M283.6,440.4l0.7,1.6c0.1,0.1,0,0.3-0.1,0.4c-0.1,0.1-0.3,0-0.4-0.1l-0.7-1.6
							c-0.1-0.1,0-0.3,0.1-0.4C283.4,440.2,283.5,440.3,283.6,440.4z"/>
						<path id="XMLID_1066_" d="M282.3,437.4l0.7,1.6c0.1,0.1,0,0.3-0.1,0.4l0,0c-0.1,0.1-0.3,0-0.4-0.1l-0.7-1.6
							c-0.1-0.1,0-0.3,0.2-0.4C282.1,437.2,282.2,437.3,282.3,437.4z"/>
						<path id="XMLID_1065_" d="M281,434.4c0,0,0.2,0.4,0.3,0.8c0.2,0.4,0.3,0.8,0.3,0.8c0.1,0.1,0,0.3-0.2,0.4
							c-0.1,0.1-0.3,0-0.4-0.2c0,0-0.2-0.4-0.3-0.8c-0.2-0.4-0.3-0.8-0.3-0.8c-0.1-0.1,0-0.3,0.2-0.4S281,434.2,281,434.4z"/>
					</g>
					<g id="XMLID_1059_">
						<path id="XMLID_1063_" d="M280.2,432.3l0.6,1.6c0.1,0.1,0,0.3-0.2,0.4s-0.3,0-0.4-0.2l-0.6-1.6c-0.1-0.1,0-0.3,0.2-0.4
							S280.2,432.1,280.2,432.3z"/>
						<path id="XMLID_1062_" d="M279.1,429.2l0.6,1.6c0.1,0.1,0,0.3-0.2,0.4s-0.3,0-0.4-0.2l-0.6-1.6c-0.1-0.1,0-0.3,0.2-0.4l0,0
							C278.9,429,279,429,279.1,429.2z"/>
						<path id="XMLID_1061_" d="M278,426.1l0.6,1.6c0.1,0.1,0,0.3-0.2,0.4c-0.1,0.1-0.3,0-0.4-0.2l-0.6-1.6c-0.1-0.1,0-0.3,0.2-0.4
							C277.8,425.9,277.9,425.9,278,426.1z"/>
						<path id="XMLID_1060_" d="M276.9,423l0.5,1.6c0,0.1,0,0.3-0.2,0.4c-0.1,0-0.3,0-0.4-0.2l-0.5-1.6c0-0.1,0-0.3,0.2-0.4
							C276.7,422.7,276.9,422.8,276.9,423z"/>
					</g>
					<g id="XMLID_1054_">
						<path id="XMLID_1058_" d="M276.2,420.8c0,0,0.1,0.4,0.3,0.8c0.1,0.4,0.3,0.8,0.3,0.8c0,0.1,0,0.3-0.2,0.4
							c-0.1,0-0.3,0-0.4-0.2c0,0-0.1-0.4-0.3-0.8c-0.1-0.4-0.3-0.8-0.3-0.8c0-0.1,0-0.3,0.2-0.4C276,420.6,276.2,420.6,276.2,420.8z
							"/>
						<path id="XMLID_1057_" d="M275.3,417.6l0.5,1.7c0,0.1,0,0.3-0.2,0.4c-0.1,0-0.3,0-0.4-0.2l-0.5-1.7c0-0.1,0-0.3,0.2-0.4
							C275.1,417.4,275.2,417.5,275.3,417.6z"/>
						<path id="XMLID_1056_" d="M274.3,414.5l0.5,1.7c0,0.1,0,0.3-0.2,0.3s-0.3,0-0.3-0.2l-0.5-1.7c0-0.1,0-0.3,0.2-0.3
							S274.3,414.3,274.3,414.5z"/>
						<path id="XMLID_1055_" d="M273.4,411.3l0.5,1.7c0,0.1,0,0.3-0.2,0.3s-0.3,0-0.3-0.2l-0.5-1.7c0-0.1,0-0.3,0.2-0.3l0,0
							C273.3,411.1,273.4,411.2,273.4,411.3z"/>
					</g>
					<g id="XMLID_1049_">
						<path id="XMLID_1053_" d="M272.8,409.1l0.5,1.7c0,0.1,0,0.3-0.2,0.3l0,0c-0.1,0-0.3,0-0.3-0.2l-0.5-1.7c0-0.1,0-0.3,0.2-0.3
							C272.7,408.9,272.8,409,272.8,409.1z"/>
						<path id="XMLID_1052_" d="M272,405.9l0.4,1.7c0,0.1,0,0.3-0.2,0.3c-0.1,0-0.3-0.1-0.3-0.2l-0.4-1.7c0-0.2,0.1-0.3,0.2-0.3
							C271.8,405.7,272,405.8,272,405.9z"/>
						<path id="XMLID_1051_" d="M271.2,402.8l0.4,1.7c0,0.1-0.1,0.3-0.2,0.3c-0.2,0-0.3-0.1-0.3-0.2l-0.4-1.7c0-0.2,0.1-0.3,0.2-0.3
							C271,402.5,271.2,402.6,271.2,402.8z"/>
						<path id="XMLID_1050_" d="M270.4,399.6l0.4,1.7c0,0.2-0.1,0.3-0.2,0.3c-0.2,0-0.3-0.1-0.3-0.2l-0.4-1.7c0-0.2,0.1-0.3,0.2-0.3
							C270.2,399.3,270.4,399.4,270.4,399.6z"/>
					</g>
					<g id="XMLID_1044_">
						<path id="XMLID_1048_" d="M269.9,397.3l0.4,1.7c0,0.2-0.1,0.3-0.2,0.3c-0.2,0-0.3-0.1-0.3-0.2l-0.4-1.7c0-0.2,0.1-0.3,0.2-0.3
							h0C269.7,397.1,269.9,397.2,269.9,397.3z"/>
						<path id="XMLID_1047_" d="M269.1,394.1l0.4,1.7c0,0.2-0.1,0.3-0.2,0.3l0,0c-0.2,0-0.3-0.1-0.3-0.2l-0.4-1.7
							c0-0.2,0.1-0.3,0.2-0.3C269,393.9,269.1,394,269.1,394.1z"/>
						<path id="XMLID_1046_" d="M268.4,390.9l0.4,1.7c0,0.2-0.1,0.3-0.2,0.3c-0.2,0-0.3-0.1-0.3-0.2l-0.4-1.7c0-0.2,0.1-0.3,0.2-0.3
							C268.2,390.7,268.4,390.8,268.4,390.9z"/>
						<path id="XMLID_1045_" d="M267.7,387.7l0.4,1.7c0,0.2-0.1,0.3-0.2,0.3c-0.2,0-0.3-0.1-0.3-0.2l-0.4-1.7c0-0.2,0.1-0.3,0.2-0.3
							C267.5,387.5,267.7,387.6,267.7,387.7z"/>
					</g>
					<g id="XMLID_1039_">
						<path id="XMLID_1043_" d="M267.2,385.5l0.4,1.7c0,0.2-0.1,0.3-0.2,0.3c-0.2,0-0.3-0.1-0.3-0.2l-0.4-1.7c0-0.2,0.1-0.3,0.2-0.3
							C267,385.2,267.2,385.3,267.2,385.5z"/>
						<path id="XMLID_1042_" d="M266.5,382.3l0.4,1.7c0,0.2-0.1,0.3-0.2,0.3c-0.2,0-0.3-0.1-0.3-0.2l-0.4-1.7c0-0.2,0.1-0.3,0.2-0.3
							C266.3,382,266.5,382.1,266.5,382.3z"/>
						<path id="XMLID_1041_" d="M265.8,379l0.4,1.7c0,0.2-0.1,0.3-0.2,0.3s-0.3-0.1-0.3-0.2l-0.4-1.7c0-0.2,0.1-0.3,0.2-0.3
							C265.6,378.8,265.8,378.9,265.8,379z"/>
						<path id="XMLID_1040_" d="M265.1,375.8l0.4,1.7c0,0.2-0.1,0.3-0.2,0.3c-0.2,0-0.3-0.1-0.3-0.2l-0.4-1.7c0-0.2,0.1-0.3,0.2-0.3
							C265,375.6,265.1,375.7,265.1,375.8z"/>
					</g>
					<g id="XMLID_1034_">
						<path id="XMLID_1038_" d="M264.7,373.6l0.4,1.7c0,0.2-0.1,0.3-0.2,0.3c-0.2,0-0.3-0.1-0.3-0.2l-0.4-1.7c0-0.2,0.1-0.3,0.2-0.3
							C264.5,373.3,264.6,373.4,264.7,373.6z"/>
						<path id="XMLID_1037_" d="M264,370.4l0.4,1.7c0,0.2-0.1,0.3-0.2,0.3s-0.3-0.1-0.3-0.2l-0.4-1.7c0-0.2,0.1-0.3,0.2-0.3
							S263.9,370.2,264,370.4z"/>
						<path id="XMLID_1036_" d="M263.3,367.1l0.4,1.7c0,0.2-0.1,0.3-0.2,0.3c-0.2,0-0.3-0.1-0.3-0.2l-0.4-1.7c0-0.2,0.1-0.3,0.2-0.3
							l0,0C263.1,366.9,263.3,367,263.3,367.1z"/>
						<path id="XMLID_1035_" d="M262.6,363.9l0.4,1.7c0,0.2-0.1,0.3-0.2,0.3s-0.3-0.1-0.3-0.2L262,364c0-0.2,0.1-0.3,0.2-0.3
							C262.4,363.7,262.6,363.8,262.6,363.9z"/>
					</g>
					<g id="XMLID_1029_">
						<path id="XMLID_1033_" d="M262.1,361.7l0.4,1.7c0,0.2-0.1,0.3-0.2,0.3c-0.2,0-0.3-0.1-0.3-0.2l-0.4-1.7c0-0.2,0.1-0.3,0.2-0.3
							C261.9,361.4,262.1,361.5,262.1,361.7z"/>
						<path id="XMLID_1032_" d="M261.4,358.5l0.4,1.7c0,0.2-0.1,0.3-0.2,0.3c-0.2,0-0.3-0.1-0.3-0.2l-0.4-1.7c0-0.2,0.1-0.3,0.2-0.3
							C261.2,358.2,261.4,358.3,261.4,358.5z"/>
						<path id="XMLID_1031_" d="M260.7,355.3l0.4,1.7c0,0.2-0.1,0.3-0.2,0.3l0,0c-0.2,0-0.3-0.1-0.3-0.2l-0.4-1.7
							c0-0.2,0.1-0.3,0.2-0.3C260.5,355,260.6,355.1,260.7,355.3z"/>
						<path id="XMLID_1030_" d="M259.9,352.1l0.4,1.7c0,0.2-0.1,0.3-0.2,0.3c-0.2,0-0.3-0.1-0.3-0.2l-0.4-1.7c0-0.2,0.1-0.3,0.2-0.3
							S259.9,351.9,259.9,352.1z"/>
					</g>
					<g id="XMLID_1024_">
						<path id="XMLID_1028_" d="M259.4,349.8l0.4,1.7c0,0.2-0.1,0.3-0.2,0.3c-0.2,0-0.3-0.1-0.3-0.2l-0.4-1.7c0-0.2,0.1-0.3,0.2-0.3
							C259.2,349.6,259.4,349.7,259.4,349.8z"/>
						<path id="XMLID_1027_" d="M258.7,346.6l0.4,1.7c0,0.2-0.1,0.3-0.2,0.3c-0.2,0-0.3-0.1-0.3-0.2l-0.4-1.7c0-0.2,0.1-0.3,0.2-0.3
							C258.5,346.4,258.6,346.5,258.7,346.6z"/>
						<path id="XMLID_1026_" d="M257.9,343.4l0.4,1.7c0,0.2-0.1,0.3-0.2,0.3c-0.2,0-0.3-0.1-0.3-0.2l-0.4-1.7c0-0.1,0.1-0.3,0.2-0.3
							l0,0C257.7,343.2,257.8,343.3,257.9,343.4z"/>
						<path id="XMLID_1025_" d="M257.1,340.2l0.4,1.7c0,0.2-0.1,0.3-0.2,0.3s-0.3-0.1-0.3-0.2l-0.4-1.7c0-0.1,0.1-0.3,0.2-0.3
							C256.9,340,257,340.1,257.1,340.2z"/>
					</g>
					<g id="XMLID_1019_">
						<path id="XMLID_1023_" d="M256.5,338l0.4,1.7c0,0.2-0.1,0.3-0.2,0.3c-0.2,0-0.3-0.1-0.3-0.2l-0.4-1.7c0-0.1,0.1-0.3,0.2-0.3
							C256.3,337.8,256.5,337.9,256.5,338z"/>
						<path id="XMLID_1022_" d="M255.7,334.8l0.4,1.7c0,0.1-0.1,0.3-0.2,0.3s-0.3,0-0.3-0.2l-0.4-1.7c0-0.1,0-0.3,0.2-0.3
							C255.5,334.6,255.6,334.7,255.7,334.8z"/>
						<path id="XMLID_1021_" d="M254.8,331.7l0.5,1.7c0,0.1,0,0.3-0.2,0.3c-0.1,0-0.3,0-0.3-0.2l-0.5-1.7c0-0.1,0-0.3,0.2-0.3
							C254.6,331.4,254.7,331.5,254.8,331.7z"/>
						<path id="XMLID_1020_" d="M253.9,328.5l0.5,1.7c0,0.1,0,0.3-0.2,0.3h0c-0.1,0-0.3,0-0.3-0.2l-0.5-1.7c0-0.1,0-0.3,0.2-0.3
							C253.7,328.3,253.8,328.3,253.9,328.5z"/>
					</g>
					<g id="XMLID_1014_">
						<path id="XMLID_1018_" d="M253.2,326.3l0.5,1.7c0,0.1,0,0.3-0.2,0.3s-0.3,0-0.4-0.2l-0.5-1.7c0-0.1,0-0.3,0.2-0.4
							C253,326.1,253.2,326.1,253.2,326.3z"/>
						<path id="XMLID_1017_" d="M252.2,323.1l0.5,1.7c0,0.1,0,0.3-0.2,0.4c-0.1,0-0.3,0-0.4-0.2l-0.5-1.6c0-0.1,0-0.3,0.2-0.4l0,0
							C252,322.9,252.2,323,252.2,323.1z"/>
						<path id="XMLID_1016_" d="M251.2,320l0.5,1.7c0,0.1,0,0.3-0.2,0.4s-0.3,0-0.4-0.2l-0.5-1.6c0-0.1,0-0.3,0.2-0.4l0,0
							C251,319.8,251.2,319.9,251.2,320z"/>
						<path id="XMLID_1015_" d="M250.2,316.9l0.6,1.6c0,0.1,0,0.3-0.2,0.4c-0.1,0-0.3,0-0.4-0.2l-0.6-1.6c0-0.1,0-0.3,0.2-0.4
							C250,316.7,250.1,316.7,250.2,316.9z"/>
					</g>
					<g id="XMLID_1009_">
						<path id="XMLID_1013_" d="M249.4,314.7l0.6,1.6c0,0.1,0,0.3-0.2,0.4s-0.3,0-0.4-0.2l-0.6-1.6c-0.1-0.1,0-0.3,0.2-0.4
							S249.4,314.6,249.4,314.7z"/>
						<path id="XMLID_1012_" d="M248.3,311.6l0.6,1.6c0.1,0.1,0,0.3-0.2,0.4s-0.3,0-0.4-0.2l-0.6-1.6c-0.1-0.1,0-0.3,0.2-0.4
							C248.1,311.4,248.2,311.5,248.3,311.6z"/>
						<path id="XMLID_1011_" d="M247.1,308.5l0.6,1.6c0.1,0.1,0,0.3-0.2,0.4c-0.1,0.1-0.3,0-0.4-0.2l-0.6-1.6
							c-0.1-0.1,0-0.3,0.2-0.4S247.1,308.4,247.1,308.5z"/>
						<path id="XMLID_1010_" d="M245.9,305.5c0,0,0.2,0.4,0.3,0.8c0.2,0.4,0.3,0.8,0.3,0.8c0.1,0.1,0,0.3-0.2,0.4
							c-0.1,0.1-0.3,0-0.4-0.2c0,0-0.2-0.4-0.3-0.8c-0.2-0.4-0.3-0.8-0.3-0.8c-0.1-0.1,0-0.3,0.2-0.4S245.9,305.3,245.9,305.5z"/>
					</g>
					<g id="XMLID_1004_">
						<path id="XMLID_1008_" d="M245,303.4l0.7,1.6c0.1,0.1,0,0.3-0.2,0.4c-0.1,0.1-0.3,0-0.4-0.2l-0.7-1.6c-0.1-0.1,0-0.3,0.2-0.4
							C244.8,303.2,245,303.2,245,303.4z"/>
						<path id="XMLID_1007_" d="M243.7,300.3c0,0,0.2,0.4,0.4,0.8c0.2,0.4,0.3,0.8,0.3,0.8c0.1,0.1,0,0.3-0.2,0.4
							c-0.1,0.1-0.3,0-0.4-0.1c0,0-0.2-0.4-0.3-0.8c-0.2-0.4-0.4-0.8-0.4-0.8c-0.1-0.1,0-0.3,0.1-0.4
							C243.5,300.1,243.7,300.2,243.7,300.3z"/>
						<path id="XMLID_1006_" d="M242.4,297.3l0.7,1.6c0.1,0.1,0,0.3-0.1,0.4c-0.1,0.1-0.3,0-0.4-0.1l-0.7-1.6
							c-0.1-0.1,0-0.3,0.1-0.4C242.2,297.1,242.3,297.2,242.4,297.3z"/>
						<path id="XMLID_1005_" d="M241,294.4l0.8,1.6c0.1,0.1,0,0.3-0.1,0.4c-0.1,0.1-0.3,0-0.4-0.1l-0.8-1.6c-0.1-0.1,0-0.3,0.1-0.4
							l0,0C240.7,294.2,240.9,294.2,241,294.4z"/>
					</g>
					<g id="XMLID_999_">
						<path id="XMLID_1003_" d="M240,292.3l0.8,1.6c0.1,0.1,0,0.3-0.1,0.4l0,0c-0.1,0.1-0.3,0-0.4-0.1l-0.8-1.6
							c-0.1-0.1,0-0.3,0.1-0.4S239.9,292.1,240,292.3z"/>
						<path id="XMLID_1002_" d="M238.5,289.4l0.8,1.5c0.1,0.1,0,0.3-0.1,0.4c-0.1,0.1-0.3,0-0.4-0.1l-0.8-1.5
							c-0.1-0.1,0-0.3,0.1-0.4C238.2,289.2,238.4,289.2,238.5,289.4z"/>
						<path id="XMLID_1001_" d="M236.9,286.4c0,0,0.2,0.4,0.4,0.8c0.2,0.4,0.4,0.8,0.4,0.8c0.1,0.1,0,0.3-0.1,0.4s-0.3,0-0.4-0.1
							c0,0-0.2-0.4-0.4-0.8c-0.2-0.4-0.4-0.8-0.4-0.8c-0.1-0.1,0-0.3,0.1-0.4C236.7,286.3,236.8,286.3,236.9,286.4z"/>
						<path id="XMLID_1000_" d="M235.3,283.6l0.9,1.5c0.1,0.1,0,0.3-0.1,0.4l0,0c-0.1,0.1-0.3,0-0.4-0.1l-0.9-1.5
							c-0.1-0.1,0-0.3,0.1-0.4C235,283.4,235.2,283.4,235.3,283.6z"/>
					</g>
					<g id="XMLID_994_">
						<path id="XMLID_998_" d="M234.1,281.6c0,0,0.2,0.4,0.5,0.7c0.2,0.4,0.4,0.8,0.4,0.8c0.1,0.1,0,0.3-0.1,0.4s-0.3,0-0.4-0.1
							c0,0-0.2-0.4-0.4-0.7c-0.2-0.4-0.4-0.7-0.4-0.7c-0.1-0.1,0-0.3,0.1-0.4C233.9,281.4,234,281.5,234.1,281.6z"/>
						<path id="XMLID_997_" d="M232.4,278.8l0.9,1.5c0.1,0.1,0,0.3-0.1,0.4l0,0c-0.1,0.1-0.3,0-0.4-0.1l-0.9-1.5
							c-0.1-0.1,0-0.3,0.1-0.4C232.2,278.6,232.3,278.7,232.4,278.8z"/>
						<path id="XMLID_996_" d="M230.6,276l1,1.4c0.1,0.1,0,0.3-0.1,0.4c-0.1,0.1-0.3,0-0.4-0.1l-0.9-1.4c-0.1-0.1,0-0.3,0.1-0.4h0
							C230.4,275.8,230.5,275.9,230.6,276z"/>
						<path id="XMLID_995_" d="M228.8,273.3c0,0,0.3,0.3,0.5,0.7c0.2,0.4,0.5,0.7,0.5,0.7c0.1,0.1,0,0.3-0.1,0.4l0,0
							c-0.1,0.1-0.3,0.1-0.4-0.1c0,0-0.2-0.4-0.5-0.7c-0.2-0.4-0.5-0.7-0.5-0.7c-0.1-0.1-0.1-0.3,0.1-0.4
							C228.5,273.1,228.7,273.1,228.8,273.3z"/>
					</g>
					<g id="XMLID_989_">
						<path id="XMLID_993_" d="M227.5,271.4l1,1.4c0.1,0.1,0.1,0.3-0.1,0.4c-0.1,0.1-0.3,0.1-0.4-0.1l-1-1.4
							c-0.1-0.1-0.1-0.3,0.1-0.4C227.2,271.2,227.4,271.3,227.5,271.4z"/>
						<path id="XMLID_992_" d="M225.5,268.7c0,0,0.3,0.3,0.5,0.7c0.3,0.4,0.5,0.7,0.5,0.7c0.1,0.1,0.1,0.3-0.1,0.4
							c-0.1,0.1-0.3,0.1-0.4-0.1c0,0-0.3-0.4-0.5-0.7c-0.3-0.3-0.5-0.7-0.5-0.7c-0.1-0.1-0.1-0.3,0.1-0.4
							C225.3,268.6,225.4,268.6,225.5,268.7z"/>
						<path id="XMLID_991_" d="M223.5,266.1l1.1,1.4c0.1,0.1,0.1,0.3-0.1,0.4c-0.1,0.1-0.3,0.1-0.4-0.1l-1.1-1.4
							c-0.1-0.1-0.1-0.3,0.1-0.4C223.3,266,223.4,266,223.5,266.1z"/>
						<path id="XMLID_990_" d="M221.5,263.5l1.1,1.3c0.1,0.1,0.1,0.3,0,0.4c-0.1,0.1-0.3,0.1-0.4,0l-1.1-1.3c-0.1-0.1-0.1-0.3,0-0.4
							l0,0C221.2,263.4,221.4,263.4,221.5,263.5z"/>
					</g>
					<g id="XMLID_984_">
						<path id="XMLID_988_" d="M220,261.8l1.1,1.3c0.1,0.1,0.1,0.3,0,0.4l0,0c-0.1,0.1-0.3,0.1-0.4,0l-1.1-1.3
							c-0.1-0.1-0.1-0.3,0-0.4S219.9,261.7,220,261.8z"/>
						<path id="XMLID_987_" d="M217.8,259.3l1.2,1.3c0.1,0.1,0.1,0.3,0,0.4l0,0c-0.1,0.1-0.3,0.1-0.4,0l-1.2-1.3
							c-0.1-0.1-0.1-0.3,0-0.4l0,0C217.6,259.2,217.7,259.2,217.8,259.3z"/>
						<path id="XMLID_986_" d="M215.6,256.8l1.2,1.3c0.1,0.1,0.1,0.3,0,0.4c-0.1,0.1-0.3,0.1-0.4,0l-1.2-1.3c-0.1-0.1-0.1-0.3,0-0.4
							l0,0C215.4,256.7,215.5,256.7,215.6,256.8z"/>
						<path id="XMLID_985_" d="M213.4,254.5l1.2,1.2c0.1,0.1,0.1,0.3,0,0.4l0,0c-0.1,0.1-0.3,0.1-0.4,0l-1.2-1.2
							c-0.1-0.1-0.1-0.3,0-0.4l0,0C213.1,254.3,213.2,254.3,213.4,254.5z"/>
					</g>
					<g id="XMLID_979_">
						<path id="XMLID_983_" d="M211.8,252.8l1.2,1.2c0.1,0.1,0.1,0.3,0,0.4l0,0c-0.1,0.1-0.3,0.1-0.4,0l-1.2-1.2
							c-0.1-0.1-0.1-0.3,0-0.4l0,0C211.5,252.7,211.6,252.7,211.8,252.8z"/>
						<path id="XMLID_982_" d="M209.4,250.5l1.3,1.2c0.1,0.1,0.1,0.3,0,0.4l0,0c-0.1,0.1-0.3,0.1-0.4,0l-1.2-1.2
							c-0.1-0.1-0.1-0.3,0-0.4l0,0C209.1,250.4,209.3,250.4,209.4,250.5z"/>
						<path id="XMLID_981_" d="M207,248.3c0,0,0.3,0.3,0.6,0.6c0.3,0.3,0.6,0.6,0.6,0.6c0.1,0.1,0.1,0.3,0,0.4l0,0
							c-0.1,0.1-0.3,0.1-0.4,0c0,0-0.3-0.3-0.6-0.6c-0.3-0.3-0.6-0.6-0.6-0.6c-0.1-0.1-0.1-0.3,0-0.4l0,0
							C206.7,248.2,206.9,248.2,207,248.3z"/>
						<path id="XMLID_980_" d="M204.5,246.1l1.3,1.1c0.1,0.1,0.1,0.3,0,0.4l0,0c-0.1,0.1-0.3,0.1-0.4,0l-1.3-1.1
							c-0.1-0.1-0.1-0.3,0-0.4l0,0C204.2,246,204.4,246,204.5,246.1z"/>
					</g>
					<g id="XMLID_974_">
						<path id="XMLID_978_" d="M202.8,244.6c0,0,0.3,0.3,0.7,0.6c0.3,0.3,0.7,0.6,0.7,0.6c0.1,0.1,0.1,0.3,0,0.4l0,0
							c-0.1,0.1-0.3,0.1-0.4,0c0,0-0.3-0.3-0.6-0.6c-0.3-0.3-0.7-0.6-0.7-0.6c-0.1-0.1-0.1-0.3,0-0.4l0,0
							C202.5,244.5,202.6,244.5,202.8,244.6z"/>
						<path id="XMLID_977_" d="M200.2,242.5l1.3,1.1c0.1,0.1,0.1,0.3,0,0.4v0c-0.1,0.1-0.3,0.1-0.4,0l-1.3-1.1
							c-0.1-0.1-0.1-0.3,0-0.4C199.9,242.4,200.1,242.4,200.2,242.5z"/>
						<path id="XMLID_976_" d="M197.6,240.5c0,0,0.3,0.3,0.7,0.5c0.3,0.3,0.7,0.5,0.7,0.5c0.1,0.1,0.1,0.3,0,0.4l0,0
							c-0.1,0.1-0.3,0.1-0.4,0c0,0-0.3-0.3-0.7-0.5c-0.3-0.3-0.7-0.5-0.7-0.5c-0.1-0.1-0.1-0.3-0.1-0.4
							C197.3,240.4,197.5,240.4,197.6,240.5z"/>
						<path id="XMLID_975_" d="M195,238.5l1.4,1c0.1,0.1,0.1,0.3,0.1,0.4c-0.1,0.1-0.3,0.1-0.4,0.1l-1.4-1c-0.1-0.1-0.1-0.3-0.1-0.4
							C194.7,238.4,194.9,238.4,195,238.5z"/>
					</g>
					<g id="XMLID_969_">
						<path id="XMLID_973_" d="M193.1,237.1c0,0,0.4,0.2,0.7,0.5c0.3,0.3,0.7,0.5,0.7,0.5c0.1,0.1,0.2,0.3,0.1,0.4
							c-0.1,0.1-0.3,0.2-0.4,0.1c0,0-0.3-0.3-0.7-0.5c-0.3-0.3-0.7-0.5-0.7-0.5c-0.1-0.1-0.2-0.3-0.1-0.4l0,0
							C192.8,237.1,193,237,193.1,237.1z"/>
						<path id="XMLID_972_" d="M190.4,235.2l1.4,1c0.1,0.1,0.2,0.3,0.1,0.4l0,0c-0.1,0.1-0.3,0.2-0.4,0.1l-1.4-1
							c-0.1-0.1-0.2-0.3-0.1-0.4C190.1,235.2,190.3,235.1,190.4,235.2z"/>
						<path id="XMLID_971_" d="M187.7,233.4c0,0,0.4,0.2,0.7,0.5c0.4,0.2,0.7,0.5,0.7,0.5c0.1,0.1,0.2,0.3,0.1,0.4l0,0
							c-0.1,0.1-0.3,0.2-0.4,0.1c0,0-0.4-0.2-0.7-0.5c-0.4-0.2-0.7-0.5-0.7-0.5c-0.1-0.1-0.2-0.3-0.1-0.4l0,0
							C187.4,233.3,187.6,233.3,187.7,233.4z"/>
						<path id="XMLID_970_" d="M184.9,231.6l1.5,0.9c0.1,0.1,0.2,0.3,0.1,0.4l0,0c-0.1,0.1-0.3,0.2-0.4,0.1l-1.5-0.9
							c-0.1-0.1-0.2-0.3-0.1-0.4l0,0C184.6,231.6,184.8,231.5,184.9,231.6z"/>
					</g>
					<g id="XMLID_964_">
						<path id="XMLID_968_" d="M183,230.4c0,0,0.4,0.2,0.7,0.5c0.4,0.2,0.7,0.5,0.7,0.5c0.1,0.1,0.2,0.3,0.1,0.4l0,0
							c-0.1,0.1-0.3,0.2-0.4,0.1c0,0-0.4-0.2-0.7-0.5c-0.4-0.2-0.7-0.5-0.7-0.5c-0.1-0.1-0.2-0.3-0.1-0.4l0,0
							C182.7,230.4,182.9,230.3,183,230.4z"/>
						<path id="XMLID_967_" d="M180.1,228.7l1.5,0.9c0.1,0.1,0.2,0.3,0.1,0.4c-0.1,0.1-0.3,0.2-0.4,0.1l-1.5-0.9
							c-0.1-0.1-0.2-0.3-0.1-0.4C179.8,228.7,180,228.6,180.1,228.7z"/>
						<path id="XMLID_966_" d="M177.3,227.1c0,0,0.4,0.2,0.8,0.4c0.4,0.2,0.7,0.4,0.7,0.4c0.1,0.1,0.2,0.3,0.1,0.4
							c-0.1,0.1-0.2,0.2-0.4,0.1c0,0-0.4-0.2-0.7-0.4c-0.4-0.2-0.7-0.4-0.7-0.4c-0.1-0.1-0.2-0.2-0.1-0.4l0,0
							C177,227,177.2,227,177.3,227.1z"/>
						<path id="XMLID_965_" d="M174.4,225.5l1.5,0.8c0.1,0.1,0.2,0.2,0.1,0.4l0,0c-0.1,0.1-0.2,0.2-0.4,0.1l-1.5-0.8
							c-0.1-0.1-0.2-0.2-0.1-0.4l0,0C174.1,225.5,174.3,225.4,174.4,225.5z"/>
					</g>
					<g id="XMLID_959_">
						<path id="XMLID_963_" d="M172.4,224.4l1.5,0.8c0.1,0.1,0.2,0.2,0.1,0.4l0,0c-0.1,0.1-0.2,0.2-0.4,0.1l-1.5-0.8
							c-0.1-0.1-0.2-0.2-0.1-0.4l0,0C172.1,224.4,172.2,224.3,172.4,224.4z"/>
						<path id="XMLID_962_" d="M169.4,222.9l1.6,0.8c0.1,0.1,0.2,0.2,0.1,0.4c-0.1,0.1-0.2,0.2-0.4,0.1l-1.6-0.8
							c-0.1-0.1-0.2-0.2-0.1-0.4C169.1,222.9,169.3,222.9,169.4,222.9z"/>
						<path id="XMLID_961_" d="M166.5,221.5l1.6,0.8c0.1,0.1,0.2,0.2,0.1,0.4l0,0c-0.1,0.1-0.2,0.2-0.4,0.1l-1.6-0.8
							c-0.1-0.1-0.2-0.2-0.1-0.4C166.2,221.5,166.3,221.4,166.5,221.5z"/>
						<path id="XMLID_960_" d="M163.5,220.1l1.6,0.7c0.1,0.1,0.2,0.2,0.1,0.4c-0.1,0.1-0.2,0.2-0.4,0.1l-1.6-0.7
							c-0.1-0.1-0.2-0.2-0.1-0.4S163.4,220,163.5,220.1z"/>
					</g>
					<g id="XMLID_954_">
						<path id="XMLID_958_" d="M161.4,219.1l1.6,0.7c0.1,0.1,0.2,0.2,0.1,0.4c-0.1,0.1-0.2,0.2-0.4,0.1l-1.6-0.7
							c-0.1-0.1-0.2-0.2-0.1-0.4C161.1,219.1,161.3,219.1,161.4,219.1z"/>
						<path id="XMLID_957_" d="M158.4,217.8c0,0,0.4,0.2,0.8,0.3c0.4,0.2,0.8,0.4,0.8,0.4c0.1,0.1,0.2,0.2,0.1,0.4
							c-0.1,0.1-0.2,0.2-0.4,0.1c0,0-0.4-0.2-0.8-0.4c-0.4-0.2-0.8-0.3-0.8-0.3c-0.1-0.1-0.2-0.2-0.1-0.4l0,0
							C158.1,217.8,158.3,217.7,158.4,217.8z"/>
						<path id="XMLID_956_" d="M155.4,216.5l1.6,0.7c0.1,0.1,0.2,0.2,0.2,0.4s-0.2,0.2-0.4,0.2l-1.6-0.7c-0.1-0.1-0.2-0.2-0.2-0.4
							C155,216.5,155.2,216.5,155.4,216.5z"/>
						<path id="XMLID_955_" d="M152.3,215.3l1.6,0.7c0.1,0.1,0.2,0.2,0.2,0.4c-0.1,0.1-0.2,0.2-0.4,0.2l-1.6-0.7
							c-0.1-0.1-0.2-0.2-0.2-0.4C152,215.3,152.2,215.2,152.3,215.3z"/>
					</g>
					<g id="XMLID_949_">
						<path id="XMLID_953_" d="M150.2,214.5l1.6,0.6c0.1,0.1,0.2,0.2,0.2,0.4c-0.1,0.1-0.2,0.2-0.4,0.2L150,215
							c-0.1-0.1-0.2-0.2-0.2-0.4C149.9,214.5,150,214.4,150.2,214.5z"/>
						<path id="XMLID_952_" d="M147.1,213.3l1.6,0.6c0.1,0.1,0.2,0.2,0.2,0.4l0,0c-0.1,0.1-0.2,0.2-0.4,0.2l-1.6-0.6
							c-0.1-0.1-0.2-0.2-0.2-0.4C146.8,213.3,146.9,213.2,147.1,213.3z"/>
						<path id="XMLID_951_" d="M144,212.1c0,0,0.4,0.2,0.8,0.3c0.4,0.2,0.8,0.3,0.8,0.3c0.1,0.1,0.2,0.2,0.2,0.4
							c-0.1,0.1-0.2,0.2-0.4,0.2c0,0-0.4-0.2-0.8-0.3c-0.4-0.2-0.8-0.3-0.8-0.3c-0.1-0.1-0.2-0.2-0.2-0.4
							C143.7,212.1,143.9,212.1,144,212.1z"/>
						<path id="XMLID_950_" d="M141,210.9l1.6,0.6c0.1,0.1,0.2,0.2,0.2,0.4c-0.1,0.1-0.2,0.2-0.4,0.2l-1.6-0.6
							c-0.1-0.1-0.2-0.2-0.2-0.4C140.7,210.9,140.8,210.9,141,210.9z"/>
					</g>
					<g id="XMLID_944_">
						<path id="XMLID_948_" d="M138.8,210.1l1.6,0.6c0.1,0.1,0.2,0.2,0.2,0.4c-0.1,0.1-0.2,0.2-0.4,0.2l-1.6-0.6
							c-0.1-0.1-0.2-0.2-0.2-0.4C138.5,210.1,138.7,210,138.8,210.1z"/>
						<path id="XMLID_947_" d="M135.8,208.8c0,0,0.4,0.2,0.8,0.4c0.4,0.2,0.8,0.3,0.8,0.3c0.1,0.1,0.2,0.2,0.2,0.4l0,0
							c-0.1,0.1-0.2,0.2-0.4,0.2c0,0-0.4-0.2-0.8-0.3c-0.4-0.1-0.8-0.4-0.8-0.4c-0.1-0.1-0.2-0.2-0.1-0.4
							C135.5,208.8,135.7,208.7,135.8,208.8z"/>
						<path id="XMLID_946_" d="M132.8,207.4l1.6,0.8c0.1,0.1,0.2,0.2,0.1,0.4c-0.1,0.1-0.2,0.2-0.4,0.1l-1.6-0.8
							c-0.1-0.1-0.2-0.2-0.1-0.4v0C132.5,207.4,132.7,207.3,132.8,207.4z"/>
						<path id="XMLID_945_" d="M129.9,206l1.6,0.8c0.1,0.1,0.2,0.2,0.1,0.4c-0.1,0.1-0.2,0.2-0.4,0.1l-1.6-0.8
							c-0.1-0.1-0.2-0.2-0.1-0.4C129.6,205.9,129.8,205.9,129.9,206z"/>
					</g>
					<g id="XMLID_939_">
						<path id="XMLID_943_" d="M127.8,204.9c0,0,1.5,0.8,1.5,0.8c0.1,0.1,0.2,0.2,0.1,0.4s-0.2,0.2-0.4,0.1c0,0-1.6-0.7-1.6-0.8
							c-0.1-0.1-0.2-0.3-0.1-0.4C127.5,204.9,127.7,204.9,127.8,204.9z"/>
						<path id="XMLID_942_" d="M125,203.3l1.5,0.9c0.1,0.1,0.2,0.3,0.1,0.4c-0.1,0.1-0.2,0.2-0.4,0.1l-1.5-0.9
							c-0.1-0.1-0.2-0.3-0.1-0.4C124.7,203.3,124.9,203.2,125,203.3z"/>
						<path id="XMLID_941_" d="M122.1,201.7l1.5,0.9c0.1,0.1,0.2,0.2,0.1,0.4c-0.1,0.1-0.3,0.2-0.4,0.1l-1.5-0.9
							c-0.1-0.1-0.2-0.2-0.1-0.4S122,201.6,122.1,201.7z"/>
						<path id="XMLID_940_" d="M119.3,200c0,0,0.4,0.2,0.7,0.5c0.2,0.1,0.4,0.2,0.5,0.3c0.1,0.1,0.2,0.1,0.2,0.1
							c0.1,0.1,0.2,0.2,0.1,0.4c-0.1,0.1-0.3,0.2-0.4,0.1c0,0-0.1-0.1-0.2-0.1c-0.1-0.1-0.3-0.2-0.5-0.3c-0.4-0.2-0.7-0.5-0.7-0.5
							c-0.1-0.1-0.2-0.3-0.1-0.4C119,199.9,119.2,199.9,119.3,200z"/>
					</g>
					<g id="XMLID_934_">
						<path id="XMLID_938_" d="M117.4,198.7l1.4,1c0.1,0.1,0.2,0.3,0.1,0.4c-0.1,0.1-0.3,0.2-0.4,0.1l-1.4-1
							c-0.1-0.1-0.2-0.3-0.1-0.4C117.1,198.7,117.3,198.6,117.4,198.7z"/>
						<path id="XMLID_937_" d="M114.7,196.9l1.4,1c0.1,0.1,0.2,0.3,0.1,0.4v0c-0.1,0.1-0.3,0.2-0.4,0.1l-1.4-1
							c-0.1-0.1-0.2-0.3-0.1-0.4S114.6,196.8,114.7,196.9z"/>
						<path id="XMLID_936_" d="M112,195c0,0,0.3,0.3,0.7,0.5c0.3,0.3,0.7,0.5,0.7,0.5c0.1,0.1,0.2,0.3,0.1,0.4h0
							c-0.1,0.1-0.3,0.2-0.4,0.1c0,0-0.4-0.2-0.7-0.5c-0.3-0.3-0.7-0.5-0.7-0.5c-0.1-0.1-0.2-0.3-0.1-0.4
							C111.7,195,111.9,195,112,195z"/>
						<path id="XMLID_935_" d="M109.4,193.1l1.4,1c0.1,0.1,0.1,0.3,0.1,0.4c-0.1,0.1-0.3,0.2-0.4,0.1l-1.4-1
							c-0.1-0.1-0.1-0.3-0.1-0.4C109.1,193,109.2,193,109.4,193.1z"/>
					</g>
					<g id="XMLID_929_">
						<path id="XMLID_933_" d="M107.5,191.7l1.4,1c0.1,0.1,0.1,0.3,0.1,0.4c-0.1,0.1-0.3,0.1-0.4,0.1l-1.4-1
							c-0.1-0.1-0.1-0.3-0.1-0.4l0,0C107.2,191.6,107.4,191.6,107.5,191.7z"/>
						<path id="XMLID_932_" d="M105,189.7c0,0,0.3,0.3,0.7,0.6c0.3,0.3,0.7,0.5,0.7,0.5c0.1,0.1,0.1,0.3,0,0.4s-0.3,0.1-0.4,0.1
							c0,0-0.3-0.3-0.7-0.5c-0.3-0.3-0.7-0.6-0.7-0.6c-0.1-0.1-0.1-0.3,0-0.4C104.7,189.6,104.8,189.6,105,189.7z"/>
						<path id="XMLID_931_" d="M102.5,187.5l1.3,1.1c0.1,0.1,0.1,0.3,0,0.4s-0.3,0.1-0.4,0l-1.3-1.1c-0.1-0.1-0.1-0.3,0-0.4
							S102.3,187.4,102.5,187.5z"/>
						<path id="XMLID_930_" d="M100,185.4l1.3,1.1c0.1,0.1,0.1,0.3,0,0.4c-0.1,0.1-0.3,0.1-0.4,0l-1.3-1.1c-0.1-0.1-0.1-0.3,0-0.4v0
							C99.7,185.3,99.8,185.3,100,185.4z"/>
					</g>
					<g id="XMLID_924_">
						<path id="XMLID_928_" d="M98.2,183.9c0,0,0.3,0.3,0.6,0.6c0.3,0.3,0.7,0.6,0.7,0.6c0.1,0.1,0.1,0.3,0,0.4v0
							c-0.1,0.1-0.3,0.1-0.4,0c0,0-0.3-0.3-0.7-0.6c-0.3-0.3-0.6-0.6-0.6-0.6c-0.1-0.1-0.1-0.3,0-0.4
							C98,183.8,98.1,183.8,98.2,183.9z"/>
						<path id="XMLID_927_" d="M95.9,181.6l1.3,1.2c0.1,0.1,0.1,0.3,0,0.4l0,0c-0.1,0.1-0.3,0.1-0.4,0l-1.3-1.2
							c-0.1-0.1-0.1-0.3,0-0.4C95.6,181.5,95.8,181.5,95.9,181.6z"/>
						<path id="XMLID_926_" d="M93.5,179.3l1.3,1.2c0.1,0.1,0.1,0.3,0,0.4s-0.3,0.1-0.4,0l-1.3-1.2c-0.1-0.1-0.1-0.3,0-0.4
							S93.4,179.2,93.5,179.3z"/>
						<path id="XMLID_925_" d="M91.2,177l1.2,1.3c0.1,0.1,0.1,0.3,0,0.4c-0.1,0.1-0.3,0.1-0.4,0l-1.2-1.3c-0.1-0.1-0.1-0.3,0-0.4
							C90.9,176.9,91.1,176.9,91.2,177z"/>
					</g>
					<g id="XMLID_919_">
						<path id="XMLID_923_" d="M89.6,175.3l1.2,1.3c0.1,0.1,0.1,0.3,0,0.4s-0.3,0.1-0.4,0l-1.2-1.3c-0.1-0.1-0.1-0.3,0-0.4
							C89.3,175.2,89.5,175.2,89.6,175.3z"/>
						<path id="XMLID_922_" d="M87.4,173l1.2,1.3c0.1,0.1,0.1,0.3,0,0.4c-0.1,0.1-0.3,0.1-0.4,0l-1.2-1.3c-0.1-0.1-0.1-0.3,0-0.4
							l0,0C87.1,172.8,87.3,172.8,87.4,173z"/>
						<path id="XMLID_921_" d="M85.2,170.5l1.1,1.3c0.1,0.1,0.1,0.3,0,0.4c-0.1,0.1-0.3,0.1-0.4,0l-1.1-1.3c-0.1-0.1-0.1-0.3,0-0.4
							C84.9,170.4,85.1,170.4,85.2,170.5z"/>
						<path id="XMLID_920_" d="M83,168l1.1,1.3c0.1,0.1,0.1,0.3,0,0.4s-0.3,0.1-0.4,0l-1.1-1.3c-0.1-0.1-0.1-0.3,0-0.4
							C82.8,167.9,82.9,167.9,83,168z"/>
					</g>
					<g id="XMLID_914_">
						<path id="XMLID_918_" d="M81.5,166.3l1.1,1.3c0.1,0.1,0.1,0.3,0,0.4c-0.1,0.1-0.3,0.1-0.4,0l-1.1-1.3c-0.1-0.1-0.1-0.3,0-0.4
							C81.3,166.1,81.4,166.2,81.5,166.3z"/>
						<path id="XMLID_917_" d="M79.5,163.7c0,0,0.3,0.3,0.5,0.7c0.3,0.3,0.5,0.7,0.5,0.7c0.1,0.1,0.1,0.3,0,0.4s-0.3,0.1-0.4,0
							c0,0-0.3-0.3-0.5-0.7c-0.3-0.3-0.5-0.7-0.5-0.7c-0.1-0.1-0.1-0.3,0-0.4C79.2,163.6,79.4,163.6,79.5,163.7z"/>
						<path id="XMLID_916_" d="M77.4,161.1l1.1,1.4c0.1,0.1,0.1,0.3,0,0.4c-0.1,0.1-0.3,0.1-0.4,0l-1.1-1.4c-0.1-0.1-0.1-0.3,0-0.4
							h0C77.2,161,77.3,161,77.4,161.1z"/>
						<path id="XMLID_915_" d="M75.4,158.6l1.1,1.4c0.1,0.1,0.1,0.3-0.1,0.4c-0.1,0.1-0.3,0.1-0.4-0.1l-1.1-1.4
							c-0.1-0.1-0.1-0.3,0.1-0.4S75.3,158.4,75.4,158.6z"/>
					</g>
					<g id="XMLID_909_">
						<path id="XMLID_913_" d="M74.1,156.7c0,0,0.3,0.4,0.5,0.7c0.2,0.4,0.5,0.7,0.5,0.7c0.1,0.1,0.1,0.3-0.1,0.4s-0.3,0.1-0.4-0.1
							c0,0-0.3-0.3-0.5-0.7c-0.3-0.4-0.5-0.7-0.5-0.7c-0.1-0.1-0.1-0.3,0.1-0.4C73.8,156.6,74,156.6,74.1,156.7z"/>
						<path id="XMLID_912_" d="M72.2,154l1,1.4c0.1,0.1,0.1,0.3-0.1,0.4c-0.1,0.1-0.3,0.1-0.4-0.1l-1-1.4c-0.1-0.1-0.1-0.3,0.1-0.4
							C71.9,153.9,72.1,153.9,72.2,154z"/>
						<path id="XMLID_911_" d="M70.3,151.4l1,1.4c0.1,0.1,0.1,0.3-0.1,0.4c-0.1,0.1-0.3,0.1-0.4-0.1l-1-1.4
							c-0.1-0.1-0.1-0.3,0.1-0.4C70,151.2,70.2,151.2,70.3,151.4z"/>
						<path id="XMLID_910_" d="M68.4,148.6l0.9,1.4c0.1,0.1,0,0.3-0.1,0.4c-0.1,0.1-0.3,0.1-0.4-0.1l-0.9-1.5
							c-0.1-0.1,0-0.3,0.1-0.4C68.2,148.5,68.3,148.5,68.4,148.6z"/>
					</g>
					<g id="XMLID_904_">
						<path id="XMLID_908_" d="M67.2,146.7l0.9,1.4c0.1,0.1,0,0.3-0.1,0.4s-0.3,0.1-0.4-0.1l-0.9-1.5c-0.1-0.1,0-0.3,0.1-0.4
							C66.9,146.6,67.1,146.6,67.2,146.7z"/>
						<path id="XMLID_907_" d="M65.4,144l0.9,1.4c0.1,0.1,0,0.3-0.1,0.4c-0.1,0.1-0.3,0-0.4-0.1l-0.9-1.5c-0.1-0.1,0-0.3,0.1-0.4
							C65.1,143.8,65.3,143.8,65.4,144z"/>
						<path id="XMLID_906_" d="M63.6,141.2l0.9,1.5c0.1,0.1,0,0.3-0.1,0.4c-0.1,0.1-0.3,0-0.4-0.1l-0.9-1.5c-0.1-0.1,0-0.3,0.1-0.4
							C63.4,141,63.5,141,63.6,141.2z"/>
						<path id="XMLID_905_" d="M61.9,138.4l0.9,1.5c0.1,0.1,0,0.3-0.1,0.4c-0.1,0.1-0.3,0-0.4-0.1l-0.9-1.5c-0.1-0.1,0-0.3,0.1-0.4
							C61.7,138.2,61.9,138.2,61.9,138.4z"/>
					</g>
					<g id="XMLID_899_">
						<path id="XMLID_903_" d="M60.8,136.4l0.9,1.5c0.1,0.1,0,0.3-0.1,0.4c-0.1,0.1-0.3,0-0.4-0.1l-0.9-1.5c-0.1-0.1,0-0.3,0.1-0.4
							C60.5,136.2,60.7,136.3,60.8,136.4z"/>
						<path id="XMLID_902_" d="M59.1,133.6l0.8,1.5c0.1,0.1,0,0.3-0.1,0.4s-0.3,0-0.4-0.1l-0.8-1.5c-0.1-0.1,0-0.3,0.1-0.4
							C58.9,133.4,59,133.4,59.1,133.6z"/>
						<path id="XMLID_901_" d="M57.5,130.7l0.8,1.5c0.1,0.1,0,0.3-0.1,0.4h0c-0.1,0.1-0.3,0-0.4-0.1L57,131c-0.1-0.1,0-0.3,0.1-0.4
							S57.4,130.5,57.5,130.7z"/>
						<path id="XMLID_900_" d="M55.9,127.8l0.8,1.5c0.1,0.1,0,0.3-0.1,0.4c-0.1,0.1-0.3,0-0.4-0.1l-0.8-1.5c-0.1-0.1,0-0.3,0.1-0.4
							S55.9,127.7,55.9,127.8z"/>
					</g>
					<g id="XMLID_894_">
						<path id="XMLID_898_" d="M54.9,125.8c0,0,0.2,0.4,0.4,0.8c0.2,0.4,0.4,0.8,0.4,0.8c0.1,0.1,0,0.3-0.1,0.4
							c-0.1,0.1-0.3,0-0.4-0.1c0,0-0.2-0.4-0.4-0.8c-0.2-0.4-0.4-0.8-0.4-0.8c-0.1-0.1,0-0.3,0.1-0.4
							C54.6,125.6,54.8,125.6,54.9,125.8z"/>
						<path id="XMLID_897_" d="M53.4,122.9l0.8,1.5c0.1,0.1,0,0.3-0.1,0.4s-0.3,0-0.4-0.1l-0.8-1.5c-0.1-0.1,0-0.3,0.1-0.4
							C53.1,122.7,53.3,122.7,53.4,122.9z"/>
						<path id="XMLID_896_" d="M51.9,119.9l0.8,1.5c0.1,0.1,0,0.3-0.1,0.4c-0.1,0.1-0.3,0-0.4-0.1l-0.8-1.5c-0.1-0.1,0-0.3,0.1-0.4
							v0C51.6,119.7,51.8,119.8,51.9,119.9z"/>
						<path id="XMLID_895_" d="M50.4,117l0.7,1.6c0.1,0.1,0,0.3-0.1,0.4s-0.3,0-0.4-0.1l-0.7-1.6c-0.1-0.1,0-0.3,0.1-0.4
							C50.2,116.8,50.4,116.8,50.4,117z"/>
					</g>
					<g id="XMLID_889_">
						<path id="XMLID_893_" d="M49.5,114.9l0.7,1.6c0.1,0.1,0,0.3-0.1,0.4s-0.3,0-0.4-0.1l-0.7-1.6c-0.1-0.1,0-0.3,0.1-0.4h0
							C49.2,114.7,49.4,114.8,49.5,114.9z"/>
						<path id="XMLID_892_" d="M48.1,111.9l0.7,1.6c0.1,0.1,0,0.3-0.1,0.4c-0.1,0.1-0.3,0-0.4-0.1l-0.7-1.6c-0.1-0.1,0-0.3,0.1-0.4
							S48,111.8,48.1,111.9z"/>
						<path id="XMLID_891_" d="M46.7,108.9l0.7,1.6c0.1,0.1,0,0.3-0.1,0.4h0c-0.1,0.1-0.3,0-0.4-0.1l-0.7-1.6
							c-0.1-0.1,0-0.3,0.1-0.4C46.5,108.7,46.6,108.8,46.7,108.9z"/>
						<path id="XMLID_890_" d="M45.4,105.9l0.7,1.6c0.1,0.1,0,0.3-0.1,0.4c-0.1,0.1-0.3,0-0.4-0.1l-0.7-1.6c-0.1-0.1,0-0.3,0.1-0.4
							C45.2,105.7,45.3,105.8,45.4,105.9z"/>
					</g>
					<g id="XMLID_884_">
						<path id="XMLID_888_" d="M44.5,103.8l0.7,1.6c0.1,0.1,0,0.3-0.1,0.4s-0.3,0-0.4-0.1L44,104c-0.1-0.1,0-0.3,0.1-0.4
							C44.2,103.6,44.4,103.7,44.5,103.8z"/>
						<path id="XMLID_887_" d="M43.2,100.8l0.6,1.6c0.1,0.1,0,0.3-0.2,0.4c-0.1,0.1-0.3,0-0.4-0.2l-0.7-1.6c-0.1-0.1,0-0.3,0.2-0.4
							C43,100.6,43.2,100.6,43.2,100.8z"/>
						<path id="XMLID_886_" d="M42,97.7l0.6,1.6c0.1,0.1,0,0.3-0.2,0.4c-0.1,0.1-0.3,0-0.4-0.2l-0.7-1.6c-0.1-0.1,0-0.3,0.2-0.4
							C41.8,97.5,41.9,97.6,42,97.7z"/>
						<path id="XMLID_885_" d="M40.7,94.7l0.6,1.6c0.1,0.1,0,0.3-0.2,0.4c-0.1,0.1-0.3,0-0.4-0.2l-0.6-1.6c-0.1-0.1,0-0.3,0.2-0.4
							C40.5,94.5,40.7,94.5,40.7,94.7z"/>
					</g>
					<g id="XMLID_879_">
						<path id="XMLID_883_" d="M39.9,92.5l0.6,1.6c0.1,0.1,0,0.3-0.2,0.4c-0.1,0.1-0.3,0-0.4-0.2l-0.6-1.6c-0.1-0.1,0-0.3,0.2-0.4
							C39.7,92.3,39.9,92.4,39.9,92.5z"/>
						<path id="XMLID_882_" d="M38.8,89.5l0.6,1.6c0.1,0.1,0,0.3-0.2,0.4c-0.1,0.1-0.3,0-0.4-0.2l-0.6-1.6c-0.1-0.1,0-0.3,0.2-0.4
							C38.6,89.2,38.7,89.3,38.8,89.5z"/>
						<path id="XMLID_881_" d="M37.6,86.4c0,0,0.1,0.4,0.3,0.8c0.2,0.4,0.3,0.8,0.3,0.8c0.1,0.1,0,0.3-0.2,0.4
							c-0.1,0.1-0.3,0-0.4-0.2c0,0-0.2-0.4-0.3-0.8c-0.1-0.4-0.3-0.8-0.3-0.8c-0.1-0.1,0-0.3,0.2-0.4C37.4,86.2,37.6,86.2,37.6,86.4
							z"/>
						<path id="XMLID_880_" d="M36.6,83.3l0.6,1.6c0.1,0.1,0,0.3-0.2,0.4c-0.1,0.1-0.3,0-0.4-0.2L36,83.5c-0.1-0.1,0-0.3,0.2-0.4
							S36.5,83.1,36.6,83.3z"/>
					</g>
					<g id="XMLID_874_">
						<path id="XMLID_878_" d="M35.8,81.1l0.6,1.6c0.1,0.1,0,0.3-0.2,0.4s-0.3,0-0.4-0.2l-0.6-1.6c-0.1-0.1,0-0.3,0.2-0.4
							C35.6,80.9,35.8,81,35.8,81.1z"/>
						<path id="XMLID_877_" d="M34.8,78c0,0,0.1,0.4,0.3,0.8c0.1,0.4,0.3,0.8,0.3,0.8c0.1,0.1,0,0.3-0.2,0.4h0c-0.1,0-0.3,0-0.4-0.2
							c0,0-0.1-0.4-0.3-0.8c-0.1-0.4-0.3-0.8-0.3-0.8c0-0.1,0-0.3,0.2-0.4S34.7,77.9,34.8,78z"/>
						<path id="XMLID_876_" d="M33.8,74.9l0.5,1.6c0,0.1,0,0.3-0.2,0.4c-0.1,0-0.3,0-0.4-0.2L33.2,75c0-0.1,0-0.3,0.2-0.4
							C33.6,74.6,33.7,74.7,33.8,74.9z"/>
						<path id="XMLID_875_" d="M32.8,71.7l0.5,1.6c0,0.1,0,0.3-0.2,0.4c-0.1,0-0.3,0-0.4-0.2l-0.5-1.7c0-0.1,0-0.3,0.2-0.4
							C32.6,71.5,32.7,71.6,32.8,71.7z"/>
					</g>
					<g id="XMLID_869_">
						<path id="XMLID_873_" d="M32.1,69.5l0.5,1.7c0,0.1,0,0.3-0.2,0.4c-0.1,0-0.3,0-0.4-0.2l-0.5-1.7c0-0.1,0-0.3,0.2-0.4
							C31.9,69.3,32.1,69.4,32.1,69.5z"/>
						<path id="XMLID_872_" d="M31.2,66.4l0.5,1.7c0,0.1,0,0.3-0.2,0.4c-0.1,0-0.3,0-0.3-0.2l-0.5-1.7c0-0.1,0-0.3,0.2-0.3h0
							C31,66.2,31.1,66.2,31.2,66.4z"/>
						<path id="XMLID_871_" d="M30.2,63.2l0.5,1.7c0,0.1,0,0.3-0.2,0.3c-0.1,0-0.3,0-0.3-0.2l-0.5-1.7c0-0.1,0-0.3,0.2-0.3
							C30,63,30.2,63.1,30.2,63.2z"/>
						<path id="XMLID_870_" d="M29.4,60.1l0.4,1.7c0,0.1,0,0.3-0.2,0.3c-0.1,0-0.3,0-0.3-0.2l-0.4-1.7c0-0.1,0-0.3,0.2-0.3
							S29.3,59.9,29.4,60.1z"/>
					</g>
					<g id="XMLID_864_">
						<path id="XMLID_868_" d="M28.8,57.9l0.4,1.7c0,0.1,0,0.3-0.2,0.3c-0.1,0-0.3,0-0.3-0.2L28.2,58c0-0.1,0-0.3,0.2-0.3
							C28.6,57.6,28.8,57.7,28.8,57.9z"/>
						<path id="XMLID_867_" d="M28,54.7c0,0,0.1,0.4,0.2,0.8c0.1,0.4,0.2,0.8,0.2,0.8c0,0.1,0,0.3-0.2,0.3s-0.3-0.1-0.3-0.2
							c0,0-0.1-0.4-0.2-0.8c-0.1-0.4-0.2-0.8-0.2-0.8c0-0.2,0.1-0.3,0.2-0.3C27.8,54.4,27.9,54.5,28,54.7z"/>
						<path id="XMLID_866_" d="M27.2,51.5l0.4,1.7c0,0.2-0.1,0.3-0.2,0.3c-0.2,0-0.3-0.1-0.3-0.2l-0.4-1.7c0-0.2,0.1-0.3,0.2-0.3
							C27,51.2,27.1,51.3,27.2,51.5z"/>
						<path id="XMLID_865_" d="M26.4,48.3l0.4,1.7c0,0.2-0.1,0.3-0.2,0.3c-0.2,0-0.3-0.1-0.3-0.2l-0.4-1.7c0-0.2,0.1-0.3,0.2-0.3
							C26.2,48,26.4,48.1,26.4,48.3z"/>
					</g>
					<g id="XMLID_859_">
						<path id="XMLID_863_" d="M25.9,46.1l0.4,1.7c0,0.2-0.1,0.3-0.2,0.3c-0.2,0-0.3-0.1-0.3-0.2l-0.4-1.7c0-0.2,0.1-0.3,0.2-0.3
							C25.7,45.8,25.9,45.9,25.9,46.1z"/>
						<path id="XMLID_862_" d="M25.2,42.8l0.4,1.7c0,0.2-0.1,0.3-0.2,0.3c-0.2,0-0.3-0.1-0.3-0.2L24.6,43c0-0.2,0.1-0.3,0.2-0.3
							C25,42.6,25.1,42.7,25.2,42.8z"/>
						<path id="XMLID_861_" d="M24.5,39.6c0,0,0.1,0.4,0.2,0.8c0.1,0.4,0.2,0.8,0.2,0.8c0,0.2-0.1,0.3-0.2,0.3s-0.3-0.1-0.3-0.2
							c0,0-0.1-0.4-0.2-0.8c-0.1-0.4-0.2-0.8-0.2-0.8c0-0.2,0.1-0.3,0.2-0.3C24.3,39.4,24.5,39.5,24.5,39.6z"/>
						<path id="XMLID_860_" d="M23.9,36.4l0.3,1.7c0,0.2-0.1,0.3-0.2,0.3c-0.2,0-0.3-0.1-0.3-0.2l-0.3-1.7c0-0.2,0.1-0.3,0.2-0.3h0
							C23.7,36.2,23.8,36.3,23.9,36.4z"/>
					</g>
					<g id="XMLID_854_">
						<path id="XMLID_858_" d="M23.4,34.2l0.3,1.7c0,0.2-0.1,0.3-0.2,0.3h0c-0.2,0-0.3-0.1-0.3-0.2l-0.3-1.7c0-0.2,0.1-0.3,0.2-0.3
							C23.2,33.9,23.4,34,23.4,34.2z"/>
						<path id="XMLID_857_" d="M22.8,30.9l0.3,1.7c0,0.2-0.1,0.3-0.2,0.3c-0.2,0-0.3-0.1-0.3-0.2L22.3,31c0-0.2,0.1-0.3,0.2-0.3
							S22.8,30.8,22.8,30.9z"/>
						<path id="XMLID_856_" d="M22.3,27.7l0.3,1.7c0,0.2-0.1,0.3-0.2,0.3S22,29.6,22,29.5l-0.3-1.7c0-0.2,0.1-0.3,0.2-0.3
							C22.1,27.4,22.2,27.5,22.3,27.7z"/>
						<path id="XMLID_855_" d="M21.8,24.4l0.3,1.7c0,0.2-0.1,0.3-0.2,0.3c-0.2,0-0.3-0.1-0.3-0.2l-0.3-1.7c0-0.2,0.1-0.3,0.2-0.3
							C21.6,24.2,21.8,24.3,21.8,24.4z"/>
					</g>
					<g id="XMLID_849_">
						<path id="XMLID_853_" d="M21.4,22.2l0.3,1.7c0,0.2-0.1,0.3-0.2,0.3s-0.3-0.1-0.3-0.2l-0.3-1.7c0-0.2,0.1-0.3,0.2-0.3
							C21.3,21.9,21.4,22,21.4,22.2z"/>
						<path id="XMLID_852_" d="M21,18.9l0.2,1.7c0,0.2-0.1,0.3-0.2,0.3s-0.3-0.1-0.3-0.2L20.4,19c0-0.2,0.1-0.3,0.2-0.3
							S21,18.8,21,18.9z"/>
						<path id="XMLID_851_" d="M20.6,15.7l0.2,1.7c0,0.2-0.1,0.3-0.2,0.3c-0.2,0-0.3-0.1-0.3-0.2L20,15.7c0-0.2,0.1-0.3,0.2-0.3
							S20.6,15.5,20.6,15.7z"/>
						<path id="XMLID_850_" d="M20.3,12.4l0.2,1.7c0,0.2-0.1,0.3-0.3,0.3s-0.3-0.1-0.3-0.3l-0.2-1.7c0-0.2,0.1-0.3,0.3-0.3
							C20.1,12.1,20.2,12.2,20.3,12.4z"/>
					</g>
					<g id="XMLID_844_">
						<path id="XMLID_848_" d="M20,10.1l0.2,1.7c0,0.2-0.1,0.3-0.3,0.3c-0.2,0-0.3-0.1-0.3-0.3l-0.2-1.7c0-0.2,0.1-0.3,0.3-0.3
							C19.9,9.8,20,10,20,10.1z"/>
						<path id="XMLID_847_" d="M19.8,6.8l0.1,1.7c0,0.2-0.1,0.3-0.3,0.3s-0.3-0.1-0.3-0.3l-0.1-1.7c0-0.2,0.1-0.3,0.3-0.3
							C19.7,6.6,19.8,6.7,19.8,6.8z"/>
						<path id="XMLID_846_" d="M19.6,3.6c0,0,0,0.4,0,0.9c0,0.4,0.1,0.9,0.1,0.9c0,0.2-0.1,0.3-0.3,0.3c-0.2,0-0.3-0.1-0.3-0.3
							c0,0,0-0.4-0.1-0.9c0-0.4,0-0.9,0-0.9c0-0.2,0.1-0.3,0.3-0.3C19.5,3.3,19.6,3.4,19.6,3.6z"/>
						<path id="XMLID_845_" d="M19.5,0.3L19.6,2c0,0.2-0.1,0.3-0.3,0.3C19.1,2.3,19,2.2,19,2l-0.1-1.7c0-0.2,0.1-0.3,0.3-0.3
							C19.4,0,19.5,0.1,19.5,0.3z"/>
					</g>
				</g>
			</g>
		</g>
		<linearGradient id="XMLID_317_" gradientUnits="userSpaceOnUse" x1="832.1287" y1="781.5363" x2="462.1606" y2="-69.3901">
			<stop  offset="0" style="stop-color:#181868"/>
			<stop  offset="1" style="stop-color:#522CDA"/>
		</linearGradient>
		<path id="XMLID_144_" class="st0" d="M957.9-0.1c0,0,0,414.1,0,665v81.6c-303,28.2-251.4-188.5-387.6-274.4
			c-72.8-45.9-179.1,50-240.6,0c-79.1-64.3-11.3-212.1-163.1-269.3c-90.1-33.9-120-157-119.8-203H957.9z"/>
		<linearGradient id="XMLID_318_" gradientUnits="userSpaceOnUse" x1="834.1588" y1="700.429" x2="498.6544" y2="-71.2309">
			<stop  offset="0" style="stop-color:#181868"/>
			<stop  offset="1" style="stop-color:#522CDA"/>
		</linearGradient>
		<path id="XMLID_143_" class="st1" d="M956.9-0.1c0,0,0,297.6,0,541.1v123.9c-259,6-217.7-194.8-347.6-276.7
			c-72.8-45.9-179.1,50-240.6,0c-79.1-64.3-11.3-212.1-163.1-269.3c-53.1-20-85.3-71-102.7-119H956.9z"/>
		<linearGradient id="XMLID_319_" gradientUnits="userSpaceOnUse" x1="839.8413" y1="577.0316" x2="561.08" y2="-64.1195">
			<stop  offset="0" style="stop-color:#181868"/>
			<stop  offset="1" style="stop-color:#522CDA"/>
		</linearGradient>
		<path id="XMLID_142_" class="st2" d="M956.9-0.1c0,0,0,297.6,0,541.1c-256,4.3-215.2-195.2-344.6-276.8
			c-72.8-45.9-179.1,49.9-240.6-0.1C294.8,201.7,356.6,60.9,220.9-0.1H956.9z"/>
	</g>
	
		<linearGradient id="glass_1_" gradientUnits="userSpaceOnUse" x1="903.2172" y1="564.062" x2="806.5505" y2="366.062" gradientTransform="matrix(0.973 0.2308 -0.2308 0.973 154.9314 -266.1831)">
		<stop  offset="0" style="stop-color:#181868"/>
		<stop  offset="1" style="stop-color:#522CDA"/>
	</linearGradient>
	<path id="glass" class="st3" d="M876.3,383.1c-17.4,8.2-38.7-0.2-47.3-18.7c-8.6-18.5-1.5-40.1,15.9-48.3c4.7-2.2,9.8-3.3,14.9-3.1
		c4.4,0.3,9.2,1.5,14.3,3.5c1.8,0.9,3.5,1.9,5.2,3c5.5,3.8,10,9.1,12.9,15.4C900.9,353.3,893.8,375,876.3,383.1z M872.6,457.5
		c-4.2-9-4.8-19-1.8-28.2c3-9.1,9.3-16.2,17.7-20.1c17.4-8.2,38.7,0.2,47.3,18.7c4,8.5,4.6,17.6,2.5,25.8c-1.7,5-3.8,9.3-6.3,12.8
		c-3.1,4-7.2,7.4-12.1,9.7c-8.4,3.9-17.9,4.2-26.8,0.7C884.1,473.4,876.8,466.5,872.6,457.5z M815.7,336.8
		c-2.5,10.4-1.6,21.8,3.4,32.3c3.9,8.3,9.7,15,16.6,19.7c13.2,9.1,30.3,11.3,45.3,4.3c2.4-1.1,4.6-2.4,6.6-3.9
		c2.2,1.8,3.3,3.9,3.5,6.7c-0.2,0.3-0.5,0.5-0.8,0.8c-2.2,0.6-4.4,1.4-6.5,2.4c-11.2,5.2-19.5,14.7-23.5,26.6
		c-4,11.8-3.2,24.7,2.3,36.3c3.8,8.1,9.5,14.9,16.6,19.8c1.1,0.8,2.2,1.5,3.4,2.1c0.4,0.2,0.7,0.4,1.1,0.6c4.7,2.5,5.5,2.6,5.5,2.6
		c8.5,3.3,17.4,4,25.8,2.1l0.2,0c7.2,0.6,11.6,2.2,14,5.2l2.7,3.4l17.5-8l-1.4-4.2c-2.3-7.8-2.1-17.1,0.5-27.8l0,0
		c2.8-10.6,2.2-23.1-2.9-34c-7.4-15.9-22.1-26.3-37.9-28.2c-0.2-0.7-0.3-1.7-0.4-2.4c-0.7-3.4-1.2-5.7-2-7.4
		c-0.6-1.2-1.5-2.4-2.6-3.9c-1.1-1.4-2.5-3.2-3.4-5c8.6-13.3,10.3-31,2.8-46.8c-5-10.7-13.4-19.1-23.8-23.9
		c-10.3-5.1-17.6-10.9-22.1-17.6l-2.6-3.9l-17.7,8.2l0.9,4.3c0.7,3.7-0.8,8.1-5,14l-0.2,0.2c-7,5.5-12,12.9-14.8,21.1"/>
</g>
</svg>
