<?xml version="1.0" encoding="utf-8"?>
<!-- Generator: Adobe Illustrator 19.0.0, SVG Export Plug-In . SVG Version: 6.00 Build 0)  -->
<svg version="1.1" id="Layer_1" xmlns="http://www.w3.org/2000/svg" xmlns:xlink="http://www.w3.org/1999/xlink" x="0px" y="0px"
	 viewBox="0 0 733 774" style="enable-background:new 0 0 733 774;" xml:space="preserve">
<style type="text/css">
	.st0{opacity:0.19;fill:#07113D;}
	.st1{fill:#8090BC;}
	.st2{fill:none;stroke:#716F82;stroke-width:7;stroke-linecap:round;stroke-miterlimit:10;}
	.st3{fill:#A3ADD1;}
	.st4{opacity:0.6;fill:#07113D;}
	.st5{fill:#FFFFFF;}
	.st6{fill:#061D48;}
	.st7{fill:#5472C6;}
	.st8{fill:#9995A7;}
	.st9{fill:#D93838;}
	.st10{fill:#F7C946;}
	.st11{fill:#BCDB3A;}
	.st12{fill:#6D7DAA;}
	.st13{fill:#4D6199;}
	.st14{fill:none;stroke:#2C3765;stroke-width:0.7941;stroke-linecap:round;stroke-miterlimit:10;}
	.st15{fill:#FFBE2E;}
	.st16{fill:#EAA64F;}
	.st17{fill:none;stroke:#2C3765;stroke-width:0.5226;stroke-miterlimit:10;}
	.st18{fill:#5485CC;}
	.st19{fill:#F4A891;}
	.st20{fill:#B92B2B;}
	.st21{fill:#B95241;}
	.st22{fill:#DB734C;}
	.st23{fill:#FFC7B0;}
	.st24{fill:#FFC4BC;}
	.st25{fill:none;stroke:#B95241;stroke-width:1.079;stroke-linecap:round;stroke-miterlimit:10;}
	.st26{fill:#07113D;}
	.st27{fill:none;stroke:#07113D;stroke-width:1.1711;stroke-linecap:round;stroke-miterlimit:10;}
	.st28{opacity:0.37;fill:#591239;}
	.st29{fill:#C2C2C7;}
	.st30{fill:#181827;}
	.st31{fill:#591239;}
	.st32{fill:#25253A;}
	.st33{fill:#884C2E;}
	.st34{fill:none;stroke:#07113D;stroke-width:1.1468;stroke-linecap:round;stroke-miterlimit:10;}
	.st35{fill:#A36440;}
	.st36{fill:none;stroke:#07113D;stroke-width:1.1434;stroke-linecap:round;stroke-miterlimit:10;}
	.st37{fill:#2B1B40;}
	.st38{fill:#080B2E;}
	.st39{opacity:0.51;}
	.st40{fill:#85807E;}
	.st41{fill:#E2D2CA;}
	.st42{fill:#706865;}
	.st43{fill:#CCBDB7;}
	.st44{fill:#4667A8;}
	.st45{fill:#B59074;}
	.st46{fill:#323657;}
	.st47{fill:#5F8BE3;}
	.st48{fill:#F5F7FF;}
	.st49{fill:#CECFD6;}
	.st50{fill:#59524F;}
	.st51{display:none;}
	.st52{display:inline;fill:#EEF0F7;}
	.st53{display:inline;}
	.st54{fill:#D9C7C1;}
	.st55{fill:#EEA987;}
	.st56{fill:#E8734D;}
	.st57{fill:#C78D71;}
	.st58{fill:#EDDAD3;}
	.st59{fill:#5073AB;}
	.st60{fill:#435F77;}
	.st61{opacity:0.67;}
	.st62{fill:#561B3A;}
	.st63{fill:#D14343;}
	.st64{fill:#9F293B;}
	.st65{fill:#2C3765;}
	.st66{opacity:0.79;fill:#2C3765;}
	.st67{fill:#96372A;}
	.st68{fill:#FFBD48;}
	.st69{fill:#232D54;}
</style>
<rect x="19.6" y="34.2" class="st0" width="138.9" height="171.8"/>
<rect x="204.1" y="34.2" class="st0" width="138.9" height="171.8"/>
<rect x="388.7" y="34.2" class="st0" width="138.9" height="171.8"/>
<rect x="573.2" y="34.2" class="st0" width="138.9" height="171.8"/>
<rect x="19.6" y="237" class="st0" width="138.9" height="171.8"/>
<rect x="203.6" y="237" class="st0" width="138.9" height="171.8"/>
<rect x="571.8" y="237" class="st0" width="138.9" height="171.8"/>
<rect x="387.7" y="237" class="st0" width="138.9" height="171.8"/>
<rect x="19" y="25.8" class="st1" width="138.9" height="171.8"/>
<rect x="203.6" y="25.8" class="st1" width="138.9" height="171.8"/>
<rect x="388.1" y="25.8" class="st1" width="138.9" height="171.8"/>
<rect x="572.7" y="25.8" class="st1" width="138.9" height="171.8"/>
<rect x="19" y="228.6" class="st1" width="138.9" height="171.8"/>
<rect x="203.1" y="228.6" class="st1" width="138.9" height="171.8"/>
<rect x="571.3" y="228.6" class="st1" width="138.9" height="171.8"/>
<rect x="387.2" y="228.6" class="st1" width="138.9" height="171.8"/>
<line class="st2" x1="585" y1="625.3" x2="719.6" y2="625.3"/>
<line class="st2" x1="53.7" y1="625.3" x2="197" y2="625.3"/>
<g>
	<g>
		<g>
			<rect x="19" y="20.8" class="st3" width="138.9" height="171.8"/>
			<polygon class="st4" points="153.7,178.1 30.5,178.1 26.5,32.7 149.7,32.7 			"/>
		</g>
		<g>
			<rect x="26.8" y="32.2" class="st5" width="123.2" height="140.4"/>
			<circle class="st6" cx="144.2" cy="37.5" r="2.4"/>
			<rect x="40.9" y="50.4" class="st3" width="92.9" height="13.4"/>
			<rect x="40.6" y="76.6" class="st7" width="32" height="18.1"/>
			<rect x="77.9" y="99.5" class="st3" width="32" height="18.1"/>
			<rect x="114.4" y="76.6" class="st8" width="20" height="18.1"/>
			<rect x="114.4" y="99.9" class="st9" width="20" height="18.1"/>
			<g>
				<rect x="78.1" y="91.1" class="st6" width="32" height="1.3"/>
				<rect x="78.1" y="86.5" class="st6" width="32" height="1.3"/>
				<rect x="78.1" y="81.9" class="st6" width="32" height="1.3"/>
				<rect x="78.1" y="77.3" class="st6" width="32" height="1.3"/>
			</g>
			<rect x="40.6" y="122.1" class="st10" width="32" height="18.1"/>
			<rect x="114.4" y="122.1" class="st8" width="20" height="18.1"/>
			<g>
				<rect x="78.1" y="136.6" class="st6" width="32" height="1.3"/>
				<rect x="78.1" y="132" class="st6" width="32" height="1.3"/>
				<rect x="78.1" y="127.4" class="st6" width="32" height="1.3"/>
				<rect x="78.1" y="122.7" class="st6" width="32" height="1.3"/>
			</g>
			<g>
				<rect x="40.5" y="113.3" class="st6" width="32" height="1.3"/>
				<rect x="40.5" y="108.7" class="st6" width="32" height="1.3"/>
				<rect x="40.5" y="104.1" class="st6" width="32" height="1.3"/>
				<rect x="40.5" y="99.5" class="st6" width="32" height="1.3"/>
			</g>
			<circle class="st6" cx="31.6" cy="37.5" r="2.4"/>
		</g>
	</g>
	<g>
		<g>
			<g>
				<rect x="203.6" y="20.8" class="st3" width="138.9" height="171.8"/>
				<polygon class="st4" points="338,178.1 214.8,178.1 210.8,32.7 334,32.7 				"/>
			</g>
			<rect x="211.3" y="32.2" class="st5" width="123.2" height="140.4"/>
			<circle class="st6" cx="328.8" cy="37.5" r="2.4"/>
			<circle class="st6" cx="216.1" cy="37.5" r="2.4"/>
		</g>
		<g id="XMLID_80_">
			<rect id="XMLID_116_" x="248.7" y="59.8" class="st11" width="38.3" height="9.4"/>
			<rect id="XMLID_115_" x="248.7" y="76.4" class="st11" width="54.9" height="9.4"/>
			<rect id="XMLID_114_" x="248.7" y="92.9" class="st11" width="30.5" height="9.4"/>
			<rect id="XMLID_113_" x="279.2" y="92.9" class="st9" width="4.2" height="9.4"/>
			<rect id="XMLID_112_" x="287" y="59.8" class="st9" width="9.5" height="9.4"/>
			<rect id="XMLID_111_" x="248.7" y="109.5" class="st11" width="61.1" height="9.4"/>
			<rect id="XMLID_110_" x="248.7" y="126.2" class="st11" width="38.3" height="9.4"/>
			<rect id="XMLID_109_" x="248.7" y="142.8" class="st11" width="19.2" height="9.4"/>
			<path id="XMLID_108_" class="st12" d="M237.3,66.3v-3.5c0-1.6,1.3-3,3-3h0.4c1.6,0,3,1.3,3,3v3.5c0,1.6-1.3,3-3,3h-0.4
				C238.6,69.2,237.3,67.9,237.3,66.3z"/>
			<path id="XMLID_107_" class="st12" d="M237.3,82.9v-3.5c0-1.6,1.3-3,3-3h0.4c1.6,0,3,1.3,3,3v3.5c0,1.6-1.3,3-3,3h-0.4
				C238.6,85.8,237.3,84.5,237.3,82.9z"/>
			<path id="XMLID_106_" class="st12" d="M237.3,99.4v-3.5c0-1.6,1.3-3,3-3h0.4c1.6,0,3,1.3,3,3v3.5c0,1.6-1.3,3-3,3h-0.4
				C238.6,102.4,237.3,101.1,237.3,99.4z"/>
			<path id="XMLID_105_" class="st12" d="M237.3,116v-3.5c0-1.6,1.3-3,3-3h0.4c1.6,0,3,1.3,3,3v3.5c0,1.6-1.3,3-3,3h-0.4
				C238.6,118.9,237.3,117.6,237.3,116z"/>
			<path id="XMLID_104_" class="st12" d="M237.3,132.7v-3.5c0-1.6,1.3-3,3-3h0.4c1.6,0,3,1.3,3,3v3.5c0,1.6-1.3,3-3,3h-0.4
				C238.6,135.6,237.3,134.3,237.3,132.7z"/>
			<path id="XMLID_103_" class="st12" d="M237.3,149.3v-3.5c0-1.6,1.3-3,3-3h0.4c1.6,0,3,1.3,3,3v3.5c0,1.6-1.3,3-3,3h-0.4
				C238.6,152.2,237.3,150.9,237.3,149.3z"/>
			<rect id="XMLID_102_" x="261.3" y="142.8" class="st9" width="10.7" height="9.4"/>
		</g>
	</g>
	<g>
		<g>
			<g>
				<rect x="388.1" y="20.8" class="st3" width="138.9" height="171.8"/>
				<polygon class="st4" points="523.5,178.1 400.3,178.1 396.3,32.7 519.5,32.7 				"/>
			</g>
			<rect x="395.9" y="32.2" class="st5" width="123.2" height="140.4"/>
			<circle class="st6" cx="513.3" cy="37.5" r="2.4"/>
			<circle class="st6" cx="400.7" cy="37.5" r="2.4"/>
		</g>
		<g>
			<g>
				<rect x="421.6" y="102.9" class="st13" width="51.9" height="3.2"/>
				<rect x="421.6" y="110.1" class="st13" width="81" height="3.2"/>
				<rect x="421.6" y="117.2" class="st13" width="54.6" height="3.2"/>
			</g>
			<ellipse class="st12" cx="415.7" cy="104.5" rx="2.6" ry="2.4"/>
			<ellipse class="st12" cx="415.7" cy="112.5" rx="2.6" ry="2.4"/>
			<ellipse class="st12" cx="415.7" cy="119.6" rx="2.6" ry="2.4"/>
		</g>
		<g>
			<line class="st14" x1="415.5" y1="133.1" x2="459" y2="133.1"/>
			<line class="st14" x1="415.5" y1="146.9" x2="482.1" y2="146.9"/>
			<line class="st14" x1="415.5" y1="137.7" x2="442" y2="137.7"/>
			<line class="st14" x1="415.5" y1="142.3" x2="483.3" y2="142.3"/>
		</g>
		<rect x="413.3" y="57.1" class="st9" width="86.6" height="6.7"/>
		<rect x="413.3" y="69" class="st9" width="86.6" height="6.7"/>
		<rect x="413.3" y="80.9" class="st9" width="86.6" height="6.7"/>
	</g>
	<g>
		<g>
			<g>
				<rect x="572.7" y="20.8" class="st3" width="138.9" height="171.8"/>
				<polygon class="st4" points="707.5,178.1 584.3,178.1 580.3,32.7 703.5,32.7 				"/>
			</g>
			<rect x="580.5" y="32.2" class="st5" width="123.2" height="140.4"/>
			<circle class="st6" cx="697.9" cy="37.5" r="2.4"/>
			<circle class="st6" cx="585.2" cy="37.5" r="2.4"/>
		</g>
		<g>
			<rect x="629" y="56.5" class="st13" width="52.8" height="4"/>
			<rect x="629" y="64" class="st13" width="52.8" height="4"/>
			<rect x="629" y="71.9" class="st13" width="52.8" height="4"/>
		</g>
		<g>
			<rect x="629" y="93.4" class="st13" width="52.8" height="4"/>
			<rect x="629" y="100.9" class="st13" width="52.8" height="4"/>
			<rect x="629" y="108.9" class="st13" width="52.8" height="4"/>
		</g>
		<g>
			<rect x="629.4" y="126.3" class="st13" width="52.8" height="4"/>
			<rect x="629.4" y="133.9" class="st13" width="52.8" height="4"/>
			<rect x="629.4" y="141.8" class="st13" width="52.8" height="4"/>
		</g>
		<path class="st8" d="M612.2,76.1h-10.1c-3.3,0-6-2.7-6-6v-9.8c0-3.3,2.7-6,6-6h10.1c3.3,0,6,2.7,6,6v9.8
			C618.2,73.4,615.5,76.1,612.2,76.1z"/>
		<path class="st15" d="M611.8,112.3h-10.1c-3.3,0-6-2.7-6-6v-9.8c0-3.3,2.7-6,6-6h10.1c3.3,0,6,2.7,6,6v9.8
			C617.8,109.6,615.1,112.3,611.8,112.3z"/>
		<path class="st11" d="M612.2,148h-10.1c-3.3,0-6-2.7-6-6v-9.8c0-3.3,2.7-6,6-6h10.1c3.3,0,6,2.7,6,6v9.8
			C618.2,145.4,615.5,148,612.2,148z"/>
	</g>
	<g>
		<g>
			<g>
				<g>
					<rect x="19" y="223.6" class="st3" width="138.9" height="171.8"/>
					<polygon class="st4" points="153.7,380.7 30.5,380.7 26.5,235.4 149.7,235.4 					"/>
				</g>
				<g>
					<rect x="26.8" y="235.1" class="st5" width="123.2" height="140.4"/>
					<circle class="st6" cx="144.2" cy="240.3" r="2.4"/>
					<rect x="40.9" y="263.2" class="st7" width="92.9" height="13.4"/>
					<circle class="st6" cx="31.6" cy="240.3" r="2.4"/>
				</g>
			</g>
			<rect x="40.1" y="280.5" class="st9" width="43.5" height="15.6"/>
			<rect x="90.3" y="280.5" class="st9" width="42.7" height="15.6"/>
			<rect x="116.6" y="299" class="st8" width="15.9" height="12.2"/>
			<rect x="40.1" y="302" class="st16" width="43.5" height="15.6"/>
			<rect x="90.3" y="302" class="st16" width="42.7" height="15.6"/>
			<rect x="40.1" y="343.8" class="st8" width="15.9" height="12.2"/>
			<rect x="65.6" y="343.8" class="st8" width="15.9" height="12.2"/>
			<rect x="91.1" y="343.8" class="st8" width="15.9" height="12.2"/>
			<rect x="116.6" y="343.5" class="st8" width="15.9" height="12.2"/>
		</g>
		<g>
			<g>
				<g>
					<rect x="203.1" y="223.6" class="st3" width="138.9" height="171.8"/>
					<polygon class="st4" points="337.7,380.7 214.5,380.7 210.5,235.4 333.7,235.4 					"/>
				</g>
				<rect x="210.9" y="235.1" class="st5" width="123.2" height="140.4"/>
				<circle class="st6" cx="328.3" cy="240.3" r="2.4"/>
				<circle class="st6" cx="215.6" cy="240.3" r="2.4"/>
			</g>
			<path class="st13" d="M235.6,267.4h11.9c0,6.5-5.4,11.9-11.9,11.9c-6.5,0-11.9-5.4-11.9-11.9s5.4-11.9,11.9-11.9
				c4,0,7.7,2,9.9,5.3L235.6,267.4z"/>
			<path class="st9" d="M236,302.7l-0.3-11.9c0.1,0,0.2,0,0.3,0c6.5,0,11.9,5.4,11.9,11.9c0,6.5-5.4,11.9-11.9,11.9
				c-6.5,0-11.9-5.4-11.9-11.9L236,302.7z"/>
			<path class="st15" d="M235.6,338.1h11.9c0,6.5-5.4,11.9-11.9,11.9c-6.5,0-11.9-5.4-11.9-11.9s5.4-11.9,11.9-11.9
				c1.8,0,3.6,0.4,5.2,1.2L235.6,338.1z"/>
			<g>
				<rect x="257.8" y="257.1" class="st6" width="52.8" height="4"/>
				<rect x="257.8" y="264.6" class="st6" width="52.8" height="4"/>
				<rect x="257.8" y="272.6" class="st6" width="52.8" height="4"/>
			</g>
			<g>
				<rect x="257.8" y="294" class="st6" width="52.8" height="4"/>
				<rect x="257.8" y="301.5" class="st6" width="52.8" height="4"/>
				<rect x="257.8" y="309.5" class="st6" width="52.8" height="4"/>
			</g>
			<g>
				<rect x="258.2" y="327" class="st6" width="52.8" height="4"/>
				<rect x="258.2" y="334.5" class="st6" width="52.8" height="4"/>
				<rect x="258.2" y="342.4" class="st6" width="52.8" height="4"/>
			</g>
		</g>
		<g>
			<g>
				<g>
					<g>
						<rect x="571.3" y="223.6" class="st3" width="138.9" height="171.8"/>
						<polygon class="st4" points="705.7,380.7 582.5,380.7 578.5,235.4 701.7,235.4 						"/>
					</g>
					<rect x="579" y="235.1" class="st5" width="123.2" height="140.4"/>
					<circle class="st6" cx="696.5" cy="240.3" r="2.4"/>
					<circle class="st6" cx="583.8" cy="240.3" r="2.4"/>
				</g>
				<g>
					<rect x="611.8" y="287.4" class="st8" width="57.6" height="12"/>
					<rect x="611.8" y="304" class="st8" width="57.6" height="12"/>
					<rect x="611.8" y="337.2" class="st8" width="57.6" height="12"/>
					<rect x="611.8" y="320.6" class="st15" width="57.6" height="12"/>
				</g>
				<rect x="611.6" y="253.1" class="st13" width="25.8" height="27.2"/>
			</g>
			<path class="st5" d="M626.9,266.8c1.3-0.8,2.1-2.2,2.1-3.7c0-2.4-2-4.4-4.4-4.4s-4.4,2-4.4,4.4c0,1.6,0.8,3,2.1,3.7
				c-1.9,0.5-3.3,2.3-3.3,4.4v3.5h11.3v-3.5C630.2,269,628.8,267.3,626.9,266.8z"/>
		</g>
		<g>
			<g>
				<g>
					<rect x="387.2" y="223.6" class="st3" width="138.9" height="171.8"/>
					<polygon class="st4" points="522.7,380.7 399.5,380.7 395.5,235.4 518.7,235.4 					"/>
				</g>
				<rect x="394.9" y="235.1" class="st5" width="123.2" height="140.4"/>
				<circle class="st6" cx="512.4" cy="240.3" r="2.4"/>
				<circle class="st6" cx="399.7" cy="240.3" r="2.4"/>
			</g>
			<g>
				<path class="st8" d="M471.5,264.9h-33c-2.6,0-4.6-2.1-4.6-4.6v-5.1c0-2.6,2.1-4.6,4.6-4.6h33c2.6,0,4.6,2.1,4.6,4.6v5.1
					C476.1,262.9,474,264.9,471.5,264.9z"/>
				<g>
					<g>
						<line class="st8" x1="448.2" y1="268.5" x2="433.8" y2="277.9"/>
						<g>
							<line class="st17" x1="448.2" y1="268.5" x2="436.9" y2="275.9"/>
							<g>
								<polygon class="st12" points="436.1,273.3 433.8,277.9 439,277.6 								"/>
							</g>
						</g>
					</g>
					<g>
						<line class="st8" x1="461.7" y1="268.5" x2="476.1" y2="277.9"/>
						<g>
							<line class="st17" x1="461.7" y1="268.5" x2="473" y2="275.9"/>
							<g>
								<polygon class="st12" points="470.9,277.6 476.1,277.9 473.8,273.3 								"/>
							</g>
						</g>
					</g>
					<g>
						<line class="st8" x1="455" y1="268.5" x2="455" y2="277.9"/>
						<g>
							<line class="st17" x1="455" y1="268.5" x2="455" y2="274.2"/>
							<g>
								<polygon class="st12" points="452.4,273.4 455,277.9 457.6,273.4 								"/>
							</g>
						</g>
					</g>
				</g>
				<g>
					<g>
						<line class="st8" x1="428" y1="289.9" x2="413.7" y2="299.3"/>
						<g>
							<line class="st17" x1="428" y1="289.9" x2="416.8" y2="297.3"/>
							<g>
								<polygon class="st12" points="416,294.7 413.7,299.3 418.9,299.1 								"/>
							</g>
						</g>
					</g>
					<g>
						<line class="st8" x1="434.8" y1="289.9" x2="434.8" y2="299.3"/>
						<g>
							<line class="st17" x1="434.8" y1="289.9" x2="434.8" y2="295.6"/>
							<g>
								<polygon class="st12" points="432.2,294.8 434.8,299.3 437.4,294.8 								"/>
							</g>
						</g>
					</g>
					<g>
						<line class="st8" x1="456.5" y1="289.9" x2="456.5" y2="299.3"/>
						<g>
							<line class="st17" x1="456.5" y1="289.9" x2="456.5" y2="295.6"/>
							<g>
								<polygon class="st12" points="453.9,294.8 456.5,299.3 459.1,294.8 								"/>
							</g>
						</g>
					</g>
				</g>
				<rect x="424.1" y="279.7" class="st15" width="18.7" height="6.5"/>
				<rect x="469.1" y="279.7" class="st9" width="18.7" height="6.5"/>
				<rect x="446.3" y="279.7" class="st13" width="18.7" height="6.5"/>
				<rect x="469.1" y="312.9" class="st18" width="18.7" height="6.5"/>
				<rect x="409.2" y="301.2" class="st12" width="11.2" height="6.3"/>
				<rect x="428.4" y="301.2" class="st12" width="11.2" height="6.3"/>
				<g>
					<g>
						<line class="st8" x1="482.9" y1="289.4" x2="497.3" y2="298.8"/>
						<g>
							<line class="st17" x1="482.9" y1="289.4" x2="494.1" y2="296.8"/>
							<g>
								<polygon class="st12" points="492.1,298.5 497.3,298.8 494.9,294.2 								"/>
							</g>
						</g>
					</g>
					<g>
						<line class="st8" x1="476.1" y1="289.4" x2="476.1" y2="298.8"/>
						<g>
							<line class="st17" x1="476.1" y1="289.4" x2="476.1" y2="295.1"/>
							<g>
								<polygon class="st12" points="473.5,294.3 476.1,298.8 478.7,294.3 								"/>
							</g>
						</g>
					</g>
				</g>
				<rect x="490.5" y="300.7" class="st12" width="11.2" height="6.3"/>
				<rect x="471.3" y="300.7" class="st12" width="11.2" height="6.3"/>
				<rect x="469.1" y="324.2" class="st9" width="18.7" height="6.5"/>
				<g>
					<g>
						<line class="st8" x1="482.9" y1="333.8" x2="497.3" y2="343.2"/>
						<g>
							<line class="st17" x1="482.9" y1="333.8" x2="494.1" y2="341.2"/>
							<g>
								<polygon class="st12" points="492.1,342.9 497.3,343.2 494.9,338.6 								"/>
							</g>
						</g>
					</g>
					<g>
						<line class="st8" x1="476.1" y1="333.8" x2="476.1" y2="343.2"/>
						<g>
							<line class="st17" x1="476.1" y1="333.8" x2="476.1" y2="339.5"/>
							<g>
								<polygon class="st12" points="473.5,338.7 476.1,343.2 478.7,338.7 								"/>
							</g>
						</g>
					</g>
				</g>
				<rect x="490.5" y="345.1" class="st18" width="11.2" height="6.3"/>
				<rect x="471.3" y="345.1" class="st18" width="11.2" height="6.3"/>
				<rect x="450.9" y="301.2" class="st9" width="11.2" height="6.3"/>
				<rect x="408.7" y="312.7" class="st18" width="34" height="15.4"/>
				<g>
					<polyline class="st17" points="444,321.6 456.8,321.6 456.6,313.8 					"/>
					<g>
						<polygon class="st12" points="459.2,314.5 456.5,310.1 454,314.6 						"/>
					</g>
				</g>
				<g>
					<polyline class="st17" points="490,327 502.8,327 502.6,319.3 					"/>
					<g>
						<polygon class="st12" points="505.2,320 502.5,315.5 500,320.1 						"/>
					</g>
				</g>
				<rect x="408.7" y="342.7" class="st15" width="34" height="7.3"/>
				<rect x="408.7" y="332.2" class="st9" width="34" height="7.3"/>
				<g>
					<polyline class="st17" points="444,343.5 456.8,343.5 456.6,335.8 					"/>
					<g>
						<polygon class="st12" points="459.2,336.5 456.5,332 454,336.6 						"/>
					</g>
				</g>
			</g>
		</g>
	</g>
	<g>
		<g>
			<path class="st19" d="M600.2,390.1l12-6.9c1.4-0.8,3.1-0.4,3.8,0.9l0.1,0.2c0.7,1.3,0.1,3-1.3,3.8l-12,6.9
				c-1.4,0.8-3.1,0.4-3.8-0.9l-0.1-0.2C598.2,392.6,598.8,390.9,600.2,390.1z"/>
			<path class="st19" d="M626,394c0,0-5.7,7.3-7.3,9.4c-3.1,4.2-5.6,5.5-8.5,4l-4.7-4.7c-2.2-3-3.1-4.5-1.5-7.4l5.2-9.4
				c1.6-2.9,5.2-3.9,8-2.4l5.7,3.1C625.6,388.2,627.6,391.2,626,394z"/>
			<path class="st19" d="M613.2,392l-7.9,9.3c-1.2,1.5-3.1,2.1-4,1.4l0,0c-1-0.8-0.8-2.7,0.4-4.2l7.9-9.3c1.2-1.5,3.1-2.1,4-1.4h0
				C614.6,388.6,614.4,390.5,613.2,392z"/>
			<path class="st19" d="M615.6,395.7l-7.9,9.3c-1.2,1.5-3.1,2.1-4,1.4l0,0c-1-0.8-0.8-2.7,0.4-4.2l7.9-9.3c1.2-1.5,3.1-2.1,4-1.4
				l0,0C617.1,392.3,616.9,394.2,615.6,395.7z"/>
			<path class="st19" d="M618.8,400.2l-7.9,9.3c-1.2,1.5-3.1,2.1-4,1.4l0,0c-1-0.8-0.8-2.7,0.4-4.2l7.9-9.3c1.2-1.5,3.1-2.1,4-1.4
				l0,0C620.2,396.7,620,398.6,618.8,400.2z"/>
			<path class="st19" d="M649.4,353.5c-1.5,4.7-3.1,9.2-5.3,13.5c-1.2,2.3-2.5,4.5-4,6.6L624,396.8c-1,1.4-2.2,2.3-3.6,2.8
				c-2.6,0.9-5.7,0.2-8.1-2.2c-3.7-3.6-1.6-7.3,1.2-11.3c0,0,18.1-25.4,19.2-28.1c1-2.4,15.3-64.3,15.3-64.3
				c1.5-7.5,1.1-11.5,5.3-13.4c4.1-1.8,7.7,6.3,9.7,11.3C662.9,291.6,660.7,317.9,649.4,353.5z"/>
			<path class="st20" d="M640.6,315.9c3-14.7,5.6-24.2,7-31.6c1.5-7.4,8.1-10.5,14.9-2.3c6.8,8.2-1,27.2-4.3,46
				c-2,11.1-9.5,29.4-9.5,29.4l-16.1-8.9C632.7,348.6,637.7,330.2,640.6,315.9z"/>
			<polygon class="st5" points="633.5,342.6 642.5,346.5 643.5,353.5 648.3,348.3 653.4,350.4 650.2,359.9 630.4,351.2 			"/>
		</g>
		<circle class="st21" cx="695.1" cy="176" r="16.2"/>
		<path class="st22" d="M688,243.1c-0.2,0.2-0.1-2.7-0.1-7.2c0.1-12.3,0.1-36.4-3.4-38.2c-9.6-5-48.7,22.4-51.1,11.6
			c-0.6-2.5-0.9-5.1-0.9-7.8c0-0.6,0-1.1,0-1.7c0.2-4.3,1-8.5,2.6-12.3c1.3-3.2,3-6.3,5.1-9c0,0,0,0,0,0
			c7.1-9.3,18.4-15.1,30.9-14.6c0.6,0,1.1,0.1,1.7,0.1c15,1.2,27.8,10.5,33.2,24.2c1.7,4.3,2.7,9.1,2.8,14.1
			C709.4,233.3,691.6,237.6,688,243.1z"/>
		<path class="st21" d="M688,243.1c-0.2,0.2-0.1-2.7-0.1-7.2l0.3-1c0,0,12-7.8,15.9-24c2.8-11.6,2.4-19.3,1.9-22.7
			c1.7,4.3,2.7,9.1,2.8,14.1C709.4,233.3,691.6,237.6,688,243.1z"/>
		<path class="st19" d="M671.9,293.8L671.9,293.8c5.6,0.6,10.7-3.5,11.3-9.1l4.8-44.8c0.6-5.6-3.5-10.7-9.1-11.3l0,0
			c-5.6-0.6-10.7,3.5-11.3,9.1l-4.8,44.8C662.2,288.1,666.3,293.2,671.9,293.8z"/>
		<g>
			<path class="st23" d="M691.2,225.1c0,0.4-0.1,0.7-0.1,1c0,0.1,0,0.2,0,0.3c-0.6,4.3-2.2,8.3-4.3,11.9c-0.1,0.2-0.2,0.3-0.3,0.5
				c-3.5,5.5-8.7,9.7-14.7,11.9c0,0,0,0,0,0c-2.3,0.9-4.8,1.4-7.4,1.6c-0.9,0.1-1.9,0.1-2.8,0.1c-0.3,0-0.6,0-1,0
				c-0.1,0-0.2,0-0.2,0c-1.4-0.1-2.7-0.2-4-0.5c-0.4-0.1-0.8-0.1-1.1-0.2c-12.3-2.9-21.3-13.8-22.3-26.9c-0.1-1.4-0.1-2.8,0-4.3
				l0.1-2.2l0.8-14.6c0.1-2.2,0.4-4.3,0.8-6.3c0.3-1.6,0.8-3.1,1.5-4.6c1.7-3.9,3.9-7.3,6.9-10.1c5.6-5.2,13.2-8.3,21.3-7.8
				c6.1,0.3,11.6,2.5,16.1,6c0.7,0.5,1.3,1,1.9,1.6c3.1,2.8,5.5,6.3,7.2,10.2c0,0,0,0,0,0c0.4,1,0.9,2.1,1.2,3.2
				c0.1,0.2,0.1,0.4,0.2,0.6c0.4,1.3,0.7,2.6,1,4c0.1,0.3,0.1,0.6,0.2,0.9c0.3,1.7,0.4,3.4,0.3,5.1l0,0.3l-0.1,1.2l-0.1,1.3L692,211
				l0,0l0,0.1l0,0.3l0,0.8l0,0l-0.5,7.9l-0.1,2.6l-0.1,1l0,0.2c0,0.1,0,0.1,0,0.2C691.2,224.4,691.2,224.7,691.2,225.1z"/>
			<path class="st24" d="M693.3,224c-0.3,0-0.5,0.1-0.8,0.1c-0.1,0-0.3,0-0.4,0l-0.8,0l-1-0.1l0.2-3.9l0-0.9l0.4-7.1l1.1,0.1l0.8,0
				c0.2,0,0.3,0,0.5,0.1l0,0c0.2,0,0.5,0.1,0.7,0.1l0,0c1.2,0.3,2.2,0.9,2.9,1.7c1,1.1,1.6,2.6,1.5,4.2
				C698.2,221.2,696,223.6,693.3,224z"/>
		</g>
		<path class="st19" d="M647.5,224.4c0,0,0.1,2.2,3.2,2.5c2.7,0.2,3.2-1.7,3.2-1.7L647.5,224.4z"/>
		<path class="st22" d="M690.3,199c0,0-52-12.7-56.9-2.2c0,0-0.9-11.3,15.6-21.2c16.5-9.8,42.4,2.6,44.1,7.7c1.7,5.1,1,8.9,1,8.9
			L690.3,199z"/>
		<g>
			<path class="st25" d="M659.3,208.4c0,0,6.8-2.4,12.1,2.3"/>
			<path class="st25" d="M636.3,205.5c0,0,6.5-2.4,12.1,1.9"/>
		</g>
		<path class="st26" d="M663.3,218.8L663.3,218.8c0.7,0.1,1.4-0.5,1.5-1.2l0.3-2.5c0.1-0.7-0.5-1.4-1.2-1.5l0,0
			c-0.7-0.1-1.4,0.5-1.5,1.2l-0.3,2.5C662,218,662.6,218.7,663.3,218.8z"/>
		<path class="st26" d="M642.2,216.5L642.2,216.5c0.7,0.1,1.4-0.5,1.5-1.2l0.3-2.5c0.1-0.7-0.5-1.4-1.2-1.5l0,0
			c-0.7-0.1-1.4,0.5-1.5,1.2L641,215C640.9,215.8,641.5,216.4,642.2,216.5z"/>
		<path class="st9" d="M709.7,312.7l-0.7,11l-4.7,79.4l-0.2,3.2H704l-19.1-0.8l-45.5-1.9l4-47.7l-3.5-43.8c-0.1-0.7-0.1-1.3-0.1-2
			c1.5-24,10.4-42,27.4-47.2l-1.6,30.1c2,0,17.3-30,19.2-29.6c3,0.5,5.6,1.6,8.1,3.3C703.7,273.9,709.1,291.6,709.7,312.7z"/>
		<path class="st9" d="M644.7,231l12.1,1.8c0,0-2,3.4-6.8,2.9C646.1,235.3,644.7,231,644.7,231z"/>
		<path class="st19" d="M693.3,224c-0.3,0-0.5,0.1-0.8,0.1c-0.1,0-0.3,0-0.4,0l-0.8,0c0,0.3,0,0.7-0.1,1c0,0.4-0.1,0.7-0.1,1
			c0,0.1,0,0.2,0,0.3c-0.6,4.3-2.2,8.3-4.3,11.9c-0.1,0.2-0.2,0.3-0.3,0.5c-3.5,5.5-8.7,9.7-14.7,11.9c0,0,0,0,0,0
			c-2.3,0.9-4.8,1.4-7.4,1.6c-0.9,0.1-1.9,0.1-2.8,0.1c-0.3,0-0.6,0-1,0c1.5,0,10.2-1,17.1-11c7.5-10.8,10.2-32.1,10.2-32.1
			s-0.1-9.2,0.4-9.2c0.2,0,1.7,0.5,3.7,1.2c0.3,1.7,0.4,3.4,0.3,5.1l0,0.3l-0.1,1.2l-0.1,1.3L692,211l0,0l0,0.1l0,0.3l0,0.8l0.8,0
			c0.2,0,0.3,0,0.5,0.1l0,0c0.2,0,0.5,0.1,0.7,0.1l0,0c1.2,0.3,2.2,0.9,2.9,1.7c1,1.1,1.6,2.6,1.5,4.2
			C698.2,221.2,696,223.6,693.3,224z"/>
		<circle class="st22" cx="633.2" cy="192.6" r="7.6"/>
		<circle class="st22" cx="646.5" cy="192" r="7.6"/>
		<circle class="st22" cx="660.8" cy="192.9" r="7.6"/>
		<circle class="st22" cx="675.7" cy="195.8" r="7.6"/>
		<path class="st22" d="M682.2,191.4l5.9,26.4c0.4,1.6,2.6,1.8,3.2,0.3l8.3-20C699.5,198,693.3,177.1,682.2,191.4z"/>
		<polygon class="st5" points="687.3,262.9 687.6,255.4 674.9,255.4 668.7,275.5 667.3,255.6 662.5,255.4 661,309.3 		"/>
		<g>
			<path class="st26" d="M654.4,430.6l26.9,2c11.9,0.9,22.1-4.5,22.8-12.6l-0.2-14.7l-68.4-1.2l-0.9,10.7
				C634,422.8,642.5,429.7,654.4,430.6z"/>
			<g>
				<g>
					<path class="st26" d="M652.9,623.9h-1.7c-1,0-1.9-0.8-1.9-1.9v-26.3l7.9,1.7l-2.4,24.9C654.6,623.2,653.8,623.9,652.9,623.9z"
						/>
					<g>
						<path class="st26" d="M633.7,594.1l-9.4,16.7c-1.6,2.6-4.4,4.3-7.4,4.4l0,0c-2.4,0.1-4.4,2-4.5,4.5l0,0c-0.2,2.8,2,5.1,4.8,5
							l7.6,0c4,0,7.8-1.5,10.7-4.2l20.6-19.2c1-1.3,1.4-2.9,1.3-4.6l0,0c-0.4-3.7-3.7-6.3-7.4-5.7L633.7,594.1z"/>
						<path class="st21" d="M633.2,592l-9.4,16.7c-1.6,2.6-4.4,4.3-7.4,4.4l0,0c-2.4,0.1-4.4,2-4.5,4.5l0,0c-0.2,2.8,2,5.1,4.8,5
							l5.5,0c5.3,0,10.5-2,14.4-5.7l19-17.7c1-1.3,1.4-2.9,1.3-4.6l0,0c-0.4-3.7-3.7-6.3-7.4-5.7L633.2,592z"/>
						<line class="st27" x1="626" y1="604.4" x2="630.2" y2="607"/>
						<line class="st27" x1="627.7" y1="601.1" x2="632" y2="603.6"/>
						<line class="st27" x1="629.4" y1="597.9" x2="633.7" y2="600.5"/>
					</g>
				</g>
				<g>
					<path class="st26" d="M634,591.7l20.6,0.4l-6.5-73c-0.4-2.6-0.4-5.2-0.1-7.7l16.5-95.8l-29.4-3.4L621.2,504
						c-0.6,5.4-0.5,10.8,0.3,16.2L634,591.7z"/>
				</g>
				<rect x="631.9" y="587.3" class="st8" width="24.4" height="5.1"/>
			</g>
			<g>
				<g>
					<path class="st26" d="M700.5,625.5h-1.7c-1,0-1.9-0.8-1.9-1.9v-26.3l7.9,1.7l-2.4,24.9C702.3,624.7,701.5,625.5,700.5,625.5z"
						/>
					<g>
						<path class="st26" d="M681.4,595.6l-9.4,16.7c-1.6,2.6-4.4,4.3-7.4,4.4l0,0c-2.4,0.1-4.4,2-4.5,4.5l0,0c-0.2,2.8,2,5.1,4.8,5
							l7.6,0c4,0,7.8-1.5,10.7-4.2l20.6-19.2c1-1.3,1.4-2.9,1.3-4.6l0,0c-0.4-3.7-3.7-6.3-7.4-5.7L681.4,595.6z"/>
						<path class="st21" d="M680.9,593.5l-9.4,16.7c-1.6,2.6-4.4,4.3-7.4,4.4l0,0c-2.4,0.1-4.4,2-4.5,4.5l0,0c-0.2,2.8,2,5.1,4.8,5
							l5.5,0c5.3,0,10.5-2,14.4-5.7l19-17.7c1-1.3,1.4-2.9,1.3-4.6l0,0c-0.4-3.7-3.7-6.3-7.4-5.7L680.9,593.5z"/>
						<line class="st27" x1="673.7" y1="605.9" x2="677.9" y2="608.5"/>
						<line class="st27" x1="675.4" y1="602.6" x2="679.6" y2="605.2"/>
						<line class="st27" x1="677.1" y1="599.4" x2="681.3" y2="602"/>
					</g>
				</g>
				<polygon class="st26" points="681.8,593 702.4,593.2 703.6,413.5 669.5,411.7 				"/>
				<rect x="680.7" y="588.3" class="st8" width="23.1" height="5.3"/>
			</g>
		</g>
		<rect x="639.1" y="401.4" class="st12" width="65.5" height="6.8"/>
		<path class="st28" d="M709,323.6l-4.6,77l-20,1.1c0,0-0.7-41.4-1.1-53.9c-0.4-12.6,15.1-48.9,15.1-48.9S703.9,309.4,709,323.6z"/>
		<path class="st23" d="M644,394.5l13.7-3.8c1.6-0.4,3.2,0.4,3.6,1.8l0.1,0.3c0.4,1.5-0.6,3-2.2,3.4l-13.7,3.8
			c-1.6,0.4-3.2-0.4-3.6-1.8l-0.1-0.3C641.4,396.5,642.4,395,644,394.5z"/>
		<g>
			<path class="st29" d="M650.8,429.2c-0.8,0.6-1.8,1-2.9,1.2l-28,4.9c-4,0.7-7.9-2-8.6-6l-8.5-48c-0.7-4,2-7.9,6-8.6l0.3-0.1
				l27.7-4.9c4-0.7,7.9,2,8.6,6l3.3,18.4l3.2,18.4l2,11.2C654.4,424.7,653.1,427.6,650.8,429.2z"/>
			<ellipse transform="matrix(0.9821 -0.1883 0.1883 0.9821 -62.2528 124.7759)" class="st5" cx="625.5" cy="390" rx="3" ry="3.6"/>
		</g>
		<path class="st12" d="M656.4,416l-10.5,7.9c-1.7,1.4-3.9,1.6-4.7,0.4c-0.3-0.4-0.4-0.9-0.4-1.4c0.1-1.1,0.8-2.3,2-3.3l7.3-5.5
			l-0.5-0.9l-10.3,7.7c-1.7,1.4-3.9,1.5-4.7,0.4c-0.3-0.4-0.4-0.9-0.4-1.4c0.1-1.1,0.8-2.3,2-3.3l10.8-8l-0.1-0.1
			c-0.1-0.3-0.2-0.6-0.3-0.9L638,414c-1.7,1.4-3.9,1.6-4.7,0.4c-0.3-0.4-0.4-0.9-0.3-1.4c0.1-1.1,0.8-2.3,2-3.3l11-8.2
			c0,0,0.1-0.1,0.2-0.1c0.3-0.5,0.6-1,1.1-1.5L656.4,416z"/>
		<path class="st23" d="M668.9,404.9c0,0-7.5,5.8-9.6,7.5c-4.1,3.3-7,4.1-9.5,1.8l-3.6-5.8c-1.5-3.5-2-5.3,0.3-7.7l7.5-8
			c2.3-2.4,6.1-2.6,8.6-0.3l4.9,4.5C670,399,671.2,402.4,668.9,404.9z"/>
		<path class="st23" d="M648.2,405.9l-10.2,7.2c-1.6,1.2-3.6,1.4-4.4,0.3h0c-0.8-1-0.1-2.9,1.5-4.1l10.2-7.2
			c1.6-1.2,3.6-1.4,4.4-0.3l0,0C650.5,402.9,649.8,404.7,648.2,405.9z"/>
		<path class="st23" d="M649.4,412.1l-10.2,7.2c-1.6,1.2-3.6,1.4-4.4,0.3l0,0c-0.8-1-0.1-2.9,1.5-4.1l10.2-7.2
			c1.6-1.2,3.6-1.4,4.4-0.3l0,0C651.7,409,651,410.9,649.4,412.1z"/>
		<path class="st23" d="M655.6,414.7l-10.2,7.2c-1.6,1.2-3.6,1.4-4.4,0.3l0,0c-0.8-1-0.1-2.9,1.5-4.1l10.2-7.2
			c1.6-1.2,3.6-1.4,4.4-0.3l0,0C657.9,411.6,657.2,413.5,655.6,414.7z"/>
		<g>
			<path class="st23" d="M702.3,370.6c-2.5,4.3-5.3,8.4-8.6,12c-1.8,2-3.7,3.8-5.7,5.6l-21.8,18.9c-1.3,1.1-2.8,1.7-4.3,1.8
				c-2.8,0.2-5.7-1.3-7.5-4.2c-2.8-4.5,0.2-7.6,4-10.8L678,375c2.1-2.1,4-4.3,5.7-6.7c1.6-2.1,3-4.3,4.2-6.6c6.7-12.1,9-26.2,7-40.2
				l-3.2-23c-0.8-5.5,2.4-10.6,7-11.3c4.6-0.8,9,3.1,9.7,8.6l3.2,23C714.2,337.4,710.7,355.8,702.3,370.6z"/>
		</g>
		<path class="st19" d="M689.7,358.8l14.4,8.9c-2.5,4.3-4.9,8.6-8.2,12.2l-11.4-12.8L689.7,358.8z"/>
		<path class="st9" d="M692.6,345.6c0.1-0.7,2.8-4.2,0.7-18.9c-2.2-14.7-5-30.1-1.7-37.1s11.8-10.4,16.7-0.6
			c4.8,9.8,6.9,45,5.4,56.5c-1.5,11.4-10.6,27.9-10.6,27.9l-17.5-12.8C685.5,360.5,690.8,353.3,692.6,345.6z"/>
		<polygon class="st5" points="688.6,355.2 696.7,361.3 696,368.4 702,364.5 706.6,367.8 701.2,376.4 683.4,362.9 		"/>
		<path class="st23" d="M601.4,402L601.4,402c0.8,0.8,2,0.8,2.8,0l2.7-2.7c0.8-0.8,0.8-2,0-2.8l0,0c-0.8-0.8-2-0.8-2.8,0l-2.7,2.7
			C600.6,400,600.6,401.3,601.4,402z"/>
		<path class="st23" d="M603.6,406.5L603.6,406.5c0.8,0.8,2,0.8,2.8,0l2.7-2.7c0.8-0.8,0.8-2,0-2.8l0,0c-0.8-0.8-2-0.8-2.8,0
			l-2.7,2.7C602.9,404.5,602.9,405.7,603.6,406.5z"/>
		<path class="st23" d="M605.3,410.6L605.3,410.6c0.8,0.8,2,0.8,2.8,0l2.7-2.7c0.8-0.8,0.8-2,0-2.8l0,0c-0.8-0.8-2-0.8-2.8,0
			l-2.7,2.7C604.6,408.6,604.6,409.8,605.3,410.6z"/>
	</g>
	<polygon class="st4" points="225,293 203.1,333.7 203.1,301.3 206,298.9 	"/>
</g>
<g>
	<g>
		<g>
			<g>
				<g>
					<path class="st19" d="M211.5,290l11.5-10.4c1-0.9,1.1-2.6,0.2-3.6l0,0c-0.9-1-2.6-1.1-3.6-0.2l-11.5,10.4
						c-1,0.9-1.1,2.6-0.2,3.6l0,0C208.8,290.9,210.5,291,211.5,290z"/>
					<path class="st19" d="M203.4,296l7.3-13.7c0.7-1.2,0.2-2.8-1.1-3.5l0,0c-1.2-0.7-2.8-0.2-3.5,1.1l-7.3,13.7
						c-0.7,1.2-0.2,2.8,1.1,3.5l0,0C201.2,297.7,202.8,297.2,203.4,296z"/>
					<path class="st19" d="M213.6,295.5l14.1-11.8c1.1-0.9,1.2-2.5,0.3-3.6l0,0c-0.9-1.1-2.5-1.2-3.6-0.3l-14.1,11.8
						c-1.1,0.9-1.2,2.5-0.3,3.6l0,0C210.9,296.2,212.5,296.4,213.6,295.5z"/>
					<path class="st19" d="M213.6,302.8l14.1-11.8c1.1-0.9,1.2-2.5,0.3-3.6l0,0c-0.9-1.1-2.5-1.2-3.6-0.3l-14.1,11.8
						c-1.1,0.9-1.2,2.5-0.3,3.6l0,0C210.9,303.6,212.5,303.7,213.6,302.8z"/>
				</g>
				<path class="st19" d="M211.8,282.8c-0.2,0.1-2.2,1.3-4.4,2.6c-3.8,2.2-6.9,5.3-9.3,9l-4.5,7.1c0,0,10.4,8.7,10.9,8.4
					c8.8-4.6,15.2-12.6,15.2-12.6L211.8,282.8z"/>
			</g>
			<polygon class="st5" points="190.8,299.2 196.7,294.4 210.1,311.9 202.4,316.8 			"/>
			<g>
				<path class="st30" d="M207.3,316.3c0,0-37,29.2-37.1,29.3c-11.2,9.1-27.9,11.6-39.6,3c-1.8-1.3-5.8-5.2-7.4-7
					c-2-2.3-19.6-34.8-19.6-34.8l14.3-32.8c0,0,20.3,42.6,21.5,44.9c2.1,4,6.1,7.5,8.2,7.8c3.7,0.6,5.9,0,9-1.8
					c14.9-8.5,35.8-28.5,35.8-28.5L207.3,316.3z"/>
			</g>
		</g>
		<path class="st31" d="M100.9,582.3c-0.1,1.7-0.8,26.1-0.8,26.1l18.1,0.3l-0.4-30.6L100.9,582.3z"/>
		<path class="st32" d="M92.6,416.4c0,0.2,0,1.3,0,3.3c0.9,28.4,5.9,183.5,5.9,183.5l23.3-0.8l6.2-181.5L92.6,416.4z"/>
		<g>
			<path class="st33" d="M98.4,623.4l47.6,0.3c2.8,0,5.2-2.3,5.2-5.1l0,0c0-2.2-1.4-4.2-3.4-4.9l-23.5-8.4l-25.8,0.4L98.4,623.4z"/>
			<path class="st26" d="M147,625.1l-48.2,0l0-3.5l51.7,0v0C150.4,623.5,148.9,625.1,147,625.1z"/>
			<g>
				<line class="st34" x1="123.7" y1="612.3" x2="129.3" y2="606.3"/>
				<line class="st34" x1="127.8" y1="614" x2="133.4" y2="608"/>
				<line class="st34" x1="131.7" y1="616.3" x2="138" y2="609.5"/>
			</g>
		</g>
		<path class="st31" d="M60,582c-0.1,1.7-0.3,26-0.3,26l18.1,0l-0.9-30.4L60,582z"/>
		<path class="st32" d="M48.8,417.3c0,0.2,0,1.3,0.1,3.3c1.4,28.2,9.1,182.3,9.1,182.3l23.3-1.2l3-180.5L48.8,417.3z"/>
		<g>
			<path class="st35" d="M57.9,623l47.6,1.8c2.8,0.1,5.2-2.1,5.3-4.9l0,0c0.1-2.2-1.2-4.2-3.3-5l-23.2-9.1l-25.8-0.4L57.9,623z"/>
			<path class="st26" d="M106.4,626.2l-48.2-1.5l0.1-3.5l51.6,1.6l0,0C109.9,624.8,108.3,626.3,106.4,626.2z"/>
			<g>
				<line class="st36" x1="83.5" y1="612.7" x2="89.3" y2="606.9"/>
				<line class="st36" x1="87.6" y1="614.6" x2="93.3" y2="608.8"/>
				<line class="st36" x1="91.4" y1="617" x2="97.9" y2="610.5"/>
			</g>
		</g>
		<path class="st32" d="M129.2,412.3c0.5,5.2-0.9,10.1-3.6,14.1c-3.5,5.1-9.1,8.7-15.8,9.4l-36,3.5c-1.1,0.1-2.1,0.1-3.2,0.1
			c-2.7-0.1-5.2-0.8-7.6-1.8c-0.4-0.2-0.8-0.4-1.2-0.6c-6.2-3.2-10.7-9.5-11.5-17l-0.4-11.5l77.4-8.2L129.2,412.3z"/>
		<g>
			<path class="st19" d="M87.1,276.9l-3.3,0.6c-5.8,1-11.3-2.9-12.4-8.6l-6.3-35.6c-1-5.8,2.9-11.3,8.6-12.4l3.3-0.6
				c5.8-1,11.3,2.9,12.4,8.6l6.3,35.6C96.7,270.3,92.8,275.8,87.1,276.9z"/>
			<path class="st37" d="M119.8,188.4c0.1,0.6,0.1,1.2,0.1,1.7c0.2,2.8,0,5.5-0.4,8.2c-1.7,11.4-8.4,21.4-18.1,27.3
				c-4.8,2.9-10.3,4.9-16.3,5.5c-9.7,1-17.3,6.2-24.6,1.1c-2.4-1.7-4.6-3.6-6.5-5.7c-0.8-0.8-1.5-1.7-2.2-2.6
				c-4.2-5.5-8.6-20-9.4-27.3c-2.2-20.8,12.4-39.5,32.8-42.5c0.6-0.1,1.2-0.2,1.8-0.2c13-1.4,25.2,3.8,33.3,13c0,0,0,0,0,0
				c2.4,2.7,4.4,5.7,5.9,9C118.1,179.6,119.4,183.9,119.8,188.4z"/>
			<g>
				<path class="st24" d="M70.2,205.3c0.1,0.8,0.1,1.7-0.2,2.5c-0.2,0.9-0.6,2-1.3,2.8c-1.1,1.4-2.7,2.5-4.6,2.8l-4.1,0.5l-3.1,0.4
					l-1.2-9.3l0,0l-0.2-1.7l-0.2-1.3l-0.1-1.2l0-0.3l0,0l7.2-0.9c1.8-0.2,3.6,0.3,5,1.3c0.8,0.6,1.5,1.4,2,2.3
					C69.9,203.7,70.1,204.4,70.2,205.3z"/>
				<path class="st23" d="M118.9,192.6l1.9,15.1l0.3,2.3c0.2,1.5,0.3,3,0.2,4.4c-0.2,13.7-9.4,25.8-22.5,29.8
					c-0.4,0.1-0.8,0.2-1.2,0.3c-1.4,0.4-2.9,0.7-4.4,0.9c-1.5,0.2-2.9,0.3-4.3,0.2c-2.8,0-5.5-0.4-8.1-1.1c0,0,0,0,0,0
					c-11.3-3.1-20.4-12.2-22.9-24.1c-0.1-0.4-0.1-0.7-0.2-1.1c-0.1-0.4-0.1-0.8-0.2-1.3l0-0.2l-0.1-1l-0.3-2.7l-1.2-9.2l0-0.1l0,0
					l-0.2-1.7l-0.2-1.3l-0.1-1.2l0-0.3c-0.3-2.1-0.2-4.3,0.1-6.3c0.2-1.4,0.5-2.9,0.8-4.3c0-0.2,0.1-0.4,0.1-0.6
					c0.3-1.1,0.7-2.3,1.1-3.4c0,0,0,0,0,0c1.6-4.2,4.1-8,7.2-11.2c0.6-0.6,1.3-1.3,2-1.8c4.7-4,10.6-6.8,17.2-7.6
					c8.8-1.1,17.3,1.4,23.8,6.4c3.5,2.7,6.1,6.1,8.2,10c0.8,1.5,1.5,3,1.9,4.7C118.2,188.1,118.6,190.3,118.9,192.6z"/>
				<path class="st24" d="M58.9,204.4l1.2,9.4l0.8,6.3l-2.5,0.3c-0.2,0-0.4,0-0.5,0c-4.2,0.2-8-3-8.5-7.1c-0.3-2.2,0.4-4.1,1.7-5.7
					c1.1-1.4,2.8-2.4,4.7-2.8l0,0c0.2-0.1,0.4-0.1,0.6-0.1L58.9,204.4z"/>
			</g>
			<path class="st19" d="M92.3,245.5c0,0-5.6,1.4-11.5-0.9c0,0,0,0,0,0c-11.3-3.1-20.4-12.2-22.9-24.1c-4.2,0.2-8-3-8.5-7.1
				c-0.3-2.2,0.4-4.1,1.7-5.7c1.1-1.4,2.8-2.4,4.7-2.8l0,0l-0.2-1.7l-0.2-1.3l-0.1-1.2l0-0.3l0,0c-0.3-2.1-0.2-4.3,0.1-6.3
				c3.8-3.1,8.1-4.3,11.5,0.5c0,0,0.2,2.5,0.6,6.2c0.3,2.8,0.8,6.3,1.4,9.9c1.3,7.5,3.2,15.9,6,20.6
				C80.9,241.3,92.3,245.5,92.3,245.5z"/>
			<g>
				<path class="st37" d="M115.7,194.3l-9.9,1.8c-1,0.2-1.9-0.5-2.1-1.5l0,0c-0.2-1,0.5-1.9,1.5-2.1l9.9-1.8c1-0.2,1.9,0.5,2.1,1.5
					l0,0C117.3,193.2,116.6,194.1,115.7,194.3z"/>
				<path class="st37" d="M91.5,198.6l-9.9,1.8c-1,0.2-1.9-0.5-2.1-1.5l0,0c-0.2-1,0.5-1.9,1.5-2.1l9.9-1.8c1-0.2,1.9,0.5,2.1,1.5
					l0,0C93.1,197.5,92.4,198.4,91.5,198.6z"/>
				<path class="st5" d="M97.4,223.7c2,2,4.2,2.5,6.6,2.2c2.9-0.4,5.9-2.2,6.4-4.7L97.4,223.7z"/>
				<path class="st19" d="M107.1,213.6c0,0-0.2,0-0.2,0c0.2,1.6-0.9,3.1-4.4,3.6l-2.6-12.5C104.3,208.7,106.3,211,107.1,213.6z"/>
			</g>
		</g>
		<path class="st38" d="M51.9,429c0,0,31.6-3.4,31.3-4.6c-0.4-1.1-0.4-14.5-0.4-14.5s25.2-4.2,25.2-2.7c0,1.5,2.3,13.3,2.3,13.3
			l18.7-3.4l-0.4-19.8l-81.2,8.4L51.9,429z"/>
		<g>
			<polygon class="st5" points="112.8,399.9 75.1,403.7 62.2,249.6 73.8,249 84.8,277.7 87.3,248.9 97.1,248 			"/>
		</g>
		<path class="st32" d="M83,420.3c0,0-8.9,1.3-15.4,2.5c-2.3,0.4-4.8,0.8-7.6,1.1c-3.9,0.4-8.4,0.7-13.1,0.6c-0.3,0-0.6-0.1-0.8-0.2
			l-7.7-101.1c-0.1-0.8-0.2-1.6-0.3-2.3c-1.7-15.5-1.2-24.2-1.4-37.5c0-1.9-0.1-3.9-0.2-6.1c0-1.3,0.1-2.5,0.4-3.6
			c1.5-5.9,7.1-10.1,13.2-13.2c3.7-1.8,7.6-3.3,10.9-4.6c1.5-0.6,1.2-0.3,2-1L83,420.3z"/>
		<path class="st32" d="M133.5,414.1l-6.2,0.6l-14.3,1.3c0,0-16.7-161.4-15.2-160.8c2.5,0.9,5.2,2.4,7.9,4.3
			c5.4,3.9,10.7,9.6,13.6,16.6c0.8,2,1.5,4.1,1.9,6.3c0,0.1,0,0.2,0.1,0.3C123.6,296.4,133.5,414.1,133.5,414.1z"/>
		<g>
			<circle class="st8" cx="86" cy="287.5" r="1.9"/>
			<circle class="st8" cx="87.7" cy="306.5" r="1.9"/>
			<circle class="st8" cx="89.3" cy="325.4" r="1.9"/>
			<circle class="st8" cx="91" cy="344.4" r="1.9"/>
			<circle class="st8" cx="92.7" cy="363.3" r="1.9"/>
		</g>
		<polygon class="st5" points="73.8,249 72.3,260 63.6,260.1 62.2,249.6 		"/>
		<polygon class="st5" points="87.3,248.9 90.7,258.3 97.7,258.2 98.5,247.7 		"/>
		<path class="st37" d="M54.3,202.4l1.6,7.5c0.3,1.6,2.1,2.5,3.6,1.8l0,0c0.7-0.3,1.3-1,1.4-1.8c0.8-3.5,3.1-13.5,5.7-18.9
			c3.1-6.6,10.7-6.9,10.7-6.9l10,2.4c3.2,0.8,5.7-2.6,4.2-5.5l-0.4-0.7l12.9,3c2.8,0.6,4.5-2.1,3.7-4.8c0,0,0-0.1,0.1,0
			c0.5,0.2,7.4,0.3,13.7,0.5c3.6,0.1,5.2-4.4,2.5-6.7c-7.8-6.4-20-15.2-30.6-16.7c-17-2.5-38.7,17.9-40.2,22.6
			C51.5,182.9,54.3,202.4,54.3,202.4z"/>
		<path class="st26" d="M89.2,209.4L89.2,209.4c-0.7,0.2-1.4-0.3-1.6-1l-0.6-3.1c-0.2-0.7,0.3-1.4,1-1.6l0,0c0.7-0.2,1.4,0.3,1.6,1
			l0.6,3.1C90.4,208.5,89.9,209.2,89.2,209.4z"/>
		<path class="st26" d="M112.2,204.7L112.2,204.7c-0.7,0.2-1.4-0.3-1.6-1l-0.6-3.1c-0.2-0.7,0.3-1.4,1-1.6l0,0
			c0.7-0.2,1.4,0.3,1.6,1l0.6,3.1C113.4,203.9,113,204.6,112.2,204.7z"/>
		<path class="st30" d="M54.8,423.6c-3.9,0.4-3.2,0.9-8,0.8c-0.3,0-0.6-0.1-0.8-0.2l-8.2-104.7c-0.1-0.8,4.2-7.1,4.1-7.9
			C45.1,323.1,57.6,423.3,54.8,423.6z"/>
		<g>
			<g>
				<path class="st23" d="M50.2,411.5l18.2,7.7c1.3,0.6,2.9-0.1,3.4-1.4l0,0c0.6-1.3-0.1-2.9-1.4-3.4l-18.2-7.7
					c-1.3-0.6-2.9,0.1-3.4,1.4l0,0C48.2,409.4,48.9,410.9,50.2,411.5z"/>
			</g>
			<g>
				<path class="st29" d="M105.4,446.9l-40.5,26c-4.4,2.8-10.2,1.5-13-2.8l-15.4-24c-2.8-4.4-1.5-10.2,2.8-13l40.5-26
					c4.4-2.8,10.2-1.5,13,2.8l15.4,24C111.1,438.2,109.8,444.1,105.4,446.9z"/>
			</g>
			<g class="st39">
				<g>
					<path class="st40" d="M58.6,435.7c0.1-0.2,10.2-10.4,8.7-12.8c-2.5-4-5.9-8.1-9.4-11.3l-6.7-6.2c0,0-8.5,9.5-9,9.9
						c-6.4,6.6,8.3,17.2,8.3,17.2S56.7,440.5,58.6,435.7z"/>
				</g>
				<g>
					<path class="st40" d="M59.3,422.6l15.1,14.8c1.1,1.1,3,0.8,4.2-0.7l0,0c1.2-1.5,1.3-3.6,0.2-4.6l-15.1-14.8
						c-1.1-1.1-3-0.8-4.2,0.7v0C58.3,419.4,58.2,421.5,59.3,422.6z"/>
				</g>
				<g>
					<path class="st40" d="M58.1,431l12.2,11.8c1.1,1.1,2.8,1,3.8-0.2l0,0c1-1.2,0.9-3.1-0.2-4.1l-12.2-11.8c-1.1-1.1-2.8-1-3.8,0.2
						l0,0C56.9,428.1,57,430,58.1,431z"/>
				</g>
				<g>
					<path class="st40" d="M48,430.5l14.5,13.9c1.1,1.1,2.8,1,3.8-0.2h0c1-1.2,0.9-3.1-0.2-4.1l-14.5-13.9c-1.1-1.1-2.8-1-3.8,0.2
						l0,0C46.8,427.6,46.9,429.4,48,430.5z"/>
				</g>
			</g>
			<g>
				<g>
					<path class="st23" d="M58.1,432.6c0.1-0.2,9.9-9.4,8.5-11.5c-2.4-3.6-5.7-7.3-9.1-10.2l-6.5-5.6c0,0-8.2,8.5-8.7,8.9
						c-6.2,5.9,8,15.4,8,15.4S56.2,436.9,58.1,432.6z"/>
				</g>
				<g>
					<path class="st23" d="M58.6,420.9l14.7,13.2c1.1,1,2.7,0.9,3.7-0.2l0,0c1-1.1,0.9-2.7-0.2-3.7L62.1,417c-1.1-1-2.7-0.9-3.7,0.2
						l0,0C57.4,418.3,57.5,420,58.6,420.9z"/>
				</g>
				<g>
					<path class="st23" d="M57.6,428.4l11.8,10.6c1.1,1,2.7,0.9,3.7-0.2l0,0c1-1.1,0.9-2.7-0.2-3.7l-11.8-10.6
						c-1.1-1-2.7-0.9-3.7,0.2v0C56.4,425.8,56.5,427.4,57.6,428.4z"/>
				</g>
				<g>
					<path class="st23" d="M47.8,427.9l14,12.5c1.1,1,2.7,0.9,3.7-0.2l0,0c1-1.1,0.9-2.7-0.2-3.7l-14-12.5c-1.1-1-2.7-0.9-3.7,0.2
						l0,0C46.6,425.3,46.7,427,47.8,427.9z"/>
				</g>
			</g>
			<g>
				<polygon class="st5" points="55.5,405.4 53.6,403.7 49.4,399.9 37.4,413.5 34.8,416.3 35.6,417 37.4,418.6 40.9,421.7 41.6,421 
					50.1,411.5 53.5,407.6 53.8,407.3 				"/>
			</g>
			<g>
				<path class="st32" d="M52.1,281l-9.4-11.2l-1.6-1.3c-0.2,0.2-2.9,3.4-6.7,8.6c-3.2,4.4-7.3,10.3-11.3,17.1
					c-12.2,20.8-17.9,39.4-17,55.4c1.9,33.2,26.9,67.2,28,68.6l1.5-1.1l2.7-2l11.2-8.3l1.6-1.2l2.5-1.9l1.7-1.3
					c-0.2-0.3-21.4-29.3-22.9-54.5c-1.1-19.2,7.9-39.3,17.7-52.1C51.6,294,51,282.2,52.1,281z"/>
			</g>
		</g>
	</g>
	<ellipse class="st5" cx="87" cy="431.1" rx="3.3" ry="3.5"/>
</g>
<g>
	<g>
		<rect x="405.7" y="593.2" class="st41" width="56.4" height="3.3"/>
	</g>
	<g>
		<rect x="449.7" y="605.3" class="st42" width="4.9" height="152.4"/>
	</g>
	<g>
		<rect x="375.3" y="592.2" class="st43" width="39.2" height="4.8"/>
	</g>
	<g>
		<rect x="387.5" y="551.4" class="st44" width="14.9" height="45.1"/>
	</g>
	<g>
		<rect x="265" y="596.6" class="st45" width="217.4" height="8.7"/>
	</g>
	<g>
		<g>
			<g>
				<path class="st46" d="M426.8,564C426.8,564,426.8,564,426.8,564C426.7,564,426.7,564,426.8,564z"/>
			</g>
		</g>
	</g>
	<g>
		<rect x="292.9" y="605.3" class="st42" width="4.9" height="152.4"/>
	</g>
	<g>
		<path class="st47" d="M334.4,573.1h121.1c2,0,3.6-1.6,3.6-3.6v-83.3c0-2-1.6-3.6-3.6-3.6H334.4c-2,0-3.6,1.6-3.6,3.6v83.3
			C330.8,571.5,332.4,573.1,334.4,573.1z"/>
	</g>
	<g>
		<rect x="335.8" y="487.5" class="st48" width="118.3" height="71.4"/>
	</g>
	<g>
		<rect x="335.8" y="487.5" class="st49" width="118.3" height="5.7"/>
	</g>
	<g>
		<path class="st49" d="M342.4,554.6h9.8c1.2,0,2.2-1,2.2-2.2v-52.6c0-1.2-1-2.2-2.2-2.2h-9.8c-1.2,0-2.2,1-2.2,2.2v52.6
			C340.2,553.6,341.2,554.6,342.4,554.6z"/>
	</g>
	<g>
		<path class="st49" d="M425.9,502.8h23.6c0.7,0,1.2-0.5,1.2-1.2v-2.9c0-0.7-0.5-1.2-1.2-1.2h-23.6c-0.7,0-1.2,0.5-1.2,1.2v2.9
			C424.7,502.2,425.3,502.8,425.9,502.8z"/>
	</g>
	<g>
		<path class="st49" d="M427.2,556h21c1.4,0,2.5-1.1,2.5-2.5v-44.7c0-1.4-1.1-2.5-2.5-2.5h-21c-1.4,0-2.5,1.1-2.5,2.5v44.7
			C424.7,554.9,425.9,556,427.2,556z"/>
	</g>
	<g>
		<circle class="st50" cx="395" cy="565.8" r="4.1"/>
	</g>
	<g class="st51">
		<path class="st52" d="M396.7,516.7c0,9.2-7.4,16.7-16.7,16.7c-9.2,0-16.7-7.5-16.7-16.7c0-9.2,7.5-16.7,16.7-16.7
			C389.2,500,396.7,507.5,396.7,516.7z"/>
		<g class="st53">
			<g>
				<path class="st54" d="M390.9,525.9l-1.2,4.4c-2.2,1.6-4.8,2.6-7.6,2.9c-0.5,0.1-1,0.1-1.5,0.1c-0.2,0-0.4,0-0.5,0
					c-0.5,0-1.1,0-1.6-0.1c-0.6-0.1-1.2-0.1-1.7-0.3c-2.5-0.5-4.9-1.6-6.8-3.1c-0.2-1.5-0.5-3.1-0.7-4.6c1.2-0.5,5.1-1.8,7.6-2.6
					c0,0,0.1,0,0.1,0c0.1,0,0.1,0,0.2-0.1c0.1,0,0.3-0.1,0.4-0.1c0.1,0,0.3-0.1,0.4-0.1c0.5-0.2,0.9-0.3,1-0.3h0c0,0,0,0,0,0l0,0
					l3.3,0.2l0.6,0l0.2,0c0,0,0,0,0.1,0c0.2,0.1,0.8,0.2,1.6,0.4c0,0,0,0,0,0C386.5,523.4,389.7,524.6,390.9,525.9z"/>
			</g>
			<g>
				<path class="st55" d="M380.8,508.4c0,0,4,0.7,3.3,6.9c-0.7,6.2-4.2,5.7-4.4,5.7c-0.2,0-3.5,0.1-3.7-7.5
					C376,513.5,376,507.8,380.8,508.4z"/>
			</g>
			<g>
				<path class="st55" d="M382.6,519.2c0,0-0.1,2.6,0.1,3.1c0.2,0.6-3.2,2.3-5.3,0.3c0,0,0.4-2.8,0.3-3.8
					C377.5,517.8,382.6,519.2,382.6,519.2z"/>
			</g>
			<g>
				<path class="st55" d="M384.2,513.6c0,0,0.4-0.5,0.6,0c0.2,0.5-0.7,2.6-0.7,2.7c0,0-0.1,0.2-0.2,0.1
					C383.9,516.2,384.2,513.6,384.2,513.6z"/>
			</g>
			<g>
				<path class="st55" d="M376.1,513.4c0,0-0.4-0.5-0.6,0c-0.2,0.5,0.5,2.6,0.5,2.7c0,0,0.1,0.2,0.2,0.1
					C376.4,516.1,376.1,513.4,376.1,513.4z"/>
			</g>
			<g>
				<path class="st56" d="M384.5,513c-0.1,0.9-0.3,1.5-0.3,1.5l-0.6,0.8c0,0,0-1.7-0.1-1.9c0-0.1-0.1-0.3-0.1-0.5
					c-0.1-0.3-0.1-0.7-0.2-0.8c-0.1-0.2-3.4-1.2-6.4,0.2c0,0,0,0.3,0,0.5c0,0.3,0,0.7-0.2,0.8c-0.3,0.1-0.2,2-0.2,2l-0.5-0.5
					c0,0-0.1-1-0.3-2.1c0,0,0,0,0,0c0-0.3-0.1-0.5-0.1-0.8c-0.1-1.1,0-3.1,1.5-4.3c1-0.4,2.6-0.8,5.2,0c0,0,0.6,0,0.8,0.2
					C384.8,509.8,384.5,513,384.5,513z"/>
			</g>
			<path class="st57" d="M377.9,520.2c0,0,0.6,0.9,2.1,0.8c1.5,0,2.1-0.8,2.1-0.8s-0.7,1.5-2.1,1.4
				C378.6,521.6,377.9,520.2,377.9,520.2z"/>
			<path class="st55" d="M377,522.7c0,0,1.1,1.9,3.1,2c1.3,0.1,2.4-1.5,2.9-2.3C383,522.4,380.1,521.2,377,522.7z"/>
			<path class="st58" d="M382.6,521.8c0,0-0.8,1.1-2.5,2.2l1.1,1.7l1.8-3.3L382.6,521.8z"/>
			<path class="st58" d="M377.4,522.1c0,0,1,1.3,2.6,2l-1.2,1.7l-2.1-3L377.4,522.1z"/>
			<path class="st59" d="M380,524l0.9,1.4c0,0-1,0.5-1.9,0L380,524z"/>
			<path class="st46" d="M391.9,525.7C391.9,525.7,391.9,525.7,391.9,525.7c-0.1,0.5-0.5,1.8-1,3.7c-0.2,0.2-0.4,0.3-0.6,0.5
				c-0.2,0.2-0.5,0.3-0.7,0.5c-2.2,1.6-4.8,2.6-7.6,2.9c0.2-5.8,0.9-10.9,0.9-10.9c0.5,0.1,1.1,0.3,1.5,0.4c0,0,0,0,0,0
				c4.2,1.2,6.4,2.3,7.1,2.7c0,0,0,0,0,0C391.8,525.6,391.9,525.7,391.9,525.7z"/>
			<path class="st46" d="M376.6,533.1c-2.5-0.5-4.9-1.6-6.8-3.1c-0.6-0.5-1.2-1-1.7-1.5c-0.1-0.1-0.2-0.2-0.3-0.3
				c-0.3-1.2-0.5-2.1-0.5-2.1v0c0,0,2.1-1.4,9.4-3.3c0,0,0,0,0,0C376.7,522.9,376.7,527.6,376.6,533.1z"/>
			<path class="st59" d="M380.6,525.6c-0.1,1.5-0.1,4.5-0.1,7.8c-0.2,0-0.4,0-0.5,0c-0.5,0-1.1,0-1.6-0.1c0.3-4.2,0.9-6.8,1.1-7.8
				c0.1-0.3,0.1-0.5,0.1-0.5l1,0.2C380.6,525.3,380.6,525.4,380.6,525.6z"/>
			<g>
				<path class="st46" d="M392.8,527.5c-0.6,0.7-1.2,1.3-1.9,1.9c-0.2,0.2-0.4,0.3-0.6,0.5c0,0,1-2.8,1.6-4.2
					C392.4,526,392.6,527,392.8,527.5z"/>
			</g>
			<g>
				<path class="st46" d="M368.1,528.5c-0.1-0.1-0.2-0.2-0.3-0.3c-0.4-0.4-0.7-0.8-1.1-1.2c0.2-0.5,0.4-0.8,0.6-0.9v0L368.1,528.5z"
					/>
			</g>
		</g>
	</g>
</g>
<g>
	<g>
		<rect x="627.1" y="593.1" class="st41" width="56.4" height="3.3"/>
	</g>
	<g>
		<rect x="671" y="605.1" class="st42" width="4.9" height="152.4"/>
	</g>
	<g>
		<rect x="596.7" y="592.1" class="st43" width="39.2" height="4.8"/>
	</g>
	<g>
		<rect x="608.8" y="551.3" class="st44" width="14.9" height="45.1"/>
	</g>
	<g>
		<rect x="486.4" y="596.5" class="st45" width="217.4" height="8.7"/>
	</g>
	<g>
		<g>
			<g>
				<path class="st46" d="M648.1,563.9C648.1,563.9,648.1,563.9,648.1,563.9C648,563.9,648,563.9,648.1,563.9z"/>
			</g>
		</g>
	</g>
	<g>
		<rect x="514.2" y="605.1" class="st42" width="4.9" height="152.4"/>
	</g>
	<g>
		<path class="st47" d="M555.7,573h121.1c2,0,3.6-1.6,3.6-3.6v-83.3c0-2-1.6-3.6-3.6-3.6H555.7c-2,0-3.6,1.6-3.6,3.6v83.3
			C552.1,571.4,553.7,573,555.7,573z"/>
	</g>
	<g>
		<rect x="557.2" y="487.4" class="st48" width="118.3" height="71.4"/>
	</g>
	<g>
		<rect x="557.2" y="487.4" class="st49" width="118.3" height="5.7"/>
	</g>
	<g>
		<path class="st49" d="M563.8,554.5h9.8c1.2,0,2.2-1,2.2-2.2v-52.6c0-1.2-1-2.2-2.2-2.2h-9.8c-1.2,0-2.2,1-2.2,2.2v52.6
			C561.5,553.5,562.5,554.5,563.8,554.5z"/>
	</g>
	<g>
		<path class="st49" d="M647.3,502.7h23.6c0.7,0,1.2-0.5,1.2-1.2v-2.9c0-0.7-0.5-1.2-1.2-1.2h-23.6c-0.7,0-1.2,0.5-1.2,1.2v2.9
			C646.1,502.1,646.6,502.7,647.3,502.7z"/>
	</g>
	<g>
		<path class="st49" d="M648.5,555.9h21c1.4,0,2.5-1.1,2.5-2.5v-44.7c0-1.4-1.1-2.5-2.5-2.5h-21c-1.4,0-2.5,1.1-2.5,2.5v44.7
			C646.1,554.8,647.2,555.9,648.5,555.9z"/>
	</g>
	<g>
		<circle class="st50" cx="616.3" cy="565.7" r="4.1"/>
	</g>
	<g class="st51">
		<path class="st52" d="M618,516.6c0,9.2-7.4,16.7-16.7,16.7c-9.2,0-16.7-7.5-16.7-16.7c0-9.2,7.5-16.7,16.7-16.7
			C610.5,499.9,618,507.4,618,516.6z"/>
		<g class="st53">
			<g>
				<path class="st54" d="M612.2,525.8l-1.2,4.4c-2.2,1.6-4.8,2.6-7.6,2.9c-0.5,0.1-1,0.1-1.5,0.1c-0.2,0-0.4,0-0.5,0
					c-0.5,0-1.1,0-1.6-0.1c-0.6-0.1-1.2-0.1-1.7-0.3c-2.5-0.5-4.9-1.6-6.8-3.1c-0.2-1.5-0.5-3.1-0.7-4.6c1.2-0.5,5.1-1.8,7.6-2.6
					c0,0,0.1,0,0.1,0c0.1,0,0.1,0,0.2-0.1c0.1,0,0.3-0.1,0.4-0.1c0.1,0,0.3-0.1,0.4-0.1c0.5-0.2,0.9-0.3,1-0.3h0c0,0,0,0,0,0l0,0
					l3.3,0.2l0.6,0l0.2,0c0,0,0,0,0.1,0c0.2,0.1,0.8,0.2,1.6,0.4c0,0,0,0,0,0C607.8,523.3,611,524.4,612.2,525.8z"/>
			</g>
			<g>
				<path class="st55" d="M602.2,508.3c0,0,4,0.7,3.3,6.9c-0.7,6.2-4.2,5.7-4.4,5.7c-0.2,0-3.5,0.1-3.7-7.5
					C597.3,513.3,597.3,507.7,602.2,508.3z"/>
			</g>
			<g>
				<path class="st55" d="M603.9,519.1c0,0-0.1,2.6,0.1,3.1c0.2,0.6-3.2,2.3-5.3,0.3c0,0,0.4-2.8,0.3-3.8
					C598.8,517.7,603.9,519.1,603.9,519.1z"/>
			</g>
			<g>
				<path class="st55" d="M605.5,513.5c0,0,0.4-0.5,0.6,0c0.2,0.5-0.7,2.6-0.7,2.7c0,0-0.1,0.2-0.2,0.1
					C605.2,516.1,605.5,513.5,605.5,513.5z"/>
			</g>
			<g>
				<path class="st55" d="M597.4,513.3c0,0-0.4-0.5-0.6,0c-0.2,0.5,0.5,2.6,0.5,2.7c0,0,0.1,0.2,0.2,0.1
					C597.7,516,597.4,513.3,597.4,513.3z"/>
			</g>
			<g>
				<path class="st56" d="M605.8,512.9c-0.1,0.9-0.3,1.5-0.3,1.5l-0.6,0.8c0,0,0-1.7-0.1-1.9c0-0.1-0.1-0.3-0.1-0.5
					c-0.1-0.3-0.1-0.7-0.2-0.8c-0.1-0.2-3.4-1.2-6.4,0.2c0,0,0,0.3,0,0.5c0,0.3,0,0.7-0.2,0.8c-0.3,0.1-0.2,2-0.2,2l-0.5-0.5
					c0,0-0.1-1-0.3-2.1c0,0,0,0,0,0c0-0.3-0.1-0.5-0.1-0.8c-0.1-1.1,0-3.1,1.5-4.3c1-0.4,2.6-0.8,5.2,0c0,0,0.6,0,0.8,0.2
					C606.1,509.7,605.8,512.9,605.8,512.9z"/>
			</g>
			<path class="st57" d="M599.3,520c0,0,0.6,0.9,2.1,0.8c1.5,0,2.1-0.8,2.1-0.8s-0.7,1.5-2.1,1.4C599.9,521.5,599.3,520,599.3,520z"
				/>
			<path class="st55" d="M598.3,522.6c0,0,1.1,1.9,3.1,2c1.3,0.1,2.4-1.5,2.9-2.3C604.3,522.3,601.4,521.1,598.3,522.6z"/>
			<path class="st58" d="M603.9,521.7c0,0-0.8,1.1-2.5,2.2l1.1,1.7l1.8-3.3L603.9,521.7z"/>
			<path class="st58" d="M598.8,521.9c0,0,1,1.3,2.6,2l-1.2,1.7l-2.1-3L598.8,521.9z"/>
			<path class="st59" d="M601.4,523.9l0.9,1.4c0,0-1,0.5-1.9,0L601.4,523.9z"/>
			<path class="st46" d="M613.2,525.6C613.2,525.6,613.2,525.6,613.2,525.6c-0.1,0.5-0.5,1.8-1,3.7c-0.2,0.2-0.4,0.3-0.6,0.5
				c-0.2,0.2-0.5,0.3-0.7,0.5c-2.2,1.6-4.8,2.6-7.6,2.9c0.2-5.8,0.9-10.9,0.9-10.9c0.5,0.1,1.1,0.3,1.5,0.4c0,0,0,0,0,0
				c4.2,1.2,6.4,2.3,7.1,2.7c0,0,0,0,0,0C613.2,525.5,613.2,525.6,613.2,525.6z"/>
			<path class="st46" d="M598,533c-2.5-0.5-4.9-1.6-6.8-3.1c-0.6-0.5-1.2-1-1.7-1.5c-0.1-0.1-0.2-0.2-0.3-0.3
				c-0.3-1.2-0.5-2.1-0.5-2.1v0c0,0,2.1-1.4,9.4-3.3c0,0,0,0,0,0C598,522.8,598,527.5,598,533z"/>
			<path class="st59" d="M601.9,525.5c-0.1,1.5-0.1,4.5-0.1,7.8c-0.2,0-0.4,0-0.5,0c-0.5,0-1.1,0-1.6-0.1c0.3-4.2,0.9-6.8,1.1-7.8
				c0.1-0.3,0.1-0.5,0.1-0.5l1,0.2C601.9,525.2,601.9,525.3,601.9,525.5z"/>
			<g>
				<path class="st46" d="M614.1,527.4c-0.6,0.7-1.2,1.3-1.9,1.9c-0.2,0.2-0.4,0.3-0.6,0.5c0,0,1-2.8,1.6-4.2
					C613.7,525.9,613.9,526.9,614.1,527.4z"/>
			</g>
			<g>
				<path class="st46" d="M589.4,528.4c-0.1-0.1-0.2-0.2-0.3-0.3c-0.4-0.4-0.7-0.8-1.1-1.2c0.2-0.5,0.4-0.8,0.6-0.9v0L589.4,528.4z"
					/>
			</g>
		</g>
	</g>
</g>
<g>
	<g>
		<rect x="185.2" y="596.3" class="st41" width="56.4" height="3.3"/>
	</g>
	<g>
		<rect x="229.1" y="608.3" class="st42" width="4.9" height="152.4"/>
	</g>
	<g>
		<rect x="154.7" y="595.3" class="st43" width="39.2" height="4.8"/>
	</g>
	<g>
		<rect x="166.9" y="554.5" class="st44" width="14.9" height="45.1"/>
	</g>
	<g>
		<rect x="44.5" y="599.7" class="st45" width="217.4" height="8.7"/>
	</g>
	<g>
		<g>
			<g>
				<path class="st46" d="M206.2,567.1C206.2,567.1,206.2,567.1,206.2,567.1C206.1,567.1,206.1,567.1,206.2,567.1z"/>
			</g>
		</g>
	</g>
	<g>
		<rect x="72.3" y="608.3" class="st42" width="4.9" height="152.4"/>
	</g>
	<g>
		<path class="st47" d="M113.8,576.2h121.1c2,0,3.6-1.6,3.6-3.6v-83.3c0-2-1.6-3.6-3.6-3.6H113.8c-2,0-3.6,1.6-3.6,3.6v83.3
			C110.2,574.6,111.8,576.2,113.8,576.2z"/>
	</g>
	<g>
		<rect x="115.2" y="490.6" class="st48" width="118.3" height="71.4"/>
	</g>
	<g>
		<rect x="115.2" y="490.6" class="st49" width="118.3" height="5.7"/>
	</g>
	<g>
		<path class="st49" d="M121.8,557.6h9.8c1.2,0,2.2-1,2.2-2.2v-52.6c0-1.2-1-2.2-2.2-2.2h-9.8c-1.2,0-2.2,1-2.2,2.2v52.6
			C119.6,556.6,120.6,557.6,121.8,557.6z"/>
	</g>
	<g>
		<path class="st49" d="M205.3,505.8h23.6c0.7,0,1.2-0.5,1.2-1.2v-2.9c0-0.7-0.5-1.2-1.2-1.2h-23.6c-0.7,0-1.2,0.5-1.2,1.2v2.9
			C204.1,505.3,204.7,505.8,205.3,505.8z"/>
	</g>
	<g>
		<path class="st49" d="M206.6,559.1h21c1.4,0,2.5-1.1,2.5-2.5v-44.7c0-1.4-1.1-2.5-2.5-2.5h-21c-1.4,0-2.5,1.1-2.5,2.5v44.7
			C204.1,558,205.3,559.1,206.6,559.1z"/>
	</g>
	<g>
		<circle class="st50" cx="174.4" cy="568.9" r="4.1"/>
	</g>
	<g class="st51">
		<path class="st52" d="M176.1,519.8c0,9.2-7.4,16.7-16.7,16.7c-9.2,0-16.7-7.5-16.7-16.7c0-9.2,7.5-16.7,16.7-16.7
			C168.6,503.1,176.1,510.6,176.1,519.8z"/>
		<g class="st53">
			<g>
				<path class="st54" d="M170.3,529l-1.2,4.4c-2.2,1.6-4.8,2.6-7.6,2.9c-0.5,0.1-1,0.1-1.5,0.1c-0.2,0-0.4,0-0.5,0
					c-0.5,0-1.1,0-1.6-0.1c-0.6-0.1-1.2-0.1-1.7-0.3c-2.5-0.5-4.9-1.6-6.8-3.1c-0.2-1.5-0.5-3.1-0.7-4.6c1.2-0.5,5.1-1.8,7.6-2.6
					c0,0,0.1,0,0.1,0c0.1,0,0.1,0,0.2-0.1c0.1,0,0.3-0.1,0.4-0.1c0.1,0,0.3-0.1,0.4-0.1c0.5-0.2,0.9-0.3,1-0.3h0c0,0,0,0,0,0l0,0
					l3.3,0.2l0.6,0l0.2,0c0,0,0,0,0.1,0c0.2,0.1,0.8,0.2,1.6,0.4c0,0,0,0,0,0C165.9,526.5,169.1,527.6,170.3,529z"/>
			</g>
			<g>
				<path class="st55" d="M160.3,511.5c0,0,4,0.7,3.3,6.9c-0.7,6.2-4.2,5.7-4.4,5.7c-0.2,0-3.5,0.1-3.7-7.5
					C155.4,516.5,155.4,510.9,160.3,511.5z"/>
			</g>
			<g>
				<path class="st55" d="M162,522.3c0,0-0.1,2.6,0.1,3.1c0.2,0.6-3.2,2.3-5.3,0.3c0,0,0.4-2.8,0.3-3.8
					C156.9,520.9,162,522.3,162,522.3z"/>
			</g>
			<g>
				<path class="st55" d="M163.6,516.6c0,0,0.4-0.5,0.6,0c0.2,0.5-0.7,2.6-0.7,2.7c0,0-0.1,0.2-0.2,0.1
					C163.3,519.3,163.6,516.6,163.6,516.6z"/>
			</g>
			<g>
				<path class="st55" d="M155.5,516.5c0,0-0.4-0.5-0.6,0c-0.2,0.5,0.5,2.6,0.5,2.7c0,0,0.1,0.2,0.2,0.1
					C155.8,519.2,155.5,516.5,155.5,516.5z"/>
			</g>
			<g>
				<path class="st56" d="M163.9,516.1c-0.1,0.9-0.3,1.5-0.3,1.5l-0.6,0.8c0,0,0-1.7-0.1-1.9c0-0.1-0.1-0.3-0.1-0.5
					c-0.1-0.3-0.1-0.7-0.2-0.8c-0.1-0.2-3.4-1.2-6.4,0.2c0,0,0,0.3,0,0.5c0,0.3,0,0.7-0.2,0.8c-0.3,0.1-0.2,2-0.2,2l-0.5-0.5
					c0,0-0.1-1-0.3-2.1c0,0,0,0,0,0c0-0.3-0.1-0.5-0.1-0.8c-0.1-1.1,0-3.1,1.5-4.3c1-0.4,2.6-0.8,5.2,0c0,0,0.6,0,0.8,0.2
					C164.2,512.9,163.9,516.1,163.9,516.1z"/>
			</g>
			<path class="st57" d="M157.3,523.2c0,0,0.6,0.9,2.1,0.8c1.5,0,2.1-0.8,2.1-0.8s-0.7,1.5-2.1,1.4
				C158,524.7,157.3,523.2,157.3,523.2z"/>
			<path class="st55" d="M156.4,525.7c0,0,1.1,1.9,3.1,2c1.3,0.1,2.4-1.5,2.9-2.3C162.4,525.5,159.5,524.2,156.4,525.7z"/>
			<path class="st58" d="M162,524.9c0,0-0.8,1.1-2.5,2.2l1.1,1.7l1.8-3.3L162,524.9z"/>
			<path class="st58" d="M156.9,525.1c0,0,1,1.3,2.6,2l-1.2,1.7l-2.1-3L156.9,525.1z"/>
			<path class="st59" d="M159.5,527.1l0.9,1.4c0,0-1,0.5-1.9,0L159.5,527.1z"/>
			<path class="st46" d="M171.3,528.8C171.3,528.8,171.3,528.8,171.3,528.8c-0.1,0.5-0.5,1.8-1,3.7c-0.2,0.2-0.4,0.3-0.6,0.5
				c-0.2,0.2-0.5,0.3-0.7,0.5c-2.2,1.6-4.8,2.6-7.6,2.9c0.2-5.8,0.9-10.9,0.9-10.9c0.5,0.1,1.1,0.3,1.5,0.4c0,0,0,0,0,0
				c4.2,1.2,6.4,2.3,7.1,2.7c0,0,0,0,0,0C171.2,528.7,171.3,528.8,171.3,528.8z"/>
			<path class="st46" d="M156,536.2c-2.5-0.5-4.9-1.6-6.8-3.1c-0.6-0.5-1.2-1-1.7-1.5c-0.1-0.1-0.2-0.2-0.3-0.3
				c-0.3-1.2-0.5-2.1-0.5-2.1v0c0,0,2.1-1.4,9.4-3.3c0,0,0,0,0,0C156.1,526,156.1,530.7,156,536.2z"/>
			<path class="st59" d="M160,528.6c-0.1,1.5-0.1,4.5-0.1,7.8c-0.2,0-0.4,0-0.5,0c-0.5,0-1.1,0-1.6-0.1c0.3-4.2,0.9-6.8,1.1-7.8
				c0.1-0.3,0.1-0.5,0.1-0.5l1,0.2C160,528.4,160,528.5,160,528.6z"/>
			<g>
				<path class="st46" d="M172.2,530.5c-0.6,0.7-1.2,1.3-1.9,1.9c-0.2,0.2-0.4,0.3-0.6,0.5c0,0,1-2.8,1.6-4.2
					C171.8,529,172,530,172.2,530.5z"/>
			</g>
			<g>
				<path class="st46" d="M147.5,531.6c-0.1-0.1-0.2-0.2-0.3-0.3c-0.4-0.4-0.7-0.8-1.1-1.2c0.2-0.5,0.4-0.8,0.6-0.9v0L147.5,531.6z"
					/>
			</g>
		</g>
	</g>
</g>
<g>
	<g>
		<g>
			<path class="st19" d="M366.3,582.8L366.3,582.8c-23.1,0-42-18.9-42-42v-27.6c0-23.1,18.9-42,42-42h0c23.1,0,42,18.9,42,42v27.6
				C408.3,563.9,389.4,582.8,366.3,582.8z"/>
			<g>
				<path class="st60" d="M308.5,704.1c-0.2,2.7-0.3,5.4-0.2,8c0.2,7.7,1.6,15.3,4.2,22.6c1.8,5.2,4.1,10.2,7.1,15l14.5,23.8h-11.2
					c-1.3-1-2.3-2.3-3.2-3.7l-6.3-1.3l-18.1-3.8c-2-3.2-3.8-6.4-5.5-9.7c-3.7-7.3-6.8-14.6-9-22c-1-3.4-1.9-6.8-2.6-10.1
					c-0.8-3.6-1.3-7.2-1.7-10.8c-0.2-2.4-0.4-4.8-0.5-7.3c-0.2-6.3,0.3-12.7,1.4-18.9c0-0.2,0.1-0.4,0.1-0.7
					c0.1-0.3,0.1-0.6,0.2-0.9c1.6-8.2,4.4-16.3,8.5-24.2c0.9-1.7,1.8-3.4,2.8-5l21.8-27.1c0.5-0.8,1-1.5,1.6-2.2
					c4.4-5,12-6.3,18-2.7c6.8,4.1,9,13,5,19.8l-5.1,8.6l-1,1.8l-10.6,18c-2.5,4.3-4.6,8.9-6.3,13.5c-0.5,1.3-0.9,2.6-1.3,4
					C309.8,693.9,308.9,699,308.5,704.1z"/>
			</g>
			<g>
				<path class="st60" d="M445.8,712.2c-0.2,8.9-1.5,17.7-4,26.3c-0.9,3.1-1.9,6.2-3.1,9.3c-2.3,5.9-5.1,11.6-8.5,17.2l-16.5,3.5
					l-7.8,1.7c-0.8,1.4-1.9,2.6-3,3.5h-11.3L406,750c2.8-4.6,5.1-9.3,6.8-14.2c2.7-7.7,4.2-15.6,4.5-23.6c0.3-10.8-1.7-21.7-6-31.8
					c-0.1-0.1-0.1-0.3-0.2-0.4c-1.2-2.9-2.7-5.7-4.3-8.4l-8.3-14.1l-1.8-3.1l-1.1-1.9l-2.7-4.5l-0.3-0.5v0l-2.5-4.2
					c-0.9-1.5-1.5-3.2-1.8-4.9v0c-0.6-3.7,0.2-7.5,2.3-10.6c1.1-1.7,2.7-3.2,4.5-4.3c0.8-0.5,1.6-0.9,2.4-1.2
					c0.3-0.1,0.6-0.2,0.9-0.3c2.4-0.7,5-0.8,7.3-0.2c3.6,0.9,6.8,3.1,8.8,6.6l8.4,14.2l5.6,9.6l2.7,4.6c3.5,6,6.4,12.2,8.6,18.6
					c0.4,1.2,0.8,2.4,1.2,3.6c1.5,4.8,2.6,9.8,3.4,14.7C445.6,699.7,446,705.9,445.8,712.2z"/>
			</g>
			<path class="st60" d="M428.9,651.8l-19.7,31.2l-33.9-72.6l20.4-1.6C395.7,608.8,412.7,616.5,428.9,651.8z"/>
			<path class="st60" d="M413.9,773.6H313.6l-0.1-5l-0.9-33.8l-0.6-22.6l-0.2-8.1l-0.4-15.2l-0.1-5.3l-0.6-21.8l-0.2-6.9l-0.4-13.8
				c-0.1-5.4,0.8-10.5,2.6-15.3c1.8-4.7,4.5-9,7.8-12.7c1.9-2.1,4.1-4.1,6.4-5.7c0.3-0.2,0.6-0.4,0.9-0.6c6.1-4.1,13.3-6.6,21.2-6.8
				l4.1-0.1l7.2-0.2l5.3-0.1l3.7-0.1c0.9,0,1.7,0,2.6,0c1.7,0.1,3.3,0.2,4.9,0.5c2.4,0.4,4.7,1,7,1.8c1.1,0.4,2.1,0.8,3.2,1.3
				c0.2,0.1,0.4,0.2,0.6,0.3c3,1.4,5.8,3.3,8.4,5.4c0.5,0.4,1,0.8,1.4,1.3c0.2,0.2,0.4,0.4,0.6,0.6c0.3,0.3,0.6,0.5,0.8,0.8
				c0.5,0.6,1.1,1.1,1.6,1.7c2.3,2.6,4.2,5.4,5.8,8.5c2.6,5.1,4.1,10.9,4.3,17l0.5,17.2l0.2,6.1l0.1,2.4l0.4,15.3l0,0.6l0.9,31.8
				l0.7,23.6l0.9,32.7L413.9,773.6z"/>
			<g>
				<polygon class="st19" points="375.7,570 376.6,602.8 353,603.3 352.1,570.6 				"/>
			</g>
			<path class="st60" d="M286.3,660.2l37.9,35.7l20.5-70.4l-17.3-19C327.4,606.6,301.9,622,286.3,660.2z"/>
		</g>
		<g class="st61">
			<path class="st62" d="M437.8,703.5V765H285.9v-61.4c0-11,3.6-21.3,9.7-29.5c3-4.2,6.7-7.9,10.9-10.9c5.5-4,11.9-7,18.9-8.4
				c2.4-0.5,5-0.9,7.5-1c1-0.1,2-0.1,3-0.1h52.1c1,0,2,0,3,0.1c0.2,0,0.4,0,0.6,0c1,0.1,2,0.2,3,0.3c0.5,0.1,1,0.1,1.4,0.2
				c3.7,0.6,7.3,1.6,10.6,3c4.1,1.7,8,3.9,11.5,6.6c0.5,0.4,1,0.8,1.5,1.2c1.7,1.4,3.3,2.9,4.7,4.5l0,0c4.6,4.9,8.3,10.8,10.6,17.3
				c0.9,2.6,1.7,5.3,2.1,8.1C437.6,697.7,437.8,700.6,437.8,703.5z"/>
		</g>
		<g>
			<path class="st63" d="M437.8,712.2v61.4H285.9v-61.4c0-11,3.6-21.3,9.7-29.5c3-4.2,6.7-7.8,10.9-10.9c5.5-4,11.9-7,18.9-8.4
				c2.4-0.5,5-0.9,7.5-1c1-0.1,2-0.1,3-0.1h52.1c1,0,2,0,3,0.1c0.2,0,0.4,0,0.6,0c1,0.1,2,0.2,3,0.3c0.5,0.1,1,0.1,1.4,0.2
				c3.7,0.6,7.3,1.6,10.6,3c4.1,1.7,8,3.9,11.5,6.6c0.5,0.4,1,0.8,1.5,1.2c1.7,1.4,3.3,2.9,4.7,4.4l0,0c4.6,4.9,8.3,10.8,10.6,17.3
				c0.9,2.6,1.7,5.3,2.1,8.1C437.6,706.4,437.8,709.3,437.8,712.2z"/>
		</g>
		<g>
			<path class="st64" d="M437.8,729.2v44.4H285.9v-44.4c0-11,3.6-21.3,9.7-29.5c3-4.2,6.7-7.9,10.9-10.9c5.5-4,11.9-7,18.9-8.4
				c2.4-0.5,5-0.9,7.5-1c1-0.1,2-0.1,3-0.1h52.1c1,0,2,0,3,0.1c0.2,0,0.4,0,0.6,0c1,0.1,2,0.2,3,0.3c0.5,0.1,1,0.1,1.4,0.2
				c3.7,0.6,7.3,1.6,10.6,3c4.1,1.7,8,3.9,11.5,6.6c0.5,0.4,1,0.8,1.5,1.2c1.7,1.4,3.3,2.9,4.7,4.4l0,0c4.6,4.9,8.3,10.8,10.6,17.3
				c0.9,2.6,1.7,5.3,2.1,8.1C437.6,723.4,437.8,726.3,437.8,729.2z"/>
		</g>
		<path class="st65" d="M403.2,511.9V538c0,24.2-19.6,43.8-43.8,43.8c-12.1,0-23.1-4.9-31-12.8c-7.9-7.9-12.8-18.9-12.8-31v-25.4
			c0-23.9,18.8-43.9,42.7-44.5c12.6-0.3,23.9,4.6,32.1,12.8C398.3,488.8,403.2,499.8,403.2,511.9z"/>
		<path class="st26" d="M403.6,529.4v9c0,24.2-19.6,43.8-43.8,43.8c-12.1,0-23.1-4.9-31-12.8c-7.9-7.9-12.8-18.9-12.8-31v-9
			c0,12.1,4.9,23.1,12.8,31c7.9,7.9,18.9,12.8,31,12.8C384,573.2,403.6,553.6,403.6,529.4z"/>
		<path class="st65" d="M399.2,512.5h12.2c0,0,2.4-43.6-47.3-44.5L399.2,512.5z"/>
		<path class="st65" d="M410.5,512h-12.2v-21.6h12.2c6,0,10.8,4.8,10.8,10.8l0,0C421.3,507.1,416.4,512,410.5,512z"/>
		<path class="st6" d="M368.7,503.8c0,16.7-30.7,80.7-30.7,80.7s-13.7-29.5-22.5-53.7c-4.2-11.4-7.2-21.7-7.2-27
			c0-14.6,10.3-26.7,24-29.6c0.5-0.1,1.1-0.2,1.6-0.3c0.9-0.1,1.8-0.2,2.7-0.3c0.6-0.1,1.3-0.1,1.9-0.1c9.3,0,17.5,4.2,23.1,10.7
			C366.1,489.6,368.7,496.4,368.7,503.8z"/>
		<path class="st66" d="M333.8,552.1c0,0-23.7-33.4-25.5-48.3c0-14.6,10.3-26.7,24-29.6c0.5-0.1,1.1-0.2,1.6-0.3
			c0.9-0.1,1.8-0.2,2.7-0.3c0.6-0.1,1.3-0.1,1.9-0.1c9.3,0,17.5,4.2,23.1,10.7c0,0.4,0,0.8,0,1.2
			C364.2,513.8,333.8,552.1,333.8,552.1z"/>
		<path class="st5" d="M352.3,592.3l21.7,0.4c9.7,0.2,18.7,5.4,23.6,13.8h0c1.1,2.5-1.2,5.2-3.9,4.6l-11.1-2.6l-6.1,4
			c-3.5,2.3-8,2.3-11.5,0.1l-5.4-3.4l-5.3,2.9c-3.6,2-8,1.7-11.3-0.8l-4.7-3.5l-8.5,1c-2.9,0.4-4.7-3-2.8-5.2l0,0
			C333.3,596.3,342.6,592.1,352.3,592.3z"/>
	</g>
	<g>
		<g>
			<g>
				<path class="st19" d="M159,582.8L159,582.8c-23.1,0-42-18.9-42-42v-27.6c0-23.1,18.9-42,42-42h0c23.1,0,42,18.9,42,42v27.6
					C201,563.9,182.1,582.8,159,582.8z"/>
				<path class="st19" d="M120,547.5l-3.3,0.1c-0.3,0-0.5,0-0.7,0c-5.6-0.3-10.1-5.1-10.2-10.7c0-2.9,1.1-5.4,3-7.3
					c1.7-1.8,4.1-2.8,6.7-3c0.3,0,0.6-0.1,0.9-0.1l3.4,0L120,547.5z"/>
				<path class="st19" d="M190.3,549.3l3.3,0.1c0.3,0,0.5,0,0.7,0c5.6-0.3,10.1-5.1,10.2-10.7c0-2.9-1.1-5.4-3-7.3
					c-1.7-1.8-4.1-2.8-6.7-3c-0.3,0-0.6-0.1-0.9-0.1l-3.4,0L190.3,549.3z"/>
				<g>
					<path class="st19" d="M127.3,645.5l-3.8,6.3l-0.4,0.7l-13.8,23.1c-2.8,4.6-5,9.4-6.7,14.3c-0.5,1.4-0.9,2.8-1.3,4.2v0
						c-4.7,15.9-4.2,32.8,1.4,48.6c1.9,5.5,4.5,10.8,7.6,15.9l9.4,15.1H83.9v0.4c-0.1-0.1-0.2-0.2-0.2-0.4
						c-4.1-6.7-7.6-13.7-10.5-20.9c-11.6-29-12.7-61.5,1.3-89c0.9-1.8,1.9-3.6,3-5.4l23.4-28.7c0.5-0.8,1.1-1.6,1.7-2.3
						c4.8-5.3,12.9-6.7,19.4-2.8C129.2,628.9,131.6,638.3,127.3,645.5z"/>
				</g>
				<g>
					<path class="st19" d="M245.9,733.1c-0.6,4.2-1.5,8.3-2.6,12.4c-1.8,6.8-4.3,13.4-7.5,19.9c-1.3,2.8-2.8,5.5-4.5,8.2h-35.9
						l8.7-14c2.6-4.1,4.8-8.5,6.5-12.9c4.4-11.1,6.3-22.9,5.5-34.6c-0.6-9.6-3-19.1-7.1-28c0-0.1-0.1-0.2-0.2-0.3
						c-1.1-2.4-2.4-4.8-3.8-7.2l-1.8-3l-6.7-11.2l-4.6-7.8l-1.9-3.2l-2.6-4.4l0,0l-0.2-0.3v0l0,0l-0.1-0.2c-0.6-1-1.1-2-1.4-3.1v0
						c-0.4-1.2-0.6-2.3-0.7-3.5v0c-0.4-5.6,2.3-11.2,7.5-14.3c1.3-0.8,2.7-1.3,4.1-1.7c2.3-0.6,4.7-0.7,6.9-0.2
						c4.1,0.8,7.8,3.3,10,7.1l3.1,5.2v0l0,0l1.5,2.6l9.6,16l3.8,6.3c4,6.7,7.2,13.7,9.7,20.9v0c0.4,1.2,0.8,2.4,1.2,3.7
						c0.1,0.2,0.1,0.4,0.2,0.6c0.6,2,1.1,4,1.6,6c1,4.2,1.7,8.5,2.2,12.8c0.3,2.5,0.5,4.9,0.6,7.4
						C247.3,719.2,246.9,726.2,245.9,733.1z"/>
				</g>
				<path class="st22" d="M227.9,654.8l-21.2,33L170.2,611l21.9-1.7C192.1,609.3,210.4,617.5,227.9,654.8z"/>
				<path class="st22" d="M211.4,773.6h-108l-0.9-31l-1.4-48.6v0l-0.2-5.6l-0.7-24.2l-0.2-6.8l-0.4-13.8c-0.2-5.7,0.8-11.1,2.8-16.1
					c2.1-5.3,5.2-10.2,9.1-14.3c2.1-2.2,4.5-4.2,7.1-5.9c3.2-2.1,6.7-3.8,10.4-5.1c2.3-0.8,4.8-1.3,7.3-1.7c1.7-0.2,3.3-0.4,5.1-0.4
					l21.9-0.5c3.8-0.1,7.5,0.3,11,1.1c1.9,0.5,3.8,1,5.5,1.7c0.1,0,0.3,0.1,0.4,0.1c1.5,0.6,2.9,1.2,4.3,2c2.6,1.4,5.1,3,7.4,4.9
					c1.4,1.2,2.8,2.5,4.1,3.8c0.1,0.1,0.3,0.3,0.4,0.4c2.8,3,5.1,6.5,6.9,10.2c2.5,5.2,4,11,4.2,17.2l0.4,15.7l0.2,7.8l0.3,10.3
					l0.3,9.1l0,0.5l0.8,27.8l1,34.6L211.4,773.6z"/>
				<g>
					<polygon class="st19" points="173.6,569.9 174.5,602.6 136.6,603.5 135.7,570.8 					"/>
				</g>
				<g>
					<path class="st21" d="M191,507.5l-71.9,1l0-0.8c-0.3-19.8,15.7-36.2,35.5-36.5l36.2-0.5c9.9-0.1,18.1,7.8,18.2,17.7l0,0.6
						C209.1,499,201.1,507.3,191,507.5z"/>
				</g>
				<path class="st22" d="M74.3,663.7l40.8,37.8l22-74.5L118.6,607C118.6,607,91.1,623.3,74.3,663.7z"/>
				<rect x="129.2" y="593.4" class="st5" width="51.2" height="10.8"/>
				<path class="st21" d="M195.2,513.8v27.6c0,23.1-18.9,42-42,42s-42-18.9-42-42v-27.6c0-23.1,18.9-42,42-42
					c11.6,0,22,4.7,29.7,12.3C190.4,491.8,195.2,502.2,195.2,513.8z"/>
			</g>
			<path class="st67" d="M195.2,541.4L195.2,541.4c0,23.1-18.9,42-42,42s-42-18.9-42-42v-0.5c5.2,11.4,17.6,31.7,40.5,30.6
				C176.1,570.2,190,550.4,195.2,541.4z"/>
			<g class="st61">
				<path class="st62" d="M231.8,702.6V765H79.9v-62.3c0-8.4,2.1-16.4,5.8-23.4c2.7-5.2,6.4-9.8,10.7-13.7
					c6.3-5.7,14.1-9.8,22.8-11.7c1.3-0.3,2.7-0.5,4-0.7c0.9-0.1,1.9-0.2,2.9-0.3c0,0,0,0,0,0c1.3-0.1,2.6-0.2,3.8-0.2h52
					c1,0,2.1,0,3.1,0.1h0c0.2,0,0.3,0,0.5,0c0.2,0,0.4,0,0.6,0c2.2,0.2,4.4,0.5,6.5,1c4.1,0.9,7.9,2.3,11.6,4.1
					c3.9,2,7.5,4.4,10.8,7.3c0.7,0.6,1.3,1.2,2,1.8c5.3,5.2,9.4,11.6,12,18.7C230.8,691,231.8,696.7,231.8,702.6z"/>
			</g>
			<g>
				<path class="st63" d="M231.8,711.3v62.3H79.9v-62.3c0-8.4,2.1-16.4,5.8-23.4c2.7-5.2,6.4-9.8,10.7-13.7
					c6.3-5.7,14.1-9.8,22.8-11.7c1.3-0.3,2.7-0.5,4-0.7c0.9-0.1,1.9-0.2,2.9-0.3c0,0,0,0,0,0c1.3-0.1,2.6-0.2,3.8-0.2h52
					c1,0,2.1,0,3.1,0.1h0c0.2,0,0.3,0,0.5,0c0.2,0,0.4,0,0.6,0.1c2.2,0.2,4.4,0.5,6.5,1c4.1,0.9,7.9,2.3,11.6,4.1
					c3.9,2,7.5,4.4,10.8,7.3c0.7,0.6,1.3,1.2,2,1.8c5.3,5.2,9.4,11.6,12,18.7C230.8,699.7,231.8,705.4,231.8,711.3z"/>
			</g>
		</g>
		<g>
			<path class="st64" d="M231.8,728.3v45.3H79.9v-45.3c0-8.4,2.1-16.4,5.8-23.4c2.7-5.2,6.4-9.8,10.7-13.7
				c6.3-5.7,14.1-9.8,22.8-11.7c1.3-0.3,2.7-0.5,4-0.7c0.9-0.1,1.9-0.2,2.9-0.3c0,0,0,0,0,0c1.3-0.1,2.6-0.2,3.8-0.2h52
				c1,0,2.1,0,3.1,0.1h0c0.2,0,0.3,0,0.5,0c0.2,0,0.4,0,0.6,0.1c2.2,0.2,4.4,0.5,6.5,1c4.1,0.9,7.9,2.3,11.6,4.1
				c3.9,2,7.5,4.4,10.8,7.3c0.7,0.6,1.3,1.2,2,1.8c5.3,5.2,9.4,11.6,12,18.7C230.8,716.7,231.8,722.4,231.8,728.3z"/>
		</g>
	</g>
	<g>
		<g>
			<g>
				<path class="st19" d="M563,582.5L563,582.5c23.1,0,42-18.9,42-42v-27.6c0-23.1-18.9-42-42-42h0c-23.1,0-42,18.9-42,42v27.6
					C521,563.6,539.9,582.5,563,582.5z"/>
				<path class="st19" d="M602,547.3l3.3,0.1c0.3,0,0.5,0,0.7,0c5.6-0.3,10.1-5.1,10.2-10.7c0-2.9-1.1-5.4-3-7.3
					c-1.7-1.8-4.1-2.8-6.7-3c-0.3,0-0.6-0.1-0.9-0.1l-3.4,0L602,547.3z"/>
				<path class="st19" d="M531.7,549l-3.3,0.1c-0.3,0-0.5,0-0.7,0c-5.6-0.3-10.1-5.1-10.2-10.7c0-2.9,1.1-5.4,3-7.3
					c1.7-1.8,4.1-2.8,6.7-3c0.3,0,0.6-0.1,0.9-0.1l3.4,0L531.7,549z"/>
				<g>
					<path class="st68" d="M653,740.3c-2.8,9.8-6.8,19.3-11.8,28.3c-0.9,1.7-1.9,3.3-2.9,5h-35.9l9.5-15.3
						c3.2-5.1,5.7-10.4,7.6-15.9c5.6-15.8,6-32.7,1.4-48.6v0c-0.4-1.4-0.9-2.8-1.3-4.2c-1.7-4.9-4-9.7-6.7-14.3l-7-11.7l-5.5-9.2v0
						l-1.1-1.8l-0.4-0.6l-4-6.7c-0.3-0.6-0.6-1.1-0.9-1.7c-1.7-3.9-1.6-8.3,0-12.1c1.2-2.9,3.4-5.4,6.3-7.2c1.8-1.1,3.7-1.7,5.6-2
						c1.2-0.2,2.4-0.2,3.6-0.1c3.8,0.3,7.5,2,10.2,5c0.6,0.7,1.2,1.5,1.7,2.3l23.4,28.7c1.1,1.8,2,3.5,3,5.4
						C659.6,687.2,660.4,714.6,653,740.3z"/>
				</g>
				<g>
					<path class="st68" d="M536.3,643.3L536.3,643.3c-0.3,1.1-0.8,2.1-1.4,3.1l-0.3,0.5l0,0l-3.4,5.7l-2.9,4.8l-11.3,18.9
						c-1.4,2.3-2.7,4.7-3.8,7.2c-0.1,0.1-0.1,0.2-0.2,0.3c-3,6.4-5,13.1-6.2,20c-0.5,2.8-0.8,5.5-1,8.3c-0.7,11.6,1.1,23.3,5.5,34.3
						c1.8,4.4,3.9,8.8,6.5,12.9l8.8,14.2h-35.9c-0.5-0.9-1.1-1.8-1.6-2.7c-2.9-5.1-5.3-10.4-7.4-15.9c-0.9-2.4-1.7-4.7-2.4-7.1
						c-3.5-11.7-5-23.8-4.5-35.8c0.1-3,0.4-6,0.8-9c0.7-5.7,1.9-11.3,3.5-16.9c0.8-2.9,1.8-5.7,2.9-8.5c2.3-5.9,5-11.6,8.3-17.1
						l3.7-6.2c0,0,0,0,0-0.1l14.2-23.8c2.3-3.8,6-6.3,10-7.1c3.6-0.7,7.6-0.2,11,1.9C535.8,629.2,538.5,636.7,536.3,643.3z"/>
				</g>
				<path class="st68" d="M494.1,654.6l21.2,33l36.5-76.8l-21.9-1.7C529.9,609.1,511.6,617.3,494.1,654.6z"/>
				<path class="st68" d="M622.2,643.3l-0.3,12.4l-0.2,6.7l-0.7,25.8l-0.2,5.6v0l-1.4,48.6l-0.9,31.2h-108l0.8-27.1l1-34.3l0.2-8.1
					l0.6-19.9l0-0.6l0.4-14.6l0.3-10l0.5-18.2c0.2-6.2,1.7-12,4.2-17.2c1.8-3.8,4.2-7.3,7.1-10.4c1.3-1.4,2.8-2.8,4.3-4.1
					c3.7-3.1,8-5.5,12.6-7.2c1.6-0.6,3.3-1.1,5-1.5c3.5-0.8,7.2-1.2,11-1.1l0.7,0l1.1,0l12.9,0.3l1.9,0l5.2,0.1
					c1.7,0,3.4,0.2,5.1,0.4c2.8,0.4,5.6,1.1,8.2,2c0.1,0,0.1,0,0.2,0.1c3.3,1.2,6.5,2.8,9.4,4.7c0.8,0.6,1.7,1.2,2.5,1.8
					c1.6,1.3,3.1,2.6,4.6,4.1c0.1,0.1,0.2,0.2,0.3,0.3c3.8,4,6.9,8.8,8.9,14C621.4,632.2,622.4,637.6,622.2,643.3z"/>
				<g>
					<polygon class="st19" points="548.4,569.6 547.5,602.4 585.4,603.3 586.3,570.6 					"/>
				</g>
				<g>
					<path class="st69" d="M531,507.2l71.9,1l0-0.8c0.3-19.8-15.7-36.2-35.5-36.5l-36.2-0.5c-9.9-0.1-18.1,7.8-18.2,17.7l0,0.6
						C512.9,498.8,520.9,507.1,531,507.2z"/>
				</g>
				<path class="st68" d="M647.7,663.5l-40.8,37.8l-22-74.5l18.6-20.1C603.4,606.8,630.9,623.1,647.7,663.5z"/>
				<rect x="542.5" y="592.3" class="st5" width="51.2" height="10.8"/>
				<path class="st69" d="M526.8,513.6v27.6c0,23.1,18.9,42,42,42c23.1,0,42-18.9,42-42v-27.6c0-23.1-18.9-42-42-42
					c-11.6,0-22,4.7-29.7,12.3C531.6,491.5,526.8,502,526.8,513.6z"/>
				<g class="st61">
					<path class="st62" d="M649,703.3V765H497.1v-61.7c0-9.3,2.6-18.1,7-25.6c1.6-2.6,3.4-5.1,5.4-7.4c4.1-4.7,9.1-8.6,14.7-11.5
						c0.6-0.3,1.1-0.6,1.7-0.8c6.4-3,13.5-4.6,21-4.6h52c0.9,0,1.8,0,2.6,0.1c5.7,0.3,11.1,1.6,16.2,3.6c7.5,3,14.1,7.8,19.2,13.9
						C644.5,679.6,649,691,649,703.3z"/>
				</g>
			</g>
			<path class="st26" d="M526.8,541.1L526.8,541.1c0,23.1,18.9,42,42,42c23.1,0,42-18.9,42-42v-0.5c-5.2,11.4-17.6,31.7-40.5,30.6
				C545.9,570,532,550.2,526.8,541.1z"/>
			<g>
				<path class="st63" d="M649,712v61.7H497.1V712c0-9.4,2.6-18.1,7-25.6c1.6-2.6,3.4-5.1,5.4-7.4c4.1-4.7,9.1-8.6,14.7-11.5
					c0.6-0.3,1.1-0.6,1.7-0.8c6.4-3,13.5-4.6,21-4.6h52c0.9,0,1.8,0,2.6,0.1c5.7,0.3,11.1,1.6,16.2,3.6c7.5,3.1,14.1,7.9,19.2,13.9
					C644.5,688.3,649,699.6,649,712z"/>
			</g>
		</g>
		<g>
			<g>
				<path class="st64" d="M649,729v44.7H497.1V729c0-9.4,2.6-18.1,7-25.6c1.6-2.6,3.4-5.1,5.4-7.4c4.1-4.7,9.1-8.6,14.7-11.5
					c0.6-0.3,1.1-0.6,1.7-0.8c6.4-3,13.5-4.6,21-4.6h52c0.9,0,1.8,0,2.6,0.1c5.7,0.3,11.1,1.6,16.2,3.6c7.5,3.1,14.1,7.9,19.2,13.9
					C644.5,705.3,649,716.6,649,729z"/>
			</g>
		</g>
	</g>
</g>
</svg>
